<?xml version="1.0" encoding="UTF-8"?><svg xmlns="http://www.w3.org/2000/svg" viewBox="0 0 709 198"><defs><style>.d{fill:#fbd58b;}.e{fill:#e50012;}.f{fill:#8dc21f;}.g{fill:#6a3906;}.h{fill:#804f21;}.i{fill:#00a63c;}.j{fill:#231815;}</style></defs><g id="a"/><g id="b"/><g id="c"><g><path class="g" d="M235.12,100.43c0-2.59,1.73-3.69,4.55-3.69,2.98,0,5.41,.47,5.41,3.69v1.33h23.78c1.18,0,4.08,.16,4.08,3.77,0,3.06-1.96,3.85-4.08,3.85h-7.22c-.71,2.43-.94,3.14-1.57,4.94h13.18c2.2,0,4,.71,4,3.53,0,2.67-1.26,3.77-4,3.77h-66.23c-1.49,0-4.08-.31-4.08-3.61,0-2.83,1.73-3.69,4.08-3.69h13.73c-.55-1.96-.86-2.98-1.41-4.94h-8c-2.28,0-4.08-.86-4.08-3.77,0-2.75,1.49-3.85,4.08-3.85h23.78v-1.33Zm9.65,51.4h24.8c1.18,0,3.45,.16,3.45,3.22,0,2.43-.86,3.61-3.45,3.61h-24.8v2.98h28.25c.94,0,4,0,4,3.53,0,2.9-1.88,3.61-4,3.61h-65.84c-.86,0-4.08,0-4.08-3.53,0-3.06,2.28-3.61,4.08-3.61h28.25v-2.98h-24.96c-.94,0-3.45-.08-3.45-3.22,0-2.2,.71-3.61,3.45-3.61h24.96v-2.83h-17.19c-7.22,0-8.79-1.65-8.79-8.79v-6.91c0-7.14,1.49-8.79,8.79-8.79h43.79c7.14,0,8.87,1.41,8.87,8.79v6.91c0,7.14-1.57,8.79-8.87,8.79h-17.27v2.83Zm-9.34-17.81v-3.14h-14.36c-1.33,0-1.88,.71-1.88,1.88v1.26h16.24Zm0,5.65h-16.24v1.41c0,1.1,.47,1.88,1.88,1.88h14.36v-3.3Zm-5.89-30.29c.24,.86,1.02,3.45,1.49,4.94h18.6c.39-1.1,1.1-3.85,1.41-4.94h-21.5Zm15.22,24.64h16.4v-1.26c0-1.26-.63-1.88-1.88-1.88h-14.52v3.14Zm0,5.65v3.3h14.52c1.33,0,1.88-.71,1.88-1.88v-1.41h-16.4Z"/><path class="g" d="M341.99,112.83c5.81,0,7.3,1.18,7.3,7.22v2.83c0,5.96-1.41,7.22-7.3,7.22h-46.93c-5.81,0-7.22-1.18-7.22-7.22v-2.83c0-5.89,1.33-7.22,7.22-7.22h6.51c-1.65-1.1-1.65-2.43-1.65-3.61h-14.36c-2.35,0-4.08-.94-4.08-3.77,0-2.67,1.33-3.85,4.08-3.85h14.36c0-1.96,0-4.63,4.47-4.63,5.18,0,5.18,2.12,5.18,4.63h17.74c0-1.96,0-4.63,4.39-4.63,5.1,0,5.1,2.2,5.1,4.63h14.67c2.43,0,4.08,.94,4.08,3.77,0,2.43-1.1,3.84-4.08,3.84h-14.67c0,1.18-.08,2.59-1.65,3.61h6.83Zm-58.62,27.62c0-3.92,1.33-7.69,7.53-7.69h55.09c5.73,0,7.61,3.14,7.61,7.53v5.1c0,1.33,0,4.24-4.47,4.24-4,0-5.18-1.26-5.18-4.24v-3.38c0-1.41-.63-2.2-2.2-2.2h-22.37c-1.8,1.96-2.59,2.75-3.22,3.3h19.62c2.98,0,7.46,0,7.46,5.26,0,2.35-1.18,4.79-5.57,8.48-15.54,13.11-41.59,14.28-45.36,14.28s-4.39-2.9-4.39-4.16c0-2.2,1.1-3.61,3.77-3.85,12.63-.94,13.5-1.02,17.89-1.96-2.51-2.67-4.55-4.55-8.16-7.85-6.28,2.9-9.57,3.53-10.83,3.53-2.43,0-3.85-1.8-3.85-4.16,0-1.33,.63-2.28,2.2-3.06-4.79,.31-5.57-1.65-5.57-4.16v-5.02Zm9.5,5.02c0,1.65-.24,2.51-1.1,3.3,4.55-1.49,10.67-3.53,15.93-8.95h-12.56c-1.1,0-2.28,.24-2.28,2.2v3.45Zm13.03-26.6h-7.06c-1.02,0-1.81,.55-1.81,1.81v1.41c0,1.02,.55,1.8,1.81,1.8h7.06v-5.02Zm23.07-6.04c-1.57-.94-1.65-2.2-1.65-3.61h-17.74c0,1.26,0,2.51-1.65,3.61h21.03Zm-19.46,36.8c4.79,3.69,8.32,7.46,9.57,8.71,1.73-.63,5.89-2.28,10.91-5.96,1.18-.86,1.65-1.26,1.65-1.88,0-.86-.94-.86-1.18-.86h-20.95Zm13.18-30.76h-8.24v5.02h8.24v-5.02Zm8.55,0v5.02h6.91c1.18,0,1.81-.71,1.81-1.8v-1.41c0-1.33-.94-1.81-1.81-1.81h-6.91Z"/><path class="g" d="M369.53,123.11c-1.49,0-5.42,0-5.42-4.87s3.85-4.94,5.42-4.94h18.52c0-2.67,0-6.91,.16-9.57,.16-2.2,.78-4.63,5.1-4.63,5.49,0,5.49,3.3,5.49,5.96,0,1.49-.08,3.45-.24,8.24h18.99c9.65,0,9.81,6.12,9.81,13.18,0,2.51-.63,24.88-3.3,32.18-3.06,8.47-9.18,9.18-16.72,9.18-8.71,0-12.4-.55-12.4-5.89,0-3.92,2.51-4.87,4.87-4.87,1.33,0,7.06,.63,8.32,.63,6.12,0,6.75-2.51,7.53-9.26,1.1-9.18,1.26-20.64,1.26-20.88,0-3.14-.24-4.47-3.22-4.47h-15.93c-.86,8.95-3.69,23.15-14.91,35.24-1.65,1.73-9.65,9.65-13.89,9.65-2.51,0-5.1-2.67-5.1-5.49,0-2.28,1.81-3.61,3.77-5.02,6.98-5.02,17.58-12.63,19.78-34.37h-17.89Zm46.69-22.13c-.16-.47-.31-1.1-.31-1.65,0-1.73,1.96-2.2,2.82-2.2,1.49,0,2.12,.94,3.3,3.77,.78,2.04,1.88,5.34,1.88,6.51,0,2.51-2.67,2.51-2.83,2.51-1.02,0-1.88-.55-2.28-1.65-.24-.63-1.1-3.38-1.33-4-.16-.47-1.1-2.83-1.26-3.3Zm9.18-.86c-.16-.39-.16-.78-.16-1.25,0-1.81,1.88-2.35,2.83-2.35,1.65,0,2.12,1.02,3.22,3.61,.55,1.33,2.04,5.02,2.04,6.59,0,2.35-2.43,2.51-2.83,2.51-1.8,0-1.96-.63-3.69-5.57-.16-.55-1.26-3.06-1.41-3.53Z"/><path class="g" d="M446.27,139.51c-1.73,0-5.81,0-5.81-5.34s3.53-5.41,5.81-5.41h58.39c1.65,0,5.81,0,5.81,5.34s-3.69,5.42-5.81,5.42h-58.39Z"/><path class="g" d="M524.58,133.7c-1.1,0-5.02,0-5.02-4.79s3.85-4.87,5.02-4.87h58.78c1.02,0,5.02,0,5.02,4.79s-3.92,4.87-5.02,4.87h-22.13c-.39,6.98-1.33,21.27-14.83,29.43-6.44,3.92-13.89,5.73-16.17,5.73-3.85,0-4.94-3.92-4.94-5.65,0-3.14,1.81-3.61,6.67-4.94,10.52-2.98,17.81-7.53,18.6-24.56h-25.98Zm46.14-30.68c1.1,0,4.87,0,4.87,4.79s-3.69,4.87-4.87,4.87h-40.18c-1.18,0-4.94,0-4.94-4.79s3.69-4.87,4.94-4.87h40.18Zm4.79-2.83c-.16-.47-.31-1.02-.31-1.57,0-1.88,2.04-2.28,2.9-2.28,1.65,0,2.2,1.33,3.37,4.24,1.02,2.51,1.8,5.18,1.8,6.04,0,2.51-2.67,2.51-2.83,2.51-1.02,0-1.88-.47-2.35-1.57-.24-.63-1.1-3.45-1.26-4-.24-.55-1.18-2.9-1.33-3.37Zm9.02-.86c-.16-.47-.24-.94-.24-1.26,0-1.8,1.96-2.35,2.82-2.35,1.73,0,2.12,1.02,3.3,3.69,.63,1.57,1.96,5.1,1.96,6.51,0,2.28-2.35,2.59-2.83,2.59-1.81,0-1.96-.63-3.61-5.57-.31-.71-1.02-2.59-1.41-3.61Z"/><path class="g" d="M605.64,103.49c1.49,0,2.9,.55,8.71,3.69,17.5,9.57,17.5,10.99,17.5,13.34s-2.59,5.81-5.26,5.81c-2.04,0-3.77-1.18-8.4-4.4-4.08-2.83-9.02-5.49-13.89-8.08-1.8-.94-3.92-2.12-3.92-4.79,0-2.98,2.51-5.02,4.24-5.49,.47-.08,.86-.08,1.02-.08Zm60.98,12.08c0,4-6.91,20.4-14.83,29.59-10.2,11.93-21.9,16.24-31.31,18.76-4.71,1.25-10.44,2.35-12.79,2.35-4.94,0-5.49-4.39-5.49-5.96,0-3.92,2.2-4.71,5.89-5.18,22.21-2.59,38.06-11.14,47.56-39,1.41-4.08,1.88-5.49,4.94-5.49,.55,0,1.26,.08,1.96,.24,1.73,.47,4.08,1.65,4.08,4.71Z"/></g><g><path class="g" d="M335.67,50.61c-.57,0-1.93,0-1.93-1.84,0-1.72,1.15-1.89,1.93-1.89h11.4c.53,0,1.93,0,1.93,1.84s-1.35,1.89-1.93,1.89h-11.4Zm1.11-6.03c-.53,0-1.93,0-1.93-1.8s1.27-1.84,1.93-1.84h9.02c.53,0,1.93,0,1.93,1.8s-1.39,1.84-1.93,1.84h-9.02Zm0,11.93c-.53,0-1.93,0-1.93-1.85s1.27-1.84,1.93-1.84h9.06c.53,0,1.93,0,1.93,1.84s-1.27,1.85-1.93,1.85h-9.06Zm-.04,5.9c-.49,0-1.89-.04-1.89-1.76,0-1.48,.9-1.8,1.89-1.8h9.14c.45,0,1.89,.04,1.89,1.76s-1.27,1.8-1.97,1.8h-9.06Zm10.87,11.07c0,3.2-.74,4.06-4.02,4.06h-4.51c-3.24,0-4.02-.82-4.02-4.06v-4.72c0-3.24,.78-4.06,4.02-4.06h4.51c3.16,0,4.02,.78,4.02,4.06v4.72Zm-3.48-4.22c0-.74-.29-1.19-1.11-1.19h-2.91c-.7,0-1.15,.29-1.15,1.19v3.53c0,.9,.49,1.19,1.15,1.19h2.91c.74,0,1.11-.41,1.11-1.19v-3.53Zm8.28,3.44c-.74,2.83-.98,3.53-2.21,3.53-.25,0-2.05-.08-2.05-1.76,0-.49,.53-2.21,.74-2.91,.74-2.42,1.19-5.08,1.31-5.78,.16-1.07,.37-1.89,1.72-1.89,.29,0,1.84,.08,1.84,1.48,0,2.05-1.31,7.22-1.35,7.34Zm-.61-28.04c-.53,0-1.93,0-1.93-1.84s1.39-1.89,1.93-1.89h14.88c2.21,0,4.76,.12,4.76,4.51,0,1.8-.37,8.65-1.31,11.4-.86,2.54-2.95,2.58-5.33,2.58-1.8,0-3.32,0-3.32-2.21,0-1.93,1.39-1.93,2.09-1.93,2.21,0,2.46,0,2.87-.9,.62-1.31,.94-6.8,.94-7.99,0-1.35-.25-1.72-1.68-1.72h-4.51c-.12,.74-.37,2.67-1.23,5,3.36,1.56,3.57,2.01,3.57,2.79,0,.9-.74,2.17-1.76,2.17-.66,0-1.11-.29-2.34-1.02-.53-.33-.78-.41-1.03-.53-.49,.82-1.68,2.91-4.26,5.17-2.25,1.97-2.91,2.01-3.32,2.01-1.11,0-2.13-.98-2.13-2.21q0-.94,2.99-3.16c1.48-1.11,2.54-2.58,3.12-3.44-.57-.21-2.95-1.11-3.44-1.31-.41-.21-.78-.57-.78-1.27,0-.74,.53-2.01,1.76-2.01,.82,0,1.48,.29,4.02,1.23,.49-1.43,.62-2.54,.7-3.4h-5.25Zm7.05,27.63c0,1.23,.41,1.39,1.56,1.39,2.34,0,2.46-.08,2.71-2.42,.12-1.27,.21-2.05,1.56-2.05,1.76,0,1.76,1.31,1.76,1.89,0,1.6-.12,3.2-.78,4.63-.82,1.8-2.09,1.85-5.53,1.85-3.94,0-5-.45-5-4.26v-7.22c0-.53,0-1.89,1.85-1.89s1.89,1.31,1.89,1.89v6.19Zm3.98-7.01c-.78,0-1.44-.45-2.95-1.35-.94-.57-3.12-1.76-3.73-2.13-.78-.49-.86-.98-.86-1.31,0-.82,.57-2.13,2.05-2.13,1.15,0,2.87,1.03,4.18,1.8,1.35,.78,3.12,1.8,3.12,2.87,0,1.19-.86,2.25-1.8,2.25Zm7.54,10.78c-1.39,0-1.52-.57-2.17-3.28-.61-2.67-1.35-4.35-2.21-6.31-.21-.45-.37-.86-.37-1.44,0-1.48,1.89-1.56,2.05-1.56,1.15,0,1.39,.57,2.5,3.03,.66,1.39,2.42,6.19,2.42,7.58,0,1.72-1.72,1.97-2.21,1.97Z"/><path class="g" d="M408.41,73.36c0,1.6-.16,4.06-3.12,4.43-1.19,.16-7.42,.16-9.06,.16-2.01,0-3.69,0-3.69-2.42,0-2.13,1.43-2.13,2.62-2.13,.94,0,5.08,.08,5.95,.08,1.64,0,2.87,0,2.87-1.76v-26.32h-27.02c-.66,0-2.13-.08-2.13-1.93,0-1.48,.53-2.21,2.13-2.21h34.52c.61,0,2.13,.04,2.13,1.97,0,1.43-.49,2.17-2.13,2.17h-3.08v27.96Zm-9.92-8.94c0,3.44-1.39,4.59-4.59,4.59h-10.62c-3.16,0-4.59-1.11-4.59-4.59v-10.17c0-3.49,1.44-4.55,4.59-4.55h10.62c3.12,0,4.59,1.03,4.59,4.55v10.17Zm-4.18-9.27c0-1.11-.53-1.6-1.6-1.6h-8.2c-1.15,0-1.6,.57-1.6,1.6v8.28c0,1.07,.49,1.6,1.6,1.6h8.2c1.11,0,1.6-.53,1.6-1.6v-8.28Z"/><path class="g" d="M424.6,76.19c0,.53,0,2.17-2.05,2.17s-2.09-1.44-2.09-2.17v-18.08c-.98,1.35-1.6,2.13-2.62,2.13-1.35,0-2.34-1.39-2.34-2.58,0-.86,.41-1.39,1.07-2.3,1.27-1.64,4.39-5.86,6.4-12.18,.12-.37,.57-2.13,.74-2.46,.29-.7,1.02-.94,1.68-.94,.21,0,2.3,0,2.3,1.85,0,1.35-1.52,5.7-3.08,9.1v25.46Zm4.14-14.1c-.49,0-2.13,0-2.13-1.93s1.39-1.97,2.13-1.97h9.72v-3.69h-4.59c-3.12,0-4.59-1.02-4.59-4.55v-4.35c0-3.57,1.52-4.59,4.59-4.59h13.37c3.07,0,4.59,1.03,4.59,4.59v4.35c0,3.53-1.48,4.55-4.59,4.55h-4.67v3.69h9.55c.53,0,2.13,0,2.13,1.97,0,1.85-1.39,1.93-2.13,1.93h-8.24c2.34,3.81,5.95,7.09,7.05,7.95q3.28,2.54,3.28,3.36c0,1.23-1.19,2.38-2.25,2.38-.78,0-1.76-.66-4.06-3.03-2.01-2.05-3.77-4.3-5.33-6.72v10.17c0,.53,0,2.13-1.97,2.13-1.68,0-2.13-.82-2.13-2.13v-9.88c-.74,1.07-2.87,4.06-6.85,7.46-2.54,2.17-3.03,2.17-3.53,2.17-1.07,0-2.01-1.27-2.01-2.34,0-.98,.74-1.52,1.31-1.89,2.5-1.68,6.03-4.06,9.76-9.63h-8.4Zm18.82-15.79c0-1.11-.49-1.64-1.6-1.64h-10.82c-1.15,0-1.64,.57-1.64,1.64v3.03c0,1.11,.53,1.6,1.64,1.6h10.82c1.07,0,1.6-.49,1.6-1.6v-3.03Z"/><path class="g" d="M484.34,46.18c1.6,.74,4.84,2.95,5.66,3.57,3.77,2.67,3.85,3.12,3.85,3.81,0,1.15-1.15,2.3-2.3,2.3-.7,0-1.19-.33-1.8-.86-.9-.78-.98-.86-2.38-1.97-2.13,.25-8.04,.57-13.2,.82-4.18,.16-13.53,.45-13.78,.45-.98,0-2.34,0-2.34-1.97,0-.94,.49-1.64,1.48-1.76,.45-.04,.98-.04,6.07-.12,.74-1.03,1.85-2.62,2.87-4.26h-9.59c-.98,0-1.89-.29-1.89-1.85,0-1.72,1.23-1.76,1.89-1.76h15.05v-1.35c0-1.23,.49-1.72,2.46-1.72s2.05,.98,2.05,1.72v1.35h15.09c.86,0,1.89,.16,1.89,1.8,0,1.72-1.19,1.8-1.89,1.8h-9.18Zm-17.71,24.48v5.58c0,.57,0,2.13-2.09,2.13-1.89,0-2.25-.94-2.25-2.13v-16.32c0-3.07,1.23-4.14,4.1-4.14h19.6c2.83,0,4.14,1.03,4.14,4.14v13.9c0,1.02-.08,2.66-1.39,3.53-.82,.53-1.56,.62-5.37,.62-3.24,0-3.57-.12-3.98-.37-.53-.33-.78-1.07-.78-1.72,0-1.89,1.44-1.89,1.97-1.89,.57,0,3.2,.08,3.73,.08,.78,0,1.52-.04,1.52-1.19v-2.21h-19.19Zm0-8.94h19.19v-1.35c0-.7-.33-1.15-1.15-1.15h-16.93c-.82,0-1.11,.45-1.11,1.15v1.35Zm19.19,3.16h-19.19v2.62h19.19v-2.62Zm-12.34-18.7c-2.09,2.99-2.3,3.32-2.95,4.18,3.65-.08,8.65-.29,12.46-.45-1.68-1.19-1.85-1.27-1.85-2.05,0-.45,.21-1.19,1.03-1.68h-8.69Z"/><path class="g" d="M534.81,71.85c0,4.02-1.56,5.41-5.37,5.41h-24.44c-3.69,0-5.37-1.27-5.37-5.41v-25.3c0-4.1,1.64-5.41,5.37-5.41h24.44c3.77,0,5.37,1.31,5.37,5.41v25.3Zm-4.18-25.13c0-1.31-.62-2.01-2.01-2.01h-22.84c-1.56,0-1.97,.9-1.97,2.01v25.05c0,1.23,.49,2.01,1.97,2.01h22.84c1.48,0,2.01-.82,2.01-2.01v-25.05Zm-11.36,5.21h9.27c.37,0,1.6,0,1.6,1.43,0,.94-.37,1.56-1.6,1.56h-22.71c-.82,0-1.6-.29-1.6-1.48,0-1.07,.57-1.52,1.6-1.52h9.31v-1.89h-7.63c-.33,0-1.52,0-1.52-1.39,0-1.15,.74-1.43,1.52-1.43h7.63v-.7c0-1.44,1.11-1.68,2.01-1.68,.74,0,2.13,.08,2.13,1.68v.7h7.67c.41,0,1.52,0,1.52,1.39,0,1.11-.66,1.43-1.52,1.43h-7.67v1.89Zm-.82,19.15c0,.49,0,1.93-1.89,1.93s-1.89-1.39-1.89-1.93v-3.94c-3.36,2.71-7.01,4.63-8.12,4.63-.9,0-1.72-.94-1.72-2.01,0-.9,.08-.94,2.79-2.17,3.77-1.68,6.15-3.61,6.81-4.18h-4.3c-1.97,0-3.28-.25-3.28-2.87v-1.11c0-2.58,1.23-2.87,3.28-2.87h14.27c2.01,0,3.24,.25,3.24,2.87v1.11c0,1.72-.49,2.13-.86,2.42,.9,.04,1.6,.74,1.6,1.48,0,.41-.21,.7-.57,1.11-.9,.94-1.97,1.76-2.79,2.38,.49,.25,1.6,.78,3.12,1.31,.82,.29,1.31,.57,1.31,1.43,0,.45-.29,1.85-1.56,1.85-.98,0-5.58-2.05-9.43-5.7v4.26Zm4.55-9.92c.9,0,.9-.57,.9-1.35,0-.57-.29-.86-.9-.86h-11.69c-.61,0-.9,.29-.9,.86,0,.78,0,1.35,.9,1.35h11.69Zm-4.47,2.26c1.23,1.15,2.13,1.97,3.77,2.99,1.23-.98,1.39-1.19,3.16-2.83,.12-.12,.21-.16,.29-.25-.57,.08-1.03,.08-1.35,.08h-5.86Z"/></g><g><g><path class="f" d="M109.13,181.4c-.37-1.73-2.12-10.19-11.05-30.15-14.83-33.1,5.01-51.71,15.67-61.71,.71-.67,1.4-1.31,2.03-1.91,2.45-2.37,4.98-4.51,7.42-6.57,7.31-6.19,14.22-12.04,18.42-23.4,2.62-7.1,2.25-14.77-1.05-21.6-3.32-6.87-9.11-11.96-16.32-14.32-3.11-1.02-6.2-1.54-9.19-1.54-13.28,0-21.73,9.79-23.96,18.89-2.52,10.26,1.91,19.48,11.85,24.66,1.9,.99,4.2,1.52,6.65,1.52,6.42,0,14.74-3.84,17.86-12.27,1.26-3.4,1.11-7.03-.42-10.21-1.5-3.12-4.17-5.45-7.52-6.55-1.3-.43-2.62-.65-3.89-.65-5.53,0-9.46,4.07-10.35,7.9-.77,3.32,.62,6.12,3.82,7.68,.76,.37,1.53,.56,2.29,.56,2.18,0,5.14-1.77,5.7-3.86,0,0,1.39,6.26-5.86,7.2-.94,.12-1.9-.15-2.83-.45-4.98-1.61-8.06-6.74-6.85-11.44,1.76-6.78,8.08-11.52,15.38-11.52,1.78,0,3.55,.28,5.27,.83,8.79,2.84,14.13,12.22,11.88,20.9-2.59,10.01-11.36,16.74-21.8,16.74-2.54,0-5.09-.41-7.57-1.21-12.81-4.16-20.58-17.8-17.31-30.4,3.39-13.11,14.86-21.92,28.55-21.92,3.33,0,6.67,.54,9.94,1.59,16.82,5.42,27.02,23.31,22.74,39.89-3.19,12.33-10.04,18.83-16.67,25.11-2.16,2.04-4.39,4.16-6.5,6.47-1.47,1.61-3.71,4.05-5.91,7.32-6.62,9.81-13,27.13,1.92,52.3,13.52,22.81,14.81,32.11,14.81,32.11h-27.14Z"/><path class="i" d="M120.41,148.52s31.61,6.86,46.88-8.41c15.27-15.26,8.4-46.88,8.4-46.88h0l-55.28,55.28h0Z"/><path class="f" d="M128.82,101.63c-15.26,15.26-8.41,46.86-8.4,46.88l55.28-55.28s-31.62-6.86-46.88,8.4Z"/><path class="d" d="M70.09,153.28c1,2.74,.79,5.63-.35,8.08-1.14,2.44-3.22,4.46-5.96,5.46-2.74,1-5.62,.79-8.07-.35-2.45-1.14-4.46-3.22-5.46-5.96-1-2.74-.8-5.62,.35-8.07,1.14-2.45,3.22-4.46,5.96-5.46,2.73-1,5.62-.79,8.07,.35,2.45,1.15,4.46,3.22,5.46,5.96Z"/><path class="d" d="M84.39,91.61l-2.12,7.72-6.58-4.55-2.11,7.72-6.58-4.56-2.11,7.72-6.58-4.56-2.11,7.72-6.58-4.55-2.1,7.72-6.58-4.56-2.11,7.72-1.34-.93c-.29,4.22,.25,8.58,1.8,12.81,5.87,16.14,23.72,24.46,39.86,18.59,16.14-5.88,24.46-23.72,18.58-39.86-1.47-4.06-3.71-7.62-6.48-10.58l-.27,.99-6.58-4.55Z"/><path class="h" d="M57.87,87.17c-11.9,4.33-19.55,15.17-20.39,27.04l1.34,.93,2.11-7.72,6.58,4.56,2.1-7.72,6.58,4.55,2.11-7.72,6.58,4.56,2.11-7.72,6.58,4.56,2.11-7.72,6.58,4.55,2.12-7.72,6.58,4.55,.27-.99c-8.26-8.84-21.29-12.4-33.37-8Z"/><path class="h" d="M55.37,115.66c.43,1.19-.18,2.51-1.38,2.95-1.2,.43-2.52-.18-2.95-1.38-.43-1.19,.18-2.51,1.38-2.95,1.2-.43,2.52,.18,2.95,1.38Z"/><path class="h" d="M82.43,105.81c.43,1.19-.18,2.51-1.38,2.95-1.2,.44-2.52-.18-2.95-1.38-.43-1.19,.18-2.52,1.38-2.95,1.2-.43,2.52,.18,2.95,1.38Z"/><path class="h" d="M66.52,124.69c-3.69,0-5.46-1.92-5.56-2.04-.42-.48-.38-1.2,.09-1.63,.47-.42,1.19-.39,1.62,.08,.11,.13,2.43,2.44,7.74,.51,5.33-1.95,5.59-5.23,5.6-5.37,.04-.63,.6-1.13,1.2-1.09,.63,.02,1.12,.54,1.1,1.17,0,.21-.24,4.95-7.11,7.45-1.81,.66-3.36,.91-4.68,.91Z"/></g><g><path class="j" d="M133.82,99.34c-.9-1.57-2.44-2.51-4.1-2.77,.01-.07,.04-.14,.03-.22l-.1-1.69c-.03-.55-.5-.96-1.06-.94-.55,.03-.98,.51-.94,1.06l.1,1.69c0,.05,.03,.1,.04,.14-.6,.12-1.2,.31-1.77,.64-.49,.28-.9,.65-1.28,1.04-.02-.02-.03-.04-.06-.06l-1.41-.93c-.46-.3-1.09-.18-1.39,.29-.3,.46-.18,1.09,.29,1.39l1.41,.93s.05,0,.07,.02c-.69,1.6-.66,3.49,.28,5.12,1.57,2.73,5.06,3.66,7.8,2.09,2.73-1.58,3.66-5.06,2.09-7.8Z"/><path class="e" d="M142.83,103.29c3.15,5.46,1.28,12.45-4.19,15.6-5.46,3.15-12.45,1.28-15.6-4.18-3.15-5.46-1.28-12.44,4.18-15.6,5.47-3.15,12.45-1.28,15.6,4.18Z"/><path class="j" d="M135.57,107.98c.77,1.34,.31,3.05-1.02,3.82-1.34,.77-3.05,.32-3.82-1.02-.76-1.34-.31-3.04,1.03-3.82,1.34-.77,3.05-.31,3.82,1.03Z"/><path class="j" d="M128.3,103.83c.64,1.11,.26,2.54-.85,3.18-1.11,.65-2.54,.26-3.18-.85-.64-1.12-.26-2.54,.85-3.18,1.12-.64,2.54-.26,3.19,.86Z"/><path class="j" d="M128.46,112.08c.65,1.12,.26,2.54-.85,3.19-1.12,.64-2.54,.26-3.18-.86-.64-1.12-.26-2.54,.85-3.18,1.12-.64,2.54-.26,3.19,.85Z"/><path class="j" d="M135.09,115.59c.64,1.12,.26,2.54-.85,3.19-1.11,.64-2.54,.26-3.18-.86-.65-1.12-.26-2.54,.85-3.18,1.11-.65,2.54-.26,3.18,.85Z"/><path class="j" d="M130.78,102.41c.64,1.11,2.07,1.49,3.18,.85,1.12-.64,1.5-2.07,.86-3.18-.65-1.12-2.07-1.5-3.19-.85-1.11,.64-1.49,2.07-.85,3.18Z"/><path class="j" d="M137.84,106.66c.64,1.12,2.07,1.5,3.18,.86,1.11-.64,1.5-2.07,.85-3.18-.64-1.12-2.07-1.5-3.18-.86-1.12,.64-1.5,2.07-.85,3.18Z"/><path class="j" d="M137.56,114.16c.64,1.11,2.07,1.5,3.18,.85,1.12-.64,1.5-2.07,.85-3.18-.64-1.11-2.07-1.49-3.18-.85-1.12,.64-1.5,2.07-.85,3.18Z"/></g></g></g></svg>