<?xml version="1.0" encoding="UTF-8"?><svg xmlns="http://www.w3.org/2000/svg" viewBox="0 0 709 198"><defs><style>.d{fill:#fbd58b;}.e{fill:none;stroke:#231815;stroke-linecap:round;stroke-linejoin:round;stroke-width:.7px;}.f{fill:#e50012;}.g{fill:#8dc21f;}.h{fill:#6a3906;}.i{fill:#804f21;}.j{fill:#00a63c;}.k{fill:#231815;}</style></defs><g id="a"/><g id="b"/><g id="c"><g><g><path class="g" d="M496.28,59.97c0,1.81-1.1,3.56-2.29,4.75s-2.94,2.39-4.75,2.39-3.54-1.22-4.73-2.41-1.39-2.92-1.39-4.73,.08-3.66,1.27-4.85,3.04-1.82,4.85-1.82,3.22,1.08,4.41,2.26,2.63,2.6,2.63,4.41Z"/><path class="j" d="M480.28,86.58c0,1.67-1.02,3.29-2.11,4.39s-2.71,2.21-4.39,2.21-3.27-1.13-4.37-2.23-1.28-2.7-1.28-4.37,.07-3.38,1.17-4.48,2.81-1.69,4.48-1.69,2.98,1,4.07,2.09,2.43,2.4,2.43,4.07Z"/><g><path class="h" d="M443.65,76.54c45.5,2.55,45.69,2.31,91.19-.24,2.55-.14,3.08-4.48-.07-4.66q-45.49-2.6-91.03,.05c-2.55,.14-2.64,4.71-.09,4.85Z"/><path class="h" d="M433.86,100.81c27.51,3.6,27.64,1.79,55.39,1.79s27.91,2.11,55.43-1.48c3.6-.47,3.88-5.23-.04-5.65-17.59-1.86-23.99-1.6-33.5-1.16,3.91-4.87,4.21-6.24,4.28-13.52,.03-2.81-3.44-4.5-5.24-1.86-4.49,6.59-5.37,6.95-5.45,14.92,0,.26,.05,.5,.11,.73-4.16,.16-9.11,.28-15.58,.28-27.75,0-28.01-4.3-55.53-.7-3.6,.47-3.46,6.18,.14,6.65Z"/><path class="h" d="M544.63,172.05c-26.35-2.79-27.59-.8-51.8-.62,.51-4.31,.57-7.32,.43-10.05,8.69-.16,18.36-.66,35.38-1.49,1.91-.09,2.33-3.32-.05-3.44-17.39-.88-27.09-1.34-35.9-1.43-.25-2.44-.51-5.24-.61-8.99,7.18-.03,15.16-.52,29.18-1.53,.71-.05,1.26-.6,1.6-1.33,.04,.26,.09,.52,.14,.8,.51,2.94,5.35,2.89,5.85-.05,2.94-17.09,2.83-17.5-.11-34.59-.5-2.92-5.34-3.33-5.86-.17-.21-.08-.44-.14-.7-.17-31.61-2.74-31.9-2.86-63.51-.1-2.76,.24-2.73,5.71,.03,5.95,12.42,1.09,20,1.81,26.55,2.11-.23,2.75-.29,4.91-.26,6.95-7.4,.24-15.43,.71-28.14,1.36-.08-4.03-.89-8.39-2.49-16.04-.74-3.55-6.69-4.15-7.43,.06-3.01,17.08-3.41,17.66,.14,34.63,.74,3.55,6.2,3.57,6.94,.02,.2-.96,.39-1.86,.57-2.72-.05,1.34,.54,2.73,1.76,2.82,14.07,1.02,22.06,1.68,29.26,1.91-.1,3.81-.34,6.65-.58,9.11-8.61,.13-18.24,.62-35.11,1.44-1.91,.09-1.98,3.51-.06,3.6,16.52,.8,26.12,1.23,34.62,1.32-.14,2.71-.09,5.71,.37,9.99-23.44-.42-25.14-4.05-51.11-.66-3.6,.47-3.46,6.18,.14,6.65,27.51,3.6,27.64,1.79,55.39,1.79s27.91,2.11,55.43-1.48c3.6-.47,3.88-5.23-.04-5.65Zm-23.37-33.43c-14.04-1.06-22.03-1.62-29.23-1.72,.01-2.88,.03-5.15,.02-7.16,7.51-.09,15.75-.45,28.92-1.09,.1,2.82,.48,5.9,1.18,10.25-.25-.15-.54-.25-.88-.28Zm-30.07-21.5c7.7,.06,15.63-.53,30.83-1.86-.51,3.74-.86,6.52-1.01,9.06-13.31-.49-21.59-.66-29.17-.57-.13-1.94-.33-4.02-.65-6.63Zm-34.88,21.6c-.7,.05-1.18,.53-1.46,1.18,1.01-4.85,1.64-8.18,1.89-11.23,12.93,.63,21.02,.98,28.51,1.07,.12,2.02,.25,4.3,.33,7.18-7.21,.17-15.2,.78-29.27,1.79Z"/></g></g><g><path class="g" d="M641.29,103.39c0,1.52-.76,2.52-1.76,3.52s-1.99,2.17-3.52,2.17-2.97-.73-3.97-1.72-1.23-2.44-1.23-3.97,.57-2.63,1.57-3.63,2.1-1.85,3.63-1.85,2.91,.57,3.9,1.57,1.37,2.38,1.37,3.9Z"/><g><path class="j" d="M616.3,157.25c.71,4.03-1.48,7.45-5.51,8.16-4.03,.71-7.61-1.69-8.32-5.72-.71-4.03,1.8-7.7,5.83-8.41,4.03-.71,7.29,1.94,8,5.97Z"/><g><path class="h" d="M592.82,79.23c.59,.83,1.3,1.75,2.2,2.84,1.79,2.17,5.41,.87,5.38-1.94,0-.38,0-.73-.01-1.08,4.47-.12,9.84-.26,17.24-.26,8.59,0,14.49,.33,19.39,.67,0,.22,0,.43-.01,.67-.03,2.81,3.42,4.12,5.21,1.94,.65-.79,1.22-1.49,1.72-2.13,7.12,.43,13.89,.43,27.88-1.44,3.59-.48,4.25-6.64-.13-7.19-11.52-1.44-18.12-1.59-24.05-1.29,.03-.87,.05-1.84,.06-2.95,.03-2.81-3.44-4.51-5.24-1.86-1.67,2.45-2.84,4.04-3.66,5.48-5.25,.45-11.48,.92-21.17,.92-8.1,0-13.78-.31-18.49-.64-.78-1.65-2.06-3.31-4.19-5.89-1.79-2.17-5.55-1.23-5.24,1.98,.12,1.25,.21,2.31,.29,3.26-6.59-.37-13.31-.29-26.37,1.46-3.59,.48-3.59,4.73,0,5.21,14.91,2,21.56,2.33,29.18,2.23Z"/><path class="h" d="M572.05,114.69c1.05,.91,2.75,1,3.92,.26,40.3,2.06,42.8,1.67,82.8-.43,1.77,2.12,5.53,1.69,6.53-1.26,3.43-10.13,3.6-11.27,.16-21.4-.87-2.55-3.89-3.5-5.8-2.17-37.92-2.69-39.27-2.28-79.25,.62-1.45,.1-2.17,1.4-2.19,2.72-.33-1.53-.73-3.25-1.21-5.32-.68-2.91-5.3-3.34-5.89-.05-2.16,11.94-2.76,13.08-.34,23.77-.25,1.32,.18,2.9,1.28,3.27Zm84.78-17.35c-1.16,4.7-1.4,7.06,.06,12.21-26.66-1.26-36.23-1.84-53.04-1.38,.83-4.23,.92-6.46,.23-10.45,18.56,1.35,26.46,1.44,52.75-.38Zm-76.35-1.38c6.53,.47,12.02,.89,16.81,1.26-.79,4.44-.97,6.63-.18,11.17-5.34,.2-11.52,.49-19.04,.87,1.42-6.52,1.55-9.22,.47-14.67,.36,.74,1,1.3,1.93,1.37Z"/><path class="h" d="M672.75,128.1c.91-1.55,.66-4.01-1.24-4.64-1.46-2.97-6.12-3.49-7.76-.58-42.12-2.57-44.65-2.28-91.1,.54-.2-1.08-.41-2.22-.63-3.43-.66-3.56-7-4.22-7.69,.02-3.09,19.2-3.62,19.85-.06,38.96,.66,3.56,6.83,3.53,7.5-.04,2.91-15.62,3.61-18.96,1.82-30.08,44.91,2.74,48.27,3.43,88.58,1.07-2.24,11.79-2.41,14.32,1.21,29.04,1.02,4.14,7.57,4.09,8.59-.05,3.81-15.47,4-17.52,.79-30.81Z"/><path class="h" d="M642.59,143.41c-.28-.42-.73-.74-1.4-.83-13.63-1.83-13.93-2.5-27.51-.32-2.18,.35-2.12,4.01,.06,4.36,10.5,1.68,13.08,2.13,19.98,1.24-14.71,13.84-16.62,15.39-29.56,35.6-1.84,2.87,2.7,6.62,5.21,4.31,19.37-17.82,19.81-17.99,33.99-40.16,.93-1.46,.37-3.19-.78-4.2Z"/><path class="h" d="M616,137.26c1.85-2.11-.77-5.86-3.49-4.12-15.43,9.84-16.03,9.64-28.11,23.4-1.85,2.11,1.17,5.73,3.57,4.27,15.64-9.5,15.95-9.79,28.03-23.55Z"/></g></g></g></g><g><g><path class="g" d="M107.99,181.54c-.37-1.73-2.11-10.19-11.05-30.15-14.83-33.1,5.02-51.71,15.67-61.71,.72-.68,1.4-1.31,2.03-1.92,2.45-2.37,4.98-4.51,7.42-6.57,7.32-6.19,14.23-12.04,18.42-23.4,2.62-7.1,2.25-14.77-1.05-21.6-3.32-6.87-9.11-11.95-16.32-14.32-3.11-1.02-6.2-1.54-9.19-1.54-13.29,0-21.74,9.79-23.96,18.89-2.52,10.27,1.92,19.49,11.86,24.66,1.9,.99,4.21,1.52,6.66,1.52,6.42,0,14.74-3.84,17.86-12.27,1.26-3.4,1.11-7.03-.43-10.21-1.51-3.12-4.18-5.45-7.52-6.55-1.31-.43-2.62-.65-3.9-.65-5.54,0-9.46,4.07-10.35,7.9-.77,3.32,.63,6.12,3.83,7.69,.75,.37,1.52,.56,2.29,.56,2.18,0,5.14-1.78,5.7-3.86,0,0,1.39,6.26-5.86,7.19-.94,.12-1.9-.15-2.83-.45-4.98-1.61-8.06-6.74-6.85-11.44,1.75-6.78,8.08-11.52,15.38-11.52,1.78,0,3.55,.28,5.27,.83,8.8,2.84,14.13,12.22,11.89,20.9-2.59,10.01-11.35,16.74-21.8,16.74-2.54,0-5.09-.41-7.57-1.21-12.82-4.16-20.58-17.8-17.31-30.4,3.39-13.11,14.86-21.92,28.54-21.92,3.33,0,6.68,.54,9.94,1.59,16.83,5.42,27.03,23.31,22.75,39.89-3.19,12.33-10.04,18.83-16.67,25.11-2.16,2.04-4.39,4.16-6.49,6.47-1.48,1.61-3.71,4.05-5.91,7.32-6.62,9.81-13,27.13,1.92,52.3,13.52,22.8,14.81,32.11,14.81,32.11h-27.13Z"/><g><path class="j" d="M119.28,148.66s31.62,6.86,46.88-8.41c15.27-15.26,8.4-46.88,8.4-46.88h0l-55.29,55.28h0Z"/><path class="g" d="M127.68,101.77c-15.26,15.26-8.41,46.86-8.4,46.88l55.29-55.28s-31.62-6.86-46.88,8.4Z"/></g><g><path class="d" d="M68.95,153.42c1,2.74,.79,5.63-.35,8.07-1.14,2.45-3.22,4.46-5.96,5.46-2.74,1-5.62,.79-8.07-.35-2.45-1.14-4.46-3.22-5.46-5.96-1-2.74-.79-5.62,.35-8.07,1.14-2.45,3.22-4.46,5.96-5.46,2.74-1,5.62-.79,8.07,.35,2.45,1.14,4.46,3.22,5.46,5.96Z"/><g><g><path class="d" d="M83.25,91.74l-2.11,7.72-6.58-4.55-2.11,7.72-6.58-4.55-2.11,7.72-6.58-4.56-2.11,7.72-6.58-4.56-2.11,7.72-6.58-4.55-2.11,7.72-1.34-.93c-.3,4.22,.25,8.58,1.8,12.81,5.88,16.14,23.72,24.46,39.86,18.59,16.14-5.87,24.46-23.72,18.59-39.86-1.48-4.06-3.71-7.62-6.48-10.59l-.27,1-6.58-4.55Z"/><path class="i" d="M56.73,87.3c-11.9,4.33-19.55,15.18-20.38,27.05l1.34,.93,2.11-7.72,6.58,4.55,2.11-7.72,6.58,4.56,2.11-7.72,6.58,4.56,2.11-7.72,6.58,4.55,2.11-7.72,6.58,4.55,2.11-7.72,6.58,4.55,.27-1c-8.26-8.84-21.29-12.4-33.38-8Z"/></g><g><path class="i" d="M54.23,115.8c.43,1.19-.18,2.52-1.38,2.95-1.2,.44-2.52-.18-2.95-1.38-.43-1.2,.18-2.52,1.38-2.95,1.19-.43,2.52,.18,2.95,1.38Z"/><path class="i" d="M81.29,105.95c.43,1.19-.18,2.52-1.38,2.95-1.2,.44-2.52-.18-2.95-1.38-.43-1.2,.18-2.52,1.38-2.95,1.19-.43,2.52,.18,2.95,1.38Z"/></g><path class="i" d="M65.38,124.83c-3.68,0-5.46-1.92-5.56-2.03-.42-.47-.38-1.2,.09-1.63,.47-.42,1.19-.38,1.62,.08,.12,.12,2.43,2.44,7.74,.51,5.34-1.94,5.59-5.23,5.6-5.37,.04-.63,.6-1.13,1.2-1.09,.63,.03,1.12,.55,1.1,1.18,0,.2-.23,4.94-7.12,7.45-1.81,.66-3.36,.9-4.68,.9Z"/></g></g></g><g><path class="k" d="M132.68,99.49c1.58,2.73,.64,6.22-2.09,7.8-2.73,1.58-6.22,.64-7.8-2.09-1.58-2.73-.64-6.22,2.09-7.8,2.73-1.58,6.22-.64,7.8,2.09Z"/><path class="f" d="M141.68,103.43c3.15,5.46,1.28,12.44-4.18,15.6-5.46,3.15-12.44,1.28-15.6-4.18-3.15-5.46-1.28-12.44,4.18-15.6,5.46-3.15,12.45-1.28,15.6,4.18Z"/><path class="k" d="M134.43,108.12c.77,1.34,.31,3.05-1.02,3.82-1.34,.77-3.05,.31-3.82-1.02-.77-1.34-.31-3.05,1.02-3.82,1.34-.77,3.05-.31,3.82,1.02Z"/><path class="k" d="M127.16,103.97c.64,1.12,.26,2.54-.85,3.18-1.11,.64-2.54,.26-3.18-.85-.64-1.11-.26-2.54,.85-3.18,1.11-.64,2.54-.26,3.18,.85Z"/><path class="k" d="M127.32,112.22c.64,1.11,.26,2.54-.85,3.19-1.11,.64-2.54,.26-3.18-.86-.64-1.11-.26-2.54,.85-3.18,1.11-.64,2.54-.26,3.18,.85Z"/><path class="k" d="M133.95,115.73c.64,1.12,.26,2.54-.85,3.19-1.12,.64-2.54,.26-3.18-.85-.64-1.12-.26-2.54,.85-3.18,1.11-.64,2.54-.26,3.18,.85Z"/><path class="k" d="M129.64,102.55c.64,1.12,2.07,1.49,3.18,.85,1.12-.64,1.5-2.07,.85-3.18-.64-1.12-2.07-1.5-3.18-.85-1.11,.64-1.5,2.07-.85,3.18Z"/><path class="k" d="M136.7,106.81c.64,1.11,2.07,1.5,3.18,.85,1.11-.64,1.5-2.07,.85-3.18-.64-1.12-2.07-1.5-3.18-.85-1.11,.64-1.5,2.07-.85,3.18Z"/><path class="k" d="M136.43,114.3c.64,1.11,2.07,1.5,3.18,.85,1.11-.64,1.5-2.07,.85-3.18-.64-1.12-2.07-1.5-3.18-.85-1.11,.64-1.5,2.07-.85,3.18Z"/><line class="e" x1="121.58" y1="98.28" x2="122.99" y2="99.22"/><line class="e" x1="127.51" y1="94.86" x2="127.61" y2="96.55"/></g></g><g><path class="h" d="M196.88,112.45c3.17-1.02,6.84-2.19,8.04-7.86,.25-1.13,.65-3.05,.76-3.32,.33-.74,.98-.94,1.64-.94,.58,0,1.96,.08,1.96,1.64,0,.16-.4,4.3-2.11,7.67-2.69,5.4-8.91,7.08-9.97,7.08-1.75,0-1.93-1.99-1.93-2.27,0-1.13,.29-1.6,1.6-2Zm4.47-13.45c0,.55,0,2.03-1.86,2.03-1.64,0-2.11-.7-2.11-2.03v-16.66c0-.51,0-2.07,1.85-2.07,1.67,0,2.11,.78,2.11,2.07v16.66Zm25.75-3.72c0,3.36-1.27,4.38-4.04,4.38h-13.13c-2.73,0-4.04-.98-4.04-4.38v-9.54c0-3.29,1.24-4.34,4.04-4.34h13.13c2.76,0,4.04,1.02,4.04,4.34v9.54Zm-17.39-6.53h13.64v-2.5c0-1.02-.51-1.41-1.31-1.41h-11.06c-.8,0-1.27,.39-1.27,1.41v2.5Zm0,3.21v2.86c0,.94,.4,1.41,1.27,1.41h11.06c.91,0,1.31-.51,1.31-1.41v-2.86h-13.64Zm8.29,18.85c0,1.56,.95,1.56,1.75,1.56,3.89,0,4.33,0,4.69-.24,.58-.39,.62-.82,.95-3.68,.18-1.45,.25-2.35,1.71-2.35,2.07,0,2.07,1.52,2.07,2.03,0,1.72-.44,5.28-1.31,6.77-.84,1.37-1.46,1.37-6.88,1.37-1.09,0-3.86,.04-4.66-.24-1.89-.63-2.22-2.35-2.22-4.15v-9.58c0-.51,0-2.07,1.86-2.07,1.64,0,2.04,.82,2.04,2.07v8.49Z"/><path class="h" d="M246.68,81.67c0-1.02,.55-1.64,1.82-1.64,1.2,0,2.07,.23,2.07,1.64v.94h11.6c.76,0,1.64,.27,1.64,1.6,0,1.13-.65,1.6-1.64,1.6h-3.82c-.36,1.37-.47,1.72-.87,2.97h6.73c.98,0,1.6,.43,1.6,1.53,0,.9-.33,1.6-1.6,1.6h-31.07c-.87,0-1.6-.35-1.6-1.56,0-1.13,.62-1.56,1.6-1.56h6.95c-.25-1.06-.33-1.25-.8-2.97h-4.18c-1.05,0-1.67-.51-1.67-1.6s.51-1.6,1.67-1.6h11.57v-.94Zm3.78,25.97h11.97c.47,0,1.42,.08,1.42,1.41,0,.94-.25,1.52-1.42,1.52h-11.97v2.03h13.57c.51,0,1.6,.08,1.6,1.49,0,1.13-.62,1.56-1.6,1.56h-30.74c-.65,0-1.64-.2-1.64-1.52,0-1.21,.8-1.53,1.64-1.53h13.53v-2.03h-12.04c-.58,0-1.46-.16-1.46-1.37,0-.9,.29-1.56,1.46-1.56h12.04v-1.88h-8.48c-3.06,0-3.75-.78-3.75-4.03v-3.87c0-3.25,.69-4.07,3.75-4.07h20.66c2.95,0,3.78,.74,3.78,4.07v3.87c0,3.21-.73,4.03-3.78,4.03h-8.55v1.88Zm-3.64-9.07v-1.96h-7.46c-.84,0-1.02,.55-1.02,1.09v.86h8.48Zm0,2.46h-8.48v.98c0,.59,.22,1.1,1.02,1.1h7.46v-2.07Zm-3.57-15.21c.11,.43,.69,2.5,.84,2.97h9.38c.36-1.25,.4-1.37,.76-2.97h-10.99Zm7.2,12.75h8.55v-.86c0-.7-.29-1.09-1.02-1.09h-7.53v1.96Zm0,2.46v2.07h7.53c.76,0,1.02-.47,1.02-1.1v-.98h-8.55Z"/><path class="h" d="M283.92,80.89c1.67,0,2.11,.04,2.95,.82,.4,.39,2,2.5,2.4,2.97,1.2-1.06,2.37-2.19,3.38-3.44,.4-.47,.73-.86,1.38-.86,.91,0,1.93,.78,1.93,1.76,0,.35-.11,.67-.54,1.21-1.09,1.29-2.07,2.27-3.78,3.87,1.09,1.06,1.64,1.49,2.04,1.84,1.46-1.45,2.87-2.89,4.22-4.5,.44-.51,.76-.9,1.35-.9,1.05,0,1.96,.94,1.96,1.88,0,.24-.04,.63-.54,1.25-1.35,1.64-3.02,3.32-4.11,4.34,.91,.55,2,1.25,4.04,2.19,.87,.43,1.38,.78,1.38,1.92,0,1.29-.84,2.39-1.93,2.39-.91,0-3.13-1.45-4.18-2.15-.04,1.64-.87,1.8-1.67,1.8h-3.09v4.03h8.48c.69,0,1.75,.16,1.75,1.84,0,1.8-1.27,1.8-1.75,1.8h-8.48v5.94c0,1.76,.73,1.76,2.4,1.76,3.89,0,4.15,0,4.4-2.31,.22-1.84,.29-2.54,1.78-2.54,.65,0,2.07,.12,2.07,1.96,0,1.25-.36,3.95-1.02,5.08-.95,1.6-2.95,1.6-5.75,1.6-4.69,0-5.49-.04-6.4-.59-1.35-.86-1.35-2.42-1.35-3.91v-7h-5.2c-.33,2.27-1.09,5.75-3.93,8.21-2.73,2.35-6.66,3.52-7.78,3.52-1.27,0-2-1.17-2-2.39,0-1.29,.76-1.53,1.46-1.72,4.26-1.25,7.57-2.54,8.29-7.63h-7.53c-.47,0-1.78,0-1.78-1.8s1.35-1.84,1.78-1.84h7.97v-4.03h-2.66c-.55,0-1.67-.04-1.71-1.84-.98,.63-3.42,2.11-4.29,2.11-1.2,0-1.86-1.25-1.86-2.35s.58-1.41,1.46-1.8c1.6-.67,3.09-1.53,4.55-2.5-.8-.78-.98-.98-3.31-2.93-.51-.43-.76-.78-.76-1.29,0-.9,.8-1.96,1.86-1.96,.44,0,.73,.12,1.31,.55,1.35,1.06,2.66,2.15,3.82,3.4,1.71-1.49,3.71-3.75,3.71-4.03,0-.23-.25-.23-.44-.23h-6.37c-.55,0-1.67-.08-1.67-1.8s1.24-1.72,1.67-1.72h10.11Zm9.31,12.71c-3.13-2.42-5.89-5.32-8.18-8.68-1.38,2.11-3.53,5.12-8.22,8.68h16.41Zm-6,3.68h-4.98v4.03h4.98v-4.03Z"/><path class="h" d="M336.74,112.18c.84,0,1.82,.35,1.82,1.88,0,.35,0,2.03-1.89,2.03h-16.48c-3.97,0-7.53-1.13-9.31-4.22-.4,.59-1.06,1.53-2.62,3.21-1.02,1.1-1.31,1.37-1.96,1.37-1.24,0-2.15-1.25-2.15-2.5,0-.94,.44-1.33,.95-1.76,.22-.16,1.78-1.41,3.13-2.78v-9.31c0-.47-.07-1.06-.91-1.06h-1.27c-1.13,0-1.71-.82-1.71-1.88,0-1.92,1.49-1.92,1.93-1.92h1.75c3.06,0,3.78,.82,3.78,4.07v7.31c0,.74,.11,2.86,2.44,4.34,1.13,.7,2.66,1.21,5.38,1.21h17.13Zm-26.34-28.51c.22,.2,1.46,1.53,2.11,2.39,.4,.51,.47,.86,.47,1.21,0,1.25-1.09,2.15-2,2.15-.76,0-1.16-.47-2.11-1.64-.51-.59-2.76-2.97-3.24-3.48-.4-.47-.55-.82-.55-1.25,0-.86,.73-2.03,2-2.03,.51,0,.84,.04,3.31,2.66Zm24.85-1.06c.33,0,1.67,0,1.67,1.56s-1.24,1.56-1.67,1.56h-7.82v2.27h9.35c.36,0,1.64,0,1.64,1.6,0,1.41-.98,1.6-1.64,1.6h-3.35c-.44,1.68-.69,2.58-.84,3.05h3.46c.44,0,1.67,0,1.67,1.6s-1.24,1.6-1.67,1.6h-8.62v2.39h7.89c.36,0,1.49,0,1.49,1.45,0,1.33-.84,1.53-1.49,1.53h-7.89v2.42h9.06c.4,0,1.64,0,1.64,1.6s-1.13,1.6-1.64,1.6h-9.06v1.92c0,.55,0,1.72-1.86,1.72s-1.89-1.06-1.89-1.72v-1.92h-8.99c-.44,0-1.64,0-1.64-1.6,0-1.25,.69-1.6,1.64-1.6h8.99v-2.42h-7.79c-.44,0-1.49-.04-1.49-1.49,0-1.17,.65-1.49,1.49-1.49h7.79v-2.39h-8.62c-.51,0-1.67,0-1.67-1.6s1.16-1.6,1.67-1.6h3.53c-.25-1.09-.66-2.42-.84-3.05h-3.42c-.4,0-1.67-.04-1.67-1.6,0-1.25,.8-1.6,1.67-1.6h9.35v-2.27h-7.89c-.33,0-1.64,0-1.64-1.56,0-1.33,.91-1.56,1.64-1.56h7.89v-.98c0-1.02,.51-1.64,1.75-1.64,1.49,0,2,.55,2,1.64v.98h7.82Zm-6.26,11.65c.22-.74,.55-2.07,.76-3.05h-8.33c.44,1.29,.62,2.07,.84,3.05h6.73Z"/><path class="h" d="M345.25,97.24c-.62,0-1.89-.04-1.89-1.99,0-1.76,1.02-2.03,1.89-2.03h10.51v-4.77h-13.24c-.51,0-1.89,0-1.89-1.99s1.27-2.03,1.89-2.03h13.24v-2.58c0-1.09,.55-1.76,1.82-1.76s2.15,.27,2.15,1.76v2.58h13.35c.47,0,1.89,0,1.89,1.99,0,1.88-1.13,2.03-1.89,2.03h-13.35v4.77h5.46c2.4,0,4.04,.62,4.04,3.01,0,3.95-5.02,9.7-7.82,12.08,1.46,.82,4.66,2.5,11.64,3.87,.55,.12,1.64,.35,1.64,1.76,0,.16,0,2.43-2.04,2.43-1.24,0-8.37-1.25-14.81-5.44-5.49,3.4-12.91,5.48-14.8,5.48-2,0-2.07-2.19-2.07-2.43,0-1.49,1.24-1.72,1.89-1.84,3.35-.59,7.71-1.68,11.53-3.83-2.58-2.35-6.15-6.49-6.15-7.98,0-1.21,1.06-2.03,2.11-2.03,.87,0,.95,.16,2.69,2.54,1.05,1.45,2.25,3.09,4.84,5.12,3.67-2.97,6.47-7,6.47-8.09,0-.63-.62-.63-1.13-.63h-17.97Z"/><path class="h" d="M384.79,112.49c0,3.95-1.53,4.07-5.02,4.07-.91,0-2.44,0-2.44-2.27,0-1.84,1.06-1.84,2.44-1.84,.91,0,1.42,0,1.42-1.21v-7.51c-.69,.23-2.15,.71-2.66,.71-1.2,0-1.67-1.13-1.67-2.11,0-1.37,.76-1.64,1.16-1.8,.22-.08,2.66-.78,3.17-.94v-8.49h-2.33c-.47,0-1.86,0-1.86-1.88s1.27-1.96,1.86-1.96h2.33v-5.36c0-.55,0-1.8,1.78-1.8s1.82,1.06,1.82,1.8v5.36h1.93c1.24,0,1.49,.98,1.49,1.92,0,1.21-.47,1.92-1.49,1.92h-1.93v7.2c1.56-.63,1.75-.67,2.11-.67,.95,0,1.31,1.13,1.31,2.03,0,1.21-.44,1.49-3.42,2.7v10.13Zm5.06-12.01c-.76,0-1.64-.27-1.64-1.53,0-.94,.22-1.76,1.64-1.76h3.89c.15-1.33,.15-1.96,.18-2.54h-3.56c-.87,0-1.64-.35-1.64-1.64,0-.98,.44-1.64,1.64-1.64h1.24c-.29-.31-.29-.35-.84-1.84-.07-.24-.47-1.21-.55-1.41-.07-.16-.15-.47-.15-.74,0-.9,.87-1.64,1.96-1.64s1.24,.51,1.78,1.96c.11,.27,.69,1.76,.69,2.39,0,.78-.44,1.1-.73,1.29h5.53c-.51-.27-.58-.47-1.27-2.35-.69-1.96-.73-2.03-.73-2.39,0-.98,1.09-1.53,1.89-1.53,1.02,0,1.24,.63,1.82,2.11,.11,.31,.76,1.92,.76,2.62,0,.86-.58,1.33-1.09,1.53h3.2c1.02-1.8,1.64-2.93,2.47-5.04,.55-1.33,.73-1.84,1.78-1.84,.73,0,1.89,.47,1.89,1.56s-1.75,4.15-2.4,5.32h.98c1.05,0,1.64,.55,1.64,1.64s-.47,1.64-1.64,1.64h-11.17c0,1.02-.04,1.64-.15,2.54h12.11c.73,0,1.64,.24,1.64,1.53,0,.9-.18,1.76-1.64,1.76h-12.59c-.11,.59-.25,1.17-.58,2.35h9.53c1.09,0,3.17,0,3.17,2.31,0,1.76-.98,3.01-1.53,3.68-1.2,1.53-2.18,2.39-2.51,2.66,.58,.31,2,.94,4.44,1.49,.98,.2,1.67,.51,1.67,1.6,0,1.17-.73,2.19-1.82,2.19-.95,0-4.07-1.02-7.24-3.09-3.82,2.39-7.2,3.05-8.15,3.05-1.16,0-1.56-1.13-1.56-1.96,0-1.06,.51-1.37,1.56-1.6,1.78-.39,3.53-.98,5.2-1.76-.84-.78-2.84-2.78-2.84-3.72,0-.78,.65-1.56,1.53-1.56,.44,0,.73,.2,1.56,1.05,1.96,2,2.15,2.23,2.66,2.58,.54-.39,3.27-2.27,3.27-3.4,0-.55-.44-.55-.76-.55h-9.17c-1.09,2.85-2.51,5.55-4.33,7.98-2,2.7-2.55,2.74-3.06,2.74-1.09,0-2-1.1-2-2.03,0-.55,.25-1.02,.95-1.84,2.36-2.7,4.91-5.71,6.4-12.16h-3.38Zm16.62-16.35c-5.24,.86-14.44,1.45-16.84,1.45-.51,0-1.75-.12-1.75-1.88,0-1.53,1.13-1.56,1.86-1.6,4.58-.16,9.02-.35,13.82-1.02,.73-.12,4.37-.74,4.62-.74,.66,0,1.53,.43,1.53,1.96,0,1.33-1.27,1.53-3.24,1.84Z"/><path class="h" d="M279.65,156.17c0,3.17-2.58,3.17-3.6,3.17h-10.05v1.88c0,4.38-2.31,4.38-6.02,4.38-.82,0-2.93,0-3.6-.12-.63-.12-1.29-.55-1.29-1.92,0-1.68,1.13-1.68,2.19-1.68,.51,0,2.74,.04,3.17,.04,1.02,0,1.6-.27,1.6-1.49v-1.1h-12.51c-.59,0-1.68-.04-1.68-1.49s.94-1.56,1.68-1.56h12.51v-2.03h-14.78c-.43,0-1.8,0-1.8-1.53s1.37-1.56,1.8-1.56h14.78v-1.96h-12.63c-.31,0-1.6,0-1.6-1.45s1.13-1.49,1.6-1.49h12.63v-1.64h-9.42c-2.54,0-3.36-.7-3.36-3.32v-1.09c0-2.54,.78-3.32,3.32-3.32h9.46v-1.64h-14.39c-.43,0-1.8,0-1.8-1.6s1.41-1.64,1.8-1.64h14.39v-1.33c0-1.1,.7-1.53,1.8-1.53,1.25,0,2.15,.23,2.15,1.53v1.33h14.51c.39,0,1.8,0,1.8,1.6s-1.37,1.64-1.8,1.64h-14.51v1.64h9.35c2.46,0,3.36,.74,3.36,3.32v1.09c0,2.58-.82,3.32-3.36,3.32h-9.35v1.64h10.05c2.66,0,3.6,1.13,3.6,3.56v1.33h1.33c1.29,0,1.64,.94,1.64,1.53,0,.82-.51,1.56-1.64,1.56h-1.33v1.92Zm-17.6-14.24v-2.39h-7.94c-.55,0-.86,.24-.86,.82v.74c0,.51,.24,.82,.86,.82h7.94Zm3.95,0h7.78c.55,0,.94-.16,.94-.82v-.74c0-.67-.39-.82-.94-.82h-7.78v2.39Zm0,7.27v1.96h9.7v-.86c0-.78-.39-1.1-1.09-1.1h-8.6Zm9.7,5.04h-9.7v2.03h8.6c.74,0,1.09-.35,1.09-1.1v-.94Z"/><path class="h" d="M297.65,134.74v-3.6c0-1.37,.55-2.07,2.03-2.07,1.84,0,1.84,1.56,1.84,2.07v3.6h3.29v-3.6c0-1.25,.43-2.07,2-2.07,1.84,0,1.84,1.6,1.84,2.07v3.6h2.78c-.08-.16-.23-.35-.23-.74,0-.47,.2-.74,.31-.9,.63-.86,.82-1.17,1.1-1.68,.94-1.8,1.17-1.92,2.27-1.92,.98,0,2.07,.51,2.07,1.53,0,.63-1.02,2.58-2,3.72h4.42c.82,0,2.03,.27,2.03,1.72,0,.9-.67,1.68-2.03,1.68h-7.35c-.55,1.8-.59,2-1.09,3.29h7.23c.39,0,1.8,0,1.8,1.64s-1.41,1.6-1.8,1.6h-12.98v2.11h11.89c.63,0,1.72,.16,1.72,1.52s-1.21,1.49-1.72,1.49h-11.89v2.27h14.2c.94,0,2.03,.31,2.03,1.68,0,1.68-1.68,1.68-2.03,1.68h-11.5c3.6,2.85,6.49,3.99,9.39,4.93,3.25,1.02,3.6,1.13,3.6,2.35,0,.86-.51,2.23-2.03,2.23-.47,0-7.16-1.37-13.65-7.7v6.77c0,1.45-.63,2.07-2.11,2.07-1.88,0-1.88-1.56-1.88-2.07v-6.69c-5.71,5.71-12.87,7.67-13.73,7.67-1.6,0-1.92-1.76-1.92-2.27,0-1.17,.35-1.29,3.44-2.27,2.39-.74,5.59-1.72,9.58-5.01h-11.69c-.94,0-2.03-.31-2.03-1.68,0-1.68,1.68-1.68,2.03-1.68h14.31v-2.27h-11.89c-.7,0-1.72-.12-1.72-1.53,0-1.33,1.13-1.49,1.72-1.49h11.89v-2.11h-13.06c-.7,0-1.8-.2-1.8-1.6,0-1.64,1.45-1.64,1.8-1.64h7.27c-.23-.86-.82-2.54-1.17-3.29h-7.35c-.86,0-2.03-.31-2.03-1.72,0-1.53,1.45-1.68,2.03-1.68h4.46c-.31-.47-1.76-3.01-1.76-3.56,0-.94,1.06-1.6,2.03-1.6s1.29,.39,1.99,1.41c.47,.7,1.37,2.15,1.37,2.89,0,.43-.2,.7-.31,.86h3.01Zm9.31,6.69c.47-1.13,.86-2.66,1.06-3.29h-9.62c.16,.47,.94,2.78,1.13,3.29h7.43Z"/><path class="h" d="M326.24,142.29c0-3.52,.82-4.46,4.46-4.46h5.24c3.6,0,4.46,.9,4.46,4.46v5.79c0,3.56-.86,4.46-4.46,4.46h-5.87c-.04,6.22-1.49,10.13-1.84,11.03-.47,1.21-.94,2-2.15,2-.86,0-2.19-.59-2.19-2.03,0-.51,.12-.86,.43-1.56,1.45-3.28,1.92-7.04,1.92-10.64v-9.03Zm13.57-11.73c.43,0,2.03,0,2.03,1.84s-1.45,1.88-2.03,1.88h-13.8c-.47,0-2.03,0-2.03-1.84s1.49-1.88,2.03-1.88h13.8Zm-9.62,18.38h5.01c.94,0,1.41-.43,1.41-1.41v-4.73c0-.9-.43-1.41-1.41-1.41h-3.64c-.98,0-1.37,.47-1.37,1.41v6.14Zm28.47-7.67c1.33,0,1.96,.74,1.96,2,0,1.17-.59,2-1.72,2h-3.01v18.89c0,.55,0,1.84-1.92,1.84-1.76,0-2.15-.62-2.15-1.84v-18.89h-4.97v.78c0,6.45-1.09,11.58-2.86,15.02-.94,1.88-2.15,3.4-2.85,4.03-.55,.51-1.06,.59-1.37,.59-1.17,0-2.35-.98-2.35-2.19,0-.74,.35-1.09,.86-1.64,4.58-4.73,4.58-12.91,4.58-15.8v-10.75c0-3.44,.74-3.56,5.75-4.19,1.92-.23,4.58-.7,5.67-.98,2.5-.63,2.66-.67,3.09-.67,1.25,0,1.92,1.1,1.92,2.11,0,1.37-.51,2.07-7.12,3.01-.7,.12-3.83,.43-4.42,.59-.78,.2-.9,.55-.9,1.64v4.46h11.81Z"/></g><g><path class="h" d="M515.93,45.35c-1.48-.05-2.82-.4-4.03-1.05-1.21-.65-2.4-1.39-3.56-2.23-.47-.58-.84-1.2-1.11-1.86-.26-.66-.4-1.38-.4-2.17,.16-.84,.42-1.67,.79-2.49,.37-.82,.82-1.57,1.34-2.25-.74-1-1.29-2.05-1.66-3.16-.37-1.11-.69-2.24-.95-3.4l.4-.79c.21-.16,.43-.28,.67-.36,.24-.08,.49-.09,.75-.04l.79,.4c.47,.79,.84,1.63,1.11,2.53,.26,.9,.61,1.77,1.03,2.61l.32,.08c.84-.69,1.74-1.28,2.69-1.78s1.98-.78,3.08-.83l.79,.4c.16,.21,.28,.43,.36,.67,.08,.24,.09,.49,.04,.75l-.4,.79c-1.05,.37-2.05,.8-3,1.3s-1.87,1.12-2.77,1.86c-.58,.63-1.08,1.3-1.5,2.02s-.69,1.46-.79,2.25l.71,1.34c1.11,.84,2.29,1.46,3.56,1.86,1.26,.39,2.58,.67,3.95,.83,.16,.21,.28,.44,.36,.67,.08,.24,.09,.49,.04,.75l-.4,.83c-.32,.21-.66,.34-1.03,.39-.37,.05-.76,.08-1.19,.08Zm6.01-12.45l-.79-.4c-.26-.47-.57-.95-.91-1.42-.34-.47-.51-1.03-.51-1.66l.4-.79c.21-.16,.43-.28,.67-.36s.49-.09,.75-.04l.79,.4c.32,.47,.64,.95,.97,1.42,.33,.47,.49,1.03,.49,1.66l-.4,.79c-.24,.16-.47,.28-.71,.36-.24,.08-.49,.09-.75,.04Zm3.36-2.37l-.79-.39-.63-.55c-.16-.21-.28-.43-.36-.67s-.09-.49-.04-.75l.4-.79c.21-.16,.43-.28,.67-.36,.24-.08,.51-.09,.83-.04l1.11,.55c.21,.26,.38,.54,.51,.83,.13,.29,.17,.62,.12,.99l-.4,.79c-.21,.16-.43,.28-.67,.36-.24,.08-.49,.09-.75,.04Z"/><path class="h" d="M553.54,47.49l-.79-.39c-.16-.21-.28-.43-.36-.67s-.09-.51-.04-.83c.95-1.66,1.75-3.38,2.41-5.18,.66-1.79,.99-3.69,.99-5.69-.05-.47-.16-.92-.32-1.34-.16-.42-.34-.82-.55-1.18-.58-.26-1.2-.45-1.86-.55-.66-.1-1.36-.13-2.09-.08l-3.71,1.19v.16c-.37,.21-.71,.42-1.03,.63-.32,.21-.71,.29-1.19,.24l-.79-.4c-.16-.21-.28-.43-.36-.67-.08-.24-.09-.49-.04-.75l.63-1.03c1.26-.9,2.65-1.55,4.15-1.98,1.5-.42,3.1-.58,4.78-.47,.63,.16,1.26,.34,1.9,.55,.63,.21,1.21,.53,1.74,.95,.84,.95,1.38,2.03,1.62,3.24s.3,2.48,.2,3.79c-.32,1.74-.78,3.44-1.38,5.12s-1.38,3.27-2.33,4.8h-.16v.16c-.21,.16-.43,.28-.67,.36-.24,.08-.49,.09-.75,.04Zm.32-21.53c-.9-.42-1.78-.89-2.65-1.4-.87-.51-1.73-1.01-2.57-1.48-.16-.21-.28-.43-.36-.67s-.09-.49-.04-.75l.4-.79c.21-.16,.44-.28,.67-.36,.24-.08,.51-.09,.83-.04,.84,.42,1.69,.86,2.53,1.3,.84,.45,1.66,.91,2.45,1.38,.21,.21,.37,.45,.47,.73,.1,.28,.13,.57,.08,.89l-.4,.79c-.21,.16-.44,.28-.67,.36-.24,.08-.49,.09-.75,.04Z"/><path class="h" d="M597.56,45.91c-1.11-.05-2.16-.22-3.16-.51-1-.29-1.9-.82-2.69-1.58l-.95-1.34-.16,.24c-.42,.26-.86,.53-1.3,.79-.45,.26-.96,.39-1.54,.39-.37-.05-.72-.17-1.07-.36-.34-.18-.67-.41-.99-.67-.53-.58-.88-1.22-1.07-1.94-.18-.71-.25-1.46-.2-2.25,.16-.68,.32-1.34,.47-1.98,.16-.63,.5-1.21,1.03-1.74,.32-.32,.66-.63,1.03-.95,.37-.32,.76-.58,1.19-.79l1.34-.16v-.24l-.24-2.05h-.4c-.79,.21-1.59,.37-2.41,.47-.82,.11-1.65,.21-2.49,.32l-1.07-.47c-.16-.21-.28-.43-.36-.67s-.09-.49-.04-.75l.4-.79c1.03-.37,2.08-.61,3.16-.71,1.08-.1,2.12-.26,3.12-.47v-2.05c0-.68,.18-1.3,.55-1.86,.21-.16,.43-.28,.67-.36,.24-.08,.49-.09,.75-.04l.79,.39c.16,.24,.28,.47,.36,.71,.08,.24,.09,.49,.04,.75l-.08,1.9h1.11l1.34-.08,.79,.39c.16,.21,.28,.43,.36,.67s.09,.49,.04,.75l-.4,.79c-.42,.32-.91,.49-1.46,.51s-1.12,.04-1.7,.04v1.34l-.08,1.26,.32,4.58c0,1.08,.05,1.8,.16,2.17,.1,.37,.26,.73,.47,1.09,.21,.36,.5,.77,.87,1.24,.58,.26,1.2,.47,1.86,.63,.66,.16,1.36,.24,2.09,.24,.63-.05,1.2-.22,1.7-.51,.5-.29,.99-.64,1.46-1.07,.32-.37,.58-.75,.79-1.15,.21-.39,.42-.8,.63-1.22,.21-.16,.43-.28,.67-.36,.24-.08,.51-.09,.83-.04l.83,.4c.21,.21,.34,.46,.4,.75,.05,.29,.05,.59,0,.91l-1.3,2.21c-.47,.58-1,1.09-1.58,1.52-.58,.43-1.19,.81-1.82,1.13-.47,.16-.97,.29-1.5,.4-.53,.11-1.05,.16-1.58,.16Zm-9.25-5.41l.47-.39,.63-3.08-.16-.71h-.24l-.79,.79h-.16c-.21,.42-.37,.86-.47,1.3-.11,.45-.13,.94-.08,1.46l.32,.79h.24l.24-.16Zm16.95-8.14l-.79-.39c-.34-.42-.73-.82-1.15-1.19-.42-.37-.84-.68-1.26-.95-.16-.21-.28-.43-.36-.67s-.09-.49-.04-.75l.4-.79c.21-.16,.43-.28,.67-.36s.49-.09,.75-.04c.61,.21,1.16,.55,1.66,1.03,.5,.47,1.01,.95,1.54,1.42,.16,.21,.28,.43,.36,.67,.08,.24,.09,.51,.04,.83l-.4,.79c-.21,.16-.43,.28-.67,.36-.24,.08-.49,.09-.75,.04Z"/></g></g></svg>