<?xml version="1.0" encoding="UTF-8"?>
<svg id="_レイヤー_2" data-name="レイヤー 2" xmlns="http://www.w3.org/2000/svg" xmlns:xlink="http://www.w3.org/1999/xlink" viewBox="0 0 236.72 195.54">
  <defs>
    <style>
      .cls-1 {
        fill: #eda145;
      }

      .cls-2 {
        fill: #262422;
      }

      .cls-3 {
        clip-path: url(#clippath);
      }

      .cls-4 {
        fill: #54371b;
      }

      .cls-5 {
        fill: #de771d;
      }
    </style>
    <clipPath id="clippath">
      <path class="cls-1" d="M.04,104.59C1.62,59.5,54.54,14.49,120.99,16.83c66.45,2.34,117.28,49.2,115.69,94.3-1.59,45.09-54.99,71.33-121.44,69C48.8,177.78-1.55,149.68,.04,104.59Z"/>
    </clipPath>
  </defs>
  <g id="_レイヤー_1-2" data-name="レイヤー 1">
    <g>
      <path class="cls-4" d="M134.16,4.12c2.57,3.26-1.54,11.98-.52,19.66,.42,3.12-21.73,2.88-30.11,3.04-1.31,.03-2.84-.09-3.57-1.18-.56-.84-.42-1.95-.27-2.95,.92-6.42-3.36-14.5-.91-18.17,3.06-4.59,30.06-7.17,35.38-.41Z"/>
      <g>
        <path class="cls-1" d="M.04,104.59C1.62,59.5,54.54,14.49,120.99,16.83c66.45,2.34,117.28,49.2,115.69,94.3-1.59,45.09-54.99,71.33-121.44,69C48.8,177.78-1.55,149.68,.04,104.59Z"/>
        <g class="cls-3">
          <g>
            <path class="cls-5" d="M102.46,4.65c-21.07,26.49-42,73.18-47.88,109.22-5.45,33.41,3.42,53.41,29.31,74.52-28.63-7.72-47.19-22.11-56.42-29.64-22.09-18.01-13.94-66.43,2.55-92.44C50.62,33.78,80.22,10.6,102.46,4.65Z"/>
            <path class="cls-5" d="M110.8,3.35c-10.94,6.2-19.28,74.68-22.31,105.03-3.03,30.35-4.32,64.7,12.22,81.41,5.96,6.02,31.46,8.54,34.31,1.44,7.55-18.88,10.79-45.61,10.79-73.42,0-41.63-9.35-110.66-10.79-113.63-2.49-5.14-18.87-3.86-24.21-.83Z"/>
            <path class="cls-5" d="M142.11,10.46c31.95,41.23,49.14,108.54,36.54,142.74-7.77,21.08-13.36,27.12-28.65,39.31,9.81,2.58,45.54-7.52,51.95-15.38,25.91-31.77,25.65-67.9,13.66-100.05-9.57-25.68-57.68-60.23-73.5-66.63Z"/>
          </g>
        </g>
      </g>
      <path class="cls-2" d="M192.35,88.07c-1.68,1.56-39.88,2.81-43.14,.83-2.54-1.54,3.82-15.09,9.1-21.74,5.98-7.52,14.21-4.42,21.15,.36,6.89,4.76,15.35,18.26,12.89,20.54Z"/>
      <path class="cls-2" d="M43.27,86.73c1.58,1.66,39.63,5.25,43.01,3.47,2.63-1.38-1.41-15.73-6.84-22.26-5.89-7.09-13.65-9.31-21.19-2.62-6.26,5.56-17.3,18.98-14.98,21.41Z"/>
      <path class="cls-2" d="M117.89,83.02c-1.38,.04-7.66,7.67-7.05,9.03,.83,1.86,14.1,1.2,15.07-1.2,.32-.8-7.03-7.86-8.02-7.83Z"/>
      <path class="cls-2" d="M49.4,106.3c3.58,.37,24.87,3.5,35.75,5.71,.58,1.65,1.57,4.91,2.16,6.36,4.44,.41,10,1.29,13.6,1.28,1.28-1.56,3.12-4.93,4.2-6.52,9.57,.72,21.36,1.51,27.27,1.09,.91,1.71,1.94,3.35,2.91,5.02,5.29,.2,13.73,.06,16.48-.26,.48-1.23,1.22-4.14,2.29-6.85,12.85-.84,25.61-3.03,37.78-6.5,.46,3.34,.64,6.73,.45,10.59-8.69,8.95-21.34,21.4-36.63,25.6-.64-1.41-.57-5.43-1.14-6.69-3.65,1-12.12,1.27-14.96,1.59-.56,.93-1.51,4.52-2.38,6.53-6.17,.36-17.93-.16-24.39-.7-.35-1.71-.87-5.55-.87-5.55,0,0-11.39-1.26-13.79-1.53-.95,1.2-2.15,3.92-3.67,6.17-20.71-5.5-41.9-22.26-42.05-22.53-.41-.72-3.82-12.9-2.99-12.82Z"/>
    </g>
  </g>
</svg>