<?xml version="1.0" encoding="UTF-8"?>
<svg xmlns="http://www.w3.org/2000/svg" xmlns:xlink="http://www.w3.org/1999/xlink" viewBox="0 0 537.6 725.76">
  <defs>
    <style>
      .cls-1 {
        fill: url(#_新規パターンスウォッチ_3);
      }

      .cls-2 {
        fill: url(#linear-gradient-3);
      }

      .cls-2, .cls-3, .cls-4, .cls-5, .cls-6, .cls-7 {
        mix-blend-mode: multiply;
      }

      .cls-8 {
        fill: #dcb4eb;
      }

      .cls-3 {
        fill: url(#linear-gradient);
      }

      .cls-9 {
        fill: #dfbbed;
      }

      .cls-10 {
        mask: url(#mask-2);
      }

      .cls-11 {
        clip-path: url(#clippath-2);
      }

      .cls-12 {
        isolation: isolate;
      }

      .cls-13 {
        fill: #edbab1;
      }

      .cls-14 {
        mask: url(#mask-3);
      }

      .cls-4 {
        fill: url(#linear-gradient-2);
      }

      .cls-4, .cls-5, .cls-6 {
        opacity: .6;
      }

      .cls-5 {
        fill: url(#linear-gradient-6);
      }

      .cls-6 {
        fill: url(#linear-gradient-4);
      }

      .cls-15 {
        fill: #e18a7b;
      }

      .cls-16 {
        fill: #ebb4aa;
      }

      .cls-17 {
        fill: #c3e3ea;
      }

      .cls-18 {
        clip-path: url(#clippath-1);
      }

      .cls-19 {
        clip-path: url(#clippath-4);
      }

      .cls-7 {
        fill: url(#linear-gradient-5);
      }

      .cls-20 {
        mask: url(#mask-5);
      }

      .cls-21 {
        fill: #ffd044;
      }

      .cls-22 {
        fill: #df8474;
      }

      .cls-23 {
        filter: url(#luminosity-noclip-4);
      }

      .cls-24 {
        filter: url(#luminosity-noclip-6);
      }

      .cls-25 {
        mask: url(#mask-4);
      }

      .cls-26 {
        clip-path: url(#clippath);
      }

      .cls-27 {
        fill: none;
      }

      .cls-28 {
        clip-path: url(#clippath-3);
      }

      .cls-29 {
        fill: #3b9d0e;
      }

      .cls-30 {
        filter: url(#luminosity-noclip-2);
      }

      .cls-31 {
        mask: url(#mask-1);
      }

      .cls-32 {
        mask: url(#mask);
      }

      .cls-33 {
        clip-path: url(#clippath-5);
      }

      .cls-34 {
        fill: #ffdd76;
      }

      .cls-35 {
        fill: #fcf4f2;
      }
    </style>
    <pattern id="_新規パターンスウォッチ_3" data-name="新規パターンスウォッチ 3" x="0" y="0" width="33" height="66" patternTransform="translate(-14693.49 -10142.67) rotate(-118.31) scale(.66 -.66)" patternUnits="userSpaceOnUse" viewBox="0 0 33 66">
      <g>
        <rect class="cls-27" width="33" height="66"/>
        <rect class="cls-22" y="33" width="33" height="33"/>
        <rect class="cls-35" width="33" height="33"/>
      </g>
    </pattern>
    <clipPath id="clippath">
      <path class="cls-34" d="M188.87,288.53c13.07-14.86,20.99-33.64,25.95-52.8,8.79-33.92,8.83-70.07,.12-104.01-5.64-21.97-15.08-43.29-30.71-61.28-5.5,8.68-11.64,16.97-19.58,25.74,6.06,4.48,10.02,11.19,13.58,17.83,12.86,24.01,22.68,50.24,23.73,77.46,1.05,27.22-7.51,55.59-26.97,75.13,6.11,6.61,10.48,14.8,13.89,21.94Z"/>
    </clipPath>
    <filter id="luminosity-noclip-2" data-name="luminosity-noclip" x="171.14" y="184.29" width="57.04" height="113.55" color-interpolation-filters="sRGB" filterUnits="userSpaceOnUse">
      <feFlood flood-color="#fff" result="bg"/>
      <feBlend in="SourceGraphic" in2="bg"/>
    </filter>
    <filter id="luminosity-noclip-3" x="8112.9" y="-8408.11" width="-32766" height="32766" color-interpolation-filters="sRGB" filterUnits="userSpaceOnUse">
      <feFlood flood-color="#fff" result="bg"/>
      <feBlend in="SourceGraphic" in2="bg"/>
    </filter>
    <mask id="mask-1" x="8112.9" y="-8408.11" width="-32766" height="32766" maskUnits="userSpaceOnUse"/>
    <linearGradient id="linear-gradient" x1="-482.76" y1="223.37" x2="-386.21" y2="192.75" gradientTransform="translate(348.26 -212.81) rotate(-97.44) scale(1 -1)" gradientUnits="userSpaceOnUse">
      <stop offset="0" stop-color="#fff"/>
      <stop offset="1" stop-color="#737373"/>
    </linearGradient>
    <mask id="mask" x="171.14" y="184.29" width="57.04" height="113.55" maskUnits="userSpaceOnUse">
      <g class="cls-30">
        <g class="cls-31">
          <path class="cls-3" d="M228.15,184.29c-5.64,6.23-12.95,10.66-20.15,15-5.02,3.02-10.03,6.04-15.04,7.99-2.9,19.9-10.43,39.11-21.82,55.68,3.65,6.98,7.3,13.95,10.95,20.93,2.33,4.45,4.69,9,5.55,13.95,16-13.19,26.87-31.89,33-51.7,6.13-19.81,7.76-40.76,7.5-61.85Z"/>
        </g>
      </g>
    </mask>
    <linearGradient id="linear-gradient-2" x1="-482.76" y1="223.37" x2="-386.21" y2="192.75" gradientTransform="translate(348.26 -212.81) rotate(-97.44) scale(1 -1)" gradientUnits="userSpaceOnUse">
      <stop offset="0" stop-color="#ffe28d"/>
      <stop offset="1" stop-color="#fff5d6"/>
    </linearGradient>
    <clipPath id="clippath-1">
      <path class="cls-27" d="M147.08,254.81c-9.66,6.82-11.55,16.02-12.1,21.58-1.16,11.77,2.53,27.77,8.29,38.1,1.05,1.88,2.38,3.93,4.5,4.33,1.55,.29,3.1-.42,4.51-1.14,8.29-4.24,16.02-9.57,22.66-16.18,4.87,35.87-11.67,72.19-36.73,98.32,7.13,5.49,11.9,9.08,17.51,15.6,24.58-27.23,38.9-63.51,39.54-100.18,.18-10.2-.68-20.47-3.29-30.34-2.52-9.5-6.86-18.82-14.18-25.37-7.33-6.55-20.04-12.25-30.71-4.72Zm12.83,16.54c1.07,.47,4.61,4.4,5.67,9.2-4.8,6.25-9.51,11.04-13.34,14.43-3.59-6.94-5.69-23.28-5.69-23.28,0,0,8.9-2.28,13.36-.35Z"/>
    </clipPath>
    <clipPath id="clippath-2">
      <path class="cls-16" d="M328.11,482c12.6-6.68,27.08-9.1,41.34-9.38,25.25-.5,50.59,5.5,72.93,17.28,14.46,7.62,27.83,17.8,37.84,31.76-7.01,2.41-13.84,5.33-21.31,9.43-2.13-4.99-6.17-8.89-10.23-12.49-14.68-13.03-31.44-24.28-50.34-29.56-18.91-5.28-40.22-4.01-57.17,6.37-3.61-5.38-8.62-9.82-13.06-13.4Z"/>
    </clipPath>
    <filter id="luminosity-noclip-4" x="321.38" y="466.57" width="86.36" height="32.13" color-interpolation-filters="sRGB" filterUnits="userSpaceOnUse">
      <feFlood flood-color="#fff" result="bg"/>
      <feBlend in="SourceGraphic" in2="bg"/>
    </filter>
    <filter id="luminosity-noclip-5" x="8112.9" y="-8408.11" width="-32766" height="32766" color-interpolation-filters="sRGB" filterUnits="userSpaceOnUse">
      <feFlood flood-color="#fff" result="bg"/>
      <feBlend in="SourceGraphic" in2="bg"/>
    </filter>
    <mask id="mask-3" x="8112.9" y="-8408.11" width="-32766" height="32766" maskUnits="userSpaceOnUse"/>
    <linearGradient id="linear-gradient-3" x1="156.17" y1="1012.65" x2="225.75" y2="990.59" gradientTransform="translate(537.86 -521.25) rotate(20.83)" xlink:href="#linear-gradient"/>
    <mask id="mask-2" x="321.38" y="466.57" width="86.36" height="32.13" maskUnits="userSpaceOnUse">
      <g class="cls-23">
        <g class="cls-14">
          <path class="cls-2" d="M407.74,471.86c-5.31,2.91-9.63,7.3-13.88,11.62-2.96,3.01-5.91,6.02-8.11,9.21-14.44-1.29-29.16,.78-42.68,6.01-4.28-3.72-8.56-7.45-12.84-11.17-2.73-2.38-5.53-4.79-8.85-6.22,11.92-9.01,26.84-13.51,41.75-14.51,14.91-.99,29.87,1.36,44.61,5.06Z"/>
        </g>
      </g>
    </mask>
    <linearGradient id="linear-gradient-4" x1="156.17" y1="1012.65" x2="225.75" y2="990.59" gradientTransform="translate(537.86 -521.25) rotate(20.83)" gradientUnits="userSpaceOnUse">
      <stop offset="0" stop-color="#ebb3a9"/>
      <stop offset="1" stop-color="#faedea"/>
    </linearGradient>
    <clipPath id="clippath-3">
      <path class="cls-27" d="M346.59,494.61c-3.37-6.23-9.18-10.83-15.42-14.18-6.48-3.48-13.54-5.79-20.72-7.37-25.82-5.67-53.64-1.69-76.83,11,3.64,5.02,5.36,8.97,8.02,14.88,22.5-13.2,50.72-18.74,75.06-9.34-5.74,3.55-10.77,8.08-15.12,13.19-.74,.87-1.49,1.83-1.55,2.97-.08,1.55,1.14,2.83,2.28,3.88,6.28,5.76,16.88,11.02,25.33,12.17,3.99,.54,10.75,.75,17.15-4.88,7.06-6.22,5.18-16.08,1.81-22.32Zm-13.75,19.87s-11.11-4.2-15.37-7.87c3.02-2.12,7.16-4.62,12.34-6.94,3.18,1.55,5.35,4.68,5.5,5.51,.61,3.45-2.48,9.3-2.48,9.3Z"/>
    </clipPath>
    <clipPath id="clippath-4">
      <path class="cls-8" d="M354.62,277.54c6.73-15.17,18.25-27.8,31.09-38.31,22.75-18.6,50.26-31.33,79.17-36.62,18.71-3.42,38.27-3.72,57.46,1.87-4.68,7.24-8.84,14.82-12.73,23.95-5.54-3.04-12.04-3.7-18.34-4.08-22.8-1.37-46.23,.37-67.32,9.13-21.1,8.76-39.7,25.24-47.74,46.93-7.18-2.33-14.95-2.79-21.58-2.87Z"/>
    </clipPath>
    <filter id="luminosity-noclip-6" x="347.95" y="211.02" width="72.25" height="71.05" color-interpolation-filters="sRGB" filterUnits="userSpaceOnUse">
      <feFlood flood-color="#fff" result="bg"/>
      <feBlend in="SourceGraphic" in2="bg"/>
    </filter>
    <filter id="luminosity-noclip-7" x="8112.9" y="-8408.11" width="-32766" height="32766" color-interpolation-filters="sRGB" filterUnits="userSpaceOnUse">
      <feFlood flood-color="#fff" result="bg"/>
      <feBlend in="SourceGraphic" in2="bg"/>
    </filter>
    <mask id="mask-5" x="8112.9" y="-8408.11" width="-32766" height="32766" maskUnits="userSpaceOnUse"/>
    <linearGradient id="linear-gradient-5" x1="-53.39" y1="848.48" x2="27.58" y2="822.8" gradientTransform="translate(148.12 -546.42) rotate(-17.32)" xlink:href="#linear-gradient"/>
    <mask id="mask-4" x="347.95" y="211.02" width="72.25" height="71.05" maskUnits="userSpaceOnUse">
      <g class="cls-24">
        <g class="cls-20">
          <path class="cls-7" d="M420.21,211.02c-2.77,6.48-3.57,13.6-4.35,20.61-.54,4.88-1.08,9.76-.8,14.26-14.14,9.2-26.13,21.68-34.74,36.18-6.59-.33-13.19-.66-19.78-.99-4.21-.21-8.5-.41-12.58,.67,4.43-16.82,14.85-31.66,27.78-43.29,12.93-11.62,28.31-20.23,44.47-27.44Z"/>
        </g>
      </g>
    </mask>
    <linearGradient id="linear-gradient-6" x1="-53.39" y1="848.48" x2="27.58" y2="822.8" gradientTransform="translate(148.12 -546.42) rotate(-17.32)" gradientUnits="userSpaceOnUse">
      <stop offset="0" stop-color="#dcb3eb"/>
      <stop offset="1" stop-color="#f9f4fa"/>
    </linearGradient>
    <clipPath id="clippath-5">
      <path class="cls-27" d="M380.59,275.8c-7.56-3.28-16.18-3.31-24.3-1.89-8.43,1.47-16.55,4.43-24.26,8.15-27.71,13.37-50.31,37.01-62.41,65.3,6.94,1.98,11.35,4.35,18.03,7.86,11.1-28.26,32.95-53.61,61.98-62.5-2.7,7.38-4.05,15.14-4.36,22.94-.05,1.32-.05,2.75,.72,3.83,1.04,1.48,3.07,1.77,4.88,1.91,9.89,.76,23.37-2.05,31.93-7.07,4.04-2.37,10.38-7.04,12.18-16.79,1.99-10.76-6.82-18.45-14.38-21.73Zm1.7,28.06s-13.18,4.14-19.72,3.84c1.24-4.11,3.24-9.38,6.31-15.23,4.03-.87,8.27,.44,9,1.09,3.03,2.72,4.42,10.3,4.42,10.3Z"/>
    </clipPath>
  </defs>
  <g class="cls-12">
    <g id="_レイヤー_2" data-name="レイヤー 2">
      <g id="_レイヤー_1-2" data-name="レイヤー 1">
        <g>
          <path class="cls-1" d="M82.31,426.85c32.03,22.41,121.71,85.19,149.52,105.08,3.86,2.76,3.65,8.29-.11,11.19-37.46,28.88-181.7,146.33-223.86,181.5-3.55,2.96-8.81-.33-7.71-4.81,13.07-53.33,59.01-241.41,67.96-287.22,1.27-6.49,8.78-9.54,14.2-5.75Z"/>
          <path class="cls-17" d="M451.35,127.64c-5.41,8-11.66,15.54-18.85,24.38-.7,.86-1.97,1.05-2.87,.4-7.75-5.59-15.24-11.67-23.23-18.7-.83-.73-.97-2-.3-2.88,7.17-9.45,15.06-18.37,23.65-26.78,.85-.83,2.23-.79,3.03,.08,6,6.53,12.03,13.16,18.45,20.95,.59,.72,.66,1.77,.14,2.54Z"/>
          <path class="cls-15" d="M301.52,226.87c-3.92,5.72-8.41,11.17-13.52,17.46-.82,1.01-2.31,1.23-3.37,.47-5.49-4-10.83-8.33-16.48-13.27-.98-.86-1.15-2.36-.36-3.39,5.17-6.75,10.82-13.14,16.94-19.19,.99-.98,2.62-.94,3.56,.09,4.26,4.64,8.54,9.36,13.07,14.84,.7,.85,.78,2.08,.16,2.99Z"/>
          <path class="cls-29" d="M322.4,98.81c.38,4.14,.37,8.36,.4,13.23,0,.67-.51,1.25-1.18,1.29-4.08,.25-8.2,.28-12.72,.14-.67-.02-1.22-.56-1.25-1.22-.19-5.09,0-10.2,.53-15.33,.07-.71,.73-1.22,1.44-1.12,3.75,.52,7.54,1.08,11.75,1.89,.55,.11,.98,.57,1.03,1.13Z"/>
          <path class="cls-15" d="M106.42,366.15c.62,6.57,.6,13.27,.64,21.05,0,.82-.63,1.53-1.45,1.58-6.51,.41-13.09,.46-20.34,.23-.82-.03-1.5-.69-1.53-1.5-.32-8.1-.03-16.23,.84-24.39,.09-.87,.9-1.5,1.77-1.38,5.99,.84,12.05,1.71,18.8,3.03,.68,.13,1.21,.7,1.27,1.39Z"/>
          <path class="cls-29" d="M258.02,396.43c-5.46,5.4-11.48,10.43-18.3,16.19-1.41,1.19-3.53,1.1-4.79-.24-5.11-5.46-10-11.24-15.08-17.7-1.13-1.44-.97-3.56,.39-4.78,7.03-6.26,14.49-12.05,22.37-17.38,1.63-1.1,3.86-.61,4.9,1.06,3.65,5.88,7.31,11.88,11.07,18.68,.75,1.36,.54,3.1-.57,4.19Z"/>
          <path class="cls-34" d="M507.71,330.38c-1.47,4.81-3.29,9.63-5.33,14.98-.83,2.18-3.24,3.32-5.46,2.58-4.5-1.5-9.02-3.21-13.77-5.17-2.11-.87-3.19-3.27-2.41-5.42,2.09-5.8,4.52-11.48,7.27-17.06,1.09-2.21,3.83-3.02,5.98-1.82,3.84,2.15,7.74,4.39,11.88,6.94,1.68,1.04,2.42,3.08,1.84,4.97Z"/>
          <path class="cls-17" d="M78.81,308.75c2.18-54.25-17.67-111.97-48.29-141.96-7.75,7.27-16.35,13.62-26.16,19.52,32.84,23.07,57.87,78.49,64.37,122.39,.08,.54,.56,.94,1.1,.92,4.69-.13,3.81-.15,7.95,.06,.54,.03,1.01-.39,1.03-.93Z"/>
          <g>
            <g>
              <path class="cls-34" d="M188.87,288.53c13.07-14.86,20.99-33.64,25.95-52.8,8.79-33.92,8.83-70.07,.12-104.01-5.64-21.97-15.08-43.29-30.71-61.28-5.5,8.68-11.64,16.97-19.58,25.74,6.06,4.48,10.02,11.19,13.58,17.83,12.86,24.01,22.68,50.24,23.73,77.46,1.05,27.22-7.51,55.59-26.97,75.13,6.11,6.61,10.48,14.8,13.89,21.94Z"/>
              <g class="cls-26">
                <g class="cls-32">
                  <path class="cls-4" d="M228.15,184.29c-5.64,6.23-12.95,10.66-20.15,15-5.02,3.02-10.03,6.04-15.04,7.99-2.9,19.9-10.43,39.11-21.82,55.68,3.65,6.98,7.3,13.95,10.95,20.93,2.33,4.45,4.69,9,5.55,13.95,16-13.19,26.87-31.89,33-51.7,6.13-19.81,7.76-40.76,7.5-61.85Z"/>
                </g>
              </g>
            </g>
            <g>
              <path class="cls-34" d="M147.08,254.81c-9.66,6.82-11.55,16.02-12.1,21.58-1.16,11.77,2.53,27.77,8.29,38.1,1.05,1.88,2.38,3.93,4.5,4.33,1.55,.29,3.1-.42,4.51-1.14,8.29-4.24,16.02-9.57,22.66-16.18,4.87,35.87-11.67,72.19-36.73,98.32,6.17,4.13,12.02,8.74,17.51,15.6,24.58-27.23,38.9-63.51,39.54-100.18,.18-10.2-.68-20.47-3.29-30.34-2.52-9.5-6.86-18.82-14.18-25.37-7.33-6.55-20.04-12.25-30.71-4.72Zm12.83,16.54c1.07,.47,4.61,4.4,5.67,9.2-4.8,6.25-9.51,11.04-13.34,14.43-3.59-6.94-5.69-23.28-5.69-23.28,0,0,8.9-2.28,13.36-.35Z"/>
              <g class="cls-18">
                <path class="cls-21" d="M175.09,304.54c-.15-7.91-6.58-21.28-11.33-27.89-3.29-4.38-8.49-6.29-13.93-5.58-6.18,.81-17.39,4.82-17.66,5.24-.27,.41,.94,34.57,8.35,48.73,.13,.25,.28,.52,.53,.65,.37,.21,.83,.06,1.23-.08,11.71-4.33,22.83-13.4,32.8-21.07Z"/>
              </g>
            </g>
          </g>
          <g>
            <g>
              <path class="cls-16" d="M328.11,482c12.6-6.68,27.08-9.1,41.34-9.38,25.25-.5,50.59,5.5,72.93,17.28,14.46,7.62,27.83,17.8,37.84,31.76-7.01,2.41-13.84,5.33-21.31,9.43-2.13-4.99-6.17-8.89-10.23-12.49-14.68-13.03-31.44-24.28-50.34-29.56-18.91-5.28-40.22-4.01-57.17,6.37-3.61-5.38-8.62-9.82-13.06-13.4Z"/>
              <g class="cls-11">
                <g class="cls-10">
                  <path class="cls-6" d="M407.74,471.86c-5.31,2.91-9.63,7.3-13.88,11.62-2.96,3.01-5.91,6.02-8.11,9.21-14.44-1.29-29.16,.78-42.68,6.01-4.28-3.72-8.56-7.45-12.84-11.17-2.73-2.38-5.53-4.79-8.85-6.22,11.92-9.01,26.84-13.51,41.75-14.51,14.91-.99,29.87,1.36,44.61,5.06Z"/>
                </g>
              </g>
            </g>
            <g>
              <path class="cls-16" d="M346.59,494.61c-3.37-6.23-9.18-10.83-15.42-14.18-6.48-3.48-13.54-5.79-20.72-7.37-25.82-5.67-53.64-1.69-76.83,11,3.9,5,6.15,9.87,8.02,14.88,22.5-13.2,50.72-18.74,75.06-9.34-5.74,3.55-10.77,8.08-15.12,13.19-.74,.87-1.49,1.83-1.55,2.97-.08,1.55,1.14,2.83,2.28,3.88,6.28,5.76,16.88,11.02,25.33,12.17,3.99,.54,10.75,.75,17.15-4.88,7.06-6.22,5.18-16.08,1.81-22.32Zm-13.75,19.87s-11.11-4.2-15.37-7.87c3.02-2.12,7.16-4.62,12.34-6.94,3.18,1.55,5.35,4.68,5.5,5.51,.61,3.45-2.48,9.3-2.48,9.3Z"/>
              <g class="cls-28">
                <path class="cls-13" d="M314.58,488.99c5.52,1.43,13.82,8.16,17.66,12.6,2.52,3.04,2.99,7,1.59,10.7-1.6,4.2-6.28,11.38-6.62,11.5-.33,.12-24.08-6.43-32.77-13.99-.15-.13-.32-.28-.37-.48-.08-.3,.09-.6,.26-.85,4.99-7.49,13.21-13.77,20.25-19.48Z"/>
              </g>
            </g>
          </g>
          <path class="cls-17" d="M331.1,412.59c28.17-12.34,97.28-20.35,126.19-7.34-2.92,7.29-4.98,14.93-6.4,23.28-33.23-18.94-92.98-18.13-116.92-9.75-.38,.13-.79-.13-.93-.51-1.17-3.26-1.04-1.93-2.3-4.72-.16-.36,0-.8,.36-.96Z"/>
          <path class="cls-29" d="M133.85,140.05c.38,4.14,.37,8.36,.4,13.23,0,.67-.51,1.25-1.18,1.29-4.08,.25-8.2,.28-12.72,.14-.67-.02-1.22-.56-1.25-1.22-.19-5.09,0-10.2,.53-15.33,.07-.71,.73-1.22,1.44-1.12,3.75,.52,7.54,1.08,11.75,1.89,.55,.11,.98,.57,1.03,1.13Z"/>
          <path class="cls-17" d="M144.28,24.17c-5.41,8-11.66,15.54-18.85,24.38-.7,.86-1.97,1.05-2.87,.4-7.75-5.59-15.24-11.67-23.23-18.7-.83-.73-.97-2-.3-2.88,7.17-9.45,15.06-18.37,23.65-26.78,.85-.83,2.23-.79,3.03,.08,6,6.53,12.03,13.16,18.45,20.95,.59,.72,.66,1.77,.14,2.54Z"/>
          <path class="cls-8" d="M537.44,445.58c-1.24,4.05-2.77,8.11-4.48,12.6-.7,1.84-2.73,2.79-4.59,2.17-3.79-1.26-7.59-2.7-11.59-4.35-1.78-.74-2.68-2.75-2.03-4.56,1.76-4.88,3.8-9.66,6.12-14.35,.92-1.86,3.23-2.54,5.03-1.53,3.23,1.81,6.51,3.69,9.99,5.84,1.41,.87,2.03,2.59,1.55,4.18Z"/>
          <g>
            <g>
              <path class="cls-8" d="M354.62,277.54c6.73-15.17,18.25-27.8,31.09-38.31,22.75-18.6,50.26-31.33,79.17-36.62,18.71-3.42,38.27-3.72,57.46,1.87-4.68,7.24-8.84,14.82-12.73,23.95-5.54-3.04-12.04-3.7-18.34-4.08-22.8-1.37-46.23,.37-67.32,9.13-21.1,8.76-39.7,25.24-47.74,46.93-7.18-2.33-14.95-2.79-21.58-2.87Z"/>
              <g class="cls-19">
                <g class="cls-25">
                  <path class="cls-5" d="M420.21,211.02c-2.77,6.48-3.57,13.6-4.35,20.61-.54,4.88-1.08,9.76-.8,14.26-14.14,9.2-26.13,21.68-34.74,36.18-6.59-.33-13.19-.66-19.78-.99-4.21-.21-8.5-.41-12.58,.67,4.43-16.82,14.85-31.66,27.78-43.29,12.93-11.62,28.31-20.23,44.47-27.44Z"/>
                </g>
              </g>
            </g>
            <g>
              <path class="cls-8" d="M380.59,275.8c-7.56-3.28-16.18-3.31-24.3-1.89-8.43,1.47-16.55,4.43-24.26,8.15-27.71,13.37-50.31,37.01-62.41,65.3,7.16,1.78,12.73,4.61,18.03,7.86,11.1-28.26,32.95-53.61,61.98-62.5-2.7,7.38-4.05,15.14-4.36,22.94-.05,1.32-.05,2.75,.72,3.83,1.04,1.48,3.07,1.77,4.88,1.91,9.89,.76,23.37-2.05,31.93-7.07,4.04-2.37,10.38-7.04,12.18-16.79,1.99-10.76-6.82-18.45-14.38-21.73Zm1.7,28.06s-13.18,4.14-19.72,3.84c1.24-4.11,3.24-9.38,6.31-15.23,4.03-.87,8.27,.44,9,1.09,3.03,2.72,4.42,10.3,4.42,10.3Z"/>
              <g class="cls-33">
                <path class="cls-9" d="M347.26,293.66c6.08-2.66,18.52-2.46,25.22-1.16,4.49,.97,7.77,4.26,9.14,8.65,1.56,4.99,2.43,14.94,2.21,15.28-.22,.35-26.66,11.42-40.05,10.75-.24-.01-.49-.03-.68-.17-.29-.21-.34-.61-.37-.97-.82-10.44,2.19-22.1,4.52-32.38Z"/>
              </g>
            </g>
          </g>
        </g>
      </g>
    </g>
  </g>
</svg>