<?xml version="1.0" encoding="UTF-8"?>
<svg id="_レイヤー_2" data-name="レイヤー 2" xmlns="http://www.w3.org/2000/svg" xmlns:xlink="http://www.w3.org/1999/xlink" viewBox="0 0 240.73 175.04">
  <defs>
    <style>
      .cls-1 {
        fill: #fff;
      }

      .cls-2 {
        fill: #4668cf;
      }

      .cls-3 {
        fill: #c9c9c9;
      }

      .cls-4 {
        fill: #333;
      }

      .cls-5 {
        clip-path: url(#clippath-1);
      }

      .cls-6 {
        clip-path: url(#clippath);
      }

      .cls-7 {
        fill: none;
      }

      .cls-8 {
        fill: #fff8e0;
      }
    </style>
    <clipPath id="clippath">
      <path class="cls-7" d="M233.31,126.41c1.56-43.31-41.46-76.28-82.24-72.33-33.6,3.25-66.24,25.57-78.55,60.7-7.58,21.64-34.8,18.09-38.95,29.94-6.54,18.66,83.23,17.54,124,13.6,40.77-3.94,74.72-3.79,75.74-31.91Z"/>
    </clipPath>
    <clipPath id="clippath-1">
      <path class="cls-8" d="M240.53,130.52c-1.2-12.39-21.18-24.38-44.35-23.01-31.07,1.84-61.26,15.92-74.23,39.79-14.02,25.82,42.9,25.18,72.57,21.08,40.9-5.65,47.52-22.22,46.01-37.87Z"/>
    </clipPath>
  </defs>
  <g id="_レイヤー_1-2" data-name="レイヤー 1">
    <g id="_クジラ" data-name="クジラ">
      <g id="_噴水" data-name="噴水">
        <path class="cls-1" d="M192.83,20.38c0-.4,0-.74-.03-1.11-.02-.36-.05-.72-.09-1.07-.08-.71-.2-1.42-.34-2.12-.3-1.4-.72-2.8-1.29-4.16-1.13-2.72-2.85-5.36-5.28-7.48-.6-.53-1.26-1.01-1.94-1.46-.68-.45-1.4-.85-2.14-1.2-1.49-.7-3.08-1.2-4.68-1.47-.4-.08-.8-.13-1.2-.18-.4-.04-.8-.08-1.2-.1-.8-.05-1.59-.04-2.38,0-1.56,.08-3.14,.32-4.71,.72-.78,.21-1.56,.45-2.32,.77-.76,.3-1.51,.65-2.23,1.05-1.45,.79-2.79,1.78-3.98,2.88-1.19,1.12-2.22,2.36-3.11,3.66-.87,1.31-1.62,2.67-2.21,4.07-1.21,2.79-1.9,5.66-2.26,8.52-.09,.71-.16,1.43-.2,2.14-.05,.71-.07,1.43-.07,2.14,0,.71,.02,1.42,.06,2.13,.02,.36,.05,.71,.09,1.07,.02,.18,.03,.36,.06,.54l.08,.58c.16,1.2,1.26,2.04,2.45,1.88,.92-.12,1.64-.81,1.84-1.66l.07-.3c.02-.11,.05-.28,.08-.42l.08-.46c.06-.31,.12-.62,.18-.92,.13-.62,.26-1.23,.4-1.84,.14-.61,.29-1.22,.45-1.82,.16-.6,.33-1.2,.51-1.79,.72-2.36,1.62-4.6,2.73-6.61,.28-.5,.58-.98,.88-1.46,.3-.47,.63-.92,.97-1.34,.33-.43,.68-.84,1.04-1.22,.36-.39,.75-.74,1.13-1.08,1.56-1.36,3.35-2.29,5.36-2.86,1.01-.29,2.07-.45,3.16-.56,1.09-.1,2.15-.1,3.18,0,.52,.04,1.03,.12,1.53,.23,.5,.1,1,.22,1.48,.39,.48,.17,.96,.35,1.43,.57,.47,.22,.93,.47,1.38,.75,1.81,1.11,3.49,2.72,4.97,4.63,.74,.96,1.43,1.99,2.08,3.07,.32,.54,.64,1.1,.94,1.66,.15,.28,.3,.57,.44,.85l.42,.84,.05,.1c.28,.56,.97,.79,1.53,.51,.4-.2,.63-.6,.63-1.01Z"/>
        <path class="cls-1" d="M167.32,85.57l-6.22-30.49-3.12-15.24-.78-3.81-.4-1.96c-.14-.67-.3-1.33-.47-1.99-.66-2.63-1.52-5.2-2.51-7.74-1.01-2.54-2.21-5.03-3.68-7.43-.74-1.2-1.55-2.37-2.45-3.49-.9-1.12-1.91-2.19-3-3.19-1.09-1-2.31-1.91-3.62-2.69-.65-.4-1.34-.74-2.04-1.08-.71-.31-1.43-.6-2.17-.84-2.96-.96-6.14-1.2-9.12-.81l-1.11,.16c-.36,.07-.72,.15-1.09,.23l-.54,.12-.27,.06-.27,.08-1.08,.31c-.36,.09-.71,.23-1.07,.36-.35,.14-.71,.26-1.06,.41-.69,.32-1.39,.62-2.05,1.01-.68,.36-1.31,.81-1.94,1.24-.61,.48-1.23,.93-1.77,1.48-1.11,1.06-2.12,2.23-2.91,3.51-1.62,2.55-2.58,5.37-3,8.16-.21,1.4-.3,2.8-.27,4.18,.01,.69,.05,1.38,.13,2.07,.04,.34,.09,.69,.14,1.03,.05,.35,.11,.67,.2,1.05,.14,.61,.74,.99,1.35,.86,.47-.11,.81-.5,.87-.95v-.1s.13-.89,.13-.89c.04-.31,.1-.61,.15-.92,.1-.61,.23-1.22,.37-1.81,.29-1.2,.63-2.36,1.05-3.48,.83-2.23,1.96-4.27,3.38-5.93l.54-.61c.2-.19,.39-.37,.58-.57,.19-.19,.4-.35,.6-.53,.19-.18,.41-.34,.63-.49,.41-.33,.87-.6,1.31-.89,.47-.25,.92-.52,1.42-.72,.47-.24,.99-.41,1.49-.6,.25-.09,.52-.16,.78-.24,.26-.07,.51-.17,.79-.22l.8-.19,.2-.05,.21-.03,.41-.07,.83-.13,.82-.09c2.18-.19,4.28,0,6.27,.62,1.99,.61,3.86,1.66,5.6,3.04,1.73,1.39,3.32,3.11,4.72,5.02,1.41,1.92,2.64,4.03,3.71,6.24,.27,.55,.53,1.11,.77,1.68,.24,.57,.48,1.14,.7,1.72,.45,1.15,.87,2.33,1.24,3.51,.18,.59,.36,1.19,.52,1.77l.47,1.83,.97,3.77,3.89,15.09,7.8,30.17c.16,.6,.77,.96,1.37,.81,.58-.15,.94-.73,.82-1.31Z"/>
        <path class="cls-1" d="M200.26,36.14c-.12-1.21-1.19-2.09-2.4-1.98-1.21,.12-2.09,1.19-1.97,2.4,.12,1.21,1.19,2.09,2.4,1.98,1.21-.12,2.09-1.19,1.98-2.4Z"/>
        <path class="cls-1" d="M121.25,38.85c-.16-1.65-1.62-2.85-3.26-2.7s-2.84,1.62-2.68,3.27c.16,1.65,1.62,2.85,3.26,2.7,1.64-.16,2.84-1.62,2.68-3.27Z"/>
        <path class="cls-1" d="M98.3,31.11c-.09-.89-.9-1.54-1.83-1.45-.92,.09-1.6,.88-1.51,1.78,.09,.89,.9,1.54,1.83,1.45,.92-.09,1.6-.88,1.51-1.78Z"/>
      </g>
      <g id="_鯨" data-name="鯨">
        <path class="cls-2" d="M233.31,126.41c1.56-43.31-41.46-76.28-82.24-72.33-33.6,3.25-66.24,25.57-78.55,60.7-7.58,21.64-34.8,18.09-38.95,29.94-6.54,18.66,83.23,17.54,124,13.6,40.77-3.94,74.72-3.79,75.74-31.91Z"/>
        <path class="cls-2" d="M34.61,121.23c-3.1-5.85-12.97-10.41-16.73-7.85-3.76,2.56-3.32,12.75-.05,18.19,4.8,7.97,15.37,13.51,17.84,11.5,1.44-1.17,4.47-11.43-1.06-21.85Z"/>
        <path class="cls-2" d="M16.3,132.29C9.76,131.28,.2,136.45,0,140.99s8.22,10.29,14.54,10.93c9.26,.93,20.02-4.23,19.89-7.4-.08-1.86-6.48-10.42-18.14-12.23Z"/>
        <g class="cls-6">
          <g>
            <path class="cls-8" d="M240.53,130.52c-1.2-12.39-21.18-24.38-44.35-23.01-31.07,1.84-61.26,15.92-74.23,39.79-14.02,25.82,42.9,25.18,72.57,21.08,40.9-5.65,47.52-22.22,46.01-37.87Z"/>
            <g class="cls-5">
              <g>
                <path class="cls-3" d="M205.19,171.06c9.02-14.12,13.32-31.14,12.33-47.85-.29-4.8-1-9.57-2.16-14.23-.35-1.39,1.75-2.2,2.1-.8,4.22,16.94,2.88,35.04-3.71,51.2-1.86,4.58-4.16,8.95-6.82,13.11-.78,1.22-2.51-.22-1.73-1.43Z"/>
                <path class="cls-3" d="M182.28,172.97c3.14-2.55,4.79-6.35,6.19-10.04,1.63-4.31,3.06-8.7,4.29-13.14,2.47-8.87,4.2-17.99,5.05-27.16,.49-5.24,.5-10.64-1.62-15.55-.57-1.33,1.53-2.13,2.1-.8,1.91,4.42,2.2,9.23,1.94,13.99-.26,4.85-.96,9.7-1.79,14.49-1.67,9.65-4.24,19.14-7.64,28.32-1.61,4.36-3.52,8.72-7.21,11.72-1.13,.92-2.43-.91-1.32-1.82Z"/>
                <path class="cls-3" d="M146,172.2c13.4-12.42,20.94-29.76,24.55-47.41,1.08-5.31,1.84-10.68,2.37-16.08,.14-1.44,2.36-1.05,2.21,.39-1.85,18.87-6.72,37.85-17.8,53.51-2.94,4.15-6.29,7.96-10.01,11.41-1.06,.98-2.36-.85-1.32-1.82Z"/>
              </g>
            </g>
          </g>
        </g>
        <path class="cls-4" d="M211.71,78.59c-.19-1.99-1.96-3.45-3.95-3.26-1.99,.19-3.45,1.96-3.26,3.95,.19,1.99,1.96,3.45,3.95,3.26,1.99-.19,3.45-1.96,3.26-3.95Z"/>
        <path class="cls-4" d="M167.49,80.55c-.19-1.99-1.96-3.45-3.95-3.26-1.99,.19-3.45,1.96-3.26,3.95,.19,1.99,1.96,3.45,3.95,3.26,1.99-.19,3.45-1.96,3.26-3.95Z"/>
        <path class="cls-4" d="M170.42,94.12c7.11,4.29,15.52,4.92,23.63,4.18,7.17-.65,15.69-1.58,21.1-6.86,1.03-1,2.77,.42,1.73,1.43-5.81,5.66-14.4,6.87-22.14,7.62-8.61,.84-17.7,.24-25.27-4.34-1.22-.74-.3-2.79,.94-2.04Z"/>
      </g>
    </g>
  </g>
</svg>