<?xml version="1.0" encoding="UTF-8"?>
<svg id="_レイヤー_2" data-name="レイヤー 2" xmlns="http://www.w3.org/2000/svg" xmlns:xlink="http://www.w3.org/1999/xlink" viewBox="0 0 315.15 370.71">
  <defs>
    <style>
      .cls-1 {
        fill: #fff;
      }

      .cls-2 {
        fill: #deca64;
      }

      .cls-3 {
        fill: #ebb49d;
      }

      .cls-4 {
        clip-path: url(#clippath);
      }

      .cls-5 {
        fill: #dea364;
      }

      .cls-6 {
        fill: #ad2626;
      }

      .cls-7 {
        fill: #db3535;
      }

      .cls-8 {
        fill: #c72c2c;
      }
    </style>
    <clipPath id="clippath">
      <path d="M78.93,132.29c-17.14-23.62-34.28-47.24-51.94-71.05-2.63-3.55-3.15-8.26-1.31-12.27,4.47-9.71,12.79-17.62,21.47-24.13C68.26,9,94.47-1.58,121.36,.19c3.31,.22,6.27,2.18,7.83,5.1,13.6,25.34,25.46,51.65,34.94,79.51-33.78,1.18-66.49,19.71-85.21,47.48Z"/>
    </clipPath>
  </defs>
  <g id="_レイヤー_1-2" data-name="レイヤー 1">
    <g>
      <path d="M239.5,256.91c-1.31,0-2.55-.77-3.08-2.05-.72-1.7,.08-3.67,1.78-4.38,18.32-7.73,35.05-18.51,49.72-32.05,.48-.44,1.07-.73,1.71-.84,7.19-1.21,14.15-3.43,20.71-6.62,1.66-.81,3.66-.11,4.47,1.55,.81,1.66,.11,3.67-1.55,4.47-6.83,3.32-14.07,5.68-21.54,7.02-15.06,13.75-32.19,24.72-50.92,32.62-.42,.18-.87,.26-1.3,.26Z"/>
      <path d="M290.52,224.53c-.2,0-.41-.02-.61-.06-1.82-.34-3.02-2.08-2.68-3.9,1.35-7.27,2.28-14.69,2.78-22.06,.12-1.84,1.71-3.24,3.56-3.12,1.84,.12,3.24,1.72,3.12,3.56-.51,7.63-1.48,15.32-2.87,22.84-.3,1.61-1.71,2.74-3.29,2.74Z"/>
      <path class="cls-6" d="M93.94,223.71c-1.66,.09-11.41,2.26-15.06,3.41-12.4,3.88-20.76,8.01-30.84,15.33-1.06,.77-1.67,2.05-1.55,3.36,1.39,14.97,8.92,28.78,20.9,38.91,3.97-17.48,15.96-31.22,27.08-44.79-1.25-5.14-1.79-10.46-.54-16.21Z"/>
      <path class="cls-1" d="M78.88,176.75c0-34.57,33.58-73.3,76.64-73.3,45.82,0,76.89,30.72,77.98,65.27,1.17,36.76-24.45,52.44-74.26,56.56-54.61,4.52-80.37-13.96-80.37-48.53Z"/>
      <path class="cls-1" d="M62.66,306.49c-3.38-39.77,24.11-87.77,91.27-93,62.04-4.83,98.02,23.01,100.15,74.45,1.65,39.88-34.14,77.72-87.92,82.29-53.78,4.57-100.12-23.97-103.49-63.74Z"/>
      <g>
        <path d="M78.93,132.29c-17.14-23.62-34.28-47.24-51.94-71.05-2.63-3.55-3.15-8.26-1.31-12.27,4.47-9.71,12.79-17.62,21.47-24.13C68.26,9,94.47-1.58,121.36,.19c3.31,.22,6.27,2.18,7.83,5.1,13.6,25.34,25.46,51.65,34.94,79.51-33.78,1.18-66.49,19.71-85.21,47.48Z"/>
        <g class="cls-4">
          <path class="cls-7" d="M66.07,130.95c7.7-20.71,22.68-38.38,42.28-48.4,23.44-11.99,46.62-11.71,60.47-9.71,2.97,6.33,6.2,9.52,7.51,17-7.5-1.84-15.41-.52-22.89,1.41-22.38,5.76-43.34,17.01-60.51,32.48-6.07,5.47-12.76,15.52-15.55,19.34-.04,.93-3.86-6.61-11.31-12.12Z"/>
        </g>
      </g>
      <path d="M80.78,163.31c7.3-22.8,24.81-43.54,47.92-52.26,23.1-8.71,49.74-6.66,72.24,4.33,1.98-4.01,5.15-15.75,6.71-21.74,.54-2.07-.41-4.24-2.29-5.27-20.58-11.18-45.19-14.16-85.12-.01-23.23,8.23-51.36,36.11-59.92,60.55-.74,2.12,.13,4.48,2.06,5.65,5.67,3.42,12.1,6.23,18.41,8.75Z"/>
      <path d="M134.31,142.33c0-3.7,3-6.69,6.69-6.69s6.69,3,6.69,6.69-3,6.69-6.69,6.69-6.69-3-6.69-6.69Z"/>
      <path d="M180.31,137.64c0-3.7,3-6.69,6.69-6.69s6.69,3,6.69,6.69-3,6.69-6.69,6.69-6.69-3-6.69-6.69Z"/>
      <path class="cls-8" d="M94.36,212.45c-3.49-5.08-28.27-12.88-38.81-13.73-1.5-.12-2.88,.8-3.37,2.23-3.81,10.99-7.72,19.88-10.07,31.12-.44,2.12,.92,4.21,3.04,4.66,12.5,2.68,28.09,5.41,37.01,7.43,4.04-10.65,8.3-21.22,12.21-31.71Z"/>
      <circle class="cls-2" cx="168.82" cy="142.33" r="4.69"/>
      <path class="cls-5" d="M123.01,173.81c-.47,0-.94-.12-1.37-.38-1.27-.76-1.68-2.4-.93-3.67,3.24-5.42,6.55-8.97,7.82-10.24,1.05-1.05,2.74-1.05,3.79,0,1.05,1.05,1.05,2.74,0,3.79-.88,.88-4,4.16-7.01,9.2-.5,.84-1.39,1.3-2.3,1.3Z"/>
      <path class="cls-5" d="M161.13,185.45c-.83,0-1.66-.01-2.49-.04-11.17-.39-26.4-6.44-33.45-18.81-.73-1.29-.28-2.92,1-3.65,1.29-.73,2.92-.28,3.65,1,6.44,11.31,20.86,15.83,28.98,16.11,9.12,.31,17.71-1.23,24.83-4.48,8.07-3.68,14.19-9.89,16.81-17.02,.51-1.39,2.05-2.1,3.44-1.59,1.39,.51,2.1,2.05,1.59,3.44-3.1,8.47-10.25,15.77-19.61,20.05-7.21,3.29-15.72,5.01-24.75,5.01Z"/>
      <path class="cls-7" d="M90.94,209.9c28.81,13.72,54,12.83,81.9,9.06,19.51-2.63,34.56-6.03,53.46-20.93,9.89,8.2,15.92,24.94,12.49,34.15-6.21,16.69-34.32,27.69-61.15,31.89-21.94,3.43-44.09,1.68-65.89-2.55-7.85-1.52-27.61-4.17-32.86-15.58-3.81-8.27,1.59-29.34,12.05-36.04Z"/>
      <circle class="cls-2" cx="165.23" cy="286.64" r="9.04"/>
      <circle class="cls-2" cx="164.14" cy="314.76" r="9.04"/>
      <path d="M79.07,274c-.19,0-.39-.02-.58-.05-17.49-3.08-34.56-8.35-50.75-15.65-.59-.27-1.09-.69-1.44-1.24-4.34-6.73-8.8-14.2-13.24-22.22-.9-1.62-.31-3.65,1.3-4.55,1.62-.9,3.65-.31,4.55,1.3,4.19,7.56,8.39,14.62,12.48,21.01,15.41,6.87,31.64,11.83,48.26,14.76,1.82,.32,3.04,2.06,2.71,3.88-.29,1.62-1.7,2.77-3.29,2.77Z"/>
      <path d="M23.37,259.34c-6.92,0-13.84-.65-20.65-1.95-1.82-.35-3.01-2.1-2.66-3.92,.35-1.82,2.1-3.01,3.92-2.66,8.67,1.66,17.54,2.2,26.35,1.6,1.85-.14,3.44,1.27,3.56,3.11,.12,1.84-1.27,3.44-3.11,3.56-2.47,.17-4.94,.25-7.41,.25Z"/>
      <path class="cls-1" d="M36.59,51.63c.78,.78,3.86-1.02,6.86-4.02s4.81-6.08,4.02-6.86c-.78-.78-3.86,1.02-6.86,4.02-3.01,3.01-4.81,6.08-4.02,6.86Z"/>
      <path class="cls-1" d="M51.22,35.94c0-1.2,.97-2.18,2.18-2.18s2.18,.97,2.18,2.18-.97,2.18-2.18,2.18-2.18-.97-2.18-2.18Z"/>
      <path class="cls-3" d="M94.79,161.11c-.43-4.04,3.99-7.83,9.87-8.46,5.88-.63,11,2.14,11.43,6.19,.43,4.04-3.99,7.83-9.87,8.46-5.88,.63-11-2.14-11.43-6.19Z"/>
      <path class="cls-3" d="M207.27,149.12c-.43-4.04,3.24-7.75,8.21-8.28,4.96-.53,9.34,2.32,9.77,6.36s-3.24,7.75-8.21,8.28c-4.96,.53-9.34-2.32-9.77-6.36Z"/>
    </g>
  </g>
</svg>