<?xml version="1.0" encoding="iso-8859-1"?>
<!-- Generator: Adobe Illustrator 18.1.1, SVG Export Plug-In . SVG Version: 6.00 Build 0)  -->
<svg version="1.1" id="_x31_" xmlns="http://www.w3.org/2000/svg" xmlns:xlink="http://www.w3.org/1999/xlink" x="0px" y="0px"
	 viewBox="0 0 512 512" style="enable-background:new 0 0 512 512;" xml:space="preserve">
<g>
	<g>
		<path style="fill:#FFFFFF;" d="M506.704,390.398c-4.834-1.697-16.964-7.927-20.781-11.469c-3.817-3.543-4.904-11.717-4.904-17.985
			c0-6.267,0.818-10.899,3.27-23.917c2.452-13.017-13.351-23.497-20.981-30.581c-7.63-7.086-10.355-21.255-7.086-30.519
			c3.269-9.265,9.812-25.615,9.812-38.149c0-12.534-12.537-25.613-31.066-29.428c-3.269-7.086-11.443-15.805-17.973-17.289
			c-6.526-1.484-5.461-2.331-1.647-8.87c3.816-6.541,20.711-39.785,23.98-49.05c3.27-9.264,4.361-17.984-4.36-20.164
			c-18.529-0.545-23.433,4.36-38.693,43.053c1.635-25.07-20.708-41.963-20.708-41.963s-5.97-2.807-6.647,2.113
			c-21.363,33.178,9.916,60.558,16.44,69.915l1.377,1.272c0,0-5.995,1.089-8.721,1.907c-2.722,0.817-4.631,6.813-6.265,8.719
			c-1.635,1.908-3.269,5.723-2.726,8.447c0.547,2.726,0.544,9.265,0,10.899c-0.544,1.636,0.573,4.033-1.361,6.541
			c-1.937,2.508-24.524,16.077-26.63,18.345c-2.102,2.269-12.61,12.446-15.469,15.365c-2.859,2.918-9.131,5.803-13.491,9.072
			c-4.357,3.27-6.266,1.635-5.995,4.906c0.273,3.269,5.467,4.627,5.467,4.627s2.71,1.64,6.253,1.64
			c3.27,0.817,4.631-1.636,5.722-1.636c1.088,0,7.356-1.907,10.082-4.904c2.723-2.997,3.27-6.267,8.721-11.445
			c5.448-5.178,13.078-5.45,13.078-5.45s2.182-1.908,4.5-3.925c2.315-2.018,9.942-6.703,14.302-8.611
			c4.36-1.907,3.813,2.999,3.813,2.999s4.908,6.267,5.801,6.383c0.894,0.116,2.115-1.601,9.732,6.424c12.925,13.615,0,27.52,0,27.52
			s-7.356,7.086-12.261,10.355c-4.907,3.269-23.98,10.899-29.702,14.442c-5.722,3.543-14.172,11.171-16.077,18.529
			c-1.908,7.356-6.812,32.7-8.533,36.928c-1.724,4.228-14.903,14.846-18.99,15.663c-4.087,0.818-11.443-2.725-17.168,0.544
			c-5.722,3.271-0.818,9.266,0,8.993c0.817-0.274,4.265,1.806,4.265,1.806s2.004,2.826,10.683-0.119
			c6.771,1.414,14.21-5.229,19.114-8.771c4.904-3.541,16.077-11.445,19.076-15.26c2.996-3.815,7.356-17.168,8.174-20.165
			c0.818-2.997,2.179-6.539,5.178-9.263c2.999-2.725,2.996,3.815,3.543,4.087c0-2.997,6.265-9.265,6.265-9.265
			s1.091,7.356,2.182,5.45c0.544-4.36,7.9-9.265,7.9-9.265s0,4.359,0.547,6.267c1.091-4.632,10.082-10.628,10.082-10.628
			s-0.273,6.267,1.352,3.486c1.352-3.327,5.187-4.576,5.187-4.576s-2.452,5.451,1.364,1.908c4.36-5.176,10.152-4.728,16.894-2.726
			c6.739,2.004,11.532,7.347,11.532,7.347s-3.556-4.651-0.089-2.168c3.467,2.482,10.899,4.904,10.899,4.904
			s-1.908-2.452,1.635-1.091c3.543,1.363,8.994,4.087,8.994,4.087s-1.091-1.635,1.088-1.361c2.182,0.274,6.269,0.818,8.87,2.805
			c2.602,1.986,5.028,6.188,6.663,9.457c1.635,3.27,3.27,22.344,2.726,29.156c-0.547,6.813,4.087,8.447,9.808,12.807
			c5.722,4.359,14.442,7.63,19.62,10.899c5.178,3.269,6.539,4.087,10.082,3.543c3.543-0.545,3.785-2.225,3.785-2.225
			s1.393-1.045,2.595-5.324C512.578,393.262,511.535,392.095,506.704,390.398z"/>
		<path style="fill:#FFFFFF;" d="M170.709,369.118c-3.543-3.271-4.087-2.999-5.722-5.997c-1.635-2.996-6.813-13.35-8.45-14.441
			c-1.635-1.091-3.543-2.18-4.087-3.815c-0.544-1.635-16.077-29.702-16.894-32.428c-0.817-2.724,1.635-7.356,2.455-8.992
			c0.817-1.635,0.817-15.258-4.907-25.885c-5.721-10.627-12.26-23.979-13.895-28.613c-1.635-4.632-0.273-5.178,0.544-4.632
			c0.818,0.545,1.908,6.812,4.904,7.358c1.091,2.997,1.908,5.176,3.817,5.176c0,2.454,4.904,3.817,7.083,2.998
			c0,2.182,11.99,1.363,14.442-0.818c5.995-1.907,9.538-10.082,8.994-13.897c-0.547-3.815-10.696-17.219-16.077-22.889
			c-2.144-2.258-4.042-3.92-5.563-5.111c0.064-0.188,0.127-0.375,0.181-0.558c-4.634-3.953-12.241-9.785-13.695-10.408
			c-0.006-0.003-0.01-0.008-0.016-0.011c1.937-0.681,4.43-1.592,6.695-2.431c3.463-0.808,7.172-1.519,8.307-1.644
			c2.452-0.272,14.716-0.818,17.441-1.089c2.722-0.273-1.091-3.271-7.904-8.447c-6.813-5.178-15.803-14.442-16.894-17.168
			c-1.091-2.726-0.817-8.447-1.091-10.899c-0.27-2.454-7.63-1.363-10.899,0.544c-3.27,1.908-3.27,3.543-3.27-1.089
			c0-4.632,0.544-8.992-4.087-9.81c-4.634-0.817-10.355,2.997-14.716,4.906c-4.36,1.907-6.539-1.635-11.99-0.817
			c-5.448,0.817-36.511,14.714-45.505,23.979c-3.499,3.607-8.721,5.722-13.625,11.173c-4.904,5.45-25.885,27.248-21.525,37.332
			c3.152,7.291,10.626,12.534,20.981,14.169c0,0-1.364,4.904-1.635,6.54c-0.274,1.63-4.071,7.333-1.651,21.705
			c-0.375,1.786-0.528,3.374-0.258,4.454c0.817,3.27,6.542,25.613,10.629,28.065c4.087,2.454,4.087,2.454,4.087,2.454
			s-10.629,7.902-15.26,14.169c-4.634,6.267-14.169,21.527-14.169,26.433c0,4.904-2.182,9.536,2.179,11.989
			c4.36,2.452,18.529,16.622,18.802,18.257c0.274,1.635,1.088,1.908-1.091,2.997c-2.179,1.089-10.355,5.722-13.898,7.63
			c-3.54,1.908-10.626,5.995-10.626,8.447c0,2.452,0,4.632,0,4.632s5.721-6.812,8.174-8.447c2.452-1.635,7.903-2.452,9.268-2.724
			c1.361-0.273-3.543,3.813-4.634,5.448c-1.091,1.635-3.543,5.178-3.543,7.086c0,1.907,0.544,5.723,1.091,4.632
			c0.544-1.091,7.904-11.99,11.173-14.17c3.269-2.179,3.54-2.179,3.813,0.273c0.273,2.452-3.813,9.265-3.813,9.265
			s6.539-4.088,11.169-5.451c4.634-1.361,9.538-2.724,10.085-5.721c0.544-2.998,0.544-9.265-0.818-13.352
			c-1.364-4.088,0-7.084-2.999-14.17c-2.996-7.084-5.451-12.262-5.451-12.262s32.701-19.892,37.332-30.791
			c4.077,0.6,7.779,0.83,10.654,0.899c1.253,0.141,2.3,0.14,3.155,0.019c1.781-0.024,2.815-0.1,2.815-0.1
			s19.346,24.251,46.049,35.151c11.99,7.902,19.62,11.99,17.168,16.894c-2.452,4.906-4.904,7.63-6.265,10.082
			c-1.364,2.452-2.452,5.995-0.274,8.993c4.904-7.358,8.991-7.902,10.082-8.447c-1.635,3.543-1.908,9.538,2.996,12.807
			c2.726,1.907,2.455,1.361,1.638-1.363c-0.82-2.724-0.547-9.81,2.452-12.807c2.452,1.635,2.996,1.635,2.996,4.087
			c0,2.454,1.091,6.814,6.268,9.266c1.635-0.818-0.003-0.274-0.547-4.361c-0.544-4.087,2.725-9.81,2.725-13.897
			C175.613,375.383,174.252,372.387,170.709,369.118z"/>
	</g>
	<g>
		<g>
			<path style="fill:#231815;" d="M115.538,156.13c-0.687-0.798-1.638-1.309-2.579-1.576c-0.948-0.275-1.902-0.345-2.818-0.329
				c-1.838,0.041-3.553,0.41-5.117,0.825c-3.126,0.856-5.68,1.935-7.385,2.524c-1.705,0.593-3.692,1.641-5.044,2.751
				c-1.358,1.107-2.083,2.245-1.393,2.959c0.569,0.588,1.937,0.162,3.403-0.565c1.469-0.73,3.05-1.752,4.001-2.516
				c0.945-0.755,3.874-2.625,7.394-3.842c1.749-0.6,3.667-1.023,5.397-0.911c0.859,0.056,1.66,0.258,2.296,0.611
				c0.636,0.35,1.091,0.841,1.352,1.329c0.538,0.976,0.633,2.161,0.515,3.301c-0.054,0.56-0.172,1.161-0.254,1.762
				c-0.089,0.599-0.169,1.196-0.235,1.787c-0.277,2.371-0.388,4.681-0.28,6.841c0.089,2.176,1.205,3.688,1.86,3.626
				c0.668-0.049,0.735-1.007,0.229-4.146c-0.448-3.168-0.391-5.094-0.296-6.975c0.041-0.965,0.197-1.833,0.264-3.088
				c0.013-0.612-0.006-1.286-0.172-2.036C116.515,157.724,116.19,156.881,115.538,156.13z"/>
			<path style="fill:#231815;" d="M123.738,172.703c-1.279-1.129-1.889-2.392-1.857-3.122c0.022-0.731,0.795-0.951,2.284,0.301
				c2.92,2.506,5.966,3.755,7.448,5.553c1.479,1.797,7.01,7.124,11.357,10.899c2.179,1.877,6.444,6.025,10.505,9.678l1.511,1.329
				c0.404,0.375,1.568,1.267,2.325,1.95c0.719,0.766,0.973,1.278,0.98,2.024c-0.01,0.407-0.216,0.782-0.42,1.026
				c-0.21,0.258-0.467,0.461-0.766,0.641c-0.604,0.355-1.409,0.56-2.185,0.677c-0.763,0.121-1.603,0.181-1.911,0.208
				c-0.757,0.064-1.304,0.1-1.603,0.143c-1.189,0.191-4.809,0.212-8.377,0.037c-3.575-0.159-7.124-0.439-8.275-0.53
				c-2.312-0.157-13.38-1.45-18.723-1.962c-5.346-0.501-11.424-1.353-14.118-1.269c-2.694,0.083-1.383-1.931,0.531-1.773
				c1.914,0.137,15.692,1.116,19.13,1.436c3.438,0.32,8.399,0.76,10.667,1.248c1.135,0.245,4.189,0.572,7.394,0.79
				c3.206,0.223,6.568,0.304,8.295,0.191c0.862-0.054,2.039-0.124,3.374-0.24c0.646-0.057,1.425-0.132,2.051-0.223
				c0.525-0.086,1.021-0.18,1.463-0.34c0.213-0.087,0.445-0.175,0.563-0.388c0.108-0.248-0.143-0.485-0.321-0.63
				c-0.42-0.302-0.766-0.545-1.139-0.851l-0.77-0.654l-0.789-0.703c-0.503-0.461-0.96-0.908-1.361-1.325
				c-3.206-3.331-7.423-6.138-11.087-10.085c-1.832-1.972-5.432-5.146-8.803-7.989C127.742,175.901,124.587,173.435,123.738,172.703
				z"/>
			<path style="fill:#231815;" d="M147.295,202.055c1.107,0.003,1.654,1.708,0.474,1.691c-1.189-0.006-2.118,0.857-2.827,0.663
				c-0.709-0.2-3.076-0.116-4.822,0.224c-0.871,0.164-2.688,0.309-4.363,0.504c-1.676,0.188-3.209,0.429-3.54,0.592
				c-0.327,0.159-1.383,0.388-2.43,0.626c-1.049,0.237-2.086,0.488-2.42,0.576c-0.337,0.084-1.326,0.281-2.408,0.572
				c-1.085,0.286-2.249,0.677-2.971,1.003c-1.453,0.619-3.079,1.407-3.527,2.066c-0.433,0.638-1.18-0.676-0.697-1.064
				c0.232-0.191,1.193-0.964,2.319-1.603c1.113-0.657,2.357-1.198,2.862-1.384c1.011-0.386,2.506-0.836,3.25-0.814
				c0.741-0.014,3.74-0.684,4.764-1.053c1.008-0.407,3.562-1.204,5.016-1.139c1.444,0.054,2.936-0.712,4.624-0.609
				C142.273,202.986,146.557,202.03,147.295,202.055z"/>
			<path style="fill:#231815;" d="M85.391,157.789c1.037-0.219,1.965,0.224,2.325,0.776c0.359,0.553,0.169,1.186-0.938,1.402
				c-2.236,0.449-3.708,2.058-5.085,2.101c-1.387,0.029-5.763,1.256-8.858,2.67c-1.552,0.687-4.834,1.889-7.798,3.184
				c-2.971,1.28-5.62,2.643-6.145,3.09c-0.528,0.444-2.322,1.477-4.071,2.57c-1.759,1.081-3.47,2.225-4.017,2.603
				c-0.55,0.375-2.194,1.418-3.934,2.708c-1.749,1.279-3.575,2.821-4.678,3.91c-2.236,2.142-4.716,4.71-5.368,6.154
				c-0.649,1.425-2.01-0.317-1.323-1.255c0.334-0.461,1.692-2.384,3.32-4.244c1.609-1.873,3.476-3.675,4.259-4.352
				c1.546-1.377,3.921-3.204,5.222-3.745c0.646-0.281,2.182-1.268,3.798-2.282c1.616-1.022,3.311-2.074,4.141-2.7
				c0.83-0.63,2.293-1.665,3.909-2.616c1.612-0.956,3.375-1.822,4.704-2.221c2.643-0.797,5.117-2.713,8.285-3.456
				c1.577-0.372,4.249-1.449,6.749-2.388C82.38,158.748,84.704,157.93,85.391,157.789z"/>
			<path style="fill:#231815;" d="M5.13,229.971c-0.127,0.491-0.442,0.677-0.881,0.676c-0.433,0.005-0.961-0.202-1.422-0.385
				c-0.458-0.176-0.865-0.318-1.062-0.013c-0.184,0.289-0.213,1.105,0.496,2.501c0.712,1.385,1.953,2.926,3.505,4.206
				c1.549,1.298,3.368,2.384,5.159,3.277c3.587,1.778,7.045,2.856,8.406,3.339c0.684,0.237,1.953,0.654,3.629,1.143
				c1.711,0.515,3.893,0.967,6.285,1.224c4.793,0.541,10.438,0.316,15.304-0.162c4.869-0.458,10.543-1.364,15.874-2.482
				c5.33-1.11,10.32-2.404,13.892-3.448c7.13-2.117,8.164-2.659,13.58-4.469c5.413-1.833,2.233-2.449-5.248,0.364
				c-7.487,2.805-16.341,5.057-23.045,6.38c-3.343,0.67-11.379,2.021-19.241,2.252c-3.921,0.129-7.786-0.043-10.912-0.501
				c-1.565-0.224-2.945-0.512-4.071-0.805c-1.113-0.288-2.004-0.592-2.621-0.781c-2.42-0.757-5.114-1.593-7.639-2.632
				c-2.519-1.03-4.879-2.288-6.536-3.705c-1.673-1.414-2.401-2.888-2.722-3.92C5.531,230.98,5.515,230.344,5.13,229.971z"/>
			<path style="fill:#231815;" d="M44.052,223.34c0.595-0.266,1.091-0.261,1.851-0.717c0.763-0.447,1.803-1.271,2.204-1.652
				c0.413-0.364,1.018-1.005,1.231-1.258c0.21-0.248,0.608-0.366,0.888-1.12c0.264-0.754,0.372-0.93,0.754-1.586
				c0.391-0.658,0.814-2.118,1.072-2.921c0.277-0.805,0.518-1.62,0.76-2.87c0.118-0.633-0.684-1.166-0.801-0.463
				c-0.127,0.7-0.175,0.902-0.48,1.244c-0.299,0.343-0.572,1.283-0.506,1.732c0.086,0.466-0.855,1.597-1.094,2.01
				c-0.21,0.437-0.585,1.481-0.887,1.883c-0.302,0.407-0.833,0.821-1.52,2.107c-0.172,0.272-0.41,0.759-1.756,1.689
				c-0.334,0.232-0.938,0.832-1.221,0.969c-0.296,0.161-1.447,0.204-1.861,0.984c-0.245,0.401-0.051,0.471,0.289,0.397
				C43.308,223.697,43.754,223.469,44.052,223.34z"/>
			<path style="fill:#231815;" d="M53.991,221.095c5.028,0.34,10.587,0.596,16.452,0.585c2.929-0.008,5.941-0.084,8.981-0.302
				c3.034-0.229,6.132-0.561,9.096-1.321c0.741-0.193,1.463-0.418,2.157-0.689c0.744-0.296,1.498-0.58,2.255-0.852
				c1.514-0.545,3.05-1.046,4.605-1.49c3.107-0.886,6.291-1.56,9.506-1.9c3.215-0.318,6.479-0.386,9.684,0.389
				c0.798,0.205,1.593,0.472,2.366,0.872c0.789,0.397,1.488,0.991,2.042,1.579c1.132,1.201,1.981,2.519,2.738,3.855
				c1.472,2.692,2.516,5.303,3.053,7.924c0.115,0.67,0.219,1.322,0.127,2.102c-0.029,0.197-0.073,0.41-0.178,0.65
				c-0.105,0.231-0.229,0.394-0.347,0.542c-0.238,0.293-0.483,0.509-0.725,0.715c-0.976,0.797-1.953,1.35-2.897,1.862
				c-1.892,0.999-3.657,1.713-5.264,2.236c-1.612,0.511-3.06,0.849-4.383,0.846c-2.678-0.21-3.994-1.525-4.462-2.131
				c-0.239-0.32-0.299-0.507-0.267-0.483c0.038,0.025,0.169,0.24,0.49,0.564c0.633,0.647,1.666,1.236,3.094,1.477
				c0.712,0.154,1.52,0.081,2.395-0.121c0.875-0.197,1.822-0.51,2.85-0.916c1.027-0.407,2.137-0.906,3.327-1.522
				c1.183-0.62,2.468-1.339,3.721-2.279c0.309-0.235,0.614-0.488,0.881-0.762c0.131-0.137,0.255-0.28,0.337-0.415
				c0.086-0.133,0.108-0.219,0.134-0.405c0.07-0.715-0.121-1.625-0.356-2.506c-0.493-1.786-1.256-3.685-2.255-5.631
				c-1.008-1.926-2.172-3.778-3.648-5.092c-0.719-0.641-1.6-1.026-2.538-1.314c-0.935-0.281-1.905-0.452-2.862-0.557
				c-3.864-0.393-7.557,0.076-10.858,0.711c-3.314,0.655-6.278,1.555-8.873,2.484c-1.317,0.466-2.462,0.943-3.661,1.409
				c-1.202,0.437-2.338,0.725-3.378,0.959c-2.083,0.452-3.435,0.609-4.672,0.743c-1.237,0.122-2.363,0.194-4.01,0.266
				c-3.295,0.107-8.686,0.34-21.185-0.256c-12.496-0.67-19.878-1.724-23.255-2.29c-3.374-0.604-2.751-0.773,0.798-0.467
				c3.552,0.297,8.301,0.571,12.159,0.724C51.024,221.046,53.991,221.093,53.991,221.095z"/>
			<path style="fill:#231815;" d="M39.135,312.975c0.464,0.321,1.574,0.873,2.85,1.353c1.275,0.495,2.71,0.895,3.772,1.21
				c1.075,0.315,1.609,0.014,1.514-0.396c-0.092-0.426-0.757-0.943-2.039-1.404c-2.602-0.935-4.764-2.732-6.345-4.03
				c-1.574-1.316-2.713-1.132-4.415-2.508c-1.673-1.422-1.145-2.783-1.918-4.36c-0.76-1.606-1.03-2.656-1.034-2.654
				c-0.013,0.016-1.892-2.511-2.652-4.1c-0.789-1.562-1.485-3.171-1.883-4.146c-0.401-0.975-0.741-2.719-1.282-4.378
				c-0.56-1.66-1.011-4.446-1.078-6.207c-0.051-0.876-1.126-4.365-1.841-8.072c-0.754-3.696-1.091-7.587-1.027-8.819
				c0.041-1.231,0.073-2.816,0.172-4.359c0.099-1.541,0.267-3.036,0.474-4.074c0.42-2.077,1.294-2.966,2.373-4.421
				c1.116-1.452,0.9-1.778-0.439-4.238c-0.646-1.247-1.546-0.56-2.344,0.797c-0.802,1.349-1.39,3.333-1.66,4.418l-0.169,2.063
				c-0.083,1.121-0.153,2.416-0.261,3.144c-0.251,1.45-0.563,4.745-0.598,6.213c-0.035,0.731-0.083,2.29-0.048,3.939
				c0.029,1.649,0.134,3.387,0.232,4.479c0.092,1.097,0.515,2.893,0.979,4.613c0.455,1.726,0.945,3.378,0.989,4.295
				c0.092,1.841,0.652,2.834,1.253,4.92c0.604,2.112,2.557,4.853,3.123,6.935c0.538,2.122,2.134,5.365,3.212,7.686
				c1.069,2.327,0.973,3.748,1.396,5.34c0.216,0.795,1.425,1.808,2.611,2.524c1.183,0.727,2.319,1.158,2.315,1.159
				c0.003-0.002,0.671,0.65,1.495,1.342C37.682,311.939,38.668,312.659,39.135,312.975z"/>
			<path style="fill:#231815;" d="M114.747,242.386c-0.576-2.458,1.539-4.228,2.102-1.609c0.601,2.63,2.353,4.352,2.528,5.952
				c0.092,0.805,0.544,2.481,1.24,4.391c0.693,1.911,1.635,4.052,2.576,5.825c0.922,1.778,2.668,5.521,4.453,8.939
				c1.768,3.421,3.483,6.56,3.991,7.207c0.515,0.644,1.768,2.81,2.948,5.046c1.189,2.229,2.252,4.561,2.576,5.329
				c0.328,0.765,1.234,3.031,1.946,5.704c0.741,2.662,1.12,5.76,1.104,7.797c0.029,2.037-0.344,4.224-0.903,6.06
				c-0.55,1.845-1.237,3.349-1.552,4.316c-0.687,1.932-2.086,0.116-1.501-1.049c0.299-0.592,1.415-3.147,1.759-5.998
				c0.404-2.845-0.038-5.828-0.255-6.994c-0.359-2.366-1.473-5.655-1.813-7.256c-0.153-0.806-0.919-2.832-1.911-4.864
				c-0.983-2.037-2.15-4.092-2.853-5.093c-1.393-2.002-4.764-6.933-5.966-9.979c-1.202-3.02-3.562-5.807-4.774-9.454
				c-0.608-1.811-2.064-4.888-3.282-7.808C115.93,245.936,114.937,243.192,114.747,242.386z"/>
			<path style="fill:#231815;" d="M7.882,362.73c-0.337-0.14-0.296-0.747-0.312-1.361c-0.016-0.603,0.251-1.215,0.817-1.029
				c1.024,0.366,2.392-0.199,2.827,0.425c0.436,0.603,2.188,1.88,3.597,2.743c0.722,0.418,1.959,1.563,3.041,2.672
				c1.088,1.104,2.039,2.158,2.366,2.296c0.671,0.266,2.84,2.797,3.235,3.301c0.42,0.491,2.115,3.102,3.005,4.293
				c0.903,1.188,1.663,2.737,2.344,3.163c0.681,0.426-1.221,1.399-1.53,0.975c-0.299-0.434-2.802-3.292-3.39-4.026
				c-0.579-0.749-1.428-1.814-1.593-2.493c-0.156-0.685-1.921-2.793-2.783-3.293c-0.852-0.522-2.843-1.794-3.514-2.878
				c-0.674-1.107-2.268-1.377-3.155-2.527c-0.445-0.581-1.596-1.223-2.684-1.632C9.055,362.93,8.082,362.803,7.882,362.73z"/>
			<path style="fill:#231815;" d="M35.09,309.407c0.862-0.576,1.876-0.488,2.401-0.099c0.525,0.391,0.585,1.043-0.331,1.627
				c-1.845,1.196-2.535,3.212-3.747,3.75c-1.231,0.526-4.65,3.269-6.822,5.726c-1.097,1.212-3.514,3.549-5.582,5.877
				c-2.083,2.311-3.801,4.6-4.055,5.21c-0.264,0.608-1.368,2.257-2.373,3.95c-1.018,1.687-1.921,3.424-2.201,3.991
				c-0.283,0.566-1.167,2.193-1.943,4.093c-0.789,1.896-1.425,4.069-1.673,5.512c-0.264,1.438-0.493,2.988-0.56,4.368
				c-0.073,1.38,0.013,2.586,0.242,3.292c0.471,1.393-1.705,1.092-1.822-0.035c-0.06-0.549-0.315-2.821-0.162-5.217
				c0.121-2.396,0.645-4.869,0.925-5.833c0.512-1.945,1.59-4.656,2.436-5.726c0.41-0.544,1.237-2.099,2.16-3.697
				c0.913-1.603,1.911-3.25,2.357-4.154c0.439-0.905,1.263-2.435,2.274-3.942c1.008-1.511,2.201-2.994,3.212-3.879
				c2.01-1.759,3.419-4.453,5.951-6.334c1.256-0.938,3.209-2.926,5.085-4.713C32.724,311.38,34.518,309.785,35.09,309.407z"/>
			<path style="fill:#231815;" d="M35.007,355.595c-0.589,0.218-1.53,0.281-2.134,0.043c-0.27-0.149-0.55-0.296-0.55-0.625
				c-0.009-0.305,0.204-0.74,0.795-1.137c0.592-0.388,1.196-0.738,1.876-0.953c0.678-0.219,1.441-0.264,2.131-0.115
				c1.399,0.312,2.373,1.15,2.77,1.97c0.429,0.838,1.218,2.528,1.826,4.53c0.627,1.997,1.161,4.295,1.616,6.264
				c0.232,0.986,0.477,2.511,0.674,4.266l0.073,0.669l0.025,0.468l0.003,0.323c0.016,0.432,0.035,0.875,0.07,1.323
				c0.064,0.897,0.175,1.814,0.309,2.719c0.572,3.607,1.472,7.008,1.759,7.767c0.299,0.755,0.979,3.141,1.193,5.831
				c0.102,1.341,0.038,2.773-0.251,3.988c-0.273,1.217-0.757,2.16-1.011,2.59c-0.251,0.436-0.821,1.283-1.759,2.101
				c-0.929,0.828-2.194,1.565-3.537,2.091c-1.406,0.561-2.786,0.841-4.033,1.124c-1.253,0.27-2.379,0.51-3.25,0.733
				c-1.737,0.439-3.562,0.914-4.911,1.601c-1.38,0.669-2.074,1.574-2.115,2.15c-0.051,0.544-0.471,0.669-0.957,0.507
				c-0.471-0.151-0.916-0.805-0.604-1.447c0.14-0.304,0.566-1.094,1.45-1.832c0.868-0.747,2.134-1.415,3.473-1.932
				c2.687-1.026,5.601-1.651,6.733-1.959c1.142-0.286,2.529-0.628,3.715-1.158c1.209-0.51,2.223-1.167,2.866-1.619
				c0.324-0.219,0.868-0.712,1.336-1.492c0.474-0.771,0.83-1.824,0.957-2.927c0.264-2.225-0.245-4.519-0.588-5.645
				c-0.353-1.139-1.024-3.064-1.647-5.125c-0.623-2.056-1.132-4.284-1.18-5.908c-0.029-0.808-0.108-1.625-0.191-2.465l-0.121-1.279
				l-0.016-0.157l-0.019-0.088l-0.057-0.31l-0.118-0.625c-0.328-1.673-0.7-3.387-0.865-5.192c-0.169-1.779-1.037-5.025-2.522-7.34
				c-0.369-0.566-0.773-1.056-1.167-1.393c-0.391-0.344-0.76-0.51-1.018-0.552C35.548,355.309,35.23,355.52,35.007,355.595z"/>
			<path style="fill:#231815;" d="M92.051,320.092c0.932,1.795,2.277,3.983,3.95,6.27c1.67,2.291,3.661,4.681,5.763,6.96
				c4.188,4.572,8.81,8.665,11.739,11.235c2.926,2.576,5.528,4.545,7.945,6.189c2.421,1.643,4.656,2.969,6.943,4.163
				c1.145,0.593,2.528,1.25,4.087,1.848c0.779,0.299,1.6,0.584,2.449,0.827l0.661,0.178c0.191,0.046,0.375,0.099,0.544,0.196
				l0.375,0.18c0.451,0.218,0.906,0.445,1.367,0.693c0.916,0.488,1.867,1.07,2.751,1.752c0.891,0.687,1.638,1.368,2.401,1.964
				c1.514,1.204,3.187,2.269,4.837,3.277c3.32,1.989,4.503,2.92,4.319,3.25c-0.172,0.316-1.67-0.018-3.482-0.828
				c-1.807-0.818-4.332-2.07-6.596-3.664c-1.135-0.793-2.156-1.698-3.091-2.365c-0.938-0.676-1.845-1.174-2.544-1.566l-0.668-0.359
				c-0.264-0.127-0.608-0.337-0.827-0.398c-0.751-0.21-1.701-0.526-2.694-0.918c-2.007-0.782-4.316-1.905-6.529-3.139
				c-4.44-2.459-8.489-5.359-9.56-6.135c-1.078-0.773-4.208-2.953-7.312-5.453c-3.123-2.479-6.195-5.292-7.592-6.72
				c-1.406-1.422-3.085-3.503-4.809-5.641c-1.733-2.139-3.499-4.33-5.312-5.973c-1.819-1.652-2.49-2.705-2.719-3.557
				c-0.219-0.864,0.006-1.563,0.149-2.74c0.143-1.178,0.595-2.043,1.177-2.104C90.381,317.452,91.056,318.161,92.051,320.092z"/>
			<path style="fill:#231815;" d="M132.808,310.93c-0.331-0.401-0.213-1.054-0.019-1.654c0.111-0.293,0.27-0.549,0.509-0.658
				c0.235-0.11,0.566-0.062,0.884,0.248c0.623,0.612,1.301,1.086,1.892,1.566c0.588,0.477,1.065,0.946,1.145,1.484
				c0.083,0.539,0.442,1.59,0.862,2.792c0.426,1.201,0.938,2.554,1.46,3.665c0.264,0.555,0.588,1.43,0.967,2.403
				c0.191,0.485,0.394,0.997,0.617,1.498c0.111,0.256,0.223,0.49,0.35,0.751c0.057,0.097,0.124,0.294,0.14,0.332l0.079,0.203
				l0.153,0.406c0.83,2.156,1.721,4.098,2.058,4.472c0.337,0.377,1.034,1.687,1.743,2.996l1.648,3.047
				c0.439,0.856,2.516,5.09,3.696,7.064c1.164,1.972,2.236,4.394,3.069,5.246c0.84,0.852-1.244,1.468-1.647,0.76
				c-0.401-0.715-3.658-5.639-4.402-6.916c-0.747-1.272-1.806-3.129-2.016-4.138c-0.235-0.999-2.22-4.751-3.104-5.966
				c-0.925-1.183-2.951-4.286-3.352-6.269l-0.041-0.176l-0.032-0.119l-0.153-0.359c-0.105-0.238-0.219-0.474-0.337-0.709
				l-0.76-1.427c-0.515-0.968-1.008-1.989-1.221-3.126c-0.216-1.132-1.043-3.025-1.975-4.581c-0.461-0.779-0.954-1.46-1.364-1.937
				C133.241,311.342,132.923,311.067,132.808,310.93z"/>
			<path style="fill:#231815;" d="M154.13,350.444c-0.277-0.13-0.464-0.345-0.649-0.609c-0.178-0.261-0.353-0.571-0.451-0.873
				c-0.099-0.305-0.111-0.607,0.076-0.829c0.181-0.219,0.585-0.361,1.174-0.202c1.154,0.321,2.204,0.735,3.101,1.225
				c0.89,0.491,1.603,1.054,1.889,1.725c0.296,0.673,1.027,1.993,1.781,3.541c0.763,1.544,1.587,3.317,2.379,4.745
				c0.413,0.715,0.903,1.832,1.632,2.896c0.792,1.217,1.663,2.579,2.57,3.702c0.223,0.275,0.448,0.526,0.655,0.722
				c0.216,0.202,0.369,0.315,0.579,0.425c0.2,0.108,0.63,0.286,1.018,0.528c0.391,0.237,0.715,0.495,0.986,0.731
				c1.062,0.957,1.622,1.67,1.914,1.894c0.277,0.224,0.76,0.747,1.307,1.428l0.21,0.263l0.108,0.135l0.032,0.032l0.016,0.008
				l0.143,0.14l0.293,0.296c0.388,0.412,0.795,0.89,1.158,1.482c0.366,0.582,0.671,1.318,0.798,2.051
				c0.13,0.732,0.099,1.388,0.051,1.897c-0.111,1.019-0.248,1.632-0.296,1.956c-0.051,0.318-0.172,0.911-0.277,1.663
				c-0.054,0.377-0.105,0.797-0.14,1.245c-0.016,0.239-0.032,0.425-0.041,0.728c-0.006,0.124,0.003,0.25-0.032,0.374l-0.057,0.291
				l-0.089,0.417c-0.49,2.255-1.434,4.589-1.845,5.952c-0.442,1.401-0.677,2.618-0.432,3.755c0.226,1.143,0.808,2.168,1.291,2.684
				c1.011,1.016-1.065,1.724-1.66,0.744c-0.14-0.24-0.522-0.84-0.906-1.705c-0.385-0.859-0.732-2.032-0.706-3.276
				c0.016-1.239,0.353-2.454,0.639-3.454l0.687-2.291c0.286-0.937,0.582-2.09,0.811-3.176c0.025-0.148,0.064-0.24,0.06-0.353
				l0.025-0.404c0.022-0.272,0.051-0.531,0.086-0.776c0.07-0.49,0.169-0.914,0.283-1.235c0.111-0.321,0.248-0.915,0.413-1.651
				c0.153-0.735,0.378-1.619,0.343-2.56c-0.019-0.952-0.493-1.848-1.031-2.479c-0.525-0.646-1.148-1.085-1.46-1.478
				c-0.706-0.687-1.895-1.992-3.215-2.996c-0.334-0.243-0.649-0.422-1.011-0.569c-0.362-0.142-0.913-0.385-1.31-0.709
				c-0.795-0.638-1.269-1.321-1.628-1.908c-0.687-1.175-1.571-2.266-2.455-3.389c-0.976-1.244-1.679-2.602-2.166-4.069
				c-0.48-1.465-1.743-3.929-3.212-5.817c-0.728-0.943-1.508-1.713-2.147-2.161C154.779,350.684,154.311,350.535,154.13,350.444z"/>
			<line style="fill:#231815;" x1="102.101" y1="162.563" x2="108.64" y2="168.559"/>
			<path style="fill:#231815;" d="M101.004,164.218c-0.216-0.199,1.294-2.086,1.536-1.867c0.242,0.221,1.25-0.493,1.19-0.137
				c-0.061,0.355,0.423,0.795,0.986,0.905c0.566,0.108,1.495,1.367,1.841,1.277c0.35-0.089,1.094,0.595,1.24,0.728
				c0.143,0.132,0.639,0.994,0.976,1.304c0.337,0.308,0.519,0.884,0.891,0.816c0.372-0.068-1.129,1.423-1.247,1.312
				c-0.121-0.11-1.193-0.682-1.409-0.881c-0.216-0.199-0.528-0.486-0.471-0.84c0.061-0.355-0.566-0.929-0.986-0.906
				c-0.423,0.024-1.358-0.016-1.444-0.502c-0.083-0.488-1.008-0.108-1.142-0.639C102.833,164.256,101.15,164.352,101.004,164.218z"
				/>
			<path style="fill:#231815;" d="M128.143,163.782c0.2-0.025,0.28-0.032,0.401-0.04c0.108-0.006,0.223-0.006,0.331,0.008
				c0.226,0.009,0.429,0.167,0.474,0.388c0.029,0.105,0.044,0.213,0.054,0.318l0.022,0.359l0.057,1.053
				c0.07,1.391,0.194,2.611,0.178,3.43c-0.06,1.666,0.967,3.845,2.608,2.989c1.32-0.684,0.611-2.673-0.064-3.517
				c-0.356-0.42-0.97-1.744-1.333-3.316l-0.28-1.288c-0.118-0.493-0.264-0.975-0.649-1.25c-0.391-0.259-0.855-0.247-1.25-0.234
				c-0.42,0.024-0.732,0.064-0.992,0.084c-2.16,0.173-4.246,0.825-5.973,1.52c-0.871,0.353-1.174,1.255-0.932,1.783
				c0.242,0.533,0.855,0.735,1.953-0.075c1.116-0.798,1.829-1.183,2.557-1.49C126.04,164.215,126.803,163.97,128.143,163.782z"/>
			<path style="fill:#231815;" d="M139.98,239.099c0.671,0.546,0.159,1.983-0.607,1.372c-0.766-0.617-1.829-0.56-2.163-1.061
				c-0.169-0.25-0.63-0.685-1.212-1.089c-0.576-0.405-1.304-0.747-1.86-0.747c-0.28-0.006-0.655-0.003-1.097,0.173
				c-0.445,0.167-0.961,0.526-1.431,0.956c-0.941,0.865-1.692,1.905-1.794,2.177c-0.194,0.561-2.007,3.014-2.354,3.481
				c-0.175,0.237-0.722,0.898-1.323,1.638l-0.913,1.126c-0.305,0.37-0.468,0.609-0.576,0.852c-0.471,0.921-0.48,2.358-0.175,2.975
				c0.299,0.633-0.999,0.576-1.084,0.089c-0.032-0.239-0.289-1.237-0.169-2.331c0.057-0.542,0.219-1.094,0.442-1.53
				c0.229-0.452,0.471-0.747,0.595-0.927c0.525-0.708,1.282-1.73,1.778-2.094c0.493-0.366,2.007-2.411,2.385-3.227
				c0.353-0.808,1.415-2.802,2.535-3.462c0.534-0.324,1.008-0.777,1.686-1.107c0.658-0.34,1.59-0.425,2.319-0.068
				C136.459,236.911,139.506,238.783,139.98,239.099z"/>
			<path style="fill:#231815;" d="M131.727,243.45c0.325-0.396,1.247,0.005,0.887,0.441c-0.359,0.436-0.274,1.091-0.585,1.277
				c-0.309,0.185-1.027,1.057-1.473,1.787c-0.445,0.732-2.229,2.705-2.354,3.044c-0.121,0.337-1.237,1.69-1.453,1.951
				c-0.108,0.132-0.445,0.495-0.817,0.9l-0.121,0.129l-0.07,0.094c-0.06,0.087-0.102,0.172-0.134,0.253
				c-0.07,0.162-0.083,0.304-0.07,0.426c0.025,0.463,0.493,1.331,0.763,1.716c0.289,0.407-0.585,0.469-0.687,0.235
				c-0.041-0.137-0.366-0.606-0.658-1.159c-0.14-0.28-0.245-0.606-0.251-0.902c-0.009-0.296,0.061-0.537,0.108-0.665
				c0.048-0.132,0.118-0.267,0.197-0.401c0.083-0.148,0.204-0.259,0.293-0.364c0.197-0.213,0.391-0.401,0.544-0.494
				c0.309-0.185,1.244-1.318,1.476-1.788c0.229-0.469,0.836-1.582,1.358-2.029c0.525-0.447,0.716-1.244,1.31-1.778
				C130.588,245.589,131.51,243.712,131.727,243.45z"/>
			<path style="fill:#231815;" d="M134.917,249.882c0.359-0.238,1.072,0.445,0.693,0.7c-0.382,0.253-0.397,0.859-0.687,0.918
				c-0.293,0.059-1.024,0.601-1.479,1.121c-0.464,0.504-2.156,1.805-2.274,2.088c-0.124,0.267-1.151,1.224-1.342,1.417l-0.735,0.638
				l-0.248,0.221l-0.178,0.183c-0.121,0.138-0.216,0.278-0.28,0.393c-0.277,0.453-0.398,0.968-0.197,1.091
				c0.175,0.098-0.598,0.46-0.7,0.197c-0.045-0.105-0.175-0.608-0.029-1.116c0.127-0.507,0.42-0.968,0.553-1.137
				c0.286-0.348,0.716-0.738,0.996-0.852c0.28-0.11,1.142-0.929,1.371-1.294c0.219-0.369,0.821-1.224,1.326-1.49
				c0.496-0.266,0.731-0.927,1.317-1.237C133.597,251.411,134.669,250.037,134.917,249.882z"/>
			<path style="fill:#231815;" d="M136.103,258.28c0.283-0.142,0.82,0.676,0.547,0.806c-0.28,0.137-0.251,0.677-0.461,0.66
				c-0.219-0.017-0.719,0.313-1.104,0.668c-0.184,0.177-0.7,0.429-1.208,0.536c-0.503,0.115-0.954,0.124-1.056,0.189
				c-0.207,0.146-1.247,0.092-1.434,0.059c-0.201-0.013-1.11-0.258-1.546-0.339c-0.439-0.076-0.91-0.293-1.148-0.219
				c-0.242,0.073,0.025-0.735,0.175-0.703c0.153,0.035,1.272,0.124,1.546,0.161c0.277,0.044,0.671,0.097,0.84,0.238
				c0.172,0.146,0.989,0.213,1.266,0.083c0.293-0.111,0.906-0.396,1.253-0.375c0.385,0.027,0.573-0.448,0.973-0.545
				C135.143,259.395,135.893,258.361,136.103,258.28z"/>
			<path style="fill:#231815;" d="M144.779,245.64c-0.833-1.385-1.11-2.234-0.932-2.498c0.162-0.224,0.579,0.067,1.12,0.908
				c1.062,1.69,2.045,3.608,2.366,6.044c0.153,1.217,0.035,1.921-0.121,2.214c-0.165,0.297-0.385,0.194-0.661-0.137
				c-0.576-0.655-0.522-0.953-0.766-2.506c-0.134-0.771-0.331-1.779-0.56-2.592C144.999,246.26,144.776,245.641,144.779,245.64z"/>
			<path style="fill:#231815;" d="M145.829,254.683c0.162-0.927,0.84-0.867,0.884,0.175c0.013,1.045-0.569,1.954-1.212,3.483
				c-0.337,0.768-0.553,0.749-0.477,0.11C145.081,257.803,145.444,256.55,145.829,254.683z"/>
			<path style="fill:#231815;" d="M124.195,209.186c1.027,0.356,1.838,0.765,2.723,1.221l3.152,1.617
				c1.307,0.666,1.975,1.161,2.506,1.595l1.622,1.411c0.697,0.59,0.964,0.838,1.279,1.172c0.305,0.336,0.674,0.751,1.444,1.759
				c1.46,2.045,0.022-0.013,1.167,1.347c0.547,0.69,0.967,1.121,1.221,1.369l0.162,0.149l0.102,0.073l0.073,0.092
				c0.223-0.188,0.229-0.579,0.236-0.94c-0.003-0.367-0.035-0.738-0.083-1.105c-0.913-1.111-1.921-2.059-2.971-2.963
				c0,0.002-0.623-0.706-1.434-1.496c-0.811-0.793-1.816-1.657-2.43-2.101c-1.205-0.902-3.009-2.327-4.039-2.853
				c-1.018-0.558-3.307-1.049-5.108-1.579c-0.91-0.274-1.342-0.094-1.269,0.192C122.621,208.442,123.168,208.841,124.195,209.186z"
				/>
			<path style="fill:#231815;" d="M143.691,225.002c1.797,1.854,3.18,3.506,4.691,5.319c1.504,1.821,3.155,3.785,5.283,6.459
				c2.109,2.691,2.986,4.415,3.572,5.863c0.286,0.728,0.493,1.399,0.655,2.126c0.156,0.725,0.293,1.519,0.242,2.441
				c-0.013,0.229-0.044,0.434-0.079,0.623l-0.134,0.619c-0.092,0.382-0.169,0.709-0.251,1.002c-0.153,0.585-0.302,1.034-0.48,1.527
				c-0.185,0.488-0.401,1.022-0.754,1.74c-0.359,0.711-0.837,1.633-1.679,2.726c-0.852,1.08-1.383,1.457-1.606,1.654
				c-0.232,0.191-0.194,0.161-0.105,0.122c0.083-0.043,0.21-0.11,0.146-0.009c-0.067,0.095-0.312,0.399-1.078,0.894
				c-1.546,0.943-2.831,1.167-3.696,1.315c-0.865,0.129-1.304,0.156-1.275,0.172c1.069,0.873,2.713,1.414,4.437,1.377
				c1.714-0.647,3.12-1.843,4.154-3.198c1.046-1.359,1.775-2.875,2.335-4.413c0.003,0.005,0.96-2.034,1.612-4.621l0.127-0.487
				c0.038-0.176,0.079-0.38,0.111-0.569c0.054-0.386,0.083-0.778,0.073-1.159c-0.01-0.768-0.127-1.507-0.29-2.193
				c-0.324-1.369-0.817-2.525-1.209-3.339c-1.527-3.279-4.395-7.76-6.081-9.801c-1.657-2.08-5.725-5.477-8.81-8.535
				c-1.543-1.541-2.465-1.84-2.493-1.329C141.071,221.839,141.888,223.154,143.691,225.002z"/>
			<path style="fill:#231815;" d="M36.149,354.825c2.503-1.174,4.583-2.166,6.797-3.4c2.207-1.24,4.548-2.729,7.391-5.057
				c2.834-2.339,4.418-3.641,5.788-4.677c1.358-1.046,2.484-1.841,4.195-3.358c1.708-1.523,2.372-2.153,3.244-2.894
				c0.868-0.747,1.953-1.596,4.37-3.719c4.783-4.313,0.019,0.017,3.164-3.32c3.114-3.387,3.527-5.443,3.537-5.439
				c-1.447,0.8-2.901,1.522-4.36,2.228c-2.093,2.555-4.281,5.044-6.549,7.461c-0.003-0.001-1.695,1.496-3.778,3.227
				c-2.08,1.737-4.561,3.678-5.963,4.801c-2.786,2.292-7.429,5.049-9.694,6.458c-1.123,0.724-2.703,1.977-4.548,3.263
				c-1.838,1.286-3.95,2.598-6.011,3.487c-2.058,0.878-2.751,1.596-2.268,1.916C31.938,356.11,33.63,355.991,36.149,354.825z"/>
			<path style="fill:#231815;" d="M66.032,318.94c-0.356-0.412-0.137-1.143,0.289-1.592c0.207-0.24,0.477-0.374,0.706-0.439
				c0.235-0.06,0.439-0.03,0.588,0.158c0.633,0.784,2.032,0.429,2.233,1.01c0.197,0.607,1.759,1.797,3.174,2.19
				c0.693,0.215,2.013,0.851,3.317,1.293c1.294,0.451,2.544,0.733,2.856,0.644c0.312-0.083,1.189,0.024,2.067,0.11
				c0.878,0.089,1.759,0.172,2.048,0.191c0.286,0.025,1.116,0.156,2.061,0.251c0.941,0.097,1.994,0.145,2.678,0.111
				c1.361-0.061,2.964,0.073,3.61-0.32c0.642-0.385,0.639,1.745,0.127,1.808c-0.251,0.035-1.279,0.232-2.369,0.391
				c-1.091,0.161-2.242,0.272-2.703,0.275c-0.926,0.019-2.265-0.021-2.859-0.364c-0.601-0.307-3.193-0.593-4.15-0.501
				c-0.941,0.154-3.349,0.169-4.44-0.579c-1.049-0.701-2.688-0.429-3.861-1.452c-0.572-0.498-1.807-1.016-2.948-1.622
				C67.311,319.917,66.264,319.22,66.032,318.94z"/>
			<path style="fill:#231815;" d="M27.88,381.111c0.423-0.355,0.945-0.402,1.32-0.294c0.372,0.103,0.572,0.485,0.044,1.013
				c-1.043,0.983-1.689,2.172-2.535,2.466c-0.84,0.305-3.384,1.576-5.238,2.618c-0.926,0.529-2.913,1.434-4.72,2.314
				c-1.813,0.875-3.432,1.756-3.75,2.04c-0.321,0.281-1.415,0.948-2.471,1.652c-1.062,0.698-2.074,1.446-2.395,1.697
				c-0.321,0.248-1.294,0.934-2.245,1.816c-0.964,0.87-1.845,1.969-2.226,2.749c-0.404,0.771-0.687,1.628-0.684,2.381
				c-0.01,0.75,0.267,1.367,0.538,1.625c0.137,0.13,0.165,0.234,0.127,0.336c-0.038,0.097-0.156,0.178-0.261,0.28
				c-0.226,0.192-0.68,0.153-0.862-0.167c-0.086-0.156-0.324-0.558-0.477-1.153c-0.156-0.59-0.2-1.372-0.051-2.142
				c0.283-1.562,1.253-2.936,1.644-3.433c0.786-1.038,2.172-2.296,2.951-2.683c0.385-0.202,1.298-0.865,2.271-1.53
				c0.973-0.671,2.004-1.347,2.509-1.746c0.989-0.818,3.597-2.592,5.216-3.152c1.606-0.574,3.05-1.827,4.914-2.497
				c0.929-0.334,2.468-1.204,3.785-2.101C26.624,382.31,27.619,381.354,27.88,381.111z"/>
			<path style="fill:#231815;" d="M94.414,232.273c-1.215-0.358-2.891-0.019-2.274,1.223c0.63,1.24,0.938,2.001,2.08,2.341
				c1.148,0.331,0.973-0.383,2.481-0.577c0.744-0.135,4.713,0.367,8.934-0.28c2.09-0.323,4.236-1.024,5.741-2.16
				c0.766-0.546,1.307-1.218,1.816-1.775c0.502-0.563,0.916-1.045,1.209-1.418c2.344-2.99-0.617,0.401-1.549,1.1
				c-0.245,0.158-0.833,0.749-1.616,1.242c-0.805,0.517-1.937,0.98-3.161,1.247c-2.452,0.563-5.162,0.385-6.052,0.3
				c-1.794-0.14-4.761-0.216-5.865-0.537C95.06,232.67,94.414,232.271,94.414,232.273z"/>
			<path style="fill:#231815;" d="M115.907,229.172c0.283,0.251,1.228-1.198,0.849-1.646c-0.382-0.456-1.059,0.17-1.676-0.165
				c-0.617-0.336-1.037-0.934-1.418-1.266c-0.369-0.326-1.511,1.843-0.27,1.589c0.661-0.137,0.572,0.186,1.272,0.444
				C115.227,228.332,115.535,228.847,115.907,229.172z"/>
			<path style="fill:#231815;" d="M115.249,220.98c-0.439,0.049-0.872,0.291-1.062,0.525c-0.194,0.238-0.178,0.433,0.14,0.506
				c0.63,0.165,0.884,0.355,1.361,0.337c0.471,0.051,0.337-0.27,1.059-0.256c0.175,0.014,0.751,0.185,1.387,0.725
				c0.63,0.531,1.31,1.417,1.651,2.481c0.391,2.233,1.25,4.542,1.663,5.467c0.862,1.854-0.082-0.382-0.207-1
				c-0.06-0.305-0.445-1.668-0.687-3.08c-0.06-0.362-0.099-0.685-0.134-1.061c-0.051-0.402-0.156-0.763-0.274-1.083
				c-0.235-0.639-0.528-1.107-0.677-1.342c-0.299-0.468-0.805-1.016-1.393-1.398c-0.582-0.394-1.228-0.588-1.59-0.669
				C115.758,220.958,115.246,220.992,115.249,220.98z"/>
			<path style="fill:#231815;" d="M123.022,241.54c0.601,0.029,0.627,1.736,0.149,1.697c-0.521-0.029-0.795,0.851-1.021,0.682
				c-0.127-0.081-0.404-0.079-0.642,0.049c-0.245,0.121-0.426,0.367-0.461,0.619c-0.041,0.235-0.219,0.709-0.207,1.302
				c0.003,0.58,0.149,1.153,0.286,1.242c0.07,0.048,0.143,0.161,0.223,0.302c0.089,0.172,0.194,0.423,0.28,0.65
				c0.172,0.469,0.299,0.93,0.343,1.077c0.086,0.304,0.27,1.764,0.515,2.307c0.118,0.278,0.21,0.568,0.309,0.736
				c0.102,0.175,0.156,0.194,0.229,0.111c0.092-0.196-0.229,1.259-0.569,1.132c-0.13-0.033-0.633-0.355-0.945-0.851
				c-0.331-0.48-0.566-1.026-0.646-1.245c-0.153-0.447-0.337-1.089-0.216-1.442c0.121-0.348-0.245-1.636-0.604-1.997
				c-0.178-0.184-0.451-0.533-0.633-0.956c-0.191-0.415-0.27-0.91-0.153-1.25c0.118-0.337,0.051-0.69,0.064-1.107
				c0.009-0.404,0.114-0.895,0.502-1.201c0.356-0.307,0.929-0.934,1.641-1.298C122.154,241.725,122.841,241.535,123.022,241.54z"/>
			<path style="fill:#231815;" d="M34.724,389.024c0.859-0.429,2.026,0.585,1.04,1.097c-0.986,0.499-1.482,1.527-2.163,1.643
				c-0.677,0.119-2.687,1.026-4.087,1.899c-0.7,0.436-2.217,1.175-3.575,1.934c-1.364,0.749-2.56,1.53-2.773,1.784
				c-0.219,0.253-1.015,0.841-1.771,1.462c-0.763,0.614-1.482,1.266-1.711,1.48c-0.235,0.212-0.929,0.811-1.635,1.547
				c-0.709,0.736-1.406,1.62-1.791,2.242c-0.792,1.218-1.616,2.698-1.673,3.457c-0.06,0.743-1.17,0.072-0.989-0.463
				c0.092-0.261,0.442-1.344,0.97-2.422c0.515-1.081,1.205-2.139,1.511-2.536c0.595-0.811,1.577-1.889,2.185-2.22
				c0.299-0.17,0.964-0.747,1.673-1.333c0.706-0.593,1.453-1.197,1.81-1.557c0.687-0.738,2.592-2.347,3.864-2.81
				c1.25-0.477,2.296-1.609,3.781-2.11C30.873,391.618,34.177,389.324,34.724,389.024z"/>
			<path style="fill:#231815;" d="M26.741,387.739c0.776-0.369,1.768,0.779,0.951,1.151c-0.821,0.385-1.129,1.358-1.682,1.444
				c-0.56,0.081-2.14,0.946-3.181,1.808c-0.522,0.424-1.686,1.166-2.716,1.913c-1.04,0.74-1.94,1.485-2.083,1.725
				c-0.143,0.239-0.728,0.797-1.291,1.367c-0.566,0.569-1.1,1.155-1.272,1.347c-0.169,0.192-0.697,0.725-1.215,1.371
				c-0.518,0.641-1.011,1.402-1.25,1.93c-0.519,1.03-0.964,2.29-0.814,2.87c0.146,0.56-1.11,0.294-1.072-0.185
				c0.016-0.227,0.092-1.17,0.382-2.123c0.28-0.954,0.751-1.891,0.967-2.244c0.42-0.719,1.145-1.679,1.641-1.978
				c0.242-0.153,0.747-0.671,1.279-1.21c0.528-0.541,1.081-1.107,1.329-1.445c0.477-0.687,1.841-2.233,2.856-2.71
				c0.995-0.482,1.695-1.59,2.894-2.102C23.628,390.14,26.21,387.962,26.741,387.739z"/>
			<path style="fill:#231815;" d="M15.403,390.98c0.744-0.313,1.647,0.894,0.878,1.201c-0.77,0.323-1.062,1.261-1.578,1.31
				c-0.525,0.045-2,0.8-2.942,1.603c-0.477,0.394-1.53,1.076-2.423,1.8c-0.903,0.715-1.612,1.476-1.692,1.709
				c-0.086,0.232-0.515,0.794-0.836,1.377l-0.859,1.536c-0.264,0.426-1.53,2.47-2.357,3.537c-0.391,0.525-1.002,1.067-1.638,1.382
				c-0.633,0.325-1.196,0.445-1.508,0.601c-0.646,0.293-0.509-1.008-0.127-1.081c0.194-0.038,1.043-0.264,1.657-0.881
				c0.62-0.598,1.056-1.43,1.256-1.74c0.391-0.631,0.919-1.582,1.323-1.93c0.42-0.347,1.428-2.258,1.791-2.94
				c0.159-0.356,0.49-0.949,0.929-1.501c0.439-0.553,0.976-1.061,1.438-1.306c0.91-0.48,1.523-1.555,2.656-2.018
				c0.557-0.231,1.415-0.867,2.226-1.445C14.405,391.611,15.165,391.082,15.403,390.98z"/>
			<path style="fill:#231815;" d="M28.306,394.723c0.372-0.439,1.657,0.283,1.272,0.741c-0.391,0.461-0.115,1.285-0.471,1.45
				c-0.362,0.168-1.069,1.127-1.406,1.973c-0.347,0.819-1.956,3.147-2.016,3.565c-0.022,0.41-1.135,2.036-1.403,2.33
				c-0.223,0.321-1.609,1.608-2.318,2.16c-0.681,0.596-1.616,1.032-1.886,1.42c-0.274,0.399-0.792-0.776-0.547-0.938
				c0.127-0.081,0.611-0.466,1.091-0.897c0.48-0.429,0.938-0.919,1.132-1.104c0.388-0.366,0.903-0.935,1.269-1.1
				c0.385-0.148,1.323-1.431,1.45-1.993c0.149-0.552,0.528-1.867,1.065-2.395c0.531-0.523,0.493-1.487,1.129-2.104
				C27.266,397.218,28.042,395.013,28.306,394.723z"/>
			<path style="fill:#231815;" d="M152.546,374.774c-0.006-0.274,0.296-0.55,0.627-0.732c0.327-0.173,0.719-0.169,0.789,0.302
				c0.115,0.873,0.652,1.794,0.305,2.328c-0.165,0.258-0.41,0.822-0.722,1.452l-0.976,1.945c-0.579,1.272-3.279,4.38-3.419,4.896
				c-0.08,0.261-0.519,0.921-0.938,1.574c-0.423,0.65-0.808,1.301-0.925,1.512c-0.118,0.213-0.509,0.808-0.83,1.5
				c-0.328,0.689-0.541,1.474-0.56,1.98c-0.032,0.506-0.019,1.038,0.099,1.503c0.111,0.461,0.315,0.845,0.518,1.019
				c0.423,0.331-0.738,0.875-0.979,0.474c-0.111-0.186-0.598-0.976-0.77-1.941c-0.197-0.959-0.041-1.991,0.06-2.379
				c0.178-0.793,0.655-1.865,1.069-2.241c0.366-0.407,1.581-2.291,1.921-3.02c0.309-0.746,1.206-2.49,1.981-3.203
				c0.776-0.722,1.015-1.937,1.794-2.829c0.394-0.447,0.824-1.442,0.973-2.344C152.733,375.657,152.562,374.951,152.546,374.774z"/>
			<path style="fill:#231815;" d="M166.298,382.016c0.477-0.439,1.682,0.429,1.183,0.879c-0.503,0.46-0.378,1.35-0.779,1.501
				c-0.413,0.149-1.333,1.127-1.794,2.018c-0.235,0.44-0.843,1.25-1.317,2.048c-0.484,0.792-0.833,1.566-0.827,1.778
				c0.006,0.21-0.178,0.76-0.324,1.312c-0.15,0.55-0.258,1.1-0.286,1.279c-0.032,0.176-0.162,0.69-0.216,1.272
				c-0.06,0.58-0.029,1.225,0.064,1.627c0.153,0.8,0.429,1.74,0.821,1.98c0.372,0.226-0.747,0.841-0.948,0.536
				c-0.092-0.143-0.503-0.727-0.789-1.426c-0.292-0.693-0.448-1.479-0.471-1.794c-0.07-0.63-0.022-1.552,0.219-1.937
				c0.115-0.194,0.236-0.724,0.382-1.271c0.137-0.55,0.293-1.124,0.321-1.444c0.025-0.638,0.394-2.203,1.014-2.815
				c0.589-0.603,0.674-1.66,1.441-2.315c0.375-0.323,0.84-1.067,1.288-1.757C165.725,382.797,166.142,382.159,166.298,382.016z"/>
			<path style="fill:#231815;" d="M158.499,382.048c0.255-0.25,0.712-0.164,1.008,0.06c0.296,0.231,0.442,0.568,0.2,0.789
				c-0.512,0.477-0.318,1.361-0.696,1.542c-0.398,0.177-1.193,1.287-1.431,2.26c-0.137,0.475-0.509,1.403-0.69,2.309
				c-0.197,0.902-0.203,1.757-0.114,1.946c0.092,0.193,0.146,0.771,0.251,1.344c0.098,0.574,0.238,1.143,0.292,1.326
				c0.048,0.184,0.159,0.733,0.347,1.337c0.188,0.604,0.461,1.26,0.684,1.665c0.436,0.809,0.897,1.802,1.323,2.072
				c0.42,0.27-0.706,0.875-0.916,0.584c-0.108-0.14-0.56-0.701-0.995-1.328c-0.439-0.623-0.84-1.32-0.973-1.611
				c-0.283-0.576-0.607-1.455-0.553-1.915c0.022-0.229-0.092-0.777-0.2-1.352c-0.114-0.574-0.219-1.175-0.324-1.488
				c-0.111-0.312-0.261-0.865-0.302-1.463c-0.048-0.596,0.016-1.231,0.207-1.636c0.366-0.789,0.178-1.883,0.82-2.745
				c0.315-0.418,0.658-1.274,1.062-2.051C157.889,382.913,158.328,382.21,158.499,382.048z"/>
			<path style="fill:#231815;" d="M166.276,388.014c0.089-0.278,0.515-0.37,0.878-0.296c0.363,0.081,0.655,0.294,0.569,0.533
				c-0.178,0.52,0.442,1.088,0.213,1.336c-0.245,0.256-0.366,1.313-0.115,2.053c0.111,0.367,0.213,1.124,0.442,1.797
				c0.217,0.676,0.535,1.255,0.687,1.336c0.149,0.086,0.417,0.447,0.706,0.79c0.286,0.348,0.595,0.681,0.696,0.787
				c0.175,0.226,1.148,1.332,1.775,1.722c0.592,0.404,1.24,0.972,1.654,0.976c0.407,0.005-0.293,1.07-0.544,0.94
				c-0.127-0.06-0.649-0.289-1.183-0.564c-0.537-0.274-1.078-0.608-1.279-0.763c-0.407-0.3-0.96-0.794-1.068-1.159
				c-0.137-0.347-1.046-1.417-1.444-1.765c-0.432-0.293-1.342-1.315-1.348-2.066c-0.022-0.697-0.7-1.361-0.553-2.225
				c0.07-0.417-0.051-1.145-0.099-1.856C166.202,388.884,166.215,388.199,166.276,388.014z"/>
			<path style="fill:#231815;" d="M152.781,387.683c0.484-0.164,1.104,1.169,0.658,1.306c-0.455,0.152-0.522,0.965-0.836,0.903
				c-0.321-0.065-1.167,0.334-1.648,0.848c-0.245,0.25-0.82,0.626-1.307,1.032c-0.49,0.401-0.881,0.824-0.897,0.981
				c-0.019,0.156-0.238,0.477-0.436,0.802c-0.2,0.323-0.378,0.65-0.432,0.757c-0.054,0.108-0.251,0.402-0.423,0.762
				c-0.172,0.358-0.309,0.783-0.347,1.069c-0.092,0.563-0.251,1.258-0.035,1.542c0.204,0.272-1.065,0.299-1.088,0.046
				c-0.01-0.119-0.096-0.614-0.105-1.143c-0.019-0.53,0.044-1.091,0.102-1.307c0.095-0.437,0.331-1.053,0.62-1.24
				c0.261-0.21,0.89-1.245,1.053-1.681c0.108-0.453,0.652-1.512,1.253-1.74c0.569-0.223,0.798-1.042,1.508-1.247
				c0.347-0.098,0.827-0.51,1.294-0.894C152.18,388.094,152.632,387.736,152.781,387.683z"/>
			<path style="fill:#231815;" d="M91.049,195.882c0.382-0.207,1.562,1.905,1.294,2.043c-0.302,0.164,0.207,1.283-0.038,1.092
				c-0.14-0.087-0.286-0.051-0.337,0.011c-0.029,0.03,0.054,0.064-0.13-0.011c-0.108-0.035-0.121-0.019-0.06-0.025
				c0.022-0.003,0.083-0.01,0.188-0.046l0.181-0.076l0.124-0.062l0.013-0.003c0.022,0.005,0.086,0.087,0.194,0.18
				c0.213,0.189,0.534,0.385,0.677,0.293c0.271-0.173,1.034,0.208,1.209,0.273c0.146,0.073,0.846,0.681,1.263,0.819
				c0.404,0.142,0.798,0.579,1.085,0.347c0.264-0.239-0.366,1.778-0.537,1.729c-0.159-0.037-1.399-0.126-1.686-0.242
				c-0.283-0.103-0.696-0.27-0.763-0.626c-0.073-0.351-0.83-0.703-1.237-0.595c-0.388,0.14-1.431,0.204-1.609-0.394
				c-0.07-0.278-0.347-0.348-0.655-0.562c-0.296-0.189-0.636-0.658-0.445-1.18c0.156-0.494,0.347-1.25,0.627-1.824
				C90.668,196.434,90.935,195.951,91.049,195.882z"/>
			<path style="fill:#231815;" d="M31.722,186.975c1.412-1.277,3.801-0.183,2.242,1.226c-1.562,1.409-2.001,3.433-3.139,4.053
				c-1.139,0.622-4.255,3.443-6.396,5.78c-1.069,1.169-3.489,3.355-5.728,5.378l-0.674,0.72l-0.709,0.781
				c-0.464,0.506-0.875,0.994-1.244,1.425c-0.725,0.868-1.221,1.542-1.361,1.827c-0.27,0.576-1.4,2.101-2.459,3.662
				c-1.069,1.554-2.051,3.15-2.36,3.673c-0.312,0.52-1.275,2.008-2.195,3.751c-0.925,1.74-1.768,3.742-2.179,5.087
				c-0.881,2.663-1.647,5.823-1.438,7.251c0.204,1.41-1.87,0.717-1.787-0.356c0.038-0.525,0.184-2.694,0.652-4.93
				c0.436-2.241,1.196-4.518,1.558-5.404c0.69-1.784,1.94-4.26,2.834-5.208c0.442-0.479,1.345-1.896,2.322-3.357
				c0.97-1.468,2.007-2.986,2.471-3.826c0.91-1.703,3.406-5.658,5.575-7.252c2.074-1.468,3.495-3.971,5.884-5.721
				C25.978,193.789,30.787,187.82,31.722,186.975z"/>
			<path style="fill:#231815;" d="M67.358,172.918c2.296-0.286,8.994-3.678,10.629-2.044c1.635,1.635-0.41,3.27-4.09,3.678
				c-3.677,0.409-6.539,3.678-8.991,4.088C62.454,179.048,64.089,173.327,67.358,172.918z"/>
			<path style="fill:#231815;" d="M120.086,180.685c2.859-2.454,4.497-4.088,4.904-0.818c0.41,3.27,3.269,2.861,5.722,5.313
				c2.452,2.452,2.452,2.452,2.452,2.452s4.497,3.68,2.045,3.68c-2.452,0-4.497-2.862-6.539-3.68
				c-2.045-0.817-2.452-0.409-6.542-1.635c-4.087-1.226-1.635,0.409-4.087-1.226c-2.452-1.635-0.407-3.678-0.817-4.904
				C116.817,178.641,120.086,180.685,120.086,180.685z"/>
			<path style="fill:#231815;" d="M143.793,196.216c1.733-1.733,4.087,2.043,2.452,2.043S141.748,198.26,143.793,196.216z"/>
			<path style="fill:#231815;" d="M106.188,196.216c6.542,0.409,15.123,0.817,18.396,1.635
				C127.853,198.668,118.041,194.581,106.188,196.216z"/>
			<path style="fill:#231815;" d="M43.245,188.041c3.546-2.027,7.356-6.13,9.808-3.678c2.452,2.452-0.817,3.678-1.635,6.539
				c-0.817,2.862-0.41,2.454-4.904,2.454C42.017,193.355,40.382,189.676,43.245,188.041z"/>
			<path style="fill:#231815;" d="M29.346,199.894c-0.407,2.044,1.635,6.541,1.635,8.584c0,2.043-1.225,2.861-4.497,0.817
				c-3.269-2.043-5.722-3.27-4.087-6.13C24.032,200.303,29.346,199.894,29.346,199.894z"/>
			<path style="fill:#231815;" d="M12.095,217.915c-0.089-2.199,5.127-4.693,7.665-2.061c2.538,2.632,1.065,5.578-0.862,4.898
				C16.971,220.069,12.095,217.915,12.095,217.915z"/>
			<path style="fill:#231815;" d="M35.885,317.506c7.118,2.034,12.264,7.358,5.725,6.54c-6.542-0.819-12.264,0-15.533,0
				C22.807,324.047,30.163,315.871,35.885,317.506z"/>
			<path style="fill:#231815;" d="M22.807,328.951c6.539,1.635,11.443,4.904,6.539,4.904s-9.808-1.635-9.808-1.635L22.807,328.951z"
				/>
			<path style="fill:#231815;" d="M103.736,324.864c4.904,0,9.812-4.906,13.898-4.906c4.087,0,4.087,4.906-2.452,7.358
				c-6.542,2.452-8.177,3.27-12.264,1.635C98.832,327.316,103.736,324.864,103.736,324.864z"/>
			<path style="fill:#231815;" d="M115.182,337.943c-5.725,0.818-10.629-2.454-0.817-4.906
				C124.173,330.586,115.182,337.943,115.182,337.943z"/>
			<path style="fill:#231815;" d="M135.228,260.944c-0.591-0.274-1.161-0.17-1.46,0.178c-0.286,0.327-0.197,1.048,0.935,1.608
				c1.148,0.53,2.131,0.514,3.117,0.42c0.999-0.103,2.026-0.301,3.46-0.412c2.866-0.232,5.547-0.555,7.535-1.016
				c0.973-0.232,1.224-0.951,0.798-1.328c-0.426-0.386-1.453-0.455-3.222,0.396c-0.951,0.452-1.533,0.593-2.223,0.704
				c-0.697,0.105-1.501,0.197-2.958,0.375C138.88,262.14,136.787,261.677,135.228,260.944z"/>
			<path style="fill:#231815;" d="M110.685,257.391c-4.904-0.545-5.995-5.451-5.451-8.72c0.547-3.27,1.635-7.63,4.36-2.724
				c2.726,4.904,3.27,7.63,4.36,9.265C115.045,256.846,110.685,257.391,110.685,257.391z"/>
			<path style="fill:#231815;" d="M115.045,265.565c1.088-3.269,4.357-4.903,4.904-1.089
				C120.494,268.291,115.045,265.565,115.045,265.565z"/>
			<path style="fill:#231815;" d="M115.045,273.74c2.723,7.086,5.995,10.355,7.083,6.541c1.091-3.815,2.726-3.815-1.088-6.541
				C117.224,271.016,115.045,273.74,115.045,273.74z"/>
			<path style="fill:#231815;" d="M128.671,282.461c4.357,3.27,2.722,9.264,1.088,6.539
				C128.123,286.274,128.671,282.461,128.671,282.461z"/>
		</g>
		<g>
			<g>
				<path style="fill:#231815;" d="M396.324,158.385c0.732-1.142,0.938-2.382,1.349-3.654c0.035-0.108,0.083-0.2,0.127-0.294
					c-0.964-5.35-2.522-11.4-4.955-18.225c-9.761-27.404-22.26-27.619-22.26-27.619l-0.964,3.375c0,0-3.241-1.95-4.02-3.561
					c-0.782-1.611-2.223,5.206-2.223,5.206c-11.313,38.534,6.23,64.001,22.005,73.189l2.322,1.322c0,0-1.135-2.664-4.666-6.156
					c-18.809-12.61-20.972-36.964-21.366-45.035c-0.391-8.072,2.608-11.671,2.878-13.638c0.274-1.967,2.866-2.611,3.069-4.087
					c0.203-1.477,1.323-2.323,1.323-2.323l1.832,1.253l4.987,0.185c0,0,0.359-3.521,4.138-0.933
					c8.244,5.645,11.621,21.143,14.204,31.523c1.088,4.373,1.632,9.378,1.791,14.293c0.283-0.789,0.636-1.555,1.04-2.307
					C396.134,160.401,395.663,159.416,396.324,158.385z"/>
				<path style="fill:#231815;" d="M393.78,185.875c-0.63-10.411-0.534-60.406,34.727-79.466c2.671-1.066,2.671-1.066,2.671-1.066
					l4.303,1.003l4.806-3.168c0,0,6.514,8.274,2.376,26.019c-4.135,17.742-18.901,47.557-31.146,59.124
					c-3.171,5.757-4.265,3.683-3.219,0.549c1.046-3.133,5.979-6.906,11.141-15.201c4.233-6.808,20.619-35.595,21.035-49.141
					l-3.222,0.03l-4.306-1.525c0,0-1.38-0.642-2.697-1.539c-3.782-2.57-3.782-2.57-3.782-2.57s-1.123-5.72-5.4-3.598
					c-4.274,2.123-24.581,12.715-25.151,69.487C397.056,192.098,393.78,185.875,393.78,185.875z"/>
				<path style="fill:#231815;" d="M370.344,227.146c-4.268-1.511-3.972-6.798-2.707-12.027c1.126-4.667-1.514-6.595,1.587-13.183
					c7.493-15.92,11.004-10.98,17.301-16.146c2.945-2.123,3.584,2.416,2.732,2.982c-0.846,0.566-12.353,4.095-12.636,4.944
					c-0.283,0.848-2.875,5.343-5.343,8.632c-1.358,1.81-0.821,5.753-1.158,9.788c-0.318,3.785-1.991,7.954-0.499,9.942
					c1.021,1.358-0.095,3.446,2.738,3.728c2.828,0.285,4.45,1.554,3.034,2.403C373.979,229.057,371.727,227.635,370.344,227.146z"/>
				<path style="fill:#231815;" d="M375.655,228.3c1.911,1.91,0.48,3.343,3.584,2.864c3.101-0.477,8.355-4.058,9.071-5.731
					c0-0.953-0.954,0.24-1.908,0.956c-0.957,0.717-3.104,1.911-4.538,2.627c-1.431,0.715-3.235,0.076-3.766-0.798
					C377.566,227.344,375.655,228.3,375.655,228.3z"/>
				<path style="fill:#231815;" d="M455.868,298.12c-8.358-20.578,23.653-39.738,7.449-72.917
					c-5.823-11.928-26.232-16.204-27.775-20.062c-1.546-3.858-9.261-10.802-16.204-15.432l-2.315,2.056c0,0-2.573,2.573,0,3.087
					c2.57,0.515,6.685,1.544,8.743,2.573c2.058,1.029,5.146,4.629,6.688,7.716c1.543,3.087,0.512,5.144,4.116,5.658
					c3.6,0.515,5.658,1.544,8.743,3.602c3.088,2.058,4.631,2.571,8.231,4.114c3.6,1.544,5.658,6.688,6.173,8.231
					c0.515,1.544,1.543,2.058,3.6,3.6c2.058,1.544,1.027,12.346,1.027,15.433c0,3.087-1.543,8.229-5.143,16.975
					c-3.6,8.746-7.706,21.347-6.033,27.906C453.938,293.693,455.868,298.12,455.868,298.12z"/>
				<path style="fill:#231815;" d="M290.274,392.62c-3.629-0.727-7.251-16.697,11.618-12.334
					c13.065,2.909,18.876-10.153,23.233-14.507c4.357-4.354,5.092-22.5,10.906-39.917c5.814-17.419,43.953-26.068,47.811-35.328
					c0,0,0.515-0.258,1.546,1.8c1.027,2.058,0.255,3.087,0.255,3.087s-1.027,0.773-1.027,2.058c0,1.285,0,2.315,0,2.315
					s-2.058,1.543-3.085,1.543c-1.03,0-4.119,0-5.919,1.029c-1.8,1.029-7.973,1.029-11.574,3.344c-3.6,2.314-6.943,4.116-9,5.143
					c-2.058,1.029-2.058,1.286-4.373,2.831c-2.315,1.542-9.258,5.914-10.031,7.972c-0.773,2.059-0.391,4.376-1.543,5.144
					c-2.315,1.544-2.315,1.544-2.315,1.544s-2.169,3.061-1.8,5.658c0.258,1.8-1.542,7.202-1.542,8.231
					c0,1.029-5.915,23.149-6.431,23.92c-0.512,0.771-7.716,10.802-11.574,13.117c-3.858,2.314-8.488,4.114-11.573,3.343
					c-3.088-0.771-5.661-1.287-9.261-0.515c-3.6,0.773-3.342,2.831-4.37,3.344c-1.03,0.515,0,3.6,0,3.6s-0.518,1.03,0.512,1.286
					c1.03,0.258,0.258,1.029,1.03,0.258c0.773-0.771-0.515-3.085,2.058-2.058c-0.515,2.058,0,4.117,1.285,4.631
					C294.081,394.442,290.274,392.62,290.274,392.62z"/>
				<path style="fill:#231815;" d="M503.791,395.948c6.749,6.002-0.75,11.251-8.25,4.5c-6.001-4.5-27.002-9.75-29.253-21.753
					c-2.249-12-1.498-34.415-6.749-39.666c0,0-3.937,2.942-1.364,3.971c2.573,1.03,1.542,2.573,2.573,5.144
					c1.027,2.573,2.058,5.146,2.058,7.717c0,2.571,1.543,12.345,1.027,16.975c-0.515,4.629-0.515,11.831,2.058,12.345
					c2.573,0.515,3.6,2.573,5.658,4.115c2.058,1.544,4.631,4.114,6.173,4.629c1.542,0.515,8.231,3.602,9.773,4.117
					c1.543,0.514,5.146,2.57,8.231,5.143c3.088,2.573,9.261,3.602,11.316,1.029C509.099,401.644,505.683,394.881,503.791,395.948z"
					/>
				<path style="fill:#231815;" d="M459.478,298.045c0.216,1.468-1.447,1.445-2.776,1.445c-0.655,0.013-1.212,0.067-1.329,0.515
					c-0.118,0.439,0.213,1.328,1.428,2.692c1.218,1.36,2.859,2.969,4.678,4.613c1.822,1.646,3.81,3.351,5.684,5.011
					c1.87,1.659,3.616,3.287,5.003,4.707c1.39,1.417,2.42,2.621,2.98,3.332c0.553,0.709,1.597,2.02,2.742,3.856
					c1.138,1.835,2.366,4.224,3.117,7.03c0.76,2.802,0.976,6.006,0.503,9.207c-0.474,3.371-0.852,6.782-1.107,9.972
					c-0.251,3.19-0.41,6.677-0.328,10.274c0.092,3.594,0.404,7.307,1.26,10.882c0.426,1.784,1.002,3.535,1.813,5.168
					c0.811,1.624,1.896,3.152,3.346,4.259c2.627,1.935,5.101,3.451,7.245,4.656c4.29,2.377,6.921,3.456,9.315,4.33
					c1.199,0.428,2.36,0.79,3.68,1.107c1.205,0.293,2.643,0.932,3.406,2.583c0.366,0.816,0.484,1.563,0.563,2.147
					c0.073,0.588,0.102,1.03,0.159,1.323c0.054,0.291,0.127,0.452,0.258,0.441c0.127-0.016,0.302-0.197,0.471-0.545
					c0.165-0.35,0.337-0.871,0.394-1.584c0.057-0.706,0.01-1.63-0.417-2.665c-0.413-1.03-1.307-2.118-2.522-2.778
					c-0.595-0.334-1.285-0.58-1.927-0.735c-0.547-0.127-1.126-0.283-1.73-0.452c-2.43-0.684-4.914-1.708-7.34-2.88
					c-2.427-1.178-4.809-2.521-7.07-3.964c-1.129-0.722-2.226-1.473-3.282-2.244c-0.992-0.719-1.781-1.684-2.411-2.723
					c-1.253-2.099-1.924-4.419-2.392-6.563c-0.474-2.148-0.91-5.874-0.872-10.348c0.022-4.472,0.474-9.667,1.209-14.752
					c0.184-1.271,0.382-2.536,0.592-3.782c0.102-0.612,0.22-1.252,0.309-1.91c0.086-0.649,0.149-1.296,0.188-1.938
					c0.159-2.574-0.099-5.06-0.617-7.239c-1.046-4.381-2.936-7.449-3.864-8.905c-1.911-2.945-4.539-5.771-7.185-8.329
					c-2.649-2.563-5.311-4.917-7.347-7.072c-2.039-2.15-3.212-4.053-3.979-5.469C460.553,299.301,460.162,298.39,459.478,298.045z"
					/>
				<path style="fill:#231815;" d="M385.87,325.295c-2.163,2.23-4.446,5.99-6.335,9.094c-1.899,3.101-2.948,4.247-2.751,3.737
					c0.226-0.496,0.099-1.795,1.45-4.254l3.123-5.542c0.318-0.58,0.461-0.709,0.814-1.089c0.359-0.377,0.906-1.016,2.169-2.525
					c1.272-1.503,2.242-2.204,2.764-2.438c0.528-0.23,0.623,0.002,0.29,0.447C386.72,323.617,385.864,325.293,385.87,325.295z"/>
				<path style="fill:#231815;" d="M374.898,330.018c-1.603,2.058-3.661,5.055-5.076,7.684c-0.719,1.309-1.164,2.253-1.444,2.815
					c-0.273,0.563-0.407,0.73-0.35,0.509c0.13-0.423-0.045-1.465,0.983-3.562c1.046-2.067,2.032-3.627,2.56-4.569
					c0.544-0.932,0.426-0.464,2.309-3.045c0.945-1.288,1.517-2.005,1.797-2.338c0.27-0.337,0.394-0.245,0.242,0.216
					C375.598,328.62,374.892,330.015,374.898,330.018z"/>
				<path style="fill:#231815;" d="M363.426,336.024c-0.954,1.581-1.619,4.093-2.22,6.113c-0.611,2.016-1.142,2.843-1.151,2.532
					c0.019-0.31-0.582-1.059-0.226-2.73c0.372-1.646,0.687-2.961,0.817-3.758c0.156-0.787,0.267-0.388,1.247-2.527
					c1.043-2.123,1.975-2.094,1.781-1.452C363.487,334.85,363.423,336.026,363.426,336.024z"/>
				<path style="fill:#231815;" d="M308.539,392.112c1.765-0.121,4.44-0.614,6.733-1.833c2.303-1.188,4.173-2.877,5.35-3.84
					c1.193-0.956,3.114-2.902,5.124-4.604c2.007-1.703,4.017-3.217,5.009-3.713c0.992-0.499,3.801-2.581,6.342-4.564
					c1.269-0.994,2.465-1.972,3.32-2.722c0.862-0.749,1.38-1.269,1.38-1.269c-0.006-0.005,0.394-0.339,0.929-0.944
					c0.127-0.153,0.267-0.328,0.375-0.522c0.098-0.191,0.165-0.45,0.267-0.695l0.649-1.59l2.547-5.922
					c1.046-2.403,2.799-6.407,3.638-9.378c0.84-2.972-0.362-5.381,1.409-7.461c1.765-2.085,2.029-0.572,2.312,1.926
					c0.283,2.497-0.21,4.675-1.282,6.117c-1.075,1.442-1.597,2.645-2.646,5.049c-0.525,1.201-1.606,4.187-2.716,7.269l-1.581,4.459
					l-0.328,1.005c-0.213,0.523-0.391,0.752-0.538,0.968c-0.15,0.215-0.286,0.382-0.42,0.536c-0.515,0.601-0.941,0.995-1.298,1.318
					c-1.418,1.266-3.673,2.859-5.582,4.166l-3.451,2.326l-2.78,2.093c-1.38,1.053-1.813,1.905-3.152,2.974
					c-1.355,1.067-3.441,1.802-4.185,3.018c-0.741,1.173-2.029,2.382-4.332,4.044c-1.17,0.822-2.137,1.143-3.075,1.445
					c-0.948,0.296-1.864,0.592-3.209,1.196c-1.358,0.596-2.687,0.801-3.858,0.871c-1.18,0.067-2.217,0.003-3.126,0.019
					c-0.913,0.011-1.018-0.406-0.576-0.817C306.239,392.623,307.222,392.209,308.539,392.112z"/>
				<path style="fill:#231815;" d="M417.277,323.418c0.697,1.188,1.956,2.425,3.349,3.595c1.396,1.175,2.932,2.312,4.271,3.448
					c1.339,1.134,2.191,2.074,2.624,2.699c0.433,0.625,0.464,0.897,0.28,0.709c-0.388-0.383-1.549-0.609-3.616-2.206
					c-2.08-1.6-3.826-2.815-4.86-3.541c-0.518-0.361-0.626-0.514-0.944-0.899c-0.305-0.401-0.881-0.96-2.064-2.492
					c-1.183-1.568-1.291-2.953-1.107-3.489c0.184-0.557,0.41-0.418,0.525,0.054c0.13,0.487,0.496,1.058,0.859,1.455
					C416.949,323.155,417.277,323.417,417.277,323.418z"/>
				<path style="fill:#231815;" d="M428.749,326.516c1.635,1.673,4.084,3.863,5.795,5.949c1.711,2.073,2.051,3.242,1.765,2.964
					c-0.28-0.286-1.304-0.431-2.687-1.923c-1.377-1.49-2.589-2.567-3.352-3.131c-0.773-0.552-0.235-0.52-2.264-2.452
					c-1.021-0.949-1.543-1.612-1.708-2.023c-0.162-0.41,0.032-0.55,0.394-0.35C427.426,325.932,428.749,326.513,428.749,326.516z"/>
				<path style="fill:#231815;" d="M442.164,333.036c1.151,1.705,3.622,3.367,5.451,5.108c1.832,1.768,2.077,2.974,1.813,2.692
					c-0.274-0.269-1.215-0.35-2.621-1.558c-1.422-1.209-2.681-2.066-3.438-2.562c-0.385-0.246-0.452-0.362-0.668-0.649
					c-0.21-0.293-0.585-0.73-1.479-1.756c-0.884-1.041-1.158-1.854-1.174-2.271c-0.013-0.423,0.223-0.482,0.483-0.21
					C441.051,332.392,442.161,333.047,442.164,333.036z"/>
				<path style="fill:#231815;" d="M452.411,335.906c1.018,0.512,2.7,0.81,3.858,1.73c0.572,0.452,0.84,0.943,0.932,1.263
					c0.095,0.324,0.041,0.487-0.032,0.42c-0.159-0.143-0.827,0.024-1.59-0.479c-0.795-0.504-1.571-0.668-2.035-0.698
					c-0.474-0.021-0.162-0.253-1.45-0.716c-1.298-0.447-1.317-1.256-0.887-1.277C451.629,336.126,452.411,335.906,452.411,335.906z"
					/>
				<path style="fill:#231815;" d="M406.209,323.907c-1.307-0.277-2.977-0.231-4.618,0.151c-1.644,0.372-3.244,1.075-4.522,1.927
					c-1.282,0.851-2.035,1.644-2.509,2.132c-0.461,0.496-0.671,0.652-0.572,0.418c0.102-0.227,0.118-0.633,0.347-1.263
					c0.232-0.617,0.709-1.485,1.772-2.299c2.144-1.598,4.204-2.226,5.384-2.622c0.601-0.188,0.789-0.172,1.279-0.168
					c0.493,0.025,1.291-0.038,3.142,0.132c1.861,0.211,2.866,0.863,3.225,1.253c0.363,0.405,0.165,0.563-0.309,0.431
					C407.854,323.703,406.2,323.889,406.209,323.907z"/>
				<path style="fill:#231815;" d="M391.846,325.012c-1.088,1.078-1.889,3.098-2.643,4.699c-0.754,1.609-1.463,2.212-1.412,1.937
					c0.076-0.261-0.41-0.98,0.083-2.337c0.506-1.341,0.903-2.427,1.113-3.096c0.235-0.65,0.277-0.296,1.476-1.934
					c0.627-0.808,1.199-1.11,1.536-1.158c0.34-0.049,0.468,0.154,0.334,0.405C392.044,324.026,391.84,325.015,391.846,325.012z"/>
				<path style="fill:#231815;" d="M369.008,222.025c-4.491,5.291-18.965,14.105-27.199,17.883
					c-8.234,3.778-13.638,15.632-20.212,20.402c-7.986,5.793-11.23,7.557-14.474,8.312c-3.244,0.755-3.244,7.81,0.5,8.563
					c3.743,0.755,3.244,2.268,3.743,0.755c0.499-1.509,2.745-4.532,1.247-5.792c-1.495,0.755-0.999,4.534-2.493,4.03
					c-1.498-0.504-2.745-3.274-2.249-4.534c0.503-1.259,1.498-2.016,2.996-2.268c1.498-0.251,8.234-6.297,9.233-6.548
					c0.999-0.253,2.497-1.511,3.244-2.015c0.747-0.504,1.746-1.764,2.245-2.519c0.499-0.755,12.477-13.601,15.473-15.365
					c2.993-1.764,23.704-15.616,26.448-17.128C370.255,224.293,369.008,222.025,369.008,222.025z"/>
				<path style="fill:#231815;" d="M324.428,276.9c7.716,0,7.716-6.944,16.204-15.431c8.488-8.488,13.119-3.859,14.662-7.717
					c1.542-3.858,11.446-8.638,19.289-13.118c1.8-1.027,4.115,1.286,3.088,1.8c-1.031,0.515-1.542,0.773-2.831,1.031
					c-1.285,0.256-5.143,1.285-6.428,2.056c-1.288,0.773-7.461,4.117-8.489,5.66c-1.03,1.542-1.288,2.315-1.8,3.087
					c-0.515,0.771,0.255,1.798-1.8,2.058c-2.061,0.258-0.003,0-2.061,0.258c-2.055,0.256-11.316,3.087-8.486,2.571
					c2.827-0.515-0.353,0.835-1.03,1.285c-2.315,1.544-2.57,2.573-2.57,2.573l-3.088,1.543c0,0,0.77,1.029-0.258,1.8
					c-1.027,0.773-3.085,4.373-3.858,5.146c-0.77,0.77-4.885,5.402-6.431,5.914c-1.542,0.515-2.315,0.515-4.37,0.773
					c-2.058,0.258-3.088-0.773-1.8-2.829C323.658,273.3,324.428,276.9,324.428,276.9z"/>
				<path style="fill:#231815;" d="M385.899,251.695c0,0,0.258-0.515-2.058,0.256c-2.312,0.771-3.871,2.058-1.8,2.058
					c1.288,0,7.204,1.286,7.204,2.058c0,0.771,0.512,2.829,2.57,3.087c2.058,0.258,2.058,1.029,2.831,1.8
					c0.773,0.773,4.115,10.546,4.115,13.375s-2.058,6.944-4.115,9.002c-2.058,2.058-2.831,3.858-4.373,4.629
					c-1.542,0.773-4.112,3.6-2.058,3.6c2.058,0,2.315-1.285,2.315-1.285C401.33,282.558,406.734,264.813,385.899,251.695z"/>
				<path style="fill:#231815;" d="M311.57,276.9c0,2.058,1.8,3.085,3.343,2.571c1.543-0.514,1.543-0.514,1.543-0.514
					s4.373,2.058,5.146-0.771c-2.573,0.258-4.373,1.027-4.116-1.802c0.258-2.827-1.03-1.285-1.285,0.258
					c-0.258,1.544-3.088-0.771-3.858-1.285C311.57,274.842,311.57,276.9,311.57,276.9z"/>
				<path style="fill:#231815;" d="M296.908,391.869c-0.254-0.771,0.515-4.629,1.288-2.571c0.77,2.058,0.515,3.858,3.085,4.114
					c2.573,0.258,3.343-1.285,3.858-2.57c0.515-1.287,2.315,2.57,0,3.342c-2.312,0.771-8.743,1.029-10.031-1.027
					C294.373,391.982,296.908,391.869,296.908,391.869z"/>
				<path style="fill:#231815;" d="M459.427,249.337c-4.694,2.258-17.247,11.866-19.684,18.82
					c-2.436,6.954-13.606,11.306-15.05,2.647c-1.444-8.658-12.035-23.371-22.578-34.736c-9.605-7.153-4.777-14.003-2.509-14.242
					c2.264-0.24,1.457-1.212,4.208-1.854c2.751-0.644-0.404-0.487,0.642,2.751l0.219,2.487c0,0-2.08-1.762-1.956-3.098
					c0.124-1.333-1.377,0.323-2.105,0.927c-0.728,0.607-1.597,0.302-1.781,2.304c-0.188,2.002,0.255,4.51,1.021,5.927
					c0.766,1.417,1.533,2.834,3.533,3.018c2.004,0.186,1.762,0.388,2.71,2.271c2.745,1.824,8.473,11.917,9.586,12.019
					c1.113,0.103,0.989,1.439,1.555,2.613c0.566,1.174,4.033,7.326,4.538,9.166c0.499,1.843,5.49,6.873,5.588,8.228
					c0.099,1.355,2.299,4.249,4.605,3.565c2.309-0.684,3.807-2.339,3.95-3.896c0.143-1.558,4.516-5.192,6.036-7.072
					c1.52-1.878,7.553-6.48,9.843-9.409c2.29-2.929,3.95-3.898,5.044-6.039c1.097-2.142,2.57-1.109,2.732-0.42
					c0.162,0.687,1.374,2.145,1.374,2.145L459.427,249.337z"/>
				<path style="fill:#231815;" d="M417.729,234.494c3.514,3.239,10.33,16.88,13.195,19.838c2.869,2.956,7.102-1.587,7.391-4.702
					c0.286-3.114,7.051-10.788,8.024-11.596c0.973-0.808-0.238-2.266-1.253-1.013c-1.011,1.251-1.921,1.391-2.226,2.261
					c-0.305,0.868-5.655,7.778-5.839,9.78c-0.185,2.002-3.587,4.828-5.082,4.017c-1.495-0.811-5.464-11.273-8.129-13.987
					c-2.665-2.713-4.666-5.364-5.474-6.339c-0.808-0.97-4.1-4.192-3.953-5.749c0.143-1.557,1.908-6.103-1.587-7.1
					c-2.608-0.913-2.917,2.423-2.331,3.374c0.585,0.951-0.261-2.043,1.74-1.857c2.004,0.184,2.121,1.317,1.473,3.5
					c-0.652,2.183,0.862,5.238,1.628,6.655C416.072,232.993,417.729,234.494,417.729,234.494z"/>
				<path style="fill:#231815;" d="M410.105,219.88c0,0-1.151-2.126-3.721-1.018c-2.57,1.11-2.675,4.689-1.927,3.861
					c0.751-0.828,1.724-1.636,3.524-1.693c1.8-0.059,2.484,2.248,2.484,2.248L410.105,219.88z"/>
				<path style="fill:#231815;" d="M386.36,227.061l-0.064,0.033c1.129,2.869,0.611,5.537-1.005,5.537
					c-1.851,0-2.672,1.027-1.644,1.438c1.027,0.412,2.055-0.616,2.672-0.616s1.441-0.41,1.644-1.027
					c0.207-0.617,0.207-2.673,0.207-2.673l-0.906-3.317C386.958,226.64,386.653,226.844,386.36,227.061z"/>
				<path style="fill:#231815;" d="M385.04,232.823c0.735,0.455,0.159,0.402,1.205,1.66c1.046,1.259,1.555-0.051,3.581-1.026
					c2.026-0.976,2.465-1.517,3.67-4.119c1.209-2.6,0.999-0.296,0.91,0.666c-0.089,0.959-1.329,1.814-1.574,2.372
					s-1.488,1.414-1.488,1.414s-0.611,0.329-1.415,0.644c-0.802,0.313-2.621,1.115-2.621,1.115s-1.031,0.679-1.342-0.124
					c-0.315-0.803-1.937-2.115-1.937-2.115L385.04,232.823z"/>
				<path style="fill:#231815;" d="M383.17,213.966c-1.301-0.274-1.094,0.138-2.055-0.684c-0.961-0.822-1.851-2.396-1.574-3.972
					c0.274-1.576,0.41-1.713,0.957-2.466c0.55-0.754,0.273-0.754,0.684-1.166c0.414-0.41,0.894-0.479,0.894-0.479
					c0.957,0.135,1.072-0.178,1.301-0.275c0.82-0.342,0.547-0.342,1.301-0.137c0.754,0.205,1.097-0.068,1.644,0.547
					c0.547,0.617,0.82,0.892,1.234,1.371c0.41,0.479,0.614,0.275,0.821,1.164c0.207,0.892,0.137,1.234,0.137,1.576
					c0,0.343,0.207,0.412,0.207,0.822c0,0.412-0.343,1.166-0.824,1.783c-0.477,0.617-0.684,0.547-1.371,1.026
					c-0.684,0.48-1.301,0.824-1.711,0.824c-0.41,0-0.344,0.205-0.684,0.342C383.787,214.378,383.17,213.966,383.17,213.966z"/>
				<path style="fill:#231815;" d="M408.645,215.249c1.845,0.522,4.542,0.652,6.727,0.424l2.341-0.243
					c0.471-0.043,0.639-0.008,0.477,0.048c-0.318,0.096-0.853,0.736-2.595,1.003c-1.73,0.239-3.13,0.239-3.953,0.264
					c-0.41,0.008-0.525-0.029-0.84-0.1c-0.312-0.078-0.827-0.18-2.016-0.421c-2.376-0.531-2.656-1.17-1.981-1.054
					C407.488,215.27,408.645,215.254,408.645,215.249z"/>
				<path style="fill:#231815;" d="M415.286,211.867c0.458,0.162,0.954,0.318,1.457,0.382c0.127,0.014,0.254,0.024,0.378,0.024
					l0.194,0.018l0.102,0.017l0.204,0.029c0.277,0.037,0.557,0.056,0.84,0.057c1.139,0.009,2.296-0.293,3.327-0.663
					c1.031-0.374,1.765-0.684,2.223-0.829c0.455-0.151,0.623-0.152,0.48-0.062c-0.299,0.162-0.658,0.906-2.283,1.617
					c-1.625,0.693-3.079,0.907-3.941,0.946c-0.429,0.022-0.553-0.018-0.881-0.1l-0.261-0.075l-0.14-0.019
					c-0.076-0.006-0.156-0.017-0.242-0.03c-0.35-0.051-0.805-0.153-1.39-0.328c-1.164-0.366-1.762-0.598-2.08-0.733
					c-0.309-0.137-0.27-0.277,0.092-0.305C414.087,211.762,415.293,211.878,415.286,211.867z"/>
				<path style="fill:#231815;" d="M420,208.117c1.463,0.366,3.638-0.122,5.305-0.717c1.673-0.59,2.411-0.862,2.21-0.671
					c-0.223,0.145-0.471,0.84-1.813,1.407c-1.333,0.542-2.452,0.832-3.12,1.008c-0.334,0.087-0.436,0.07-0.706,0.056
					c-0.27-0.032-0.709-0.016-1.733-0.129c-1.037-0.135-1.587-0.512-1.781-0.736c-0.197-0.231-0.083-0.331,0.178-0.259
					C419.084,208.235,420.003,208.127,420,208.117z"/>
				<path style="fill:#231815;" d="M402.11,261.844c0.385,1.139,1.635,2.36,2.503,3.441c0.865,1.081,1.027,1.864,0.843,1.753
					c-0.162-0.13-0.935,0.102-1.775-0.724c-0.814-0.82-1.492-1.46-1.937-1.821c-0.423-0.377-0.099-0.316-0.9-1.749
					c-0.385-0.735-0.375-1.285-0.251-1.56c0.127-0.277,0.359-0.307,0.506-0.13C401.385,261.424,402.113,261.849,402.11,261.844z"/>
				<path style="fill:#231815;" d="M407.685,263.205c0.025,0.789,0.289,1.692,0.766,2.509c0.471,0.824,1.148,1.587,1.749,2.35
					c1.225,1.519,1.399,2.519,1.174,2.309c-0.21-0.218-1.075-0.185-2.125-1.294c-1.049-1.104-1.892-2.077-2.369-2.716
					c-0.239-0.315-0.248-0.439-0.305-0.741c-0.048-0.307-0.181-0.792-0.369-1.899c-0.168-1.112,0.038-1.768,0.242-2.061
					c0.207-0.294,0.439-0.238,0.518,0.056C407.116,262.324,407.682,263.216,407.685,263.205z"/>
				<path style="fill:#231815;" d="M415.566,268.82c0.7,1.519,2.245,3.257,3.581,4.429c0.668,0.601,1.158,1.024,1.457,1.326
					c0.299,0.296,0.385,0.477,0.242,0.432c-0.14-0.046-0.401,0.035-0.814,0.017c-0.407-0.016-0.995-0.132-1.635-0.607
					c-1.266-0.953-2.14-1.849-2.71-2.334c-0.541-0.501-0.172-0.409-1.295-2.223c-1.069-1.84-0.544-2.559-0.134-2.107
					C414.679,268.205,415.566,268.825,415.566,268.82z"/>
				<path style="fill:#231815;" d="M358.789,210.538c-3.152-2.082-7.051-4.443-11.182-6.722c-4.128-2.29-8.489-4.491-12.499-6.399
					c-4.004-1.91-6.841-3.19-8.505-3.974c-1.663-0.776-2.153-1.061-1.53-0.818c1.234,0.504,3.889,1.07,9.983,3.85
					c6.075,2.807,10.814,5.3,13.58,6.752c1.383,0.73,1.759,0.975,2.802,1.622l6.72,4.189c3.956,2.513,6.183,4.193,7.172,5.017
					c0.986,0.827,0.725,0.814-0.404,0.099C362.676,212.716,358.796,210.528,358.789,210.538z"/>
				<path style="fill:#231815;" d="M359.069,216.49c-2.796-0.964-6.339-1.643-10.034-2.067c-3.702-0.431-7.563-0.63-11.074-0.781
					c-7.029-0.259-9.859-0.537-8.8-0.563c1.059,0.013,3.174-0.406,8.473-0.28c5.298,0.14,9.535,0.443,12.009,0.676
					c1.237,0.116,1.587,0.193,2.547,0.38c0.951,0.221,2.538,0.436,6.141,1.441c3.607,1.049,5.528,2.326,6.316,2.974
					c0.783,0.674,0.55,0.674-0.353,0.146c-0.916-0.518-2.214-1.049-3.295-1.388C359.922,216.684,359.069,216.493,359.069,216.49z"/>
				<path style="fill:#231815;" d="M359.979,221.904c-2.35,0.098-5.178,0.436-7.986,1.224c-2.815,0.773-5.566,2.047-7.938,3.443
					c-2.376,1.393-3.969,2.511-4.939,3.131c-0.964,0.63-1.288,0.787-0.964,0.521c0.324-0.265,0.751-0.733,1.53-1.442
					c0.779-0.704,1.908-1.665,3.702-2.777c3.591-2.233,6.825-3.384,8.721-3.958c0.951-0.286,1.237-0.321,2.004-0.441
					c0.773-0.1,2.029-0.329,4.971-0.568c2.945-0.212,4.701-0.07,5.502,0.041c0.805,0.126,0.661,0.264-0.172,0.313
					C362.733,221.478,359.976,221.89,359.979,221.904z"/>
				<path style="fill:#231815;" d="M405.328,217.915c3.718,0.429,8.177,1.111,12.754,2.008c4.583,0.891,9.287,1.975,13.536,3.058
					c8.488,2.19,11.79,3.421,10.518,3.096c-1.278-0.315-3.915-0.611-10.292-2.185c-6.377-1.57-11.529-2.598-14.547-3.088
					c-1.511-0.248-1.937-0.348-3.114-0.598c-1.177-0.229-3.101-0.668-7.649-1.228c-4.548-0.534-7.271-0.679-8.524-0.832
					c-1.256-0.14-1.043-0.277,0.277-0.309C400.92,217.755,405.328,217.895,405.328,217.915z"/>
				<path style="fill:#231815;" d="M402.103,185.078c0-3.6,6.688-18.519,7.716-20.576"/>
				<path style="fill:#231815;" d="M403.331,182.671c-0.08,1.22-0.528,1.946-0.964,2.258c-0.216,0.156-0.455,0.215-0.646,0.057
					c-0.191-0.159-0.321-0.539-0.27-1.102c0.044-0.566,0.35-1.87,0.906-3.508c0.55-1.641,1.333-3.635,2.201-5.667
					c1.74-4.069,3.813-8.299,4.984-10.255c0.436-0.585-1.291,3.403-2.961,7.862c-0.843,2.228-1.682,4.569-2.28,6.482
					C403.697,180.71,403.353,182.192,403.331,182.671z"/>
				<path style="fill:#231815;" d="M369.698,224.302c2.185-0.129,2.57-0.9,3.085-1.286c0.515-0.385-0.385,2.573-1.673,2.702
					C369.825,225.845,369.698,224.302,369.698,224.302z"/>
			</g>
			<path style="fill:#231815;" d="M506.914,399.2c1.93,0.771,1.542-1.158,2.121-1.35c0.579-0.194,0.194-1.35-0.964-2.123
				c-1.158-0.771,0.964-1.35,1.542-0.193c0.579,1.158,1.737,0.771,1.737,0.771s0.385,1.35,0,1.929
				c-0.385,0.579-0.773,0.965-1.352,2.123c-0.579,1.158,0.194,1.737-1.733,2.121C506.335,402.865,506.914,399.2,506.914,399.2z"/>
		</g>
		<g>
			<g>
				<path style="fill:#231815;" d="M183.851,164.743c2.452,0,11.853-4.087,15.94-4.087c4.087,0,10.626,2.452,7.356,6.541
					c-3.27,4.087-0.817,9.808-0.817,13.079c0,3.269,9.401,18.801,14.306,36.786c0,0,6.335-25.75,21.868-51.911
					c0,0-4.087,8.584-6.335,15.124c3.27-9.81,13.078-20.437,13.078-20.437s-8.991,15.532-10.626,23.707
					c4.904-11.036,8.584-17.168,8.584-17.168s-11.854,26.978-11.854,33.517c0,6.541-3.27,12.262-3.27,12.262
					s-4.09,11.445-4.09,13.898c0,2.452-3.27,5.722-3.27,5.722c-8.174,0.817-13.078,0-13.078-2.452c0-2.452-0.817-8.175-0.817-8.175
					s-1.635-10.627-12.264-26.976c-10.626-16.35-11.443-20.437-13.895-22.072c-2.455-1.635-9.738-9.587-7.36-8.993"/>
				<g>
					<path style="fill:#231815;" d="M280.039,196.762c-4.497-3.269-19.432-10.01-18.803-15.668c0.817-7.358,7.63-8.993,15.803-5.723
						c8.177,3.271,8.994,0.409,12.264,0.409c3.269,0,1.635-0.409,1.635-0.409l-0.817-2.861c0,0,1.635-0.409,1.635-2.452
						c0-2.044-2.045-0.954-1.908-2.18c0.143-1.285,0-1.5,0-2.726c0-1.226-1.361-1.226-3.406-2.452
						c-2.042-1.226-1.771-1.226-2.996-0.818c-1.228,0.409-1.361,0-3.816,2.044c0,0-1.905-0.954-4.224-0.546
						c-2.315,0.409-5.585,2.998-7.763,2.589c-2.182-0.409-8.447,0-9.401,0.409c-0.954,0.41-3.273,2.726-4.634,3.952
						c-1.361,1.226-0.986,4.696-2.996,8.719c-1.771,3.543,2.315,7.358,2.315,7.358s1.635,5.314,4.634,6.404
						c2.996,1.089,4.087,4.36,5.585,5.313c1.498,0.954,6.132,5.314,12.127,7.495c5.995,2.18,3.269,2.861,3.813,3.27
						c0.544,0.409,1.091,1.226,1.908,1.907c0.817,0.682,0.954,0.954,1.361,1.771c0.41,0.818,1.771,2.18,1.908,2.726
						c0.137,0.545-0.273,0.817-0.817,2.589c-0.544,1.771-1.635,3.541-2.045,3.95c-0.407,0.409-3.27,2.454-3.677,2.726
						c-0.41,0.272-2.726,0.545-4.634,0.817c-1.905,0.272-11.443,0.137-11.443,0.137s-6.542-1.226-11.446-2.726
						c-4.904-1.498-6.132-1.771-7.493-2.589l2.999,2.317c0,0-1.638-0.817-4.09-2.452c1.364,1.908,5.725,4.632,8.447,5.449
						c-2.042-0.409-6.946-2.317-10.489-6.676c1.361,3.27,5.995,6.676,8.854,7.765c-5.041-1.498-6.949-4.224-6.949-4.224
						s1.228,4.087,17.168,7.767c15.94,3.678,29.021,2.043,32.701-8.584C295.025,210.93,284.536,200.031,280.039,196.762z
						 M269.413,192.401c-1.908-1.363-0.817-1.226-0.817-1.226c2.042,1.091,5.585,3.678,7.49,4.495
						C276.223,196.488,271.318,193.762,269.413,192.401z"/>
					<path style="fill:#231815;" d="M260.693,224.692c-2.315-0.546-11.036-1.908-15.67-4.906
						C247.341,220.332,257.423,224.283,260.693,224.692z"/>
					<path style="fill:#231815;" d="M251.021,228.507c1.329,0.443,10.352,2.861,11.853,2.997c-0.41,0.409-10.629-1.771-14.172-3.271
						C245.16,226.735,248.566,227.689,251.021,228.507z"/>
				</g>
				<path style="fill:#231815;" d="M291.482,167.877c-0.951,0-1.498-1.089-1.088-1.363c0.407-0.272,0.817-0.409,0.954,0
					c0.134,0.409,0.544,0.273,0.817,0.682C292.436,167.605,291.482,167.877,291.482,167.877z"/>
				<path style="fill:#231815;" d="M291.482,174.007c-0.407-0.135-0.137-1.224,0.547-0.952
					C292.71,173.327,291.482,174.007,291.482,174.007z"/>
			</g>
			<path style="fill:#231815;" d="M237.259,195.943c0-1.089,6.676-18.938,8.311-21.663
				C244.342,174.144,237.123,192.4,237.259,195.943z"/>
		</g>
	</g>
</g>
</svg>
