<?xml version="1.0" encoding="UTF-8"?>
<svg id="_レイヤー_2" data-name="レイヤー 2" xmlns="http://www.w3.org/2000/svg" viewBox="0 0 365.57 461.53">
  <defs>
    <style>
      .cls-1 {
        fill: #231815;
      }
    </style>
  </defs>
  <g id="_レイヤー_1-2" data-name="レイヤー 1">
    <g>
      <path class="cls-1" d="M4.07,163.87c104.1,10.1,113.11,48.86,123.85,159.45,.22,2.31,2.16,4.07,4.48,4.07s4.25-1.76,4.48-4.07c10.73-110.6,19.74-149.36,123.85-159.45,2.31-.22,4.06-2.16,4.06-4.48s-1.76-4.25-4.06-4.48c-105.56-10.24-113.3-42.06-123.85-150.85-.22-2.31-2.16-4.07-4.48-4.07s-4.25,1.76-4.48,4.07c-10.56,108.79-18.3,140.6-123.85,150.85-2.31,.22-4.07,2.16-4.07,4.48s1.76,4.25,4.07,4.48Z"/>
      <path class="cls-1" d="M289.93,270.33c-.13-1.36-1.28-2.4-2.65-2.4s-2.52,1.04-2.65,2.4c-6.24,64.33-10.82,83.15-73.24,89.2-1.36,.13-2.4,1.28-2.4,2.65s1.04,2.51,2.4,2.65c61.56,5.97,66.89,28.89,73.24,94.29,.13,1.36,1.28,2.4,2.65,2.4s2.52-1.04,2.65-2.4c6.34-65.4,11.67-88.32,73.24-94.29,1.36-.13,2.4-1.28,2.4-2.65s-1.04-2.52-2.4-2.65c-62.42-6.06-67-24.87-73.24-89.2Z"/>
    </g>
  </g>
</svg>