<?xml version="1.0" encoding="utf-8"?>
<!-- Generator: Adobe Illustrator 26.2.1, SVG Export Plug-In . SVG Version: 6.00 Build 0)  -->
<svg version="1.1" id="a" xmlns="http://www.w3.org/2000/svg" xmlns:xlink="http://www.w3.org/1999/xlink" x="0px" y="0px"
	 viewBox="0 0 190.9 190.9" style="enable-background:new 0 0 190.9 190.9;" xml:space="preserve">
<style type="text/css">
	.st0{clip-path:url(#SVGID_00000039821599091676412160000018208249108438908338_);fill:#F7B116;}
	
		.st1{opacity:0.21;clip-path:url(#SVGID_00000039821599091676412160000018208249108438908338_);fill:none;stroke:#FEF6D7;stroke-width:12;stroke-miterlimit:10;}
</style>
<g>
	<defs>
		<path id="SVGID_1_" d="M190.9,95.4c0,8.1-11.7,14.5-13.7,21.9s4.8,19.1,0.9,25.8s-17.3,6.5-22.9,12.1s-5.2,18.9-12.1,22.9
			s-18.1-3-25.8-0.9s-13.8,13.7-21.9,13.7S81,179.1,73.5,177.1s-19.1,4.8-25.8,0.9s-6.5-17.3-12.1-22.9s-18.9-5.2-22.9-12.1
			s3-18.1,0.9-25.8S0,103.5,0,95.4S11.7,81,13.7,73.5s-4.8-19.1-0.9-25.8s17.3-6.5,22.9-12.1s5.2-18.9,12.1-22.9s18.1,3,25.8,0.9
			S87.4,0,95.4,0s14.5,11.7,21.9,13.7s19.1-4.8,25.8-0.9s6.5,17.3,12.1,22.9s18.9,5.2,22.9,12.1s-3,18.1-0.9,25.8
			S190.9,87.4,190.9,95.4L190.9,95.4z"/>
	</defs>
	<clipPath id="SVGID_00000101079011956065411260000004647049625465284267_">
		<use xlink:href="#SVGID_1_"  style="overflow:visible;"/>
	</clipPath>
	<path style="clip-path:url(#SVGID_00000101079011956065411260000004647049625465284267_);fill:#F7B116;" d="M190.9,95.4
		c0,8.1-11.7,14.5-13.7,21.9s4.8,19.1,0.9,25.8s-17.3,6.5-22.9,12.1s-5.2,18.9-12.1,22.9s-18.1-3-25.8-0.9s-13.8,13.7-21.9,13.7
		S81,179.1,73.5,177.1s-19.1,4.8-25.8,0.9s-6.5-17.3-12.1-22.9s-18.9-5.2-22.9-12.1s3-18.1,0.9-25.8S0,103.5,0,95.4
		S11.7,81,13.7,73.5s-4.8-19.1-0.9-25.8s17.3-6.5,22.9-12.1s5.2-18.9,12.1-22.9s18.1,3,25.8,0.9S87.4,0,95.4,0s14.5,11.7,21.9,13.7
		s19.1-4.8,25.8-0.9s6.5,17.3,12.1,22.9s18.9,5.2,22.9,12.1s-3,18.1-0.9,25.8S190.9,87.4,190.9,95.4L190.9,95.4z"/>
	
		<line style="opacity:0.21;clip-path:url(#SVGID_00000101079011956065411260000004647049625465284267_);fill:none;stroke:#FEF6D7;stroke-width:12;stroke-miterlimit:10;" x1="13.9" y1="-44.9" x2="-118" y2="205"/>
	
		<line style="opacity:0.21;clip-path:url(#SVGID_00000101079011956065411260000004647049625465284267_);fill:none;stroke:#FEF6D7;stroke-width:12;stroke-miterlimit:10;" x1="39.7" y1="-44.9" x2="-92.2" y2="205"/>
	
		<line style="opacity:0.21;clip-path:url(#SVGID_00000101079011956065411260000004647049625465284267_);fill:none;stroke:#FEF6D7;stroke-width:12;stroke-miterlimit:10;" x1="65.5" y1="-44.9" x2="-66.4" y2="205"/>
	
		<line style="opacity:0.21;clip-path:url(#SVGID_00000101079011956065411260000004647049625465284267_);fill:none;stroke:#FEF6D7;stroke-width:12;stroke-miterlimit:10;" x1="91.3" y1="-44.9" x2="-40.6" y2="205"/>
	
		<line style="opacity:0.21;clip-path:url(#SVGID_00000101079011956065411260000004647049625465284267_);fill:none;stroke:#FEF6D7;stroke-width:12;stroke-miterlimit:10;" x1="117" y1="-44.9" x2="-14.8" y2="205"/>
	
		<line style="opacity:0.21;clip-path:url(#SVGID_00000101079011956065411260000004647049625465284267_);fill:none;stroke:#FEF6D7;stroke-width:12;stroke-miterlimit:10;" x1="142.8" y1="-44.9" x2="10.9" y2="205"/>
	
		<line style="opacity:0.21;clip-path:url(#SVGID_00000101079011956065411260000004647049625465284267_);fill:none;stroke:#FEF6D7;stroke-width:12;stroke-miterlimit:10;" x1="168.6" y1="-44.9" x2="36.7" y2="205"/>
	
		<line style="opacity:0.21;clip-path:url(#SVGID_00000101079011956065411260000004647049625465284267_);fill:none;stroke:#FEF6D7;stroke-width:12;stroke-miterlimit:10;" x1="194.4" y1="-44.9" x2="62.5" y2="205"/>
	
		<line style="opacity:0.21;clip-path:url(#SVGID_00000101079011956065411260000004647049625465284267_);fill:none;stroke:#FEF6D7;stroke-width:12;stroke-miterlimit:10;" x1="220.2" y1="-44.9" x2="88.3" y2="205"/>
	
		<line style="opacity:0.21;clip-path:url(#SVGID_00000101079011956065411260000004647049625465284267_);fill:none;stroke:#FEF6D7;stroke-width:12;stroke-miterlimit:10;" x1="245.9" y1="-44.9" x2="114.1" y2="205"/>
	
		<line style="opacity:0.21;clip-path:url(#SVGID_00000101079011956065411260000004647049625465284267_);fill:none;stroke:#FEF6D7;stroke-width:12;stroke-miterlimit:10;" x1="271.7" y1="-44.9" x2="139.9" y2="205"/>
	
		<line style="opacity:0.21;clip-path:url(#SVGID_00000101079011956065411260000004647049625465284267_);fill:none;stroke:#FEF6D7;stroke-width:12;stroke-miterlimit:10;" x1="297.5" y1="-44.9" x2="165.6" y2="205"/>
	
		<line style="opacity:0.21;clip-path:url(#SVGID_00000101079011956065411260000004647049625465284267_);fill:none;stroke:#FEF6D7;stroke-width:12;stroke-miterlimit:10;" x1="323.3" y1="-44.9" x2="191.4" y2="205"/>
</g>
</svg>
