<?xml version="1.0" encoding="utf-8"?>
<!-- Generator: Adobe Illustrator 26.2.1, SVG Export Plug-In . SVG Version: 6.00 Build 0)  -->
<svg version="1.1" id="a" xmlns="http://www.w3.org/2000/svg" xmlns:xlink="http://www.w3.org/1999/xlink" x="0px" y="0px"
	 viewBox="0 0 190.9 190.9" style="enable-background:new 0 0 190.9 190.9;" xml:space="preserve">
<style type="text/css">
	.st0{fill:#D4E2E6;}
	.st1{fill:#DBE9EB;}
	.st2{fill:#D3E1E5;}
	.st3{fill:#D4E4E6;}
	.st4{fill:#D3E2E5;}
	.st5{fill:#D4E4E7;}
	.st6{fill:#D8E5E9;}
	.st7{fill:#D9E5E9;}
	.st8{fill:#DBE8EB;}
</style>
<g>
	<path class="st0" d="M179.5,54.9c1.3,2.3,1.9,4.6,2.6,7.2c-1.5,1.9-3.2,3.3-4.5,5.1c-0.5,0.8-1.5,1.1-2.4,0.6
		c-1.1-0.5-0.4-1.3-0.2-2.1c0.6-2.1-0.2-3.5-2.6-4.7c-0.1,0.7,0.5,1,0.8,1.4c1.9,2.3,1.9,2.4,0.1,4.9c-1,1.4,0,2.2,1,2.7
		c1.6,0.8,2.3,1.7,1.3,3.4c-0.2,0.4-0.3,0.9-0.1,1.2c1.4,1.6,1.1,3-0.1,4.5c-0.5,0.6-0.3,1.4,0.2,2c1.8,2.4,1.7,4.9,1.3,7.8
		c-0.5,3.3-1.1,6.8,1.3,9.7c1.2,1.5,0.5,3,0.5,4.6c0,1.9-0.9,2.7-2.3,3.7c-1.6,1.2-3.6,1.8-4.7,3.7c-0.6,1.1-1.7,2.3,0.6,2.8
		c0.7,0.1,0.8,0.7,0.6,1.3c-0.5,1.1-5.4,4.2-6.6,4.1c-0.4,0-0.8-0.3-1.2-0.6c-0.1-0.4-0.2-0.7,0-0.8c3.8-1.7,2.8-5.9,4.5-8.7
		c1-1.8-0.5-3.4-0.6-5.1c-0.1-1.8,0-3.8-1.8-5.3c-1-0.8,0.4-4.2,2.2-4.7c2.3-0.7,3-1.9,2.7-4.2c-0.3-1.9,1.7-3.6,1.5-5.2
		c-0.3-1.7-1.6-3.2-1.5-5.2c0-0.5,0.2-1.2-0.2-1.3c-2.4-0.9-1.2-2.1-0.3-3.3c0.5-0.7,0.6-1.5,0.2-2.3c-1.5-3.3-3.1-6.5-5.9-9
		c-1.2-1.1-1.3-2.2-1.2-3.9c0.2-3.4-0.3-6.8-3.5-8.9c-2.8-1.9-4.7-4.9-7.8-6.4c-0.7-0.3-1-1.1-1.2-1.8c-0.3-0.8-0.7-1.5-1.4-1.9
		c-1.7-0.8-3.4-1.6-3.3-3.9c0-0.5-0.6-0.7-1-0.9c-4-1.1-7.7-2.9-11.6-4c-2.6-0.7-4.2-3.8-7.4-3.2c-2.7-2.6-6.4-3.9-8.5-7.3
		c-1.2-1.9-4-2.8-6.7-2.8c-1,0-1.1,0.8-1,1.6c0.1,1.5-0.8,2-2.1,2c-2.1,0.1-4,0.2-5.6-1.8c-1.1-1.4-3.2-1.8-5.2-1.2
		c-3.2,1-6.6,0.3-9.8,1.2c-1.4,0.4-2.8-0.5-4-1.3c-1.5-1-2.7-1-3.6,0.6c-0.8,1.3-1.9,1.6-3.3,1.3c-1.3-0.3-2.6-0.3-3.8-0.5
		c-0.6-0.1-1.3-0.2-1.6,0.3c-1.8,2.8-5.9,2.4-7.5,5.4c-0.2,0.3-0.5,0.5-0.8,0.4c-2.9-0.1-4.3,1.9-5.7,3.9c-1.1,1.7-3.2,2.4-4.1,4.3
		c-0.4,0.7-1.1,0.5-1.6-0.1c-0.8-0.9-1.6-0.7-2.5-0.1c-1,0.7-0.7,1.5-0.2,2.3c0.1,0.2,0.3,0.5,0.2,0.7c-1.2,2.5-1,5.7-3.1,7.6
		c-3.7,3.4-6.9,7.2-9.4,11.5c-0.6,1.1-1.1,2.1-2.4,2.6c-1,0.5-1.7,4.4-1,6.1c1.6,3.4,0.3,6.4-1.1,9.4c-0.9,2-1.7,4.2-2.9,6.3
		c-0.3,0.6-0.3,1.1-0.3,1.6c0.2,1.1,0,2.1-1.2,2.5c-1.3,0.4-2.5,0.4-3.2-1.3c0.8-1.4,2.2-2.3,2.1-4.1c-0.3-0.4-0.7-0.2-1.1-0.1
		c-2.1,0.7-3.2-0.3-3.8-2.2c-0.3-0.8-0.5-1.7-1.4-2.4c-0.2-1.7,0-3.3-0.1-5.1c2.9-0.7,4.5,0.5,4.8,3.3c0.1,0.9-0.8,2.4,0.7,2.6
		c1.2,0.2,2.4-0.7,2.8-1.9c1.1-3.7,3-7.4,0.9-11.4c-1-1.9-0.6-3.5,1.1-4.9c1.3-1.1,2.2-2.5,2.8-4.1c0.6-1.7,1.7-3.1,3.3-4
		c3-1.8,4.2-4.6,4.4-7.8c0.1-1.3,0.5-2.1,1.7-2.6c1.8-0.7,2.7-1.9,3-3.9c0.5-3.6,1-3.9,4.5-4.1c0.6,0,1.2,0,1.1-0.8
		c-0.4-2.2,0.8-4.2,0.7-6.4c-0.2-2.5,1.6-3.4,3.8-1.9c1,0.6,1.8,0.9,2.4-0.3c0.8-1.3-0.7-1.3-1.2-1.9c-1.7-2.3-5.2-2.3-6.1-5.5
		c6.7-4,14-6.2,21.4-7.8c3.3-0.7,6.7-1.4,10.4-1.5c0.9-0.5,1.6-0.1,2.5-0.4c3.2-0.1,6.3-0.1,9.6-0.1c0.9,0.5,1.6,0.1,2.5,0.4
		c7.6,0.5,14.9,2.1,22.1,4.1c12.4,3.6,24.1,8.9,34.9,16.1c9,6.1,16.8,13.4,22,23.2c0.9,1.7,1.6,3.5,2.5,5.4
		c-1.2,1.1-2.2-0.1-3.3-0.2c-0.6-0.1-1.3-0.5-1.8,0.1c-0.5,0.7,0.2,1.2,0.6,1.6c1.8,1.8,2.7,4.2,3.8,6.8c1.3-1.5,0.7-2.7,0.3-3.9
		C178.2,56.7,177.4,55.3,179.5,54.9z"/>
	<path class="st1" d="M97.8,4.5c-0.7,0.1-1.5,0-2.3-0.2c0.6-0.1,1.2-0.1,2.1-0.1C97.8,4.1,97.8,4.4,97.8,4.5z"/>
	<path class="st1" d="M85.5,4.1c-0.3,0.7-1.1,0.4-2,0.5c-0.2-0.1-0.2-0.2-0.2-0.4C84,4.1,84.7,4.1,85.5,4.1z"/>
	<path class="st2" d="M165,117.9c2.9,1.1,4-1.8,6.1-2.3c0.6-0.2,1.1-0.9,1.8-1.5c-1-0.6-3,0.3-2.7-1.4c0.2-1.5,0.7-3.4,2.3-3.9
		c2.1-0.6,2.9-3.3,5.3-3.3c0.1,0,0.2-0.2,0.3-0.3c0.5-0.8,0.2-5.6-0.4-6.5c-1.2-1.9-1.6-3.9-1.6-6.3c-0.1-3,1.6-5.9,0.4-8.9
		c-0.3-0.6-0.2-1.4-0.9-1.8c-1.7-1.1-1.4-2.4-0.2-3.6c0.9-0.9,1.5-1.7,0-2.6c-1.2-0.7-0.8-1.6-0.2-2.5c0.8-1.1,1-1.6-0.6-2.1
		c-2.5-0.8-2.8-2.8-0.7-4.4c0.7-0.6,0.6-1.2,0.3-1.9c-0.5-1.1-1.4-1.7-2.2-2.6c-0.4-0.5-1.1-0.9-0.5-1.6c0.6-0.7,1.2-0.2,1.8,0
		c2.1,0.9,3.2,3.8,2.3,5.9c-0.1,0.4-0.6,0.7-0.2,1.1c0.4,0.4,0.9,0.3,1.3,0.1c0.6-0.3,0.9-0.8,1.3-1.4c1-1.5,2.1-3,4.2-3.7
		c2.5,5.4,3.5,11.3,4.9,17c1.5,6.6,2.1,13.4,2.1,20.3c-0.1,8-1.9,15.7-3.6,23.4c-1.1,5-2.5,9.9-5,14.7c-1.5,0.2-1.6-1.5-2.8-1.9
		c-0.8,1-1.2,2.1-1.3,3.4c-0.2,1.9-1.3,3.2-3.1,3.5c-1.6,0.2-2.6,1.1-3.6,2.2c-2.2,2.5-5.3,3.9-7.8,6c-0.7,0.6-1.7,0.7-2.5,0
		c-0.8-0.8-1-1.8-0.7-2.9c1-3.4,0.9-3.7-2.1-5.8c-0.8-0.6-1.6-5.9-1-6.6c0.9-1.1,2.7-1.3,4.1-0.3c0.9,0.7,1.8,0.8,2.9,0.4
		c2.5-0.9,2.5-0.8,1.2-3.2c-1.4-2.6-1.2-5.3,0.3-8c0.1-0.3,0.2-0.4,0.3-0.6c0.3-0.4,0.7-0.6,1-0.9c2-1.7,1.8-2.3-0.8-3.2
		C163.6,118.8,164,118.2,165,117.9z"/>
	<path class="st3" d="M20.9,69.3c0.5,1.8,0.8,3.4,0,5.3c0.6,0.9,0.6,1.8,0.5,2.8c-0.1,0.9-0.8,1.8,0.7,2.2c1.5,0.8,2.9,1.4,3.2,3.3
		c0.1,1.9,1.4,1.7,2.6,1.5c1.5-0.2,0.8-1.3,0.7-2.2c0-0.4,0.1-0.9,0.3-1.5c1.8,0.1,1.7,1.5,1.7,2.7c0,2.2,0.3,4.3,0.3,6.5
		c0,1.4,0.7,1.7,1.8,1.2c1.2-0.6,2.3-1.1,2.5-2.7c0.2-1.4,1.4-2.1,2-3.4c0.3-0.4,0.5-0.5,0.9-0.6c1.6,1,1.2,2.2,0.4,3.6
		c-0.4,0.4-0.9,0.6-1.1,1.2c-0.1,0.6-0.1,1-0.1,1.6c0.1,2.1-0.8,3.9-1.3,5.7c-0.3,1.3-1.4,2.2-2.7,2.4c-1.3,0.3-1.6-1-2.7-2.2
		c0.7,3.4-0.2,6-0.9,8.9c-2.6,0.7-3.6,0.1-4.2-2.1c-0.3-1.1-0.2-2.2-1.2-3.6c0.2,2.1,0.1,3.6-0.3,5.2c-0.2,0.7,0.1,1.4,0.7,1.6
		c2.1,0.8,2.9,2.7,3.7,4.5c0.5,1,1.1,1.9,2.1,2.8c2.2,1.6,3.4,4,5.4,5.6c1.3,1,2.5,1.9,4.2,2.5c0.5,0.6,0.7,1.2,0.9,2.1
		c0,3.2-0.5,3.9-3.3,4.5c-1.6,0.3-3.1,1.3-4.9,1.5c-2.7-0.1-3.7-2.4-5.3-3.7c-2.2-1.9-4.2-4.1-5.2-7.2c1.5-3.3,0.8-6.5,0.4-9.8
		c-0.6,0.4-1.5,0.4-2.2,1.2c-1.1,1-2.4,1.3-3.7,1.1c-0.9-0.1-1.8-0.2-2.6,0.2c-1.7,0.9-2.9,0.5-3.8-1.2c-0.7-1.5-2.2-2-3.7-2.9
		c-0.5-3-0.8-6-1.1-9.1c1.3-1.2,2.5-0.4,3.5,0.3c1.8,1.1,3.6,2.2,5.5,2.9c0.7,0.2,1.4,0.5,1.2-0.6c-0.4-2,0.8-3,2.3-3.9
		c-2.4-1-2.4-1-2.7,1.2c-0.1,1.5-1.1,1.4-2.1,1.1c-2.1-0.6-3.7-3.5-3.1-5.6c0.4-1.3,0.5-2.5,0.1-3.8c-0.4-1.1-0.7-2.2,0.4-3.1
		c1-0.8,2.2-1,3.4-0.5c0.6,0.2,1.2,0.5,1.9,0.7c0.3-2.3,0.1-4.7,0.9-6.9c0.2-0.5,0.1-1,0-1.4c-0.1-0.4-0.2-0.8-0.6-0.9
		c-0.5-0.1-0.7,0.3-0.8,0.7c-0.6,1.9-1.8,2.7-3.7,2.8c-1,0.1-1.7,0.9-2.5,1.5c-1.3,0.8-2.6,1.4-4.1,0c0.7-8.2,3.1-15.8,6.1-23.3
		c0.5-1.3,1.1-2.5,1.8-3.8c1.3-0.4,1.7,0.5,2.2,1.2c2,2.2,4.3,2.5,6.8,0.8c0.3-0.2,0.6-0.5,0.9-0.7c1-0.6,2-1.9,3.2-0.8
		c1.1,1-0.2,2.2-0.7,3.2c-0.3,0.6-0.7,1.2-1.3,1.4c-2,0.9-2.8,2.5-3.3,4.6c-0.2,0.6-0.4,1-0.4,1.6C21,68.1,21,68.6,20.9,69.3z"/>
	<path class="st2" d="M22.8,118.7c1.4,3.1,3.3,5.8,5.9,7.6c1.3,0.9,1.7,2.7,3.6,3.2c1.3,1.2,1.3,2.6,0.9,4c-0.3,0.9-0.7,1.8-0.7,2.9
		c0,0.5,0,0.8,0,1.3c-0.1,0.5,0,0.9,0.5,1.2c0.2,0.2,0.3,0.2,0.5,0.4c1.6,2,0.9,3.9,0.1,5.9c-0.7,1.7-0.7,3.4-1.1,5
		c-0.4,1.8,1.1,2.8,3.9,2.7c1.6-0.1,2.1,1.4,3.5,1.8c1.3,0.7,2.4,1.5,4.1,1c3.7,0,6.7,3.4,6.5,7.4c-0.3,0.8-1,1.5-0.4,2.1
		c2.7,2.7,0.4,4.9-0.8,7.3c-5.2-1.7-9.6-4.8-13.7-8c-10.4-8.1-17.4-18.7-22-31c-0.1-0.4-0.2-0.8-0.3-1.3c0.1-0.9,0.6-1.3,0.9-1.8
		c0.3-0.5,0.5-1.1,0.1-1.6c-0.7-0.7-1.1,0-1.8,0.3c-2.5-5.2-3.3-10.9-4.5-16.5c-0.3-1.5-0.6-3-0.9-4.6c2-0.2,3.5,0.7,4.3,2.6
		c0.6,1.4,1.5,1.8,2.8,0.9c0.8-0.5,1.7-0.7,2.7-0.4c1.1,0.3,2.4,0.3,3.5-0.8c2.4,0.3,3.5,1.5,3.2,3.5
		C23.1,115.3,23.7,117,22.8,118.7z"/>
	<path class="st2" d="M21,69.5c-0.8-0.4-0.6-1-0.7-1.8c0.2-0.3,0.3-0.5,0.5-0.6c0.5-0.4,1,0.1,1.5-0.1c-0.5-0.2-1.1-0.1-1.5-0.8
		c0.2-2.5,0.7-4.7,3.4-5.6c1.3-0.5,1.5-2.2,2.1-3.4c0.1-0.1,0-0.5-0.2-0.6c-0.5-0.3-0.9,0.1-1.3,0.3c-1.6,0.7-2.5,2.2-4.5,2.6
		c-2.6,0.5-4.2-0.1-5.5-2.2c-0.3-0.5-0.7-0.8-1.3-1.3c2.8-7.4,7.2-13.8,11.7-20.3c0.4-0.7,1-1.3,1.6-2c0.5-0.4,1-0.6,1.4-0.6
		c1.8-0.1,2.3-1,1.6-2.7c0.1-0.2,0.1-0.4,0.1-0.5c0.5-0.4,1.1-0.7,1.4-1.5c2.7-3.9,6-6.9,10.1-9.3c1.1,0.1,1.6,0.9,2.2,1.5
		c0.5,0.5,0.9,1.2,1.8,0.8c0.9-0.4,0.7-1.1,0.5-1.8c-0.4-1.1-0.2-2.2,0.5-3.3c1.3-1.5,2.9-2,4.8-2.5c1.2,1.3,2.1,2.6,4,2.7
		c0.8,0,1.2,0.8,1.4,1.5c0.2,0.7,0.5,1.2,1.3,1c0.7-0.2,1.5-0.6,1.7,0.6c0.2,1.1,0.1,2.3-1,3c-0.8,0.5-1.7,0.8-2.4,0
		c-0.6-0.7-0.9-1.9-2.2-1.2c-1.2,0.7-1.3,1.9-1,3c0.3,0.9,0.1,1.7-0.3,2.5c-0.3,0.7-0.8,1.7-0.5,2.3c1.6,3.1-0.2,2.5-2.1,2.2
		c-2.1-0.4-3.3,0.7-3.3,3.8c0,2.7-1.6,3.6-3.6,4.4c-0.7,0.3-1.2,0.4-1.2,1.4c0.2,3.8-1.2,6.9-4.7,8.9c-1.3,0.7-2.3,1.8-2.7,3.3
		c-0.7,2.3-2.1,4-3.8,5.5c-1,0.9-1.1,1.7-0.6,2.9c1.1,3,2.5,6,0.2,9.2C30,71,30.2,71.8,30,72.5c-0.4,1.4-0.8,2.8-2.3,3.5
		c-2.5,1.2-3.4,0.8-3-1.8C25.2,71.1,23.5,70.2,21,69.5z"/>
	<path class="st0" d="M164.5,124.1c-0.3,2.1-1.6,3.8-0.9,6.1c0.3,1.1,0.7,2,1.4,2.9c1.1,1.3,0.7,2.4-1,2.7c-0.6,0.1-1.2,0.3-1.8,0.6
		c-1,0.6-2,0.6-2.7-0.5c-1-1.6-2.3-1-3.4-0.3c-1.5,0.9,0.3,2,0.2,2.5c-1.2,3.3,2.3,4.1,3.2,6.1c0.6,1.3,0.9,2.2,0,3.3
		c-1,1.1-0.6,2.2,0.1,3c0.9,1,1.9,0,2.5-0.6c2.4-2.4,6-3.5,7.9-6.5c0.6-0.9,1.6-1.2,2.7-1.3c2.1-0.1,3.3-1.6,2.9-3.5
		c-0.4-1.6,1.9-2.2,1-3.9c-0.1-0.2,1-0.2,1.3,0.2c0.7,0.9,1.3,1.8,2.1,2.8c-0.9,3.7-3.3,6.5-5.3,9.5c-0.5,0.7-1.1,1.4-1.7,2.1
		c-1.4,0.4-2.5-0.4-3.6-0.5c-1.1-0.2-2.1-0.1-2.6,1.1c-0.5,1.1,0,1.8,1,2.2c0.7,0.3,1.4,0.8,1.2,1.9c-1.6,2.1-3.4,3.7-5.3,5.4
		c-0.7,0.5-1.4,0.7-2,1.4c-1.2,1.7-2.7,2.7-4.3,3.9c-1.3-1.4-0.5-2.6,0.5-3.9c-2.1,0.7-4.3,0.1-6.5,0.6c-2.1,0.4-4.2-0.9-6.4-0.6
		c-0.3,0-0.7-0.2-0.9-0.1c-2.7,1.8-6,0.4-8.9,1.5c-0.8,0.3-1.8,0.5-2.5-0.2c-0.8-0.7-0.1-1.5,0.2-2.2c0.6-1,0.3-1.6-0.7-2.1
		c-0.9-0.4-1.6-1-1.6-2c0.1-2.2-1-2.8-2.9-2.5c-0.2,0-0.5-0.1-0.8-0.3c0.1-2.5,2.3-2.6,3.9-3c1.1-0.3,1.8-0.4,1.9-1.8
		c0.2-1.8,1.8-2.6,3.4-3.1c1.2-0.4,2.5-0.5,3.8-0.8c1.5-0.3,2.3,0.1,2.1,1.9c-0.1,0.8-0.3,1.6,0.4,2.4c1.1-1,1.8-2.5,3.7-2.4
		c0.9,0.2,1.5,1.1,2.4,0.5c0.7-0.4,1.2-1,1.3-1.9c0-0.4,0-0.9-0.4-1c-0.9-0.4-1.2,0.6-1.7,0.9c-0.3,0.2-0.6,0.5-1.2,0.6
		c-1.3-1.2-0.7-4.4,0.8-5.4c0.5-0.3,1.2-0.5,1.9-0.9c3.5-1.2,4.5-4.7,6.6-7c0.3-0.3,0.3-0.9,0.2-1.4c-1-3,0.9-5.1,2.5-7.2
		C159.9,121.5,161.5,121.8,164.5,124.1z"/>
	<path class="st2" d="M126.8,152.9c0.4-0.2,0.8-0.1,1.1-0.2c2.3-0.4,4-0.3,3.4,2.9c-0.2,1.1,0.8,1.6,1.6,1.8c1.7,0.3,2,0.9,0.9,2.3
		c-0.4,0.5-1.5,1.2-0.7,2c0.6,0.6,1.5,0.3,2.3-0.2c1-0.6,2.2-0.7,3.3-0.5c1.7,0.2,3-0.2,4.7-0.9c1.5-0.6,3.9-0.5,5.8,0.4
		c1.1,0.6,2.2,0.6,3.2,0.2c1.1-0.4,2.1-1.1,3.3,0c0.5,0.5,1-0.3,1.4-0.6c0.6-0.5,1.2-0.9,1.8,0c0.5,0.7,0.5,1.5-0.4,1.7
		c-1.5,0.5-0.9,1.7-1,2.8c-9.4,7.4-19.4,13.4-31.3,16.1c-3.8-1-7.4-2-10.9-3.2c-3-1.1-3.2-1.9-0.9-3.9c1.1-0.9,0.5-1.3-0.4-1.7
		c-1.4-0.7-2.9-1.1-3.7-2.7c-0.2-0.9,0.1-1.7,0.1-2.6c0.2-1.3,0.3-2.4,2.1-1.9c2,3.5,5.7,3,8.9,4c0.7,0.2,1.2,0.4,1.7,0.7
		c0.5,0.3,0.9,0.8,0.8,1.4c-0.1,0.7-0.7,1.1-1.3,1.2c-0.8,0.2-1.6,0-2.4,0c-0.5,0-1,0.1-1.1,0.7c-0.1,0.6,0.1,1,0.7,1
		c1.3,0,2,1,2.9,1.6c1.1,0.7,1.9,0.8,1.7-0.9c-0.2-1.3,0.6-2.1,1.6-2.7c0.3-0.1,0.6-0.3,0.8-0.5c0.8-0.5,1.8-1,1.7-2.1
		c-0.2-1.2-1.5-0.7-2.3-1.2c-1.1-1.3-2.5-1.7-3.8-2.4c-1.1-0.6-2.9-1.2-2-2.9c0.8-1.6,2.1-1.7,3.8-0.8c2.3,1.3,4.9-0.4,5.1-3.2
		c0.1-1.9,0-3.7-2.2-4.8C126.6,153.5,126.6,153.3,126.8,152.9z"/>
	<path class="st0" d="M5.4,83.3c1.9,0.6,3.4,0.1,4.7-1.4c0.2-0.2,0.3-0.4,0.5-0.5c2.5-0.3,4.5-1.3,5.2-4.1c0.2-0.9,1.2-0.4,1.6,0.3
		c0.7,1.2,0.7,2.5,0.3,3.7C17,83.7,17,86,17.2,88.6c-1-0.4-2.1-0.7-2.9-1.3c-1.2-0.8-2.2-0.1-3.1,0.4c-0.9,0.5-0.3,1.4,0,2.2
		c0.5,1.5,0.7,2.9,0,4.4c-0.7,1.6,1.3,4.7,3,5c1.3,0.2,1.4-0.4,0.9-1.4c-0.3-0.7-1-1.6,0.3-1.9c1.5-0.2,3.2-0.4,4.2,1.1
		c0.4,0.6-0.4,0.6-0.8,0.8c-1.6,0.6-2.7,1.4-1.9,3.4c0.2,0.5,0.3,1.2-0.2,1.6c-0.7,0.6-1.1-0.2-1.7-0.4c-3.2-0.8-5.4-3.7-9-4.2
		C5,93.5,5.5,88.5,5.4,83.3z"/>
	<path class="st0" d="M87.3,184.6c-1.7-0.5-3.5-0.1-5.3-0.6c-0.4-0.4-0.6-0.8-0.6-1.2c0-1,1-1.9-0.1-2.9c-1.3-1.2-2.8-2.1-4.5-2.7
		c-0.6-0.2-0.9,0.1-0.9,0.7c0,1.5-1,2.4-2.2,3.4c-1-0.2-1.9-0.4-2.9-0.8c-0.5-0.5-0.5-1-0.4-1.4c0.3-1.5-0.5-2.2-1.8-2.6
		c-2.3-0.8-4.4-2.1-6.6-3.2c-2.8-1.5-6.2-2.4-9.8-1.5c-1.2-2.1,0.2-3.2,1.7-4.3c2.1-0.6,4-0.1,5.7,0.7c1.3,0.6,2.5,1.4,3.8,2
		c1.3,0.6,2.4,0.8,3.8,0.5c1.4-0.3,2.7,0.5,3.3,1.9c0.5,1.1,0.9,1.5,2.3,1.4c3.8-0.1,7.2,1.1,10.1,3.6c1.4,1.2,3,0.6,4.4,0.6
		c2.9-0.1,5.7,0.3,8.6-0.1c1.5-0.2,2.4-0.5,2.4-2.3c0-1.2,0.3-2.1,2-1.6c1,2.3,0.5,4.1-1.5,5.7c-0.7,0.3-1.3,0.4-1.8,0.4
		c-1.3,0-2.3,0.2-1.8,1.9c0.3,1-0.1,1.8-1.1,2.1c-1,0.3-1.8,0-2.1-1c-0.7-1.9-2.1-1.6-3.6-1.3C86.6,182,87.9,183.6,87.3,184.6z"/>
	<path class="st4" d="M110.3,169.2c1.3,1.3,2.9,1.9,4.5,2.5c0.6,0.2,1.3,0.3,1.4,1.1c0.1,0.8-0.8,0.9-1.2,1.3
		c-0.6,0.6-2.1,0.3-1.8,1.5c0.2,1,1.4,1.1,2.3,1.4c3.5,1.1,7,2.3,10.5,3.6c-4.5,1.2-9,2.2-13.8,2.6c-1.5-2-1.3-2.7,0.9-3
		c0.7-0.1,1.4-0.1,2.4-0.4c-0.8-0.6-1.6-0.9-2.4-0.8c-3.4,0.4-4.9-2.2-6.6-4.3c-1-1.3-0.4-2.5,0.8-3.2
		C108.2,170.9,109.1,170,110.3,169.2z"/>
	<path class="st0" d="M110.5,169.1c-0.6,1.5-1.6,2.2-2.9,2.8c-1.4,0.7-1.9,1.6-0.6,3c1.8,1.9,3.3,4.3,6.6,3.6c1.2-0.3,2,1.3,3.4,1.2
		c-1.1,1-2.4,1.3-3.7,1.2c-1.7-0.1-2.2,0.5-1.5,2.3c-0.7,1-1.6,0.5-2.7,0.7c-0.4-0.2-0.5-0.4-0.5-0.6c-0.3-2.9-0.3-2.9-3.6-2.3
		c-1.3,0.1-2.4,0.2-3.4-0.8c-1.1-2.5-0.3-4.8,0.5-7.2c0.9-1.6,1.9-2.7,2.8-4.1c1.4-2.1,3.8-1.6,5.9-2.1
		C110.8,167.5,110.6,168.2,110.5,169.1z"/>
	<path class="st2" d="M52.2,171.8c2.1-1.5,4.1-0.9,6.3-0.5c4.3,0.7,7.2,4.1,11.4,4.9c2.2,0.4,1.2,2.3,0.8,4
		c-6.3-1.3-12.4-3-18.3-5.9c-0.4-0.6-0.6-1-0.6-1.8C51.9,172.2,52,172,52.2,171.8z"/>
	<path class="st4" d="M101.6,179.8c1.1,0.7,2.1,0.6,3.3,0.6c1.1,1.1,1,2.3,0.3,3.7c-6,0.9-11.8,1.8-17.8,0.7
		c-0.2-0.1-0.2-0.2-0.2-0.3c0.3-1.1-1.6-2-0.6-2.8c1.2-1,3-1,4.6-0.8c1.2,0.1,1.3,1,1.4,1.9c0,0.7,0.5,1,1.1,0.9
		c0.7-0.1,1.4-0.6,1.2-1.2c-1.9-4,1.2-2.9,3.3-3.1c0.8,0.8,0.2,1.3-0.2,1.9c-0.3,0.6-0.8,1.2,0,1.6c0.8,0.4,1.1-0.5,1.4-1
		c0.4-0.7,0.3-1.8,1.2-2.3C100.8,179.5,101.2,179.5,101.6,179.8z"/>
	<path class="st4" d="M73.8,181.3c0.2-1.7,2.4-2.7,1.4-4.8c-0.1-0.3,0.6-0.5,1-0.3c2.3,0.9,4.5,2,6.3,3.8c0.5,0.5,0.4,1,0,1.5
		c-0.5,0.6-0.6,1.3-0.6,2.2c-1.8,0.1-3.6,0.4-4.9-1.4C76.4,181.5,75.1,181.3,73.8,181.3z"/>
	<path class="st2" d="M179.7,54.8c-1.5,0.5-1,1.6-0.7,2.4c0.1,0.5,0.7,0.9,0.8,1.5c0.4,1.3,0.4,3.1-0.8,3.6c-1.5,0.6-1.8-1.2-2-2.3
		c-0.5-2-1.6-3.4-3-4.8c-0.7-0.7-1.4-1.4-0.9-2.5c0.5-1.1,1.5-0.6,2.3-0.3c1.1,0.3,2.3,0.7,3.6,1C179.3,53.9,179.5,54.3,179.7,54.8z
		"/>
	<path class="st4" d="M169.2,154.1c-0.2-1.1-1-1.6-1.9-1.7c-1.5-0.2-1.6-0.9-1.2-2.1c0.4-1.3,0.7-2.7,2.4-2.4
		c1.4,0.2,2.9,0.5,4.3,1.3C172,151.2,170.6,152.6,169.2,154.1z"/>
	<path class="st3" d="M52.3,171.4c0,0.3,0,0.4,0,0.6c-0.4,0.6-0.5,1.2-1.3,1.5c-0.7-0.2-1.3-0.4-2-0.8c0.2-1,0.5-1.9,0.9-2.8
		c0.6-1.6,1.6-3.2-0.7-4.4c-0.5-0.3-0.6-1.5,0.5-2c1.2,1.7,3.1,2.2,4.5,3.7c0,0.6,0.1,1.4-0.4,1.4C52.1,168.8,52.3,170.1,52.3,171.4
		z"/>
	<path class="st0" d="M46.3,16.2c0.3,1.4-0.4,2.9,0.5,4.3c0.5,0.7-0.4,1.2-1,1.6c-0.8,0.4-1.5,0.5-2.1-0.3c-0.6-0.8-1.3-1.6-2-2.5
		C42.9,17.7,44.5,16.9,46.3,16.2z"/>
	<path class="st2" d="M105.3,184.2c-0.2-1.1-0.2-2.3-0.2-3.7c0.1-0.3,0.3-0.4,0.4-0.4c3.6-1,4.3-0.4,3.4,3.4
		C107.9,184.7,106.7,184,105.3,184.2z"/>
	<path class="st5" d="M12.1,129.3c0.5-1.2,1-2.3,2.3-1.4c1.1,0.8,0.9,2,0.1,2.9c-0.3,0.4-0.7,0.7-1.2,1.1
		C12.4,131.3,12.1,130.4,12.1,129.3z"/>
	<path class="st0" d="M29.9,30.3c0.3,0.8,2,1.2,1.3,2.2c-0.8,1.3-2.3,1.1-3.9,1.1C27.9,32.5,28.6,31.3,29.9,30.3z"/>
	<path class="st0" d="M51,173.7c0.3-0.6,0.7-1,1.2-1.5c0.1,0.5,0.1,1,0.1,1.7C51.9,174,51.5,173.9,51,173.7z"/>
	<path class="st5" d="M161.9,161c-0.1-1,0.4-1.5,1.6-1.5C163.3,160.2,162.8,160.8,161.9,161z"/>
	<path class="st0" d="M31.4,28.4c0.2,0.7,0.1,1.4-1.1,1.4C30.5,29.3,30.9,28.9,31.4,28.4z"/>
	<path class="st6" d="M164.7,124.1c-0.2,0.1-0.3,0.2-0.5,0.1c-4.6-1.5-4.6-1.5-7.4,2.6c-0.7,1-0.4,2.2-0.1,3.2
		c0.4,1.3,0.3,2.5-0.9,3.2c-1.7,1.1-1.8,3.4-3.3,4.5c-0.8,0.6-1.7,0.9-2.7,1.4c-1.2-0.5-0.9-1.2-0.6-2c0.2-0.5,0.4-1-0.3-1.1
		c-0.6-0.1-0.9,0.3-0.9,0.8c0.1,2-0.9,2.4-2.6,1.8c-1.4-0.5-2.4,0.3-2.9,1.4c-1.2,2.6-3.4,3.6-6.1,4.2c-2.3,0.5-4.4,1.6-6.3,2.9
		c-1.3,0.8-2.7,1.4-4.5,1.2c-2.2,0.4-2.7,2.3-4,3.7c-1.1,1.4-2.4,2.1-3.9,1.7c-1.9-0.5-2.6,0.6-3.2,2.1c-1.7,3.8-1.7,3.8-5.9,3.7
		c-0.7,0-1.5-0.2-1.6,0.7c-0.2,2.3-1.9,2.6-3.6,2.7c-1.9,0-2.4,0.9-2.5,2.7c-0.1,1.9-0.2,4-2.5,4.8c-0.5,0.2-1,0.4-1.4,0.3
		c-2.1-0.7-3.2,0.3-4.8,1.7c-2.1,1.9-5.2,1-7.9,0.5c-0.9-0.2-1.8-0.7-2.7-0.9c-1.2-0.3-2.7-1.4-2.7,1.3c0,0.9-1,0.8-1.8,0.7
		c-2.1-0.5-4.2-1.1-5.9-2.6c-1.4-1.2-2.9-1.6-4.9-1c-2.1,0.7-4.2-0.4-6-1.7c-1.8-1.3-3.7-2.4-6-2.7c-2.8-0.4-3.7-1.3-3.9-4.2
		c-0.1-1.9-1.6-3-2.6-4.2c-1.7-2.1-3.9-3.9-7-3.4c-2.3,0.4-3.5-1.1-4.2-2.9c-0.7-1.9-1.3-3.8-2.5-5.5c-0.5-0.7-0.6-1.5-0.2-2.3
		c0.7-1.5,0.3-2.8-1-4.1c-0.2-0.1-0.3-0.1-0.5-0.1c-0.3-0.2-0.5-0.4-0.6-0.8c0-0.5,0-0.9,0-1.4c0.1-0.3,0.2-0.5,0.4-0.5
		c1.6,0,2.6-0.3,2.7-2.4c0.1-1.9,1.6-2.4,3.9-1.7c0.7,0.2,1.4,0.7,2,0c0.5-0.6,0.2-1.3,0-2c-0.9-2.3,1.2-6.3,3.5-7
		c0.9-0.2,1.7,0.1,2.5,0.6c1.6,1,2.7,2.4,3.4,4c1.2,2.7,2.8,5.2,4,7.9c0.6,1.5,1.9,1.9,3.1,2.4c1.5,0.6,2.9,1.3,3.9,2.7
		c1.3,1.7,3.2,2.4,5.4,2c1.6-0.3,3-0.3,4.3,0.8c0.8,0.7,1.8,0.4,2.9,0.1c0.6-0.1,0.9-0.1,1.5,0c1.2,0.7,2.2,1,3.4,0.7
		c1-0.2,2.1-0.3,3.1,0c3.7,1,7.2-0.6,10.7-0.8c0.2,0,0.5-0.1,0.7-0.2c2.3-2.5,5.1-1.7,8-1.1c0.6,2.2-1.1,2.2-2.3,2.4
		c-1.4,0.3-2.8,0.4-4.4,0.9c-2.2,0.7-4.1,1.3-6.2,1.8c-2.2,0.6-4.2,0.5-6.4,0c-2.9-0.6-5.9-0.9-8.8,0.3c-1.5,0.7-2.7-0.8-4.3-0.8
		c-2,0-3.9-0.1-5.7-0.2c-3.3-0.2-5.7-2.7-8.4-4.5c-3.4-2.3-4.3-6.3-6.1-9.6c-0.6-1.1-1.2-2.3-2.2-3.2c-0.3-0.3-0.7-0.5-1.1-0.4
		c-0.4,0.2-0.5,0.6-0.4,1c0.3,1.9-0.3,3.8,0.1,5.8c0.4,2-0.4,2.6-2.4,2.5c-0.8,0-1.6-0.1-2.4,0c-1.2,0.1-2,0.7-1.8,2
		c0.2,1.5-0.4,2.5-1.7,3.3c1.7-0.5,2.8-0.7,2.4,1.7c-0.2,1.5,3.3,5.1,5,5.3c2.3,0.2,3.7,1.3,5,3.2c1.2,1.9,2.8,3.5,4.2,5.2
		c0.4,0.4,0.7,0.6,1.2,0.5c0.5,0,1.1-0.1,1.4,0.2c1.6,2.3,4,1.8,6.3,2.1c1,1.2,2.3,1.1,3.5,1.6c1.4,0.6,2.3,1.7,3.7,2.3
		c2.7,2.2,5.6,1.9,8.5,1.6c0.9-0.1,1.2-0.7,1.3-1.4c0.2-1.5,0.8-2.1,2.4-1.7c1.5,0.3,2.4-1,2.4-3.1c0-2.8,0-2.8,2.9-2.3
		c0.5,0.1,1,0,1.4-0.1c1.6-0.5,3.1-1.3,4.9-1.2c0.7,0,1.2-0.7,1.8-1.2c0.6-0.6,1.1-1.4,2.2-1.7c2.5-0.1,4.5-1.2,6.5-2.3
		c1.2-0.7,2.5-1.2,3.7-1.6c1.2-0.4,2.2-0.4,2.9,0.8c0.3,0.5,0.7,1.1,1.3,0.8c0.6-0.2,0.5-0.9,0.6-1.5c0.5-2.9,3.4-5.6,6.1-5.7
		c1.2-0.1,1.1,1.2,1.9,1.8c1-1.3,0.5-2.5,0-3.7c-0.5-1.1-1-2.3,0.2-3.3c1.2-1,2.4-1,3.8-0.2c2.6,1.4,5.9,0.4,7.5-2.1
		c0.2-0.4,0.4-0.8,0.8-0.8c2.3,0.1,4.2-1.7,6.6-1.1c1.7,0.4,2.9-0.3,2.7-2.3c0-0.2,0-0.3,0-0.5c0.9-5,2.8-5.7,6.8-2.6
		c1.5,1.2,3.3,0.5,4-1.6c1.3-3.8,3.9-6.6,6.4-9.6c1.5-1.8,2.9-3.7,4.9-5.1c0.6-0.4,0.1-1-0.1-1.5c-1.4-3.1-2.1-6.1-0.7-9.6
		c1.3-3.5,1.5-7.4,0.5-11.1c-0.7-2.4-0.2-4.8,0-7.2c0.1-1.1,1-1.4,2-1c0.7,0.3,1.2,1.1,2.3,0.9c-0.4-1.7-0.7-3.4-2-4.7
		c-1-1-1.2-2.2-0.6-3.6c1.2-2.8,0.4-4.9-2.6-6c-1.7-0.6-2.6-1.8-3.4-3.2c-0.5-0.9-0.9-1.9,0.1-2.6c1-0.7,2-0.5,2.9,0.3
		c1.2,1.1,1.9,2.5,3.3,4c0-2.1-0.7-3.5-1.8-4.6c-1.2-1.2-1.9-2.6-2.1-4.2c-0.5-3.4-2.4-5.5-5.4-6.8c-1.6-0.7-3.1-1.4-3.5-3.3
		c-0.2-0.9-1.1-1.1-1.8-1.5c-2.5-1.4-4.7-2.9-6.6-5.1c-2.1-2.3-4.6-4.4-7.5-5.8c-1.9-0.9-3.8-1.6-4.9-3.7c-0.7-1.3-2.3-1.7-3.6-2.2
		c-0.5-0.2-1.1-0.3-1.6-0.4c-5.5-0.6-9.3-3.8-12.3-8.1c-1.6-2.3-2.4-2.3-4,0.1c-0.7,0.9-1.5,1.4-2.6,1.5c-1,0.1-1.9,0.5-2.6,1.2
		c-1.1,1.1,0.2,1.7,0.6,2.5c0.5,1.1,0.3,2.1-0.8,2.7c-1.3,0.8-2.8,1.2-4-0.2c-1.8-2.1-3.6-4.1-1.8-7.2c0.9-1.5-0.2-2.6-1.8-2.2
		c-1.8,0.5-3.8,0.7-4.9,2.7c-1.1,1.9-3,2.1-4.9,1.3c-1.5-0.6-3-1-4.7-0.3c-1,0.5-1.9,0-2.6-0.8c-1.1-1.3-2.3-1.2-3.6-0.3
		c-0.7,0.5-1.5,0.9-2.5,0.6c-2.3-0.7-4,0.5-5.6,1.9c-2.5,2.3-4.8,4.8-8,6.1c-1,0.5-1.3,1.3-1.2,2.4c0.1,2.7-0.2,3-2.8,3.3
		c-0.4,0-0.8,0-1.2,0.2c-0.8,0.4-4.1,6.4-3.9,7.3c0.4,1.4-0.2,2.2-1.6,2.4c-2.1,0.3-3.5,1.5-4.4,3.4c-0.3,0.7-0.9,1.1-1.5,1.6
		c-0.9,0.7-1.9,1.2-0.5,2.6c0.8,0.8,0.1,1.7-0.7,2.2c-1,0.7-2,1.4-3.3,1.9c-1.7,0.2-2.1,0.9-1.3,2.3c0.8,1.4,0.5,2.8-0.6,3.9
		c-0.6,0.6-1,1.2-1.1,2.1c-0.3,3.3-1.6,6.3-3,9.1c-1.4,2.7-1.5,5.5-2.1,8.2c-0.1,0.5-0.1,1,0.1,1.4c0.2,0.5,0.6,1,1.2,1
		c0.6,0.1,0.9-0.4,1-0.8c0.6-1.6,1.7-2.3,3.4-2.2c-1.6,2.2-1.3,5.7-4.6,6.8c-0.8,0.3-1.6,0.9-2.5,0.2c-0.8-0.6-0.2-1.5-0.4-2.2
		c-0.5-3,0.5-6.1-1-9c1.2-2.5,2.2-5,3.3-7.5c1-2.4,2.3-5.2,0.4-8.2c-1.1-1.7,0.3-4,0.2-6.1c0-0.1,0.2-0.4,0.3-0.4
		c3.3-0.2,3-3.5,4.6-5.2c2.7-2.9,4.5-6.7,8-8.8c0.8-0.5,1.2-1.3,1.1-2.3c-0.2-1.4,0.2-2.5,1.3-3.4c0.7-0.6,1-1.6,0.4-2.1
		c-2.7-2.2,0.3-2.8,1.2-3.6c1.4-1.2,2.3-0.1,3,1.7c1.1-3.3,4.3-4.3,5.8-7.1c0.7-1.4,2.2-2.9,4.4-2.2c0.3,0.1,0.7,0.1,0.8-0.2
		c0.9-2.5,3.3-2.8,5.4-3.6c0.3-0.1,0.7-0.2,0.8-0.5c1.5-3.8,4.5-1.5,6.7-1.5c1.5,0,2.6,0.5,3.4-1.4c0.7-1.7,2.3-2,4-0.7
		c1.7,1.3,3.5,1.4,5.7,1.3c4.3-0.1,8.6-2.3,13-0.4c0.4,0.2,1,0.2,1.1,0.4c0.3,2.6,2.3,2,3.9,2c1.6,0,3.3,0.3,2.3-2.3
		c-0.4-1,0.8-1.6,1.5-1.4c1.5,0.3,3.3-0.2,4.4,1.3c0.5,0.6,1.1,0.5,1.8,0.6c0.8,0.1,1.4,0.5,1.7,1.2c1.5,4.1,5.9,4.8,8.5,7.7
		c0.1,0.1,0.6,0.2,0.7,0c2.1-2.3,2.7-0.1,3.6,1.2c0.4,0.6,0.8,1.1,1.5,1.2c4.6,0.9,8.6,3.4,13.2,4.2c0.8,0.1,1.5,0.7,1.2,1.5
		c-0.9,2,0.5,2.5,1.8,2.9c1.6,0.5,2.7,1.4,2.8,3.2c0,0.3,0.2,0.7,0.5,0.8c3.2,1.2,4.9,4.3,7.6,6.1c3.8,2.5,5.3,6.6,4.1,10.7
		c-0.3,0.8-0.1,1.4,0.5,1.9c3.3,2.7,5,6.5,7,10.1c0.6,1.1,0,1.8-0.4,2.7c-0.3,0.7-1.5,0.8-1.3,2c2.1-0.6,2.3,0.2,1.9,2.2
		c-0.3,1.3-0.3,3.3,1.5,4.2c0.9,0.5,0.8,1.1,0.2,1.8c-1.5,1.8-2.2,3.8-1.5,6.2c0.4,1.3-0.2,2.3-1.6,2.4c-2.3,0.1-2.8,2-3.8,3.5
		c-0.3,0.4-0.3,0.9,0.1,1c3,1.2,1.8,3.9,2.1,6c0,0.2-0.1,0.5,0.1,0.7c2.2,3.1,0,5.6-1.1,8.2c-0.1,0.3-0.4,0.8-0.3,0.8
		c3,2.6-0.7,2.1-1.4,2.9c-0.4,0.5-1,0.7-1.6,1.2c-0.6,0.4-1.2,0.7-0.7,1.5c2.1,1.3,1.7,2.7,0.2,4.3
		C164.7,123.7,164.7,124,164.7,124.1z"/>
	<path class="st2" d="M20.9,78.4c0-1.1,0-2.1,0-3.3c1.2-0.4,1.3,0.4,1.6,1.4c0.8,2.8,1.1,2.9,3.9,2c0.9-0.3,1.8,0.2,1.6,0.8
		c-0.6,1.4-0.1,3.5-2.5,3.9c-0.8-1.3-2-2.2-3.4-2.9C21.4,79.7,21.1,79.1,20.9,78.4z"/>
	<path class="st6" d="M108.3,18.7c-0.2,0.4-0.5,0.5-0.8,0.3c-0.2-0.2-0.2-0.4,0-0.6C107.7,18.2,108,18.2,108.3,18.7z"/>
	<path class="st0" d="M164.8,123.7c-0.1-1.3,1.7-2.6-0.1-4.2c1.1-0.3,2.4-0.1,2.7,1.1C167.7,122.3,166.2,123,164.8,123.7z"/>
	<path class="st0" d="M174.4,111.5c0.5,0.6,1.2,1.1,0.1,1.5c-0.5,0.2-1.4,0.3-1.5-0.5C172.9,111.6,173.3,111.1,174.4,111.5z"/>
	<path class="st0" d="M180.8,83.8c-1,0.3-1.6,0.2-1.6-0.8c0-0.4,0.3-0.8,0.7-0.8C180.8,82.3,181.2,82.8,180.8,83.8z"/>
	<path class="st5" d="M74.2,143.9c-1.4,1.3-2.7,1.2-3.9,0c-0.8-0.8-1.6-0.8-2.6-0.5c-3.4,0.8-5.2,0-7.3-2.9c-0.3-0.4-0.8-0.9-1.3-1
		c-4.2-0.5-5.5-3.9-7.2-7c-1.2-2.2-1.9-4.6-3.5-6.6c-2.4-2.9-4.4-2.9-6.3,0.4c-0.8,1.4-2,2.7-0.2,4.4c0.7,0.7-0.1,1.9-0.6,2.6
		c-0.7,1-1.4,0-2.1-0.2c-0.9-0.4-1.8-1.1-2.7-0.4c-1,0.7-1.3,1.9-1,3c0.5,2,0,2.3-1.7,1.2c-0.3-0.2-0.9-0.1-1.6-0.1
		c-1-0.9-0.2-1.6,0.1-2.3c0.5-1.5,0.9-3,0.2-4.7c2.4-0.9,4.8-1.4,7.1-2.2c1.3-0.4,1.1-1.8,1.2-3.1c1-2.1,1.7-4.3,4.7-4.9
		c-2-1.1-3.7-0.5-5-1.7c-0.7-0.5-1.4-0.9-1.4-1.5c0.1-2.2-1.4-2.5-3.1-2.8c-2.1-0.4-3.3-2.1-3.1-4c0.2-2,1.4-2.9,3.3-2.1
		c2.5,1.1,4.1-0.5,5.9-2c0.2-0.5,0.4-0.8,0.8-1.2c1-0.5,1.7-0.1,2.4,0.3c2,1.2,4.4,0.3,4.7-2c0.4-2.3,1.1-4.3,2.4-6.2
		c0.8-1.2,1.3-2.8,0.9-4.6c-0.2-0.9-0.2-1.7,0-2.6c0.2-0.4,0.3-0.6,0.7-0.9c4.7,0.5,7.7-2.6,11-4.9c1-0.7,1.9-2.1,3.3-1.4
		c1.4,0.7,1.4,2.2,1.4,3.6c0,0.4,0.1,0.8,0.3,1.3c-0.2,2.1-1.4,2-2.9,1.4c-0.3-0.2-0.5-0.4-0.6-0.8c-0.3-0.4,0.3-1.2-0.7-0.7
		c-0.4,1-0.4,1.9,0.4,2.8c0.4,0.3,0.6,0.5,0.9,0.7c3.1,1.7,3.2,2,0.7,4.6c-0.9,0.9-1.2,2.1-1.7,3.2c-0.5,1-1.1,1.7-2.2,1.4
		c-1.1-0.3-1.6-1.1-1.7-2.1c-0.3-2-1.3-2.6-3.1-1.9c-2.3,0.9-3.6,3.5-2.6,6c0.5,1.4,0.2,2.4-0.1,3.7c-0.6,2.5-2,5.1,0.4,7.5
		c0.3,0.3,0.5,0.9,0.4,1.4c-0.4,2.6,1,3.9,3.3,4.6c0.5,0.1,0.9,0.4,1.3,0.7c4.7,4.2,9.9,3.8,15.4,2.1c3.8-1.2,7.8-1.8,11.8-2.1
		c1.1-0.1,1.6-0.7,2.1-1.4c1-1.3,1.7-2.8,2.7-4.2c2.7-2.8,6.3-3.3,9.7-4.6c1,2.1-0.8,2.7-1.9,3.5c-2.6,2-4.9,4.4-7.1,7
		c-0.4,0.6-0.8,0.8-1.4,1c-1.6,1-3.1,1.2-4.9,1.2c-2.8,0-5.2,1.8-7.9,2.8c-3.3,1.2-5.9,4.1-9.8,3.9c-1.7-0.1-3.4,0.2-5,0
		c-2.3-0.3-3.8-2.2-5.2-3.9c-0.4-0.5-0.5-0.9-1.2-0.6c-2.3,0.9-4-0.2-5.6-1.7c-0.5-0.4-0.8-1.1-1.4-1.3c-1.1-0.5-2.6-0.7-3.4,0
		c-0.9,0.7,0.4,1.6,0.9,2.4c0.5,0.8,1.2,1.5,1.7,2.3c0.9,1.3,1.9,2.3,3.7,2.4c1.5,0.1,2.2,0.9,1,2.2c-0.8,1-0.3,1.4,0.5,1.8
		c1.5,0.8,2.6,1.8,2.8,3.6c0.1,1.6,1.3,1.3,2.4,1c2.6-0.8,2.6-0.8,2.7,1.8c0,1.4,0.6,1.9,2,1.5c0.9-0.3,1.7-0.4,2.8-0.1
		c1,0.6,1.1,2.3,2.8,2C73.1,141.9,73.9,142.6,74.2,143.9z"/>
	<path class="st4" d="M54.4,88.2c-0.2,0.3-0.2,0.4-0.5,0.6c-1.4,0.9-3.2,1.3-3.1,3.5c1,0.1,1.7-0.9,2.8-0.6c1.3,2.4,0,4.2-1.2,5.9
		c-0.9,1.2-1.6,2.4-1.5,3.9c0.1,1.7-0.7,2.6-1.9,3.6c-1.4,1.2-2.7,1.7-4-0.1c-0.4-0.5-0.9-0.7-1.7-0.6c-0.8-1.4,0.4-1.6,1.2-2
		c-1-1-2.6-0.7-3.4-1.9c-0.3-0.4-0.7-0.2-1,0.1c-0.4,0.4-0.7,0.9-1,1.3c-0.6,0.9-0.4,2.5-1.5,2.9c-1.4,0.5-1.5-1.4-2.4-1.9
		c-0.7-0.4-1.2-0.5-1.6,0.3c-0.3,0.7-0.6,1.5,0.4,1.8c1.1,0.3,2.1,0.6,3,1.4c0.5,0.5,1.1,0,1.5-0.3c1.1-1,2.4-1.2,4-0.9
		c0.2,1.2-0.1,2-1.4,2c-0.8,0-1.4,0.3-1.9,0.8c-0.9,0.9-1.9,0.7-2.8,0.1c-0.8-0.5-1.6-1.4-2.4-0.1c-0.7,1.1-0.9,2.4,0.1,3.5
		c0.9,0.9,1.9,1.6,3.4,1.5c1.5-0.1,2.8,0.4,2.1,2.4c-0.4,1,0.5,1.2,1.1,1.8c1.3,1.7,1.5,3.3-0.2,4.9c-3.6,0.2-5.1-2.7-7.1-4.7
		c-0.9-0.9-1.5-2-2.7-2.8c-0.5-0.7-0.6-1.3-0.3-1.9c1-2.4,0.8-4.6-0.8-6.8c0.1-1.4-0.6-2.5,0.7-3.8c0.7-0.7,0.1-2.8,0-4.3
		c-0.1-0.8-0.3-1.8,0.7-2c1.4-0.4,1,0.8,1.2,1.5c0.1,0.6,0.4,1.1,1.1,1.1c1.1-0.1,2.2-0.7,2.4-1.7c0.4-1.9,1.5-3.6,1.4-5.7
		c1.2-0.8,1.8,0,2.6,0.9c0.1,0.5,0.1,0.8,0,1.1c-0.1,0.7-0.9,1.5-0.2,1.9c1,0.6,1.2-0.7,1.8-1.3c0.5-0.3,0.8-0.3,1.3-0.2
		c0.8,1.6,1.6,3,2.3,5.1c0.5-2.2,1.3-3.7,1.1-5.6c1.7-2.1,2.5-4.1,1-6.7c0.1-1.1,0.2-2.1,1.1-2.9C51.1,83.6,53.3,85.2,54.4,88.2z"/>
	<path class="st7" d="M37.9,84.9c-1.4,0.7-3,0.8-3.1,2.9c0,1-1,1.3-1.8,1c-1.1-0.4-2.2-1.3-1.8-2.5c1-2.9,0.4-6,2.2-9
		c1.6-2.7,3-6,3-9.4c0-0.9,0.5-1.5,1.1-2c1.4-1,1.7-2.2,0.6-3.7c-1.2-1.6-0.4-2.5,1.5-2.8c0.4,1.9,2.1,2.5,3.3,3.4
		c1,0.7,2.6-0.4,3-1.9c1.1-3.7,2.1-4.4,5.7-4.1c1,0.1,1.3,0.8,1.1,1.5c-0.4,1.8,0.7,1.8,2,2c0.3,2-1.2,2.5-2.5,2.9
		c-1.4,0.5-2.4-0.4-3.1-1.7c-0.1,1.8-1.2,2.8-2.5,3.7c-1.4,0.9-2.4,2.1-3.2,3.5c-0.6,1.1-1.5,1.9-2.7,2.2c-1.8,0.4-2.3,1.8-2.6,3.4
		c-0.4,2.8,0.1,5.4,1,8.2c0.2,0.8,0,1.4-0.6,2C38.1,84.5,38,84.6,37.9,84.9z"/>
	<path class="st2" d="M38.4,84.6c0-0.7,0.2-1.2,0.3-1.9c0.2-0.4,0.4-0.5,0.8-0.7c0.7-0.1,1.2-0.1,1.9,0c0.4,0.1,0.6,0.3,0.9,0.6
		c0.5,1.1,0.6,2.1,0.3,3.2c-0.2,0.7-0.4,1.5,0.4,1.9c0.9,0.5,1.2-0.4,1.6-0.9c0.2-0.3,0.4-0.7,0.9-1c0.5-0.2,0.9-0.2,1.3,0.1
		c2.1,2.5,1.9,4.1-0.7,6.9c-1.2,0.3-2.3,0.4-3.4,1c-0.5,0-0.9,0-1.4,0c-0.9-0.2-1.4-0.7-2-1.3c-0.8-0.6-1.5-1.1-2.4-1.6
		c-0.2-0.5-0.2-1-0.2-1.8c0.3-0.4,0.5-0.7,0.9-1.1C39.2,87.1,38.9,85.9,38.4,84.6z"/>
	<path class="st0" d="M29.4,105.8c3.5,2.4,2,5.4,1.2,8.5c-1.6-0.9-2.5-2.5-3.1-4.3c-0.5-1.4-1.3-2.4-2.7-2.8c-1-0.3-1.5-0.8-1.3-1.9
		c0.3-1.7,1.3-3.2,0.1-5c-0.4-0.6,0.5-1,1.1-1.2c0.7-0.2,1,0.1,1.1,0.8c0.1,0.8,0.4,1.6,0.4,2.4C26,104.6,27.2,105.5,29.4,105.8z"/>
	<path class="st0" d="M40.2,122.4c0.7-1.6,1.3-3,0.5-4.8c0.9,0.2,1.7,0.9,2.9,0.4c0.8-0.3,1.9,0.2,2.2,1.1c0.4,1.2-0.8,1.1-1.5,1.4
		c-1.1,0.5-2.1,1.1-2.2,2.5c0,0.6-0.4,1-1.2,1.2C40.6,123.7,40.4,123.1,40.2,122.4z"/>
	<path class="st0" d="M22.9,118.8c-0.7-1.3-0.3-2.8,0-4c0.4-2.3-0.7-3.4-2.4-4.5c0.6-1.5,2.7-0.7,3.3-2.4c-0.8,2.9,0.3,5.7,0.2,8.5
		C24,117.4,23.4,117.9,22.9,118.8z"/>
	<path class="st0" d="M20.7,66.2c0.7,0.2,1.2,0.5,1.9,0.2c0.4-0.2,0.8-0.3,1,0.2c0.1,0.3,0,0.8-0.1,1.1c-0.2,0.4-0.7,0.3-1,0.1
		c-0.5-0.5-1.1-0.5-1.9-0.3C20.5,67.1,20.5,66.7,20.7,66.2z"/>
	<path class="st0" d="M20.7,78.3c0.8,0.2,1.1,0.8,1.1,1.7C20.8,80,20.1,79.6,20.7,78.3z"/>
	<path class="st4" d="M37.7,87.9c0.1,0.4,0,0.8-0.7,0.9C36.9,88.4,37,88,37.7,87.9z"/>
	<path class="st5" d="M125.4,148.1c2.2-0.1,3.9-1.1,5.7-2.2c1.9-1.1,3.9-2.1,6.2-2.4c2.1-0.3,3.8-1.5,4.7-3.6c0.8-1.8,2.1-3,4.2-1.5
		c0.4,0.3,0.7,0.3,1.1,0c0.5-0.5,0.5-1,0.2-1.5c-0.2-0.4-1-1-0.1-1.3c0.9-0.3,2-0.4,2.8,0.1c0.8,0.5,0,1.2-0.3,1.6
		c-0.3,0.6-0.8,1-0.3,1.9c-0.2,0.4-0.5,0.9-0.8,1c-1.6,0.1-2.4,1-2,2.5c0.2,1-1.7,1.4-0.2,2.5c0.5,0.3,0.5,0.7,0.3,1.3
		c-1.5,0.5-3,0.6-3.2,2.6c0,0.5-0.7,0.8-1.3,0.8c-0.7-0.1-0.8-0.6-0.9-1.2c0-0.1,0-0.2,0-0.2c-0.5-1.2,0.9-3.5-0.4-3.4
		c-2.6,0.2-7.1,0.2-7.3,2.8c-0.3,3.4-2.3,2.5-3.8,3.2c-1,0.4-2.1,0.8-3,1.8c-0.1,0.4-0.1,0.6-0.1,1c0,1.3-0.7,2-1.8,2.1
		c-2,0.2-4,0.7-5.9,0.1c-1.9-0.6-3.1-0.1-3.5,2c-0.2,0.9-0.8,1.7-1.2,2.8c-0.2,1.7,0.2,3.1,0.5,4.7c-0.6,2.5-1.6,1.2-2.6,0.3
		c-1.7-1.2-1.5,0.1-1.6,1.1c-1.1,0.7-2.2,1.3-3.5,1.2c-1.5-0.1-2,1.4-2.7,2.4c-0.6,0.8-0.8,1.7-1.9,2.3c-0.7,0.8-1.3,1.4-2.4,1.6
		c-1.8-0.1-1.8,1-1.5,2.1c0.4,1.3-0.3,2.2-1.2,2.1c-2.2-0.1-4.3,0.8-6.7,0.3c-2-0.4-4.2-0.1-6.3,0.1c-1,0.1-1.6-0.2-2.4-0.8
		c-2.1-1.5-3.9-3.7-7-3.1c-1.3,0.3-2.7-1.2-4.1,0c-0.2,0.2-0.7-0.5-0.9-1c-1-2.9-1.5-3.2-4.3-2.4c-0.7,0.2-1.3,0.1-1.8-0.3
		c-1.6-1.3-3.7-1.5-5.4-2.9c-0.8-0.7-2.8-0.6-4.4-1c-1.6-1.2-4.2-1-4.5-3.7c0-4-2.6-7.2-6.1-7.4c-1.3-0.8-2.5-0.9-3.9-1
		c-1.5,0-2.3-1.2-3.4-1.9c-3.9-0.1-4.5-0.9-3.2-4.4c0.4-1.1,0.2-2-0.3-3.2c0-2.2,1.7-4.1,0-6.3c2.1,0.2,2.2,1.8,1.8,3.3
		c-0.4,1.5-0.3,2.6,0.8,3.7c1.1,1.1,1.2,2.8,1.7,4.2c0.7,1.9,1.6,3.2,4.2,2.7c3.4-0.6,5.7,1.8,7.5,4.3c1.1,1.6,2.7,2.9,2.4,5.4
		c-0.2,1.6,1.7,2.3,3,2.1c2.3-0.3,3.9,1,5.3,2.1c1.6,1.2,3.4,1.7,5.1,2.5c0.5,0.3,1.1,0.4,1.6,0c2.1-1.8,3.8-0.5,5.4,0.9
		c2,1.7,4.5,1.8,6.6,2.9c0.7-0.7,0.3-1,0-1.4c-0.7-1.3,0.1-1.6,1.1-1.5c1,0.1,2.1,0.3,3,0.8c2.5,1.3,5.1,1.1,7.8,1.1
		c1.5,0,2.5-0.4,2.7-2.1c0.2-1.1,0.9-1.5,1.9-1.2c4.6,1,6.3-0.3,5.6-4.7c-0.3-2.3,0.7-2.2,2.4-2.4c1.4-0.2,4,0.8,3.4-2.5
		c-0.1-0.7,0.7-1.3,1.5-1.1c1.7,0.4,3.8,1.3,5,0.3c1-0.9,1.2-3,1.7-4.5c0.5-1.4,1-1.8,2.4-1.3c1.7,0.6,3.1,0.2,4.5-1.2
		C124.4,151.7,125,151.1,125.4,148.1z"/>
	<path class="st3" d="M32.8,145.6c1.6,0.7,1.9,1.8,1.2,3.3c-1.5,3.1-1.2,3.5,2.3,4.3c-1.2,1-2.4,0.7-3.5-0.3c-1.1-1-1.6-2.1-0.8-3.4
		C32.8,148.2,31.6,146.7,32.8,145.6z"/>
	<path class="st3" d="M39.8,155.3c1.3-0.8,2.7-1.2,3.8,0.6C42.1,157.4,41.1,155.9,39.8,155.3z"/>
	<path class="st5" d="M31.9,138.3c0.3,0.1,0.4,0.4,0.6,0.7C32,139.1,31.5,139.1,31.9,138.3z"/>
	<path class="st0" d="M40.8,33.3c2,0.7,2.7-0.3,2.9-1.9c0.1-0.6-0.2-1.4,0.7-1.5c0.6-0.1,1.1,0.4,1.3,0.9c0.5,0.8-0.2,1.1-0.7,1.5
		c-2,1.7-3.5,3.7-3.8,6.4c-0.1,1.3-0.5,1.5-1.7,0.6c-1.2-1-2.6-2-4.1-0.2c-0.4,0.5-1.2,0.5-1.3-0.2c-0.2-0.9-0.5-2.5,0.4-2.6
		C37,36.2,38.4,34,40.8,33.3z"/>
	<path class="st0" d="M37.4,30c0.7,0.5,1.1,1.1,0,1.1c-0.8,0-2-0.3-2.3-0.8c-0.5-1.1,0.5-1.9,1-2.9C37.2,28.2,36.5,29.3,37.4,30z"/>
	<path class="st0" d="M31.5,39.4c-0.9-0.3-2.2-0.1-1.4-1.5c0.3-0.6,1.1-1.1,1.8-0.6C32.8,38,32.6,38.7,31.5,39.4z"/>
	<path class="st2" d="M142.6,151.1c-0.5,3.1-3.2,4.6-4.9,6.8c-0.6,0.8-1.6-0.5-2.1-1c-0.7-0.6,0.3-0.9,0.8-1.2
		c1.8-0.8,2.1-3.2,3.9-4C141,151.3,141.5,150.6,142.6,151.1z"/>
	<path class="st2" d="M146.8,146.6c-0.1-0.5-0.1-0.9-0.1-1.4c0.4-0.6,0.9-0.9,1.2-1.4c0.4-0.6,0.6-1.5,1.7-1
		c1.2,0.6,1.1,1.5,0.9,2.5c-0.3,1.2-1.2,1.8-2.3,2.3C147.3,148.1,147.2,147.2,146.8,146.6z"/>
	<path class="st2" d="M145.4,158.8c-1.3,0.4-2.5,0.2-2.8-0.8c-0.3-0.9,0.2-2.1,0.4-3.2c0-0.1,0.5-0.3,0.5-0.3
		c0.8,0.9,1.6,1.7,2.4,2.6C146.4,157.7,146.3,158.3,145.4,158.8z"/>
	<path class="st0" d="M112.4,165.5c0.8-0.6,1.4,1.5,2.4,0c0.3-0.3,0.6-0.3,0.9-0.2c1,0.2,2.1,0.8,2.6-0.6c0.4-1.3-0.3-2.3-1.3-3
		c-0.9-0.6-2-0.4-3-1.1c0.3-1.6,1.2-2.9,1.6-4.5c0.4-1.9,2.2-1.3,3.8-1.1c2.5,0.3,5.1,1.2,7.4-1.1c1.2,0.5,2.8,0.4,3,2.1
		c0.2,2.5,0,5.1-2,6.6c-1.1,0.9-3.3,1-4.4-0.2c-1.3-1.4-1.8-0.3-2.5,0.2c-1.3,1.1,0.3,1.4,0.7,1.9c0.6,0.8,1.5,0.9,2.3,1.2
		c1,0.3,1.8,0.7,2.1,1.9c-1,1.6-2.6,1.1-4.2,1.6C118.3,168.7,114.6,169.1,112.4,165.5z"/>
	<path class="st4" d="M121.7,169.4c0.8-1.9,2.7-0.6,4.1-1.6c0.3,0,0.5,0,0.7,0c1,0.1,2.4-0.5,2.7,0.9c0.4,1.4-0.6,2.4-1.8,3
		c-1.7,0.8-3.2,1.5-2.5,4c0.4,1.3-0.9,1.2-2,0.8c-1.3-0.5-1.9-2.5-3.9-1.8c-0.3,0.1-1.2-1.3-1-2.2c0.2-0.8,0.9-1.4,1.8-1.2
		c0.5,0.1,1.1,0.3,1.6,0.4c0.7,0.1,1.6,0.1,1.9-0.7C123.6,169.8,122.4,169.9,121.7,169.4z"/>
	<path class="st3" d="M13.4,82.3c0.4-0.1,0.5,0,0.5,0.3c0,0.1-0.1,0.1-0.2,0.2C13.4,82.9,13.3,82.7,13.4,82.3z"/>
	<path class="st2" d="M100.3,174.3c0.7-0.7,1.4-1.2,2.3-1.6c-0.2,2.3-1.2,4.4-0.8,7c-1,0.1-1.5,0.5-1.5,1.6c0.1,1-0.7,1.6-1.2,2.3
		c-0.5,0.7-1.2,0.6-1.8-0.1c-0.5-0.5-1.1-1-0.4-1.8c0.5-0.6,1.3-1,1.4-2C100.3,178.3,100.3,176.4,100.3,174.3z"/>
	<path class="st8" d="M54.9,60.4c-3.2,0.7-3.3,0.6-2.7-3c-0.3-0.4-0.5,0-0.8,0c-3.4-0.2-5.3,1-5.2,4.7c0,0.5-1.5,1-2.3,1.6
		c-1.4,1-1.6-0.4-2.1-1.1c-0.5-0.5-1-0.8-1.6-1c-1.4-0.4-1.3-1.1-0.4-2.2c1.2-0.1,1.6-1.4,2.7-1.6c0.8-0.2,1.6-0.6,1.5-1.6
		c-0.2-1.2-1.4-0.2-2.2-0.7c0.9-1.2,1.4-2.7,3-3.1c0.5-0.1,0.6-0.6,0.8-1.1c0.7-2.2,2.3-3.4,4.6-3.6c1.5-0.1,1.8-0.6,1-2
		c-0.7-1.3,4-8.3,5.4-8.1c2.6,0.5,3.3-0.3,2.5-2.8c-0.5-1.6,0.5-2.4,1.9-2.8c2.9-1.1,4.9-3.4,7.1-5.4c2-1.7,3.8-3.8,6.8-2.4
		c0.8,0.4,1.2-0.2,1.7-0.6c1.7-1.2,3.2-1.9,4.6,0.4c0.4,0.7,1.2,1.2,2,0.6c1.4-1,2.7-0.7,4.1-0.1c3.1,1.3,3.7,1.1,5.7-1.7
		c0.7-1.1,5.2-2.7,6.3-2.1c1.1,0.6,2.2,1.2,1.1,2.9c-1.7,2.6-0.9,5.6,1.7,7.2c1.3,0.8,2.6,0.1,3.5-0.7c0.8-0.8,0.3-1.7-0.6-2.4
		c-1.4-1.2-0.8-3,1.8-3.6c2.1-0.5,3.7-0.8,4.3-3.2c0.2-1,2.9-0.5,3.7,0.8c3.2,5.3,7.7,8.2,13.9,9.1c2,0.3,4.1,1.2,5,3.6
		c0.7,1.7,2.8,1.7,4.2,2.4c1.2,0.6,2.6,0.9,3,2.4c0.2,0.7,1,0.8,1.5,1.1c1.4,0.7,2.6,1.5,3.5,3.1c1.3,2.3,3.8,3.3,6.1,4.4
		c1.1,0.5,2,0.8,2,2.3c0,1.1,0.8,1.6,1.8,1.9c3.8,1.5,6.6,3.8,7,8.3c0.1,1.3,0.6,2.6,2,3.4c1.4,0.9,1.3,2.7,2,4
		c0.3,0.6,0.5,1.6-0.3,1.9c-0.7,0.2-1.6-0.3-1.7-1c-0.3-1.4-1.6-2-2.2-3.1c-0.6-1.1-1.6-1.2-2.5-0.6c-0.8,0.6-0.2,1.4,0.2,2.1
		c0.8,1.4,1.7,2.5,3.4,2.9c1.5,0.4,2.7,1.7,3.3,3.3c0.4,1.1,0.7,2-0.4,3c-1,0.9-1,2.3,0.1,3.1c1.8,1.2,1.4,3.5,2.6,5
		c0.2,0.3,0.2,1-0.3,1.3c-0.5,0.3-0.9,0.1-1.4-0.2c-0.6-0.4-1.1-0.9-1.8-1.3c-0.5-0.3-1.3-0.3-1.3,0.4c0.2,2.5-0.6,4.9,0.1,7.4
		c1.1,4.1,0.7,8.2-0.8,12.1c-0.5,1.4-0.6,2.4-0.3,3.8c0.4,2,0.3,4,2.1,5.5c0.5,0.4,0.1,1-0.5,1.3c-1.9,1.1-4.3,1.6-4.2,4.5
		c0,0.1-0.1,0.2-0.1,0.2c-3.3,0.6-3.1,4.4-5.5,5.9c-1.1,0.7-1.3,2-1.5,3.2c-0.1,1-0.5,1.6-1.2,2.2c-1.5,1.1-2.8,2.5-4.4-0.2
		c-0.6-0.9-2.4-2.1-3.5-1.4c-1.5,0.9-1.9,2.9-2,4.6c-0.2,2.3-1.1,3.3-3.2,2.7c-1.5-0.4-2.7-0.2-3.9,0.6c-0.3,0.2-0.8,0.5-1.1,0.4
		c-1.5-0.6-2.3-0.2-2.2,1.5c0,0.3-0.4,0.7-0.6,1c-1.2,1.1-6.1,1.4-7.4,0.3c-1.2-1-2.1-0.7-3.2,0.1c-1.3,0.9-0.4,1.7,0,2.5
		c0.7,1.4,1.1,2.7,0.4,4.1c-0.2,0.5-0.4,1.1-1.2,1c-0.7-0.1-0.9-0.7-0.9-1.3c0-1.9-0.8-1.3-1.7-0.6c-0.3,0.2-0.6,0.4-0.9,0.4
		c-3.2,0.4-3.9,2.5-3.7,5.3c0.1,0.7-0.2,1.3-0.9,1.5c-0.6,0.2-1-0.2-1.5-0.6c-0.7-0.6-0.7-2.2-1.6-1.9c-1.5,0.4-3.1,0.7-4.5,1.6
		c-2,1.4-4.2,2.5-6.9,2.5c-1.8-0.7-3.5-0.3-5.1-0.4c-1.1-0.1-2.3-0.1-3.1-1c-0.6-0.6-1.1-1.2-0.9-2.1c0.2-0.9,1-1,1.7-0.8
		c0.8,0.2,0.8-0.3,1.1-0.8c0.8-1.7,1.4-3.4,2.6-5c2.3-1.4,5.3,0,7.3-2.4c0.3-0.6,0.8-0.8,1.4-1c2.9,1.6,4.9-0.2,7.3-1.3
		c2.6-1.2,4.7-2.7,6.8-4.8c0.6-0.3,1.1-0.4,1.7-0.5c1.5-0.3,2.9-0.5,4.2,0c0.7,0.3,1.5,0.3,2.1,0c2.5-1.4,5.3-1.2,7.9-1.6
		c1.2-0.2,1.7-0.7,1.8-1.8c0-1.4-1-1.1-1.9-1.1c-2.6,0-3.1-0.4-3.2-3c0-1-0.4-1.6-1-2.3c-2.3-2.7-2-3.9,1.2-5.5
		c0.6-0.3,1.3-0.8,2-0.8c2.2,0.1,3.3-1.3,4.4-3.1c0.6-2.1,2.4-2.7,3.9-3.5c0.8-0.4,1.8-0.3,2.4,0.5c0.7,0.8,0.1,1.5-0.4,2.1
		c-0.5,0.7-0.9,1.5-0.2,2.2c0.8,0.7,1.5,0.1,2.1-0.5c1-0.9,2.5-1.3,2.4-3c-0.1-1.1-0.5-2-1.6-2.5c-1.3-0.6-1.4-1.6-0.9-2.8
		c0.8-1.6,1.2-3.4,3.5-3.8c1.5-0.3,1.6-1.8,1.6-3.2c0.1-4-0.4-8-0.6-12c-0.2-2.8-0.3-5.6-0.3-8.4c0.1-4.5-2.1-8.3-3.3-12.5
		c-0.4-1.5-2.1-2.6-3.5-3.6c-1.6-1.1-2.2-0.7-2.6,1.5c0,0.7,0.1,1.2,0.3,1.9c0.3,1.9,0.1,3.5-1.5,4.4c-1.5,0.9-3.2,0.7-4.8-0.5
		c-1.1-1.2-2-2.4-2.7-3.6c-1.4-2.5-2.9-2.8-5.3-1.2c-1.1,0.8-2.1,0.8-3.4,0.4c-4.2-1.4-8.5-2.2-12.9-3c-2.4-0.5-4-2-5.8-3.2
		c-3.2-2.2-6.7-3.6-10.4-4.7c-2.4-0.7-4.9-0.9-7.5-0.2c-3.3,0.9-6.7-0.4-10-0.8c-2.8-0.3-5.2,0.3-7.8,1.5c-0.6,0.3-1,0.6-1.6,0.9
		c-2.3,0.9-4.6,0.7-7,1.1c-1,0.2-1.7,0.5-2.5,1.2C55.7,60.7,55.4,60.7,54.9,60.4z"/>
	<path class="st5" d="M119.3,135.7c-0.6,0.1-1.2,0.1-1.9,0.1c-1.6,1.3-3.3,1.9-5.2,2c-2.1,0.2-3.9,0.7-4.8,2.9
		c-0.4,0.9-1.1,1.3-2.1,1.1c-0.6-0.1-1.2-0.4-2,0.1c-0.5,0.3-0.9,0.4-1.4,0.6c-1.7,0-3.4,1.5-4.6-0.8c-0.2-0.4-0.9,0-1.2,0.5
		c-1.2,1.9-3.4,1.7-5.2,2.4c-4.4,1.5-8.8-0.2-13.1,0.7c-0.9,0.2-1.5-0.3-2.2-1.1c0.3-1.7,1.4-0.9,2.4-0.9c0.6,0.1,1.1,0,1.7-0.2
		c0.5-0.2,0.8-0.3,1.3-0.4c1.2-0.3,2.3-0.1,3.3,0.1c1.4,0.3,2.7,0.2,3.9-0.8c0.9-0.7,1.9-1,2.9-0.3c1.6,1,2.9,0.4,4.1-0.7
		c0.5-0.5,1-1,1.6-1.5c1.8-1.7,3.2-1.9,5.3-0.4c1.1,0.7,1.9,0.7,2.6-0.4c1-1.7,2.7-2.9,3.9-4.6c1.3-1.9,3-1.9,5-0.4
		c0.6,0.5,1.1,1,1.9,0.6c0.8-0.5,0.2-1.1,0-1.7c-0.6-2.1-0.2-4.2-0.3-6.4c0-1.2,0.5-2.1,1-3.1c0.1-0.3,0.2-0.4,0.3-0.6
		c0.8-0.9,1.1-1.8,0.9-2.8c-0.4-1.6,0.2-2.8,1.5-3.7c1.1-0.7,1.9-1.8,2.9-2.8c1.6-0.5,2.6-1.5,3.4-2.7c1.1-1.6,2.2-3.2,4.4-3.8
		c1.2,0.2,2.3,1.6,3-0.5c0.2-0.7,1.1-0.5,1.7-0.4c0.8,0.2,1.9,0.1,1.9-0.5c0.3-2,2.1-2.4,3.3-3.5c1.2-1.1,1.1-3.7-0.2-5.8
		c-0.2-0.4-0.2-0.6-0.3-1c0.2-0.9,0.2-1.6,0.2-2.4c0.2-1.5,0.1-2.4-1.7-1.7c-0.2,0.1-0.5,0.1-0.7,0.1c-0.9,0-2.1,0.3-2.5-0.8
		c-0.3-1,0.8-1.4,1.6-2c0.7-0.3,1.4-0.4,1.9-0.7c1-0.5,0.7-1.1-0.1-1.7c-0.8-3.6-4-5.6-5.1-8.7c-0.1-0.2-0.3-0.5-0.5-0.5
		c-2.2,0.3-4-1.6-6.2-0.9c-1.3,0.4-2.3,0.1-3.3-0.7c-1.3-1.2-2.9-1.8-4.8-1.7c-0.4,0-0.6-0.1-1-0.3c-0.8-0.8-1.3-1.6-2.5-1.9
		c-1.1-0.7-1.7-0.1-2.3,0.8c-0.2,0.3-0.3,0.4-0.4,0.5c-0.8,0.7-1.5,2.1-2.7,1.2c-1.2-0.9-0.3-2,0.4-2.9c0.3-0.3,0.5-0.7,0.3-1.1
		c-0.5-0.8-1.3-0.4-2.1-0.3c-0.6,0.1-1.1,0-1.7-0.2c-1.4-1.1-2.8-1.8-4.2-2.9c-0.6-0.6-1.2-0.8-2.1-1c-2.1-0.7-4.2-1-5.6-2.8
		c-0.5-0.6-1.2-0.7-2-0.7c-3.3-0.2-6.5-0.6-9.5,1.4c-1.6,1-5.2,0.1-6.3-1.4c-0.7-0.9-1.3-1.1-2.4-0.8c-2.3,0.2-4.3,0.5-6.6,0.8
		c-1-0.4-1.5-1-1.4-2.1c4-2.3,8.2-2.8,12.4-1.3c2.7,0.9,5.4,0.8,8.1,0.4c6.5-0.9,12.3,0.9,17.1,4.9c2.9,2.3,6.1,2.6,9.3,3.4
		c4.1,1.1,8.4,1.6,12,4.2c0.5,0.3,1.1,0.4,1.8,0.5c1,0.2,1.7,0.7,2.6,0.9c1.1,1,2.3,0.6,3.6,0.6c0.3,0.1,0.4,0.1,0.6,0.3
		c2.2,1.6,3.9,3.6,5.2,5.5c1.9,2.8,3.2,6,5.4,8.6c0.4,0.5-0.1,1.2-0.2,1.9c-0.6,2.7-0.8,5.4,0.2,8.1c1,2.9-0.7,5.4-1.9,7.9
		c-0.4,0.8-0.8,1.3-0.5,2.2c0.5,1.3,0,2.1-1.2,2.7c-0.9,0.4-1.6,1.1-2.4,1.7c-1.8,1.2-3.8,2.1-6.1,1.6c-1.7-0.4-2.8,0.2-3.2,2
		c-0.3,1.8-1.3,2.1-3,1.5c-2.2-0.8-2.7-0.4-2.6,2c0.1,1.2-0.2,2.2-1.2,2.9c-1.6,1.1-1.4,2.2-0.1,3.3c0.8,0.7,1.6,1.3,1,2.4
		c-0.6,1.2-1.5,0.8-2.5,0.4c-1.4-0.5-1.9,0.6-2.4,1.4c-0.5,0.8-0.4,1.6,0.5,2c1.1,0.5,2,0,2.8-0.9c1.7-2,3.2-2.5,5.2-1.8
		c1.8,0.6,2.2,1.7,1.2,3.3c-1.2,1.9-2.8,3.1-5.2,2.9C121.3,134.8,120.3,134.8,119.3,135.7z"/>
	<path class="st8" d="M62.6,162.6c-0.6-0.8-1.2-0.4-1.9-0.3c-1.5,0.4-3.1,0.8-3.8-1.2c-0.1-0.4-0.8-0.9-1.1-0.9
		c-3.2,0.8-3.6-2-4.9-3.6c-1.1-1.3-2.2-2.4-3-3.9c-0.5-0.9-1.8-1.6-3.2-1.4c-1.8,0.3-2.9-0.7-3.6-2.2c-0.4-0.7-0.7-1.5-1.4-1.9
		c-1.1-0.6-2-1.3-0.6-2.5c0.2-0.2,0.3-0.6-0.1-0.8c-0.4-0.3-0.8,0.1-1,0.4c-0.6,0.9-1.3,1-1.9,0.1c-0.6-0.9,0.3-1.4,0.9-1.5
		c1.3-0.3,1.5-1.2,1.1-2.2c-0.9-2.4,0.8-2.5,2.4-2.8c1.4-0.3,3.1,0.8,4.1-0.1c1.2-1.1-0.4-2.7-0.1-4.1c0.3-1.2,0.4-2.5,0.1-3.8
		c-0.1-0.5-0.2-1.2,0.4-1.5c0.7-0.3,1.2,0,1.8,0.4c2.2,1.8,3.4,4.4,4.2,6.9c0.9,2.9,2.6,5.2,4.8,6.6c2.9,1.9,5.4,5.2,9.7,3.9
		c0.8-0.3,1.9,0.3,3,0.4c0.6,1.5,0.9,3,1.5,4.5c1,2.4-0.9,4-2.3,5.6c-0.4,0.4-0.9,0.7-1.4,1c-1.2,0.8-1.4,1.3,0,2.4
		c1.8,1.5,3.5,3.4,3.5,6.2c-1.5-0.1-2.3-1.3-3.4-2.1C65.5,162.6,63.9,163.1,62.6,162.6z"/>
	<path class="st0" d="M78.6,143.9c-1,0.1-1.8-0.7-2.9,0c-0.5,0.1-0.8,0.1-1.4,0.1c-0.7-0.8-1.3-1.6-2.4-1.9
		c-0.8-0.7-1.2-1.6-2.4-1.9c-1.1,0-2.1-0.2-3,0.1c-2.4,0.8-3.3,0.1-2.8-2.4c0.1-0.5,0.4-0.9,0.1-1.4c-1-0.4-1.5,0.5-2.2,0.8
		c-2.4,0.7-2.9,0.4-3-2.1c-0.1-1.2-1-1.8-1.9-2.3c-1-0.6-2-1-2.7-1.9c0.1-0.7,0.8-0.5,1.1-0.8c0.4-0.4,1.1-0.6,0.8-1.3
		c-0.2-0.5-0.9-0.4-1.3-0.4c-1.6,0.2-2.5-0.5-3.4-1.8c-1.1-1.8-2.4-3.4-3.6-5.1c-0.4-0.6-0.8-1.1,0-1.6c0.8-0.6,4.8,0,5.5,0.9
		c2.6,3,2.8,3.1,6.7,1.6c0.8-0.3,1.2,0.2,1,0.8c-0.9,2.4,1.7,1.8,2.3,2.8c0.8,1.4,1.7,2.4,3.5,1.5c1.2-0.6,2.3,0.6,3.5,0.1
		c1.8-0.6,3.6-0.8,5.5-1.9c3.6-2,7.4-4,11.4-5.1c0.4-0.1,1-0.1,1.4,0.1c1.5,0.7,2.6,0,3.8-1.1c0.9,1.2,0.4,2.2-0.6,3.1
		c-0.4,0.4-1.1,0.5-0.7,1.3c1.6,3.2-0.3,6.1-1.4,8.8c-1.3,3.1-3.3,5.8-7.8,4.6c-2.7-0.7-4.4,2-3.5,4.7
		C78.5,142.9,78.8,143.3,78.6,143.9z"/>
	<path class="st1" d="M69.9,166.4c-0.1-1.3-0.7-2.1-1.5-3c-1.2-1.4-1.9-3.2-3.9-3.9c-0.8-0.3-0.6-0.9,0.1-1.4
		c1.5-1.2,3.2-2.1,4.3-3.9c0.9-1.5,1.3-2.7,0-4c-1.1-1.1-0.6-2.2-0.2-3.5c0.7-0.1,1.4-0.9,2.1-0.2c1.4,1.4,2.6,2,3.5-0.5
		c0.1-0.4,0.5-0.4,0.8-0.3c8.2,2.3,12.4,2.2,19.1-0.6c-0.1,1.5-0.6,3-1.5,4.2c-0.9,1.1-0.6,2.2-0.4,3.3c-0.3,0-0.3,0-0.4,0
		c-0.8-0.2-1.1-1.8-2.4-1c-0.2,0.1-0.4,0.6-0.3,0.8c0.5,1,1.3,1.9,2.6,1.9c1.7,0,3.4,0,5.1,0.1c0.3,0,0.5,0.3,0.9,0.7
		c-2.1,3.2-5.7,3.4-8.8,4.4c-0.9,0.3-1.6,0.7-2.3-0.2c-0.3-0.4-0.7-0.7-1.3-0.3c-0.6,0.4-0.4,0.9-0.2,1.5c0.4,1.6-0.1,3-1.2,4.2
		c-0.3,0.3-0.6,0.9-0.9,0.7c-2.6-1.5-2.6,0.4-3,2.1c-0.1,0.3-0.5,0.8-0.8,0.8C76.2,167.9,72.7,169.2,69.9,166.4z"/>
	<path class="st2" d="M125.3,147.9c1.3,1.5,0.3,2.8-0.6,3.8c-0.7,0.7-1.9,1.3-3,0.3C122.4,150.2,123,148.4,125.3,147.9z"/>
	<path class="st0" d="M62.3,29.1c-0.3,0.4-0.5,0.7-0.7,0.9c-0.6,0.4-1.1,1.8-2.1,0.7c-0.8-0.8-0.1-1.6,0.6-2
		C60.8,28.3,61.8,27,62.3,29.1z"/>
	<path class="st1" d="M62.5,162.6c1.3,0.1,3.1-1.5,3.8,1.1C65,163.9,63.6,163.8,62.5,162.6z"/>
	<path class="st1" d="M51.4,40.7c-0.6-0.6-0.7-1.2,0.1-1.6c0.1-0.1,0.5,0,0.6,0.1C52.5,40,52.2,40.4,51.4,40.7z"/>
	<path class="st8" d="M53.5,37.3c0.1,0.4,0,0.5-0.3,0.5c-0.1,0-0.1-0.1-0.2-0.2C53,37.3,53.1,37.2,53.5,37.3z"/>
	<path class="st4" d="M78.6,144c-0.9-1.5-1.5-2.8-0.8-4.7c0.7-2,2.2-2.6,3.6-2.4c1.3,0.2,2.7-0.6,3.9,0.5c0.6,0.6,1.1-0.2,1.5-0.7
		c2.4-3,3-6.8,4.5-10.3c0.4-1-0.4-1.2-0.9-1.7c-1-0.9-1.1-1.7,0.4-2c1.6-0.3,1.3-1.6,1.6-2.8c0.4-0.3,0.8-0.3,1.4-0.5
		c3.1-1.8,5.8-3.8,8-6.5c0.9-1.1,2-1.6,3.3-1.8c1-0.2,2-0.7,1.7-1.9c-0.5-2,0.7-3.1,2-4.2c0.7-0.6,1.3-1.2,1.7-2.2
		c-0.3-1.1-1-0.6-1.7-0.5c-2.8,0.1-5.2-0.7-7.6-1.5c-1.3-0.4-2.4-1.3-0.9-2.8c0.4-0.4,0.5-0.8,0.4-1.3l-4.4-3.8
		c-1.6,0.5-2.2-1-3.2-1.9c-0.5-1.5,0.6-1.9,1.5-2.4c2-1.1,4.2-1.5,6.4-2.5c1.3-0.5,2.6-0.6,4-0.9c0.6-0.2,1.1-0.2,1.7-0.1
		c0.8,0.2,1.4,0.2,1.8-0.6c0.5-0.4,0.9-0.6,1.5-0.8c2.3-0.5,4.4-0.8,6.6-0.6c1.3,0.1,2.5,0.7,2.8,2c0.3,1.4-0.1,2.8-0.7,4.2
		c-0.2,0.4-0.7,0.6-1,0.4c-2.6-1.6-4.1,0.8-6.5,1.6c1.3,0.4,1.7-0.3,2.1-0.6c1-0.8,2.1-1.2,3.3-0.6c0.7,0.3,1.5,0.5,2.3,0.5
		c2.9,0,4.9-2.1,4.4-5c-0.2-1.6-0.1-2.7,1.7-3c1.1-0.2,1.3-1.4,1.9-2.1c0.6-0.8,1.6-1.1,2.5-2.1c-1.5-0.4-2.4-0.1-3,0.9
		c-0.6,0.9-1.4,1.8-2.1,2.6c-2.1,2.4-5.3,2.1-6.9-0.7c-0.6-1.1-1.8-1.8-2.4-3.2c-0.3-1.5,0.6-2.6,1.1-3.8c0.1-0.2,0.2-0.3,0.4-0.6
		c0.4-0.3,0.7-0.4,1.1-0.8c2.3-0.3,4.2,0.3,5.8,1.9c0.3,0.3,0.8,0.8,0.9,0.7c2.3-1.2,4.4,0.3,6.6,0.3c1.6,0,2.5,0.2,2.8,1.8
		c0.2,1.2,0.8,2,1.8,2.7c1.7,1.2,2.2,3.3,2.6,5.4c0.7,1.6-0.6,2-1.3,3c-0.7,0.6-1.5,0.9-1.9,1.8c1,0.4,2,0.4,3,0.1
		c0.7-0.3,1.3-1.1,2.1-0.4c0.9,0.7-0.1,1.5,0,2.4c-0.7,0.8-0.4,1.6-0.5,2.4c0,0.4,0,0.6,0,1c-0.1,1.7-0.8,3.2,0.2,5
		c0.6,1-0.4,2.3-1.7,2.2c-1.2-0.1-1.8,0.4-2.5,1.1c-1.5,1.5-3.8,1.6-5.5,3.1c-2.4,0.8-3.6,2.7-4.8,4.5c-0.7,1-1.3,2-3,1.8
		c-2.9-0.6-3.2-0.5-4,2c-0.4,1.2-0.9,2-2.2,2.3c-1.4,0.3-2.2-0.5-3-1.5c-1.4-2-2.2-2-3.7,0.2c-0.1,0.3-0.2,0.3-0.4,0.5
		c-2.1,0.3-3.6,1.6-5.5,1.9c0,0.9,0.7,0.8,1.2,0.9c0.6,0.1,1.5-0.2,1.8,0.4c1.5,2.5,2.5,0.6,3.5-0.4c0.5-0.4,0.9-1,1.4-1.3
		c1.2-0.7,2.3-0.3,2.3,1c0,1.8,0.7,2.2,2.3,2c0.6-0.1,1.1,0.3,0.9,1.2c-0.1,0.1-0.1,0.4-0.1,0.5c-0.4,0.5-0.8,0.8-1.3,1.1
		c-0.5,0.2-1.3,0.2-1.2,0.9c0.1,0.6,0.9,0.5,1.4,1c0.5,2.7-0.8,5.5,1.2,8c0.6,0.7-0.5,1.1-1,1.2c-0.8,0.1-1.6,1.3-2.5-0.1
		c-1.4-2.2-3.5-2.4-4.5-0.2c-1,2.1-3.4,2.8-4.1,5.2c-0.3,0.9-2.5,1-3.3-0.2c-1.5-2.3-3-0.8-4.1,0.1c-0.9,0.7-1.8,1.5-2.6,2.4
		c-1.2,1.4-2.5,1.3-3.8,0.3c-0.6-0.4-1.3-1-1.9-0.3c-1.9,2.2-4.1,1.7-6.4,1.1c-0.5-0.1-1,0-1.7,0c-0.5,0-0.8,0.1-1.1,0.4
		C79.5,143.7,79.2,143.9,78.6,144z"/>
	<path class="st7" d="M107.2,85.4c-0.7,0-1.2,0-1.9,0c-1.4,0-2.8-0.3-4,0.9c-2.5,1.1-4.8,2.1-7.2,3c-0.6,0.2-1,0.5-1.1,1.3
		c-0.2,1.3-1.1,1-1.3,0.6c-1-2.1-3.6-2.9-4.3-5.4c0.2-1.2,1.4-1.5,1.6-2.5c-0.3-0.3-0.6-0.2-0.9-0.1c-3.3,1.3-4.9,0.5-5.7-3
		c-0.1-0.6,0-1.4-0.8-1.5c-0.7-0.1-0.9,0.5-1.2,1c-0.9,1.3-2.4,1.5-3.7,2c-1,0.4-1.3,0.9-0.6,1.7c0.7,0.9,1,1.8,0.6,3.1
		c-0.3,1.2-1.3,1.5-2.1,2.2c-0.8,0.7-0.6,1.4-0.4,2.1c0.4,1.7-0.1,3.1-1.5,4.4c-0.4,0.4-0.6,0.6-1.1,0.9c-1.7,0.5-2.6,1.3-2.7,3.1
		c-0.1,1.9-1.2,2.9-3.3,2.5c-0.3-0.1-0.4-0.1-0.6-0.3c-0.7-0.4-1.2-0.8-1.9-0.2c-0.2,0.1-0.3,0.2-0.6,0.2c-1.5,0-1.7-0.8-1.7-1.9
		c0-0.6,0-1.4-0.8-1.5c-0.4-0.1-0.8,0.2-1,0.5c-0.5,0.7-0.1,1.2,0.4,1.7c0.5,0.4,1,0.9,1.3,1.4c1.3,1.9,0.9,3-1.3,3.6
		c-2.6,0.7-3.4,3.1-2,5.4c0.9,1.4,2.1,2.5,1.9,4.5c-0.1,1.4,1.4,2,3.4,1.2c0.3-0.2,0.5-0.3,0.9-0.3c0.9,0.1,1.3-0.3,1.8-1
		c1.1-1.3,2.3-2,3.9-2.1c0.6,0,1.2,0,1.5-0.6c1.7-2.4,4-1.3,5.9-0.7c1.7,0.5,1.6,2,1,3.4c-0.4,1-1.3,1.7-1.5,2.8
		c2.7,0.2,5.4,0.4,8.1,0.3c1,0,2-0.1,2.6-0.9c1.6-2.2,4.2-2.8,6.8-3.9c-0.3,2.5-2,4.3-3.3,6.3c-0.2,0.2-0.7,0.5-0.8,0.4
		c-1.4-1.3-2.7,0.1-3.9,0.1c-4.5,0-8.7,1.8-13.1,2.6c-3.6,0.6-6.9,0-9.8-2.2c-1.2-0.9-2.3-1.6-3.7-2.2c-2-0.8-3.2-2.1-2.5-4.5
		c0.1-0.5,0.2-1-0.2-1.4c-3.1-2.7-0.9-5.7-0.3-8.5c0.2-0.9,0.7-1.4-0.1-2.4c-1.4-1.8-0.6-3.9,0.4-5.3c1.1-1.6,2.9-3.1,5.4-1.8
		c0.5,0.3,1.2,0.4,1.8,0.6c0.3,0.7-0.4,0.8-0.7,1.1c-0.7,1.1,0,1.9,0.9,2.4c0.9,0.5,1.4-0.1,1.7-1c0.7-1.7,1.1-3.4,2.9-4.5
		c0.9-0.5,1.1-1.7-0.4-2.1C67.3,91,66.6,90.8,66,90c0.1-0.8,0.3-1.3,0.8-2c1-0.4,2.4,1.2,3-0.9c0-2.5,1.5-4.5,1.2-6.9
		c-0.1-0.7,0.7-1.2,1.5-1.7c2.2-0.4,3.7-1.5,4.8-3.2c0.5-0.7,1.1-1.4,1.9-1.9c1.6-1,3-1.2,4.6,0.2c2.6,2.2,3.7,2,5.8-0.5
		c0.8-1,1.8-0.8,2.5-0.1c1.5,1.5,3.1,1.7,5.1,1.3c0.9-0.2,1.8,0.1,2.5,0.6c0.9,0.5,1.9,0.8,3.1,0.9c1.7,0.6,2.8,1.8,4.5,2.4
		c1,0.9,1.9,0.2,2.9,0c0.8-0.1,1.5-0.1,2,0.2c1,0.5,1.9,1.2,1.9,2.5c0,1.1-0.8,1.6-1.7,2.1c-0.7,0.3-1.5,0.6-2.4,1
		c-0.5,0.3-0.9,0.4-1.4,0.6C108.2,84.9,107.8,85.2,107.2,85.4z"/>
	<path class="st2" d="M72.8,78.6c-1.1,1-1.7,1.9-1.2,3.5c0.5,1.7-1.2,3-1.6,4.8c-1-0.3-1-0.8-0.8-1.7c0.3-1-0.1-2.2-1-2.8
		c-0.9-0.6-1.5,0.5-2.2,1c-1.9,1.4-3.7,2.8-5.6,4c-1.7,1.1-3.6,1.8-5.9,0.9c-1.2-1.3-2.3-2.6-3.3-3.8c-0.4-0.5-1-0.5-1.5,0
		c-1.1,0.9-1.1-0.3-1.6-0.9c-0.3-0.3-0.4-0.5-0.5-0.9c0-2.7-0.1-5.3,1.8-7.4c0.8-0.8,0.5-1.6-0.8-1.7c-0.6,0-1-0.5-1-1.3
		c0.3-1.1,0.9-1.7,1.7-2.2c0.8-0.5,1.4-1.2,1.3-2.2c-0.1-2.1,0.9-3.1,3-3.3c0.5,0,0.9-0.4,1.4-0.9c2.3-1.5,4.9-0.7,7.2-1.2
		c1.5-0.3,3-0.6,4.4-1.5c2.3-0.7,4.3-1.2,6.8-0.9c2.9,0.9,3,1.3,1.3,3.5c-0.7,0.9-0.7,1.6-0.3,2.6c1.6,3.8,1.5,4.2-1.9,6.4
		c-0.8,0.5-1.6,1-0.4,1.9C73.5,75.7,73.5,77,72.8,78.6z"/>
	<path class="st2" d="M42.7,105.2c-1.5,0.7-3.5,0.2-4.4,2.2c-0.2,0.4-5.8-2-5.8-2.5c0.1-1.1,0.2-2.5,1.2-3c1-0.6,1.8,0.6,2.6,1.3
		c0.5,0.4,0.3,1.3,1.2,1.6c0.4-1.9,1.1-3.6,2.6-4.9c0.4-0.3,1-0.8,1.1-0.5c0.4,2,2.3,1.6,3.5,2.3c0.5,0.3,1.3,0.7,1.1,1.4
		c-0.3,0.8-0.9,0.2-1.4,0.1c-0.7-0.1-1,0.3-1.2,1.1C43,104.6,42.9,104.8,42.7,105.2z"/>
	<path class="st0" d="M111.3,102.3c0.1,1.1-0.6,2.1-1.3,2.5c-1.9,1.3-3.3,2.6-2.5,5.3c0.3,1-0.7,1.4-1.7,1.5c-1.7,0.2-2.7,1.1-4,2.3
		c-2.2,2.2-4,4.9-7.6,5.4c1.4-2.9,3.9-5,6.4-7c1.1-0.9,2-1.9,3-3c-0.7-1.1-0.1-1.7,0.6-2.4c1.3-1.3,2.7-2.5,4.3-3.6
		c0.2-0.2,0.3-0.2,0.6-0.4C109.8,102.5,110.4,102,111.3,102.3z"/>
	<path class="st7" d="M108.8,103.3c-1.4,1.5-2.8,2.9-4.4,4.3c-0.4,0.4-0.9,0.7-0.8,1.5c-0.9,0.1-1.5,0.4-2.1,1
		c-0.4,0.4-0.9,1-1.3,0.9c-2.6-0.4-4,1.6-6.1,2.5c-0.2,0-0.2,0-0.2,0c-0.2-2.1,0.6-3.7,2.6-4.5c3.3-1.4,6.2-3.3,9.3-5.1
		C106.7,103.4,107.5,102.7,108.8,103.3z"/>
	<path class="st2" d="M53.8,91.6c-0.6,0.5-1.3,0.8-1.9,1.2c-0.4,0.3-0.6,1.1-1.3,0.6c-0.5-0.4-0.9-1.1-0.6-1.7
		c0.7-1.4,1.2-3.1,3.5-2.8C53.8,89.7,53.8,90.5,53.8,91.6z"/>
	<path class="st1" d="M66.9,87.7c-0.1,0.8,0.3,1.6-0.8,2.1c-1.9-0.7-1-2-0.8-3.2c0.6-0.2,1-0.1,1.5,0.2
		C66.9,87.1,66.9,87.3,66.9,87.7z"/>
	<path class="st3" d="M69.3,140.4c1.7-1,2.2,0,2.4,1.6C69.9,143.1,69.6,141.8,69.3,140.4z"/>
	<path class="st7" d="M66.9,86.8c-0.5,0.1-0.9,0-1.4-0.2c0-0.9,0.5-1.2,1.2-1C67.4,85.7,67.2,86.2,66.9,86.8z"/>
	<path class="st3" d="M55.2,64c-0.1,1.3-1,1.6-1.8,1.6c-1.6-0.1-2.3,0.6-2,2.1c0.5,2.7-2.3,2.8-3.3,4.6c-0.4,0.6-0.7,1.1-1.3,1.5
		c-1.1,1.1-3,0.7-3.4,2.6c0.2,1.2,0.1,2.3,0.2,3.4c0.9-0.1,0.8-0.7,1-1.2c0.3-0.7,0.7-1.3,1.6-1.1c0.8,0.2,1.2,0.7,1.3,1.5
		c0.1,1.1,0.6,2.2,0.5,3.4c0,0.4,0,0.6,0,1c-0.7,0.7,0.1,1.8-0.9,2.5c-0.4,0.1-0.8,0.1-1.3,0.1c-2.2,1.2-2.6,1-2.9-1.2
		c-0.1-0.5-0.2-0.9-0.5-1.5c-0.2-0.3-0.2-0.4-0.5-0.6c-0.5-0.5-1.2-0.5-1.8-1c-0.5-0.9-0.7-1.6-1-2.4c-0.7-1.5-0.5-2.5,0.8-3.8
		c1.8-1.6,3-3.7,5.3-4.6c0.4-0.1,0.5-0.6,0.7-1c1.2-4,4.4-5.5,8.1-6.6C54.5,63.3,54.8,63.5,55.2,64z"/>
	<path class="st5" d="M42.6,93.8c0.9-1.1,1.7-2.2,3.3-1.2c1.4,2.3-0.7,4.1-0.5,6.3c0.1,0.6-1.1,0.7-1.2,0
		C43.9,97.2,42.2,95.9,42.6,93.8z"/>
	<path class="st5" d="M50.1,96.9c0.5,1,0.1,1.6-0.5,2.2c-0.5,0.5-1,1-1.9,0.5c-0.4-0.2-1-0.1-1.1-0.7c-0.2-0.9,0.6-1.1,1.2-1.5
		C48.5,96.9,49.1,96.4,50.1,96.9z"/>
	<path class="st3" d="M39.2,92.4c0.9-0.2,1.4,0.4,1.9,1.1c0,0.5,0.1,0.8,0,1.1c-0.4,1-1.3,1.6-2.2,1.3c-1-0.4-0.5-1.5-0.3-2.3
		C38.7,93.3,38.9,92.9,39.2,92.4z"/>
	<path class="st2" d="M48.2,95.9c-0.4,0.1-0.5,0-0.5-0.3c0-0.1,0.1-0.1,0.2-0.2C48.2,95.3,48.3,95.5,48.2,95.9z"/>
	<path class="st6" d="M54.4,63.6c-3,0.8-5.9,2-7.2,4.6c-1.1,2.2-2.2,3.7-4.4,4.8c-1.4,0.7-1.8,3-3.7,3.8c-0.7,0.3,0,1.4,0.2,2
		c0.3,0.8,1,1.5,0.8,2.6c0.2,0.5,0,0.8-0.4,1.1c-0.3,0.1-0.6,0.1-0.9,0.1c-1.7-1.5-1.2-3.6-1.8-5.4c-0.3-0.8,0-1.9,0.2-2.8
		c0.4-1.8,0.4-4,3.1-4c0.1,0,0.3-0.1,0.4-0.2c2.5-2.4,4.5-5.3,7.3-7.4c0.9-0.7-0.9-2.3,0.6-2.7c1.6-0.3,0.8,1.7,1.6,2.2
		c0.9,0.6,1.8,0.6,2.6-0.1c0.6-0.5,1.1-1,1.7-1.7c0.4-0.2,0.8-0.2,1.3-0.2c0.7-0.5,1.4-0.8,2-1.3c2.5-0.9,5-0.5,7.6-1.1
		c0.5-0.3,0.7-0.5,1.1-0.9c2.7-1.5,5.2-2.2,8.4-2c3.4,0.3,6.8,1.9,10.1,0.8c2.7-0.9,5.1-0.3,7.6,0.1c0.9,0.1,1.7,0.3,2.5,0.7
		c3.6,2,7.4,3.3,10.7,6c2.8,2.3,6.9,1.9,10.3,3c2,0.6,4.2,0.4,6,1.6c1,0.6,1.6,0.2,2.5-0.6c2.1-2,4.6-1.6,6,0.9
		c0.7,1.3,1.5,2.4,2.3,3.7c0.1,0.7,0.1,1.3-0.4,2c-0.7,0.1-1.2,0.1-1.7,0.5c-1,1-1.3,0-1.7-0.8c-0.5-0.4-0.6-0.9-0.7-1.4
		c-0.1-0.5-0.1-1.3-0.8-1.3c-0.6,0-0.4,0.9-0.9,1.4c-1.3,0.8-2.4,0.3-3.2-0.4c-3-2.7-6.9-2.8-10.5-3.8c-2-0.5-4-1-6.2-1
		c-1.4,0-2.9-2.1-4.4-3.1c-4.7-3.3-9.8-5.2-15.6-4.6c-3.4,0.4-6.7,0.7-10.1-0.6c-3.6-1.3-7.2-0.1-10.9,0.9c-1.2,0.8-2.5,1.4-3.7,1.4
		C59.3,60.6,57,62,54.4,63.6z"/>
	<path class="st4" d="M42.2,83.2c0.8,0.2,1,0.8,1,1.6c0,1.6,0.9,1.7,2.2,1.2c-0.3,0.9-0.6,1.9-1.2,2.7c-0.4,0.5-1.2-0.1-1.7-0.4
		c-0.7-0.4-1-1.2-0.6-1.9C42.3,85.4,42.4,84.4,42.2,83.2z"/>
	<path class="st4" d="M39.9,82.6c-0.1-0.2,0.1-0.5,0.2-0.8c0.6-0.1,1.1,0.1,1.4,0.7C41.2,82.6,40.6,82.6,39.9,82.6z"/>
	<path class="st2" d="M113.8,160.7c1.5-0.3,3.1-0.3,4.3,1c1,1.2,1.6,2.6,0.6,3.9c-1.1,1.4-2.4,0.8-3.7-0.2
		C113.9,164,113.8,162.5,113.8,160.7z"/>
	<path class="st0" d="M103.8,165.1c0.6-0.7,1.1-1.6,1.9-0.9c0.6,0.6,0.1,1.4-0.5,1.8C104.6,166.5,103.8,166.5,103.8,165.1z"/>
	<path class="st6" d="M119.3,135.8c0.3-1.7,1.7-1.5,3-1.4c2.5,0.2,3.9-1.2,5-3.1c0.5-0.8,0.4-1.3-0.4-1.8c-1.7-1.1-4.5-0.6-5.2,1.3
		c-0.6,1.5-1.9,1.2-3,1.5c-0.9,0.2-1.5-0.4-1.9-1.2c-0.4-1.1,0-2,0.8-2.8c1-1,1.8-2.5,3.3-0.6c0.5,0.6,1.1,0.3,1.4-0.3
		c0.3-0.7,0-1.4-0.7-1.5c-1.1-0.3-1.4-1-1.7-2c-0.3-1.2-0.1-2,1-2.3c1.8-0.5,1.8-1.6,1.3-3c-0.3-0.9-0.4-1.7,0.5-2.4
		c0.9-0.6,1.8-0.7,2.7-0.1c1.4,1,2.5,1,2.6-1.1c0.2-2.7,2-2.7,3.8-2.3c2.5,0.6,4.3-0.5,6.2-1.8c0.7-0.5,1.2-1.1,1.9-1.4
		c1.3-0.5,1.7-1,0.8-2.2c-0.6-0.9-0.9-2,0.7-2.4c0.9-0.2,0.9-0.9,0.8-1.5c0-0.9,0.1-1.7,0.7-2.5c0.8-1,0.8-2.2,0.3-3.4
		c-1.4-3.1-1.1-6.1,0.1-9.1c0.3-0.9-0.2-1.2-0.6-1.6c-1.9-2-4-3.8-3.9-6.9c0-0.3-0.2-0.7-0.5-0.8c-2.8-0.8-3.3-3.7-5.3-5.5
		c2.7-1.1,6.2,0.4,7.6,2.7c0.9,1.6,1.6,3.3,2.7,4.8c0.4,0.5,0.9,1.1,1.6,0.8c0.7-0.4,0.4-1.2,0.1-1.7c-1-2.3-1.6-4.8-3.9-6.5
		c-1.7-1.2-1.4-3.5-2.2-5.4c-0.5-0.4-0.6-0.8-0.6-1.4c0.5-0.7,0.7-1.4,1.3-1.9c0.9-0.7,2-1,2.6-0.1c1.3,1.9,3.3,3.4,3.9,6
		c1.2,4.8,2.1,9.6,2.1,14.7c0,3.7,0.8,7.5,0.5,11.2c0,0.2,0.1,0.5,0,0.7c-1.1,1.9-1,4.3-2.1,6c-1.6,2.5-3,4.7-2.7,7.8
		c0.1,1.4-0.9,1.3-2,1.1c-2.3-0.4-5,1.4-5.2,3.6c-1.1,1.9-2,4-4.9,3.7c-1.2-0.1-2.6,0.8-3.6,1.7c-1.3,1.1-0.4,2.6,0.5,3.3
		c1.3,1,1.8,1.8,1.4,3.6c-0.5,2.3,1.4,2.1,2.9,1.9c0.8-0.1,1.7-0.8,2.2,0.1c0.5,1,0.3,2.2-0.2,3.3c-0.4,0.8-1.1,0.8-1.9,1
		c-2.3,0.5-4.7-0.4-6.9,1.2c-0.9,0.7-2.4,1.2-3.8,0.2C121.5,135,120.5,135.4,119.3,135.8z"/>
	<path class="st7" d="M137.1,115.8c-1,0-1.1-0.6-0.8-1.4c0.7-1.4,4.1-3.1,5.6-2.7c1.4,0.4,1.8,0.6,1.7-1.4c-0.1-2.3,0.3-4.9,2.3-6.8
		c0.2-0.2,0.5-0.4,0.7-0.6c1.4-1.5-0.8-2.2-0.7-3.2c0.1-1.3,2.9,0,2.5-1.8c-0.4-1.8,0.2-3.5,0.2-5.2c0.1-1.9,0.1-3.8-0.8-5.7
		c-1-2-0.1-4.3-0.1-6.4c0.1-4.1-1.6-7.7-2.6-11.4c-0.4-1.5-2.1-2.5-2.9-4c-0.4-0.8-1.3-0.6-1.9-0.1c-0.6,0.4-1,1-1.7,1.5
		c0.1-1.1-0.9-2.8,0.5-3.2c1.5-0.3,2.9,0.6,4.2,1.7c2.6,2.2,2.7,5.4,4,8.1c2.1,4.4,1.4,8.8,1.7,13.2c0.4,4.9,0.9,9.9,0.9,14.9
		c0,2.2-0.5,3.8-3.2,4.2c-1.8,0.2-1.7,2.6-2.4,4c-0.5,1,1,1.1,1.8,1.3c1.2,0.3,1.8,4.2,0.7,4.7c-1.2,0.6-2,1.6-3.1,2.3
		c-1,0.6-1.9,1-2.6-0.2c-0.6-1-0.8-2.1,0.2-3c0.4-0.4,1.5-0.4,1-1.3c-0.4-0.8-1.4-0.8-1.9-0.5C139.3,113.5,137.6,113.9,137.1,115.8z
		"/>
	<path class="st7" d="M139,68.2c1.2,3.5,4.7,5.8,5.9,9.5c0.3,0.9,0.9,1.7,1.2,2.6c0.3,0.8,0.4,1.8-0.5,2.4c-0.9,0.6-1.5-0.2-2-0.7
		c-1.7-1.8-2.6-4-3.6-6.2c-0.3-0.6-0.4-1.5-1.1-1.4c-1.9,0.3-3.4-1.3-5.5-1.1c-0.2,0-0.4,0-0.6,0c0-0.6,0-1.1,0.2-1.8
		c1.4,1,3.1,1.3,4.5,0.6C139,71.5,139.2,69.9,139,68.2z"/>
	<path class="st6" d="M103.3,142.1c-0.1-0.2,0-0.7,0.1-0.7c2.3,0.3,3.7-0.7,4.7-2.9c0.3-0.8,1.7-1.3,2.7-1.3c2.2,0.2,4-0.9,6.2-1.5
		c-1.4,1.8-2.3,4.3-5.4,4.4c-1.1,0-1.9,1.3-2.9,1.9C107.1,143.3,105.2,143.8,103.3,142.1z"/>
	<path class="st7" d="M58,58.9c0.1,1-0.7,1.2-1.6,1.4C56.3,59.3,57.1,59.1,58,58.9z"/>
	<path class="st7" d="M66.7,56.9c0.1,0.4,0,0.8-0.7,0.9C65.9,57.4,66,57,66.7,56.9z"/>
	<path class="st0" d="M72.9,78.7c-0.2-1.6,0.3-3.5-2.1-4c-0.7-0.1-0.5-0.9-0.1-1.4c0.4-0.4,0.9-0.6,1.4-0.9c3.2-1.7,3.6-2.7,1.6-5.9
		c-0.8-1.3-0.7-2.4,0.4-3.1c2.2-1.4,0.9-2.1-0.5-3c0.9-0.9,1.9-0.9,2.6,0.1c1.8,2.2,4.6,2.7,6.9,1.1c1.9-1.4,4.2-1.1,6.3-1
		c2.2,0.1,4.8-0.3,6.3,2.4c0.5,0.9,2.5,0.9,3.8,1.5c-0.2,2.3-0.9,2.8-2.8,2.1c-0.7-0.3-1.4-0.7-2.3-0.8c-1.8-0.2-2.2,0.2-1.8,2
		c0.2,0.6,0.3,1.3,0,1.9c-0.9,2.1,0.4,2.3,1.8,2c2.8-0.6,5.1,0.3,7.3,2c1.2,0.9,3.1,0.7,4.5,0.1c1.2-0.5,0.7-2,0.7-3.1
		c0-0.6-0.2-1.3,0.1-2c0.7-0.3,1.4-0.5,2-0.5c0.7,0,1.1,0.6,1.4,1.2c0.3,0.7-0.2,1-0.7,1.3c-0.3,0.2-0.5,0.4-0.7,0.7
		c-0.4,0.5-0.6,1.1-0.2,1.6c0.6,0.7,1-0.1,1.4-0.4c0.4-0.3,0.7-0.6,1.2-1c0.4,0.2,0.5,0.5,0.6,1c-0.2,1.7,0.7,1.7,1.8,1.4
		c0.8-0.2,1.5-1,2.5-0.7c-0.3,1.3-0.8,2.4-1.3,3.8c-1.8,1.1-2.8-0.6-4.3-1.2c-0.2-0.1-0.3-0.1-0.5-0.3c-0.4-0.2-0.6-0.3-0.8,0.1
		c-0.4,0.6-0.9,0.9-1.6,1.1c-1.7,0.2-3.1-0.3-4.7-0.5c-1.6,0-2.9,0.1-4.1-0.9c-0.4-0.3-1.1-0.6-1.6-0.5c-2.5,0.6-4.7,0.5-6.4-1.8
		c-0.2-0.3-1-0.5-1.4,0.3c-1.3,2.7-3.9,3.2-6.2,1.2c-2.2-2-3.9-1.8-5.7,0.6C76.8,76.9,75.6,78.8,72.9,78.7z"/>
	<path class="st4" d="M107.3,68.5c0.4,1.1,0.7,2.2,0.7,3.3c-0.1,2.8-0.5,3.3-3.3,2.7c-0.7-0.1-1.2-0.1-1.7,0.4
		c-0.4,0.4-0.8,0.3-1.2-0.2c-1.6-2.2-3.6-3.2-6.3-2.4c-0.8,0.2-1.6,0-2.4,0c-1.5,0-1.9-0.7-1.2-2c0.7-1.2,0.9-2-0.2-3.2
		c-1.2-1.1,0.1-1.8,0.9-2c1.4-0.3,3-0.4,4.2,0.6c1.5,1.3,2.3,0.5,3-1.1c0.7-0.1,1.6-0.4,2,0.6c0.6,1.9,2.1,2.4,3.8,3
		C106.1,68.5,106.6,68.5,107.3,68.5z"/>
	<path class="st0" d="M116.9,122.2c-0.4-1.3-1.2-0.8-2-0.6c-1.5,0.3-2.5,0.1-1.8-1.8c0.2-0.7,0.3-1.3-0.4-1.7
		c-0.8-0.4-1.1,0.4-1.6,0.8c-0.5,0.4-0.9,0.9-1.4,1.3c-1.2,1.2-2.3,3.9-3.5-0.1c-0.2-0.7-1.1-0.3-1.7-0.2c-1.2,0.3-1.8-0.4-2.2-1.4
		c-0.2-0.5-0.1-1.3,0.4-1.1c2.3,1,3.7-1.9,6-1.1c0-1.4,0.3-2.3,2-2.7c1.7-0.4,2.2,0.3,2.7,1.5c0.5,1.2,1.2,1.9,2.5,1.6
		c1.3-0.3,1.6-1.3,1.7-2.5c0.3-2.3,2.4-3.1,4.2-1.4c-0.3,0.8-0.6,1.7-1.3,2.1c-1.9,1.4-3.8,2.6-2.6,5.5
		C118.3,121.1,117.8,121.9,116.9,122.2z"/>
	<path class="st0" d="M129.9,106.9c0.5-1.4,1.6-2,2.9-2.4c1.1-0.3,2.2-0.6,2.7-1.8c0.3-0.8,1.1-1,1.8-0.7c1,0.4,1.5-0.1,2-0.8
		c0.4-0.7,0.1-1.2-0.5-1.7c-1.8-1.5,0.4-2.5,0.6-3.9c2.8,0.7,1.4,2.8,1.5,4.4c0.1,1.4-0.9,2.7-2.5,3.1c-0.3,0.1-1-0.6-1,0.4
		c-0.1,2.2-1.1,3-3.4,2.4c-0.4-0.1-1-0.1-1,0.2C133,110.3,131,107,129.9,106.9z"/>
	<path class="st0" d="M54.4,63.7c1.4-1.9,3.2-3.7,5.8-3.4c2,0.2,3.4-1.3,5.5-1c0.2,0.7,0.7,1.1,1.1,1.8c-1.6,3.1-4.7,1.9-7.2,2.5
		c-1.3,0.3-2.7-0.2-4.2,0.4C55,64,54.8,63.9,54.4,63.7z"/>
	<path class="st3" d="M116.8,73.2c-1.2,0.2-1.8,1.3-2.8,1.4c-1.2,0.2-2.7,0.7-2.3-1.7c0.9-0.8,1.4-1.8,2.4-2.5c1.2,0,2.4,0,2.6,1.7
		C116.9,72.6,117,72.8,116.8,73.2z"/>
	<path class="st0" d="M127,72c0.2-1-0.9-2.7,0.7-2.7c1.8,0,1.6,1.8,1.6,3.3C128.5,72.9,127.7,73,127,72z"/>
	<path class="st0" d="M115.8,125.5c-0.4,0.2-0.8,0.2-1.2,0.2c-0.7,0-1.4-0.1-1.5-0.8c-0.1-0.8,0.6-1.3,1.2-1.5
		c0.7-0.2,1.4-0.4,2.2-0.6C116.8,123.7,115.6,124.3,115.8,125.5z"/>
	<path class="st0" d="M105.6,68.4c-1.7,0-4,0.7-3.8-2.5C103,66.4,104.5,67,105.6,68.4z"/>
	<path class="st4" d="M114.3,70.3c-0.5,1.1-0.8,2.2-2.2,2.6c-0.2-0.3-0.2-0.7-0.2-1.3C112.3,70.3,112.5,68.8,114.3,70.3z"/>
	<path class="st0" d="M136.8,88.3c-0.3-1.1,1.1-1.5,1.2-2.7c0.8-0.2,1.4-0.1,1.5,0.9c0,0.9-0.3,1.3-1.2,1.4
		C137.8,88,137.4,88.2,136.8,88.3z"/>
	<path class="st0" d="M139.6,94.5c-0.8-0.7-1-1.5,0.2-2.3C139.9,93,139.8,93.7,139.6,94.5z"/>
	<path class="st0" d="M80.1,143.6c-0.1-0.4-0.1-1,0.7-0.6C80.7,143.2,80.4,143.4,80.1,143.6z"/>
	<path class="st0" d="M116.9,73.3c-0.2-0.2-0.2-0.4-0.2-0.8c0.2-0.2,0.4-0.2,0.8-0.2C117.7,72.8,117.5,73.2,116.9,73.3z"/>
	<path class="st2" d="M79,129.4c-1.1-0.3-2.5-0.2-2.2-1.7c0.2-1,0.9-1.7,2.1-1.5c1,0.2,2.2,0.1,2.5,1.4
		C81.7,129.4,80,128.9,79,129.4z"/>
	<path class="st4" d="M84.9,132c-0.8,0.6-1.4,1.9-2.2,1c-0.9-1-0.3-2.4,0.5-3.5c0.4-0.6,0.9-1.2,1.8-0.5
		C86.2,129.9,85.6,130.9,84.9,132z"/>
	<path class="st5" d="M58.9,127.4c-0.8,0.8-1.5,0.8-2,0c-0.3-0.6-0.1-1.1,0.4-1.4c0.6-0.4,1.2-1,1.9-0.5
		C60,125.9,59.3,126.6,58.9,127.4z"/>
	<path class="st5" d="M74.9,129.3c0.4,0.3,0.7,0.7,0.2,1c-0.1,0.1-0.6-0.1-0.7-0.3C74.2,129.6,74.3,129.2,74.9,129.3z"/>
	<path class="st1" d="M109.1,103.4c-3.6,0.9-6.2,3.3-9.3,4.8c-0.5,0.2-0.9,0.8-1.4,0.8c-2.6,0.2-3.7,2-4.4,4.3
		c-2.1,1.9-5.3,1.9-6.7,4.6c-0.4,0.8-1.2,1-2.1,0.9c-2.5-0.2-5,0.4-7.4-0.3c-0.2-0.1-0.5-0.1-0.7-0.1c-0.7,0.1-1.5,1.4-2.1,0.6
		c-0.6-0.8,0.7-1.6,1.1-2.5c0.2-0.6,0.8-1,1.1-1.6c0.9-1.5,0.4-2.7-1.3-2.9c-1.7-0.2-4.1-1.9-4.8,1.4c-0.1,0.3-0.5,0.3-0.8,0.2
		c-1.9-0.7-3.2,0.4-4.6,1.7c-0.5,0.4-0.8,0.8-1.5,1c-0.4,0-0.6,0-1,0c-2-0.8-5.4-6.9-5-8.7c0.4-1.8,3.8-3.8,5.5-2.9
		c1.4,0.6,2,0.2,2.8-0.8c1.9-2.5,2.6-2.4,3.9,0.6c1.3-0.7,2.3-1.8,4-1.6c0.8,0.1,1.8-1,1.4-1.9c-1.3-2.7,0.9-4.5,1.5-6.7
		c0.4-1.3,0.6-1.7-0.8-2.2c-1.6-0.5-2.8-1.6-2.4-3.7c0.3-1.2,1.7-0.8,2-1.9c1.2-1.4,2.8-2.3,3.3-4.1c0.3-0.9,1.4-1,2.3-0.9
		c0.9,0.1,1.5,0.6,1.6,1.5c0.2,1.6,0.9,2.2,2.4,1.4c0.8-0.4,1.6-0.4,2,0.8c0,0.9,0.4,1.5,0.9,1.8c1.5,0.8,2.6,2,3.2,3.6
		c0.1,0.4,0.5,0.6,1.1,0.2c0.8-0.1,1.4-0.1,1.6,0.7c0.2,0.9,0.7,1.1,1.6,0.5c1.2-0.8,1.8-0.2,1.8,1.1c0,1,0.4,1.4,1.4,1.4
		c1.4,0,1.9,1.1,2.3,2.2c0.4,1.1-0.4,1.3-1.1,1.9c-1.1,0.9,0.2,1.5,0.9,1.7c2.4,0.5,4.7,1.5,7.4,1.5c1.1-0.1,1,0.5,0.8,1.3
		C109.5,103.4,109.2,103.4,109.1,103.4z"/>
	<path class="st5" d="M110.3,75.4c2-0.5,2.8,1.7,4.8,1.8c1,1.8,2.6,2.8,3.5,4.6c0.7,1.4,3.2,1.2,4.3,0.3c1.2-0.9,2.4-2.1,3-3.7
		c0.2-0.5,0-1.2,0.9-1c1.1,0.2,2.4-1.5,3.2,0.4c0.7,1.9-1.3,1.3-2,2c-0.6,0.6-1.1,1.2-1.4,1.9c-0.2,0.4-0.5,1.2-0.7,1.2
		c-3.3-0.2-2,2-1.8,3.5c0.2,1,0.1,1.5-0.8,1.9c-0.2,0.1-0.4,0.3-0.6,0.4c-1.4,2.1-3.3,3-5.7,2c-1.9-0.8-3.1-0.7-4.2,1
		c-0.4,0.6-0.9,0.6-1.5,0.5c-0.5,0-1-0.2-1.2-0.7c-0.2-0.6,0.5-0.7,0.8-1c1.5-1.4,3.7-1.3,5.2-2.9c0.5-0.5,1,0.1,1.1,0.7
		c0.1,0.7,1,1.1,1,0.5c0-1.4,1-2.7,0.5-3.9c-0.4-1.1-1.6-1.4-2.8-1.4c-1.9,0-3.7,0.2-5.7,0.5c-0.1-1.2,1.1-1,1.7-1.4
		c0.7-0.5,2.1-0.6,1.8-1.9c-0.3-1.1-1.1-1.9-2.4-2c-0.3,0-0.6,0-1.2,0C109.8,77.6,110.2,76.6,110.3,75.4z"/>
	<path class="st5" d="M101.4,86.4c0.5-1.8,2-1.5,3.6-1.1C104.1,86.4,102.7,85.6,101.4,86.4z"/>
	<path class="st7" d="M109.6,103.3c-0.2-0.3-0.3-0.8-0.5-1.3c0.7-0.8,1.5-0.9,2.3,0.2C110.7,102.4,110.3,102.9,109.6,103.3z"/>
	<path class="st0" d="M107.1,85.6c-0.1-0.8,0.3-1.1,1.2-1.1C108.4,85.3,108.6,86.2,107.1,85.6z"/>
	<path class="st8" d="M73.9,88.4c0.4,1.8,1.2,3.1,3.2,3.4c1.8,0.3,1.6,0.9,1,2.5c-0.8,2.1-3.4,3.9-1.4,6.8c0.8,1.2-1.4,1.5-1.5,2.6
		c-0.1,0.5-0.6,0.7-1.1,0.3c-1.1-0.9-1.8-0.5-2.5,0.6c-0.3,0.5-0.7,1.2-1.5,1c-0.8-0.2-0.7-0.9-0.8-1.6c0-0.5,0.2-1.1-0.4-1.3
		c-0.7-0.3-1,0.4-1.4,0.7c-0.4,0.5-0.8,1-1.1,1.6c-0.7,1.1-1.4,1.8-2.6,0.5c-0.7-0.7-1.7-1-2.3-0.3c-0.9,1.2-3.7,1.4-2.8,3.6
		c1.1,2.6,2.1,5.2,4.2,7.5c-0.4,1.2-1,2.2-2.2,1.3c-1-0.7-2.9-0.8-2.2-3.1c0.4-1.3-0.7-2.7-1.6-3.4c-1.8-1.4-0.6-3-0.5-4.4
		c0.2-1.2,1.4-2,2.7-2.2c2.1-0.4,2.4-1,1.1-2.7c-0.3-0.4-0.8-0.8-1.2-1.1c-0.8-0.5-1.7-1-1-2c0.5-0.8,1.2-1.7,2.3-1.5
		c1.2,0.3,1.4,1.3,1.2,2.3c-0.1,0.7-0.6,1.5,0.9,1.5c0.9,0.3,1.3,3.1,2.5,0.1c2.7,0.4,3.4,0,3.5-2.5c0-1.8,1-2.6,2.8-2.9
		c0.3,0.1,0.4,0.2,0.5,0.3c0.3,0.4,0.5,1.3,1,1c0.8-0.4,0-1-0.3-1.7c1.4-1.9,1.8-3.8,0.9-5.9C73.1,89,73.3,88.6,73.9,88.4z"/>
	<path class="st8" d="M87.8,85.4c-0.8-0.8-1.3-0.8-2.3-0.1c-1.5,1-3,0.1-2.9-1.7c0-0.7,0.2-1.3-0.7-1.4c-0.9-0.1-2.2-0.2-2.2,0.8
		c-0.1,2.3-1.8,2.7-3.5,3.5c0.2-1.1,0.1-2-0.9-2.9c-1.3-1.2-0.9-2,0.8-2.4c1.6-0.4,3.5-0.5,4-2.7c0.2-0.7,1-0.8,1.6-0.6
		c0.7,0.2,1.6,0.8,1.3,1.5c-0.9,2.1,1.4,2.6,1.8,4.1c0.2,0.9,0.9,0.3,1.4,0.1c0.4-0.2,0.8-0.6,1.2-0.7c0.8-0.2,1.7-1.2,2.4-0.3
		c0.9,1.2-0.5,1.6-1.1,2.2C88.5,84.9,88.2,85.1,87.8,85.4z"/>
	<path class="st2" d="M110.3,75.2c0.4,1.2,1,2.3-0.3,3.3c-0.9,0.3-1.4,1.9-2.5,0.3c-0.6-0.9-0.2-1.6,0.3-2.4c0.7-0.1,1.1-0.4,1.5-1
		C109.7,75.1,109.9,75,110.3,75.2z"/>
	<path class="st5" d="M107.8,76.3c0.1,0.7-0.1,1.4-0.3,2.2c-1.7,0-2.9-1-4.3-2.1C104.6,75,106.1,76.7,107.8,76.3z"/>
	<path class="st1" d="M72.1,95.2c1.5-0.2,1.6,0.7,1.6,1.8c0,0.6-0.3,1.1-1,1.1c-1.3,0-1.4-1-1.4-2.2C71.5,95.5,71.7,95.4,72.1,95.2z
		"/>
	<path class="st1" d="M64.9,101c0,0.8,1.1,2.1-0.6,2.3c-1.2,0.2-1.9-0.6-1.8-2.1c0-0.2,0.2-0.2,0.4-0.2c0.6-0.4,1.1-0.4,1.9-0.1
		C64.9,101,64.9,101,64.9,101z"/>
	<path class="st8" d="M64.8,100.8c-0.4,0.1-1,0.1-1.7,0.1C63.4,99.5,64,100,64.8,100.8z"/>
	<path class="st8" d="M64,116.6c0.1-0.6,0.5-1,1.2-1.1C65.3,116.2,65.2,116.9,64,116.6z"/>
	<path class="st4" d="M46.5,73.5c0.4-0.4,0.8-0.7,1.3-1.1c0.2,0.5,0.4,1,1,0.8c2.6-0.9,2.3,0.8,1.4,1.9c-1.7,2.2-2.3,4.5-2.2,7.3
		c-1-0.9-1.1-2-1.1-3.3c0-0.7-0.3-1.3-1.1-1.3c-0.8,0-0.8,0.6-0.8,1.2c-0.1,1.1-0.6,2.1-1.7,1.9c-1.2-0.2-0.7-1.4-0.5-2.2
		c0.3-0.8-0.3-1.4-0.2-2.3c0.9-0.8,2.1-0.4,3.2-0.8c0.6,0.1,0.9,0.6,1.4,0.2c0.2-0.2-0.1-0.4-0.3-0.7C46.6,74.6,46.5,74.1,46.5,73.5
		z"/>
	<path class="st2" d="M46.2,75.7c-1.1,0.8-2,1.3-3.4,0.5c-0.4-2.7,2.4-1.6,3.5-2.9C47,73.6,47,74,47,74.6
		C46.9,75.2,46.7,75.5,46.2,75.7z"/>
	<path class="st5" d="M132.6,114.4c1.3-0.3,1,0.6,1,1.1c0,0.6-0.3,0.9-0.9,0.9c-0.7,0.1-1.4,0.2-2.3,0.3
		C130.9,115.6,131.9,115.3,132.6,114.4z"/>
	<path class="st2" d="M78.1,68.4c0.5,0.3,0.9,0.5,1.1,0.8c0.4,0.5,1.3,0.9,0.8,1.8c-0.5,0.7-1.3,0.6-2,0.5c-1-0.2-1.4-1.1-1.5-2
		C76.5,68.5,77,68,78.1,68.4z"/>
	<path class="st2" d="M80.4,63.8c0.6,0.6,2.3,0.1,1.7,1.2c-0.6,1.2-2.3,0.7-3.4,0.9c-1,0.1-0.2-1-0.2-1.5
		C78.5,63.1,79.2,63,80.4,63.8z"/>
	<path class="st5" d="M110.4,75.1c-0.2,0.2-0.4,0.2-0.8,0.2c-0.1-0.4-0.1-1,0.1-1.1C110.2,74.1,110.3,74.6,110.4,75.1z"/>
	<path class="st7" d="M88.7,72.6c0.4,0.2,0.4,0.4,0.1,0.6c-0.1,0-0.2,0-0.2,0C88.3,73,88.3,72.8,88.7,72.6z"/>
	<path class="st4" d="M109,116.6c0.3-0.1,0.6-0.1,0.7,0.3c0,0.1-0.2,0.2-0.2,0.3C109.3,117,109.2,116.9,109,116.6z"/>
	<path class="st3" d="M46.1,76c0.2-0.5,0.4-0.7,0.8-1.1c1,0.1,1.9,0.5,1.3,1.4C47.8,77.1,46.8,77,46.1,76z"/>
</g>
</svg>
