<?xml version="1.0" encoding="UTF-8"?><svg id="a" xmlns="http://www.w3.org/2000/svg" viewBox="0 0 190.86 190.86"><defs><style>.b{fill:#f29600;}</style></defs><path class="b" d="M190.86,95.43c0,8.06-11.73,14.47-13.72,21.9s4.84,19.09,.95,25.83-17.31,6.53-22.85,12.08-5.25,18.9-12.08,22.85-18.14-3-25.83-.95-13.84,13.72-21.9,13.72-14.47-11.73-21.9-13.72-19.09,4.84-25.83,.95-6.53-17.31-12.08-22.85-18.9-5.25-22.85-12.08,3-18.14,.95-25.83S0,103.49,0,95.43s11.73-14.47,13.72-21.9-4.84-19.09-.95-25.83,17.31-6.53,22.85-12.08,5.25-18.9,12.08-22.85,18.14,3,25.83,.95S87.37,0,95.43,0s14.47,11.73,21.9,13.72,19.09-4.84,25.83-.95,6.53,17.31,12.08,22.85,18.9,5.25,22.85,12.08-3,18.14-.95,25.83,13.72,13.84,13.72,21.9Z"/></svg>