<?xml version="1.0" encoding="UTF-8"?>
<svg id="_レイヤー_2" data-name="レイヤー 2" xmlns="http://www.w3.org/2000/svg" viewBox="0 0 643.04 123.96">
  <defs>
    <style>
      .cls-1 {
        fill: #fff;
      }

      .cls-2 {
        fill: #00823b;
      }

      .cls-2, .cls-3 {
        stroke: #f6d100;
        stroke-width: 1.54px;
      }

      .cls-4, .cls-5 {
        fill: none;
      }

      .cls-5 {
        stroke: #fff;
        stroke-width: 5.67px;
      }

      .cls-3 {
        fill: #2b2c8a;
      }
    </style>
  </defs>
  <g id="_レイヤー_1-2" data-name="レイヤー 1">
    <g>
      <rect class="cls-4" x="3.04" y="2.07" width="640" height="120"/>
      <g>
        <g>
          <g>
            <g>
              <path class="cls-5" d="M140.57,65.98c-2.81,10.06-8.85,17.17-13.48,15.87-4.63-1.3-6.11-10.5-3.3-20.56,2.81-10.06,13.48-15.87,13.48-15.87,0,0,6.11,10.5,3.29,20.56Z"/>
              <path class="cls-5" d="M118.88,112.76c-10.19,2.31-19.31,.38-20.37-4.32-1.07-4.69,6.33-10.37,16.52-12.67,10.19-2.3,20.37,4.32,20.37,4.32,0,0-6.33,10.37-16.52,12.67Z"/>
              <path class="cls-5" d="M154.36,79.31c-6.63,8.07-15.02,12.14-18.73,9.09-3.72-3.05-1.36-12.07,5.27-20.15,6.63-8.07,18.73-9.09,18.73-9.09,0,0,1.36,12.07-5.27,20.15Z"/>
              <path class="cls-5" d="M153.14,35.82c1.01,10.4-2.05,19.2-6.84,19.67-4.79,.47-9.49-7.59-10.5-17.98-1.01-10.4,6.84-19.67,6.84-19.67,0,0,9.49,7.58,10.5,17.98Z"/>
              <path class="cls-5" d="M165.2,50.41c-5.26,4.37-11.15,5.96-13.17,3.53-2.01-2.42,.62-7.93,5.88-12.3,5.26-4.37,13.16-3.53,13.16-3.53,0,0-.61,7.93-5.87,12.3Z"/>
              <path class="cls-5" d="M168.41,26.32c-.47,6.98-3.45,12.46-6.66,12.24-3.21-.22-5.44-6.04-4.98-13.02,.46-6.98,6.66-12.24,6.66-12.24,0,0,5.44,6.04,4.98,13.02Z"/>
              <path class="cls-5" d="M149.23,7.44c3.06,3.98,3.93,8.44,1.94,9.97-1.99,1.53-6.08-.45-9.14-4.43-3.06-3.98-1.94-9.97-1.94-9.97,0,0,6.08,.45,9.14,4.43Z"/>
              <path class="cls-5" d="M108.88,113.06c-7.62,7.14-16.46,10.1-19.75,6.59-3.29-3.51,.22-12.14,7.84-19.29,7.62-7.15,19.76-6.59,19.76-6.59,0,0-.22,12.15-7.84,19.29Z"/>
              <path class="cls-5" d="M133.74,91.47c-4.89,3.62-10.14,4.82-11.74,2.67-1.59-2.16,1.07-6.84,5.96-10.47,4.89-3.62,11.74-2.67,11.74-2.67,0,0-1.07,6.84-5.96,10.46Z"/>
              <path class="cls-5" d="M33.54,65.98c2.81,10.06,8.85,17.17,13.48,15.87,4.63-1.3,6.11-10.5,3.3-20.56-2.81-10.06-13.48-15.87-13.48-15.87,0,0-6.11,10.5-3.3,20.56Z"/>
              <path class="cls-5" d="M55.23,112.76c10.19,2.31,19.31,.38,20.37-4.32,1.06-4.69-6.33-10.37-16.52-12.67-10.19-2.3-20.37,4.32-20.37,4.32,0,0,6.34,10.37,16.52,12.67Z"/>
              <path class="cls-5" d="M19.75,79.31c6.63,8.07,15.01,12.14,18.73,9.09,3.72-3.05,1.36-12.07-5.27-20.15-6.63-8.07-18.73-9.09-18.73-9.09,0,0-1.36,12.07,5.27,20.15Z"/>
              <path class="cls-5" d="M20.97,35.82c-1.01,10.4,2.05,19.2,6.84,19.67,4.79,.47,9.48-7.59,10.49-17.98,1.01-10.4-6.84-19.67-6.84-19.67,0,0-9.49,7.58-10.5,17.98Z"/>
              <path class="cls-5" d="M8.91,50.41c5.26,4.37,11.15,5.96,13.17,3.53,2.01-2.42-.62-7.93-5.87-12.3-5.26-4.37-13.17-3.53-13.17-3.53,0,0,.61,7.93,5.87,12.3Z"/>
              <path class="cls-5" d="M5.7,26.32c.47,6.98,3.44,12.46,6.66,12.24,3.21-.22,5.44-6.04,4.97-13.02-.46-6.98-6.66-12.24-6.66-12.24,0,0-5.44,6.04-4.97,13.02Z"/>
              <path class="cls-5" d="M24.88,7.44c-3.06,3.98-3.93,8.44-1.94,9.97,1.99,1.53,6.08-.45,9.14-4.43,3.06-3.98,1.94-9.97,1.94-9.97,0,0-6.08,.45-9.15,4.43Z"/>
              <path class="cls-5" d="M65.22,113.06c7.62,7.14,16.46,10.1,19.75,6.59,3.29-3.51-.22-12.14-7.84-19.29-7.62-7.15-19.75-6.59-19.75-6.59,0,0,.22,12.15,7.83,19.29Z"/>
              <path class="cls-5" d="M40.37,91.47c4.89,3.62,10.15,4.82,11.74,2.67,1.6-2.16-1.07-6.84-5.96-10.47-4.89-3.62-11.74-2.67-11.74-2.67,0,0,1.07,6.84,5.96,10.46Z"/>
            </g>
            <g>
              <path class="cls-2" d="M140.57,65.98c-2.81,10.06-8.85,17.17-13.48,15.87-4.63-1.3-6.11-10.5-3.3-20.56,2.81-10.06,13.48-15.87,13.48-15.87,0,0,6.11,10.5,3.29,20.56Z"/>
              <path class="cls-2" d="M118.88,112.76c-10.19,2.31-19.31,.38-20.37-4.32-1.07-4.69,6.33-10.37,16.52-12.67,10.19-2.3,20.37,4.32,20.37,4.32,0,0-6.33,10.37-16.52,12.67Z"/>
              <path class="cls-2" d="M154.36,79.31c-6.63,8.07-15.02,12.14-18.73,9.09-3.72-3.05-1.36-12.07,5.27-20.15,6.63-8.07,18.73-9.09,18.73-9.09,0,0,1.36,12.07-5.27,20.15Z"/>
              <path class="cls-2" d="M153.14,35.82c1.01,10.4-2.05,19.2-6.84,19.67-4.79,.47-9.49-7.59-10.5-17.98-1.01-10.4,6.84-19.67,6.84-19.67,0,0,9.49,7.58,10.5,17.98Z"/>
              <path class="cls-2" d="M165.2,50.41c-5.26,4.37-11.15,5.96-13.17,3.53-2.01-2.42,.62-7.93,5.88-12.3,5.26-4.37,13.16-3.53,13.16-3.53,0,0-.61,7.93-5.87,12.3Z"/>
              <path class="cls-2" d="M168.41,26.32c-.47,6.98-3.45,12.46-6.66,12.24-3.21-.22-5.44-6.04-4.98-13.02,.46-6.98,6.66-12.24,6.66-12.24,0,0,5.44,6.04,4.98,13.02Z"/>
              <path class="cls-2" d="M149.23,7.44c3.06,3.98,3.93,8.44,1.94,9.97-1.99,1.53-6.08-.45-9.14-4.43-3.06-3.98-1.94-9.97-1.94-9.97,0,0,6.08,.45,9.14,4.43Z"/>
              <path class="cls-2" d="M108.88,113.06c-7.62,7.14-16.46,10.1-19.75,6.59-3.29-3.51,.22-12.14,7.84-19.29,7.62-7.15,19.76-6.59,19.76-6.59,0,0-.22,12.15-7.84,19.29Z"/>
              <path class="cls-2" d="M133.74,91.47c-4.89,3.62-10.14,4.82-11.74,2.67-1.59-2.16,1.07-6.84,5.96-10.47,4.89-3.62,11.74-2.67,11.74-2.67,0,0-1.07,6.84-5.96,10.46Z"/>
              <path class="cls-2" d="M33.54,65.98c2.81,10.06,8.85,17.17,13.48,15.87,4.63-1.3,6.11-10.5,3.3-20.56-2.81-10.06-13.48-15.87-13.48-15.87,0,0-6.11,10.5-3.3,20.56Z"/>
              <path class="cls-2" d="M55.23,112.76c10.19,2.31,19.31,.38,20.37-4.32,1.06-4.69-6.33-10.37-16.52-12.67-10.19-2.3-20.37,4.32-20.37,4.32,0,0,6.34,10.37,16.52,12.67Z"/>
              <path class="cls-2" d="M19.75,79.31c6.63,8.07,15.01,12.14,18.73,9.09,3.72-3.05,1.36-12.07-5.27-20.15-6.63-8.07-18.73-9.09-18.73-9.09,0,0-1.36,12.07,5.27,20.15Z"/>
              <path class="cls-2" d="M20.97,35.82c-1.01,10.4,2.05,19.2,6.84,19.67,4.79,.47,9.48-7.59,10.49-17.98,1.01-10.4-6.84-19.67-6.84-19.67,0,0-9.49,7.58-10.5,17.98Z"/>
              <path class="cls-2" d="M8.91,50.41c5.26,4.37,11.15,5.96,13.17,3.53,2.01-2.42-.62-7.93-5.87-12.3-5.26-4.37-13.17-3.53-13.17-3.53,0,0,.61,7.93,5.87,12.3Z"/>
              <path class="cls-2" d="M5.7,26.32c.47,6.98,3.44,12.46,6.66,12.24,3.21-.22,5.44-6.04,4.97-13.02-.46-6.98-6.66-12.24-6.66-12.24,0,0-5.44,6.04-4.97,13.02Z"/>
              <path class="cls-2" d="M24.88,7.44c-3.06,3.98-3.93,8.44-1.94,9.97,1.99,1.53,6.08-.45,9.14-4.43,3.06-3.98,1.94-9.97,1.94-9.97,0,0-6.08,.45-9.15,4.43Z"/>
              <path class="cls-2" d="M65.22,113.06c7.62,7.14,16.46,10.1,19.75,6.59,3.29-3.51-.22-12.14-7.84-19.29-7.62-7.15-19.75-6.59-19.75-6.59,0,0,.22,12.15,7.83,19.29Z"/>
              <path class="cls-2" d="M40.37,91.47c4.89,3.62,10.15,4.82,11.74,2.67,1.6-2.16-1.07-6.84-5.96-10.47-4.89-3.62-11.74-2.67-11.74-2.67,0,0,1.07,6.84,5.96,10.46Z"/>
            </g>
          </g>
          <g>
            <path class="cls-5" d="M111.93,48.02l3.32-6.01h2.74l1.49,23.89h-2.66c-2.02-6.86-4.4-11.82-7.15-14.89-3.51-3.9-7.52-5.85-12.05-5.85-3.48,0-6.59,.98-9.34,2.94-2.75,1.96-4.86,4.91-6.33,8.83-1.47,3.92-2.2,9.44-2.2,16.57s.73,12.31,2.2,16.21c1.47,3.89,3.5,6.77,6.09,8.6,2.59,1.84,5.62,2.76,9.1,2.76,4.72,0,8.37-1.32,10.94-3.94,2.57-2.63,3.86-6.02,3.86-10.17v-5.59c0-.88-.34-1.57-1.03-2.05-.69-.48-1.81-.73-3.37-.73h-5.06v-2.82h25.14v2.82h-3.41c-1.52,0-2.6,.26-3.25,.78-.65,.53-.97,1.29-.97,2.28v22.81h-2.68c-.97-3.55-1.99-6.94-3.05-10.2-2.02,3.32-4.44,5.8-7.23,7.46-2.8,1.66-5.96,2.49-9.5,2.49-5.05,0-9.73-1.29-14.03-3.88-4.3-2.59-7.71-6.24-10.21-10.94-2.5-4.7-3.75-10.02-3.75-15.96s1.26-11.3,3.77-16.02c2.51-4.72,5.94-8.47,10.3-11.25,4.36-2.78,8.77-4.17,13.22-4.17,2.53,0,4.96,.43,7.26,1.29,2.31,.86,4.92,2.44,7.84,4.73Z"/>
            <path class="cls-3" d="M111.93,48.02l3.32-6.01h2.74l1.49,23.89h-2.66c-2.02-6.86-4.4-11.82-7.15-14.89-3.51-3.9-7.52-5.85-12.05-5.85-3.48,0-6.59,.98-9.34,2.94-2.75,1.96-4.86,4.91-6.33,8.83-1.47,3.92-2.2,9.44-2.2,16.57s.73,12.31,2.2,16.21c1.47,3.89,3.5,6.77,6.09,8.6,2.59,1.84,5.62,2.76,9.1,2.76,4.72,0,8.37-1.32,10.94-3.94,2.57-2.63,3.86-6.02,3.86-10.17v-5.59c0-.88-.34-1.57-1.03-2.05-.69-.48-1.81-.73-3.37-.73h-5.06v-2.82h25.14v2.82h-3.41c-1.52,0-2.6,.26-3.25,.78-.65,.53-.97,1.29-.97,2.28v22.81h-2.68c-.97-3.55-1.99-6.94-3.05-10.2-2.02,3.32-4.44,5.8-7.23,7.46-2.8,1.66-5.96,2.49-9.5,2.49-5.05,0-9.73-1.29-14.03-3.88-4.3-2.59-7.71-6.24-10.21-10.94-2.5-4.7-3.75-10.02-3.75-15.96s1.26-11.3,3.77-16.02c2.51-4.72,5.94-8.47,10.3-11.25,4.36-2.78,8.77-4.17,13.22-4.17,2.53,0,4.96,.43,7.26,1.29,2.31,.86,4.92,2.44,7.84,4.73Z"/>
          </g>
          <g>
            <path class="cls-5" d="M46.87,18.59h27.79v3.07h-6.63c-1.05,0-1.83,.28-2.33,.83-.5,.55-.75,1.42-.75,2.61v47.2c0,1.14,.31,1.94,.95,2.41,.63,.47,1.91,.71,3.82,.71h8.41c4.48,0,8.13-1.49,10.98-4.47s4.91-8.15,6.21-15.52h2.82l-1.41,23.06H46.87v-3.07h4.91c1.68,0,2.85-.32,3.53-.95,.68-.63,1.02-1.65,1.02-3.05V24.69c0-.99-.29-1.75-.85-2.26-.57-.51-1.41-.77-2.51-.77h-6.09v-3.07Z"/>
            <path class="cls-3" d="M46.87,18.59h27.79v3.07h-6.63c-1.05,0-1.83,.28-2.33,.83-.5,.55-.75,1.42-.75,2.61v47.2c0,1.14,.31,1.94,.95,2.41,.63,.47,1.91,.71,3.82,.71h8.41c4.48,0,8.13-1.49,10.98-4.47s4.91-8.15,6.21-15.52h2.82l-1.41,23.06H46.87v-3.07h4.91c1.68,0,2.85-.32,3.53-.95,.68-.63,1.02-1.65,1.02-3.05V24.69c0-.99-.29-1.75-.85-2.26-.57-.51-1.41-.77-2.51-.77h-6.09v-3.07Z"/>
          </g>
        </g>
        <g>
          <g>
            <path class="cls-1" d="M187.2,70h16.07v1.8h-2.73c-1.22,0-1.99,.15-2.31,.46-.32,.31-.48,.95-.48,1.95v26.39c0,1.05,.14,1.71,.42,1.98,.38,.36,1.05,.54,2.03,.54h3.06v1.8h-16.07v-1.8h3.04c1.06,0,1.75-.16,2.07-.47,.32-.31,.47-1,.47-2.05v-26.39c0-1.01-.14-1.63-.42-1.86-.45-.36-1.25-.54-2.43-.54h-2.73v-1.8Z"/>
            <path class="cls-1" d="M206.72,82.77l7.32-.42c.3,1.39,.52,3,.66,4.86,.99-1.6,2.16-2.8,3.51-3.6,1.34-.8,2.87-1.2,4.57-1.2,1.46,0,2.69,.29,3.69,.86,.99,.57,1.79,1.48,2.38,2.72,.61,1.24,.9,2.62,.9,4.16v10.74c0,.8,.17,1.37,.53,1.71,.36,.33,.95,.51,1.78,.51h1.53v1.8h-11.52v-1.8h1.1c1.02,0,1.73-.16,2.14-.49,.41-.34,.61-.83,.61-1.49v-9.45c0-2.06-.32-3.58-.95-4.57-.88-1.42-2.22-2.12-4.02-2.12s-3.27,.72-4.47,2.14c-1.19,1.43-1.78,3.29-1.78,5.58v8.17c0,.8,.18,1.37,.54,1.71,.37,.33,.96,.51,1.79,.51h1.5v1.8h-11.58v-1.8h1.51c.76,0,1.34-.16,1.73-.47,.39-.31,.59-.71,.59-1.18v-14.25c0-.95-.26-1.66-.76-2.14-.51-.49-1.24-.73-2.19-.73h-1.13v-1.56Z"/>
            <path class="cls-1" d="M242.14,73.78h1.57v9h7.13v2.1h-7.13v14.29c0,1.24,.28,2.18,.86,2.84,.57,.66,1.31,.98,2.19,.98,1.06,0,1.97-.49,2.71-1.49,.75-1,1.19-2.64,1.31-4.93h1.56c-.1,2.95-.76,5.13-2,6.56-1.25,1.43-2.86,2.14-4.84,2.14-1.82,0-3.25-.5-4.28-1.51-1.03-1-1.55-2.32-1.55-3.95v-14.94h-3.84v-1.59c1.78-.3,3.13-1.03,4.06-2.19,1.38-1.74,2.12-4.18,2.23-7.32Z"/>
            <path class="cls-1" d="M275.79,94h-15.84c.08,3.37,.71,5.75,1.89,7.14,1.36,1.56,3.08,2.34,5.18,2.34,3.08,0,5.56-1.76,7.43-5.28l1.53,.66c-2.3,4.48-5.62,6.72-9.96,6.72-2.95,0-5.44-1.07-7.46-3.21-2.02-2.14-3.03-4.88-3.03-8.22,0-3.59,1-6.49,2.98-8.7,1.99-2.21,4.45-3.32,7.36-3.32,2.13,0,3.98,.55,5.54,1.66,1.56,1.1,2.73,2.68,3.51,4.74,.55,1.45,.84,3.27,.87,5.48Zm-15.84-1.68h9.6c.57,0,1-.19,1.33-.58,.31-.38,.47-1.04,.47-1.96,0-1.73-.54-3.2-1.62-4.4-1.08-1.21-2.36-1.81-3.81-1.81-1.64,0-3.03,.73-4.18,2.19-1.15,1.46-1.74,3.65-1.79,6.57Z"/>
            <path class="cls-1" d="M278.92,82.84l7.98-.42v8.96c.84-2.95,1.86-5.18,3.06-6.69,1.19-1.51,2.66-2.27,4.42-2.27,1.19,0,2.14,.37,2.85,1.1,.71,.73,1.07,1.72,1.07,2.95,0,1-.24,1.77-.72,2.32-.48,.55-1.07,.83-1.8,.83s-1.28-.24-1.71-.72c-.43-.48-.64-1.12-.64-1.93,0-.52,.12-1.01,.37-1.47,.23-.41,.35-.66,.35-.74,0-.24-.15-.35-.44-.35-.64,0-1.37,.38-2.19,1.13-1.13,1.05-2,2.5-2.61,4.33-.95,2.86-1.41,5.15-1.41,6.85v4.74c0,.54,.19,.94,.57,1.23,.38,.28,1.02,.42,1.94,.42h2.83v1.8h-13.8v-1.8h2.2c.74,0,1.3-.14,1.67-.44,.38-.29,.57-.63,.57-1.04v-14.03c0-1.07-.23-1.85-.68-2.34-.46-.49-1.1-.74-1.96-.74h-1.93v-1.68Z"/>
            <path class="cls-1" d="M300.74,82.77l7.32-.42c.3,1.39,.52,3,.66,4.86,.99-1.6,2.16-2.8,3.51-3.6,1.36-.8,2.88-1.2,4.58-1.2,1.46,0,2.69,.29,3.69,.86,.99,.57,1.79,1.48,2.39,2.72,.6,1.24,.9,2.62,.9,4.16v10.74c0,.8,.17,1.37,.53,1.71,.36,.33,.95,.51,1.78,.51h1.53v1.8h-11.52v-1.8h1.1c1.03,0,1.73-.16,2.14-.49,.4-.34,.6-.83,.6-1.49v-9.45c0-2.06-.32-3.58-.95-4.57-.89-1.42-2.22-2.12-4.02-2.12s-3.28,.72-4.47,2.14c-1.19,1.43-1.78,3.29-1.78,5.58v8.17c0,.8,.18,1.37,.54,1.71,.36,.33,.96,.51,1.79,.51h1.51v1.8h-11.58v-1.8h1.51c.76,0,1.34-.16,1.73-.47,.4-.31,.6-.71,.6-1.18v-14.25c0-.95-.26-1.66-.77-2.14-.51-.49-1.24-.73-2.19-.73h-1.13v-1.56Z"/>
            <path class="cls-1" d="M353.63,102.45l.84,1.34c-1.15,1.19-2.44,1.79-3.84,1.79-1.07,0-1.98-.3-2.71-.88-.74-.58-1.39-1.61-1.94-3.08-1.49,1.58-2.79,2.63-3.92,3.16-1.13,.53-2.49,.8-4.07,.8-2.26,0-3.97-.49-5.15-1.46-1.17-.98-1.76-2.23-1.76-3.76,0-2.3,1.34-4.21,4.03-5.73,2.69-1.52,6.26-2.52,10.73-3.03v-3.34c0-1.2-.48-2.22-1.43-3.07-.95-.84-2.17-1.27-3.64-1.27-1.36,0-2.54,.28-3.53,.85-.7,.42-1.05,.84-1.05,1.24,0,.23,.19,.6,.56,1.1,.47,.63,.69,1.19,.69,1.67,0,.71-.22,1.28-.68,1.73-.46,.44-1.05,.67-1.79,.67-.78,0-1.44-.27-1.96-.8-.53-.53-.78-1.22-.78-2.05,0-1.56,.88-2.98,2.63-4.27,1.75-1.29,4.05-1.94,6.9-1.94,2.62,0,4.64,.57,6.02,1.7,1.38,1.15,2.08,2.55,2.08,4.19v12.09c0,1.07,.17,1.86,.51,2.36,.34,.52,.79,.78,1.34,.78,.61,0,1.26-.26,1.93-.78Zm-7.79-9.3c-3.98,.55-6.8,1.45-8.46,2.69-1.23,.94-1.86,2.28-1.86,4,0,1.21,.32,2.16,.96,2.85,.65,.68,1.48,1.02,2.52,1.02,1.85,0,3.45-.7,4.81-2.11,1.36-1.4,2.03-3.17,2.03-5.29v-3.16Z"/>
            <path class="cls-1" d="M363.09,73.78h1.55v9h7.14v2.1h-7.14v14.29c0,1.24,.29,2.18,.87,2.84,.57,.66,1.31,.98,2.2,.98,1.06,0,1.96-.49,2.71-1.49,.74-1,1.18-2.64,1.31-4.93h1.56c-.09,2.95-.76,5.13-2,6.56-1.25,1.43-2.85,2.14-4.84,2.14-1.82,0-3.25-.5-4.28-1.51-1.02-1-1.54-2.32-1.54-3.95v-14.94h-3.84v-1.59c1.78-.3,3.13-1.03,4.06-2.19,1.38-1.74,2.12-4.18,2.24-7.32Z"/>
            <path class="cls-1" d="M375.61,82.77l8.81-.24v19c0,.52,.12,.89,.38,1.11,.36,.31,.81,.47,1.37,.47h2.5v1.8h-12.6v-1.8h2.32c.69,0,1.19-.17,1.51-.51,.33-.33,.48-.83,.48-1.47v-13.9c0-.88-.24-1.54-.75-1.99-.51-.44-1.25-.66-2.23-.66h-1.81v-1.81Zm6.13-13.19c.71,0,1.34,.27,1.87,.81,.54,.54,.81,1.17,.81,1.9s-.26,1.33-.78,1.85c-.52,.52-1.14,.78-1.88,.78s-1.36-.26-1.88-.79c-.53-.53-.8-1.15-.8-1.86s.27-1.34,.81-1.87c.53-.54,1.15-.81,1.85-.81Z"/>
            <path class="cls-1" d="M401.66,82.11c2.98,0,5.48,1.08,7.51,3.22,2.02,2.15,3.03,4.98,3.03,8.5,0,2.43-.45,4.49-1.36,6.2-.9,1.71-2.2,3.06-3.88,4.05-1.68,.99-3.49,1.49-5.42,1.49-2.87,0-5.29-1.09-7.29-3.26-1.99-2.18-2.99-5-2.99-8.46s1-6.31,3-8.48c2-2.17,4.47-3.26,7.4-3.26Zm0,1.68c-1.77,0-3.23,.8-4.37,2.39-1.14,1.6-1.71,4.12-1.71,7.57s.56,6.07,1.7,7.7c1.13,1.62,2.59,2.43,4.38,2.43s3.35-.81,4.5-2.43c1.15-1.62,1.72-4.27,1.72-7.96,0-3.41-.56-5.89-1.7-7.41-1.13-1.52-2.63-2.29-4.52-2.29Z"/>
            <path class="cls-1" d="M415.45,82.77l7.32-.42c.3,1.39,.52,3,.66,4.86,1-1.6,2.17-2.8,3.51-3.6,1.35-.8,2.87-1.2,4.58-1.2,1.46,0,2.69,.29,3.68,.86,.99,.57,1.79,1.48,2.39,2.72,.61,1.24,.9,2.62,.9,4.16v10.74c0,.8,.18,1.37,.54,1.71,.35,.33,.95,.51,1.78,.51h1.52v1.8h-11.51v-1.8h1.09c1.03,0,1.73-.16,2.14-.49,.4-.34,.61-.83,.61-1.49v-9.45c0-2.06-.32-3.58-.95-4.57-.88-1.42-2.22-2.12-4.02-2.12s-3.27,.72-4.47,2.14c-1.19,1.43-1.79,3.29-1.79,5.58v8.17c0,.8,.18,1.37,.54,1.71,.37,.33,.96,.51,1.79,.51h1.5v1.8h-11.58v-1.8h1.51c.76,0,1.34-.16,1.74-.47,.4-.31,.59-.71,.59-1.18v-14.25c0-.95-.26-1.66-.76-2.14-.51-.49-1.24-.73-2.19-.73h-1.13v-1.56Z"/>
            <path class="cls-1" d="M468.33,102.45l.84,1.34c-1.16,1.19-2.44,1.79-3.84,1.79-1.08,0-1.98-.3-2.72-.88-.74-.58-1.38-1.61-1.94-3.08-1.48,1.58-2.79,2.63-3.92,3.16-1.13,.53-2.49,.8-4.07,.8-2.26,0-3.97-.49-5.15-1.46-1.18-.98-1.77-2.23-1.77-3.76,0-2.3,1.35-4.21,4.03-5.73,2.68-1.52,6.26-2.52,10.73-3.03v-3.34c0-1.2-.48-2.22-1.43-3.07-.96-.84-2.17-1.27-3.65-1.27-1.36,0-2.54,.28-3.53,.85-.7,.42-1.06,.84-1.06,1.24,0,.23,.19,.6,.57,1.1,.46,.63,.69,1.19,.69,1.67,0,.71-.22,1.28-.68,1.73-.46,.44-1.05,.67-1.79,.67-.79,0-1.44-.27-1.96-.8-.53-.53-.78-1.22-.78-2.05,0-1.56,.87-2.98,2.63-4.27,1.75-1.29,4.05-1.94,6.91-1.94,2.62,0,4.63,.57,6.01,1.7,1.39,1.15,2.08,2.55,2.08,4.19v12.09c0,1.07,.17,1.86,.51,2.36,.35,.52,.79,.78,1.34,.78,.61,0,1.24-.26,1.92-.78Zm-7.79-9.3c-3.98,.55-6.8,1.45-8.46,2.69-1.24,.94-1.86,2.28-1.86,4,0,1.21,.32,2.16,.97,2.85,.64,.68,1.47,1.02,2.51,1.02,1.85,0,3.45-.7,4.81-2.11,1.35-1.4,2.03-3.17,2.03-5.29v-3.16Z"/>
            <path class="cls-1" d="M480.3,69.58v32.05c0,.44,.13,.78,.4,1.02,.39,.31,.88,.47,1.45,.47h2.35v1.8h-12.6v-1.8h2.22c.72,0,1.26-.17,1.62-.52,.35-.35,.53-.84,.53-1.46v-26.87c0-.78-.22-1.36-.64-1.72-.59-.5-1.31-.76-2.16-.76h-2v-1.8l8.82-.42Z"/>
            <path class="cls-1" d="M521.31,72.64l2.12-3h1.74l.12,12.72h-1.62c-.97-3.92-2.41-6.77-4.31-8.57-1.91-1.8-4.09-2.7-6.57-2.7-2.06,0-3.76,.62-5.08,1.86-1.31,1.24-1.98,2.76-1.98,4.55,0,1.11,.25,2.09,.75,2.94,.5,.84,1.26,1.52,2.25,2.05,1,.52,2.87,1.09,5.63,1.7,3.87,.86,6.59,1.73,8.16,2.59,1.57,.86,2.75,1.95,3.51,3.26,.78,1.31,1.16,2.85,1.16,4.61,0,3.15-1.06,5.75-3.18,7.82-2.13,2.06-4.87,3.1-8.23,3.1-3.62,0-6.76-1.16-9.43-3.48l-2.67,3.24h-1.62v-13.56h1.62c.66,3.75,2.14,6.7,4.45,8.87,2.3,2.17,4.9,3.25,7.78,3.25,2.33,0,4.24-.69,5.71-2.06,1.47-1.38,2.21-3.05,2.21-5.01,0-1.12-.28-2.1-.83-2.93-.54-.85-1.42-1.55-2.61-2.13-1.19-.58-3.54-1.28-7.03-2.1-3.84-.92-6.47-1.94-7.87-3.07-1.98-1.61-2.95-3.88-2.95-6.82s.98-5.58,2.94-7.54c1.96-1.96,4.47-2.94,7.52-2.94,1.46,0,2.86,.26,4.18,.78,1.32,.52,2.69,1.38,4.11,2.58Z"/>
            <path class="cls-1" d="M547.93,98.37l1.53,.44c-1.23,4.5-3.94,6.76-8.13,6.76-3.07,0-5.58-1.02-7.54-3.05-1.95-2.03-2.93-4.73-2.93-8.1,0-3.9,1.07-6.93,3.22-9.08,2.14-2.15,4.66-3.22,7.56-3.22,2.17,0,3.97,.6,5.39,1.8,1.42,1.2,2.12,2.52,2.12,3.98,0,.88-.26,1.61-.79,2.18-.54,.57-1.16,.86-1.89,.86s-1.32-.24-1.81-.72c-.49-.48-.73-1.07-.73-1.76s.27-1.35,.81-1.98c.25-.29,.38-.53,.38-.7,0-.46-.3-.9-.92-1.33-.62-.43-1.45-.64-2.51-.64-1.93,0-3.39,.69-4.39,2.09-1.42,2.02-2.13,4.69-2.13,7.99s.63,5.53,1.89,7.15c1.27,1.63,2.87,2.43,4.83,2.43,2.7,0,4.71-1.7,6.02-5.1Z"/>
            <path class="cls-1" d="M551.92,70l8.4-.42v17.05c1.17-1.51,2.43-2.64,3.76-3.39,1.35-.75,2.77-1.12,4.26-1.12s2.7,.34,3.84,1.02c.89,.53,1.64,1.47,2.26,2.81,.62,1.34,.94,2.92,.94,4.74v10.5c0,.68,.17,1.16,.51,1.47,.35,.31,.89,.46,1.63,.46h1.88v1.8h-11.94v-1.8h1.33c1.01,0,1.72-.16,2.1-.48,.39-.32,.59-.81,.59-1.45v-10.51c0-1.84-.45-3.28-1.34-4.31-.89-1.03-2.03-1.54-3.43-1.54-1.09,0-2.11,.29-3.04,.87-.94,.58-1.73,1.47-2.38,2.66-.65,1.19-.97,2.44-.97,3.76v8.83c0,.79,.17,1.34,.49,1.68,.33,.33,.88,.49,1.63,.49h1.89v1.8h-11.76v-1.8h1.33c.92,0,1.56-.18,1.94-.53,.39-.35,.57-.9,.57-1.64v-26.34c0-.94-.25-1.64-.74-2.11-.5-.46-1.21-.7-2.15-.7h-1.6v-1.8Z"/>
            <path class="cls-1" d="M592.46,82.11c2.98,0,5.48,1.08,7.5,3.22,2.02,2.15,3.04,4.98,3.04,8.5,0,2.43-.45,4.49-1.36,6.2-.9,1.71-2.2,3.06-3.87,4.05-1.68,.99-3.49,1.49-5.43,1.49-2.87,0-5.3-1.09-7.29-3.26-2-2.18-2.99-5-2.99-8.46s1-6.31,3-8.48c2-2.17,4.47-3.26,7.4-3.26Zm0,1.68c-1.78,0-3.23,.8-4.37,2.39-1.14,1.6-1.71,4.12-1.71,7.57s.56,6.07,1.69,7.7c1.14,1.62,2.6,2.43,4.39,2.43s3.35-.81,4.5-2.43c1.14-1.62,1.73-4.27,1.73-7.96,0-3.41-.57-5.89-1.71-7.41-1.12-1.52-2.63-2.29-4.52-2.29Z"/>
            <path class="cls-1" d="M616.65,82.11c2.98,0,5.48,1.08,7.5,3.22,2.02,2.15,3.04,4.98,3.04,8.5,0,2.43-.46,4.49-1.37,6.2-.9,1.71-2.19,3.06-3.87,4.05-1.67,.99-3.48,1.49-5.42,1.49-2.87,0-5.3-1.09-7.29-3.26-2-2.18-2.99-5-2.99-8.46s1-6.31,3-8.48c2-2.17,4.46-3.26,7.4-3.26Zm0,1.68c-1.77,0-3.23,.8-4.37,2.39-1.14,1.6-1.71,4.12-1.71,7.57s.56,6.07,1.7,7.7c1.13,1.62,2.59,2.43,4.38,2.43s3.35-.81,4.49-2.43c1.15-1.62,1.73-4.27,1.73-7.96,0-3.41-.57-5.89-1.7-7.41-1.14-1.52-2.64-2.29-4.52-2.29Z"/>
            <path class="cls-1" d="M638.83,69.58v32.05c0,.44,.14,.78,.41,1.02,.39,.31,.87,.47,1.45,.47h2.35v1.8h-12.6v-1.8h2.22c.73,0,1.28-.17,1.63-.52,.35-.35,.52-.84,.52-1.46v-26.87c0-.78-.21-1.36-.64-1.72-.58-.5-1.31-.76-2.16-.76h-2v-1.8l8.81-.42Z"/>
          </g>
          <g>
            <path class="cls-1" d="M263.63,26.64h16.14v1.8h-3.85c-.61,0-1.06,.17-1.35,.49-.29,.32-.43,.83-.43,1.52v27.5c0,.66,.18,1.13,.56,1.4,.37,.28,1.12,.41,2.23,.41h4.92c2.62,0,4.76-.87,6.42-2.6,1.66-1.74,2.88-4.75,3.63-9.04h1.68l-.78,13.44h-29.15v-1.8h2.87c.97,0,1.67-.18,2.06-.55,.39-.37,.59-.96,.59-1.78V30.22c0-.58-.16-1.02-.5-1.32-.33-.3-.82-.45-1.46-.45h-3.56v-1.8Z"/>
            <path class="cls-1" d="M295.59,39.42l8.82-.24v19c0,.52,.12,.89,.37,1.11,.37,.32,.82,.47,1.38,.47h2.51v1.8h-12.6v-1.8h2.32c.69,0,1.2-.17,1.52-.51,.32-.34,.48-.83,.48-1.47v-13.9c0-.88-.25-1.54-.75-1.99-.5-.45-1.25-.67-2.24-.67h-1.81v-1.8Zm6.14-13.2c.71,0,1.33,.27,1.87,.81,.53,.54,.81,1.17,.81,1.9s-.27,1.33-.78,1.85c-.52,.52-1.15,.78-1.87,.78s-1.36-.26-1.89-.79c-.53-.53-.79-1.15-.79-1.86s.27-1.34,.8-1.88c.54-.54,1.15-.81,1.86-.81Z"/>
            <path class="cls-1" d="M317.13,30.43h1.56v9h7.14v2.1h-7.14v14.29c0,1.24,.29,2.19,.87,2.84,.58,.66,1.31,.98,2.2,.98,1.06,0,1.96-.49,2.71-1.49,.75-.99,1.18-2.63,1.31-4.92h1.56c-.09,2.95-.76,5.13-2,6.56-1.24,1.43-2.85,2.14-4.84,2.14-1.82,0-3.24-.5-4.27-1.51-1.03-1.01-1.55-2.32-1.55-3.95v-14.94h-3.84v-1.6c1.78-.3,3.13-1.03,4.06-2.18,1.38-1.74,2.13-4.18,2.24-7.32Z"/>
            <path class="cls-1" d="M335.95,30.43h1.56v9h7.14v2.1h-7.14v14.29c0,1.24,.29,2.19,.86,2.84,.58,.66,1.31,.98,2.2,.98,1.06,0,1.96-.49,2.71-1.49,.75-.99,1.18-2.63,1.31-4.92h1.56c-.1,2.95-.76,5.13-2.01,6.56-1.24,1.43-2.85,2.14-4.83,2.14-1.83,0-3.25-.5-4.28-1.51-1.03-1.01-1.54-2.32-1.54-3.95v-14.94h-3.84v-1.6c1.78-.3,3.13-1.03,4.06-2.18,1.38-1.74,2.12-4.18,2.24-7.32Z"/>
            <path class="cls-1" d="M357.3,26.22V58.27c0,.44,.13,.78,.4,1.01,.39,.32,.88,.47,1.45,.47h2.35v1.8h-12.6v-1.8h2.22c.73,0,1.27-.18,1.62-.52,.36-.35,.53-.83,.53-1.46V30.92c0-.78-.21-1.36-.64-1.72-.59-.5-1.31-.75-2.17-.75h-1.99v-1.8l8.82-.42Z"/>
            <path class="cls-1" d="M384.83,50.64h-15.84c.08,3.37,.71,5.75,1.89,7.14,1.35,1.56,3.08,2.34,5.17,2.34,3.08,0,5.56-1.76,7.43-5.28l1.53,.66c-2.3,4.48-5.62,6.71-9.96,6.71-2.96,0-5.45-1.07-7.47-3.21-2.02-2.14-3.03-4.88-3.03-8.22,0-3.59,.99-6.49,2.98-8.71,1.99-2.21,4.44-3.32,7.36-3.32,2.13,0,3.99,.55,5.54,1.65,1.56,1.1,2.73,2.69,3.52,4.75,.54,1.45,.84,3.28,.87,5.48Zm-15.84-1.68h9.6c.56,0,1.01-.19,1.32-.58,.31-.38,.47-1.04,.47-1.97,0-1.73-.54-3.19-1.61-4.4-1.08-1.21-2.35-1.82-3.82-1.82-1.64,0-3.03,.73-4.17,2.19-1.14,1.46-1.74,3.65-1.78,6.57Z"/>
            <path class="cls-1" d="M427.29,29.4l1.95-3.47h1.56l.9,13.91h-1.55c-1.18-4.01-2.57-6.9-4.18-8.7-2.04-2.28-4.38-3.42-7.02-3.42-2.03,0-3.84,.57-5.44,1.72-1.6,1.15-2.83,2.87-3.69,5.16-.85,2.3-1.28,5.53-1.28,9.69s.42,7.2,1.28,9.48c.86,2.28,2.05,3.96,3.55,5.03,1.5,1.08,3.28,1.61,5.31,1.61,2.75,0,4.87-.77,6.38-2.3,1.5-1.54,2.25-3.52,2.25-5.94v-3.26c0-.52-.2-.92-.6-1.2-.4-.28-1.06-.43-1.97-.43h-2.95v-1.68h14.64v1.68h-1.99c-.88,0-1.51,.15-1.89,.46-.38,.3-.56,.75-.56,1.33v13.32h-1.58c-.57-2.08-1.16-4.07-1.78-5.98-1.18,1.93-2.59,3.38-4.21,4.35-1.63,.96-3.47,1.45-5.53,1.45-2.94,0-5.67-.75-8.18-2.26-2.51-1.51-4.49-3.64-5.94-6.38-1.45-2.75-2.19-5.85-2.19-9.31s.74-6.59,2.2-9.35c1.46-2.75,3.46-4.94,6-6.56,2.54-1.62,5.11-2.43,7.7-2.43,1.48,0,2.89,.25,4.23,.75,1.35,.49,2.86,1.4,4.56,2.72Z"/>
            <path class="cls-1" d="M462.72,59.1l.84,1.34c-1.15,1.19-2.44,1.78-3.84,1.78-1.08,0-1.98-.29-2.72-.87-.74-.59-1.38-1.61-1.93-3.08-1.49,1.58-2.8,2.63-3.93,3.16-1.13,.53-2.48,.79-4.06,.79-2.26,0-3.97-.49-5.15-1.46-1.17-.98-1.76-2.23-1.76-3.76,0-2.29,1.34-4.2,4.03-5.72,2.68-1.52,6.26-2.53,10.72-3.04v-3.34c0-1.19-.48-2.21-1.43-3.06-.96-.85-2.17-1.27-3.65-1.27-1.36,0-2.53,.28-3.52,.85-.71,.42-1.06,.84-1.06,1.25,0,.23,.18,.6,.57,1.1,.46,.63,.69,1.18,.69,1.67,0,.7-.23,1.28-.68,1.73-.46,.44-1.05,.67-1.79,.67-.78,0-1.44-.27-1.96-.8-.53-.53-.79-1.22-.79-2.05,0-1.56,.87-2.98,2.63-4.27,1.75-1.29,4.06-1.93,6.91-1.93,2.63,0,4.64,.57,6.02,1.7,1.39,1.15,2.08,2.54,2.08,4.18v12.1c0,1.07,.17,1.85,.52,2.36,.34,.52,.79,.78,1.33,.78,.61,0,1.25-.26,1.92-.78Zm-7.8-9.3c-3.98,.55-6.8,1.45-8.46,2.69-1.24,.94-1.85,2.28-1.85,4.01,0,1.21,.32,2.16,.96,2.84,.64,.68,1.48,1.03,2.52,1.03,1.85,0,3.45-.7,4.81-2.11,1.35-1.41,2.03-3.17,2.03-5.29v-3.16Z"/>
            <path class="cls-1" d="M465.93,39.48l7.98-.42v8.96c.85-2.94,1.86-5.18,3.05-6.69,1.19-1.51,2.66-2.27,4.42-2.27,1.19,0,2.14,.37,2.86,1.1,.71,.74,1.07,1.72,1.07,2.95,0,1-.24,1.77-.72,2.32-.47,.56-1.07,.83-1.79,.83s-1.28-.24-1.7-.71c-.43-.47-.65-1.12-.65-1.93,0-.52,.13-1.02,.38-1.47,.23-.41,.35-.66,.35-.74,0-.24-.15-.36-.45-.36-.64,0-1.37,.38-2.19,1.13-1.13,1.05-2,2.5-2.61,4.34-.94,2.86-1.42,5.15-1.42,6.86v4.74c0,.53,.19,.94,.57,1.22,.38,.29,1.03,.43,1.95,.43h2.82v1.8h-13.79v-1.8h2.2c.74,0,1.3-.14,1.68-.44,.37-.29,.56-.63,.56-1.04v-14.04c0-1.07-.22-1.84-.68-2.34-.45-.49-1.11-.74-1.95-.74h-1.93v-1.68Z"/>
            <path class="cls-1" d="M500.3,26.64l8.64-.42v30.25c0,1.18,.23,2.02,.67,2.53,.44,.5,1.11,.75,2,.75h1.53v1.8h-7.56l-.54-4.44c-.9,1.59-1.96,2.79-3.16,3.6-1.2,.8-2.56,1.2-4.06,1.2-2.52,0-4.67-1.06-6.44-3.17-1.78-2.11-2.67-4.9-2.67-8.37,0-3.75,1.14-6.75,3.41-8.99,1.78-1.75,3.83-2.62,6.14-2.62,1.42,0,2.69,.36,3.82,1.07,1.12,.71,2.11,1.79,2.95,3.23v-12.47c0-.66-.26-1.18-.77-1.57-.51-.38-1.31-.58-2.39-.58h-1.58v-1.8Zm-1.39,14.1c-1.71,0-3.07,.7-4.06,2.11-1.01,1.4-1.51,3.77-1.51,7.11,0,3.62,.51,6.16,1.54,7.64,1.02,1.48,2.34,2.22,3.96,2.22,1.72,0,3.19-.83,4.42-2.48,1.22-1.65,1.84-4.06,1.84-7.24,0-3.01-.65-5.37-1.97-7.09-1.13-1.52-2.54-2.27-4.22-2.27Z"/>
            <path class="cls-1" d="M536.24,50.64h-15.84c.08,3.37,.71,5.75,1.89,7.14,1.36,1.56,3.08,2.34,5.17,2.34,3.09,0,5.56-1.76,7.43-5.28l1.52,.66c-2.29,4.48-5.61,6.71-9.96,6.71-2.95,0-5.44-1.07-7.47-3.21-2.02-2.14-3.03-4.88-3.03-8.22,0-3.59,.99-6.49,2.99-8.71,2-2.21,4.44-3.32,7.35-3.32,2.14,0,3.99,.55,5.54,1.65,1.56,1.1,2.73,2.69,3.52,4.75,.55,1.45,.84,3.28,.87,5.48Zm-15.84-1.68h9.6c.56,0,1-.19,1.32-.58,.32-.38,.48-1.04,.48-1.97,0-1.73-.53-3.19-1.61-4.4-1.09-1.21-2.36-1.82-3.82-1.82-1.64,0-3.03,.73-4.18,2.19-1.14,1.46-1.74,3.65-1.79,6.57Z"/>
            <path class="cls-1" d="M539.73,39.42l7.32-.42c.3,1.39,.52,3,.66,4.86,1-1.6,2.16-2.8,3.51-3.6,1.35-.8,2.87-1.2,4.58-1.2,1.46,0,2.69,.29,3.68,.86,.99,.57,1.79,1.48,2.39,2.72,.6,1.24,.9,2.63,.9,4.17v10.74c0,.8,.18,1.36,.53,1.71,.36,.34,.95,.51,1.78,.51h1.53v1.8h-11.52v-1.8h1.09c1.03,0,1.74-.17,2.14-.5,.4-.33,.6-.83,.6-1.48v-9.45c0-2.06-.32-3.58-.95-4.57-.88-1.41-2.22-2.12-4.02-2.12s-3.27,.72-4.46,2.15c-1.19,1.43-1.79,3.29-1.79,5.58v8.17c0,.8,.18,1.37,.54,1.71,.36,.34,.96,.51,1.79,.51h1.5v1.8h-11.58v-1.8h1.51c.76,0,1.34-.16,1.74-.47,.39-.31,.59-.71,.59-1.18v-14.25c0-.94-.26-1.66-.76-2.15-.51-.49-1.24-.73-2.19-.73h-1.13v-1.56Z"/>
          </g>
        </g>
      </g>
    </g>
  </g>
</svg>