<?xml version="1.0" encoding="UTF-8"?><svg xmlns="http://www.w3.org/2000/svg" viewBox="0 0 500 680"><defs><style>.d{fill:#2b2c88;}.d,.e{stroke:#f4cf00;stroke-width:3.25px;}.f{fill:#fff;}.g{fill:#f5af16;}.h{fill:#f09400;}.e{fill:#00803b;}</style></defs><g id="a"/><g id="b"/><g id="c"><g><g><polygon class="g" points="500 564.28 250 679 0 564.28 0 0 500 0 500 564.28"/><polygon class="h" points="500 0 0 325.75 0 564.28 250 679 500 564.28 500 0"/></g><g><path class="f" d="M461.34,268.59c1.36-4.78,2.29-10.06,2.67-15.79,1.45-21.83-13.7-39.34-15.43-41.27-4.62-5.12-12.47-5.64-17.74-1.18-.74,.63-3.63,3.17-7.03,7.25-1.29-6.48-4.61-13.45-9.39-19.65-10.66-13.86-29.44-15.63-31.55-15.79-6.53-.45-12.3,3.99-13.49,10.38-.38,2.03-3.32,19.89,6.56,33.64-5.84,8-19.61,29.76-17.21,54.4,.41,4.23,1.05,8.36,1.9,12.36-5.38,3.93-12.52,9.96-18.77,17.94l-1.33-21.31c-.42-6.73-6-11.96-12.73-11.96h-6.7c-4.65,0-8.93,2.53-11.17,6.6l-1.32,2.38c-3.59-2.11-7.03-3.77-10.36-5.02-7.05-2.63-14.53-3.97-22.25-3.97-13.32,0-26.52,4.11-39.22,12.2-10.56,6.72-19.3,15.51-26.08,26.18v-62.7h11.01c7.05,0,12.76-5.71,12.76-12.76v-7.52c0-7.05-5.71-12.76-12.76-12.76h-68.06c-7.05,0-12.76,5.71-12.76,12.76v7.52c0,7.05,5.71,12.76,12.76,12.76h10.41v59.96c-6.65-9.16-14.66-15.99-20.56-20.3,.85-4,1.49-8.13,1.9-12.36,2.39-24.65-11.37-46.41-17.21-54.41,9.88-13.75,6.94-31.6,6.56-33.63-1.19-6.39-7.02-10.77-13.49-10.38-2.11,.16-20.89,1.93-31.56,15.79-5.02,6.52-8.13,13.32-9.37,19.67-3.41-4.08-6.3-6.63-7.04-7.25-5.26-4.47-13.13-3.95-17.74,1.18-1.74,1.92-16.9,19.43-15.43,41.27,.37,5.53,1.35,10.85,2.77,15.77-5.76,1.61-9.76,7.08-9.29,13.24,.2,2.54,2.4,25.19,18.95,38.95,3.28,2.73,6.6,5.08,9.89,7.05-.38,.99-.64,2.05-.77,3.16-.16,1.42-3.7,35.19,15.72,58.85,13.67,16.65,33.06,30.46,49.72,29.42,.55,.49,1.13,.93,1.69,1.39-1.18,.68-1.92,1.15-2.08,1.25-5.8,3.76-7.54,11.46-3.94,17.35,.75,1.22,18.66,30.06,48.53,36.83,8.3,1.88,16.61,2.77,24.4,2.69,14.46,11.88,29.24,18.14,41.4,18.14,5.65,0,10.73-1.37,14.95-4.13,4.22,2.77,9.3,4.14,14.96,4.14,12.16,0,26.94-6.26,41.4-18.14,7.76,.17,16.1-.81,24.41-2.69,29.86-6.77,47.77-35.6,48.52-36.83,3.61-5.9,1.86-13.6-3.95-17.36-.15-.09-.84-.54-2.02-1.22,.56-.45,1.1-.92,1.64-1.41,16.7,1.04,36.05-12.76,49.73-29.42,19.42-23.67,15.87-57.43,15.71-58.86-.12-1.1-.39-2.16-.77-3.15,3.29-1.97,6.61-4.32,9.89-7.05,16.55-13.76,18.75-36.41,18.94-38.95,.47-6.12-3.47-11.57-9.18-13.21Z"/><g><g><path class="e" d="M383.1,349.09c-6.89,24.64-21.67,42.03-33.01,38.86-11.35-3.17-14.96-25.72-8.07-50.35,6.89-24.64,33.01-38.86,33.01-38.86,0,0,14.96,25.72,8.07,50.35Z"/><path class="e" d="M330,463.62c-24.95,5.65-47.28,.92-49.88-10.57-2.6-11.49,15.51-25.38,40.46-31.03,24.95-5.65,49.88,10.57,49.88,10.57,0,0-15.51,25.39-40.46,31.04Z"/><path class="e" d="M416.88,381.73c-16.23,19.77-36.77,29.74-45.88,22.27-9.11-7.48-3.33-29.57,12.9-49.34,16.23-19.77,45.88-22.27,45.88-22.27,0,0,3.33,29.56-12.9,49.33Z"/><path class="e" d="M413.89,275.23c2.48,25.46-5.02,47.02-16.75,48.16-11.73,1.14-23.24-18.58-25.71-44.03-2.48-25.46,16.75-48.16,16.75-48.16,0,0,23.24,18.58,25.71,44.04Z"/><path class="e" d="M443.43,310.96c-12.87,10.71-27.31,14.58-32.24,8.65-4.93-5.93,1.51-19.42,14.39-30.12,12.87-10.71,32.24-8.65,32.24-8.65,0,0-1.5,19.42-14.38,30.12Z"/><path class="e" d="M451.28,251.96c-1.14,17.08-8.44,30.51-16.31,29.98-7.87-.53-13.32-14.8-12.18-31.88,1.14-17.09,16.31-29.98,16.31-29.98,0,0,13.32,14.8,12.18,31.88Z"/><path class="e" d="M404.31,205.73c7.5,9.74,9.63,20.67,4.76,24.42-4.87,3.75-14.89-1.11-22.39-10.85-7.49-9.74-4.75-24.42-4.75-24.42,0,0,14.89,1.11,22.39,10.85Z"/><path class="e" d="M305.52,464.37c-18.65,17.5-40.31,24.72-48.37,16.13-8.06-8.6,.53-29.74,19.19-47.24,18.66-17.51,48.37-16.13,48.37-16.13,0,0-.54,29.74-19.19,47.25Z"/><path class="e" d="M366.38,411.49c-11.97,8.88-24.84,11.81-28.75,6.54-3.91-5.28,2.63-16.74,14.6-25.62,11.97-8.88,28.75-6.53,28.75-6.53,0,0-2.63,16.74-14.6,25.62Z"/><path class="e" d="M121.02,349.09c6.89,24.63,21.67,42.03,33.01,38.86,11.35-3.17,14.96-25.72,8.07-50.35-6.89-24.64-33.01-38.86-33.01-38.86,0,0-14.96,25.72-8.07,50.35Z"/><path class="e" d="M174.12,463.62c24.94,5.65,47.28,.92,49.88-10.57,2.61-11.49-15.51-25.38-40.46-31.03-24.95-5.65-49.88,10.57-49.88,10.57,0,0,15.52,25.39,40.46,31.04Z"/><path class="e" d="M87.24,381.73c16.23,19.77,36.76,29.74,45.87,22.27,9.1-7.48,3.33-29.57-12.9-49.34-16.23-19.77-45.87-22.27-45.87-22.27,0,0-3.33,29.56,12.9,49.33Z"/><path class="e" d="M90.23,275.23c-2.47,25.46,5.02,47.02,16.75,48.16,11.72,1.14,23.24-18.58,25.71-44.03,2.48-25.46-16.75-48.16-16.75-48.16,0,0-23.24,18.58-25.72,44.04Z"/><path class="e" d="M60.69,310.96c12.88,10.71,27.31,14.58,32.24,8.65,4.93-5.93-1.51-19.42-14.38-30.12-12.88-10.71-32.24-8.65-32.24-8.65,0,0,1.5,19.42,14.38,30.12Z"/><path class="e" d="M52.84,251.96c1.14,17.08,8.44,30.51,16.31,29.98,7.87-.53,13.32-14.8,12.18-31.88-1.14-17.09-16.31-29.98-16.31-29.98,0,0-13.33,14.8-12.18,31.88Z"/><path class="e" d="M99.81,205.73c-7.49,9.74-9.62,20.67-4.75,24.42,4.87,3.75,14.89-1.11,22.39-10.85,7.5-9.74,4.76-24.42,4.76-24.42,0,0-14.89,1.11-22.39,10.85Z"/><path class="e" d="M198.6,464.37c18.66,17.5,40.31,24.72,48.37,16.13,8.06-8.6-.53-29.74-19.19-47.24-18.65-17.51-48.37-16.13-48.37-16.13,0,0,.53,29.74,19.19,47.25Z"/><path class="e" d="M137.74,411.49c11.97,8.88,24.84,11.81,28.75,6.54,3.91-5.28-2.62-16.74-14.6-25.62-11.97-8.88-28.75-6.53-28.75-6.53,0,0,2.62,16.74,14.6,25.62Z"/></g><path class="d" d="M312.97,305.09l8.12-14.73h6.7l3.65,58.5h-6.5c-4.95-16.8-10.79-28.95-17.53-36.46-8.58-9.55-18.42-14.33-29.51-14.33-8.52,0-16.14,2.4-22.87,7.21-6.74,4.8-11.9,12.01-15.5,21.62-3.6,9.61-5.4,23.13-5.4,40.57s1.8,30.14,5.4,39.68c3.6,9.54,8.56,16.57,14.9,21.08,6.34,4.51,13.76,6.76,22.28,6.76,11.55,0,20.48-3.22,26.79-9.65,6.3-6.43,9.46-14.74,9.46-24.92v-13.69c0-2.17-.84-3.84-2.52-5.02-1.68-1.18-4.44-1.77-8.27-1.77h-12.37v-6.91h61.56v6.91h-8.35c-3.71,0-6.36,.64-7.96,1.93-1.59,1.29-2.38,3.15-2.38,5.59v55.86h-6.56c-2.39-8.68-4.87-17-7.46-24.96-4.96,8.12-10.86,14.21-17.7,18.27-6.84,4.06-14.6,6.09-23.26,6.09-12.36,0-23.82-3.17-34.36-9.51-10.54-6.34-18.88-15.27-24.99-26.8-6.12-11.52-9.17-24.54-9.17-39.08s3.07-27.67,9.22-39.23c6.14-11.56,14.55-20.74,25.23-27.54,10.67-6.8,21.47-10.21,32.37-10.21,6.21,0,12.14,1.05,17.79,3.16,5.65,2.1,12.05,5.96,19.19,11.57Z"/><path class="d" d="M153.64,233.02h68.05v7.52h-16.24c-2.58,0-4.48,.68-5.7,2.03-1.22,1.35-1.83,3.48-1.83,6.39v115.59c0,2.77,.77,4.74,2.32,5.89,1.55,1.16,4.67,1.73,9.35,1.73h20.59c10.96,0,19.91-3.65,26.88-10.95,6.97-7.3,12.03-19.97,15.2-38.01h6.91l-3.46,56.47h-122.09v-7.52h12.03c4.11,0,6.99-.77,8.65-2.33,1.66-1.55,2.49-4.04,2.49-7.48v-114.4c0-2.44-.7-4.29-2.09-5.55-1.39-1.25-3.44-1.88-6.16-1.88h-14.91v-7.52Z"/></g></g></g></g></svg>