<?xml version="1.0" encoding="UTF-8"?>
<svg id="_レイヤー_2" data-name="レイヤー 2" xmlns="http://www.w3.org/2000/svg" viewBox="0 0 126.6 136.55">
  <defs>
    <style>
      .cls-1 {
        fill: #8e8bc2;
      }
    </style>
  </defs>
  <g id="illustration">
    <g>
      <path class="cls-1" d="M41.2,95.3c-.46-.35-.26-.93-.47-1.38-.07-.15,.14-.43,.2-.65,.14-.48-.43-.1-.47-.37-.03-.23-.07-.47-.11-.7-.24-1.3-.48-2.61-.71-3.85,.33-.25,.55-.41,.87-.65-.38-.19-.67-.33-.96-.47-.18-1.35-.49-2.71-.5-4.07,0-.68-.06-1.36-.06-2.05,.01-1.2,.02-2.4,0-3.6-.01-.64,.23-1.25,.04-1.94-.16-.59,.5-.81,.91-1.06-.03-.12-.06-.2-.06-.27,0-.44-.82-.47-.53-1,.25-.47-.16-.8-.14-1.24,.06-1.39,.15-2.76,.41-4.13,.07-.34,0-.7,0-1.01-.53,0-1.07-.07-1.57,.02-.55,.1-1.03-.13-1.55-.15-.5-.02-.71-.56-1.29-.54-.45,.02-.86-.65-1.46-.28-.44-.26-.89-.5-1.31-.79-.29-.21-.51,.17-.87-.02-.75-.4-1.64-.52-2.4-.89-1.52-.72-3.15-1.22-4.52-2.25-.21-.16-.51-.18-.77-.28-.57-.2-1.08-.49-1.33-1.14-1.15,.07-1.86-.83-2.74-1.36-.6-.36-1.13-.84-1.72-1.29,.08-.35,.17-.72,.28-1.14-.38,.14-.7,.38-.97,.34-.32-.04-.67-.26-.9-.51-.74-.77-1.48-1.55-2.13-2.39-.74-.96-1.42-1.97-2.06-3-.72-1.17-1.26-2.42-1.44-3.82-.04-.31,.08-.72-.26-1.03-.16-.15-.16-.51-.17-.78-.02-.6-.04-1.2,0-1.8,.04-.64-.2-1.03-.8-1.31-.42-.19-.76-.55-1.15-.82-.19-.13-.39-.24-.6-.35-.71-.39-1.42-.75-1.93-1.43-.27-.36-.6-.69-1.16-.58-.18,.04-.42-.15-.62-.27-.83-.52-1.66-1.03-2.47-1.57-.32-.21-.7-.43-.64-.92,.06-.44,.54-.89,1.04-.97,.04,0,.08,0,.12,0,1.26-.08,2.55-.03,3.78-.28,1.24-.25,2.51-.06,3.75-.4,.78-.21,1.63-.16,2.45-.2,.45-.02,.66-.05,.83-.24,.3-.35,.59-.69,.96-1.12-.3-.56-.04-1.08,.39-1.66,.73-1.02,1.35-2.14,2.32-2.96,.98-.84,1.95-1.8,3.1-2.31,.97-.43,1.84-1.09,2.87-1.37,1.05-.28,2.13-.47,3.19-.75,2.85-.74,5.77-.53,8.65-.42,1.46,.05,2.97,.15,4.41,.63,.59,.19,1.24,.18,1.86,.28,.26,.05,.5,.18,.75,.26,.26,.08,.51,.17,.78,.2,1.43,.2,2.82,.48,4.15,1.08,.7,.32,1.51,.39,2.25,.61,1.01,.3,2.01,.63,3.01,.97,.69,.23,.76,.32,1.07,1.12,.56,.2,.98-.09,1.4-.4,.19-.14,.34-.34,.52-.5,.64-.57,1.1-1.37,2.01-1.59,.26-.9,1.01-1.4,1.61-2.03,.61-.64,1.21-1.28,1.87-1.86,.97-.87,1.98-1.68,2.97-2.53,.66-.56,1.3-1.16,1.97-1.7,1.04-.84,2.11-1.64,3.16-2.45,.4-.31,.78-.67,1.2-.95,.64-.43,1.19-1.04,2.05-1.07,.18,0,.42-.23,.52-.41,.28-.5,.7-.82,1.18-1.11,1.76-1.07,3.47-2.24,5.25-3.28,1.58-.93,3.23-1.73,4.85-2.61,.69-.37,1.54-.36,2.13-.93,.06-.06,.25-.06,.35-.02,.77,.39,1.31-.19,1.73-.59,.95-.92,2.21-1.08,3.34-1.55,.24-.1,.6,.1,.99,.18,.86-1.23,2.4-1.17,3.7-1.64,.54-.2,1.13-.29,1.78-.45,.18,.12,.42,.3,.75,.52,.07-.28,.12-.45,.18-.69,.11,.01,.28,.09,.36,.04,.83-.54,1.81-.5,2.72-.62,1.76-.22,3.52-.45,5.3-.56,1.1-.07,2.21-.15,3.31-.17,.87-.01,1.73-.04,2.59,.2,.51,.14,1.09,.17,1.69,.09,.75-.1,1.54,.16,2.35,.27,.07,.19,.15,.4,.25,.67,.74-.26,1.47-.6,2.22-.27,.67,.3,1.64-.1,1.95,.82,.46-.04,.88-.18,1.21-.07,1.43,.48,2.91,.8,4.29,1.41-.63,.51-1.19,.97-1.76,1.4-.25,.19-.52,.41-.81,.47-.38,.08-.68,.16-.8,.59-.04,.14-.18,.28-.31,.34-1.28,.6-2.29,1.59-3.51,2.3-1.11,.65-2.16,1.5-3.18,2.32-.65,.53-1.61,.36-2.14,1.28-.39,.69-1.32,1.08-2.02,1.58-.7,.5-1.42,.97-2.12,1.46-1.52,1.04-3.04,2.08-4.55,3.11-.07,.04-.11,.13-.18,.15-1.22,.38-1.89,1.54-3,2.14,.99,.15,1.96,.09,2.92,.12,.33,0,.74-.16,.91,.33,.02,.06,.21,.12,.3,.09,.93-.32,1.85-.29,2.78,.03,.11,.04,.25,.05,.36,0,1.85-.71,3.67,.49,5.57-.12v1.17c-.51,.39-1.07,.8-1.62,1.24-.62,.5-1.23,.98-2.06,.86-.87,1.31-2.05,2.21-3.23,3.1-.53,.4-.98,.97-1.8,.69-.13,1.14-1.04,1.37-1.82,1.67-.37,.14-.62,.24-.71,.67-.04,.17-.29,.32-.46,.45-.97,.72-1.91,1.49-2.97,2.09-.5,.28-.86,.82-1.6,.69,.07,.25,.11,.39,.17,.6-.82,.57-1.68,1.17-2.73,1.9,1.49,.32,2.74,.55,3.97,.86,.36,.09,.72,.33,1,.58,.65,.58,1.35,.75,2.19,.48,.28-.09,.62-.08,.91-.02,1.26,.27,2.51,.56,3.76,.86,.18,.04,.35,.15,.58,.26-.51,.77-1.14,1.22-2.11,1.21,0,.49-.24,.75-.66,1.01-1.02,.65-1.96,1.44-2.95,2.14-.25,.18-.56,.28-.84,.4-.14,.06-.36,.07-.42,.18-.51,.86-1.45,1.18-2.19,1.76-.77,.6-1.54,1.22-2.35,1.77-.23,.16-.61,.1-.92,.14-.52,.08-1.03,.15-1.01,.87,0,.14-.1,.37-.2,.4-.83,.24-1.18,1.07-1.89,1.47-.68,.38-1.29,.88-1.93,1.34-.57,.41-1.13,.83-1.73,1.28,.95,.38,1.95,.17,2.73,.78,.05,.04,.2-.05,.3-.09,.42-.16,.89-.04,1.1,.23,.53,.69,1.18,.41,1.81,.37,.18-.01,.36-.08,.53-.05,1.08,.19,2.15,.4,3.22,.61,.15,.03,.32,.06,.44,.15,.49,.35,1.04,.33,1.6,.33,.64,0,1.76,.28,2.46,.6,.1,.05,.24,.11,.33,.08,1.12-.36,2.11,.32,3.18,.38,.73,.04,1.47,.21,2.18,.4,.45,.12,.87,.39,1.43,.65,.8-.61,1.79,0,2.71,.13,.72,.11,1.68-.04,2.22,.76,.25-.42,.61-.12,.92-.12,.43-.01,.65,.21,.7,.64,.06,.5,.25,1.01,.21,1.5-.06,.8,.15,1.71-.73,2.32,.7,.41,.79,1,.76,1.68-.04,.8,.05,1.6-.02,2.4-.1,1.13-.33,2.25-.42,3.38-.1,1.22-.36,2.39-.75,3.55-.08,.25,.03,.57-.35,.66-.05,.01-.13,.14-.11,.18,.36,.88-.24,1.55-.49,2.29-.25,.78-.48,1.59-.9,2.28-.48,.78-.8,1.63-1.28,2.4-.48,.76-.88,1.6-1.49,2.24-.76,.79-1.19,1.9-2.26,2.39-.33,.66-1.01,.95-1.5,1.45-.16,.17-.36,.36-.57,.4-.87,.16-1.52,.74-2.31,1.2-1.48-.86-2.96-1.73-4.46-2.58-.37-.21-.82-.28-1.16-.52-.35-.25-.62-.62-.98-.99-.38,.2-.76,.24-1.16,.01-1-.57-2.04-1.08-3.01-1.69-.28-.17-.41-.6-.63-.95-.69,.33-1.23,.28-1.72-.38-.19-.25-.76-.17-1.11-.35-1.43-.73-2.84-1.5-4.26-2.26-.24-.13-.47-.25-.71-.37-.71-.37-1.52-.58-2-1.34-.12-.19-.46-.29-.71-.32-1.14-.14-1.18-.14-1.88-.96-.34,.18-.22,.43-.12,.7,.53,1.34,1.08,2.68,1.52,4.04,.1,.31,.47,.66,.16,1.11-.06,.08,.47,.47,.56,.77,.34,1.05,.75,2.09,.44,3.3,.56,.09,.87,.38,1.03,.85,.6,1.69,1.21,3.38,1.81,5.06,.62,1.72,1.25,3.45,1.85,5.18,.31,.89,.25,2.15-.11,2.91-1.5-.62-2.99-1.24-4.5-1.85-1.47-.59-2.93-1.19-4.66-1.86,1.7,5.16,3.52,9.97,4.96,14.81-.7,.62-1.36-.29-1.9,.29,.39,.54,.95,.45,1.47,.43,.46-.02,.73,.15,.89,.6,.59,1.69,1.23,3.37,1.83,5.06,.18,.49-.2,.72-.56,1.03-1.1-.61-2.22-1.22-3.33-1.87-1.08-.63-2.17-1.25-3.21-1.94-1.06-.71-2.28-1.11-3.32-1.85-.35,1,.12,1.95,.21,2.92,.09,.97,.29,1.93,.42,2.9,.11,.78,.16,1.57,.28,2.34,.12,.77,.34,1.53,.44,2.3,.19,1.48,.27,2.98,.52,4.45,.13,.74,.34,1.44-.01,2.12,.05,.07,.07,.12,.1,.12,.03,0,.07-.04,.11-.04,.07-.01,.13,0,.14-.01,.12,.75,.26,1.48,.33,2.22,.03,.34-.08,.7-.12,1.05-.01,.14-.06,.35,.01,.42,.56,.56,.32,1.35,.59,1.99,.07,.16,.01,.38,.01,.67-1.2-.11-2.12-.7-3.13-1.06,.17-.65,.65-.82,1.17-.94-.27-.43-.57-.52-.99-.2-.36,.28-.77,.51-1.16,.76-1.1-.56-2.15-1.09-3.19-1.62-1.01-.51-2.01-1.03-3.07-1.58,.11-.53,.2-.98,.35-1.7-.24,.34-.31,.47-.41,.57-.52,.6-.76,.66-1.42,.22-.41-.27-.75-.65-1.13-.98-.08-.07-.18-.15-.29-.17-.98-.23-1.72-.79-2.38-1.54-.24-.27-.66-.38-.98-.58-.44-.27-.77-.61-.67-1.28-1.28,.36-1.81-.67-2.49-1.22-1.57-1.28-3.01-2.72-4.44-4.16-.83-.84-1.53-1.79-2.27-2.72-.45-.56-.79-1.17-1.36-1.68-.68-.6-1.24-1.39-1.45-2.35-.05-.26-.3-.51-.52-.7-1.05-.92-1.61-2.18-2.29-3.35-.15-.26-.19-.59-.29-.88-.06-.18-.1-.42-.23-.52-.77-.53-.94-1.36-1.23-2.17-.25-.71-.69-1.34-1.02-2.02-.19-.39-.28-.82-.49-1.19-.18-.33,.26-.31,.21-.38-.09-.11-.31-.11-.44-.2-.08-.06-.11-.19-.15-.3-.43-1.29-.89-2.58-1.26-3.89-.18-.64-.18-1.32-.27-2.11-.53-.19-.73-.7-.65-1.35,.07-.11,.15-.21,.22-.32-.06-.02-.12-.04-.18-.07v.41Zm64.8-12c-.3-.03-.57-.02-.38,.5,.14-.22,.24-.38,.34-.53,.06-.02,.12-.04,.19-.07-.03-.03-.06-.06-.09-.09-.02,.06-.04,.12-.06,.19Zm-31.47,36.48l-.07-.19s-.06,.06-.09,.09c.06,.02,.12,.04,.19,.06,.02,.53,.06,.65,.18,.61,.54-.17,.07,.56,.46,.47,.25-.65-.14-.89-.67-1.05ZM46.72,45.34c.04,.26-.2,.63,.28,.72q.16-.54-.32-.69c.06-.14,.12-.27,.18-.41-.17-.09-.35-.18-.6-.31-.08,.08-.19,.19-.28,.28,.15,.24,.26,.42,.36,.57,.16-.08,.27-.13,.37-.18Zm26.64,25.23c-.12,.24-.39,.52-.33,.7,.14,.41,.44-.05,.68,0,.08,.02,.19-.05,.24-.07-.21-.23-.42-.44-.62-.66,.14-.02,.28-.05,.42-.07-.03-.05-.05-.1-.08-.15l-.31,.26Zm-3.62-52.35c.58,.51,1.08-.14,1.62-.1-.54,0-1.12-.61-1.59,.13-.14,.02-.28,.05-.42,.07,.03,.05,.05,.1,.08,.15,.1-.09,.2-.17,.31-.26Zm-8.17,80.4c.15,0,.29-.02,.52-.03-.14-.41-.25-.74-.38-1.12q-.36,.58-.1,1.18c-.07,.11-.15,.21-.22,.32,.06,.02,.12,.04,.18,.07v-.41Zm-6.47-47.96c-.11-.07-.21-.15-.32-.22l-.07,.18h.41c.11,.38,.22,.76,.35,1.2,.48-.5,.47-.93,.04-1.37-.15,.07-.28,.13-.42,.2Zm5.79,58.53c.03,.24,.06,.48,.1,.87,.27-.22,.41-.34,.58-.47-.22-.13-.41-.24-.6-.35-.03-.02-.08-.01-.11-.02,.23-.41,.49-.83-.14-1.17-.17,.18-.35,.36-.52,.54,.26,.23,.47,.41,.69,.6Zm-28.32-51.84l.07,.19s.06-.06,.09-.09c-.06-.02-.12-.04-.19-.06-.03-.32,.16-.69-.23-1.01-.23,.2-.45,.39-.77,.67,.41,.12,.72,.22,1.03,.31Zm26.61-27.33c-.05-.1-.09-.21-.17-.3-.05-.06-.14-.08-.22-.12-.03,.06-.06,.13-.08,.19,.17,.06,.33,.13,.5,.19,.57,.66,.6,.67,1.59,.11-.3-.07-.64-.08-.88-.23-.34-.22-.49,.12-.73,.16Zm-9.85,67.68c-.01-.23-.02-.46-.03-.68-.09,.23-.39,.52,.07,.65,.04,.31,.09,.62,.14,.97,.33-.02,.67-.04,1.16-.07-.21-.28-.34-.44-.47-.61-.43,.36-.52-.34-.86-.27ZM81.52,25.66c0,.15-.03,.31,0,.45,.02,.09,.1,.19,.17,.25,.03,.02,.18-.03,.19-.06,.01-.13,.03-.29-.03-.38-.08-.11-.24-.16-.36-.23v-1.18c-.25,0-.47-.06-.53,.01-.17,.2-.36,.45-.37,.68-.01,.41,.32,.38,.63,.33,.09-.02,.21,.08,.31,.12Zm-33.15,6.04v-.83c-.41,.16-.67,.26-.91,.35,.21,.54,.59,.47,.95,.45-.06,.43,.2,.71,.49,1.08,.35-.2,.66-.37,.97-.55-.01-.07-.03-.14-.04-.21-.48-.1-.97-.19-1.45-.29ZM80.77,13.46c-.08-.24-.16-.47-.31-.93-.2,.65-.22,.95,.34,.89-.3,.43-.33,.88-.11,1.39-.02-.72,1.05-.53,1.03-1.36h-.95Zm8.88-6.03c1.58,.03,1.82-.22,1.5-1.61-.12,.9-.79,1.27-1.47,1.64-.07,0-.17-.03-.22,0-.1,.08-.18,.18-.24,.29,0,.01,.13,.15,.14,.14,.11-.07,.21-.15,.29-.24,.04-.05,0-.14,0-.22Zm6.75,31c-.2-.09-.4-.18-.61-.29-.39,.53-.71,1.02-.67,1.7,.24-.66,1.07-.76,1.26-1.45,.06-.02,.12-.04,.19-.07-.03-.03-.06-.06-.09-.09-.02,.06-.04,.12-.06,.19Zm-44.4,49.64c.12,.23,.23,.46,.37,.74,.14-.46,.16-.77-.41-.7,.03-.25,.03-.44-.31-.5-.43-.08-.85-.23-1.29-.36-.06,.25-.13,.52-.2,.82h1.84Zm34.08-22.32l.07,.19s.06-.06,.09-.09c-.06-.02-.12-.04-.19-.06-.03-.17-.06-.34-.09-.51-.08-.37-.82-.75-1.19-.51v.71c.23,.11,.51,.17,.7,.34,.27,.25,.41-.06,.61-.08ZM22,48.26c-.24,.07-.48,.15-.68,.21,.21,.28,.39,.47,.51,.7,.13,.23,.19,.49,.28,.71h.74c-.14-.3-.41-.6-.36-.83,.11-.52-.44-.5-.53-.82,.15-.12,.29-.29,.46-.36,.21-.09,.46-.12,.69-.17,0-.04-.01-.07-.02-.11h-1.09v.66Zm69.56-7.24h1.49c-.16-.47-.28-.82-.41-1.21-.71,.16-.93,.65-1.04,1.24-.21,.17-.48,.3-.62,.51-.09,.15-.03,.44,.05,.62,.03,.07,.33,.01,.53,.01v-1.17Zm-11.99-19.68c.08,0,.17,.03,.23,0,.07-.04,.15-.14,.14-.2-.06-.31,.23-.62-.1-.95-.19-.2-.21-.57-.32-.85-.02-.06-.12-.08-.21-.14-.2,.11-.41,.23-.79,.45,.7-.02,.61,.39,.56,.68-.1,.51,.21,.77,.52,1.05-.48,0-1.03-.18-1.24,.61,.25,0,.5,.08,.64-.02,.23-.15,.38-.41,.57-.63ZM20.28,51.82c.55-.02,1.1-.05,1.66-.07-.13-.26-.25-.46-.34-.68-.38-.92-.38-.93-1.57-.82,.61,.49,.36,1.05,.29,1.6-.51-.12-.5,.33-.66,.62,.2,.09,.39,.18,.55,.25,.54-.3,.23-.6,.08-.9Zm-6.96-9.12h1.06c-.25-.64,.05-.99,.41-1.32,.38-.35,.31-.69-.16-1.03-.82,.58-1.2,1.4-1.28,2.38-.23,.11-.46,.22-.73,.35,.14,.13,.25,.23,.46,.42,.1-.33,.16-.56,.23-.8Zm17.55-15.36c.23,.5,.81,.05,1.08,.51,.11-.38,.18-.66,.26-.94-.6-.3-.58-.28-.9,.22-.08,.13-.31,.17-.47,.24,.1-.44,.2-.89,.31-1.35-.56-.04-1-.07-1.45-.1-.36,.72-1.1,.34-1.66,.54,.36,.29,.69,.56,1.02,.83,.47-.28,.89-.31,1.24,.23,.06-.22,.12-.4,.17-.57,.14,.14,.27,.26,.4,.39Zm30.93,53.79v-1.23c-.46,.51-.48,.89,.03,1.2-.13,.59,.67,1.26-.18,1.78,.08,.06,.22,.11,.23,.18,.15,.61,.73,.87,1.09,1.59,.32-.94-.64-1.59-.16-2.15,.3-.19,.49-.31,.85-.54-.5-.1-.78-.15-1.16-.22,.29-.11,.48-.18,.85-.32-.66-.12-1.11-.2-1.56-.28Zm15.6-45.16c.35-.2,.64-.08,.87,.12,.12,.85,.23,1.66,.34,2.47,.29-.38,.35-.79,.49-1.17,.2-.56-.47-.8-.48-1.25,.24-.28,.51-.49,.64-.76,.08-.16-.01-.47-.13-.63-.09-.12-.47-.22-.51-.17-.36,.51-1.2,.63-1.2,1.43h-1.3c.16,.47,.28,.81,.4,1.16q.69-.62,.87-1.2Zm-4.32,23.31c-.19-.61-.33-.64-1.08-.08,.48,.02,.8,.03,1.12,.05v1.16c.78,.14,1.42-.29,2.13,.02,.66,.3,.89,.37,.96,1.11,.03,.33,.01,.64,.45,.78,.01-.24,.04-.47,.04-.71,0-.24,.02-.48,0-.71-.12-1.19-.35-1.38-1.53-1.41-.7-.02-1.42,.15-2.08-.22Zm-4.77,39.33c.22,.82,.62,1.5,1.43,1.85-.05,.37-.1,.68-.14,1-.17,.04-.34,.08-.47,.11,.24,.45,.45,.86,.72,1.36,.2-.17,.5-.32,.58-.54,.1-.27,.37-.64-.09-.91-.09-.06-.13-.29-.11-.44,.1-.82-.57-1.37-.74-2.09-.05-.2-.35-.42-.58-.48-.18-.05-.42,.12-.63,.19,.04-.55-.13-1.28,.16-1.61,.5-.57,.15-1.01,.13-1.52,0-.08,.14-.16,.2-.24,.05-.06,.07-.14,.11-.21-.53-.14-.03-.53-.2-.78-.25-.38,.18-.57,.29-.87-.2-.19-.4-.37-.59-.55-.44,.26-1.08,.14-1.18,.84,.44,.47,.89,.98,.82,1.82-.38-.33-.51-.16-.6,.17-.26,.99-.42,1.36-.78,1.75,.15,.16,.35,.29,.43,.48,.09,.2,.07,.44,.1,.7h1.13ZM83.89,14.38l.03,.03c-.09-.24-.19-.48-.3-.77-.17,.15-.29,.21-.34,.31-.17,.36-.06,.98-.79,.78-.36,.4-.77,.5-1.28,.26-.09-.04-.31,.2-.51,.34,.32,.37,.57,.66,.78,.91-.09,.52-.17,.96-.27,1.51,.6-.13,.95,.48,1.43,.12-.07-.37-.09-.72-.2-1.04-.1-.3-.29-.57-.44-.85,.47-.43,.94-.06,1.3,.12,.34,.17,.54,.62,.98,1.18-.05-.9,.38-1.27,.84-1.63-.22-.36-.39-.72-.64-1.01-.13-.16-.4-.2-.61-.29Zm-51.66,24.22c-.31-.23,.25-.74-.35-.83-.09-.01-.14-.26-.22-.4-1.22-2.29-4.32-2.63-6.27-.49-1.03,1.12-.85,3.4,.2,4.53,.44,.48,1.12,.81,1.16,1.59,0,.03,.44,.09,.45,.05,.17-.4,.42-.38,.77-.24,.21,.09,.48,.18,.68,.12,1.46-.42,2.8-1.01,3.3-2.63,.11-.36,.14-.75,.2-1.1,.44,.1,.85,.19,1.26,.29,.24-.39,.52-.79,.24-1.25-.5,.12-.98,.24-1.42,.35Zm13.37,44.79c.02,1.03-.62,1.21-1.41,1.09,0,.2,.01,.33,0,.47-.02,.13-.07,.26-.14,.55,1.17-.18,1.9-.95,2.88-1.27-.15-.3-.27-.53-.38-.77-.16-.34-.08-.63,.24-.81,.28-.16,.54-.09,.74,.15,.13,.16,.25,.34,.39,.54,.11-.14,.21-.22,.19-.25-.22-.5-.3-.9,.43-1.02,.17-.03,.36-.28,.43-.47,.14-.35,.38-.82,.26-1.09-.31-.67,.26-.69,.51-.93-.36-.38-.72-.76-1.08-1.14-.93,.82-.96,1.01-.45,2.24,.02,.06,.08,.14,.06,.17-.33,.46-.09,1.35-1.03,1.34-.13,0-.27,.1-.37,.14-.4-.37-.75-.68-1.07-.96-.73,.27-.8,.86-.91,1.46,.24,.2,.48,.39,.72,.58Zm19.01-27.27c.4-.32,.74-.52,1-.8,.75-.77,1.34-.73,1.89,.16,.1,.16,.24,.29,.36,.43,.05-.03,.1-.05,.15-.08-.07-.4-.14-.8-.21-1.2,.95-.68,2.23-.19,3.17-1.2-.9,.25-1.65-.13-2.42,.06-.52-.44-.76,.41-1.24,.27-.33-.1-.76,.05-1.05-.1-.51-.25-.6,.36-1.03,.35-1.17-.03-1.66,.89-2.3,1.82,.52-.1,.9-.33,1.19,.09,.33,.47-.12,.76-.32,1.09,.73,.17,1.26,.87,1.97,.52-.35-.43-.71-.88-1.15-1.43Zm-19.1,43.66c-.05-.35-.08-.62-.12-.93,.23,.04,.38,.06,.53,.08-.07,.53-.13,1.02-.22,1.64,.35-.24,.56-.38,.77-.52,.41,.44,.43,.48,.6,.95-.26,.9-.93-.08-1.39,.56,.29,.58,1.24,.56,1.37,1.36,.62-.78,1.08-1.59,2.11-1.77-.18-.36-.34-.63-.46-.91-.12-.32-.08-.73-.55-.87-.37,.01-.56,.72-1.09,.39-.14-.67-.27-1.35-.41-2.02h-1.12c.16,.23,.28,.39,.41,.56-.69,.41-1.37,.28-2.2-.11,.14,.35,.17,.67,.34,.8,.41,.29,.61,.94,1.43,.8Zm28.08-10.01c1.02,.88,.94,2.24,1.7,3.21-.09-.72-.19-1.44-.28-2.11,.37-.21,.64-.36,1.13-.63-.49,.05-.74,.08-1.06,.12-.14-.31-.9-.21-.74-1.01,.48-.19,1.02-.41,1.55-.63,.11-.72,1.14-.49,1.29-1.19-.34-.14-.72-.19-.93-.4-.21-.21-.27-.59-.39-.89,.08,.79-.67,.83-1.05,1.19-.4,.38-.9,.54-1.39,.28-.37,.35,.01,.91-.49,1.13-.42,.18-.82,.41-1.26,.54-.47,.14-.48,.1-.23,.71,.63-.98,1.77-.63,2.85-1.24-.33,.43-.5,.65-.71,.92Zm-17.23-45.37c-.67,.16-1.36,.31-2.03,.51-.16,.05-.41,.29-.39,.4,.13,.67-.44,.92-.78,1.25q.57,1.1,.36,2.44c-.43-.15-.84-.3-1.25-.44q-.33,.63,.21,1.1c.21-.1,.42-.21,.63-.29,.22-.08,.45-.12,.67-.18,.99-.25,1.12-.46,.96-1.6-.69-.27-.78-.52-.38-1.03,.16-.21,.44-.42,.45-.64,.03-.6,.46-.65,.85-.78,.54,.72,.54,.73,0,1.62,.09,.08,.17,.16,.26,.24,.92-1.14,1-1.59,.43-2.59Zm11.98,66.01c.39-.31,.69-.55,.81-.65,.88,.07,1.53,.12,2.02,.16,.4-.6,.69-1.05,.98-1.49-.7-.31-1.37-.61-2.1-.94-.04,.63-.07,1.13-.1,1.6-.39-.08-.72-.16-1.09-.24-.04-.27-.09-.53-.12-.76-.74-.33-.96,.11-1.09,.54,.24,.61,.45,1.14,.71,1.77Zm-11.22-44.86c-.17,.58-.39,1.12-.46,1.69-.04,.32,.02,.57-.36,.69-.17,.05-.3,.21-.46,.34,.42,.56,1.28-.31,1.44,.44,.47-.11,1-.4,1.22-.24,.38,.27,1.17-.17,1.2,.68,0,.07,.24,.2,.36,.18,.11-.01,.25-.15,.31-.27,.18-.39,.32-.79,.49-1.23-.34-.22-.68-.44-1.04-.67-.18,.35-.33,.63-.45,.86h-1.08c-.11-.57-.71-.19-.91-.44-.42-1.08,.15-1.61,1.01-2.02-.29-.06-.52-.06-.76-.06-.15,0-.31,.02-.5,.03Zm13.59,63.24c.2,.22,.37,.54,.49,.53,.32-.05,.68-.18,.92-.4,.42-.38,.77-.84,1.12-1.24-.18-.33-.39-.71-.53-.97,0-.47,.64-.28,.48-.76-.07-.22,.06-.53-.05-.71-.21-.34-.46,.18-.73,.05-.1-.05-.23-.03-.34-.03-.3-.65-.65-.96-.92-.77-.05,.07-.14,.15-.18,.26-.03,.11,0,.24,0,.35,1.41,.63,1.48,.88,.54,1.96,.33,.98,.23,1.06-.79,1.74ZM40.16,57.89c.22,.12,.35,.2,.48,.26,.13,.06,.26,.11,.32,.14,.73-.63,.83-1.25,.23-1.95-.11-.13-.12-.36-.18-.57,.75-1.01,.75-1,2.15-.85,.11,.01,.24-.18,.4-.31-.74-.21-.29-.9-.59-1.3-.82-.15-.87,1.04-1.63,.96-.44,.56-1.25,.83-1.31,1.7,.83,.81,.88,1.16,.13,1.92Zm32.01,26.13c.24-.31,.35-.53,.53-.66,.53-.4,.84-.21,1.16,.43,.28,.56,.03,1.02-.21,1.39-.23,.36-.13,.63-.14,.95q.83-.07,1.48-.93c-.15-.49-.3-.98-.46-1.46-.16-.51-.41-.87-.95-1.16-.44-.24-.75-.18-1.17-.16-.51,.03-.71,.23-.83,.71-.06,.22-.37,.38-.74,.72,.58,.07,.95,.12,1.32,.17ZM100.34,13.26c-.3,.38-.56,.69-.83,1.03,.51,.11,1.01,.11,1.4,.31,.61,.31,.89,.32,.96-.28,.06-.5,.21-.81,.68-.98,.12-.04,.24-.22,.29-.36,.17-.53,.32-1.08,.48-1.66-.93,.05-1.42,.52-1.66,1.27-.29,.93-.27,.93-1.33,.66ZM58.5,83.15c-.26-.69-.23-1.29,.31-1.81,.21-.2,.21-.47-.09-.71-.34-.27-.41-.65-.31-1.08,.13-.55-.16-.92-.58-1.25-.05,.11-.08,.14-.08,.18,0,.8,.06,1.61-.03,2.4-.1,.83-1.09,1.06-1.38,1.79,.67,.15,1.35,.31,2.16,.49Zm-13.26-18.08c-.48,1.08-.94,2.1-1.39,3.13-.01,.03,.09,.12,.2,.26,.12-.17,.2-.32,.32-.44,.39-.43,.79-.46,1.24-.1,.21,.18,.38,.43,.61,.57,.17,.11,.41,.1,.71,.16,0-.26,.06-.48-.01-.55-.28-.24-.6-.43-.96-.68,.06-.66,.11-1.35,.17-2.05-.23-.08-.49-.17-.87-.3Zm39.51-18.35c.58,.62,1,.09,1.51,.12,.14,.29,.28,.59,.46,.97,.55-.41,1.32-.45,1.69-1.18-.13-.1-.24-.22-.37-.28-.17-.07-.35-.1-.51-.14q-.08-1.23-.9-1.23c-.2,.97-.84,1.5-1.88,1.74Zm-20.62,70.51c.08-.66-.02-1.55-.34-1.82-.17-.15-.5-.12-.8-.18,.22-.71,.44-1.41,.69-2.2-.4,.02-.76,.04-1.2,.07,.54,1.01,.25,1.78-.24,2.52-.17-.17-.3-.3-.44-.44-.06,.06-.11,.11-.17,.17,.36,.36,.68,.77,1.08,1.07,.44,.33,.96,.55,1.42,.81Zm9.45,5.1c-.51-.72-.75-1.46-.48-2.38-.34,.08-.56,.07-.69,.17-.13,.11-.24,.32-.25,.5-.02,.27,.04,.54,.1,.81,.13,.59-.04,1.13-.5,1.41-.17,.1-.39,.14-.58,.2,.57,.23,.39,1.44,1.36,.95,.21-.61,.29-1.34,1.05-1.66ZM36.22,37.34c-.03,.3-.09,.46-.06,.6,.13,.57,.36,1.12,.43,1.69,.08,.65,.19,1.35-.49,1.85-.15,.11-.13,.45-.2,.72,.66,.07,1.04-.11,1.26-.6,.18-.41,.65-.78,.29-1.29-.46-.64-.34-1.21,.16-1.72-.46-.41-.85-.77-1.39-1.25Zm-12.66,7.48c.61-.44,1.4,.07,2.18-.45-1.06-.52-1.99-.97-2.91-1.41-.06-.03-.16-.02-.24,0-.11,.02-.21,.07-.3,.1-.06,.29-.11,.55-.15,.79-.33,.06-.59,.11-.89,.16,.04,.24,.07,.42,.11,.63q1.1-.6,2.2,.18Zm17.81-8.28c-.85,.15-.81-.62-1.06-1-.23,0-.39-.01-.55,0-.07,0-.13,.08-.28,.18,.06,.26,.12,.55,.2,.84,.2,.72,0,1.31-.54,1.81-.53,.48-.5,.65,.17,1.23,.22-.13,.46-.26,.66-.38,.04-1.35,.23-1.71,1.4-2.67Zm16.85,12.4c.15,.59,.14,1.09,.39,1.37,.28,.32,.8,.42,1.19,.64,.17,.09,.33,.24,.43,.4,.25,.41,.33,.81-.22,1.06,0,0,0,.05,0,.12,.3,.1,.62,.21,1.03,.35v-1.72c-.15,.17-.23,.26-.46,.52,.12-.59,.2-.99,.32-1.57-.63,.25-.93-.35-1.27-.36-.63-.02-.88-.49-1.42-.81Zm-18.73,15.01c.02,.33,.03,.67,.05,1.05h.77c-.15-.53-.3-1.04-.44-1.54-.48-.13-.98-.27-1.52-.42q.74-.55,.43-1.48c-.14,.34-.24,.56-.33,.77-.14-.06-.29-.12-.47-.19-.2,.4-.39,.77-.59,1.17,.21,.15,.4,.27,.59,.4-.05,.16-.1,.32-.12,.39,.7,.76,.9-.46,1.62-.16Zm53.12-29.3s0,.07,0,.1c.19,.02,.38,.03,.57,.07,.18,.04,.34,.1,.5,.15,.39-.54,.79-1.03,1.12-1.57,.25-.41,.42-.75,1.03-.79,.65-.04,.69-.36,.36-.9-.34,.19-.73,.41-1.16,.65-.33-.03-.78-.07-1.2-.1-.14,.81-.27,1.53-.4,2.24-.3,.06-.56,.1-.82,.15Zm5.44,27.83c.53-.46,1-.87,1.92-.65-.66-.47-1.16-.72-1.51-1.1-.53-.57,.18-1.03,.36-1.6-1.21,.23-1.32,1.05-1.24,1.92q-.79,.44-1.04,1.07,.85-.58,1.51,.37Zm-41.97,56.26c.34,.75,.98,1.06,1.53,1.47,.25,.19,.4,.49,.62,.77,.28-.02,.59-.04,.85-.06,.37-.85-.49-1.22-.47-1.94-.55,.09-1,.17-1.45,.25-.39-1.04-.43-1.05-1.08-.5ZM95.53,30.9c.44-.19,.77-.41,.73-.89-.08-.07-.13-.16-.2-.17-.72-.14-1.36-.4-1.64-1.17-.02-.05-.13-.06-.27-.11-.63,.54-.58,1.45-1.13,2.08,.2,.15,.35,.26,.49,.36,1.2-1.03,1.34-1.04,2.02-.08Zm-28.55,3.18c-.2,.61-.39,1.21-.6,1.88,.61,.03,1.11,.06,1.4,.08,.26,.46,.44,.78,.56,1,.39-.25,.74-.46,1.14-.71-.66-.22-1.5-.25-1.5-1.2,.13-.11,.24-.2,.36-.31-.33-.53-.78-.7-1.36-.73Zm-8.13,77.43c.05-.24,.34-.38,.18-.72-.11-.23-.02-.55-.02-.83-.06,0-.15-.05-.22-.03-.14,.05-.28,.12-.41,.19-.69,.41-.83,.38-1.36-.19-.17-.18-.42-.29-.76-.52,.39,1,.32,1.81,.21,2.63-.02,.14,.11,.3,.16,.45,.1-.13,.3-.26,.28-.38-.07-.59,.34-.83,.76-.95,.41-.12,.9-.19,1.18,.34ZM78.46,17.7c.06,.05,.18,.22,.3,.23,.25,.02,.59-.17,.74-.06,.22,.16,.31,.5,.46,.78q1.15,.2,1.43-.1c-.26-.11-.7-.03-.61-.52,.1-.56-.41-.45-.62-.59,.22-.76-.38-1.08-.69-1.57-.35,.64-.67,1.22-1.02,1.84Zm-7.85,105.04c.33-.86,.41-1.74-.46-2.53-.18,.43-.34,.81-.5,1.18-.51,.31-1.14-.61-1.47,.07,.46,.37,.89,.73,1.42,1.16,.23,.03,.62,.07,1.02,.12Zm24.81-55.83c-.04-.24-.06-.55-.11-.56-.56-.08-.64-.44-.66-.91,0-.12-.19-.23-.35-.43-.06,.35-.1,.61-.14,.89-.69-.08-1.36-.16-2.05-.23-.17,.29-.35,.6-.53,.92,.81,.37,1.37-.11,2.01-.36,.2,.24,.39,.47,.56,.68h1.27Zm-29.54,17.08c.37-.29,.68-.54,.99-.78-.37-.24-.88-.4-.91-.62-.13-.93-.76-.74-1.32-.74-.21,.3-.41,.58-.66,.93,.65,.41,1.27,.8,1.9,1.21Zm31.59-18.49c.53-.64,1.18-.92,2.02-.73,.13,.03,.31-.19,.52-.32-.43-.3-.81-.57-1.26-.89-.38,.28-.77,.56-1.16,.85h-1.15v1.19c.34-.2,.58-.34,.81-.48,.08,.14,.14,.24,.22,.38ZM13.27,40.01c.8-.94,.48-1.83,.56-2.76-.47-.12-.9-.23-1.29-.33-.31,.53-.62,.95-.17,1.4,.34,.33,.53,.71,.57,1.18,.01,.14,.16,.26,.33,.51Zm63.23,9.39c-.35-.4-.63-.71-1.04-.13-.09,.13-.39,.1-.64,.15,.1-.24,.15-.38,.19-.47-.33-.3-.63-.54-.89-.83-.39-.43-.38-.44-.98,0,.2,.29,.44,.56,.58,.87,.18,.41,.52,.54,.89,.67,.25,.09,.56,.1,.75,.26,.16,.13,.19,.42,.31,.71,.3-.45,.55-.8,.84-1.24Zm-29.19,28.59c0-.06,0-.12,0-.18-.15-.03-.33-.01-.44-.09-.15-.1-.22-.37-.37-.41-.75-.19-.84-.81-1-1.41-.09-.33-.2-.65-.35-1.12-.11,.67-.54,.52-.87,.6-.29,.07-.56,.22-.83,.33,.84,.09,1.63,.14,1.7,1.21-.25,.12-.53,.26-.82,.4,.41,.19,.78,.13,1.11,.21,.36,.08,.69,.34,1.05,.44,.25,.07,.54,.01,.81,.01ZM30.41,28.64c-.08,.11-.23,.23-.25,.36-.06,.57,1.16,2.3,1.72,2.41,.19,.04,.51-.04,.6-.18,.12-.18,.03-.38-.24-.55-.27-.17-.59-.53-.59-.81,0-.87-.48-1.14-1.25-1.23Zm53.08,34.11c-.06,.06-.11,.12-.17,.18,.69,.35,.29,1.35,1.28,1.7,.13-.9,.92-1.25,1.58-1.86-.44-.16-.73-.37-1.01-.35-.57,.04-1.13,.21-1.69,.33Zm2.6-30.24c-.27-.22-.53-.43-.87-.71-.09,.43-.14,.72-.22,1.11-.49-.1-.94-.19-1.5-.3-.27,.39-.56,.82-.85,1.26,.43,.32,.7,.2,.93-.07,.38-.43,.79-.62,1.35-.3,.39,.23,.68,.04,.88-.3,.11-.2,.18-.42,.29-.69Zm-17.6,23.41c.54,.29,.95,.67,.77,1.35,.6,.12,1.1,.21,1.85,.36-.59-.78-.17-1.65-.81-2.14-.6,.14-1.16,.27-1.82,.42Zm-13.07,9.48c.25-.04,.5-.09,.76-.12,.92-.11,1.57-1.45,.9-2.09-.33-.32-.1-.73-.45-.96-.24,.82-.47,1.62-.75,2.55-.12,.1-.79-.03-.45,.63ZM90.49,31.34c.57,.33,1,1.03,1.89,.91,.04-.29,.09-.6,.14-.89-.3-.37-.59-.73-.86-1.06h-.94c-.08,.37-.15,.7-.22,1.05Zm-50.65,9.07c-.43,.83-.44,.82-1.33,1.37-.19,.12-.31,.35-.47,.52,.49,.15,.93,.2,1.22,.01,.29-.18,.44-.6,.66-.91,.39-.16,.83-.31,1.23-.53,.05-.03,.39-.37,.09-.58-.13-.09-.34-.12-.5-.1-.3,.04-.6,.14-.9,.22Zm10.36,53.67c.4-.6,.96-.73,1.64-.73,.74,0,1.38-.36,1.96-1.12-.38,.02-.61,0-.81,.05-.49,.11-.98,.37-1.46,.35-.78-.04-1.27,.28-1.64,.89,.1,.18,.19,.35,.31,.57Zm3.62-12.85c-.41,1-.93,1.74-2.08,1.64,.04,.28,.07,.46,.1,.65,.3-.08,.54-.14,.81-.21,.05,.44,.09,.78,.15,1.39,.12-.54,.1-.97,.24-1.03,.71-.32,.88-1.1,1.42-1.54,.05-.04,.06-.12,.07-.14-.2-.21-.37-.4-.71-.75Zm-5.41,3.95c.3,.23,.44,.34,.59,.46,.05-.03,.1-.06,.15-.09-.12-.34-.24-.68-.36-1.03h-1.68c-.65,.72-.36,1.3,.17,1.86,.37-.4,.74-.78,1.12-1.19Zm22.99,11.53c-.33,.65-.62,1.2-.91,1.76,.22,.6,.9,.32,1.23,.69,.7-.56,.34-1.22,.42-1.75-.28-.26-.49-.46-.74-.7ZM36,54.86c-.38,.29-.68,.5-1.06,.79,.39,.03,.73,0,.74,.48,0,.23,.17,.6,.35,.67,.45,.18,.96,.22,1.42,.31,.06-.15,.13-.23,.11-.29-.24-.88-1.35-.99-1.56-1.96Zm24.52,68.45c.19-.41,.12-.75-.21-1.13-.26-.3-.39-.72-.68-1.31,.16,.89-.19,1.19-.88,1.27-.15-.31-.3-.62-.45-.92-.49,.1-.61,.59-.5,.56,.6-.18,.33,.37,.48,.49,.43,.14,.89,.18,1.21,.42,.31,.24,.39,.8,1.03,.62Zm6.15-11.96c-.4,.23-.73,.59-1.02,.55-.74-.1-.42,.28-.42,.6,.62-.29,1.1,.16,1.61,.15,.63-.02,.75,.82,1.43,.84-.1-1.12-1.07-1.45-1.61-2.14Zm-15.73-71.44q-.5,.43-.86,1.42c.87,.96,1.18,1.05,2.51,.76-1.02-.38-1.18-.59-1.66-2.17Zm7.2,76.32c-.07-.03-.14-.07-.22-.08-.99-.02-1.05,.03-1.43,1.02-.04,.12-.23,.18-.37,.27,.25,.2,.47,.5,.75,.58,.35,.09,.8,.15,1.04-.31-.2-.54-.39-1.08,.23-1.49Zm11.09-30.83c-.71,.14-1.44-.32-1.97,.6,.8,.11,.98,1.21,1.97,1.05v-1.64Zm-5.5,20.2c.77-.1,1.38-.23,1.99-.24,.55,0,.84-.25,1.09-.64-.37-.44-.74-.37-1.14-.23-.4,.14-.88,.42-1.22,.32-.76-.23-.67,.2-.72,.79ZM95.81,11.69c.11-.28,.17-.5-.19-.67-.18-.09-.32-.32-.42-.52-.1-.2-.13-.44-.25-.89-.14,.35-.25,.51-.22,.54,.36,.38,.15,.65-.16,.89-.22,.16-.45,.33-.7,.42-.65,.25-.91,.75-1.08,1.4,.74-.05,.79-.7,1.05-1,.38-.11,.67-.25,.97-.27,.32-.02,.65,.06,.99,.11Zm6.16,66.63c-.59-.06-1.04-.11-1.5-.16,.05-.25,.08-.41,.12-.58-.7-.19-1.07,.14-1.37,.76,.19,.06,.34,.08,.45,.16,.15,.1,.25,.25,.39,.37,.59,.47,1.23,.31,1.91-.54Zm-4.96-21.9c-.88,.64-.34,1.56-.64,2.46,1.18-.19,.99-1.22,1.53-1.7-.32-.27-.57-.48-.9-.76Zm-21.59,40.17v-2.06c-.47,.3-.98,.62-1.53,.96,.01,.16,.03,.4,.06,.75,.39,.09,.87,.21,1.47,.35Zm-13.99-25.93c-.41,.86,.25,1.5,.59,2.27-.3-.96,.87-1,1.01-1.66-.35-.74-1.05-.5-1.6-.61Zm11.53,19.93c-.16,.21-.29,.31-.31,.42-.04,.31,0,.64-.06,.95-.03,.14-.33,.36-.37,.33-.31-.22-.57-.12-.69,.17-.1,.26-.06,.57-.09,1.01,.85-.41,1.2-1.32,2.2-1.13-.25-.62-.44-1.12-.69-1.75Zm-5.19,16.76c.52-.25,1.03-.43,1.47-.72,.17-.11,.18-.45,.34-.89-.33,.27-.48,.39-.65,.52-.54-.46-1.12-.68-1.77-.11,.2,.39,.39,.76,.61,1.2Zm.17-66.27c-.42,.06-.72,.19-.95,.11-.31-.1-.49-.54-.93-.35-.13,.3-.22,.62-.39,.9-.26,.41-.23,.52,.26,.61,.21,.04,.42,.07,.53,.08,.48-.44,.89-.81,1.49-1.35Zm-29.91,17.72c-.08,.04-.15,.07-.23,.11,.13,.59,.25,1.18,.38,1.75-.1,.07-.19,.13-.31,.21,1.09,0,1.19-.09,1.52-1.18-.47-.31-.92-.6-1.36-.88ZM102.84,14.87c.21,.3,.43,.6,.61,.84,.31-.04,.57-.08,.83-.12,.25-.04,.49-.08,.72-.12,0-.14,0-.19-.02-.21-.2-.17-.42-.33-.61-.51q-.73-.65-1.53,.11Zm-60.95,19.9c.06-.01,.12-.02,.18-.04,.03-.14,.03-.3,.09-.43,.09-.17,.24-.31,.34-.48,.24-.44,.1-.93-.35-.91-.63,.03-.92-.46-1.36-.72-.32,.76,.46,.78,.62,1.17,.18,.46,.33,.93,.49,1.39Zm-5.65-8.21c-.14,.64-.28,1.29-.42,1.94,1.14,.32,1.05-.77,1.46-1.24-.18-.49-.32-1.02-1.03-.7Zm13.87,11.02c.32-.16,.6-.3,.97-.48-.42-.37-.73-.65-1.04-.92-.46,.41-.87,.92-.63,1.28,.26,.39,.17,.81,.3,1.18,.87-.13,.22-.68,.41-1.05Zm-3.92-9.23c-.08-.03-.17-.06-.25-.09-.14,.13-.41,.26-.41,.39,0,.8,.37,1.29,1.12,1.33,.46,.02,.8,.13,1.04,.65,.2-.42,.33-.68,.45-.94-.48-.35-.87-.06-1.26,.05-.56-.27-.71-.78-.69-1.39Zm34.77,.27c-.22-.66-.4-1.19-.57-1.7-.4-.1-.63,.07-.79,.39-.3,.6,.2,.98,.4,1.54,.32-.08,.64-.15,.96-.23Zm-13.12,13.77c-.05,.09-.1,.19-.15,.28,.8,.09,1.08,.69,1.5,1.32,.24-.57,.42-1.02,.6-1.44-.42-.17-.88-.36-1.32-.53-.23,.14-.43,.25-.63,.37Zm9.84,44.27c-.23,.44-.57,.79,.14,.94,.46,.1,.58,.56,.5,.79-.23,.67,.35,.62,.6,1.01,.11-1.17-.08-2.2-1.24-2.75ZM29.8,48.29c.43-.28,.93-.27,1.07-.85-.24-.21-.48-.43-.69-.61,.23-.31,.43-.59,.65-.88-.58-.26-.99,.11-1.01,.41-.03,.41,0,.78-.32,1.01,.1,.32,.18,.57,.3,.93Zm76.29,10.52c.1,.76-.15,1.03-.59,1.18,.42,.33,.81,.65,1.21,.97,.62-.23,.37-.67,.36-1.13-.02-.72-.66-.45-.97-1.01Zm-35.06,46.81c.54,.62,1.04,1.19,1.51,1.73,.37-.57,.36-.57,.23-1.47-.58-.04-1.09-.78-1.74-.26Zm-2.19-35.39c-.36,.58-.83,.93-1.48,.88,.09,.59,.1,.56,.56,.73,.29,.11,.54,.34,.87,.56-.3-.72,.49-1.33,.04-2.17Zm-26.04-.75c-.17-.29-.43-.45-.78-.31-.34,.14-.36,.46-.38,.79-.03,.62,.47,.9,.82,1.57,.14-.86,.24-1.45,.34-2.05Zm41.97-19.4c.11,.33,.12,.72,.31,.88,.37,.3,.83,.59,1.37,.33-.1-.33,0-.69-.35-.98-.36-.3-.68-.49-1.33-.23Zm5.03-23.44c.91-.09,1.15-.25,1.03-.79-.06-.26-.27-.54-.49-.69-.22-.15-.55-.16-.89-.25,.13,.65,.24,1.16,.35,1.73Zm-36.24,7.37c-.18-.65-.54-1.05-1.25-1.21-.42-.09-.47,.07-.58,.36,.25,.37,.52,.75,.75,1.08,.4-.09,.73-.16,1.07-.23Zm20.63,42.73c.6-.58,1.58-.12,2.04-1.31-.85,.18-1.59,.32-2.34-.1,.1,.48,.18,.83,.3,1.41Zm14.15-23.49c-.27,.33-.4,.61-.63,.75-.25,.15-.59,.16-.87,.27-.18,.07-.32,.22-.56,.38,.53,.1,.93,.18,1.33,.26,.18-.63,.76,.1,1.07-.4-.1-.34-.22-.77-.35-1.25Zm-16.72,17.29c-.34-.59-.5-1.04-.8-1.36-.17-.19-.57-.27-.84-.24-.17,.02-.29,.36-.45,.56,.53,.32,1.22,.31,1.34,1.03,0,.02,.28,0,.75,0Zm39.25,6.43c-.22-.36-.38-.62-.54-.87-.07-.11-.22-.21-.24-.33-.17-.78-.16-.79-.91-.34,.13,.27,.3,.52,.38,.8,.22,.76,.21,.77,1.31,.73ZM84.19,11.29c-.06,.95,.07,1.72,1.03,2.21,.14-.49,.27-.92,.39-1.34q-.94-.23-1.42-.86Zm-12.49,56.69c.16-.17,.36-.29,.36-.39-.05-.62-.55-.96-1.15-.85-.46,.08-.92,.15-1.38,.24-.07,.01-.13,.07-.2,.1,.11,.2,.21,.4,.32,.62,.83-.71,.86-.71,2.05,.29Zm35.46-5.56c.33,.5,.78,.66,1.4,.7,.12-.45,.23-.88,.34-1.31-.59,.34-1.37-.22-1.74,.61Zm-37.53,27.45c-.51-.3-.12-1.14-.98-1.33v2.63c.4-.53,.64-.86,.98-1.3Zm-3.31-58.85c.51,.5,.93,.92,1.35,1.33,.67-.48,0-1.09,.46-1.79-.76,.19-1.23,.31-1.81,.46ZM113.63,7.24c-.45,.38-.81,.69-1.16,.99,.29,.17,.56,.26,.71,.44,.23,.29,.5,.29,.69,.08,.15-.17,.25-.49,.21-.71-.06-.28-.29-.53-.44-.8ZM52.08,89.99c.59,1.18,1.6,.4,2.17,.91,.19-.28,.36-.55,.52-.79-.85-.04-1.66-.07-2.69-.12Zm47.22-9.3c-.14,.86,.54,1.24,.81,1.82,.16-.13,.31-.25,.46-.38,.13-.1,.26-.2,.42-.32-.43-.36-1.06-.39-1.09-1.04,0-.04-.38-.05-.59-.08Zm12.02-3.9c-.33,.61-.58,.99-.75,1.41-.12,.29,.04,.55,.31,.7,.16,.09,.35,.15,.53,.22,.32-.7,.13-1.38-.09-2.33ZM57.96,37.75c-.31-.05-.57-.09-.82-.12-.11-.33-.21-.62-.37-1.12-.48,1.06,.64,1.74,.06,2.6,1.06,0,.74-.91,1.13-1.36Zm14.67,19.97c.54-.77,.41-1.48,.42-2.32-.46,.67-.83,1.2-1.24,1.79,.29,.19,.51,.33,.82,.53Zm13.18-14.91c.12,.61,.24,1.17,.36,1.73,0,.04,.13,.04,.26,.08,.07-.3,.13-.58,.2-.89,.28-.04,.54-.08,.8-.12-.61-.11-.7-1.09-1.62-.81ZM25.3,29.49c.02-.07,.04-.15,.07-.22-.24-.12-.54-.18-.72-.36-.2-.21-.29-.53-.42-.8-.65,.16-.71,.25-.68,1.11,.59,.09,1.17,.18,1.76,.27Zm56.11,62.9c.59-.13,1.06-.41,1.31-.99-.28-.25-.52-.47-.85-.76-.11,.65-.99,.96-.46,1.74Zm-7.6-66.15c.54,.35,.93,.08,1.3-.1,.25-.12,.18-.67-.04-.64-.57,.08-.46-.69-.92-.67-.11,.48-.22,.92-.34,1.41Zm-18.25,15.84h-1.38c-.05,.46-.13,.85,.32,1.08,.21-.15,.42-.3,.64-.46,.11,.28,.18,.48,.26,.68,.05-.02,.1-.03,.15-.05v-1.25Zm-6.43-.92c-.65-.29-1.29-.39-1.56-1.09-.18,.53-.32,.97-.49,1.48,.67-.14,1.37,.23,2.05-.39Zm22.36,90.07q.95,0,2.71-1.59c-.39-.02-.82-.21-.88,.44,0,.1-.29,.17-.45,.25-.46,.25-1.11,.2-1.38,.89Zm-20.89-49.6c-.19,.34-.28,.74-.52,.89-.26,.16-.71,0-.91,.41,.35,.58,.86,.33,1.29,.3,.33-.44-.03-1.19,.89-1.21-.3-.16-.47-.25-.75-.4Zm-4.91-34.13c.02-1.1-.02-1.15-.87-1.17-.3,0-.6,.03-.9,.04,.67,.24,.84,1.23,1.77,1.12Zm24.7,72.57c.26-.18,.45-.35,.68-.47,.72-.4,.72-.39,.39-1.23-.74,.28-1.14,.79-1.07,1.71Zm7.41-89.33c.71,0,.56-.6,.74-.9,.24-.38,.02-.85-.35-1.18-.53,.6-.49,1.3-.39,2.08Zm-3.12,.06c-.53,1.05-.52,1.13,.26,2.03,.11-.57,.22-1.12,.33-1.7-.2-.11-.4-.22-.59-.33Zm-5.2,85.36c.7-.46,1.52,.01,2.36-.51-.94-.38-1.75-.18-2.61-.32,.09,.29,.15,.5,.25,.83Zm26-38.22c-.09,.32-.17,.64-.25,.91,.32,.02,.57,.04,.81,.06,.28-.49,.56-.98,.89-1.55-.54,.21-.95,.37-1.45,.58Zm-32.15,19.2c.37-.08,.53-.15,.67-.13,.2,.03,.4,.13,.68,.22,0-.63,.28-1.23-.62-1.48-.21,.4-.42,.8-.72,1.38Zm-20.23-4.88c.22-.2,.35-.33,.54-.51-.37-.37-.11-1.11-.83-1.26q-.48,.6,.29,1.77Zm16.38-15.52c.45,.07,.83,.06,1.14,.2,.54,.24,.6-.11,.74-.44-1.19-.62-1.39-.6-1.88,.24Zm.55-7.08c-.2,.14-.53,.25-.55,.4-.05,.48-.18,1-.15,1.14,.35-.23,.7-.46,.95-.62-.37-.02,0-.55-.25-.92Zm15.77,26.69c.86,.64,1.25,.59,2.06-.45-.83-.51-1.34,.37-2.06,.45Zm6.89-43.14c.3,.29,.57,.55,.84,.8q.92-.87,.54-1.35c-.43,.17-.85,.34-1.37,.55Zm-22.22,52.5c.58,.18,1.08,.33,1.61,.5,.35-.25,.29-.62,.14-1.02-.72-.2-1.19,.28-1.75,.53Zm6.14-28.08c-.97,.04-.56,.92-.89,1.36-.03,.04,.25,.32,.39,.5,.64-.52,.54-1.15,.5-1.86Zm-24.84-.56c.53-.24,.95-.43,1.35-.63,.08-.04,.13-.16,.22-.29-.26-.2-.5-.39-.84-.65-.08,.66-1,.73-.72,1.58ZM75.33,29.39c-.29-.37-.23-.94-.8-.81-.32,.07-.58,.8-.38,1.06,.12,.15,.36,.21,.49,.27,.24-.18,.43-.33,.69-.52Zm6.99-.4q.85-1.3,.02-1.81c-.17,.42-.34,.84-.52,1.27,.09,.06,.24,.13,.34,.23,.08,.07,.1,.2,.16,.31Zm-2.76-4.64c1.2-.31,1.29-.45,1.11-1.73-.66,.39-.8,1.08-1.11,1.73Zm-17.31,89.08c-.02-1.27-.17-1.53-.89-1.49,.57,.52-.04,.83-.28,1.22,.44,.1,.78,.18,1.18,.26Zm.92-56.15c.23-.65-.67-1.02-.41-1.68-.28-.19-.56-.38-.86-.58-.04,.7,.17,1.07,1.27,2.26Zm11.83-19.13c.28,.4,.48,.67,.68,.95,.46,.05,.89,.08,1.03-.61-.56,.02-.95-.57-1.71-.34Zm39.65,27.66c.03,.62,.06,1.2,.09,1.82h.55v-1.53c-.22-.1-.4-.18-.64-.29Zm-70.59,7.13c.34,.5,.62,.92,.98,1.46-.05-.71-.07-1.3-.14-1.89-.01-.11-.22-.19-.39-.32-.16,.28-.3,.5-.44,.75ZM95.82,18.89c.35-.26,.37-.46,.13-.74-.18-.22-.28-.52-.4-.75-.28,.26-.58,.54-.9,.84,.44,.24,.8,.44,1.18,.65ZM18.26,54.21c.3-.64,.43-1.23-.09-1.87-.24,.36-.48,.7-.67,.98,.26,.3,.48,.55,.76,.88Zm55.08,33.02c-.2-.34-.36-.57-.49-.83-.18-.36-.4-.3-.73-.06,.12,.4,.25,.82,.4,1.3,.31-.15,.54-.27,.82-.42Zm-22.26,3.96c-.36-.26-.64-.46-.94-.68-.2,.22-.4,.45-.6,.67q.61,.58,1.54,.01Zm19.94-45.51c-.34,.24-.44,.54-.21,.83,.12,.15,.42,.29,.6,.26,.41-.07,.57-.38,.43-.83-.24-.08-.5-.16-.82-.26Zm-29.24,26.87c.19,.66,.16,1.36,.72,1.98,.11-.54,.18-.93,.26-1.31-.35-.23-.66-.45-.98-.66Zm46.87-6.87q.36-.69-.57-1.14c-.17,.28-.36,.57-.55,.88,.37,.09,.7,.16,1.11,.26Zm-16.37-3.04c-.12,0-.23,0-.35,0,.26,.77-.62,.99-.77,1.74,.67-.2,1.19-.34,1.29-.97,.04-.24-.11-.5-.18-.76Zm-6.7-13.89c-.1,0-.21,0-.31,0-.18,.99-.06,2-.06,3.03,.12-.05,.24-.07,.24-.11,.05-.71-.17-1.43,.19-2.13,.1-.2-.03-.52-.06-.79Zm18.01,16.37c-.23-.33-.66-.46-.71-.06-.07,.48-.56,.52-.64,.96,.1,.19,.22,.42,.32,.62,.33-.49,.66-.97,1.03-1.52Zm-23.87,12.84c0,.26-.08,.53,.01,.61,.28,.26,.62,.44,.98,.69,.13-.29,.23-.52,.35-.8-.47-.17-.86-.32-1.35-.5Zm-11.28-30.55c-.12,.38-.04,.61,.41,.59,.6-.02,.82-.32,.84-1.1-.4,.17-.82,.34-1.24,.51Zm27.49,53.58c.55,.61,1.25-.05,1.79,.27,.08,.05,.29-.11,.44-.17-.57-.26-1.11-.37-1.66-.41-.16-.01-.33,.17-.57,.31ZM101.21,17.56c.3-.11,.65-.19,.64-.24-.06-.51,.05-1.1-.49-1.57-.3,.62-.15,1.15-.15,1.8Zm-23.72,79.89c-.19,.33-.39,.66-.56,.96,.23,.41,.49,.6,.93,.36,.05-.47,.2-.94-.37-1.32ZM97.78,26.11q-.18-1.29-1.2-.67c.31,.34,.48,.82,1.2,.67Zm-50.55,42.42c.25,.35,.45,.61,.68,.92,.25-.49,.44-.87,.66-1.3-.63-.3-.92,.27-1.34,.37Zm16.28-.55c-.55,.4-.89,.65-1.23,.9,.36,.33,.64,.59,.93,.85,.05-.27,.11-.53,.15-.8,.04-.24,.08-.48,.15-.95ZM43.05,30.62c-.22,.31-.64-.45-.62,.27h1.85v-.53c-.32,.04-.65-.07-.87,.24-.04-.26-.09-.51-.13-.77-.03,0-.07,0-.1,0-.04,.26-.08,.53-.12,.79Zm-8.14,22.45c-.46-.94-.54-.96-1.02-.31-.14,.19-.26,.4-.45,.72,.61-.17,1.03-.29,1.47-.41Zm13.65-19.95c-.5,.37-.5,.74-.29,1.16h1.1c-.31-.45-.56-.8-.81-1.16Zm-27.85,22.26c.37,.45,.7,.86,1.08,1.32,.35-.57,.1-.84-.24-1.23-.31-.35-.46-.28-.84-.09ZM105.07,9.55c.7,.12,.95-.28,1.2-.85h-1.24c.02,.32,.03,.58,.04,.85Zm7.42,54.17c-.23,.31-.39,.51-.54,.72-.16,.22-.68-.06-.66,.46,.28-.03,.55-.13,.77-.06,.3,.1,.55,.34,.9-.03-.11-.14-.24-.28-.32-.45-.07-.16-.09-.35-.15-.64ZM19.18,39.17c-.04,.08-.09,.17-.13,.25,.29,.21,.58,.42,.88,.63,.26-.26,.62-.4,.57-.88h-1.32Zm46.6,49.86c-.15,.45-.61,.77-.12,1.27,.32-.47,.62-.91,.92-1.36,.07,.05,.14,.1,.21,.15-.31-.02-.62-.04-1.01-.06Zm-11.27-21.01c.81-.5,.62-1,.41-1.66-.33,.45-.58,.78-.88,1.19,.17,.17,.3,.31,.47,.48Zm13.22,14.15c.36,.16,.63,.28,.96,.43,.12-.6,.12-1.11-.04-1.89-.19,.46-.26,.67-.38,.86-.12,.18-.29,.32-.55,.61Zm10.73-36.82c.69-.8,.79-1.19,.38-1.43-.22,.13-.48,.28-.76,.45,.14,.35,.25,.63,.38,.98Zm-10.49-25.68c-.55,.11-.89,.41-1.05,.85-.04,.12,.16,.34,.28,.57,.48-.49,.98-.67,.76-1.42Zm-43.77,15.35c.74,.06,.95-.53,1.33-.85,.03-.03-.01-.14-.03-.28-.25-.01-.51-.03-.72-.04-.21,.41-.38,.75-.58,1.17Zm16.25,27.92c.44,.28,.82,.6,1.18,.41-.14-.21-.28-.44-.44-.66-.15-.2-.32-.38-.61-.72-.06,.47-.09,.73-.12,.98ZM98.75,16.99q-.55,.74,.16,1.71c.75-.68-.22-1.08-.16-1.71Zm-3.07-10.55c-.72-1.06-1.58-.27-2.34-.26,.76-.02,1.49,.28,2.34,.26Zm-15.17,46.95c-.63-.04-.8,.43-.88,.83-.08,.38,.08,.78,.74,1.08-.54-.83-.2-1.34,.14-1.91Zm-42.22-19.3c.07-.04,.14-.09,.22-.13-.1-.42-.2-.85-.32-1.37-.22,.1-.52,.14-.56,.26-.2,.65,.39,.85,.66,1.23Zm24.19,16.29c.1-.77,.17-1.41,.27-2.2-.85,1.13-.88,1.38-.27,2.2Zm7.47-17.87c-.4,.24-.76,.46-1.22,.74,.54,.14,.96,.25,1.61,.41-.18-.54-.3-.88-.39-1.15Zm-.95,50.57c.05,.47,.09,.8,.13,1.15q.78-.2,.77-.88c-.25-.08-.51-.15-.89-.27Zm-4.4-21.83c-.28,.52-.54,.98-.79,1.45,.59-.2,1.05-.59,1.34-1.16-.17-.09-.33-.18-.55-.29Zm-11.51-25.9c-.64-.11-1.09-.2-1.3,.33-.11,.3-.1,.64-.15,1h.6c-.09-.58,.02-1.09,.85-1.32Zm-21.4-1.6c.47,.23,.96,.17,1.34-.08,.43-.28,.22-.78,.14-1.24-.1,.93-.81,1.06-1.48,1.32Zm15.07,37.68c-.21-.17-.39-.3-.61-.47-.26,.32-.47,.57-.69,.85,.21,.18,.35,.31,.31,.27,.33-.21,.6-.4,.99-.65ZM88.76,25.43c.11-.52,.11-.83,.25-1.07,.17-.31,.03-.45-.19-.54-.35-.14-.52,.14-.58,.4-.1,.42,.23,.67,.52,1.21Zm-3.48,34.14c-.51,.13-.81,.21-1.15,.3,.02,.38,.04,.72,.07,1.09,.85-.11,.58-.87,1.08-1.39Zm-57.62-12.6c.05-.35,.1-.7,.16-1.17,.12,.33,.2,.54,.3,.83,.21-.14,.36-.25,.54-.37-.21-.3-.4-.57-.59-.83-.89,.28-.55,.95-.42,1.54Zm16.98,46.43c-.2-.47-.34-.82-.5-1.18-.08,.31-.06,.7-.24,.88-.41,.39-.16,.62,.03,.91,.3-.26,.56-.49,.71-.61Zm30.48-19.54c.23-.35,.45-.66,.15-1.13-.25-.38-.51,.16-.68-.12-.35,.66,.37,.83,.53,1.25Zm-4.54-13.47c.41,.03,.7,.04,.98,.06,.09-.35,.16-.63,.22-.86-.21-.1-.34-.17-.49-.25-.21,.3-.42,.61-.71,1.05Zm11.87,1.99c.07-.03,.14-.05,.21-.08-.1-.35-.16-.7-.3-1.03-.15-.36-.4-.32-.79,.09,.29,.34,.58,.68,.88,1.02Zm-.19-15.4c.06,.06,.12,.13,.18,.19,.38-.07,.75-.15,1.14-.23-.18-.37-.27-.72-.77-.65-.5,.07-.38,.46-.56,.68Zm-19.01,19.66c-.3-.05-.58-.1-.86-.15-.14,.3-.24,.53-.36,.79,.81,.1,.98,.01,1.22-.64Zm3.82,14.83c-.29-.45-.56-.86-.93-1.42,.03,.7-.23,1.26,.31,1.71,.17-.08,.34-.16,.62-.29Zm20.07-41.83c-.26,.19-.52,.38-.79,.57,.17,.27,.33,.53,.51,.82,.47-.44,.73-.84,.28-1.4Zm-16.72-14.41s.1,.09,.15,.14c.21-.19,.4-.44,.65-.55,.2-.08,.47,.07,.46-.34,0-.25,.31-.56-.24-.66-.16,.24-.32,.5-.5,.75-.16,.23-.35,.45-.52,.67Zm-48.02,15.66q-.99-.48-1.03,.79c.68,.18,.62-.61,1.03-.79Zm29.55,5.37c-.46-.8-.46-.79-1.06-.44-.24,.14-.49,.25-.88,.44h1.93Zm55.83-21.31c.15-.06,.26-.07,.27-.11,.12-.56,.1-1.16,.48-1.66,.03-.03-.17-.24-.31-.42-.48,.74-.37,1.46-.44,2.19ZM56.99,106.79q.61-1.53-.21-1.88c.06,.58,.12,1.11,.21,1.88Zm24.49-11.07c.54,.03,.94,0,1.31,.1,.26,.07,.47,.13,.54-.14,.05-.17-.08-.39-.13-.59-.33,.95-1.23-.04-1.72,.62ZM117.8,4.05c.88-.82,.88-.96,0-1.38v1.38Zm-25.8,39.64c-.16,0-.49,.02-.85,.04v.89c.25-.28,.58-.63,.85-.93Zm-2.74-13.87c-.33,.53-.76,1.07-.45,1.84,.65-.47,.14-1.28,.45-1.84Zm-8.95,.93c-.4,.15-.68,.25-.98,.36,.16,.39,.3,.72,.53,1.29,.19-.68,.3-1.1,.45-1.66Zm-.13,13.96q.13-1.02-.76-1.41c-.11,.4-.15,.76,.24,1.02,.08-.13,.16-.26,.3-.47,.1,.38,.14,.56,.22,.87Zm-4.14,79.91c-.63-.12-.89,.04-1.01,.46,.23,.19,.45,.38,.69,.59,.1-.33,.2-.65,.32-1.04ZM97.04,8.89c.35,.38,.32,.92,.9,.92,.2-.43,.24-.84-.25-1.11-.11-.06-.33,.09-.66,.19ZM41.76,52.87c.55-.26,.73-.51,.51-1-.26,.01-.55,.03-.98,.05,.19,.38,.31,.64,.47,.95Zm22.35,26.83c.13-.44,.23-.78,.35-1.18-.26-.01-.41-.02-.6-.03-.12,.36-.23,.71-.35,1.12,.21,.03,.36,.06,.61,.09Zm32.99-3.63c.02,.47,.04,.8,.06,1.22,.35-.05,.62-.08,1.08-.15-.43-.41-.72-.68-1.13-1.07Zm-27.37-12.34c.03-.44-.04-.8-.5-.81-.14,0-.43,.33-.4,.46,.09,.4,.39,.55,.9,.35Zm24.27,13.67c.5,.17,.89,.21,1.13-.25-.29-.45-.67-.43-1.03-.23-.09,.05-.07,.32-.09,.49ZM24.87,46.1c-.39,.15-.64,.24-.88,.33,.76-.29,.56,1.05,1.36,.72-.16-.35-.31-.67-.48-1.06ZM63.02,124.05c.19-.39,.75-.65,.31-1.16-.22,.02-.47,.04-.74,.06,.16,.41,.3,.75,.43,1.1ZM20.36,53.16c.11,.19,.22,.39,.37,.64,.26-.16,.51-.32,.75-.48,.02-.01,0-.07,0-.12-.36-.21-.72-.71-1.12-.05Zm39.27-20.92c-.42,.21-.8,.4-1.34,.67,.57,.26,.94,.29,1.34,.09v-.76Zm24.46,60.11v-1.44c-.35,.11-.61,.19-.85,.26,.31,.43,.57,.79,.85,1.18Zm2.3-25.41c.29-.02,.57-.04,.94-.07-.22-.45-.38-.79-.64-1.34-.13,.62-.21,.98-.3,1.41Zm-31.96,44.56c-.46,.48-.65,.9-.44,1.49,.58-.36,.83-.76,.44-1.49Zm4.17-59.86c-.17,.42-.29,.64-.35,.88-.02,.07,.09,.18,.16,.31,.28-.16,.53-.3,.86-.48-.2-.22-.35-.37-.67-.71Zm-1.21,56.46c.28,.46,.47,.77,.69,1.11,.53-.5,.04-.82,.02-1.24-.24,.04-.39,.07-.7,.12Zm13.22-13.12c-.24-.18-.38-.38-.55-.4-.33-.04-.32,.25-.32,.49,0,.27,.08,.51,.39,.42,.16-.05,.27-.27,.48-.51Zm34.69-36.9c-.12-.15-.23-.29-.34-.42-.33,.12-.62,.23-.99,.37,.49,.49,.87,.54,1.33,.06Zm-45.98,55.47c.16,.32,.2,.6,.34,.65,.41,.15,.61-.21,.83-.47,.03-.03,0-.11-.01-.18h-1.16Zm22.32-55.48c.52-.53,.35-.85-.68-1.12,.26,.43,.47,.77,.68,1.12Zm-15.67-21.55q-.63-.42-1.43-.16c.27,.18,.54,.36,.79,.53,.21-.12,.37-.21,.64-.37Zm-17.31,51.92c.2,.1,.39,.2,.61,.31,.18-.19,.35-.37,.54-.57q-.7-.43-1.14,.26Zm45.79-52c-.11-.44,.55-1.12-.32-1.42-.4,.6,.24,.96,.32,1.42Zm-11.56,1.05c.26,.15,.46,.26,.65,.37,.2-.13,.41-.26,.62-.39-.02-.09-.04-.18-.06-.27-.38,.22-.77-.56-1.22,.29Zm-17.29,36.24c.02-.45,.04-.81,.06-1.26-.45,.3-.84,.53-.67,1.05,.03,.1,.32,.12,.61,.22Zm9.82,25.03c.05-.17,.17-.39,.18-.61,0-.14-.14-.41-.22-.41-.28-.02-.56,.06-.9,.11,.38,.36,.67,.64,.95,.91ZM91.77,24.77v-1.21c-.87,.49-.87,.61,0,1.21Zm-.68,8.75c-.36-.35-.49-.92-1.14-.74,.1,.67,.16,.72,1.14,.74Zm-25.21,64.08c-.5-.48-.93-.41-1.37,0,.42,.46,.85,.45,1.37,0ZM18.44,44.87c-.06,.01-.13,.02-.19,.03,0,.32-.02,.64,0,.96,0,.12,.1,.34,.16,.34,.17,0,.35-.06,.5-.14,.03-.02,0-.23-.05-.33-.13-.29-.28-.57-.42-.86Zm32.22-14.54s-.09-.08-.14-.12c-.23,.44-.47,.87-.74,1.39h.7c.07-.47,.13-.87,.18-1.28Zm49.13,32.19c.41,.36,.76,.66,1.15,.99,.03-.57-.21-.97-.56-1.3-.21,.11-.38,.2-.58,.31Zm-39.15,43.72c-.09-.07-.17-.15-.26-.22-.23,.24-.51,.46-.68,.74-.07,.11,.1,.36,.2,.67,.31-.5,.52-.85,.74-1.19ZM23.23,53.87c-.21-.13-.42-.3-.44-.27-.18,.18-.61,.12-.54,.5,.02,.14,.29,.37,.31,.36,.22-.16,.42-.35,.67-.58Zm47.43,74.23c-.62-.49-.18-1.27-.62-1.86v1.86h.62Zm.74-10.98c.06,.43,.09,.68,.13,.96,.39-.13,.71-.24,1.09-.36-.4-.19-.74-.36-1.22-.6ZM81.86,12.24c-.3-.59-.51-.99-.75-1.46q-.12,1.14,.75,1.46ZM27.6,60.26c-.48,.45-.45,.8,.03,1.14,.49-.39,.48-.74-.03-1.14Zm38.33,.32c0,.08,0,.16,0,.24,.36,.03,.73,.12,1.07,.06,.2-.04,.36-.33,.63-.59-.67,.12-1.18,.21-1.69,.3Zm18.67-35.38c.02-.61-.13-1.04-.54-1.51,0,.42,.05,.72-.01,.98-.09,.38,.09,.47,.55,.53Zm-25.04,65.23c-.08-.37-.15-.71-.24-1.12-.25,.4-.44,.71-.69,1.12h.93ZM108.2,2.21q1.1,.24,1.54-.3c-.49,.07-.94-.12-1.54,.3Zm-40.16,76.07c.08,.27,.12,.62,.21,.63,.26,.04,.64,.24,.76-.23,.03-.1-.02-.22-.03-.31-.3-.03-.56-.05-.94-.09Zm-23.76,1.75c-.28-.14-.52-.25-.79-.39-.15,.22-.28,.4-.42,.61,.47,.21,.84,.25,1.21-.22Zm6.56,.07c-.92,.5-.96,.71-.41,1.25,.12-.36,.23-.7,.41-1.25ZM22.95,45.88c-.7-.36-1.07-.39-1.42,.1,.48,.47,.79,.03,1.42-.1Zm58.38-17.21v1.5c.3-.5,.46-.77,.63-1.07-.2-.14-.32-.22-.63-.43Zm-40.43,55.62c.95-.22,.7-.94,1.01-1.33-.07-.04-.14-.08-.22-.12-.24,.43-.48,.87-.8,1.45Zm48.75-38.26c.02,.08,.04,.16,.05,.23h.92c-.05-.26-.09-.45-.15-.72-.34,.2-.58,.35-.83,.49Zm-25.63,40.99c.27,.33,.53,.49,.83,.23,.08-.07,.06-.43-.03-.5-.32-.23-.58-.05-.8,.27Zm-13.04-13.69c.29,.24,.6,.5,.92,.76-.08,.08-.16,.16-.25,.25-.03-.99-.11-1.09-.67-1Zm44.62-8.71c.2-.17,.38-.33,.56-.48-.15-.28-.26-.48-.38-.71-.16,.37-.57,.67-.18,1.2Zm-21.14,42.67c.18-.18,.37-.36,.55-.54-.25-.32-.44-.57-.78-.23-.27,.27-.17,.47,.23,.77Zm-4.17-67.09q-.6,.52-.1,1.29c.04-.47,.07-.88,.1-1.29Zm25.75,19.62c-.5,.31-.41,.7-.29,1.1q.64-.57,.29-1.1Zm-71.61-2.08c.23,.33,.5,.49,.81,.25,.09-.07,.09-.43,0-.5-.3-.25-.57-.09-.81,.24Zm20.78-14.02c.07-.01,.15-.03,.22-.04,.01-.3,.03-.59,.05-.95-.3,.04-.48,.06-.76,.09,.2,.35,.35,.62,.49,.89Zm-25.51,4.35c-.33,.24-.49,.5-.25,.81,.07,.09,.43,.08,.5,0,.24-.31,.08-.57-.25-.81Zm16.02,11.61q.17-.86-.26-1.23c-.01,.38-.15,.75,.26,1.23Zm39.28,67.72c0-.1-.02-.21-.02-.31-.4-.16-.79-.25-1.15,.38,.46-.03,.82-.05,1.17-.07ZM95.88,14.63c-.13-.73-.24-.85-.72-.8-.06,0-.11,.16-.2,.28,.3,.17,.56,.32,.91,.51Zm5.81,4.03c-.08-.07-.16-.15-.24-.22-.25,.2-.49,.41-.76,.63,.16,.14,.27,.24,.42,.37,.21-.28,.4-.53,.58-.79Zm-58.76,9.37c.49,.38,.88,.31,1.35,.21q-.52-.38-1.35-.21Zm14.73,19.62c-.21-.12-.48-.21-.64-.38-.35-.39-.3,.08-.44,.17,.28,.24,.54,.48,.81,.72,.09-.17,.18-.35,.26-.51Zm-24.38-19.09c0,.48-.17,.88,.33,1.35,.11-.55,.28-.93-.33-1.35Zm68.72,52.53c.31-.23,.54-.5,.23-.84-.08-.09-.37,.01-.64,.03,.17,.34,.28,.57,.41,.81Zm-61.24-2.28c.16,.22,.32,.44,.51,.69,.2-.25,.31-.4,.47-.6-.3-.15-.51-.26-.72-.37-.12,.14-.2,.22-.25,.28Zm52.1-4.3c.06,.35,.05,.75,.54,.85,.19-.55,.02-.82-.54-.85Zm-44.25-3.37q.76-.28,.42-.87c-.16,.32-.29,.6-.42,.87Zm60.35-5.15q.34-.49-.07-1.08c-.59,.41,.01,.68,.07,1.08ZM43.07,39.57c-.31,.07-.5,.11-.84,.19,.33,.32,.54,.52,.84,.82v-1.01Zm-25.53,1.36c-.29-.34-.49-.58-.85-1,.04,.52,.06,.8,.08,1.13,.26-.04,.44-.07,.77-.13Zm.8,8.47q-.48,.67-.15,1.26c.31-.35,.17-.72,.15-1.26Zm53.04-6.74c.1-.53-.06-.8-.56-.88-.3,.65,.14,.72,.56,.88Zm-41.97,1.46c.05,.34,.08,.55,.11,.77,.39-.13,.71-.24,1.09-.37-.36-.12-.68-.23-1.2-.4Zm18.34,7.1c.35,.04,.66,.81,1.14,.02-.4-.02-.69-.41-1.14-.02Zm5.21,.27c-.08-.41-.06-.72-.18-.78-.31-.17-.58,0-.76,.31,.23,.12,.46,.23,.94,.47Zm15.86,8q.54-.58,0-1.07v1.07Zm.98-27.77c.06-.08,.12-.16,.18-.24-.13-.44-.41-.61-1.01-.4,.34,.26,.59,.44,.83,.63Zm-10.7,80.95c.24-.25,.42-.43,.66-.69q-.79-.09-.66,.69ZM15.82,42.52c.63,.2,.95,.33,1.29,.4,.09,.02,.22-.11,.44-.23-.58-.33-1.03-.2-1.73-.18Zm77.35-.2q-.43,.37-.51,.82,.51-.22,.51-.82Zm-16.89,48.48c.23,.56,.74,.36,1.13,.46-.31-.23-.53-.65-1.13-.46Zm17.8-63.7c.1,0,.2,0,.3-.01,.06-.31,.22-.63-.3-1.05v1.06Zm-10.86,27.88c.02,.27,.03,.47,.05,.73,.32-.03,.56-.06,1.01-.1-.46-.27-.72-.42-1.06-.62Zm-5.15-21.73c.71,.22,1.22,.15,1.85-.41-.71,.16-1.21,.27-1.85,.41Zm-29.71,28.87c-.1-.13-.26-.33-.43-.54-.15,.11-.39,.26-.13,.6,.28,.36,.46-.07,.56-.07Zm32.1,5.77c.47-.62,.3-.87-.03-1.11-.59,.39,0,.61,.03,1.11Zm29.48,5.03q.06-.9-.66-.73c.19,.21,.35,.39,.66,.73ZM82.26,13.01c.31,.09,.69,.4,.94-.13-.37-.2-.67-.25-.94,.13ZM15.97,35.46c.24,.12,.42,.21,.65,.33v-1.12c-.28,.34-.42,.51-.65,.79Zm75.33,37.89c-.34-.45-.65-.47-1.08,0h1.08Zm-7.46-5.58c-.49-.54-.65-.05-.96,.23,.48,.26,.76,.17,.96-.23Zm-5.11-6.39c.05-.06,.11-.12,.16-.17-.21-.23-.42-.46-.66-.72-.14,.17-.23,.27-.35,.42,.34,.19,.59,.33,.85,.48Zm-35.32-18.99c.34,.18,.62,.11,.72-.09-.2-.27-.35-.47-.48-.66-.07,.22-.15,.47-.24,.75Zm7.41,59.78c.43,.1,.83,.19,1.11-.34-.43-.11-.83-.2-1.11,.34Zm24.56-54.59c-.47,.27-.46,.55-.02,.85,.46-.27,.48-.55,.02-.85Zm-6.02,69.77c-.13,.32-.24,.58-.4,.99,.35-.06,.55-.09,.83-.13-.16-.32-.28-.56-.43-.86ZM25.63,47.16c0,.1-.01,.2-.02,.3,.29,.01,.57,.03,.92,.04-.28-.48-.56-.57-.9-.34Zm39.98,12.72c-.28,0-.42-.5-.75-.14-.05,.05-.05,.22,0,.27,.29,.37,.53,.2,.76-.14Zm.15,33.38c-.34,.33-.57,.58-.54,1.11,.32-.34,.75-.48,.54-1.11ZM116.87,7.3c-.32-.16-.5-.25-.83-.41,.06,.37,.09,.57,.13,.89,.25-.17,.39-.27,.69-.48Zm-7.98,71.44c-.22,.42-.33,.63-.45,.86q.66,0,.45-.86Zm-34.29,43.62h1.05c-.34-.19-.68-.8-1.05,0Zm7.08-112.26c.27-.15,.54-.3,.93-.52-.66-.34-.79,.14-.93,.52Zm-18.56,63.86c-.14-.36-.16-.62-.3-.71-.09-.07-.34,.08-.7,.19,.4,.21,.6,.31,1,.52ZM87.38,13.01c-.08-.01-.17-.03-.25-.04-.08,.3-.17,.59-.26,.93,.81-.05,.37-.59,.51-.88Zm1.39,53.97c-.02,.28-.03,.57-.05,.93,.46-.29,.6-.56,.05-.93Zm-16.98,7.92c-.39,.04-.61,.06-.98,.1,.22,.27,.34,.41,.5,.6,.14-.21,.26-.38,.48-.7Zm-33.16-20.64c-.33-.32-.57-.38-.77-.04-.06,.1,.01,.28,.03,.46,.26-.15,.47-.27,.74-.43Zm74.32,21q-.31-.41-1.06,.27c.44-.11,.74-.19,1.06-.27ZM37.41,29.62c-.3-.13-.52-.32-.67-.27-.21,.07-.5,.26-.26,.56,.29-.09,.54-.17,.93-.29Zm41.42,78.45c-.28-.02-.57-.03-.93-.05,.29,.46,.56,.6,.93,.05Zm-17.32-61.55v-1c-.28,.18-.46,.29-.67,.43,.18,.15,.32,.27,.67,.57Zm8.07,31.04q.67,.15,1.05-.26c-.24,0-.43-.02-.62,0-.09,.01-.18,.1-.43,.26Zm-8.36,37.82c.01-.4-.15-.89-.32-1.02-.06,.4-.15,.79,.32,1.02Zm33.14-42.64c.03-.06,.07-.12,.1-.18-.18-.19-.37-.38-.58-.6-.17,.21-.26,.32-.44,.54,.38,.1,.65,.16,.92,.23Zm-50-14.07c.28-.19,.45-.31,.69-.47-.24-.15-.42-.25-.69-.42v.89Zm37.39-15.44q.52-.59,.05-1.01c-.02,.35-.03,.64-.05,1.01Zm-46.49-2.14c-.14-.36-.16-.62-.3-.71-.09-.07-.34,.08-.7,.19,.4,.21,.6,.31,1,.52Zm26.12,21.83c.07-.08,.13-.15,.2-.23-.14-.28-.22-.65-.83-.33,.25,.22,.44,.39,.63,.56Zm-13.22-23.5q.86,.18,.85-.47c-.23,.13-.43,.24-.85,.47Zm17.88-9.52c.57-.2,.91-.32,1.38-.48-.54-.15-.93-.24-1.38,.48Zm25.57-17.81c0,.13,.01,.26,.02,.39,.37-.03,.71-.26,1.07-.39h-1.09ZM41.87,81.87c-.09-.2-.16-.29-.16-.39,0-.11,.07-.21,.11-.31-.06-.03-.12-.07-.18-.1-.16,.2-.31,.39-.55,.69,.32,.05,.46,.07,.79,.11Zm16.86-28.72c.04,.39,.06,.61,.1,.98,.27-.22,.41-.34,.6-.5-.21-.14-.38-.26-.7-.48Zm1.02,40.24c-.16-.1-.27-.17-.38-.24-.06,.12-.18,.26-.17,.37,.01,.1,.17,.19,.26,.28,.08-.11,.16-.23,.29-.41Zm-24.84-35.94c.08,.03,.15,.06,.23,.08,.09-.16,.21-.3,.26-.47,.03-.1-.04-.24-.06-.36-.06,0-.12-.01-.18-.02-.08,.25-.17,.51-.25,.76Zm3.7-.23c-.13-.17-.2-.33-.26-.32-.17,.02-.33,.1-.5,.16,.05,.09,.1,.25,.16,.26,.17,0,.34-.05,.59-.09Zm-8.4-25.68c-.13-.17-.2-.33-.26-.32-.17,.02-.33,.1-.5,.16,.05,.09,.1,.25,.16,.26,.17,0,.34-.05,.59-.09Zm61.54,39.15c-.17,.14-.27,.23-.37,.31,.1,.09,.2,.24,.3,.24,.11,0,.24-.12,.35-.19-.08-.1-.16-.21-.28-.36Zm13.54-57.68c-.13-.23-.25-.45-.47-.85,.02,.5-.21,.89,.47,.85Zm-28.09,26.19c.39,.52,.57,.08,.84-.08-.28,.03-.56,.06-.84,.08Zm-7.44,73.87q.47,.46,.86-.04c-.3,.02-.56,.03-.86,.04ZM92.78,25.92c.38-.02,.64-.03,.96-.04-.3-.46-.56-.61-.96,.04Zm11.35-2.76q.61-.25,.35-.64c-.13,.23-.24,.44-.35,.64Zm-34.03,56.56c-.21,.14-.42,.29-.76,.52,.59,.2,.76-.02,.76-.52Zm-6.75,11.73c-.03,.53-.05,.82-.07,1.1,.1-.29,.68-.46,.07-1.1Zm37.6-22.17c-.33,.27-.59,.4-.27,.63,.1,.07,.26,.06,.39,.08-.03-.19-.06-.38-.12-.71Zm-6.38-30.3c-.4-.58-.65-.69-1.17-.38,.4,.13,.66,.21,1.17,.38Zm-61.19,3.25c-.14,.19-.27,.35-.43,.57h.94c-.23-.26-.35-.4-.51-.57Zm39.88,73.06c.13-.16,.21-.26,.29-.36-.12-.07-.24-.2-.35-.19-.11,0-.21,.15-.31,.24,.1,.09,.2,.18,.37,.32Zm-5.94-64.5c.22,.12,.39,.21,.55,.3,.07-.19,.13-.38,.24-.7-.34,.17-.53,.27-.79,.4Zm11.01,2.56c-.37-.1-.65-.14-.65,.28,0,.11,.14,.23,.21,.34,.07-.15,.14-.31,.22-.45,.04-.06,.12-.1,.22-.17Zm-63.58-5.53h-.84c.29,.06,.48,.62,.84,0Zm46.87,29.78c.19-.13,.3-.2,.42-.28-.09-.09-.18-.25-.28-.26-.12-.01-.25,.1-.38,.16,.07,.11,.14,.22,.24,.38ZM94.08,8.34c.28-.16,.56-.31,.83-.47-.46-.17-.7,.06-.83,.47Zm-31,95.96c.09,.05,.12,.08,.16,.08,.24,.01,.51,.04,.49-.31,0-.12-.11-.34-.19-.35-.44-.07,.07,.38-.22,.43-.08,.01-.15,.09-.24,.15Zm-6.97-30.56q.32,.31,.89-.07c-.37,.03-.63,.05-.89,.07ZM11.81,41.82c-.37,.19-.49,.46-.29,.84,.37-.19,.49-.46,.29-.84Zm55.88,17.94c0,.08,0,.16,.01,.24,.31,0,.63,0,.94,0,.11,0,.21-.06,.47-.14-.3-.04-.46-.08-.61-.09-.27-.01-.54,0-.82,0Zm-20.67,44.16q-.73-.42-1.1-.09c.38,.03,.66,.05,1.1,.09ZM76.13,26.46c-.37,.19-.49,.46-.29,.84,.37-.19,.49-.46,.29-.84Zm38.22,39.18c-.1-.05-.16-.1-.23-.12-.19-.08-.39-.32-.56,.01-.03,.07,0,.2,.04,.27,.16,.25,.31,.07,.46-.02,.08-.05,.17-.08,.28-.14Zm-24.45-26.79q-.35-.74-.71-.34c.22,.11,.43,.21,.71,.34Zm-39.35,29.91l-.27-.04c-.04,.27-.08,.54-.1,.8,0,0,.13,.03,.29,.07,.03-.28,.06-.56,.08-.83Zm-17.24-18.46c.14,.06,.21,.08,.27,.12,.15,.08,.3,.28,.47,.03,.05-.07,.09-.2,.06-.27-.16-.32-.36-.13-.55-.03-.07,.04-.14,.08-.25,.14Zm38.43-9.92v1.05c.1-.28,.62-.5,0-1.05Zm4.48,59.1c-.15-.13-.24-.21-.32-.29-.12,.17-.24,.33-.36,.5,.1,.05,.23,.15,.28,.12,.14-.07,.26-.21,.4-.34Zm-14.08-20.51c.02,.09,.05,.17,.07,.26,.18-.07,.37-.13,.55-.21,0,0-.05-.19-.06-.19-.19,.04-.37,.09-.56,.14Zm8.16-44.51q-.03,.94,.32,.95c-.08-.24-.17-.49-.32-.95Zm15.94,26.76c-.02-.09-.05-.17-.07-.26-.18,.07-.37,.14-.55,.22,0,0,.06,.19,.07,.18,.19-.04,.37-.09,.55-.14Zm-44.33-22.61c.25-.24,.43-.42,.69-.67-.45,.05-.64,.21-.69,.67Zm15.87,6.84c.02,.05,.03,.1,.05,.15,.2-.05,.4-.09,.61-.14-.04-.1-.08-.2-.11-.3-.18,.1-.36,.19-.54,.29Zm1.86,21.55c.07-.34,.13-.66-.5-.79,.23,.37,.37,.58,.5,.79Zm4.27,17.76c-.05,.02-.1,.03-.15,.05,.05,.2,.09,.4,.14,.61,.1-.04,.2-.08,.3-.11-.1-.18-.19-.36-.29-.54Zm-9.54,16.85s-.1-.04-.15-.05l-.28,.55c.1,.04,.2,.07,.3,.11,.04-.2,.09-.4,.13-.61ZM25.91,44.87q.43,.37,1.06,.27c-.52-.13-.79-.2-1.06-.27ZM96.74,6.98c-.21-.35-.32-.53-.47-.79-.15,.15-.26,.26-.4,.4,.28,.12,.47,.21,.87,.39Zm-30.3,54.95c.03,.08,.05,.17,.08,.25,.18-.08,.37-.15,.55-.23,0,0-.06-.19-.07-.19-.19,.05-.38,.11-.56,.17Zm5.45-.16s-.1-.04-.15-.06c-.1,.18-.2,.36-.29,.54,.1,.04,.2,.08,.3,.12,.05-.2,.09-.4,.14-.6Zm7.35,6.85c-.03,.08-.06,.17-.08,.25,.19,.05,.38,.11,.57,.15,0,0,.07-.18,.06-.19-.18-.08-.36-.15-.55-.21Zm-34.97-31.74c-.02-.05-.03-.1-.05-.15-.2,.05-.4,.09-.61,.14,.04,.1,.08,.2,.11,.3,.18-.1,.36-.19,.54-.29Zm-20.2,13.79s-.1,.03-.15,.05c.04,.2,.08,.4,.12,.61,.1-.04,.2-.07,.3-.11-.09-.18-.18-.37-.28-.55Zm88.34,26.26l-.24-.16c-.12,.21-.25,.43-.37,.64l.19,.12c.14-.2,.28-.4,.42-.61Zm-46.92-32.77c.02,.09,.05,.17,.07,.26,.18-.07,.37-.13,.55-.21,0,0-.05-.19-.06-.19-.19,.04-.37,.09-.56,.14Zm7.6,18.59c.08,.03,.17,.06,.25,.08,.05-.19,.11-.38,.15-.57,0,0-.18-.07-.19-.06-.08,.18-.15,.36-.21,.55Zm-12,7.37c.31-.14,.51-.24,.77-.36-.18-.16-.29-.25-.41-.35-.11,.21-.2,.38-.36,.71Zm49.3-7.94s-.04,.1-.05,.15c.18,.09,.37,.19,.55,.28,.04-.1,.07-.2,.11-.3l-.61-.13Zm-37.35,16.9c-.19,.29-.35,.41-.33,.51,.02,.1,.2,.18,.31,.27,.09-.11,.24-.22,.25-.33,0-.12-.12-.26-.23-.45Zm-23.45-43.56c-.02-.37-.03-.63-.05-1.04-.16,.41-.65,.65,.05,1.04Zm22.46,78.95c-.02,.09-.05,.17-.07,.26,.19,.05,.37,.1,.56,.14,0,0,.07-.18,.06-.19-.18-.08-.36-.15-.55-.21Zm7.04-3.11c.32,.02,.77,.17,.63-.44-.23,.16-.43,.3-.63,.44Zm-25.03-34.55q-.43-.37-1.06-.27c.52,.13,.79,.2,1.06,.27Zm-7.39-13.43c-.51,.3-.42,.47,0,.64v-.64Zm11.53-28.39q-.34-.38-.6,.04c.21-.01,.39-.03,.6-.04Zm15.4,39.71c-.34-.19-.44-.29-.51-.27-.08,.02-.12,.15-.18,.23,.08,.06,.16,.16,.25,.17,.1,.01,.21-.06,.45-.14Zm25.98-49.08c.06-.02,.12-.04,.18-.06-.05-.17-.1-.35-.15-.52-.06,.04-.18,.1-.17,.13,.03,.15,.09,.3,.14,.45ZM49.06,92.82c-.03-.05-.06-.1-.09-.15-.1,.02-.22,.01-.3,.07-.1,.06-.17,.17-.25,.26,.04,.05,.08,.09,.12,.14,.17-.1,.34-.21,.51-.31Zm5.09-58.12q.51,.05,.64-.32c-.23,.11-.42,.2-.64,.32Zm21.69,12.24c.52-.02,.59-.22,.62-.73-.27,.31-.39,.46-.62,.73Zm11.83,4.2c.19-.34,.29-.44,.27-.51-.02-.08-.15-.12-.23-.19-.06,.08-.16,.16-.17,.25-.01,.1,.06,.21,.14,.45Zm-35.89,.27c-.1-.11-.17-.23-.24-.24-.08,0-.17,.1-.25,.16,.06,.08,.11,.22,.18,.24,.07,.02,.17-.08,.31-.16ZM15.67,38.72s-.07,0-.1,0v.8s.07,0,.1,0v-.8Zm52.5-16.58l-.12,.24c.21,.06,.41,.13,.62,.19,.01-.04,.03-.08,.04-.11-.18-.1-.36-.21-.54-.31ZM114.92,4.41c.03,.05,.07,.1,.1,.16,.17-.11,.33-.23,.5-.34-.03-.05-.07-.1-.1-.16-.17,.11-.33,.23-.5,.34Zm-18.1,70.5q-.39,.34,.04,.61c-.01-.21-.02-.39-.04-.61Zm-31.28,48.44c.11-.12,.21-.23,.38-.41h-.75c.16,.18,.26,.29,.37,.41ZM35.19,26.28s-.1-.04-.15-.06c-.09,.19-.18,.39-.28,.58,.08,.03,.15,.05,.23,.08,.07-.2,.13-.4,.2-.61Zm73.23,51.52c-.1-.11-.17-.23-.24-.24-.08,0-.17,.1-.25,.16,.06,.08,.11,.22,.18,.24,.07,.02,.17-.08,.31-.16ZM21.06,40.85c-.11-.11-.17-.24-.24-.25-.08,0-.17,.1-.25,.16,.06,.08,.11,.21,.18,.24,.07,.02,.17-.08,.31-.15Zm-3.45,6.25h-.63c.25,.48,.44,.4,.63,0Zm26.01-1.55c-.14-.07-.24-.17-.31-.15-.07,.02-.18,.16-.17,.23,.01,.07,.15,.18,.23,.17,.07,0,.14-.13,.25-.24ZM85.86,9.64c-.1-.11-.17-.23-.24-.24-.08,0-.17,.1-.25,.16,.06,.08,.11,.22,.18,.24,.07,.02,.17-.08,.31-.16ZM34.42,27.39q-.38,.34,.04,.6c-.01-.21-.03-.39-.04-.6Zm40.56,44.33c.1,.11,.17,.23,.24,.24,.08,0,.17-.1,.25-.16-.06-.08-.11-.22-.18-.24-.07-.02-.17,.08-.31,.16Zm29.96-10.53c-.03,.05-.07,.11-.1,.16,.17,.11,.33,.22,.5,.34,.03-.05,.07-.1,.1-.16-.17-.11-.33-.23-.5-.34Zm-17.88-44.66q.39-.34-.04-.61c.01,.21,.02,.39,.04,.61Zm-45.57,26.83s.07,0,.1,0v-.8s-.07,0-.1,0v.8Zm33.38-2.51c-.45-.01-.84-.24-.71,.36,.18-.09,.34-.18,.71-.36Zm-6.02,70.56v.64c.45-.26,.41-.46,0-.64ZM87.75,31.03c-.34-.19-.44-.29-.51-.27-.08,.02-.12,.15-.18,.23,.08,.06,.16,.16,.25,.17,.1,.01,.21-.06,.45-.14Zm-1.26,6.59c-.01-.6-.33-.39-.7-.33,.29,.13,.47,.22,.7,.33Zm-11.74,19.06h-.66c.21,.36,.36,.55,.66,0Zm-12.32,42.62c.04-.08,.08-.16,.12-.24-.21-.06-.41-.13-.62-.19-.01,.04-.03,.08-.04,.11,.18,.1,.36,.21,.54,.31Zm8.32,12.06c.38-.06,.52-.05,.64-.1,.1-.05,.15-.17,.23-.25-.05-.05-.09-.09-.14-.14-.17,.12-.34,.23-.73,.5Zm17.03-41.23c-.11-.11-.17-.24-.24-.25-.08,0-.17,.1-.25,.16,.06,.08,.11,.21,.18,.24,.07,.02,.17-.08,.31-.15Zm24.37-2.37s-.07,0-.1,0v.8s.07,0,.1,0v-.8ZM40.41,28.26c-.02-.06-.04-.12-.06-.18-.17,.05-.35,.1-.52,.15,.04,.06,.1,.18,.13,.17,.15-.03,.3-.09,.45-.14Zm40.41,41.38c-.1-.11-.17-.23-.24-.24-.08,0-.17,.1-.25,.16,.06,.08,.11,.22,.18,.24,.07,.02,.17-.08,.31-.16ZM98.5,15.11c-.46,.33-.47,.51,0,.66v-.66Zm-49.87,13.69c-.54,.3-.47,.48-.04,.67,.01-.2,.02-.37,.04-.67Zm-30.6,13.12c.04-.06,.09-.11,.13-.17-.1-.08-.19-.19-.3-.22-.1-.03-.23,.03-.45,.07,.29,.15,.45,.24,.62,.32Zm43,41.04s0-.07,0-.1h-.8s0,.07,0,.1h.8Zm11.85,21.56l.14,.06,.2-.38c-.07-.01-.19-.05-.21-.03-.06,.1-.09,.23-.14,.34Zm-17.31-20.91s-.1-.04-.14-.06c-.07,.13-.13,.25-.2,.38,.07,.01,.19,.05,.21,.03,.06-.1,.09-.23,.14-.34Zm12.96-33.84s-.1-.04-.14-.06c-.07,.13-.13,.25-.2,.38,.07,.01,.19,.05,.21,.03,.06-.1,.09-.23,.14-.34Zm-48.31-8.02s-.09,.09-.14,.14c.1,.11,.21,.21,.31,.32,.05-.05,.1-.1,.15-.15-.11-.1-.21-.21-.32-.31Zm47.77,26.8c-.04-.06-.1-.15-.11-.15-.09,.04-.18,.09-.27,.14,.04,.08,.09,.16,.13,.23,.08-.08,.16-.15,.25-.23Zm35.83,13.49c.06,.08,.11,.17,.19,.23,.04,.03,.13-.03,.2-.05-.08-.11-.15-.21-.23-.32-.05,.04-.09,.08-.17,.14Zm3.95-23.49s-.04,.09-.06,.14l.38,.2c.01-.07,.05-.19,.03-.21-.1-.06-.23-.09-.34-.14Zm-12.88-21.68v-.12h-.6v.12h.6Zm-27.92,21.68s-.04,.09-.06,.14c.13,.07,.25,.13,.38,.2,.01-.07,.05-.19,.03-.21-.1-.06-.23-.09-.34-.14Zm-28.97-21.92s0-.07,0-.11h-.6s0,.07,0,.11h.6Zm42.44,48.97c0-.06,0-.12-.01-.19-.17,.03-.34,.05-.51,.08,0,.04,0,.07,0,.11h.51Zm-10.11-3.74c0,.06,0,.12,.01,.19,.17-.03,.34-.05,.51-.08,0-.04,0-.07,0-.11h-.51Zm-14.88-.24c0,.06,0,.12,.01,.19,.17-.03,.34-.05,.51-.08,0-.04,0-.07,0-.11h-.51Zm2.12-33.11s0,.07,0,.11h.6s0-.07,0-.11h-.6Zm18.26-12.07s.09-.09,.14-.14c-.1-.11-.21-.21-.31-.32-.05,.05-.1,.1-.15,.15,.11,.1,.21,.21,.32,.31Zm16.83,10.61c0,.06,0,.13,.01,.19,.17-.03,.34-.06,.51-.09,0-.03,0-.07-.01-.1h-.51Zm-38.8,40.38c-.06,0-.12,0-.19,.01l.08,.51s.07,0,.11,0v-.51Zm31.02-59.6c-.06-.08-.11-.17-.19-.23-.04-.03-.13,.03-.2,.05,.08,.11,.15,.21,.23,.32,.05-.04,.09-.08,.17-.14Zm2.51,20.39s-.06,.09-.08,.13c.13,.07,.25,.14,.38,.22,.01-.07,.06-.19,.04-.2-.1-.07-.22-.1-.34-.15Zm22.86,32.81s0-.07,0-.11h-.6s0,.07,0,.11h.6ZM39.55,61.58c.06,0,.12,0,.19-.01l-.08-.51s-.07,0-.11,0v.51Zm59.53,5.8s.07,0,.11,0v-.6s-.07,0-.11,0v.6Zm-42.84-11.64h-.12v.6h.12v-.6Zm-12.3,16.02c.05-.15,.11-.27,.1-.28-.11-.06-.22-.09-.34-.14,.07,.12,.14,.24,.24,.42ZM103.23,16.54c-.06,.15-.11,.27-.1,.28,.1,.06,.21,.11,.32,.16-.07-.13-.13-.25-.22-.44Zm-29.28,96.69c0-.06,0-.13-.01-.19-.17,.03-.34,.06-.51,.09,0,.03,0,.07,.01,.1h.51Zm12.12-40.91s.07,.08,.11,.11c.11-.1,.21-.2,.32-.3-.04-.04-.07-.08-.11-.11-.11,.1-.21,.2-.32,.31Zm5.97-16.78c-.03-.1-.05-.17-.06-.24-.11,.08-.21,.15-.32,.23,.04,.05,.09,.14,.12,.13,.1-.02,.18-.07,.27-.11Zm-41.01-11.53l.11,.11,.32-.3s-.07-.08-.11-.11c-.11,.1-.21,.2-.32,.31Zm-9.24-8.26c-.06,.15-.11,.27-.1,.28,.1,.06,.21,.11,.32,.16-.07-.13-.13-.25-.22-.44Zm-8.59,18.67s0-.07,0-.11h-.6s0,.07,0,.11h.6ZM14.86,35.99s.09-.09,.14-.14c-.1-.11-.21-.21-.31-.32-.05,.05-.1,.1-.15,.15,.11,.1,.21,.21,.32,.31Zm23.74-.65s0,.07,0,.11h.6s0-.07,0-.11h-.6Zm9.79,37.7s.09,.09,.14,.14c.11-.1,.21-.21,.32-.31-.05-.05-.1-.1-.15-.15-.1,.11-.21,.21-.31,.32Zm12.42-18.94c-.06,0-.12,0-.19,.01,.03,.17,.05,.34,.08,.51,.04,0,.07,0,.11,0v-.51Zm20.7,35.92c-.06-.08-.11-.18-.19-.23-.04-.03-.13,.03-.2,.05,.08,.11,.15,.21,.23,.32,.05-.04,.09-.08,.17-.14Zm-35.94-10.41c.06-.04,.15-.1,.15-.11-.04-.09-.09-.18-.14-.27-.08,.04-.16,.09-.23,.13,.08,.08,.15,.16,.23,.25Zm38.75-29.75s0-.07,0-.11h-.6s0,.07,0,.11h.6ZM103.24,9.31c0-.06,0-.12-.01-.19-.17,.03-.34,.05-.51,.08,0,.04,0,.07,0,.11h.51Zm-32.42,64.61c.05-.15,.11-.27,.1-.28-.11-.06-.22-.09-.34-.14,.07,.12,.14,.24,.24,.42Zm40.36-8.39s-.08,.07-.11,.11c.1,.11,.2,.21,.3,.32,.04-.04,.08-.07,.11-.11-.1-.11-.2-.21-.31-.32ZM68.55,18.84l.14,.07c.07-.12,.14-.24,.21-.37-.07-.01-.19-.06-.2-.04-.07,.1-.1,.22-.15,.34Zm-13.39,59.7v.12h.6v-.12h-.6Zm21.31-3.78l.14,.07c.07-.12,.14-.24,.21-.37-.07-.01-.19-.06-.2-.04-.07,.1-.1,.22-.15,.34Zm-1.34,3.04c0,.06,0,.13,.01,.19,.17-.03,.34-.06,.51-.09,0-.03,0-.07-.01-.1h-.51Zm-26.58,18.84c-.04-.06-.1-.15-.11-.15-.09,.04-.18,.09-.27,.14,.04,.08,.09,.16,.13,.23,.08-.08,.16-.15,.25-.23Zm33.13-51.23h-.12v.6h.12v-.6Zm-63.76-12.45s.07,.08,.11,.11c.11-.1,.21-.2,.32-.3-.04-.04-.07-.08-.11-.11-.11,.1-.21,.2-.32,.31Zm58.05,29.3s-.1-.04-.14-.06c-.07,.13-.13,.25-.2,.38,.07,.01,.19,.05,.21,.03,.06-.1,.09-.23,.14-.34Zm-28.32-13.19c.15,.06,.27,.11,.28,.1,.06-.1,.11-.22,.15-.32-.13,.07-.25,.13-.44,.22Zm53.05,15.89s-.09-.09-.14-.14c-.11,.1-.21,.21-.32,.31,.05,.05,.1,.1,.15,.15,.1-.11,.21-.21,.31-.32Zm-34.12,26.59c-.06,0-.13,0-.19,.01,.03,.17,.06,.34,.09,.51,.03,0,.07,0,.1-.01v-.51Zm7.97,37.65s.09,.09,.14,.14c.11-.1,.21-.21,.32-.31-.05-.05-.1-.1-.15-.15-.1,.11-.21,.21-.31,.32ZM120.13,3.47c.15,.06,.27,.11,.28,.1,.06-.1,.11-.22,.15-.32-.13,.07-.25,.13-.44,.22ZM50.12,50.7v.12h.6v-.12h-.6Zm34.82,44.57s.09-.09,.14-.14c-.1-.11-.21-.21-.31-.32-.05,.05-.1,.1-.15,.15,.11,.1,.21,.21,.32,.31Zm10.95-19.32s-.09-.05-.14-.07c-.07,.12-.14,.24-.21,.37,.07,.01,.19,.06,.2,.04,.07-.1,.1-.22,.15-.34Zm5.71-36.06h-.12v.6s.08,0,.12,0v-.6Zm-64.61,6.65c-.06,.15-.11,.27-.1,.28,.1,.06,.21,.11,.32,.16-.07-.13-.13-.25-.22-.44Zm34.77,29.58c0,.06,0,.12,.01,.19,.17-.03,.34-.05,.51-.08,0-.04,0-.07,0-.11h-.51Zm-.58,.75s.09,.09,.14,.14c.11-.1,.21-.21,.32-.31-.05-.05-.1-.1-.15-.15-.1,.11-.21,.21-.31,.32ZM98.48,3.2c-.09-.08-.17-.15-.25-.23-.05,.07-.09,.14-.14,.21,.09,.05,.17,.12,.26,.15,.02,0,.08-.08,.13-.14Zm-27.29,36.9c-.06-.08-.11-.17-.19-.23-.04-.03-.13,.03-.2,.05,.08,.11,.15,.21,.23,.32,.05-.04,.09-.08,.17-.14Zm-17.31,22.82c-.02-.07-.05-.13-.07-.2-.04,.04-.12,.08-.12,.12,0,.06,.04,.13,.07,.2,.04-.04,.08-.08,.13-.12Zm-12.4-16.98c.05,.04,.1,.11,.14,.11,.07,0,.13-.04,.2-.06-.04-.04-.08-.12-.12-.12-.06,0-.13,.04-.22,.07Zm48.01,5.6s.06,0,.09,0v-.37h-.09v.37Zm-39.85,24.4c.05,.04,.1,.11,.14,.11,.07,0,.13-.04,.2-.06-.04-.04-.08-.12-.12-.12-.06,0-.13,.04-.22,.07Zm26.24,50.12c-.04,.05-.11,.1-.11,.14,0,.07,.04,.13,.06,.2,.04-.04,.12-.08,.12-.12,0-.06-.04-.13-.07-.22Zm16.72-81.32c.05,.04,.1,.11,.14,.11,.07,0,.13-.04,.2-.06-.04-.04-.08-.12-.12-.12-.06,0-.13,.04-.22,.07Zm-32.48-9.97s-.08-.09-.12-.13c-.02,.07-.07,.13-.06,.2,0,.04,.07,.08,.11,.12,.03-.07,.05-.13,.07-.18Zm16.64-1.58v.09h.37v-.09h-.37ZM31.03,53.09s-.06,0-.09,0v.37h.09v-.37Zm58.37-8.67s-.09,.08-.13,.12c.07,.02,.13,.07,.2,.06,.04,0,.08-.07,.12-.11-.07-.03-.13-.05-.18-.07Zm-.72-.24s-.09,.08-.13,.12c.07,.02,.13,.07,.2,.06,.04,0,.08-.07,.12-.11-.07-.03-.13-.05-.18-.07ZM54.6,116.92c-.02-.07-.05-.13-.07-.2-.04,.04-.12,.08-.12,.12,0,.06,.04,.13,.07,.2,.04-.04,.08-.08,.13-.12Zm31.2-68.4c-.02-.07-.05-.13-.07-.2-.04,.04-.12,.08-.12,.12,0,.06,.04,.13,.07,.2,.04-.04,.08-.08,.13-.12Zm-37.12-4.26c.05,.04,.1,.11,.14,.11,.07,0,.13-.04,.2-.06-.04-.04-.08-.12-.12-.12-.06,0-.13,.04-.22,.07Zm24.16,9.47s-.08-.09-.12-.13c-.02,.07-.07,.13-.06,.2,0,.04,.07,.08,.11,.12,.03-.07,.05-.13,.07-.18Zm-26.56,.13c.05,.04,.1,.11,.14,.11,.07,0,.13-.04,.2-.06-.04-.04-.08-.12-.12-.12-.06,0-.13,.04-.22,.07Zm-7.6-22.12c-.04,.05-.11,.1-.11,.14,0,.07,.04,.13,.06,.2,.04-.04,.12-.08,.12-.12,0-.06-.04-.13-.07-.22Zm-19.51,12.61s.06,0,.09,0v-.37h-.09v.37Zm41.18-12.88s-.09,.08-.13,.12c.07,.02,.13,.07,.2,.06,.04,0,.08-.07,.12-.11-.07-.03-.13-.05-.18-.07Zm5.76,42.96s-.09,.08-.13,.12c.07,.02,.13,.07,.2,.06,.04,0,.08-.07,.12-.11-.06-.03-.13-.05-.18-.07Zm11.23-31.13c-.08-.03-.14-.07-.21-.07-.04,0-.08,.07-.12,.11,.07,.03,.13,.07,.19,.07,.04,0,.09-.07,.13-.11Zm-3.95,35.28c.05,.04,.1,.11,.14,.11,.07,0,.13-.04,.2-.06-.04-.04-.08-.12-.12-.12-.06,0-.13,.04-.22,.07Zm-9.72-4.04c-.05-.04-.1-.11-.14-.11-.07,0-.13,.04-.2,.06,.04,.04,.08,.12,.12,.12,.06,0,.13-.04,.22-.07Zm36.85-.91s.06,0,.09,0v-.37h-.09v.37Zm1.31-17.09c-.05-.04-.1-.11-.14-.11-.07,0-.13,.04-.2,.06,.04,.04,.08,.12,.12,.12,.06,0,.13-.04,.22-.07Zm-34.77,.32s-.08-.09-.12-.13c-.02,.07-.07,.13-.06,.2,0,.04,.07,.08,.11,.12,.03-.07,.05-.13,.07-.18Zm27.31,22.4s-.06,0-.09,0v.37h.09v-.37ZM25.89,31.87s.06,0,.09,0v-.37h-.09v.37Zm10.3,3.97v.09h.37v-.09h-.37Zm6.26,21.47s.06,0,.09,0v-.37h-.09v.37Zm47.67,13.77c-.02-.07-.05-.13-.07-.2-.04,.04-.12,.08-.12,.12,0,.06,.04,.13,.07,.2,.04-.04,.08-.08,.13-.12Zm-14.56-13.38c.05,.04,.1,.11,.14,.11,.07,0,.13-.04,.2-.06-.04-.04-.08-.12-.12-.12-.06,0-.13,.04-.22,.07Zm-7.57,22.51s-.06,0-.09,0v.37h.09v-.37Zm12.77,26.63c-.02-.07-.05-.13-.07-.2-.04,.04-.12,.08-.12,.12,0,.06,.04,.13,.07,.2,.04-.04,.08-.08,.13-.12Zm-1.47-93.47v-.09h-.37v.09h.37Zm-20.42,92.09c-.08-.03-.14-.07-.21-.07-.04,0-.08,.07-.12,.11,.07,.03,.13,.07,.19,.07,.04,0,.09-.07,.13-.11Zm34.77-63.64c-.04,.05-.11,.1-.11,.14,0,.07,.04,.13,.06,.2,.04-.04,.12-.08,.12-.12,0-.06-.04-.13-.07-.22Zm14.44,28.88c-.05-.04-.1-.11-.14-.11-.07,0-.13,.04-.2,.06,.04,.04,.08,.12,.12,.12,.06,0,.13-.04,.22-.07ZM57.24,36.21s-.08-.09-.12-.13c-.02,.07-.07,.13-.06,.2,0,.04,.07,.08,.11,.12,.03-.07,.05-.13,.07-.18Zm1.06-6.27s.06,0,.09,0v-.37h-.09v.37Zm12.07,11.87c-.04,.05-.11,.1-.11,.14,0,.07,.04,.13,.06,.2,.04-.04,.12-.08,.12-.12,0-.06-.04-.13-.07-.22Zm1.13,61.57h.09v-.37h-.09v.37Zm10.71-33.03c-.02-.07-.05-.13-.07-.2-.04,.04-.12,.08-.12,.12,0,.06,.04,.13,.07,.2,.04-.04,.08-.08,.13-.12Zm10.77-55.07v-.09h-.37v.09h.37Zm-13.33,13.83v.09h.37v-.09h-.37Zm-9.28,31.19c-.04,.05-.11,.1-.11,.14,0,.07,.04,.13,.06,.2,.04-.04,.12-.08,.12-.12,0-.06-.04-.13-.07-.22Zm38.33,.61s.06,0,.09,0v-.37h-.09v.37Zm-69.45,.33c-.02-.07-.05-.13-.07-.2-.04,.04-.12,.08-.12,.12,0,.06,.04,.13,.07,.2,.04-.04,.08-.08,.13-.12Zm4.88,8.19v.09h.37v-.09h-.37ZM21.88,28.86c-.04,.05-.11,.1-.11,.14,0,.07,.04,.13,.06,.2,.04-.04,.12-.08,.12-.12,0-.06-.04-.13-.07-.22Zm20.32,54.25v.09h.37v-.09h-.37ZM90.79,28.66c-.08-.03-.14-.07-.21-.07-.04,0-.08,.07-.12,.11,.07,.03,.13,.07,.19,.07,.04,0,.09-.07,.13-.11ZM49.51,61.54c-.08-.03-.14-.07-.21-.07-.04,0-.08,.07-.12,.11,.07,.03,.13,.07,.19,.07,.04,0,.09-.07,.13-.11Zm19.68,7.4s-.06,0-.09,0v.37h.09v-.37Zm20.05-48.19c.05,.04,.1,.11,.14,.11,.07,0,.13-.04,.2-.06-.04-.04-.08-.12-.12-.12-.06,0-.13,.04-.22,.07Zm-22.2,74.92c-.05-.04-.1-.11-.14-.11-.07,0-.13,.04-.2,.06,.04,.04,.08,.12,.12,.12,.06,0,.13-.04,.22-.07Zm-1.08-.04c.05,.04,.1,.11,.14,.11,.07,0,.13-.04,.2-.06-.04-.04-.08-.12-.12-.12-.06,0-.13,.04-.22,.07Zm-21.59-32.8s.06,0,.09,0v-.37h-.09v.37Zm-9.73,.43c-.05-.04-.1-.11-.14-.11-.07,0-.13,.04-.2,.06,.04,.04,.08,.12,.12,.12,.06,0,.13-.04,.22-.07Zm42.96,.24c-.05-.04-.1-.11-.14-.11-.07,0-.13,.04-.2,.06,.04,.04,.08,.12,.12,.12,.06,0,.13-.04,.22-.07Zm5.75,29.48c-.08-.03-.14-.07-.21-.07-.04,0-.08,.07-.12,.11,.07,.02,.13,.07,.19,.07,.04,0,.09-.07,.13-.11Zm3.01-29.04c.05,.04,.1,.11,.14,.11,.07,0,.13-.04,.2-.06-.04-.04-.08-.12-.12-.12-.06,0-.13,.04-.22,.07Zm15.04,.11s-.08-.09-.12-.13c-.02,.07-.07,.13-.06,.2,0,.04,.07,.08,.11,.12,.03-.07,.05-.13,.07-.18Zm-46.24-24.86v.09h.37v-.09h-.37Zm44.51,28.3s-.06,0-.09,0v.37h.09v-.37Zm-29.63,24.5v.09h.37v-.09h-.37Zm29.87-54.74s-.06,0-.09,0v.37h.09v-.37Zm-39.21,1.81s.06,0,.09,0v-.37h-.09v.37Zm10.22,52.59s-.08-.09-.12-.13c-.02,.07-.07,.13-.06,.2,0,.04,.07,.08,.11,.12,.03-.07,.05-.13,.07-.18Zm12.72-2.4s-.08-.09-.12-.13c-.02,.07-.07,.13-.06,.2,0,.04,.07,.08,.11,.12,.03-.06,.05-.13,.07-.18Zm-13.95-62c-.05-.04-.1-.11-.14-.11-.07,0-.13,.04-.2,.06,.04,.04,.08,.12,.12,.12,.06,0,.13-.04,.22-.07Zm-16.36,37.95c.03-.08,.07-.14,.07-.21,0-.04-.07-.08-.11-.12-.03,.07-.07,.13-.07,.19,0,.04,.07,.09,.11,.13Zm-4.01-.14s-.09,.08-.13,.12c.07,.02,.13,.07,.2,.06,.04,0,.08-.07,.12-.12-.06-.03-.13-.05-.18-.07ZM100.87,26.93s-.06,0-.09,0v.37h.09v-.37Zm-49.55,11.54v.09h.37v-.09h-.37Zm61.99,26.61s-.08,.05-.08,.08c0,.03,.04,.06,.07,.08,.03-.03,.08-.05,.08-.08,0-.03-.04-.06-.07-.08ZM35.86,26.52s-.05-.08-.08-.08c-.03,0-.06,.04-.08,.07,.03,.03,.05,.08,.08,.08,.03,0,.06-.04,.08-.07Zm53.04,.48s-.05-.06-.08-.09c-.03,.03-.08,.05-.08,.08,0,.03,.04,.06,.07,.08l.08-.08Zm2.64,38.16s-.05-.08-.08-.08c-.03,0-.06,.04-.08,.07,.03,.03,.05,.08,.08,.08,.03,0,.06-.04,.08-.07Zm-2-.33s-.08,.05-.08,.08c0,.03,.04,.06,.07,.08,.03-.03,.08-.05,.08-.08,0-.03-.04-.06-.07-.08Zm-9.77,26.49s-.05-.06-.08-.09c-.03,.03-.08,.05-.08,.08,0,.03,.04,.06,.07,.08l.08-.08Zm-27.44-1.61s.06-.05,.09-.08c-.03-.03-.05-.08-.08-.08-.03,0-.06,.04-.08,.07,.03,.03,.05,.06,.08,.08Zm14.89-62.08s-.08,.05-.08,.08c0,.03,.04,.06,.07,.08,.03-.03,.08-.05,.08-.08s-.04-.06-.07-.08Zm19.27,39.69s-.05-.06-.08-.09c-.03,.03-.08,.05-.08,.08,0,.03,.04,.06,.07,.08l.08-.08ZM32.98,27.96s-.05-.08-.08-.08c-.03,0-.06,.04-.08,.07,.03,.03,.05,.08,.08,.08,.03,0,.06-.04,.08-.07Zm72.96-2.88s-.05-.08-.08-.08c-.03,0-.06,.04-.08,.07,.03,.03,.05,.08,.08,.08,.03,0,.06-.04,.08-.07Zm-39.6,67.44s-.05-.06-.08-.09c-.03,.03-.08,.05-.08,.08,0,.03,.04,.06,.07,.08l.08-.08Zm-18.8-5.45s.06-.05,.09-.08c-.03-.03-.05-.08-.08-.08-.03,0-.06,.04-.08,.07,.03,.03,.05,.06,.08,.08Zm15.37,5.6s-.08,.05-.08,.08c0,.03,.04,.06,.07,.08,.03-.03,.08-.05,.08-.08,0-.03-.04-.06-.07-.08ZM33.46,27.96s-.05-.06-.08-.09c-.03,.03-.08,.05-.08,.08,0,.03,.04,.06,.07,.08l.08-.08Zm35.76,19.92s-.05-.08-.08-.08c-.03,0-.06,.04-.08,.07,.03,.03,.05,.08,.08,.08,.03,0,.06-.04,.08-.07Zm-15.84,38.88s-.05-.06-.08-.09c-.03,.03-.08,.05-.08,.08,0,.03,.04,.06,.07,.08l.08-.08Zm24.16-58.73s.06-.05,.09-.08c-.03-.03-.05-.08-.08-.08-.03,0-.06,.04-.08,.07,.03,.03,.05,.06,.08,.08Zm-2.15,65.84s-.08,.05-.08,.08c0,.03,.04,.06,.07,.09,.03-.03,.08-.05,.08-.08s-.04-.06-.07-.08Zm4.16,.09s-.05-.08-.08-.08c-.03,0-.06,.04-.08,.07,.03,.03,.05,.08,.08,.08,.03,0,.06-.04,.08-.07Zm11.28-17.76s-.05-.06-.08-.09c-.03,.03-.08,.05-.08,.08,0,.03,.04,.06,.07,.08l.08-.08Zm-9.36,18.24s-.05-.06-.08-.09c-.03,.03-.08,.05-.08,.08,0,.03,.04,.06,.07,.08l.08-.08Zm-22.63,.15s-.08,.05-.08,.08c0,.03,.04,.06,.07,.09,.03-.03,.08-.05,.08-.08,0-.03-.04-.06-.07-.08ZM81.39,22.36s-.08,.05-.08,.08c0,.03,.04,.06,.07,.09,.03-.03,.08-.05,.08-.08,0-.03-.04-.06-.07-.08Zm-19.68,45.36s-.08,.05-.08,.08c0,.03,.04,.06,.07,.09,.03-.03,.08-.05,.08-.08,0-.03-.04-.06-.07-.08Zm-11.91,27.2h-.17s.05,.08,.08,.08c.03,0,.06-.04,.09-.08Zm5.51-57.59s-.05-.08-.08-.08c-.03,0-.06,.04-.08,.07,.03,.03,.05,.08,.08,.08,.03,0,.06-.04,.08-.07Zm.4,2.79s-.08,.05-.08,.08c0,.03,.04,.06,.07,.09,.03-.03,.08-.05,.08-.08,0-.03-.04-.06-.07-.08Zm5.04,44.88s-.08,.05-.08,.08c0,.03,.04,.06,.07,.08,.03-.03,.08-.05,.08-.08,0-.03-.04-.06-.07-.08Zm30.48-16.8s-.08,.05-.08,.08c0,.03,.04,.06,.07,.09,.03-.03,.08-.05,.08-.08,0-.03-.04-.06-.07-.08Zm-20.08-46.47s-.05-.08-.08-.08c-.03,0-.06,.04-.08,.07,.03,.03,.05,.08,.08,.08,.03,0,.06-.04,.08-.07Zm-26.4,74.64s-.05-.06-.08-.09c-.03,.03-.08,.05-.08,.08,0,.03,.04,.06,.07,.08l.08-.08ZM11.86,40.68s-.05-.08-.08-.08c-.03,0-.06,.04-.08,.07,.03,.03,.05,.08,.08,.08,.03,0,.06-.04,.08-.07Zm81.04,21.27s-.08,.05-.08,.08c0,.03,.04,.06,.07,.09,.03-.03,.08-.05,.08-.08,0-.03-.04-.06-.07-.08Zm-31.13-21.27s-.05-.06-.08-.09c-.03,.03-.08,.05-.08,.08,0,.03,.04,.06,.07,.08l.08-.08Zm-13.19,56.63h-.17s.05,.08,.08,.08c.03,0,.06-.04,.09-.08ZM23.3,36.92s.06-.05,.09-.08c-.03-.03-.05-.08-.08-.08-.03,0-.06,.04-.08,.07,.03,.03,.05,.06,.08,.08ZM90.02,18.44s.06-.05,.09-.08c-.03-.03-.05-.08-.08-.08-.03,0-.06,.04-.08,.07,.03,.03,.05,.06,.08,.08Zm-15.28-.55s-.05-.06-.08-.09c-.03,.03-.08,.05-.08,.08,0,.03,.04,.06,.07,.08l.08-.08Zm-26.16,43.68s-.05-.08-.08-.08c-.03,0-.06,.04-.08,.07,.03,.03,.05,.08,.08,.08,.03,0,.06-.04,.08-.07Zm-5.52-.24s-.05-.08-.08-.08c-.03,0-.06,.04-.08,.07,.03,.03,.05,.08,.08,.08,.03,0,.06-.04,.08-.07Zm71.91,7.99s.06-.05,.09-.08c-.03-.03-.05-.08-.08-.08-.03,0-.06,.04-.08,.07,.03,.03,.05,.06,.08,.08Zm-41.2,12.89s-.05-.06-.08-.09c-.03,.03-.08,.05-.08,.08,0,.03,.04,.06,.07,.08l.08-.08Zm-28.88-12.65s.06-.05,.09-.08c-.03-.03-.05-.08-.08-.08-.03,0-.06,.04-.08,.07,.03,.03,.05,.06,.08,.08Zm6.56,.65s-.05-.06-.08-.09c-.03,.03-.08,.05-.08,.08,0,.03,.04,.06,.07,.08l.08-.08Zm8.57,29.67s-.08,.05-.08,.08c0,.03,.04,.06,.07,.09,.03-.03,.08-.05,.08-.08,0-.03-.04-.06-.07-.08Zm18.48,0s-.08,.05-.08,.08c0,.03,.04,.06,.07,.09,.03-.03,.08-.05,.08-.08,0-.03-.04-.06-.07-.08Zm22.88-18.15s-.05-.08-.08-.08c-.03,0-.06,.04-.08,.07,.03,.03,.05,.08,.08,.08,.03,0,.06-.04,.08-.07Zm-43.92-21.36s-.05-.06-.08-.09c-.03,.03-.08,.05-.08,.08,0,.03,.04,.06,.07,.08l.08-.08Zm51.36-.24s-.05-.06-.08-.09c-.03,.03-.08,.05-.08,.08,0,.03,.04,.06,.07,.08l.08-.08Zm-47.28,42.96s-.05-.06-.08-.09c-.03,.03-.08,.05-.08,.08,0,.03,.04,.06,.07,.08l.08-.08Zm7.92-32.64s-.05-.08-.08-.08c-.03,0-.06,.04-.08,.07,.03,.03,.05,.08,.08,.08,.03,0,.06-.04,.08-.07Zm-5.12,32.79s-.08,.05-.08,.08c0,.03,.04,.06,.07,.08,.03-.03,.08-.05,.08-.08,0-.03-.04-.06-.07-.08Zm-1.45-61.52s.06-.05,.09-.08c-.03-.03-.05-.08-.08-.08-.03,0-.06,.04-.08,.07,.03,.03,.05,.06,.08,.08Zm17.84,17.69s-.05-.06-.08-.09c-.03,.03-.08,.05-.08,.08,0,.03,.04,.06,.07,.08l.08-.08Zm-36.96,22.32s-.05-.06-.08-.09c-.03,.03-.08,.05-.08,.08,0,.03,.04,.06,.07,.08l.08-.08ZM88.35,15.16s-.08,.05-.08,.08c0,.03,.04,.06,.07,.08,.03-.03,.08-.05,.08-.08,0-.03-.04-.06-.07-.08ZM47.38,104.76s-.05-.06-.08-.09c-.03,.03-.08,.05-.08,.08,0,.03,.04,.06,.07,.08l.08-.08Zm65.21-34.17s-.08,.05-.08,.08c0,.03,.04,.06,.07,.09,.03-.03,.08-.05,.08-.08,0-.03-.04-.06-.07-.08Zm-42.25,.4s.06-.05,.09-.08c-.03-.03-.05-.08-.08-.08-.03,0-.06,.04-.08,.07,.03,.03,.05,.06,.08,.08ZM105.94,13.56s-.05-.06-.08-.09c-.03,.03-.08,.05-.08,.08,0,.03,.04,.06,.07,.08l.08-.08Zm.24,66.96s-.05-.06-.08-.09c-.03,.03-.08,.05-.08,.08,0,.03,.04,.06,.07,.08l.08-.08Zm-20.4-21.36s-.05-.06-.08-.09c-.03,.03-.08,.05-.08,.08,0,.03,.04,.06,.07,.08l.08-.08Zm2.57-46.41s-.08,.05-.08,.08c0,.03,.04,.06,.07,.08,.03-.03,.08-.05,.08-.08,0-.03-.04-.06-.07-.08ZM46.66,48.36s-.05-.06-.08-.09c-.03,.03-.08,.05-.08,.08,0,.03,.04,.06,.07,.08l.08-.08Zm16.49,10.23s-.08,.05-.08,.08c0,.03,.04,.06,.07,.09,.03-.03,.08-.05,.08-.08s-.04-.06-.07-.08ZM107.62,1.8s-.05-.06-.08-.09c-.03,.03-.08,.05-.08,.08,0,.03,.04,.06,.07,.08l.08-.08Zm-20.64,10.8s-.05-.08-.08-.08c-.03,0-.06,.04-.08,.07,.03,.03,.05,.08,.08,.08,.03,0,.06-.04,.08-.07Zm-17.76,95.52s-.05-.06-.08-.09c-.03,.03-.08,.05-.08,.08,0,.03,.04,.06,.07,.08,.03-.03,.06-.05,.08-.08Zm-2.88-50.16s-.05-.08-.08-.08c-.03,0-.06,.04-.08,.07,.03,.03,.05,.08,.08,.08,.03,0,.06-.04,.08-.07Zm4.47,13.03s.06-.05,.09-.08c-.03-.03-.05-.08-.08-.08-.03,0-.06,.04-.08,.07,.03,.03,.05,.06,.08,.08Zm-16,1.13s-.05-.06-.08-.09c-.03,.03-.08,.05-.08,.08,0,.03,.04,.06,.07,.08l.08-.08Zm34.32,.96s-.05-.06-.08-.09c-.03,.03-.08,.05-.08,.08,0,.03,.04,.06,.07,.08l.08-.08Zm7.2-60.96s-.05-.06-.08-.09c-.03,.03-.08,.05-.08,.08,0,.03,.04,.06,.07,.08l.08-.08ZM56.91,56.68s-.08,.05-.08,.08c0,.03,.04,.06,.07,.08,.03-.03,.08-.05,.08-.08,0-.03-.04-.06-.07-.08Zm1.67-21.68s.06-.05,.09-.08c-.03-.03-.05-.08-.08-.08-.03,0-.06,.04-.08,.07,.03,.03,.05,.06,.08,.08Zm29.77,7.52s-.08,.05-.08,.08c0,.03,.04,.06,.07,.09,.03-.03,.08-.05,.08-.08,0-.03-.04-.06-.07-.08Zm-27.36,69.36s-.08,.05-.08,.08c0,.03,.04,.06,.07,.09,.03-.03,.08-.05,.08-.08,0-.03-.04-.06-.07-.08ZM104.98,11.88s-.05-.06-.08-.09c-.03,.03-.08,.05-.08,.08,0,.03,.04,.06,.07,.08l.08-.08ZM63.86,112.76s.06-.05,.09-.08c-.03-.03-.05-.08-.08-.08-.03,0-.06,.04-.08,.07,.03,.03,.05,.06,.08,.08Zm-7.36-81.19s-.05-.06-.08-.09c-.03,.03-.08,.05-.08,.08,0,.03,.04,.06,.07,.08l.08-.08Zm-27.12,24s-.05-.06-.08-.09c-.03,.03-.08,.05-.08,.08,0,.03,.04,.06,.07,.08l.08-.08ZM97.47,11.8s-.08,.05-.08,.08c0,.03,.04,.06,.07,.09,.03-.03,.08-.05,.08-.08,0-.03-.04-.06-.07-.08ZM55.3,114.36s-.05-.06-.08-.09c-.03,.03-.08,.05-.08,.08,0,.03,.04,.06,.07,.08l.08-.08ZM20.9,43.88s.06-.05,.09-.08c-.03-.03-.05-.08-.08-.08-.03,0-.06,.04-.08,.07,.03,.03,.05,.06,.08,.08ZM60.27,114.52s-.08,.05-.08,.08c0,.03,.04,.06,.07,.09,.03-.03,.08-.05,.08-.08,0-.03-.04-.06-.07-.08Zm20.95-68.55s-.05-.06-.08-.09c-.03,.03-.08,.05-.08,.08,0,.03,.04,.06,.07,.08l.08-.08Zm-4.64-14.09s.06-.05,.09-.08c-.03-.03-.05-.08-.08-.08-.03,0-.06,.04-.08,.07,.03,.03,.05,.06,.08,.08ZM114.99,9.4s-.08,.05-.08,.08c0,.03,.04,.06,.07,.08,.03-.03,.08-.05,.08-.08,0-.03-.04-.06-.07-.08Zm-42.41,68.73s-.05-.06-.08-.09c-.03,.03-.08,.05-.08,.08,0,.03,.04,.06,.07,.08l.08-.08Zm7.44-45.6s-.05-.08-.08-.08c-.03,0-.06,.04-.08,.07,.03,.03,.05,.08,.08,.08,.03,0,.06-.04,.08-.07Zm29.68,42.15s-.08,.05-.08,.08c0,.03,.04,.06,.07,.08,.03-.03,.08-.05,.08-.08,0-.03-.04-.06-.07-.08Zm-57.05,.33s-.05-.06-.08-.09c-.03,.03-.08,.05-.08,.08,0,.03,.04,.06,.07,.08l.08-.08Zm7.37-21.69s-.08,.05-.08,.08c0,.03,.04,.06,.07,.08,.03-.03,.08-.05,.08-.08,0-.03-.04-.06-.07-.08ZM102.34,9.24s-.05-.06-.08-.09c-.03,.03-.08,.05-.08,.08,0,.03,.04,.06,.07,.08l.08-.08Zm-6.24-.72s-.05-.06-.08-.09c-.03,.03-.08,.05-.08,.08,0,.03,.04,.06,.07,.08l.08-.08ZM50.9,53.48s.06-.05,.09-.08c-.03-.03-.05-.08-.08-.08-.03,0-.06,.04-.08,.07,.03,.03,.05,.06,.08,.08Zm27.92,24.17s-.05-.06-.08-.09c-.03,.03-.08,.05-.08,.08,0,.03,.04,.06,.07,.08l.08-.08Zm-39.68-24.17s.06-.05,.09-.08c-.03-.03-.05-.08-.08-.08-.03,0-.06,.04-.08,.07,.03,.03,.05,.06,.08,.08Zm60.01,22.64s-.08,.05-.08,.08c0,.03,.04,.06,.07,.09,.03-.03,.08-.05,.08-.08,0-.03-.04-.06-.07-.08Zm-39.12-23.28s-.08,.05-.08,.08c0,.03,.04,.06,.07,.08,.03-.03,.08-.05,.08-.08,0-.03-.04-.06-.07-.08Zm8.24,24.57s-.05-.08-.08-.08c-.03,0-.06,.04-.08,.07,.03,.03,.05,.08,.08,.08,.03,0,.06-.04,.08-.07ZM18.34,51.96s-.05-.08-.08-.08c-.03,0-.06,.04-.08,.07,.03,.03,.05,.08,.08,.08,.03,0,.06-.04,.08-.07Zm55.36,72.63s-.08,.05-.08,.08c0,.03,.04,.06,.07,.09,.03-.03,.08-.05,.08-.08,0-.03-.04-.06-.07-.08ZM106.42,5.88s-.05-.06-.08-.09c-.03,.03-.08,.05-.08,.08,0,.03,.04,.06,.07,.08l.08-.08Zm-36.96,119.28s-.05-.06-.08-.09c-.03,.03-.08,.05-.08,.08,0,.03,.04,.06,.07,.08l.08-.08ZM119.86,4.2s-.05-.06-.08-.09c-.03,.03-.08,.05-.08,.08,0,.03,.04,.06,.07,.08l.08-.08Zm-55.03,121.59s-.08,.05-.08,.08c0,.03,.04,.06,.07,.09,.03-.03,.08-.05,.08-.08,0-.03-.04-.06-.07-.08Zm1.03-92.07s-.05-.06-.08-.09c-.03,.03-.08,.05-.08,.08,0,.03,.04,.06,.07,.08l.08-.08Zm-14.64,42.24s-.05-.08-.08-.08c-.03,0-.06,.04-.08,.07,.03,.03,.05,.08,.08,.08,.03,0,.06-.04,.08-.07Zm-7.2-24.96s-.05-.06-.08-.09c-.03,.03-.08,.05-.08,.08,0,.03,.04,.06,.07,.08l.08-.08Zm24.41,77.43s-.08,.05-.08,.08c0,.03,.04,.06,.07,.09,.03-.03,.08-.05,.08-.08,0-.03-.04-.06-.07-.08ZM18.34,51s-.05-.06-.08-.09c-.03,.03-.08,.05-.08,.08,0,.03,.04,.06,.07,.08l.08-.08Zm57.29-4.89s-.08,.05-.08,.08c0,.03,.04,.06,.07,.09,.03-.03,.08-.05,.08-.08s-.04-.06-.07-.08Zm21.19,29.85s-.05-.06-.08-.09c-.03,.03-.08,.05-.08,.08,0,.03,.04,.06,.07,.08l.08-.08Zm-26.88-41.28s-.05-.08-.08-.08c-.03,0-.06,.04-.08,.07,.03,.03,.05,.08,.08,.08,.03,0,.06-.04,.08-.07Z"/>
      <path class="cls-1" d="M.52,36.19H0s0-.07,0-.11c.17-.03,.34-.05,.51-.08,0,.06,0,.12,.01,.18Z"/>
      <path class="cls-1" d="M89.07,100.36s.07,.06,.07,.08c0,.03-.05,.05-.08,.07-.02-.03-.07-.06-.07-.08,0-.03,.05-.05,.08-.07Z"/>
      <path class="cls-1" d="M83.89,14.38c-.02,.06-.04,.12-.06,.19-.03-.03-.06-.06-.09-.09,.06-.02,.12-.04,.19-.06l-.03-.03Z"/>
      <path class="cls-1" d="M60.1,68.76s-.06,.07-.08,.07c-.03,0-.05-.05-.07-.08,.03-.02,.06-.07,.08-.07,.03,0,.05,.05,.07,.08Z"/>
      <path class="cls-1" d="M12.92,38.34v-.6h.12v.6h-.12Z"/>
    </g>
  </g>
</svg>