<?xml version="1.0" encoding="UTF-8"?>
<svg id="_レイヤー_2" data-name="レイヤー 2" xmlns="http://www.w3.org/2000/svg" viewBox="0 0 127.5 136.83">
  <defs>
    <style>
      .cls-1 {
        fill: #6bb292;
      }
    </style>
  </defs>
  <g id="illustration">
    <g>
      <path class="cls-1" d="M47.07,80.38c.88-.2,.88-.21,1.7,.26,.63,.37,1.33,.58,1.87,1.13,.29,.29,.88,.28,1.3,.47,2.38,1.09,4.74,2.21,7.12,3.28,.33,.15,.74,.12,1.21,.19,0-.44,.1-.8-.02-1.04-.21-.41,0-.74-.01-1.1-.01-.96,.44-1.64,.97-2.33,.04-.05,0-.14,0-.29-.21,.02-.41,.03-.69,.06,.12-.83-.16-1.64,.21-2.47,.15-.33,.04-.79,.04-1.19,0-.55-.06-1.11,.26-1.62,.08-.12,.02-.33,.02-.51,0-.2,0-.4-.04-.59-.08-.48,.47-.75,.33-1.3-.11-.43,.11-.93,.05-1.38-.1-.71,.11-1.33,.33-1.97,.04-.11,.05-.25,0-.36-.28-.66-.14-1.28,.09-1.91,.04-.12-.02-.27-.04-.4-.09-.63-.07-1.25,.18-1.86,.16-.41,.45-.85,.05-1.33-.12-.15-.06-.47-.02-.7,.09-.54,.21-1.07,.33-1.64,.17-.06,.38-.14,.77-.28-.35-.18-.56-.3-.8-.42,.29-3.09,.59-6.2,.89-9.39,.28-.03,.54-.06,.77-.08,.08,.11,.15,.17,.16,.24,.08,.94,.06,1.88,.21,2.83,.13,.88,.08,1.79,.25,2.71,.24,1.27,.03,2.63,.33,3.89,.29,1.21-.08,2.46,.42,3.62,.03,.07,0,.16,.01,.24,.08,1.3,0,2.64,.29,3.89,.26,1.17-.01,2.36,.39,3.51,.18,.5,0,1.11,.05,1.67,.04,.45,.16,.9,.26,1.44,1.84-.77,3.59-1.44,5.28-2.23,1.09-.51,2.12-1.18,3.15-1.83,.61-.38,1.22-.7,2.02-.53,.22-.82,.75-1.27,1.39-1.72,1.44-1.02,2.81-2.13,4.2-3.22,.19-.15,.38-.31,.51-.51,.39-.6,1.2-.66,1.57-1.17,.33-.47,.61-.36,1.1-.25-.47,.95-.87,1.87-1.37,2.74-.38,.65-.9,1.22-1.31,1.86-.43,.65-.76,1.36-1.21,2-.69,.96-1.42,1.88-2.17,2.78-.3,.35-.75,.58-1.08,.91-.32,.32-.28,.87-.71,1.17-.39,.27-.69,.66-1.03,1-.37,.37-.74,.73-1.1,1.1-.34,.34-.67,.68-1.02,1.02-1.7,1.65-3.59,3.07-5.49,4.48-.47,.35-.95,.68-1.44,1-.22,.14-.49,.23-.62,.29,.09,.67,.16,1.32,.28,1.95,.26,1.31,.08,2.67,.46,3.97,.02,.07,.01,.16,.02,.24,.08,1.42,.13,2.85,.25,4.26,.09,1.05,.31,2.09,.44,3.14,.05,.43,0,.88,.04,1.32,.03,.5,.1,1,.15,1.52-.09,.06-.21,.15-.25,.18,.14,.69,.3,1.33,.39,1.98,.09,.63,.11,1.27,.19,1.9,.11,.83-.06,1.67,.22,2.49,.09,.27-.03,.62-.07,.94-.02,.15-.14,.34-.09,.42,.64,1.02,.57,2.17,.64,3.29,.03,.49-.12,.99-.2,1.52h.39c.1,1.43,.19,2.85,.3,4.27,.05,.58,.24,1.17,.21,1.74-.03,.57-.05,1.15,.04,1.7,.25,1.56,.44,3.11,.49,4.69,.03,1.09,.3,2.17,.45,3.25,.02,.16,.05,.34,0,.48-.24,.67-.13,1.27,.19,1.88,.08,.16,.11,.43,.03,.58-.37,.68-.23,1.28,.12,1.91,.11,.19,.13,.45,.14,.68,.02,.6,0,1.2,0,1.85-.91,.25-1.83,.08-2.73,.11-.96,.03-1.92,.03-2.88,0-.9-.03-1.82-.27-2.69-.14-.92,.14-1.79,.12-2.7,.06-.91-.06-1.87-.27-2.72-.09-.93,.2-1.8,.08-2.69,.16-.41-.72,0-1.34,.08-1.98,.08-.66-.11-1.33,.18-2,.25-.59-.2-1.38,.51-1.87-.15-.1-.28-.18-.29-.19,.03-.78,.06-1.48,.09-2.18,.01-.39-.06-.79,.31-1.1,.09-.08,.06-.34,.03-.51-.15-.82-.27-1.61,.34-2.36,.24-.29,.35-.88,.23-1.22-.32-.9-.17-1.76-.08-2.65,.1-1.03,.17-2.07,.25-3.11,.04-.58,.04-1.16,.12-1.73,.18-1.24,.11-2.51,.44-3.74,.06-.23,.01-.48,.03-.72,.08-1.02,.12-2.05,.27-3.06,.04-.29,.38-.53,.63-.86-.68-.88-.44-1.98-.32-3.06,.04-.31,.11-.62,.14-.93,.16-1.48,.14-2.98,.47-4.45,.05-.23,0-.48,.02-.72,.08-.98,.12-1.97,.26-2.94,.05-.36,.32-.68,.55-1.12-.25-.11-.45-.19-.73-.3-.05-.22-.11-.51-.16-.77-.91-.13-1.77-.24-2.69-.37-.06-.35-.12-.72-.2-1.2-.87,.53-1.63,.24-2.34-.21-1.48-.95-2.99-1.87-4.38-2.94-.51-.4-1.2-.87-1.18-1.66-.45-.24-.86-.59-1.3-.63-.63-.06-.88-.51-1.24-.85-1.51-1.4-2.78-3.03-3.94-4.71-.93-1.34-1.58-2.88-2.32-4.35-.28-.55-.47-1.15-.67-1.75-.19-.58-.14-.63,.48-.98,.54,.48,1.04,.96,1.58,1.4,.79,.65,1.57,1.31,2.39,1.91,1.11,.8,2.24,1.58,3.39,2.32,.48,.31,.79,.64,.75,1.23-.1,.05-.21,.09-.3,.17-.06,.05-.08,.14-.12,.22,.06,.03,.13,.06,.19,.08,.06-.17,.13-.33,.19-.5Zm19.47,28.56c.02,.06,.04,.12,.07,.19,.03-.03,.06-.06,.09-.09-.06-.02-.12-.04-.19-.06-.02-.06-.04-.12-.06-.18-.03,.03-.06,.06-.09,.09,.06,.02,.12,.04,.18,.06Zm2.24,25.65c-.12-.55-.41-1.1-.28-1.51,.21-.67,.07-1.2-.22-1.83-.43,.3-1.18,.28-.84,1.18,.07,.18-.17,.49-.3,.73-.18,.33-.38,.65-.61,1.04h-1.14v.76c.61-.44,1.34-.19,1.82-.84,.29-.39,.61-.32,.94,.18,.19,.29,.34,.39,.63,.29Zm-1.27-57.05c-.03-.08-.07-.16-.1-.24-.2,.04-.55,.03-.59,.13-.16,.45-.55,.38-.79,.28-.39-.16-.75-.43-1.06-.72-.38-.36-.35-.39-.78-.3-.33,1.34,.71,1.95,1.52,2.95,.03-.91,.31-1.35,1.07-1.46,.26-.04,.48-.42,.72-.65Zm-2.37,26.35c.76-.42,.24-.89,.21-1.19,.4-.87,1.23-.93,2-1.38-.96-.03-1.74-.14-2.38-.85-.25,1.22-.05,2.29,.17,3.42Zm-10.29-17.17c.14,.35,.42,.7,.37,.99-.06,.37-.39,.69-.6,1.03,.26,.29,.5,.41,.84,.17,.59-.42,.59-.4,.97,.03,.1,.12,.21,.23,.4,.45,.16-.57-.12-.97-.34-1.02-.75-.15-.67-.56-.54-1.11,.05-.22-.07-.57-.24-.73-.26-.26-.58-.17-.86,.19Zm19.56-10.2c-.19-.28-.37-.57-.57-.87-.26,.79-.63,1.13-1.41,1.09-.64-.03-1.07,.3-1.7,.55,.38,.21,.61,.34,.85,.47,.1,.06,.21,.11,.31,.16,.28,.14,.56,.12,.74-.14,.19-.28,.26-.66,.49-.89,.23-.22,.64,.23,.93-.1,.08-.09,.19-.14,.37-.27Zm-11.31,53.28c.39,.29,.74,.54,1.09,.79,.43-.59,.51-.77,.39-1.1-.24-.63-.92-1.01-1-1.74-.01-.11-.22-.21-.35-.29-.04-.02-.13,.05-.18,.07,.18,.68,.35,1.35,.51,1.97-.18,.11-.27,.17-.46,.3Zm.74-9.91c.92,.27,1.42-.22,2.22-.73-.92-.02-.55-1.35-1.61-1.02-.05,.27-.06,.55-.15,.8-.1,.29-.27,.56-.46,.95Zm-.42-20.64c.53,.11,1.02,.39,1.33,.25,.61-.28,1.13-.06,1.77,.09-.02-.28-.04-.48-.05-.59-.57,0-1.09,.11-1.53-.03-.42-.14-.76-.54-1.14-.83-.16,.18-.28,.25-.3,.35-.05,.22-.05,.46-.08,.76Zm-1,12.95c-.27-.12-.58-.16-.72-.34-.11-.14-.02-.44-.02-.67-.65-.19-1.17-.07-1.27,.08,.33,.45,.66,.91,1.03,1.43,.21-.11,.59-.3,.98-.5Zm4.85-30.57c-.2-.26-.42-.45-.48-.67-.13-.49-.65-.4-.73-.29-.28,.39-.91,.67-.64,1.37,.66,.06,1.28,.12,1.84-.41Zm-1.08,38.95c-.4,.32-.63,.51-.79,.64,.12,.37,.19,.62,.26,.84,.55-.34,1.42,.32,1.76-.57-.39-.52-.73-.35-1.06,.12-.06-.36-.1-.62-.18-1.04Zm-6.57-1.21s.04,.1,.06,.14c.59-.13,1.19-.26,1.86-.41-.24-.36-.47-.69-.76-1.12-.23,.15-.5,.25-.64,.43-.09,.13,.06,.42-.02,.57-.09,.17-.32,.25-.5,.37Zm-12.5-36.73c-.24,.4-.97,.58-.65,1.31q.7-.11,1.45-.92s.02-.12,.02-.18c-.23-.06-.46-.12-.82-.22Zm15.97,40.84c.07-.35,.05-.8,.26-1.07,.18-.23,.62-.26,.95-.38-.01-.06-.02-.12-.04-.19-.41,.03-.81,.07-1.24,.1-.07,.34-.13,.63-.2,.92-.23-.05-.4-.08-.56-.11-.08,.2-.14,.36-.21,.54,.37,.07,.7,.13,1.03,.19Zm3.04-43.7c.27,.59,.63,.12,.91,.11,.79-.02,.79-.06,.75-.9-.38-.12-.66,.07-.75,.38-.16,.52-.63,.17-.91,.41Zm-1.24,32.24c-.32,.13-.63,.26-.97,.39,.37,.24,.69,.44,1.04,.67,.16-.15,.27-.25,.37-.35-.16-.26-.28-.46-.44-.71Zm-5.14,8.97c-.55-.09-.94,.1-1.1,.51-.17,.45,.38,.39,.55,.57,.17-.33,.34-.68,.55-1.08Zm5.14,2.75c-.6-.29-.92,0-1.3,.44,.62,.2,1.06,.23,1.3-.44Zm-2.83-2.43c.14,.19,.29,.42,.45,.64,.17-.53,.15-.94,.1-1.36,0-.04-.12-.06-.25-.12-.1,.28-.2,.55-.3,.83Zm2.35-31.22q.42,.78,1.13,.26c-.29-.46-.68-.42-1.13-.26Zm-.42-22.02v1.4c.28-.19,.43-.3,.62-.43-.2-.31-.38-.58-.62-.96Zm14.98,2.73c.09,.42,.14,.68,.25,1.21,.27-.52,.41-.8,.6-1.17-.31-.01-.48-.02-.84-.04Zm-16.72,19.46c-.49,0-.9-.17-1.3,.27,.5,.24,.86,.32,1.3-.27Zm4.21,6.21c-.27,.21-.46,.35-.83,.63h1.29c-.2-.28-.31-.42-.46-.63Zm2.39,33.38c-.39,.3-.51,.58-.13,1,.24-.32,.59-.53,.13-1Zm-8.58-16.1c.07,.07,.14,.15,.22,.22,.33-.04,.53-.21,.51-.87-.35,.31-.54,.48-.73,.65Zm.34,15.77h1.03c-.37,.03-.66-.64-1.03,0Zm8.61-49.14c-.04-.07-.09-.15-.13-.22-.2,.03-.4,.06-.74,.11,.21,.26,.34,.42,.5,.61,.15-.21,.26-.35,.37-.5Zm5.38-5.71c-.36,.24-.48,.5-.26,.85,.21-.11,.37-.19,.54-.28-.09-.17-.17-.34-.28-.57Zm-13.99,50.88q-.33-.49-1.02-.37c.4,.14,.71,.25,1.02,.37Zm-11.35-42.89c.04-.07,.07-.14,.11-.22-.1-.04-.22-.13-.31-.11-.16,.03-.32,.12-.47,.19,.06,.08,.12,.23,.19,.23,.16,0,.33-.06,.49-.09Zm18.94,44.32c.37,.36,.53,.07,.67-.14,.03-.04-.15-.22-.27-.4-.16,.21-.28,.38-.4,.54Zm-17.06-41.06q-.46,.48,.04,.86c-.02-.3-.03-.56-.04-.86Zm12.3,3.22c-.35,.21-.53,.32-.79,.47,.15,.15,.26,.26,.4,.4,.12-.28,.21-.47,.39-.87Zm-1.67,41.95s.03,.1,.05,.15c.2-.04,.4-.08,.61-.12-.04-.1-.07-.2-.11-.3-.18,.09-.37,.18-.55,.28Zm2.15-23.43c.05,.02,.1,.03,.15,.05,.09-.18,.18-.37,.27-.55-.1-.03-.2-.07-.3-.1-.04,.2-.08,.4-.12,.6Zm-4.11-7.29c.07,.04,.15,.09,.22,.13,.08-.19,.16-.38,.24-.57-.05-.02-.1-.05-.15-.07-.11,.17-.21,.34-.32,.51Zm6.17,3.54s-.09,.09-.14,.14c.1,.11,.21,.21,.31,.32,.05-.05,.1-.1,.15-.15-.11-.1-.21-.21-.32-.31Zm-.77-5.24c0,.06,0,.13,.01,.19,.17-.03,.34-.06,.51-.09,0-.03,0-.07-.01-.1h-.51Zm-.48,23.28c0,.06,0,.12,.01,.19,.17-.03,.34-.05,.51-.08,0-.04,0-.07,0-.11h-.51Zm-2.07,4.62c-.06,0-.13,0-.19,.01,.03,.17,.06,.34,.09,.51,.03,0,.07,0,.1-.01v-.51Zm3.63,6.29s-.07-.08-.11-.11c-.11,.1-.21,.2-.32,.3,.04,.04,.07,.08,.11,.11,.11-.1,.21-.2,.32-.31Zm-1.41-45.52c-.08,.06-.17,.11-.23,.19-.03,.04,.03,.13,.05,.2,.11-.08,.21-.15,.32-.23-.04-.05-.08-.09-.14-.17Zm-16.92-2.57c-.04,.05-.11,.1-.11,.14,0,.07,.04,.13,.06,.2,.04-.04,.12-.08,.12-.12,0-.06-.04-.13-.07-.22Zm15.4-16.96c-.05-.04-.1-.11-.14-.11-.07,0-.13,.04-.2,.06,.04,.04,.08,.12,.12,.12,.06,0,.13-.04,.22-.07Zm-10.2,20.36c.05,.04,.1,.11,.14,.11,.07,0,.13-.04,.2-.06-.04-.04-.08-.12-.12-.12-.06,0-.13,.04-.22,.07Zm9.13,31.76h.09v-.37h-.09v.37Zm2.16-9.36h.09v-.37h-.09v.37Zm2.64-1.2h.09v-.37h-.09v.37Zm8.5-33.93c-.08-.03-.14-.07-.21-.07-.04,0-.08,.07-.12,.12,.06,.03,.13,.07,.19,.07,.04,0,.09-.07,.13-.11Zm-12.19,16.5c-.02-.07-.05-.13-.07-.2-.04,.04-.12,.08-.12,.12,0,.06,.04,.13,.07,.2,.04-.04,.08-.08,.13-.12Zm.67,2.17h-.09v.37h.09v-.37Zm6.97-15.04c-.05-.04-.1-.11-.14-.11-.07,0-.13,.04-.2,.06,.04,.04,.08,.12,.12,.12,.06,0,.13-.04,.22-.07Zm-8.14,16.79s-.05-.06-.08-.09c-.03,.03-.08,.05-.08,.08,0,.03,.04,.06,.07,.08,.03-.03,.06-.05,.08-.08Zm-1.92-3.84s-.05-.06-.08-.09c-.03,.03-.08,.05-.08,.08,0,.03,.04,.06,.07,.08,.03-.03,.06-.05,.08-.08Zm4.01,15.51s-.08,.05-.08,.08c0,.03,.04,.06,.07,.09,.03-.03,.08-.05,.08-.08s-.04-.06-.07-.08Zm7.2-32.4s-.08,.05-.08,.08c0,.03,.04,.06,.07,.09,.03-.03,.08-.05,.08-.08,0-.03-.04-.06-.07-.08Zm.48-.48s-.08,.05-.08,.08c0,.03,.04,.06,.07,.09,.03-.03,.08-.05,.08-.08,0-.03-.04-.06-.07-.08Zm-7.12,34.89s-.05-.08-.08-.08c-.03,0-.06,.04-.08,.07,.03,.03,.05,.08,.08,.08,.03,0,.06-.04,.08-.07Zm-4.4,1.11s-.08,.05-.08,.08c0,.03,.04,.06,.07,.09,.03-.03,.08-.05,.08-.08,0-.03-.04-.06-.07-.08Zm4.32,4.56s-.08,.05-.08,.08c0,.03,.04,.06,.07,.09,.03-.03,.08-.05,.08-.08,0-.03-.04-.06-.07-.08Zm2.15,5.92s.06-.05,.09-.08c-.03-.03-.05-.08-.08-.08-.03,0-.06,.04-.08,.07,.03,.03,.05,.06,.08,.08Zm-5.03,1.04s-.08,.05-.08,.08c0,.03,.04,.06,.07,.09,.03-.03,.08-.05,.08-.08,0-.03-.04-.06-.07-.08Zm-2.17,1.12s.06-.05,.09-.08c-.03-.03-.05-.08-.08-.08-.03,0-.06,.04-.08,.07,.03,.03,.05,.06,.08,.08Zm1.2,4.32s.06-.05,.09-.08c-.03-.03-.05-.08-.08-.08-.03,0-.06,.04-.08,.07,.03,.03,.05,.06,.08,.08Z"/>
      <path class="cls-1" d="M25.45,79.94c-.16,.41-.68,.62-.34,1.14,.32-.29,.63-.58,.97-.88,.88,.64,1.76,1.28,2.64,1.93,.06,.05,.14,.09,.18,.15,1.28,1.78,2.61,3.53,3.05,5.75,.15,.76,.33,1.52,.46,2.29,.05,.31,.09,.66,0,.95-.21,.66-.26,1.26-.03,1.95,.13,.39-.07,.92-.21,1.37-.29,.94-.29,2.02-1.25,2.67-.12,.08,0,.48-.09,.68-.09,.21-.36,.33-.47,.53-.54,.92-1.41,1.44-2.33,1.88-2.34,1.09-4.77,1.26-7.25,.64-.93-.24-1.87-.51-2.68-1.1-.36-.26-.73-.45-.81-.94-.02-.11-.18-.24-.3-.28-.27-.08-.66,0-.81-.17-.5-.54-1-1.12-1.35-1.77-.63-1.15-1.19-2.35-1.51-3.65-.48-1.93-.78-3.89-.52-5.86,.14-1.13,.11-2.34,.86-3.36,.24-.32,.22-.82,.39-1.21,.11-.26,.18-.64,.63-.58,.06,0,.18-.13,.21-.22,.53-1.6,.69-1.76,2.09-2.17,.18-.05,.39-.15,.48-.29,.5-.73,1.22-.97,2.03-.88,.58,.06,1.28-.39,1.73,.34,0,.01,.13-.02,.14-.05,.28-.64,.64-.2,.97-.07,.43,.18,.77,.79,1.35,.3,.59,.31,1.17,.61,1.76,.92Zm-3.37,12.58c-.08-.09-.14-.19-.23-.26-.62-.51-.62-.69,0-1.17,.23-.17,.45-.36,.67-.53-.34-.52-1.09-.68-.98-1.47-.13,.33-.12,.7-.31,.9-.27,.3-.25,.64-.35,.97-.08,.25-.38,.42-.63,.67,1,.07,.46,1.02,.79,1.43,.58,.15,.76-.26,1.03-.55Zm-3.38-10.2c-.26,.03-.43,.04-.68,.07,.13,.56,.23,1.04,.33,1.49,.77-.2,1.32,.25,1.97,.69,.08-.25,.23-.46,.19-.61-.13-.51-.12-.96,.26-1.34-.7-.31-.53,.62-.77,.63-.54-.06-.85-.1-1.2-.14-.02-.19-.05-.42-.1-.79Zm5.78,9.05c.11-.67-.29-.88-.66-1.15-.24,.13-.48,.26-.75,.41,.03,.34,.06,.68,.1,1.14,.53-.16,.95-.29,1.32-.4Zm-4.89-5.19c-.99-.03-1,.63-1.19,1.13,.34-.32,.68-.65,1.19-1.13Zm9.19,7.97c.21,.19,.32,.28,.45,.39,.19-.22,.35-.4,.51-.59l-.12-.16c-.25,.11-.51,.22-.84,.36Zm.36-4.45c.51-.04,.82-.07,1.33-.11-.53-.38-.84-.43-1.33,.11Zm-8.34,9.18q.44,.47,.92,.1c-.37-.04-.65-.07-.92-.1Zm.74-10.13c.6-.04,.95,.4,1.53,.21-.49-.33-.88-.55-1.53-.21Zm-4.77,4.13c.19-.34,.29-.44,.27-.51-.02-.08-.15-.12-.23-.19-.06,.08-.16,.16-.17,.25-.01,.1,.06,.21,.14,.45Zm13.94-2.06c-.06,0-.12,0-.19,.01l.08,.51s.07,0,.11,0v-.51Zm-3.1,4.19s-.08-.09-.12-.13c-.02,.07-.07,.13-.06,.2,0,.04,.07,.08,.11,.12,.03-.06,.05-.13,.07-.18Zm-7.01,3.48c-.08-.03-.14-.07-.21-.07-.04,0-.08,.07-.12,.12,.06,.02,.13,.07,.19,.07,.04,0,.09-.07,.13-.11Zm-.27-.76c-.04,.05-.11,.1-.11,.14,0,.07,.04,.13,.06,.2,.04-.04,.12-.08,.12-.12,0-.06-.04-.13-.07-.22Zm4.83-.72h-.09v.37h.09v-.37Zm-5.25,.07s-.05-.06-.08-.09c-.03,.03-.08,.05-.08,.08,0,.03,.04,.06,.07,.08,.03-.03,.06-.05,.08-.08Zm0-1.44s-.05-.08-.08-.08c-.03,0-.06,.04-.08,.07,.03,.03,.05,.08,.08,.08s.06-.04,.08-.07Zm5.2-2.49s-.08,.05-.08,.08c0,.03,.04,.06,.07,.09,.03-.03,.08-.05,.08-.08,0-.03-.04-.06-.07-.08Zm4.64-.87s-.05-.08-.08-.08c-.03,0-.06,.04-.08,.07,.03,.03,.05,.08,.08,.08,.03,0,.06-.04,.08-.07Zm-8.24-4.89s-.08,.05-.08,.08c0,.03,.04,.06,.07,.08,.03-.03,.08-.05,.08-.08,0-.03-.04-.06-.07-.08Zm-6.64-1.83s-.05-.08-.08-.08c-.03,0-.06,.04-.08,.07,.03,.03,.05,.08,.08,.08,.03,0,.06-.04,.08-.07Z"/>
      <path class="cls-1" d="M35.96,67.86c-.29,.05-.55,.1-.88,.16,.23,1.09-.3,1.78-.98,2.52-.59,.65-1.33,1.06-1.96,1.63-.29-.15-.58-.31-.92-.49-.51,1.09-1.23,1.09-2.27,.9-2.1-.38-3.8-1.43-5.35-2.75-1.4-1.2-2.75-2.49-3.99-3.85-1.6-1.75-2.75-3.8-3.21-6.16-.2-1.02,.05-2.04,.4-3.01,.09-.26,.37-.47,.6-.65,.22-.18,.47-.3,.21-.64-.04-.05,.02-.25,.09-.31,.6-.57,1.21-1.14,1.83-1.69,.41-.37,1.06-.17,1.42-.44,.43-.33,.86-.51,1.36-.6,.27-.05,.53-.14,.8-.15,1.2-.02,2.4,0,3.59-.01,.49-.01,.85,.11,1.03,.7,.16-.13,.3-.24,.5-.4,1.16,.66,2.65,.66,3.69,1.7,.91,.08,1.46,.73,2.03,1.32,.57,.6,1.15,1.21,1.62,1.88,.66,.93,1.01,2.02,1.19,3.15,.09,.58,.19,1.16,.23,1.74,.04,.56,0,1.12,0,1.71-.23,.18-.47,.37-.69,.54,.02,.12,0,.23,.04,.26,.28,.17,.5,.34,.36,.74-.27,.73-.5,1.46-.75,2.2Zm-7.35-3.04c-.15,.06-.44,.1-.44,.17-.04,.34,.24,.28,.45,.27v1.7c.48-.52,.65-1.18,1.34-1.34,.06-.01,.04-.33,.07-.53-.54,.07-.99,.13-1.44,.19,0-.17,0-.34,0-.52,.23-.01,.46-.02,.97-.04-.39-.11-.52-.19-.61-.16-.12,.04-.22,.16-.33,.24Zm-2.19-1.86c-.15-.46-.42-.93-.42-1.41,0-.42,.31-.85,.48-1.27h-.9c-.1,.49-.35,.87-.17,1.44,.1,.34,.18,.97-.36,1.3-.12,.08-.12,.35-.23,.7,.39-.25,.71-.56,.81-.5,.4,.24,.59,.05,.8-.27Zm-4.68-3.18c-.81,1.6-.72,1.68-.14,2.23,.51,.48,.51,.49,1.22,.04-.54-.48-.99-1.01-.53-1.76-.21-.2-.38-.35-.55-.51Zm4.38-1.67c-.41,0-.84-.1-1.19,.02-.5,.19-.98,.51-1.41,.84-.43,.34-.25,.88,.44,1.26,.26-.43,.44-.93,.79-1.28,.36-.36,.87-.56,1.36-.85Zm-3.39-2.84c1.3,.71,1.94,.31,1.92-1-.88-.17-1.03,.91-1.92,1Zm8.74,7.19c.16,.22,.33,.45,.56,.77,.16-.54,.3-.94,.38-1.35,.03-.14-.09-.3-.17-.53-.28,.41-.48,.7-.77,1.11Zm-4.65-4.42c.57-.04,.92-.06,1.28-.08-.07-.63-.5-.66-.93-.57-.12,.03-.18,.33-.35,.65Zm6.04,6.31c-.11,0-.23,0-.34,0,.06,.3,.01,.7,.19,.89,.39,.41-.2,.64-.18,1.1,1.17-.67,.15-1.38,.33-1.99Zm-2,3.92c.59-.38,.84-.73,.77-1.41-.53,.33-.98,.56-.77,1.41Zm-.96-5.75c-.09,.55-.15,.91-.22,1.35,.34-.06,.58-.1,.92-.17-.24-.41-.43-.72-.71-1.18Zm-.39,5.87c-.4,.13-.74,.23-1.07,.34,0,.05,0,.11,0,.16,.35,.07,.69,.14,1.08,.22v-.71Zm-6.03-2.61c-.29,.23-.55,.42-.86,.66,.57,.31,.85-.01,1.16-.3-.08-.1-.16-.19-.3-.36Zm1.98,2.72q-.37-.65-.88-.2c.23,.32,.5,.48,.88,.2Zm-1.77-5.19c.49-.37,.41-.62-.03-.85-.43,.29-.4,.56,.03,.85Zm-4.81-7.72c.1,.09,.19,.18,.29,.26,.18-.25,.8-.14,.81-.46-.37,.07-.73,.13-1.1,.2Zm-.32,1.98c-.33,.18-.51,.28-.77,.42,.24,.15,.4,.25,.63,.4,.05-.28,.08-.46,.14-.82Zm7.88,11.52c-.02,.32-.17,.77,.44,.63-.16-.22-.3-.43-.44-.63Zm2.41-13.52c-.08-.03-.17-.06-.25-.08-.05,.19-.11,.38-.15,.57,0,0,.18,.07,.19,.06,.08-.18,.15-.36,.21-.55Zm1.18,13.78c.02,.37,.03,.63,.05,1.04,.16-.41,.65-.65-.05-1.04Zm2.36-1.48c-.07,.14-.17,.24-.15,.31,.02,.07,.16,.18,.23,.17,.07-.01,.18-.15,.17-.23,0-.07-.13-.14-.24-.25Zm-1.35-8.56c-.1-.11-.17-.23-.24-.24-.08,0-.17,.1-.25,.16,.06,.08,.11,.22,.18,.24,.07,.02,.17-.08,.31-.16Zm-2,.64c.1,.11,.17,.23,.24,.24,.08,0,.17-.1,.25-.16-.06-.08-.11-.22-.18-.24-.07-.02-.17,.08-.31,.16Zm-3.11,7.7s-.08-.09-.12-.13c-.02,.07-.07,.13-.06,.2,0,.04,.07,.08,.11,.12,.03-.07,.05-.13,.07-.18Zm-2.91-2.96c-.05-.04-.1-.11-.14-.11-.07,0-.13,.04-.2,.06,.04,.04,.08,.12,.12,.12,.06,0,.13-.04,.22-.07Zm5.7-4.9s-.08,.05-.08,.08c0,.03,.04,.06,.07,.09,.03-.03,.08-.05,.08-.08,0-.03-.04-.06-.07-.08Zm-8.56,4.41s-.05-.08-.08-.08c-.03,0-.06,.04-.08,.07,.03,.03,.05,.08,.08,.08,.03,0,.06-.04,.08-.07Zm11.28,0s-.05-.06-.08-.09c-.03,.03-.08,.05-.08,.08,0,.03,.04,.06,.07,.08,.03-.03,.06-.05,.08-.08Zm-5.04,2.16s-.05-.06-.08-.09c-.03,.03-.08,.05-.08,.08s.04,.06,.07,.08c.03-.03,.06-.05,.08-.08Z"/>
      <path class="cls-1" d="M60.33,32.36c-.19-.13-.32-.22-.46-.32,.24-.48,.48-.97,.74-1.5,.24-.04,.5-.08,.78-.12,.03-.13,.09-.25,.08-.35-.03-.42,.03-.79,.4-1.06,1.28-.97,2.58-1.97,4.2-2.24,1.09-.18,2.19-.69,3.35-.16,.29,.13,.7,.02,1.1,.02-.04,.18-.06,.28-.11,.48,.97-.33,1.8,.04,2.6,.5,.23,.13,.55,.33,.6,.54,.11,.53,.38,.72,.88,.68-.04,.65,.96,.36,.92,1.01,.93,.87,1.35,2.09,1.57,3.22,.27,1.37,.74,2.75,.57,4.19-.27,2.37-.51,4.74-1.74,6.86-.11,.18-.18,.47-.11,.65,.09,.22,.07,.36-.06,.51-.21,.25-.65,.53-.61,.72,.11,.52-.33,.57-.52,.82-.21,.28-.51,.5-.8,.7-.84,.6-1.8,.61-2.74,.43-1.15-.22-2.26-.63-3.2-1.37-1.12-.88-2.34-1.66-3.19-2.85-.06-.09-.11-.21-.2-.26-1.31-.75-2.36-1.8-3.16-3.04-.88-1.36-1.84-2.72-2.12-4.36-.18-1.02,.02-2.05,.4-3.01,.1-.26,.47-.41,.81-.69Zm9.09,7.26c-.36,.65-.36,.7,.09,1.16,.25-.44,.12-.82-.13-1.2,.06-.02,.12-.04,.19-.07-.03-.03-.06-.06-.09-.09-.02,.06-.04,.12-.06,.19Zm1.57,1.02c.44-.61,.82-1.14,1.3-1.8-1.23,.3-1.58-.43-1.81-1.52-.27,.76-.46,1.31-.65,1.84q.92,.39,1.16,1.47Zm2.26,1.09q-.52-.47-2.05,.19c1.12,.2,1.06,.2,.95,1.34-.05,.52,.16,1.07,.25,1.61,.07,0,.13,0,.2,.01,.14-.34,.27-.68,.39-.99-.17-.35-.32-.66-.47-.98,.25-.41,.49-.8,.73-1.19Zm-5.21-8.74c-.08-.21-.15-.4-.24-.62-.4,.3-.83,.47-.99,.79-.27,.52,.37,.73,.6,1.15,.17-1.03,1.24-.5,1.75-1.15-.38-.06-.72-.11-1.12-.17Zm-5.27,1.09c.21-.74,.39-1.37,.58-2.05-.1-.24-.23-.54-.44-1.05-.32,.35-.52,.57-.62,.68,.17,.53,.26,.91,.4,1.27,.2,.49-.5,.62-.44,1.1,.2,.02,.35,.03,.52,.04Zm11.96,5.15c.09,.46,.12,.85,.26,1.2,.06,.16,.35,.33,.52,.31,.18-.02,.41-.19,.21-.51-.11-.18-.02-.47-.11-.68-.16-.37-.44-.53-.88-.31Zm-5.28,3.91c.42,.1,.76,.18,1.15,.27q-.22-1.15-1.15-1.04v.77Zm2.61-6.73c-.17-.79-.84-.59-1.24-.84-.06-.04-.28,.19-.46,.31,.48,.46,.97,.72,1.69,.53Zm-6.8-2.59v-1.65c-.64,.49-.54,1.07-.58,1.65h.58Zm8.6,2.91c-.37,.02-.68,.04-1.06,.06,.29,.27,.48,.49,.72,.66,.12,.08,.35,.13,.48,.07,.26-.12,.08-.31,0-.46-.04-.06-.05-.14-.13-.33Zm-1.39-6.11c.09,.42,.08,.69,.17,.74,.39,.18,.78,.2,1.03-.32-.35-.12-.66-.23-1.2-.42Zm-4.11,5.79q-.63-.64-1.19-.3c.45,.11,.82,.21,1.19,.3Zm-4.73,2.25q-.12-.75-.77-.44c.26,.15,.47,.27,.77,.44Zm6.32-6.39c.28,.2,.53,.39,.81,.59q0-.65-.81-.59Zm-6.97,8.5c.6-.01,.39-.33,.33-.7-.13,.29-.22,.47-.33,.7Zm7.74-7.62s-.05,.09-.07,.14c.12,.07,.24,.14,.37,.21,.01-.07,.06-.19,.04-.2-.1-.07-.22-.1-.34-.15Zm.71,.28c0,.06,0,.12,.01,.19,.17-.03,.34-.05,.51-.08,0-.04,0-.07,0-.11h-.51Zm3.67,1.33s0-.07,0-.11h-.6s0,.07,0,.11h.6Zm-8.16,6.68c-.05-.04-.1-.11-.14-.11-.07,0-.13,.04-.2,.06,.04,.04,.08,.12,.12,.12,.06,0,.13-.04,.22-.07Zm-2.64-12.24c-.05-.04-.1-.11-.14-.11-.07,0-.13,.04-.2,.06,.04,.04,.08,.12,.12,.12,.06,0,.13-.04,.22-.07Zm1.44,1.68c-.05-.04-.1-.11-.14-.11-.07,0-.13,.04-.2,.06,.04,.04,.08,.12,.12,.12,.06,0,.13-.04,.22-.07Zm4.31,4s-.06,0-.09,0v.37h.09v-.37Zm4.28-3.13s-.08,.05-.08,.08c0,.03,.04,.06,.07,.09,.03-.03,.08-.05,.08-.08s-.04-.06-.07-.08Zm-4.01-3.99s-.05-.06-.08-.09c-.03,.03-.08,.05-.08,.08,0,.03,.04,.06,.07,.08,.03-.03,.06-.05,.08-.08Z"/>
      <path class="cls-1" d="M106.85,71.99c-.05-.36,0-.76-.13-.85-.6-.37-.37-.68-.03-1.03,.78-.78,1.6-1.47,2.6-2.01,1.19-.65,2.43-1.04,3.71-1.33,.57-.13,1.2-.11,1.79-.02,1.75,.25,3.42,.77,4.97,1.82,.03,.19,.07,.45,.11,.79,.3-.04,.55-.08,.88-.13,.53,.6,1.18,1.22,1.67,1.95,.69,1,.99,2.18,1.23,3.38,.14,.69-.47,1.23-.3,1.88,.17,.68-.18,1.23-.44,1.78-.44,.94-1.02,1.8-1.61,2.66-.71,1.04-1.63,1.79-2.54,2.59-.14,.12-.33,.27-.5,.27-.44,.01-.75,.12-.91,.59-.06,.18-.34,.3-.54,.41-1.69,.96-3.52,1.39-5.44,1.16-1.01-.12-1.94-.61-2.76-1.22-1.11-.82-2.16-1.7-2.51-3.14-.77-.58-.97-1.46-1.19-2.32-.44-1.76-.74-3.52-.11-5.32,.22-.62,.27-1.29,.82-1.78,.37-.34,.7-.46,1.23-.13Zm5.82,2.63c-.24,.16-.47,.35-.73,.47-.28,.13-.59,.19-.89,.26-1.03,.25-1.33,.9-.82,1.79,.23,.42,.45,.85,.64,1.22-.41,.57-1.25,.43-1.39,1.15,.33,.31,.59,.05,.88-.03,.66-.18,.93,.04,1.03,.74,.03,.24-.14,.59,.33,.64,.38-.76,.32-1.52,.11-2.12-.28-.17-.45-.26-.61-.36,.41-.46-.07-.88-.07-1.32,0-.41-.02-.95,.49-.93,1.1,.04,.92-.79,1.03-1.5Zm-4.36-2.03c.72,.9,1.52,.42,2.27,.29,.12-.23,.22-.44,.33-.64-.16-.33-.49-.7-.42-.95,.19-.67-.22-.77-.63-1-.23,.95-.82,1.64-1.56,2.3Zm5.94,5.18v-1.32c-.68-.3-1.25-.16-1.12,.14,.22,.55-.26,.92-.19,1.34,.48,.33,.91,.64,1.37,.92,.37,.23,.67,.11,.91-.31-.3-.24-.6-.48-.96-.77Zm-1.34-5.9c-.34,.65,.39,.49,.55,.75,.18,.3,.23,.7,.34,1.09,.73-.48,.39-1.07,.46-1.55q-.7-.35-1.35-.28Zm.92,8.59c.01,.89,.15,1.15,.57,1.14,.43-.02,.7-.39,.77-1.14h-1.33Zm1.1-4.94c.24-.4,.41-.67,.57-.94-.5-.24-.92-.45-1.35-.66-.05,.05-.09,.1-.14,.15,.28,.43,.55,.87,.92,1.45Zm-3.29,7.64c0,.11,.01,.23,.02,.34,.42,0,.84,.03,1.27,.01,.26-.01,.71,.38,.76-.08,.05-.49-.4-.16-.65-.19-.3-.03-.59-.16-.89-.2-.16-.02-.33,.07-.5,.12Zm1.19-12.41c-.2-.31-.34-.58-.53-.8-.06-.07-.3-.06-.4,0-.09,.05-.17,.24-.15,.35,.05,.25,.16,.49,.28,.8,.28-.12,.51-.22,.79-.35Zm5.39,2.01c-.09,.19-.19,.39-.3,.6,.48,.43,.91,.44,1.36-.05-.36-.19-.7-.37-1.07-.55Zm-2.21-1.79c-.08-.05-.16-.1-.25-.15-.17,.24-.43,.47-.49,.74-.06,.28,.08,.6,.13,.91,.07,0,.14,0,.21,0,.13-.5,.26-1,.39-1.5Zm-7.79,7.72c.06,0,.13-.02,.19-.02-.04-.16-.12-.32-.11-.47,.02-.2,.12-.39,.26-.8-.47,.17-.74,.27-1.03,.38,.27,.36,.48,.64,.69,.91Zm11.43,.95c-.17-.32-.23-.61-.36-.65-.51-.14-.49,.31-.64,.65h.99Zm-2.28-10.2c-.53-.38-.83-.07-1.16,.29,.43,.15,.79,.21,1.16-.29Zm-4.32,11.87c-.04-.07-.09-.14-.13-.2-.27,.04-.53,.09-.93,.15,.21,.26,.32,.4,.5,.63,.21-.21,.39-.39,.56-.58Zm4-2.07c-.1,0-.2,0-.3,.01-.06,.31-.22,.63,.3,1.05v-1.06Zm.63-7.59c.74-.09,.85-.24,.78-.95-.25,.3-.52,.63-.78,.95Zm-2.21,11.92l.22-.22c-.04-.33-.21-.53-.87-.51,.31,.35,.48,.54,.65,.73Zm1.76-10.43c-.11,.27-.31,.57-.25,.64,.3,.34,.43-.04,.65-.25-.11-.11-.22-.22-.4-.39Zm1.15,3.08c-.16,.24-.68,.37-.3,.92,.13-.39,.21-.65,.3-.92Zm-2.16-3.21c.13,.25,.22,.43,.34,.67,.1-.25,.18-.44,.29-.71-.24,.01-.42,.02-.63,.04Zm-2.57-2.91c.16-.06,.29-.08,.29-.11,.03-.26,.05-.52,.06-.78l-.13-.02c-.07,.28-.14,.57-.22,.9Zm-1.11-1.52c-.02-.06-.04-.12-.06-.18-.17,.05-.35,.1-.52,.15,.04,.06,.1,.18,.13,.17,.15-.03,.3-.09,.45-.14Zm3.34,11.46l-.17-.13c-.08,.1-.19,.18-.22,.29-.03,.1,.03,.23,.07,.45,.15-.29,.24-.45,.32-.62Zm-5.65-5.35c-.1-.11-.17-.23-.24-.24-.08,0-.17,.1-.25,.16,.06,.08,.11,.22,.18,.24,.07,.02,.17-.08,.31-.16Zm.31,8.89c0,.06,0,.13,.01,.19,.17-.03,.34-.06,.51-.09,0-.03,0-.07-.01-.1h-.51Zm5.47-9.07c.05,.04,.1,.11,.14,.11,.07,0,.13-.04,.2-.06-.04-.04-.08-.12-.12-.12-.06,0-.13,.04-.22,.07Zm-6.96,6.72c.05,.04,.1,.11,.14,.11,.07,0,.13-.04,.2-.06-.04-.04-.08-.12-.12-.12-.06,0-.13,.04-.22,.07Zm-2.57-1.98s-.08,.05-.08,.08c0,.03,.04,.06,.07,.09,.03-.03,.08-.05,.08-.08,0-.03-.04-.06-.07-.08Zm10.07-.8s.06-.05,.09-.08c-.03-.03-.05-.08-.08-.08-.03,0-.06,.04-.08,.07,.03,.03,.05,.06,.08,.08Zm-.4-.79s-.05-.06-.08-.09c-.03,.03-.08,.05-.08,.08,0,.03,.04,.06,.07,.08,.03-.03,.06-.05,.08-.08Zm.48,3.84s-.05-.08-.08-.08c-.03,0-.06,.04-.08,.07,.03,.03,.05,.08,.08,.08,.03,0,.06-.04,.08-.07Z"/>
      <path class="cls-1" d="M23.32,13.36c0-.2-.02-.52,0-.84,.02-.19,.05-.41,.16-.55,.47-.59,.97-1.15,1.46-1.72,.08-.09,.16-.2,.26-.25,.76-.36,1.41-.93,2.19-1.21,.44-.15,.97-.03,1.59-.03,.03-.09,.11-.29,.2-.55h1.36c.45,.47,.9,.95,1.35,1.43,.71-.48-.19-.91,.26-1.45-.11,.08-.03-.02,.01,0,1.19,.45,2.47,.53,3.65,1.2,1.22,.69,2.48,1.33,3.6,2.16,1.43,1.07,2.65,2.35,3.17,4.16,.21,.75,.27,1.45-.01,2.19-.65,1.71-1.55,3.19-3.09,4.3-.83,.6-1.63,1.21-2.51,1.75-.29,.18-.53,.31-.86,.3-.15,0-.37,0-.44,.1-.75,.95-1.91,.98-2.92,1.28-.78,.24-1.65,.26-2.47,.28-2.65,.07-4.74-.99-6.37-3.11-1.41-1.83-2.09-3.85-1.99-6.13,.04-.85,.13-1.73,.59-2.49,.16-.27,.45-.46,.84-.83Zm1.42,2.99c-.02-.06-.04-.12-.07-.19-.03,.03-.06,.06-.09,.09,.06,.02,.12,.04,.19,.06-.33,.34-.16,.7-.02,1.09-.24,.08-.45,.16-.66,.23-.12,.42-.13,.8,.27,1.03,.94-.31,.36-1.46,1.09-1.92,.09-.05,.01-.37,.01-.57-.29,.07-.51,.12-.72,.17Zm13.5,4.37c-.04-.07-.08-.13-.12-.2-.17,.03-.38,.15-.51,.08-.51-.25-.66-.92-1.28-1.1-.11-.03-.2-.58,.27-.79,.1,.25,.18,.45,.29,.75,.09-.3,.14-.48,.2-.67,.1,.13,.19,.25,.37,.48,.18-.51,.33-.95,.48-1.41-.6-.1-1.08-.18-1.58-.26-.06,.19-.1,.52-.18,.53-.95,.14-.67,.81-.65,1.38,0,.12-.11,.24-.17,.36,.68,.56,1.29,1.06,1.88,1.55,.4-.29,.71-.5,1.01-.71Zm-1.13-6.15c-.08-.4-.14-.72-.17-.9-.55,.1-1.03,.18-1.52,.26,.09-.62,.41-1.2-.4-1.75-.07,1.34-1.21,1.92-1.85,2.93,.49,.2,.61,.93,1.3,.69,.69-.24,.08-.74,.15-1.05,1.01-.67,1.07-.66,1.64,.38,.29-.19,.57-.39,.85-.57Zm-4.73,7.17c.87-.82,.44-1.68,.45-2.48-1.07,.02-1.09,.08-1.14,.96-.04,.65,.48,.93,.69,1.53Zm3.65,.15c-.79-.85-1.4-.64-2.09,.87,.68-.65,1.62-.07,2.09-.87Zm-7.02-7.81c-.78-.6-1.32,.57-2.05,.2-.03-.01-.14,.08-.17,.15-.05,.1-.08,.21-.11,.31,.08,.06,.16,.15,.21,.13,.22-.05,.44-.12,.66-.19,.12-.04,.91-.05,1.09-.04,.5,.02,.47-.27,.38-.56Zm-2.4,8.75c.23,.15,.44,.4,.66,.4,.33,0,.69-.1,.98-.25,.48-.26,.42-.68,.13-1.25-.19,.35-.32,.59-.4,.74-.46,.26-.93-.09-1.37,.36Zm7.13-5.58c-.97-.59-1.38-.57-1.96-.03,.11,.19,.22,.38,.36,.61,.51-.19,.97-.35,1.6-.58Zm-2.88-3.77c-.68-.01-.47,.66-.75,.9-.28,.03-.51,.05-.82,.09,.45,.22,.8,.4,1.19,.59,.33-.49,.71-.95,.38-1.58Zm-3.84-2.19c-.11,.44-.21,.88-.34,1.39,.23,.01,.4,.02,.63,.04,.12-.47,.22-.9,.34-1.38-.28-.02-.43-.03-.63-.04Zm6.15-.51c-.01,.31-.01,.5-.04,.68-.02,.16-.08,.32-.15,.56,.5-.31,.91-.56,1.37-.85-.39-.13-.71-.24-1.19-.39Zm.25,7.84c.6,.38,1,.23,1.43-.39-.55,.08-1.03-.19-1.43,.39Zm-8.43,1.72c.36-.07,.64-.12,1.01-.2-.78-.63-.83-.61-1.01,.2Zm2.38-3.19c.55,.26,.81,.06,1.04-.54-.4,.13-.67,.22-.94,.31-.02,0-.03,.06-.1,.24Zm3.57-.28c.18-.15,.34-.25,.44-.39,.03-.04-.15-.21-.23-.32-.13,.12-.27,.23-.37,.37-.03,.04,.08,.18,.16,.35Zm-1.65,2.11c.22,.19,.44,.39,.67,.59,.2-.62-.23-.64-.67-.59Zm2.18-7.94c-.54,.3-.47,.48-.04,.67,.01-.2,.02-.37,.04-.67Zm4.51,4.43s-.08-.01-.12-.02v.76s.08,0,.12,0v-.74Zm.78,1.63c-.34-.19-.44-.29-.51-.27-.08,.02-.12,.15-.18,.23,.08,.06,.16,.16,.25,.17,.1,.01,.21-.06,.45-.14Zm-1.81-1.26s-.05,.09-.07,.14c.12,.07,.24,.14,.37,.21,.01-.07,.06-.19,.04-.2-.1-.07-.22-.1-.34-.15Zm-2.77-2.79c-.03-.1-.05-.17-.06-.24-.11,.08-.21,.15-.32,.23,.04,.05,.09,.14,.12,.13,.1-.02,.18-.07,.27-.11Zm-.33,2.36c-.04,.05-.11,.1-.11,.14,0,.07,.04,.13,.06,.2,.04-.04,.12-.08,.12-.12,0-.06-.04-.13-.07-.22Zm7.12,1.48c.05,.04,.1,.11,.14,.11,.07,0,.13-.04,.2-.06-.04-.04-.08-.12-.12-.12-.06,0-.13,.04-.22,.07Zm-9.95,3.67s0-.06,0-.09h-.37v.09h.37Zm4.98,1.07s-.08,.05-.08,.08c0,.03,.04,.06,.07,.09,.03-.03,.08-.05,.08-.08,0-.03-.04-.06-.07-.08Z"/>
      <path class="cls-1" d="M114.65,20.6c.43,1.28-.12,2.4-.92,3.32-1.85,2.13-2.21,2.4-5.04,3.42-.13-.19-.25-.38-.45-.69-.32,.21-.63,.41-.93,.61-.16,.11-.33,.21-.48,.33-.38,.29-.69-.83-1.09-.04-.46-.04-.92-.08-1.39-.12-1.34-.1-2.24-.94-3.02-1.89-.56-.68-.97-1.5-1.46-2.24-.21-.31-.48-.58-.71-.87-.17-.21-.32-.44-.48-.66-.32-.45-.53-.91-1.06-1.28-.54-.37-.86-1.21-1.06-1.9-.48-1.7-.04-3.22,1.15-4.53,.33-.36,.43-.96,1.11-.93,.11,0,.23-.29,.36-.43,.16-.16,.32-.35,.51-.45,.93-.52,1.86-1.04,2.81-1.52,.39-.2,.77-.63,1.3-.26,.05,.03,.24-.14,.37-.21,.84-.45,1.69-.83,2.68-.55,.09,.03,.2,0,.3-.02,1.8-.38,3.21,.45,4.53,1.5,2.04,1.63,3.02,3.89,3.54,6.35,.17,.8,.06,1.67,0,2.51-.01,.18-.33,.33-.56,.55Zm-8.77-.57c.45,.19,.81,.63,1.23,.2,.16-.17,.23-.54,.19-.78-.09-.49-.52-.56-.98-.65-.15,.43-.28,.79-.43,1.23Zm-.18-2.09c.48-.25,.93-.49,1.42-.74-.47-.35,.01-1.11-.68-1.28-.33,.57-.64,1.11-.98,1.71,.05,.06,.14,.18,.25,.32Zm-1.66,5.55c.46,.32,.9,.63,1.34,.94-.17-.64,.37-1.27-.05-1.77-.45,.29-.83,.54-1.29,.83Zm7.4-2.04c-.05-.27-.06-.55-.16-.79-.04-.11-.24-.18-.39-.21-.04,0-.17,.15-.18,.24-.05,.59-.42,.7-.92,.68-.15,0-.31,.03-.47,.04,.1-.09,.21-.19,.31-.28,.11,.25,.23,.51,.3,.67,.2-.5,.89-.03,1.5-.36Zm-1.34-3.29c.29,.09,.65,.1,.86,.28,.2,.17,.27,.51,.47,.94,.32-.32,.56-.56,.84-.83-.71-.84-1.49-.42-2.18-.39Zm-.53-2.57c.36-.08,.65-.18,.95-.21,.56-.07,.45-.36,.34-.6h-1.29v.82Zm-1.42,6.14c-.99-.26-1.74-.41-2.19,.54,.77,.2,1.34-.27,2.19-.54Zm.93,1.17c-.75,.32-1.35,.58-2.12,.91,.29,.09,.49,.23,.59,.18,.52-.27,1.21-.31,1.53-1.08Zm2.43-6.62h1.24c-.49-.11-.66-.49-.75-.99-.47,.25-.71,.48-.49,.99Zm-1.49-3.91c.37,.49,.62,.41,.85-.03-.29-.43-.56-.4-.85,.03Zm-2.36,4.73c.53,.21,.86,.32,1.14-.13-.38-.21-.68-.25-1.14,.13Zm3.25,2.31c-.29,.23-.54,.37-.23,.59,.1,.07,.26,.06,.39,.08-.05-.2-.1-.41-.16-.68Zm-1.56-5.21c-.16-.1-.27-.17-.38-.24-.06,.12-.18,.26-.17,.37,.01,.1,.17,.19,.26,.28,.08-.11,.16-.23,.29-.41Zm-3.79,.67c-.02,.09-.05,.17-.07,.26,.19,.05,.37,.1,.56,.14,0,0,.07-.18,.06-.19-.18-.08-.36-.15-.55-.21Zm-2.63-.71s.03-.09,.04-.14c-.21-.08-.41-.16-.62-.24-.02,.07-.04,.15-.07,.22,.21,.05,.43,.11,.64,.16Zm6.52,4.43c-.06,0-.12,0-.19,0,.03,.17,.05,.34,.08,.51,.04,0,.07,0,.11,0v-.51Zm-5.4-4.02c.06-.04,.15-.1,.15-.11-.04-.09-.09-.18-.14-.27-.08,.04-.16,.09-.23,.13,.08,.08,.15,.16,.23,.25Zm4.38,6.83s-.08,.05-.08,.08c0,.03,.04,.06,.07,.08,.03-.03,.08-.05,.08-.08,0-.03-.04-.06-.07-.08Zm1.52-2.31s-.05-.08-.08-.08c-.03,0-.06,.04-.08,.07,.03,.03,.05,.08,.08,.08,.03,0,.06-.04,.08-.07Z"/>
      <path class="cls-1" d="M73.92,10.21c-.69-.92-.56-2.02-.39-2.98,.36-1.95,1.17-3.75,2.74-5.08,.68-.57,1.33-1.25,2.35-1.19,.14,0,.31-.07,.42-.17,.98-.87,2.12-.89,3.32-.66,.11,.02,.22,.1,.33,.09,1.72-.13,2.83,.2,4.09,1.2,.24,.19,.5,.37,.77,.53,1.26,.74,1.99,1.96,2.38,3.24,.27,.88,.53,1.78,.79,2.68,.26,.9-.05,1.83-.33,2.66-.53,1.59-1.22,3.12-2.64,4.18-.39,1.03-1.32,1.57-2.09,2.25-1.18,1.05-2.6,1.79-4.12,2.13-1.29,.29-2.68,.33-3.96-.24-.9-.4-1.53-1.16-2.09-1.91-.86-1.13-1.3-2.47-1.53-3.87-.1-.58-.11-1.2-.35-1.71-.25-.54,.02-.82,.31-1.15Zm8.37,6.22c.01-.79,.62-1.24,1.19-1.72q-.52-1.09,.03-1.78c-.27,.07-.55,.07-.6,.17-.18,.39-.44,.44-.75,.23-.31-.21-.36-.51-.16-.83,.24-.38,.14-.68-.29-.98-.18,.29-.48,.56-.51,.86-.05,.45-.17,.94,.16,1.38,.15,.21,.34,.56,.26,.73-.28,.58-.05,1.13,.03,1.67-.69,.41-1.27,.01-1.84-.18-.4-.13-.7-.21-1.2,.15,.81,.24,1.58,.18,1.88,.78,.64-.17,1.2-.32,1.81-.49Zm1.68-3.98c.51,.75,1.01,1.49,1.6,2.36,.14-.68,.23-1.17,.32-1.59-.14-.35-.41-.69-.36-.97,.06-.32,.4-.6,.6-.87-.3-.42-.62-.4-.78-.04-.2,.45-.48,.67-.96,.74-.13,.02-.23,.2-.42,.37Zm2.13-4.48c.45-.26,.97-.29,1.09-.95,.09-.51,.38-.98,.03-1.49-.38,.49-.67,.92-1.02,1.32-.31,.35-.3,.69-.1,1.13Zm-6.13-3.45c-.09-.08-.18-.15-.27-.23,.02,.38,.05,.77,.07,1.14,.57-.5,1.06-.94,1.58-1.4-.21-.19-.46-.43-.71-.67,.08,.11,.16,.22,.23,.32-.3,.28-.6,.55-.91,.83Zm1.46,1.01c-.25,.14-.5,.27-.8,.44,.11,.3,.18,.56,.31,.78,.19,.33,.47,.31,.7,0,.34-.46,.15-.83-.21-1.22Zm2.25,5.73c.22-.35,.42-.68,.63-1.03-.43-.21-.77-.38-1.12-.54-.42,.69,.28,1.04,.49,1.58Zm.77-2.45c.08-.3,.15-.55,.23-.87-.47,.07-.96-.2-1.29,.33,.14,.53,.43,.77,1.06,.55Zm3.9,.29c-.05-.62,.18-1.3-.27-1.97-.46,.8,.21,1.35,.27,1.97Zm-3.59,6.37c-.2-.15-.34-.26-.53-.4-.26,.3-.48,.55-.73,.83,.64,.43,.89-.03,1.27-.43Zm3.13-3.38c-.34-.19-.44-.29-.51-.27-.08,.02-.12,.15-.18,.23,.08,.06,.16,.16,.25,.17,.1,.01,.21-.06,.45-.14Zm-8.75-.8s.04-.1,.06-.14c-.13-.07-.25-.13-.38-.2-.01,.07-.05,.19-.03,.21,.1,.06,.23,.09,.34,.14Zm2.58-8.68s.06,0,.09,0v-.37h-.09v.37Zm-3.01,7.66s0-.06,0-.09h-.37v.09h.37Zm8.33,.99s.06-.05,.09-.08c-.03-.03-.05-.08-.08-.08s-.06,.04-.08,.07c.03,.03,.05,.06,.08,.08Zm-2.31-1.03s-.05-.08-.08-.08c-.03,0-.06,.04-.08,.07,.03,.03,.05,.08,.08,.08,.03,0,.06-.04,.08-.07Zm.24-6.24s-.05-.08-.08-.08c-.03,0-.06,.04-.08,.07,.03,.03,.05,.08,.08,.08,.03,0,.06-.04,.08-.07Z"/>
      <path class="cls-1" d="M113.82,61.22c-.66-.45-1.21-1-1.48-1.79-.07-.22-.2-.53-.37-.58-.7-.22-.75-.86-.98-1.38,.13-.26,.27-.54,.43-.87-.12-.14-.22-.31-.37-.43-.48-.37-.6-.84-.63-1.45-.07-1.48,.17-2.91,.54-4.32,.34-1.32,1.11-2.45,1.8-3.6,.2,.06,.34,.1,.56,.17-.15-.66,.24-1.05,.66-1.43,1.42-1.28,3.05-1.55,4.92-1.26,1.41,.22,2.59,.81,3.75,1.55,.43,.27,.74,.53,.77,1.09,.01,.21,.31,.57,.46,.56,.68-.04,1.05,.41,1.36,.84,.59,.82,1.15,1.68,1.6,2.58,.18,.35,.57,.79,.2,1.29-.05,.06-.02,.25,.04,.32,.5,.5,.48,1.02,.21,1.63-.1,.24,.06,.6,.1,.9,.08,.54,.05,1.01-.19,1.58-.33,.77-.54,1.55-1.32,2-.05,.03-.07,.14-.08,.21-.43,2.29-2.26,3.09-4.13,3.66-1.38,.42-2.87,.49-4.34,.38-.08,0-.17,0-.23-.03-1.05-.67-2.46-.62-3.31-1.66,.06-.02,.12-.04,.19-.07-.03-.03-.06-.06-.09-.09-.02,.06-.04,.12-.06,.19Zm7.2-.76c.02,.06,.04,.12,.07,.19,.03-.03,.06-.06,.09-.09-.06-.02-.12-.04-.19-.06-.02-.06-.04-.12-.06-.18-.03,.03-.06,.06-.09,.09,.06,.02,.12,.04,.18,.06Zm-2.66-6.72c.08-.09,.15-.19,.23-.28-.05-.03-.09-.06-.14-.09-.02,.1-.05,.2-.07,.3,0,.03,0,.07,0,.11-.08,.08-.16,.16-.25,.24-.8-.02-.39,.52-.29,.9,.08-.31,.17-.62,.25-.93,.08-.08,.17-.16,.25-.24Zm-2.38-2.76c-.46-.13-.88-.25-1.34-.38-.07,.29-.12,.48-.17,.66-.06,.22-.13,.43-.21,.7,.49,.12,.93,.22,1.43,.34,.02-.24,.02-.43,.06-.61,.05-.22,.15-.43,.24-.7Zm2.93,2.06c.34-1.33,.33-1.37-1.06-2.26,.15,.48,.14,.93,.03,1.31,.37,.35,.69,.65,1.03,.96Zm1.67-3.77q.99-.69,.78-1.93h-.78v1.93Zm-3.67-1.98c.11-.08,.29-.22,.48-.36-.52-.4-.74-.39-.92,.02-.17,.39-.31,.79-.49,1.18-.17,.37-.22,.69,.2,1.04,.23-.59,.45-1.15,.74-1.88Zm1.63,8.8c-.17,.31-.29,.55-.4,.75,.21,.4,.41,.76,.58,1.07,.13-.08,.32-.18,.61-.35,.24-.58-.23-.99-.78-1.48Zm1.81-6.54c-.5-.15-.86-.3-1.24-.35-.51-.07-.59,.22-.43,.62,.55-.12,.96,.14,1.37,.56,.11-.32,.19-.52,.3-.84Zm-4.98,5.21c-.43-.38-.78-.69-1.2-1.06-.14,1.22-.02,1.33,1.2,1.06Zm2.56,5.83c.58,.46,.98,.23,1.4-.33-.53,.02-1-.22-1.4,.33Zm.32-1.98h-.8v1.31c.31-.5,.51-.82,.8-1.31Zm-1.98-2.32c.32-.42,.5-.67,.74-.99q-.76-.04-.74,.99Zm2.75-8.28c-.35-.24-.54-.37-.84-.57v.99c.25-.13,.45-.22,.84-.42Zm-5.19,1.61c.19,.1,.37,.2,.65,.34,.01-.28,.06-.45,.02-.58-.05-.14-.18-.25-.31-.41-.13,.23-.23,.42-.36,.65Zm1.86,8.86q.36,.22,1.62-.17c-.7,.04-1.15-.12-1.62,.17Zm4.15-12.6c-.11-.11-.17-.24-.24-.25-.08,0-.17,.1-.25,.16,.06,.08,.11,.21,.18,.24,.07,.02,.17-.08,.31-.15Zm3.55,3.47s-.07-.08-.11-.11c-.11,.1-.21,.2-.32,.3,.04,.04,.07,.08,.11,.11,.11-.1,.21-.2,.32-.31Zm-6.3,3.3c-.08-.03-.14-.07-.21-.07-.04,0-.08,.07-.12,.11,.07,.03,.13,.07,.19,.07,.04,0,.09-.07,.13-.11Zm3.15,5.55s-.05-.08-.08-.08c-.03,0-.06,.04-.08,.07,.03,.03,.05,.08,.08,.08,.03,0,.06-.04,.08-.07Zm-5.52-.72s-.05-.06-.08-.09c-.03,.03-.08,.05-.08,.08,0,.03,.04,.06,.07,.08,.03-.03,.06-.05,.08-.08Zm1.61-1.05s-.08,.05-.08,.08c0,.03,.04,.06,.07,.09,.03-.03,.08-.05,.08-.08,0-.03-.04-.06-.07-.08Zm.08-5.43s-.05-.08-.08-.08c-.03,0-.06,.04-.08,.07,.03,.03,.05,.08,.08,.08s.06-.04,.08-.07Zm-2,2.31s-.08,.05-.08,.08c0,.03,.04,.06,.07,.09,.03-.03,.08-.05,.08-.08,0-.03-.04-.06-.07-.08Z"/>
      <path class="cls-1" d="M54.39,51.48c.74,.34,1,.82,.83,1.62-.05,.23-.25,.59-.19,.64,.74,.58,.38,1.39,.35,2.04-.05,.94-.24,1.93-.91,2.71-.38,.44-.8,.81-1.03,1.41-.17,.44-.77,.77-1.24,1.04-.95,.54-1.97,.96-3.05,1.15-.3,.05-.65-.16-1.06-.28-1.03,.65-2.3,.47-3.47,.29-1.02-.16-2.17-.31-2.92-1.25-.07-.09-.31-.05-.44-.12-.23-.12-.48-.24-.65-.43-.45-.52-.79-1.15-1.3-1.59-.51-.44-.73-.98-.87-1.58-.19-.76-.32-1.52-.48-2.28-.02-.08-.02-.16,0-.24,.28-1.7,.11-3.47,.74-5.1,.55-1.44,1.21-2.84,2.69-3.6,.8-.41,1.61-.74,2.54-.78,3.01-.13,5.57,.93,7.95,2.71,.88,.66,1.55,1.45,2.18,2.29,.25,.34,.22,.88,.33,1.37Zm-6.56,8.22q-1.52,.1-2.1,.78c.52,0,1,.03,1.47,0,.26-.02,.53-.11,.77-.22,.68-.32,.76-.88,.24-1.38-.13-.12-.29-.23-.4-.36-.28-.34-.28-.96-.94-.91-.45,.04-.65-.6-1.11-.42-.26,.11-.28,.06-.39-.16-.09-.17-.33-.27-.55-.44-.29,.74,0,1.22,.39,1.67,1.07-.37,1.65,.57,2.45,.87,.1,.03,.1,.33,.16,.58Zm4.22-8.72c-.08-1.27-.86-1.86-2.41-1.81,.17,.76,.76,1.35,1.38,1.48,.35,.07,.69,.22,1.03,.33Zm-.7,2.62c-.08,0-.17-.01-.25-.02-.14,.39-.34,.78-.39,1.18-.02,.2,.2,.52,.4,.63,.13,.08,.46-.06,.62-.19,.21-.17,.36-.44,.53-.66-.14-.17-.29-.36-.45-.55-.13,.18-.22,.31-.34,.48-.04-.33-.08-.6-.11-.87Zm-2.16,4.07q.51,.76,1.38,1.09c.06,.02,.14,0,.24-.02,.09-.16,.18-.33,.27-.5-.47-.54-1.05-.74-1.88-.58Zm-4.71-4.02v1.05c.4-.06,.64,.51,1.17,.07-.1-.38-.22-.8-.34-1.23-.29,.04-.54,.07-.83,.11Zm2.66,.86c-.04,.89-.21,1.52,.01,1.97,.28-.35,.53-.66,.78-.98,.09,.09,.18,.18,.27,.27-.29-.35-.59-.7-1.06-1.26Zm-5.01-2.03c-.47,.12-.75,.18-1.02,.25-.01,0,0,.07-.01,.16,.55,.44,1.12,.89,1.71,1.36,.13-.79-.59-.76-.93-1.07,.05-.14,.1-.27,.25-.69Zm.32-1.9c-.15-.34-.17-.8-.68-.62-.12,.04-.15,.35-.25,.62h.93Zm8.27,1.56c.34-.25,.8,.37,1.31-.23-.57-.05-.95-.18-1.31,.23Zm-.59,4.23c.02-.28,.03-.57,.05-.93-.46,.29-.6,.56-.05,.93Zm-.62-4.22c.02,.05,.03,.1,.05,.15,.2-.04,.4-.08,.6-.12l-.1-.3c-.18,.09-.37,.18-.55,.27Zm-2.2-.44s-.09-.04-.14-.06c-.07,.13-.13,.25-.2,.38,.07,.01,.19,.05,.21,.03,.06-.1,.09-.23,.14-.34Zm.39,5.47c-.04,.05-.11,.1-.11,.14,0,.07,.04,.13,.06,.2,.04-.04,.12-.08,.12-.12,0-.06-.04-.13-.07-.22Zm-3.37,2.38s-.08,.05-.08,.08c0,.03,.04,.06,.07,.09,.03-.03,.08-.05,.08-.08,0-.03-.04-.06-.07-.08Zm8.48-2.79s-.05-.08-.08-.08c-.03,0-.06,.04-.08,.07,.03,.03,.05,.08,.08,.08,.03,0,.06-.04,.08-.07Zm-8.88-.96s-.05-.08-.08-.08c-.03,0-.06,.04-.08,.07,.03,.03,.05,.08,.08,.08,.03,0,.06-.04,.08-.07Zm-.8-2.25s-.08,.05-.08,.08c0,.03,.04,.06,.07,.09,.03-.03,.08-.05,.08-.08,0-.03-.04-.06-.07-.08Zm1.76-1.59s-.05-.08-.08-.08c-.03,0-.06,.04-.08,.07,.03,.03,.05,.08,.08,.08s.06-.04,.08-.07Zm3.12,1.44s-.05-.06-.08-.09c-.03,.03-.08,.05-.08,.08,0,.03,.04,.06,.07,.08,.03-.03,.06-.05,.08-.08Z"/>
      <path class="cls-1" d="M79.02,112.58c-.31,.4-.61,.62-1.14,.25-.57-.4-1.24-.66-1.84-1.02-.23-.14-.55-.37-.56-.58-.04-.51-.38-.7-.73-.8-.6-.18-.74-.74-.96-1.14-1.24-2.21-1.72-4.61-1.48-7.14,.05-.49,.23-.99,.43-1.45,.32-.75,.52-.77,1.29-.3,.08,.05,.28-.1,.53-.2-.29-.37-.53-.67-.77-.97,.44-.57,1-.84,1.74-.84,.47,0,.95-.12,1.42-.23,.57-.13,1.11-.45,1.7-.06,.08,.06,.28-.05,.42-.09,1.55-.47,3.09-.42,4.67-.14,.81,.14,1.6,.24,2.41,.47,.94,.27,1.31,.86,1.6,1.65,.38,.08,.92,.04,1.09,.27,.42,.55,.71,1.21,.95,1.87,.39,1.06,.25,2.19,.25,3.34-.67,.25-.92,.68-.58,1.38,.1,.2,.17,.52,.08,.68-.43,.76-.57,1.71-1.37,2.25-.09,.06-.2,.16-.23,.27-.42,1.47-1.77,1.95-2.9,2.56-1.16,.63-2.49,.88-3.85,.92-.64,.02-1.17-.06-1.4-.82-.23,.25-.38,.4-.63,.67-.07-.35-.12-.59-.17-.83,.1-.05,.21-.09,.3-.17,.06-.05,.08-.14,.12-.22-.06-.03-.13-.06-.19-.08-.06,.17-.13,.33-.19,.5Zm1.38-5.02c-.94-.11-1.19,.41-1.23,1.11-.54,.09-.95,.12-1.15-.53-.16-.53-.41-.51-.73-.04-.09,.13-.16,.26-.25,.43,.38,.35,.57,.87,1.27,.56,.43-.18,.27,.33,.37,.59,.33-.02,.67-.04,.99-.06,.17-.74,.84-1.22,.73-2.06Zm-5.19-4.28c.42-.14,.71-.24,1-.33,.65-.22,1.29-.52,1.96-.61,.23-.03,.49,0,.52-.21,.04-.29-.06-.61-.13-.91,0-.04-.18-.06-.28-.05-.27,.03-.55,.04-.8,.12-.21,.07-.53,.2-.56,.34-.16,.86-.79,.83-1.42,.86-.11,0-.21,.08-.33,.13,.01,.17,.02,.32,.04,.66Zm-.57,3.53c.37-.19,.77-.24,.94-.68-.51-.05-.93-.09-1.32-.12-.06-.24-.1-.41-.16-.64q-.54,.82,.54,1.45Zm6.65,.43c.48-.39,.4-.75,.11-1.36-.34,.34-.58,.58-.77,.76,.08,.21,.09,.26,.11,.28,.16,.1,.33,.2,.54,.32Zm-2.72-1.49q.28-1.27-.41-1.84c.26,.64-.09,1.19,.41,1.84Zm6.39-3.59c.01-.49,.24-1.03-.37-1.32-.13-.06-.36,.08-.52,.12,.33,.44,.6,.81,.9,1.2Zm-6.25,4.76c-.13-.08-.27-.15-.39-.24-.09-.07-.17-.16-.25-.24-.08,.16-.26,.37-.21,.47,.18,.36,.46,.55,.86,.02Zm-2.31-2.13c.04,.43,.06,.72,.09,1.07,.21-.06,.4-.11,.7-.2-.29-.32-.49-.54-.79-.88Zm6.97-.41c.27-.15,.44-.24,.62-.33-.23-.35-.5-.5-.94-.19,.1,.16,.2,.32,.32,.52Zm-8.93,.43c.05-.18,.11-.37,.14-.55,0,0-.14-.09-.19-.07-.35,.16-.15,.38,.04,.62Zm12.44-2.26c-.05,.26-.76,.53,0,.8v-.8Zm-5.64-1.02s-.04,.1-.05,.15c.18,.09,.37,.19,.55,.28,.04-.1,.07-.2,.11-.3l-.61-.13Zm-6.24,7.66s.09-.09,.14-.14c-.1-.11-.21-.21-.31-.32-.05,.05-.1,.1-.15,.15,.11,.1,.21,.21,.32,.31Zm3.97-6.26s-.08-.09-.12-.13c-.02,.07-.07,.13-.06,.2,0,.04,.07,.08,.11,.12,.03-.06,.05-.13,.07-.18Z"/>
      <path class="cls-1" d="M43.57,100.51c.16-.15,.28-.38,.42-.4,1.11-.09,2.21-.04,3.28,.3,.48,.16,.97,.29,1.43,.48,1.17,.48,2.06,1.32,2.7,2.39,1.02,1.72,1.54,3.61,1.42,5.62-.05,.86-.04,1.73-.29,2.57-.36,.11-.72,.22-1.1,.34,.59,.97,.58,1.1-.18,1.72-1.34,1.12-2.9,1.64-4.64,1.66-.4,0-.8-.02-1.2,0-.58,.04-1.09-.09-1.55-.44-.18-.13-.48-.31-.61-.24-.63,.33-1.11-.03-1.63-.26-1.26-.57-2.43-1.24-3.42-2.26-1.02-1.06-1.49-2.35-1.81-3.72-.17-.7-.24-1.43-.35-2.15-.08-.54,.13-.96,.41-1.43,.23-.37,.08-.95,.28-1.35,.65-1.31,1.83-2.05,3.16-2.49,.37-.13,.89,.17,1.06-.45,.88,.07,1.81-.87,2.61,.1Zm5.03,6.04c-.1-.78,.93-1.25,.57-2.06-.36-.11-.68-.21-1.03-.31-.3,.9-.22,1.67,.47,2.37Zm-4.86,2.13c.75-.07,1-.38,.94-1.05-.04-.42-.31-.37-.61-.24-.1,.39-.2,.8-.32,1.29Zm.47,3.73c.56-.68,.37-.96-.67-1.17-.19,.6,.28,.81,.67,1.17Zm-5.95-2.34q.65,.07,1.07-.29-.65-.42-1.07,.29Zm4.34-6.59q1.04,.28,1.54-.26c-.5,.04-.95-.13-1.54,.26Zm4.66-.09c-.62-.23-.97-.36-1.34-.5v.74c.38-.07,.72-.13,1.34-.25Zm-5.16,4.58c-.13,.28-.28,.45-.26,.61,.01,.13,.21,.25,.34,.39q.3-.49-.07-1Zm5.54,.45h1.13q-.66-.46-1.13,0Zm-.1-5.69c.4,.61,.67,.57,.94,.04-.29-.01-.54-.03-.94-.04Zm-1.54,7.67c.11-.12,.21-.23,.38-.41h-.75c.16,.18,.26,.29,.37,.41Zm.07-7.97c-.01-.6-.33-.39-.7-.33,.29,.13,.47,.22,.7,.33Zm.54,5.46c-.15-.05-.27-.11-.28-.1-.06,.11-.09,.22-.14,.34,.12-.07,.24-.14,.42-.24Zm-5.4,2.98s.05-.09,.07-.14c-.12-.07-.24-.14-.37-.21-.01,.07-.06,.19-.04,.2,.1,.07,.22,.1,.34,.15Zm2.25-4.34s-.08-.09-.12-.13c-.02,.07-.07,.13-.06,.2,0,.04,.07,.08,.11,.12,.03-.07,.05-.13,.07-.18Zm6.88-.4c-.04,.05-.11,.1-.11,.14,0,.07,.04,.13,.06,.2,.04-.04,.12-.08,.12-.12,0-.06-.04-.13-.07-.22Zm-9.61-2.9s-.08,.05-.08,.08c0,.03,.04,.06,.07,.09,.03-.03,.08-.05,.08-.08,0-.03-.04-.06-.07-.08Zm5.35,1.77s-.05-.06-.08-.09c-.03,.03-.08,.05-.08,.08,0,.03,.04,.06,.07,.08,.03-.03,.06-.05,.08-.08Zm-2.23,4.95s-.08,.05-.08,.08c0,.03,.04,.06,.07,.09,.03-.03,.08-.05,.08-.08,0-.03-.04-.06-.07-.08Zm2.24,.81s-.05-.08-.08-.08c-.03,0-.06,.04-.08,.07,.03,.03,.05,.08,.08,.08,.03,0,.06-.04,.08-.07Zm.4,.39s-.08,.05-.08,.08c0,.03,.04,.06,.07,.09,.03-.03,.08-.05,.08-.08,0-.03-.04-.06-.07-.08Z"/>
      <path class="cls-1" d="M88.58,57.18c.43-.04,.78-.07,1.16-.1-.24-.68-.83-.31-1.32-.53-.27-.93-.81-1.88-.74-2.94,.03-.48-.47-.87-.12-1.35-.44-.86-.02-1.7,.13-2.51,.33-1.82,2-3.17,3.76-3.48,2.41-.42,4.45,.45,6.54,1.27,1.55,.61,2.9,1.56,4.06,2.76,.22,.23,.68,.4,.34,.87-.01,.02,.12,.13,.17,.2,.17,.21,.38,.39,.49,.63,.51,1.07,.81,2.17,.46,3.37-.14,.48-.19,.99-.26,1.5-.27,2.08-2.85,4.68-4.8,5.16-.21,.05-.48,.12-.66,.04-.36-.15-.57-.22-.89,.18-.17,.21-.74,.16-1.12,.14-.44-.02-.88-.05-1.33-.04-.79,0-1.61-.24-2.27-.79-.6-.51-1.2-1.02-1.78-1.55-.32-.29-.69-.56-.62-1.09,.01-.1-.06-.29-.12-.31-.72-.19-.63-.95-1.09-1.43Zm6.91-1.38c.18-.89,.31-1.57,.44-2.23,.19-.05,.35-.09,.62-.17-.38-.12-.63-.2-.89-.28q-.28,.78-.96,.77c-.22-.42-.13-.77,.31-.98-.48-.4-.88-.16-1.3,.02,.21,.07,.4,.15,.6,.22-.12,.22-.21,.38-.3,.55-.09-.13-.16-.24-.26-.38-.11,.24-.2,.43-.28,.62,.36,.18,.72,.28,.95,.5,.37,.37,.2,.72-.29,1.03-.41-.3-.86-.62-1.35-.98-.34,.86,0,1.56,.24,2.46-.02,.06-.13,.32-.25,.6h1.63c-.08-.46-.14-.86-.22-1.33,.81,0,.54-.86,.95-1.42,.13,.35,.21,.56,.37,.99Zm3.37,.12c.18,.29,.34,.54,.47,.75,.57-.15,1.02-.26,1.45-.37,.18-.37,.39-.71,.51-1.07,.04-.13-.12-.34-.26-.68-.24,.68-.4,1.14-.59,1.67-.31-.07-.57-.14-.83-.19-.26-.05-.53-.08-.75-.11Zm-4.97-5.37c.24-.28,.45-.51,.7-.79h-1.17c-.01,.72-.16,1.39,.49,1.85,.44-.39,.04-.68-.02-1.07Zm4.03,5.13c.57-.2,.6-.61,.49-.99-.05-.19-.32-.32-.63-.61-.04,.68-.36,1.14,.14,1.6Zm-5.73-7.8c.56,.22,.83,.03,.99-.5-.56-.22-.83-.03-.99,.5Zm3.66,8.16c.32,.46,.6,.44,.86-.02-.26-.38-.52-.47-.86,.02Zm-4.79-.83c-.02,.21-.07,.36-.05,.5,.02,.16,.11,.31,.24,.61q.11-.58-.19-1.12Zm1.04-4.59q.05-.51-.32-.64c.11,.22,.2,.41,.32,.64Zm3.44,8.22c.07,.06,.14,.11,.2,.17,.09-.2,.19-.4,.28-.6-.05-.02-.09-.05-.14-.07-.12,.17-.23,.33-.35,.5Zm-2.64-5.77c-.02-.07-.05-.13-.07-.2-.04,.04-.12,.08-.12,.12,0,.06,.04,.13,.07,.2,.04-.04,.08-.08,.13-.12Zm-.56,.13c.03-.08,.07-.14,.07-.21,0-.04-.07-.08-.11-.12-.02,.06-.07,.13-.07,.19,0,.04,.07,.09,.11,.13Zm-1.66-.84s-.06,0-.09,0v.37h.09v-.37Zm8.45-1.45c-.02-.07-.05-.13-.07-.2-.04,.04-.12,.08-.12,.12,0,.06,.04,.13,.07,.2,.04-.04,.08-.08,.13-.12Zm.43,7.02c-.08-.03-.14-.07-.21-.07-.04,0-.08,.07-.12,.11,.07,.03,.13,.07,.19,.07,.04,0,.09-.07,.13-.11Zm-2.61-.21s-.05-.06-.08-.09c-.03,.03-.08,.05-.08,.08,0,.03,.04,.06,.07,.08,.03-.03,.06-.05,.08-.08Z"/>
      <path class="cls-1" d="M10.44,73.64c-.15-.19-.31-.4-.47-.6-.13,.24-.26,.48-.4,.76-1.2,.6-2.49,.37-3.75,.1-.47-.1-.87-.51-1.29-.63-.49-.14-.96-.25-1.38-.55-.42-.3-.83-.56-.99-1.13-.06-.21-.5-.29-.66-.51-.73-.98-1.34-2.08-1.43-3.29-.12-1.61-.19-3.24,.44-4.8,.56-1.38,1.15-2.74,2.15-3.87,.12-.13,.25-.28,.4-.37,.49-.29,.68-1.02,1.41-.98,.11,0,.25-.19,.33-.32,.5-.74,1.2-1.08,2.08-1.06,.28,0,.56,0,.84,0,1.68-.03,3.03,.63,4.09,1.94,.31,.38,.7,.7,1,1.09,1.08,1.4,1.8,2.98,2.26,4.69,.39,1.44,.59,2.92,.03,4.29-.44,1.08-.8,2.26-1.73,3.14-.88,.83-1.81,1.54-2.93,2.09Zm-4.7-9.09c-.7-.05-1.26,.13-1.82,.54-.44,.32-1.1,.36-1.7,.53,.18,.2,.37,.35,.49,.55,.14,.22,.23,.48,.34,.72,.55,.33,1.22-.38,1.61,.07,.05,.36,.01,.61,.12,.75,.24,.32,.6,.54,.82,.87,.29,.44,.56,.63,1.14,.46,.95-.28,1.68,.35,1.52,1.32-.09,.52,.16,.79,.36,1.16,.55-.45,.6-.47,.43-.92-.11-.28-.05-.41,.08-.63,.36-.57,.36-1.43,.11-2.13-.08-.22-.04-.47-.09-.7-.04-.15-.14-.29-.21-.44-.07,.01-.13,.03-.2,.04-.04,.53-.08,1.06-.12,1.56-1.52,.41-2.54-.3-3.37-1.2,.09-.31,.18-.55,.22-.8,.06-.37,.08-.74,.12-1.11,.47,.03,.52-.51,.89-.64,.2-.07,.36-.26,.49-.37-.04-.8-.6-.26-.87-.43-.07-.35-.13-.69-.2-1.06,.61-.1,1.23-.23,1.87-.29,.5-.05,.46-.31,.41-.47-1.01-.41-1.73,.32-2.59,.39-.03,.15-.06,.31-.09,.47-.24-.24-.46-.46-.83-.82-.04,.55-.06,.89-.08,1.27,.42,.18,.81,.35,1.15,.49v.81Zm-1.38,3.72c-.52,.08-.94,.14-1.37,.21,.33,.55,.62,1.04,.94,1.58,.23-.13,.58-.24,.58-.35,0-.48-.09-.97-.15-1.44Zm2.5,4.1c-.05-.43-.09-.62-.08-.8,0-.24,.06-.49,.1-.8-.55,.14-1.05,.27-1.73,.45,.59,.4,1.02,.69,1.72,1.15Zm1.88-8.65c.48,.53-.51,1.29,.27,1.74,.49-.28,.77-.65,.57-1.22-.29-.18-.57-.35-.84-.52Zm-.17,1.92c-.61,.38-1.06,.67-1.63,1.03,.8,.33,1.17-.35,1.76-.31-.05-.25-.07-.4-.13-.72Zm-4.26-4.03c.02-.59,1.04-.79,.55-1.74-.34,.6-.96,.94-.55,1.74Zm2.77-3.24q-.23,.9,.36,1.09c0-.4,.18-.79-.36-1.09Zm3.78,4.12c.19-.13,.3-.2,.42-.28-.09-.09-.18-.25-.28-.26-.12-.01-.25,.1-.38,.16,.07,.11,.14,.22,.24,.38Zm-7.72,.11c-.05,.06-.11,.13-.16,.19,.15,.12,.18,.39,.67,.24-.21-.18-.36-.3-.51-.43Zm9.08,1.34c-.06,0-.12,0-.19,.01,.03,.17,.05,.34,.08,.51,.04,0,.07,0,.11,0v-.51Zm-6.26,1.63s-.06,0-.09,0v.37h.09v-.37Zm-3.4,2.15s-.08,.05-.08,.08c0,.03,.04,.06,.07,.09,.03-.03,.08-.05,.08-.08,0-.03-.04-.06-.07-.08Z"/>
      <path class="cls-1" d="M12.96,28.81c1.07-.11,2.15,.23,3.22,.65,.29,.11,.64,.2,.83,.42,.6,.66,1.51,.96,2.01,1.72,.3,.46,.62,.91,.87,1.39,.28,.56,.64,1.13,.71,1.73,.16,1.21,.48,2.47-.24,3.64-.08,.14-.03,.35-.07,.53-.04,.21-.04,.53-.17,.61-.67,.4-.74,1.26-1.37,1.68-.62,.42-1.19,.91-1.83,1.28-1.56,.9-3.16,1.73-4.73,2.61-1.17,.66-2.46,.69-3.7,.5-1.41-.22-2.22-1.33-2.67-2.59-.39-1.09-.88-2.18-.78-3.42,.04-.57-.18-1.16-.21-1.74-.03-.65,.06-1.3,.52-1.82,.05-.05,.05-.22,.01-.25-.45-.34-.11-.77-.03-1.06,.52-1.88,1.65-3.4,3.17-4.58,1.11-.86,2.81-1.29,4.44-1.29Zm-3.3,5.74c-.06,.13-.13,.27-.2,.4,.07,.02,.14,.08,.21,.07,.06,0,.18-.11,.17-.12-.07-.11-.15-.22-.22-.32-.26-.7,.6-1.14,.44-1.91h-1.16c.06-.14,.13-.28,.22-.48-.24,.02-.45,.04-.71,.07,.09,.17,.11,.31,.19,.36,.09,.05,.22,.02,.34,.02,.05,.14,.11,.28,.19,.49-.46,.33-.94,.67-1.53,1.09,.79,.13,1.43,.23,2.07,.33Zm-.49,4.84h-1.14c-.06,.46-.1,.8-.14,1.12-.25,.06-.44,.11-.68,.17,.21,.55,.41,1.05,.56,1.44,.88-.15,1.7-.25,2.43-.02,.56,.17,.69-.54,1.14-.32,.34,.17,.67,.34,1.09,.56-.1-.61-.17-1.05-.24-1.48-1.03-.05-1.9,.23-2.58,.94-.92-.67-.23-1.21,.04-1.73-.19-.27-.35-.49-.51-.72,.31,.04,.63,.08,.94,.13v-1.28c-.33,.02-.61,.03-1.07,.05,.23,.36,.37,.58,.51,.79-.09,.09-.22,.22-.34,.34Zm3.48-1.49c.43-.06,.88-.18,1.34-.19,.52,0,.89-.15,1.08-.66-1.24,.19-2.47,.38-3.66,.56,.44,.37,.91,.77,1.38,1.16-.11,.26-.18,.44-.25,.61q.84,1.23,1.95,1.08c-.86-.66-1.58-1.37-1.83-2.56Zm-.58-7.14c-.23,.1-.32,.16-.43,.19-.71,.25-.85,.51-.49,1.13,.14,.25,.39,.45,.6,.66,.42,.42,.43,.74-.05,1.13-.3,.25-.49,.48-.34,.75,.41-.16,.77-.31,1.1-.44,.02-1.12-.55-2.14-.39-3.43Zm1.06,.97c.18,.41,.29,.67,.39,.9,.6-.12,1.09-.21,1.63-.32-.01-.2-.02-.37-.03-.58h-1.99Zm-3.93,4.18c-.46-.14-.75-.6-1.3-.15,.13,.29,.26,.61,.41,.95,.33-.3,.59-.53,.89-.8Zm1.99,.4c.72-.3,.7-.72,.46-1.28-.63,.24-.63,.66-.46,1.28Zm-4.57,1.61c.53,.05,.78-.12,.88-.65-.22-.07-.47-.25-.65-.2-.42,.13-.11,.54-.23,.85Zm13.4-3.74h-.81c.06,.35,.11,.61,.21,1.15,.28-.52,.42-.79,.61-1.15Zm-5.97,1.12c.22-.23,.39-.41,.61-.64-.65-.16-.78,.07-.61,.64Zm-5.2,8.26c-.08-.03-.14-.07-.21-.07-.04,0-.08,.07-.12,.12,.06,.02,.13,.07,.19,.07,.04,0,.09-.07,.13-.11Zm3.57-8.92c-.04,.05-.11,.1-.11,.14,0,.07,.04,.13,.06,.2,.04-.04,.12-.08,.12-.12,0-.06-.04-.13-.07-.22Zm-1.69,1.18s-.08,.05-.08,.08c0,.03,.04,.06,.07,.09,.03-.03,.08-.05,.08-.08,0-.03-.04-.06-.07-.08Zm-1.45,7.84s.06-.05,.09-.08c-.03-.03-.05-.08-.08-.08-.03,0-.06,.04-.08,.07,.03,.03,.05,.06,.08,.08Z"/>
      <path class="cls-1" d="M40.27,33.58c.18-.94,.19-2.14,.63-3.15,.8-1.79,2.41-2.8,4.26-3.27,1.44-.37,2.93-.68,4.44-.5,1.23,.15,2.51,.19,3.6,.91,.29,.19,.6,.39,.83,.64,.33,.37,.46,.95,1.12,.9,.27,.55,.57,1.09,.8,1.66,.11,.28,.02,.66,.15,.92,.6,1.14,.2,2.24-.18,3.27-.26,.7-.6,1.44-1.09,2.02-.51,.6-1.11,1.14-1.72,1.65-1.44,1.19-3.17,1.86-4.94,2.32-1.59,.41-3.24,.45-4.79-.34-.17-.09-.36-.17-.5-.3-1.16-1.08-2.02-2.34-2.26-3.95-.13-.85-.22-1.71-.35-2.77Zm7.75-4.94c-1.01-.08-1.2-.04-1.35,.27-.16,.34-.07,1.02,.18,1.2,.46,.34,.78-.07,1.17-.23v-1.24Zm4.21,.97c-.38-.02-.79-.15-.86-.04-.53,.8-1,.34-1.56-.08v.92c.78,.22,1.42-.18,2.09-.32,.1-.02,.17-.23,.33-.48Zm-2.69,5.53c.02,.73-.34,1.32,.45,1.74-.47-.49,.56-1.12-.45-1.74Zm1.53-5.92c0-.41,.08-.68-.02-.79-.1-.1-.38-.02-.78-.02,.32,.32,.49,.49,.81,.81Zm-6.84,9.14c.28,.15,.57,.29,.92,.48,.03-.91-.47-.64-.92-.48Zm-1.35-3.13c.04-.26,.53-.43,.13-.76-.05-.04-.21-.03-.27,.01-.38,.31-.16,.53,.14,.75Zm-1.06,2.34s.09,.04,.14,.06c.07-.13,.13-.25,.2-.38-.07-.01-.19-.05-.21-.03-.06,.1-.09,.23-.14,.34Zm10.71-3.16c-.08-.03-.14-.07-.21-.07-.04,0-.08,.07-.12,.12,.06,.02,.13,.07,.19,.07,.04,0,.09-.07,.13-.11Zm-6.45,2.91s-.05-.06-.08-.09c-.03,.03-.08,.05-.08,.08s.04,.06,.07,.08c.03-.03,.06-.05,.08-.08Zm-.07-.57s-.08,.05-.08,.08c0,.03,.04,.06,.07,.09,.03-.03,.08-.05,.08-.08,0-.03-.04-.06-.07-.08Zm3.11-6.08s.06-.05,.09-.08c-.03-.03-.05-.08-.08-.08-.03,0-.06,.04-.08,.07,.03,.03,.05,.06,.08,.08Z"/>
      <path class="cls-1" d="M110.11,91.61c-.09,.02-.22,.02-.29,.09-.13,.11-.27,.24-.31,.39-.02,.07,.15,.25,.26,.3,1.02,.47,1.08,.62,.93,1.69-.05,.35-.05,.73,.04,1.07,.24,.9-.04,1.69-.38,2.49-.34,.78-.63,1.57-1.47,2.03-.61,.34-1.12,.87-1.65,1.34-.86,.75-1.83,1.19-2.98,1.24-.46,.02-.92,.21-1.39,.22-1.46,.04-2.91-.07-4.17-.94-.1-.07-.2-.13-.32-.16-1.48-.29-2.21-1.39-2.84-2.59-.09-.17-.2-.36-.21-.54-.09-1.67,.02-3.29,.79-4.85,.57-1.16,1.12-2.32,1.84-3.39,1-1.46,2.37-2.52,4.08-2.82,1.85-.32,3.68,.07,5.34,1.07,1.05,.63,1.72,1.61,2.47,2.52,.07,.08-.03,.29,0,.42,.04,.14,.16,.26,.25,.41Zm-6.68,8.43c-.02-.09-.03-.18-.05-.28-.73-.32-1.45,.26-2.28,.05,.03,.4,.04,.68,.07,1.1,.83-.32,1.55-.6,2.26-.88Zm-5.37-3.31c-.52,.75-.32,1.4,.17,1.95,.1,.12,.39,.07,.6,.1-.03-.2-.01-.55-.1-.59-.56-.2-.52-.63-.53-1.07,0-.13-.09-.26-.13-.4Zm9.37-.88c-.75-.74-.75-.74-1.25-.1,.23,.19,.45,.37,.68,.56,.08-.06,.29-.23,.57-.46Zm-6.33-.39c-.05-.05-.1-.1-.16-.15-.34,.24-.69,.48-1.05,.74,.16,.27,.29,.48,.49,.81,.28-.55,.5-.98,.72-1.4Zm-.43-4.5c.32-.02,.58-.04,.98-.07-.15-.29-.21-.58-.34-.62-.51-.14-.5,.3-.64,.68Zm2.69-.22c.24,.44,.39,.69,.58,1.04,.22-.26,.38-.44,.58-.68-.38-.12-.66-.2-1.16-.36Zm-5.41,2.52c.03,.56,.04,.88,.06,1.28,.11-.12,.66-.95,.65-.96-.04-.04-.08-.08-.12-.12-.08,.11-.16,.21-.24,.32-.09-.13-.15-.23-.35-.52Zm8.33-2.51s-.1,.04-.15,.05c.05,.2,.09,.4,.14,.6,.1-.04,.2-.08,.3-.11-.1-.18-.19-.36-.29-.54Zm-3.56,2.25s-.05-.08-.08-.08c-.03,0-.06,.04-.08,.07,.03,.03,.05,.08,.08,.08,.03,0,.06-.04,.08-.07Zm-.8-2.25s-.08,.05-.08,.08c0,.03,.04,.06,.07,.09,.03-.03,.08-.05,.08-.08,0-.03-.04-.06-.07-.08Z"/>
      <path class="cls-1" d="M85.02,77.65c.63,.08,1.22,.05,1.63,.65,.08,.12,.35,.12,.53,.18,.18,.06,.37,.12,.53,.21,.1,.05,.24,.16,.25,.25,.02,.68,.79,.85,.93,1.52,.28,1.35,.65,2.65,.22,4.05-.2,.66-.05,1.4-.24,2.11-.12,.45-.62,.63-.57,1.2,.04,.42-.18,.92-.42,1.3-.57,.9-1.35,1.61-2.3,2.13-.41,.22-.79,.52-1.21,.71-.48,.21-.95,.51-1.5,.02-.24-.21-.71-.09-.94,.26-.44,.68-1.11,.71-1.8,.64-1.14-.11-2.26-.38-3.2-1.04-.92-.65-1.46-1.65-1.76-2.73-.17-.62-.53-1.27-.05-1.93,.04-.05-.08-.21-.1-.32-.16-.86-.24-1.72,.19-2.54,.11-.2,.13-.45,.18-.67,.04-.19,0-.44,.11-.57,.95-1.13,1.63-2.52,3-3.25,.99-.53,1.96-1.14,3.01-1.49,1.12-.37,2.32-.47,3.49-.68Zm-1.79,9.86c.18,.36,.81,.38,.92,.23,.54-.76,1.12-.21,1.69-.17,.08-.07,.24-.15,.25-.23,.03-.67-.04-1.33,.11-1.97q-1.1-.55-1.67,.46c.37,.22,1.13-.51,1.17,.41,.03,.7-.63,.65-1,.9-.37-.43-.35-1.07-.98-1.22-.39,.39-.46,1.09-1.16,1.17-.05,0-.09,.32-.1,.5-.02,.23,0,.46,0,.9,.34-.43,.57-.71,.77-.96Zm-1.47-4.98c.89-.61,.96-.81,.63-1.97-.42,.24-.8,.46-1.18,.68q0,.73,.55,1.3Zm-2.36,6.7c.07,.01,.13,.02,.2,.03-.03-.45-.16-.92-.08-1.36,.09-.5,.36-.96,.56-1.44-.76-.26-1.08,.33-1.4,.66,.26,.74,.49,1.42,.72,2.1Zm-.32-6.08c-.27,.68,.52,.69,.58,1.12,.46-.25,.83-.45,1.19-.65-.61-.21-1.07-.76-1.77-.47Zm-2.44,3.82c-.06,.55,.11,.79,.47,.87,.28,.06,.4-.11,.53-.34,.15-.26,.41-.47,.61-.69-.72-.66-1.06,.3-1.61,.16Zm9.53-4.94c.22,.34,.57,.52,.55,.97-.01,.39,.33,.31,.61,.19,.14-.41,.1-.76-.23-1.06-.25-.23-.48-.4-.93-.11Zm-8.87,7.25c.13,.61,.39,.74,.74,.73,.35,0,.73,.06,.9-.41-.52-.1-1.03-.2-1.64-.32Zm4.79-1.25c-.42-.04-.76-.07-1.12-.1,0,1,.84,.12,1.05,.64,.06-.19,.09-.26,.09-.33,0-.07-.02-.15-.03-.21Zm-3.78-3.61c-.51-.55-.53-.55-1.19,0h1.19Zm5.09,4.31q-.05,1.05,.7,.84c-.21-.25-.39-.47-.7-.84Zm.87-6.22h.75c-.16-.18-.26-.29-.38-.41-.11,.12-.21,.23-.38,.41Zm-2.16,7.12c-.03-.1-.05-.17-.06-.24-.11,.08-.21,.15-.32,.23,.04,.05,.09,.14,.12,.13,.1-.02,.18-.07,.27-.11Zm2.88-.23c.15,.06,.27,.11,.28,.1,.06-.1,.11-.21,.15-.32-.13,.07-.25,.13-.44,.22Zm-4.47,.05c.06-.04,.15-.1,.15-.11-.04-.09-.09-.18-.14-.27-.08,.04-.16,.09-.23,.13,.08,.08,.15,.16,.23,.25Zm3.35-5.02h.12v-.6h-.12v.6Zm-1.91,.46c.06-.04,.15-.1,.15-.11-.04-.09-.09-.18-.14-.27-.08,.04-.16,.09-.23,.13,.08,.08,.15,.16,.23,.25Zm-2.18,.15s0,.06,0,.09h.37v-.09h-.37Zm-1.52,.45c-.02-.07-.05-.13-.07-.2-.04,.04-.12,.08-.12,.12,0,.06,.04,.13,.07,.2,.04-.04,.08-.08,.13-.12Zm10.03-.9c-.08-.03-.14-.07-.21-.07-.04,0-.08,.07-.12,.11,.07,.03,.13,.07,.19,.07,.04,0,.09-.07,.13-.11Zm-8.43,6.79c.03-.08,.07-.14,.07-.21,0-.04-.07-.08-.11-.12-.03,.07-.07,.13-.07,.19,0,.04,.07,.09,.11,.13Zm.54-10.12s-.05-.06-.08-.09c-.03,.03-.08,.05-.08,.08,0,.03,.04,.06,.07,.08,.03-.03,.06-.05,.08-.08Zm1.68,7.68s-.05-.08-.08-.08c-.03,0-.06,.04-.08,.07,.03,.03,.05,.08,.08,.08,.03,0,.06-.04,.08-.07Z"/>
      <path class="cls-1" d="M92.33,66.96c.5-.56,.91-1.13,1.42-1.58,.51-.45,1.16-.44,1.79-.23,.33,.11,.66,.24,.98,.39,.29,.13,.51,.25,.87,.06,.43-.24,.91,0,1.36,.16,2.1,.76,3.51,2.17,4.11,4.33,.1,.37-.12,.83-.06,1.22,.05,.37,.55,.57,.45,1.05-.26,1.21-.33,2.48-1.28,3.45-.44,.45-.79,.99-1.23,1.44-.33,.33-.71,.65-1.12,.86-.24,.12-.63,.1-.87-.01-.16-.08-.2-.42-.51-.23-.33,.21-.11,.46,0,.67-1.49,.63-2.92,.46-4.27-.08-1.58-.62-2.8-1.71-3.46-3.34-.12-.29-.34-.55-.41-.84-.15-.57-.74-1.06-.32-1.74,.04-.06-.04-.23-.11-.32-.49-.68-.39-1.51-.27-2.2,.19-1.18,.58-2.35,1.46-3.27,.66-.69,.76-.69,1.48,.21Zm2.5,6.72c-.13-.39-.41-.59-.79-.44-.37,.14-.5,.45-.31,.84q.56-.03,1.11-.4Zm4.79-.88s-.1-.04-.15-.05c-.09,.18-.18,.37-.27,.55,.1,.03,.2,.07,.3,.1,.04-.2,.08-.4,.12-.6Zm-3.99-4.16c.18,.05,.37,.11,.55,.14,0,0,.09-.14,.07-.19-.16-.35-.38-.15-.62,.04Zm.24,6.21c.05-.02,.1-.03,.15-.05-.04-.2-.08-.4-.12-.6l-.3,.1c.09,.18,.18,.37,.27,.55Zm-1.46-4.87c.06,0,.12,0,.19-.01-.03-.17-.05-.34-.08-.51-.04,0-.07,0-.11,0v.51Zm-1.91,4.04c.05,.04,.1,.11,.14,.11,.07,0,.13-.04,.2-.06-.04-.04-.08-.12-.12-.12-.06,0-.13,.04-.22,.07Zm3.12,2.37v.09h.37v-.09h-.37Zm1.02-1.31s.06-.05,.09-.08c-.03-.03-.05-.08-.08-.08-.03,0-.06,.04-.08,.07,.03,.03,.05,.06,.08,.08Z"/>
      <path class="cls-1" d="M56.7,18.47c-.43,.02-.8-.02-1.22-.29-.57-.37-1.31-.47-1.92-.79-1.38-.72-2.49-1.77-3.31-3.1-.47-.76-.24-1.62-.28-2.44-.04-.88,.43-1.5,.96-2.18,.71-.92,1.53-1.64,2.52-2.23,1.08-.64,2.2-1.16,3.49-1.18l-.03-.03c.05,.31,.1,.61,.17,1.03,.41-.34,.79-.64,1.16-.94-.13-.04-.31-.1-.51-.16,.06-.06,.1-.13,.15-.13,1.27-.07,2.51,0,3.67,.61,.44,.23,.67,.66,1.01,.91,.36,.26,.85,.4,1.12,.79,.26,.38,.52,.8,.67,1.23,.29,.84,.69,1.71,.7,2.57,.03,1.75-.45,3.39-1.77,4.69-.48,.48-.94,.83-1.61,.69-.85,1.22-2.42,1.57-3.74,.89-.42-.22-.87-.36-1.26,.09l.03-.03Zm-.01-7.99c.86,.21,1.56,.53,2.37,.52-.12-.24-.21-.41-.33-.65-.63,.03-1.29-.3-2.04,.12Zm4.62,.94c.4,.42,.81,.5,1.09,.45,.32-.06,.38-.43,.12-.84-.08,.89-.66,.34-1.21,.39Zm-2.73-4.04c-.16-.25-.3-.46-.5-.75q-.18,.74,.5,.75Zm2.66,3.83s-.07-.08-.11-.11c-.11,.1-.21,.2-.32,.3,.04,.04,.07,.08,.11,.11,.11-.1,.21-.2,.32-.31Zm-6.25,1.81c-.02-.07-.05-.13-.07-.2-.04,.04-.12,.08-.12,.12,0,.06,.04,.13,.07,.2,.04-.04,.08-.08,.13-.12Zm5.68,1.33c.03-.08,.07-.14,.07-.21,0-.04-.07-.08-.11-.12-.02,.06-.07,.13-.07,.19,0,.04,.07,.09,.11,.13Zm.3,1.64s-.05-.06-.08-.09c-.03,.03-.08,.05-.08,.08,0,.03,.04,.06,.07,.08,.03-.03,.06-.05,.08-.08Zm-1.68,0s-.05-.08-.08-.08c-.03,0-.06,.04-.08,.07,.03,.03,.05,.08,.08,.08,.03,0,.06-.04,.08-.07Zm3.12-.96s-.05-.06-.08-.09c-.03,.03-.08,.05-.08,.08s.04,.06,.07,.08c.03-.03,.06-.05,.08-.08Zm-.96,0s-.05-.08-.08-.08c-.03,0-.06,.04-.08,.07,.03,.03,.05,.08,.08,.08s.06-.04,.08-.07Z"/>
      <path class="cls-1" d="M69.93,64.2c.12-.15,.25-.3,.38-.46-.04-.06-.08-.17-.13-.18-.67-.2-.93-.81-.97-1.34-.17-2.12-.12-4.21,1.93-5.58,.36-.71,.95-1,1.73-.96,.1,0,.24-.05,.32-.12,.85-.79,1.79-.59,2.82-.43,1.33,.22,2.29,.91,3.2,1.82,.52,.52,.76,1.18,1.07,1.81,.05,.1-.04,.27-.02,.4,.04,.2,.07,.43,.18,.6,.27,.41,.59,.79,.3,1.33-.05,.1,.08,.28,.1,.42,.11,.58-.13,1.14-.64,1.37-.34,.15-.43,.38-.5,.73-.05,.28-.21,.63-.44,.78-1.08,.7-2.09,1.51-3.36,1.87-.37,.11-.7,.34-1.07,.47-.9,.32-1.67,.33-2.6-.27-.97-.62-1.65-1.39-2.29-2.27Zm2.4-.13c.08,.07,.16,.14,.24,.21,.39-.27,.78-.53,1.16-.79-.1-.27-.18-.48-.23-.64,.31-.69,1.31-.89,1.11-1.81-.52-.17-.94,.09-1.09,.36-.46,.85-.8,1.78-1.19,2.67Zm5.22-6.2c-1.29,.21-1.51,.43-1.68,1.39-.06,.31-.23,.61-.39,1.01,.55-.2,1.04-.38,1.55-.57-.14-.21-.26-.39-.41-.6,.3-.39,.58-.77,.93-1.23Zm-5.01,1.68c-.24,.19-.46,.37-.69,.54-.24,.17-.49,.33-.94,.63,.85-.06,1.51,.27,2.09-.38-.76-.02-.02-.59-.46-.78Zm1.91,4.44c0,.1,.02,.19,.03,.29,.26,0,.54,.06,.77-.03,.1-.03,.08-.36,.13-.6-.37,.14-.65,.24-.93,.34Zm3.74-.15s.04-.1,.06-.15c-.18-.1-.36-.2-.54-.29-.04,.1-.08,.2-.12,.3,.2,.05,.4,.09,.6,.14Zm-3.57-6.83c-.05-.03-.14-.11-.18-.09-.16,.09-.3,.2-.48,.33,.15,.13,.26,.22,.38,.32,.11-.21,.2-.38,.29-.56Zm-3.05,5.18c-.06-.08-.11-.17-.19-.23-.04-.03-.13,.03-.2,.05,.08,.11,.15,.21,.23,.32,.05-.04,.09-.08,.17-.14Zm2.22-3.93c.06-.04,.15-.1,.15-.11-.04-.09-.09-.18-.14-.27-.08,.04-.16,.09-.23,.13,.08,.08,.15,.16,.23,.25Zm2.39-2.7c.05,.04,.1,.11,.14,.11,.07,0,.13-.04,.2-.06-.04-.04-.08-.12-.12-.12-.06,0-.13,.04-.22,.07Zm-1.85,3.06s-.08,.05-.08,.08c0,.03,.04,.06,.07,.09,.03-.03,.08-.05,.08-.08,0-.03-.04-.06-.07-.08Z"/>
      <path class="cls-1" d="M34.64,44.81c-.07,.42-.16,1.04-.3,1.65-.05,.21-.21,.41-.35,.59-.46,.56-.94,1.11-1.42,1.65-.38,.43-.81,.72-1.42,.75-.62,.03-1.24,.21-1.86,.22-2.07,.04-3.59-.96-4.33-2.84-.4-1.02-.55-2.27-.38-3.35,.25-1.61,.95-3.09,2.15-4.34,1.91-2,4.62-1.6,6.18,.65,.74,1.07,1.23,2.26,1.6,3.49,.12,.41,.08,.86,.12,1.51Zm-4.35,1.5c.74,.39,.81,.37,.91-.32-.45,.02-.68,.1-.94,.36v-1.8c-.14-.08-.28-.16-.4-.24-.37-.24-.36-.61-.25-.96,.12-.36,.45-.43,.79-.39,.33,.04,.66,.12,1.14,.21-.14-.26-.26-.55-.29-.54-.51,.14-.93-.45-1.46-.17-.26,.14-.75,.13-.82,.3-.19,.49-.21,1.04-.29,1.56,.58,.52,.46,1.1,.19,1.73-.08,.18,.01,.44,.02,.6,.5-.13,.95-.24,1.4-.36Zm-.53-5.95c-.63-.4-1.23-.32-1.85,.09,.64,.44,1.24,.04,1.85-.09Zm-1.92,7.2c.42,.34,.74,.22,.91-.13,.07-.14-.12-.4-.24-.73-.3,.39-.48,.62-.67,.86Zm3.92-3.97c.17,.12,.42,.21,.5,.37,.09,.18,.02,.43,.02,.81,.28-.21,.43-.31,.57-.41-.12-.61-.51-.81-1.08-.77Zm-1.43-1.45q.17-.86-.26-1.23c-.01,.38-.15,.75,.26,1.23Zm1.15,3.61s.1,.04,.15,.05c.09-.18,.19-.36,.28-.54-.1-.04-.2-.07-.3-.11-.05,.2-.09,.4-.14,.6Zm-5.31-2.92c.15,.06,.27,.11,.28,.1,.06-.1,.11-.22,.15-.32-.13,.07-.25,.13-.44,.22Zm.21,2.65s-.05-.06-.08-.09c-.03,.03-.08,.05-.08,.08s.04,.06,.07,.08c.03-.03,.06-.05,.08-.08Zm1.13,.15s-.08,.05-.08,.08c0,.03,.04,.06,.07,.09,.03-.03,.08-.05,.08-.08,0-.03-.04-.06-.07-.08Zm-.48,.24s-.08,.05-.08,.08c0,.03,.04,.06,.07,.09,.03-.03,.08-.05,.08-.08,0-.03-.04-.06-.07-.08Z"/>
      <path class="cls-1" d="M87.01,44.16c-.04,.6-.59,1.02-.11,1.61-.27,.03-.6-.02-.7,.1-.58,.73-1.38,.47-2.06,.42-.6-.04-1.2-.31-1.76-.57-1.08-.5-1.5-1.58-2.06-2.53-.06-.1-.11-.22-.1-.33,.04-.74,.29-1.52,.11-2.19-.23-.85,.26-1.44,.45-2.11,.19-.69,.7-1.3,1.11-1.92,.3-.45,.64-.83,1.08-1.19,.81-.66,1.67-.65,2.58-.6,.21,.01,.4,.25,.6,.36,.56,.3,1.31,.92,1.57,1.24,.85,1.09,1.52,2.27,1.74,3.66,.16,1.06,.26,2.11-.11,3.16-.27,.76-.43,.89-1.17,.91-.36,.01-.71,0-1.16,0Zm-2.25-2.54c-.81-.53-.59-1.51-.91-2.34-.35,.56-.63,1-.92,1.47,1.15,.22,.34,1.03,.41,1.57,.35,.24,.66,.45,1.04,.71,.13-.48,.24-.88,.38-1.41Zm-1.31-2.7s-.08,.05-.08,.08c0,.03,.04,.06,.07,.09,.03-.03,.08-.05,.08-.08,0-.03-.04-.06-.07-.08Z"/>
      <path class="cls-1" d="M100.04,41.06c-1.01-.12-1.17-.97-1.3-1.64-.34-1.78,.49-4.59,2.69-5.38,.9-.32,1.82-.32,2.68-.09,.98,.27,2.13,.39,2.63,1.53,.87,.33,1.21,1.14,1.5,1.88,.71,1.82,.87,3.66-.16,5.45-.13,.23-.29,.47-.5,.61-1.12,.75-2.04,.99-3.77,.4-.65-.22-1.53-.14-1.87-1-.03-.06-.21-.07-.32-.09-1.11-.21-1.37-.47-1.57-1.66Zm4.2-.72c-.31-.42-.59-.8-.9-1.21-.55,.96-.51,1.09,.5,1.66,.12-.14,.25-.28,.4-.44Zm.45-1.72c-.29-.22-.58-.43-.88-.66q0,.66,.88,.66Zm1.19,2.24c-.34-.19-.44-.29-.51-.27-.08,.02-.12,.15-.18,.23,.08,.06,.16,.16,.25,.17,.1,.01,.21-.06,.45-.14Zm-4.72-3.84s0,.07,0,.1h.8s0-.07,0-.1h-.8Zm2.49-1.26c.19-.34,.29-.44,.27-.51-.02-.08-.15-.12-.23-.18-.06,.08-.16,.16-.17,.25-.01,.1,.06,.21,.14,.45Zm-2.63,3.28v-.09h-.37v.09h.37Z"/>
      <path class="cls-1" d="M45.66,93.45v1.43c-1.74,1.2-3.62,1.71-5.68,1.59-1.33-.08-2.29-.89-3.01-1.87-1.01-1.36-1.28-2.97-.68-4.58,.33-.87,.72-1.72,1.48-2.39,.6-.52,1.26-.83,1.98-.96,.62-.11,1.28-.09,1.93-.05,.76,.05,1.36,.42,1.66,1,.48,.92,1.31,1.68,1.38,2.82,0,.17,.27,.47,.43,.48,.57,.04,.81,.48,1.13,.81,.54,.55,.46,.94-.22,1.4-.13,.09-.24,.19-.4,.32Zm-3.22-1.34c.28-.87-.19-1.47-.59-2.14-.34,.3-.66,.58-.99,.87,.54,.43,1.02,.82,1.58,1.27Zm.04,2.33s-.05-.06-.08-.09c-.03,.03-.08,.05-.08,.08,0,.03,.04,.06,.07,.08,.03-.03,.06-.05,.08-.08Zm-1.92-3.6s-.05-.06-.08-.09c-.03,.03-.08,.05-.08,.08,0,.03,.04,.06,.07,.08,.03-.03,.06-.05,.08-.08Zm-1.2-.72s-.05-.06-.08-.09c-.03,.03-.08,.05-.08,.08,0,.03,.04,.06,.07,.08,.03-.03,.06-.05,.08-.08Z"/>
      <path class="cls-1" d="M52.99,74.85c-.48-1.24-.8-1.27-2.03-.19-.66-.24-1.35-.47-2.03-.76-.81-.34-1.49-.88-2.09-1.53-.59-.63-.85-1.29-.76-2.18,.06-.63,.25-1.28,.06-1.94-.07-.26,.07-.65,.24-.88,.63-.79,1.33-1.57,2.23-2.01,2.31-1.14,4.7-.19,5.81,1.9,.6,1.13,1.11,2.3,1.43,3.56,.28,1.1,.12,2.17-.51,3.05-.53,.74-1.38,1.15-2.37,.98Zm-2.29-4.61c-.49-.1-.82-.18-1.17-.24-.24-.04-1.18,.46-1.28,.67-.24,.51,.11,.94,.88,1.04,.17-.29,.34-.59,.5-.87,.83-.13,1.63-.25,2.56-.4-.13-.46-.25-.88-.36-1.29-.52,0-.98-.19-1.28,.26,.05,.27,.1,.52,.16,.83Zm-1.76-1.75c.77,.76,.78,.76,1.27,.25-.42-.08-.8-.16-1.27-.25Zm4.69,1.06s.06,0,.09,0v-.37h-.09v.37Zm0,3.12s.06,0,.09,0v-.37h-.09v.37Zm-1.15-1.59s-.08,.05-.08,.08c0,.03,.04,.06,.07,.09,.03-.03,.08-.05,.08-.08,0-.03-.04-.06-.07-.08Z"/>
      <path class="cls-1" d="M63.11,50.87c.19-.5,.33-.85,.49-1.27q.4,.92-.49,1.27Z"/>
      <path class="cls-1" d="M85.99,63.02c-.08,.25-.16,.51-.24,.75-.36-.07-.32-.28,.24-.75Z"/>
      <path class="cls-1" d="M38.02,71.7c.28,.26,.47,.43,.8,.74-.65,0-.84-.18-.8-.74Z"/>
      <path class="cls-1" d="M63.57,49.21c-.05-.21-.11-.42-.16-.64,.05-.01,.09-.03,.14-.04,.08,.2,.17,.41,.25,.61-.08,.02-.15,.04-.23,.07Z"/>
      <path class="cls-1" d="M47.48,86.9c.1,.11,.2,.21,.3,.32-.04,.04-.08,.07-.11,.11-.1-.11-.2-.21-.3-.32,.04-.04,.08-.07,.11-.11Z"/>
      <path class="cls-1" d="M56.66,18.5c.06,.02,.12,.04,.19,.06-.03,.03-.06,.06-.09,.09-.02-.06-.04-.12-.06-.19l-.03,.03Z"/>
      <path class="cls-1" d="M56.94,6.26c.02-.06,.04-.12,.06-.19,.03,.03,.06,.06,.09,.09-.06,.02-.12,.04-.19,.06l.03,.03Z"/>
      <path class="cls-1" d="M81.84,13.57s-.06,.05-.08,.07c-.02-.03-.07-.06-.07-.08,0-.03,.05-.05,.08-.07l.07,.08Z"/>
      <path class="cls-1" d="M4.8,66.13s-.06,.05-.08,.07c-.02-.03-.07-.06-.07-.08,0-.03,.05-.05,.08-.07l.07,.08Z"/>
    </g>
  </g>
</svg>