<?xml version="1.0" encoding="UTF-8"?>
<svg id="_レイヤー_2" data-name="レイヤー 2" xmlns="http://www.w3.org/2000/svg" viewBox="0 0 85.49 144.56">
  <defs>
    <style>
      .cls-1 {
        fill: #dba5bd;
      }
    </style>
  </defs>
  <g id="illustration">
    <g>
      <path class="cls-1" d="M68.41,107.3c-.02-.15-.04-.3-.08-.58-.4,.21-.74,.32-.98,.54-.36,.31-.72,.36-1.09,.14-.4-.23-.82-.23-1.26-.3-1.41-.23-2.82-.35-4.25-.31-.31,0-.65,.01-.93-.1-.38-.15-.57-.17-.88,.2-.23,.26-.79,.26-1.21,.32-2.81,.43-5.28,1.74-7.61,3.23-1.64,1.05-3.16,2.33-4.49,3.94,.18,.18,.37,.41,.6,.6,.57,.47,1.52,.46,1.96-.15,.26-.36,.64-.6,.82-1.07,.19-.48,.63-.95,1.09-1.23,.72-.43,1.27-1.21,2.23-1.21,.13,0,.3-.14,.37-.27,.48-.82,1.17-.76,2-.49,.11-.25,.24-.52,.35-.77,2.26-1.06,4.7-1.21,7.12-1.3,.99-.04,2,.26,3.01,.4,.07,.38,.13,.68,.22,1.17,.34-.37,.56-.61,.82-.89,1.42,.31,2.75,.95,4.05,1.68,.14,.08,.19,.29,.31,.43,.09,.11,.2,.26,.31,.27,.91,.08,1.53,.67,2.02,1.32,.58,.77,1.07,1.61,1.54,2.47,.78,1.42,.76,2.9,.63,4.37-.09,.97-.15,2.04-.9,2.86-.17,.18-.17,.51-.26,.77-.24,.65-.3,1.4-1.07,1.74-.07,.03-.02,.32-.04,.6-1.3,1.67-2.57,3.54-4.78,4.86-.08,0-.44-.03-.79,0-.41,.05-.49,.25-.37,.87-2.22,1.33-4.51,2.5-7.1,3.06,.24,.1,.46,.17,.66,.28,.08,.04,.1,.18,.08,.15,.64-.11,1.21-.26,1.78-.28,1.18-.05,2.35,0,3.52,.34,.45,.13,1.02,.06,1.53,.14,.51,.07,.81,.39,.91,.95,.21-.04,.42-.02,.57-.11,.5-.3,.95-.1,1.33,.15,.62,.41,1.19,.91,1.78,1.37,.03,.49,.06,.91,.09,1.36,.2,.07,.38,.12,.56,.18,.54,.61-.07,1.9-1.32,2.73,.05,.14,.1,.28,.15,.43-.56,.42-.99,1.02-1.7,1.28-.99,.36-1.99,.64-3.05,.8-1.11,.16-2.2,.19-3.31,.2-.43,0-.85,.06-1.22-.33-.26-.27-.71-.27-.97,.02-.33,.35-.71,.34-1.1,.31-.82-.07-1.65,.16-2.48-.19-.26-.11-.67,.2-1.01,.18-1.38-.07-2.78,.24-4.15-.18-.83,.44-1.68-.21-2.61,.12-.85,.3-1.9,.06-2.85,.06-.17-.23-.33-.45-.48-.66-.09,.05-.18,.06-.22,.11-.35,.44-.79,.59-1.36,.57-1.16-.04-2.32,0-3.48-.02-.31,0-.62-.11-.93-.13-.3-.02-.61,0-.91,.01-.11,0-.24,.13-.33,.11-1.29-.37-2.56,.14-3.85,.04-1.31-.1-2.64-.02-3.96-.02h-3.96c-1.04,0-2.08,0-3.12,0-.48,0-.99,.08-1.25-.68-.34,.51-.63,.72-1.12,.7-.64-.02-1.28-.16-1.94-.05-.66,.11-1.36,.06-2.03,.01-.54-.04-1.09-.12-1.61-.29-.72-.23-1.15-.76-1.33-1.53-.09-.41-.25-.84-.49-1.16-.26-.34-.27-.69-.19-1.01,.07-.26,.34-.47,.57-.76-.61-.74,.44-1.19,.52-2.01-.28,.18-.47,.36-.7,.45-1.44,.6-2.86,1.27-4.47,1.29-.23,0-.47,.03-.7,.09-1.15,.29-1.82,.16-3.06-.5-.25-.13-.57-.18-.85-.17-1,.05-1.93-.2-2.77-.71-.43-.27-.79-.68-1.12-1.08-.63-.75-1.3-1.5-1.59-2.45-.18-.58-.4-1.13-.11-1.82,.2-.47-.08-1.14-.15-1.72,.62-.78,.15-1.9,.82-2.67,.03-.03,.04-.07,.07-.1,1.1-1.25,2.12-2.6,3.75-3.23,.27-.11,.55,.34,.83-.09,.11-.16,.5-.17,.76-.19,.32-.03,.64,0,.96,0h1.43c-.08-.41-.14-.73-.22-1.16,.39-.2,.83-.43,1.33-.69-.29-.1-.58-.21-.88-.32-.63-.23-1.06-.69-1.19-1.32-.35-1.72-.66-3.45-.97-5.17-.17-.92-.32-1.84-.47-2.77-.02-.15,.01-.31,.02-.47q.57,.09,1.15-.47c-.37-.15-.7-.29-1.07-.45-.44-.95-.34-2.03-.35-3.09,0-1.4-.03-2.8,0-4.2,.05-1.62,.05-3.26,.25-4.86,.39-3.07,1.18-6.06,2.19-8.98,.08-.22,.2-.43,.33-.63,.36-.52,.57-1.09,.73-1.7,.12-.47,.18-.98,.71-1.28,.19-.1,.23-.47,.33-.73,.27-.74,.57-1.41,1.36-1.81,.42-.21,.69-.74,1.02-1.13,.09-.11-.06-.34-.43-.65,.55-.79,1.06-1.62,1.66-2.39,1.24-1.6,2.52-3.18,3.79-4.76,.07-.09,.21-.16,.24-.26,.16-.5,.89-.18,1.04-.81,.1-.38,.59-.67,.91-1,.84-.88,1.63-1.8,2.52-2.63,1.04-.97,2.15-1.85,3.23-2.78,.66-.57,1.31-1.15,1.97-1.72,.54-.46,1.06-.95,1.63-1.36,.23-.17,.59-.18,.78-.23,.1-.23,.13-.47,.26-.58,.82-.68,1.65-1.33,2.5-1.98,.81-.62,1.72-1.12,2.43-1.83,.72-.71,1.19-1.66,1.48-2.64,.35-1.2,.3-2.44,.23-3.66-.05-.73-.27-1.43-.14-2.21,.12-.67-.09-1.38-.07-2.08,.04-.98,.1-1.97,.26-2.94,.1-.64,.47-1.19,1.09-1.55-.2-.15-.4-.3-.62-.48,.49-1.25,.96-2.47,1.45-3.72,.41-.03,.75-.05,1.22-.08-.59-.5-.59-.87-.16-1.47,1.18-1.66,2.53-3.13,4.16-4.35,.31-.23,.6-.51,.88-.75q-1.43-.49-1.92-1.26c-.19,.14-.38,.28-.53,.4-.85-.28-1.68-.51-2.47-.82-.29-.11-.73-.01-.85-.52-.04-.15-.46-.31-.7-.29-.71,.06-1.3-.23-1.91-.51-1.74-.8-3.51-1.55-5.21-2.41-.78-.39-1.66-.7-2.18-1.5-.04-.06-.13-.13-.18-.13-.84,.07-1.33-.62-2.01-.91-.11-.05-.24-.06-.32-.14-1.41-1.39-3.27-2.23-4.54-3.79-.62-.76-1.19-1.56-1.79-2.34-.24-.31-.47-.63-.73-.99v-1.1c-.5-.13-.68-.5-.82-1-.45-1.71-.58-3.4-.03-5.11,.08-.26,.2-.51,.27-.77,.52-2.1,2.12-3.04,4-3.54,3.08-.83,5.91,.02,8.58,1.56,.95,.54,1.84,1.18,2.73,1.81,.45,.32,.89,.68,.94,1.38,.52-.03,.96,.16,1.32,.58,.82,.96,1.92,1.69,2.57,2.81,.7,.29,1.03,.93,1.48,1.48,1.23,1.49,2.48,2.97,3.71,4.45,.08,.09,.15,.19,.2,.29,.53,1.13,1.43,2,2.14,3.01,.22,.31,.34,.69,.55,1.01,.21,.33,.46,.63,.72,.93,.12,.14,.3,.23,.45,.34,.02,.14,.05,.28,.07,.42,.05-.03,.1-.05,.15-.08-.09-.1-.17-.2-.26-.31-.2-.54-.41-1.09-.66-1.76,.07-.1,.23-.32,.41-.58-.17-.18-.33-.5-.52-.52-.52-.06-.64-.44-.79-.79-.45-1.12-.87-2.25-1.29-3.38-.03-.07,0-.16,.01-.25,.23-.13,.47-.26,.71-.39-.03-.07-.07-.13-.1-.2-.11,.05-.22,.13-.33,.15-.11,.03-.24,0-.45,0-.11-.29-.24-.6-.34-.93-.44-1.44-.9-2.87-1.3-4.33-.25-.9-.6-1.83-.55-2.73,.04-.8,0-1.5-.28-2.23-.06-.17,.09-.44,.19-.65,.12-.25,.29-.47,.45-.73-.15-.33-.33-.67-.47-1.03-.09-.25-.23-.55-.17-.78,.32-1.36,.46-2.76,1.33-3.96,.4-.55,.8-.93,1.43-1.11,.18-.05,.37-.15,.49-.29,.9-1.01,1.95-1.35,3.22-1.02,.11,.03,.23,.12,.33,.1,1.06-.22,1.92,.41,2.79,.79,.55,.24,1.18,.58,1.5,1.26,.19,.41,.62,.72,.89,1.1,1.03,1.42,1.53,3.07,1.91,4.74,.24,1.06,.44,2.14,.54,3.24,.08,.78,.12,1.57,.21,2.35,.08,.65-.26,1.25-.06,1.94,.18,.63,.04,1.35,.05,2.03,0,.68,0,1.36,0,2.04,0,.51,0,1.01-.22,1.51-.1,.23-.23,.5-.06,.86,.3,.64-.42,.94-.72,1.45,.7,.59,.64,1.31,.27,2.02-.31,.61-.3,1.22-.25,1.87,.04,.62,.11,1.26-.19,1.87-.12,.24,.01,.6,.03,.91,1.04-.31,2-.61,2.97-.88,.22-.06,.47-.03,.71-.05,.51-.03,1.03,.09,1.51-.21,.15-.09,.41-.07,.59-.02,1.21,.35,2.49,.2,3.71,.54,2.09,.58,4.01,1.51,5.87,2.59,.17,.1,.3,.26,.45,.38,1.41,1.18,3.07,1.73,4.87,1.73,.8,0,1.47,.18,2.07,.66,.26,.21,.47,.44,.88,.23,0-.08,.04-.22,0-.29-.29-.37-.43-.9-.29-1.21,.23-.53,.77-.96,1.38-1.02,1.19-.11,2.34-.06,3.25,.98,1.06,1.21,1.13,3.05,.02,4.28-.05,.06-.14,.08-.19,.14-.71,.8-.9,1.78-1,2.8-.15,1.6-.25,3.21-.43,4.81-.19,1.72-.5,3.41-1.04,5.04-.45,1.35-.48,2.88-1.51,4.02-.11,.13-.09,.37-.14,.56-.26,.86-.56,1.68-1.14,2.42-.64,.82-1.14,1.75-1.69,2.65-.31,.51-.59,1-1.27,1.12-.2,.04-.38,.36-.5,.59-.48,.92-.93,1.85-2.12,2.03-.09,.01-.17,.14-.23,.23-.39,.62-.93,1.08-1.56,1.42-1.47,.8-2.89,1.72-4.69,2.02,.07,.23,.08,.47,.21,.61,.47,.52,.94,1.03,1.01,1.78,0,.11,.03,.29,.1,.32,.86,.4,.92,1.32,1.32,2.01,.39,.67,.68,1.41,.98,2.13,.51,1.22,.99,2.45,1.5,3.69-.3,.24-.53,.42-.84,.67,1.02,.7,1.36,1.67,1.56,2.83,.21,1.2,1.08,2.08,2.28,2.51-.06,.16-.12,.3-.23,.57,1.56-.22,2.48,.88,3.58,1.57,.56,.35,1.01,.83,1.41,1.38,.26,.35,.47,.73,1.02,.87,.39,.1,.73,.61,.97,1.01,.49,.8,.95,1.62,1.35,2.47,.34,.72,.38,1.58,.24,2.3-.36,1.79-2.05,2.2-3.38,1.92-.26-.05-.5-.19-.79-.3v-.75c.18-.04,.37-.09,.6-.14-.09-.24-.19-.47-.31-.78,.11-.18,.26-.42,.51-.83-.53,.25-1.05,.1-1.16,.65-.08,.38-.12,.77-.18,1.15-1.18,.41-2-.33-2.89-.78-.34-.18-.64-.46-.95-.69-.59-.43-1.28-.43-1.94-.31-.57,.1-.97,.53-1.12,1.1-.14,.53-.25,1.08-.26,1.62-.02,1.11-.25,2.18-.5,3.24-.29,1.21-.58,2.42-.95,3.6-.46,1.44-1,2.85-1.93,4.07l.03,.03Zm.96-30.72l-.19,.06s.06,.06,.09,.09c.02-.06,.04-.12,.06-.19,.06-.02,.12-.04,.19-.07-.03-.03-.06-.06-.09-.09-.02,.06-.04,.13-.07,.19Zm-11.28,47.48c.02,.06,.04,.12,.07,.19,.03-.03,.06-.06,.09-.09-.06-.02-.13-.04-.19-.07-.02-.14-.05-.28-.07-.42-.05,.02-.11,.05-.16,.07,.09,.1,.18,.21,.26,.31Zm-29.07,6.96c.14-.02,.28-.05,.42-.07-.02-.05-.05-.11-.07-.16-.1,.09-.21,.18-.31,.26-.06,.02-.12,.04-.19,.07,.03,.03,.06,.06,.09,.09,.02-.06,.04-.13,.07-.19Zm11.31-66.48c.02,.06,.04,.12,.07,.19,.03-.03,.06-.06,.09-.09-.06-.02-.13-.04-.19-.07-.14-.42-.39-.29-.76-.07,.34,.02,.57,.03,.8,.04Zm-12.51,30.75c-.11-.07-.21-.15-.32-.22-.02,.06-.04,.12-.07,.18h.42v.79c.21-.19,.32-.29,.47-.43-.19-.12-.35-.22-.5-.32Zm1.2-1.71c.23-.11,.45-.22,.75-.37-.48-.14-.78-.16-.72,.4-.14,.02-.28,.05-.42,.07,.03,.05,.05,.1,.08,.15,.1-.09,.2-.17,.31-.26Zm36.03-45.08h-.78q.61,.56,.74-.03c.36-.15,.34-.36,.03-.69v.72Zm-12.03-2.68c.24-.18,.48-.36,.93-.68-.47,.03-.68,.04-.89,.05v.66c-.06,.02-.12,.04-.19,.07,.03,.03,.06,.06,.09,.09,.02-.06,.04-.13,.07-.19ZM15.57,107.02c.42,.06,.69-.13,.72-.55,.03-.32,.09-.7-.41-.74-.09,.44-.19,.89-.28,1.33-.36-.04-.72-.06-.97,.41,.17,.17,.36,.36,.52,.52,.47-.25,.45-.6,.41-.97Zm37.2,17.28c.14,.06,.28,.13,.42,.19,.08-.61,.16-1.2,.26-1.98-.29,.24-.45,.37-.61,.5,.47,.45-.13,.88-.04,1.32-.43-.05-.69,.14-.72,.56-.02,.23-.15,.59,.38,.59,.1-.38,.21-.78,.31-1.18Zm13.95,14.68c-.19-.23-.38-.46-.59-.7-.29,.18-.57,.35-.9,.55,.52,.43,.96,.63,1.45,.12,.06-.02,.12-.04,.19-.07-.03-.03-.06-.06-.09-.09-.02,.06-.04,.13-.07,.19ZM27.12,77.06c-.22,.19-.44,.38-.6,.52,.27,.63,.53,1.24,.81,1.89,.35-.25,.66-.47,1.05-.75-.2-.18-.37-.44-.54-.44-.59,0-.63-.36-.65-.79,0-.15-.07-.3-.1-.46,.14-.02,.28-.05,.42-.07-.03-.05-.05-.1-.08-.15-.1,.09-.2,.17-.31,.26Zm15.81,54.2c.6-.09,1.12,.17,1.74,.56-.17-.57-.23-.94-.68-1.1-.66-.24-.73-.74-.59-1.38,.06-.29,.17-.69-.3-1.05-.15,.4-.36,.71-.37,1.03-.01,.66-.19,1.36,.24,1.97-.06,.02-.12,.04-.19,.07,.03,.03,.06,.06,.09,.09,.02-.06,.04-.13,.07-.19Zm10.8-91.88c-.02-.06-.04-.12-.07-.19-.03,.03-.06,.06-.09,.09,.06,.02,.13,.04,.19,.07v1.64c.48-.16,.88-.29,1.25-.41,.42,.26,.77,.92,1.23,.09,.05-.09,.29-.09,.44-.1,.29,0,.46-.13,.4-.43-.08-.42-.36-.32-.63-.22,.03,.11,.06,.21,.09,.34-1.09,.28-1.59-.64-2.27-1.16-.21,.1-.38,.19-.55,.27Zm26.43,10.8c-.15,.02-.31,.03-.45,.08-.79,.25-1.62,.6-2.4,.33-.6-.2-1.07-.69-1.62,.01-.03,.04-.15,.02-.22,0-.81-.24-1.63-.48-2.44-.75-.55-.18-1.08-.42-1.62-.64-.21,.42-.23,.79,.13,1.09,.55,.46,.67,1.11,.76,1.63,.6,.18,1.08,.31,1.56,.48,1.67,.59,3.3,.63,4.85-.33,.72-.45,1.44-.93,1.43-1.93,.06-.02,.12-.04,.19-.07-.03-.03-.06-.06-.09-.09-.02,.06-.04,.13-.07,.19Zm-15.63-7.71c.64-.24,1.26-.47,1.87-.72,.17-.07,.42-.18,.46-.32,.41-1.32,1.12-2.55,.61-4.06-.51-1.5-1.41-2.05-2.79-1.32-.83,.43-1.51,1.02-2.13,1.77-1.24,1.5-.32,3.61,.94,4.16,.32,.14,.64,.3,1.04,.49ZM26.16,103.75q-.45-.71-.3-1.87c-.16-.1-.33-.19-.49-.3-.69-.47-.88-.41-1.15,.38-.21,.62-.4,1.25-.61,1.89-.18,.06-.38,.13-.71,.24,.45,.46,.76,.91,.59,1.44-.22,.66,0,1.29-.02,1.92-.02,.99,.31,1.85,.65,2.72,.61,1.54,.93,1.57,2.04,.21-.74-1.13-.98-2.4-1.01-3.77-.03-1.13,.18-2.09,1-2.86Zm4.58-19.19c-.12-.69,.24-1.45-.1-2.11-.19-.37-.08-.59,.08-.86,.46-.77,.93-1.53,1.41-2.32-.34-.34-.68-.67-1.02-1.01-1.19,1.06-1.59,1.65-2.08,3.05-.06,.18-.15,.36-.24,.54-.61,1.31-.82,2.7-.7,4.13,.02,.23,.22,.45,.3,.62,.61-.12,1.1-.22,1.39-.28,.33-.24,.07-.76,.59-.58,.47,.16,.71-.05,.87-.45,.04-.09,.09-.19,.14-.3-.23-.15-.42-.28-.64-.43Zm-14.46,8.5c-.52,.63-.39,1.48-1.1,1.86-.05,.02-.05,.14-.06,.22-.16,.92-.41,1.83-.47,2.76-.13,1.9-.02,3.77,1.06,5.47,.22-.11,.46-.22,.69-.35,.74-.4,.73-.4,.42-1.16-.3-.76-.49-1.57-.5-2.38-.03-1.95,.48-3.78,1.36-5.53-.43-.27-.89-.56-1.4-.88Zm5.88,32.2c.1-.09,.22-.19,.34-.29,.09-.08,.18-.16,.25-.25,.38-.43,.43-.66,.02-1-1.01-.85-1.24-2.14-1.86-3.2-.35-.59-.34-1.76-.32-2.81,0-.27-.21-.74-.39-.77-.47-.08-.92-.59-1.44-.15-.19,1.31,.09,2.57,.4,3.79-.32,.16-.6,.3-.88,.43,.02,.05,.04,.11,.05,.16,.35,.03,.69,.05,1.01,.07,.29,.66,.48,1.32,.84,1.85,.55,.8,.84,1.86,1.98,2.18Zm17.81-15.98c-.49-.31-.62-.73-.62-1.23,0-.76,.09-1.53-.02-2.27-.11-.78,.4-1.4,.34-2.2-.06-.87,.12-.88-.55-1.23-.2-.11-.41-.2-.62-.3-.37,.26-.66,.57-.59,1.08,.03,.19,.02,.4-.02,.6-.14,.76-.35,1.52-.44,2.29-.06,.54-.03,1.12,.07,1.65,.2,1.05,.48,2.09,.75,3.23,.5-.71,1.6-.59,1.7-1.62Zm14.74-45.93c-.72,.08-1.38-.25-1.82,.27,.05,.62,.18,1.17,.12,1.7-.1,.89-.2,1.81-.52,2.63-.2,.53,.22,1.04-.17,1.53-.25,.32-.33,.77-.54,1.28,.15,.11,.33,.21,.48,.34,.66,.6,.82,.53,1.33-.22,.54-.8,.39-1.85,1.04-2.58-.44-.62,.1-1.2,.08-1.8-.03-1,0-1.99,0-3.15Zm-8.06,25.9c.09-.11,.17-.23,.26-.34-.25-.09-.51-.17-.8-.27,.32-.3,.44-.41,.55-.52,.12-.13,.35-.26,.34-.39-.01-.47,.03-1.01-.19-1.37-.23-.38-.29-.73-.25-1.11,.03-.38,.27-.78,.2-1.13-.22-1.11,.33-2.08,.48-3.24-.47-.17-.97-.36-1.44-.53-.51,.72-1.16,1.31-.7,2.23,.02,.03,.01,.08,0,.12-.42,.99-.18,2.03-.23,3.05-.04,.97,.4,1.82,.78,2.67,.16,.36,.65,.57,1,.85Zm-5.9,34.67c-.54-.55-1.03-1.15-1.24-1.93-.05-.18-.15-.41-.29-.5-.42-.25-.46-.66-.62-1.05-.43-1.04-.47-2.13-.46-3.17-.54-.37-1.03-.54-1.67-.26,0,.62-.06,1.26,.02,1.88,.08,.61,.38,1.19,.42,1.8,.04,.57,.78,.96,.34,1.61,.63,.26,.67,.99,1.12,1.41,.44,.42,.81,.91,1.25,1.4,.41-.44,.76-.81,1.13-1.19Zm-7.7-30.47c-.21,.05-.4,.1-.77,.18,.74,.48,.61,1.09,.59,1.66-.03,.88,.18,1.67,.67,2.41,.46-.23,.84-.43,1.32-.67-.7-2.41,.05-4.66,.96-6.85-.52-.33-.95-.6-1.4-.88-.65,1.36-1.18,2.73-1.36,4.15Zm10.86-28.23c-.35,.3-.59,.62-.9,.74-.51,.19-.16,.65-.37,.91-.13,.15-.27,.29-.4,.44-.34,.4-.65,.83-1.02,1.21-.55,.57-.06,1.32-.41,1.94-.18,.32-.21,.74-.25,1.13-.05,.43,.34,.98,.78,1.11,.08,.02,.24-.08,.3-.17,.07-.1,.02-.33,.09-.37,.59-.27,.72-.75,.75-1.34,.01-.3,.13-.62,.28-.88,.72-1.24,1.46-2.46,2.21-3.72-.01-.03-.04-.16-.12-.23-.29-.25-.59-.48-.95-.77Zm-3.99,69.59c.42-.27,1.29-.07,1.06-1-.38,.03-.74,.06-1.12,.09q.17-1.21-.42-2.11c-.61,.05-.99,.46-1.35,.88-.35,.4-.2,.95,.32,.97,.73,.04,1.04,.45,1.31,1.01,.03,.07,.12,.1,.19,.16Zm.5-22.29c.41,.06,.78,.09,1.07-.3,.3-.41,.69-.47,1.11-.32,.32,.51-.19,.72-.33,1.1,.19,.09,.37,.18,.52,.25,.18-.43,.24-.89,.5-1.1,.36-.28-.37-.84,.34-.92-.79-.3-1.58-.64-2.41-.32-.41,.16-.75,.52-1.07,.75,.11,.33,.19,.58,.28,.86Zm-24.57-24.7c1.01-.1,.51-.96,.78-1.37,.39-.09,.75-.16,1.38-.3-1.24-.49-1.53-1.36-1.73-2.3-.04-.19-.21-.36-.37-.64-.46,.61-.86,1.12-1.34,1.75,.46,0,.77-.02,1.08,0,.5,.05,.71,.34,.61,.8-.07,.34-.14,.68-.21,1.02-.07,.32-.13,.65-.21,1.04Zm57.89,30.62c-.49-.32-.91-.82-1.17-.74-.88,.24-.33-.8-.85-.81-.17,.07-.35,.15-.52,.23-.45,.21-.49,.61-.39,1.01,.11,.44,.43,.28,.73,.21,.1-.02,.25,.15,.49,.32-.33,.3-.61,.55-.87,.79,1.01,.33,1.65-.5,2.57-1.02Zm-13.16,5.83c-.39,.13-.61,.32-.6,.69,0,.3-.03,.5-.42,.58-.19,.04-.4,.35-.48,.57-.11,.33-.12,.69-.18,1.12,.57-.29,.49-.85,.74-1.2,.86-.04,1.52,.13,2.35,.58,.39,.21,.71,.08,1.22-.65-.87,.47-1.37,.14-1.79-.42-.08-.11-.21-.25-.32-.26-.68-.04-.58-.52-.52-1.01Zm-24.58-51.99c.72,.13,1.29,.17,1.57,.85,.03,.06,.34,0,.63,0-.45-.98-.01-1.75,.37-2.55-.17,0-.3-.03-.31,0-.28,.5-.78,.67-1.26,.92-.37,.19-.67,.51-1.01,.77ZM6.46,132.23c-.34-.45,.26-.68,.18-.82-.41-.74,.18-.65,.55-.72,.89-.19,.98-.5,.32-1.27-.46,.37-.66,1.1-1.45,1.01-.08,0-.2,.3-.3,.46-.19,.34,.01,.72-.09,1.07-.02,.08-.03,.17-.05,.27h.84Zm63.99-13.81c-.25,.96-.45,1.67-.13,2.38,.12,.28,.33,.52,.45,.8,.12,.28,.14,.61,.26,.89,.03,.08,.24,.1,.43,.16,.18-.93-.09-1.63-.66-2.23,.26-.19,.47-.35,.78-.58-.38-.05-.64-.09-.85-.12-.08-.37-.15-.72-.27-1.3Zm-12.14,3.76c.58-.03,1-.05,1.37-.06,.33-.99-.68-1.5-.47-2.35-.68,.17-.94,.45-.79,.92,.16,.48,.21,.92-.11,1.5Zm-4.59-101.92c.35-.71,.5-1.46-.07-2.32-.27,.47-.42,.96-.75,1.23-.31,.26-.81,.29-1.26,.43,.43,.42,.85,.66,1.45,.36,.11-.05,.36,.17,.63,.31ZM14.95,109.03c-.05,.32-.1,.69-.16,1.06-.31,.06-.57,.11-.88,.16,.02,.23,.04,.4,.05,.6h1.36c.17-.59,.34-1.18,.49-1.77,.02-.09-.06-.2-.08-.27-.26,.07-.48,.14-.79,.22ZM55.7,42.98c-.05-.09-.09-.18-.14-.28-.36,.09-.73,.13-1.06,.26-1.07,.43-1.17,.57-.84,1.68,.86-.37,1.34-1.15,2.05-1.67ZM24.17,118.54c.1-1.51,.01-1.64-1.31-2.06,.14,.32,.37,.63,.38,.94,0,.29-.23,.58-.36,.89,.37,.4,.81,.23,1.29,.24Zm36.03-43.55c-.29,.24-.5,.54-.76,.58-.59,.11-.85-.39-1.08-.96-.22,.73-.05,1.15,.52,1.2,.6,.05,.84,.28,.91,.85,.03,.27,.2,.52,.4,.99,.11-.75,.23-1.27,.25-1.8,0-.29-.16-.59-.25-.87Zm10.04,18.72c-.37-.35-1-.24-1.28-.75-.03-.06-.43-.02-.5,.08-.13,.18-.15,.46,.17,.56,.14,.04,.28,.07,.3,.07-.03,.49-.05,.9-.07,1.29,.85-.09,1.01-.78,1.37-1.25Zm-3.89-15.02c.14-.36,.2-.69,.38-.93,.16-.21,.46-.3,.77-.49-.38-.35-.71-.64-.98-.89-.81,.07-.32,.64-.44,.97-.15,.43-.26,.93,.27,1.34Zm-53.88,14.07c-.13-.68-.82-.63-1.08-1.02-.29,.15-.49,.28-.7,.37-.22,.1-.5,.2-.36,.48,.1,.21,.38,.47,.56,.47,.52-.02,1.02-.18,1.57-.28ZM77.67,42.83c-.31-.35-.58-.65-.88-.99-.33,.65-.6,1.27-.42,1.98,.37-.07,.7-.14,1.05-.21,.08-.25,.17-.5,.26-.78Zm-37,11.67c-.16,.43-.38,.82-.42,1.23-.04,.45,.09,.91,.16,1.45,.33-.16,.57-.27,.83-.4-.54-.66,.19-1.61-.57-2.27Zm2.88,71.81c-.1,.22-.15,.54-.3,.6-.2,.08-.48-.03-.74-.06v.4c.98,.09,1.81-.23,2.59-.76,.06-.04,.18,0,.23-.03,.1-.1,.17-.22,.28-.38-.74,.08-1.35,.15-2.05,.23ZM48.44,6.99c.08,.29,.12,.61,.17,.61,.69,0,.83,.56,1.05,1.27,.32-.5,.52-.8,.65-1.01-.03-.62-.96-.13-.74-.89-.16,0-.32-.02-.48-.02-.16,0-.31,.02-.65,.03ZM16.16,117.52q.8-.02,.56-1.52c-.14-.02-.33,.23-.43-.12-.09-.33-.29-.63-.44-.95-.2,.31-.32,.72-.21,.79,.7,.47,.43,1.18,.52,1.79Zm21.35-53.44c.51-.09,.96-.18,1.41-.24,.45-.06,.93,.09,1.46-.16-.3-.45-.55-.28-.9-.17-.25,.08-.59-.09-.89-.16-.33-.08-.66-.17-1.08-.28v1ZM45.85,8.8c.38,.27,.76,.53,1.15,.79,.06,.04,.15,.05,.22,.09,.31,.22,.49-.1,.69-.21,.07-.04,.1-.32,.03-.43-.21-.35-1.61-.59-2-.37-.03,.02-.05,.06-.09,.13Zm-.97,92.42c-.21,.26-.3,.42-.43,.51-.15,.1-.5,.17-.49,.2,.1,.55-.36,.9-.54,1.36,1.07,.22,1.16-.79,1.65-1.24,.09-.08-.1-.46-.18-.82Zm-26.54-12c.38-.44,.71-.86,1.08-1.25,.31-.32,.29-.65,.16-1.06-.73,.63-1.79,.99-1.25,2.31Zm2.38,10.39c-.12,.31-.23,.58-.31,.79,.65,.12,1.22,.23,1.8,.34,.09-.2,.18-.4,.32-.71-.6-.14-1.15-.27-1.82-.42Zm18.89,31.31c.56-.05,1.1,.35,1.7-.07-.21-.35-.42-.7-.61-1.03-.44,.15-.76,.26-1.08,.38v.72Zm17.07-42.98c.2-.21,.43-.43,.61-.67,.13-.18,.26-.39,.28-.6,.07-.57-.15-1.05-.72-1.52,0,.6,.11,1.1-.03,1.52-.15,.46-.27,.88-.14,1.28ZM46.94,7.6c.1-.3,.34-.66,.27-.95-.13-.56-.58-1-.72-1.6-.28,.94-.33,1.82,.45,2.54Zm-23.47,10.65c-.11-.83-.67-1.47-1.18-1.34-.13,.24-.28,.53-.47,.88,.6,.16,1.07,.3,1.65,.46ZM12.96,86.69c.05,.55-.23,1.12,.51,1.4,.55-.32,.46-.89,.71-1.4h-1.22Zm47.4,37.44c.34-.18,.62-.24,.55-.68-.06-.38-.01-.39,.27-.46,.59-.14,.6-.19,.18-.74-.37,.19-.73,.38-1,.52v1.37ZM51.08,14.51c-.51,.36-.8,.85-.83,1.47,.25,.16,.52,.33,.78,.5,.43-.67-.12-1.29,.05-1.97Zm-10.31,84.84c.41-.75,.93-1,1.48-1.23-.53-.13-1.03-.17-1.52-.17-.12,0-.24,.18-.35,.26,.11,.31,.21,.6,.4,1.14Zm-25.87,17.66c-.26-.13-.46-.22-.67-.33-.11,.13-.21,.25-.37,.43,.49,.45,.74,.98,.29,1.75,1.12-.46,.55-1.26,.74-1.86Zm5.63,20.49c-.33,.68,.16,1.14,.22,1.74,.83-.32,.58-.89,.57-1.38-.17-.08-.27-.13-.37-.18-.13-.06-.27-.11-.42-.18Zm-7.57-29.54c-1.15,.63-1.2,1.16-.31,1.84,.07-.29,.16-.59,.21-.89,.05-.29,.06-.58,.09-.95Zm57.65-50.63c0,.08,0,.16,0,.24,.29-.03,.59-.02,.87-.08,.26-.05,.56-.12,.75-.28,.2-.17,.3-.47,.44-.72-.04-.05-.09-.09-.13-.14-.65,.33-1.29,.65-1.94,.98Zm1.59,31.71c-.4-1.18-.52-1.25-1.8-1.12,.86,.81,1.07,.95,1.8,1.12ZM29.07,11.95c-.55-.25-.96-.43-1.43-.65v.84c.37,.17,.74,.35,1.16,.54,.1-.29,.18-.5,.27-.74Zm16.32,111.64c-.71,.21-.45,.9-.66,1.45,.43-.1,.86-.21,1.27-.31-.21-.4-.4-.76-.61-1.14Zm6.27-2.22h1.33c-.28-.41-.52-.76-.76-1.11-.3,.18-.56,.33-.84,.49,.09,.21,.16,.38,.27,.62Zm-17.39,11.21c-.48,.19-.93,.36-1.42,.56,.03,.25,.07,.5,.12,.84,.5-.25,.91-.46,1.3-.66v-.74Zm12.6-91.75c-.17,.65-.15,1.35-.72,1.82,.58,.18,.97-.07,1.36-.35-.23-.54-.43-.99-.64-1.48ZM28.68,17.23c-.25,.69-.45,1.25-.69,1.92,.59-.39,1.04-.69,1.52-1.01-.28-.31-.54-.59-.83-.92ZM61.55,115.87c.44,.43,.99,.13,1.22,.67,.12,.28,.51,.09,.57-.35,.02-.14-.03-.29-.05-.5-.57,.02-1.09-.13-1.74,.18Zm-10.62,10.39c-.47,.36-.63,.58-.5,.78,.15,.22,.35,.44,.58,.58,.13,.08,.36,.02,.64,.02-.27-.52-.5-.94-.72-1.37Zm-3.06-31.1c.27-.32,.42-.58,.64-.72,.27-.18,.61-.26,.94-.39-.55-.8-.98-.29-1.42-.05-.05,.35-.09,.67-.16,1.17Zm-2.12-25.26c-.11,.52,.11,1.02,.54,1.11,.41,.09,.66-.11,.72-.51-.44-.21-.85-.41-1.26-.6Zm8.78-23.02c.69-.33,.99-.68,.89-1.28-.01-.06-.07-.11-.1-.15-.26,.09-.52,.17-.79,.26v1.18Zm-8.69,12.38c-.8-.26-1.33-.43-2.01-.65,.14,.33,.18,.67,.35,.76,.44,.24,.93,.23,1.66-.11Zm-26.47,25.83c.24-.54-.21-.75-.5-1.03-.27,.1-.53,.19-.86,.31,.58,.13,.56,1.14,1.36,.72Zm37.35,11.93c-.82-.93-1.16-.98-1.81-.4,.65,.14,1.23,.27,1.81,.4Zm-21.02-33.4c-.84,.14-1.46,.68-1.27,1.12h.71c.19-.38,.36-.72,.56-1.12Zm9.49,75.7c.48-.41,.97-.71,1.65-.65,.14,.01,.31-.31,.63-.65-1.04,.28-1.95,.27-2.28,1.3ZM54.3,17.93c.49,.15,.77-.01,.88-.41,.09-.36-.11-.59-.46-.71-.54,.2-.52,.61-.41,1.12Zm4.16,122.9c.09-.36,.19-.66,.23-.96,.01-.11-.1-.29-.21-.34-.11-.05-.32-.03-.4,.04-.45,.39-.33,.83,.38,1.25Zm-24.41-40.21c-.23-.5-.25-.98-.79-1.01-.36-.02-.58,.18-.61,.62,.43,.12,.85,.24,1.4,.39Zm12.06,19.84c-.47-.65-.95-.47-1.45-.37v.76c.46-.12,.89-.24,1.45-.39Zm1.04-102.98c1.41-.31,.77-1.15,.67-1.83-.2,.56-.4,1.11-.67,1.83Zm-24.33-1.63c.46,0,.82-.03,1.17,0,.32,.03,.67,.56,.96-.1-.73-.17-1.42-.34-2.14-.51v.6Zm14.42,50.81c.14,.11,.28,.22,.52,.4,.15-.58,.62-.92,.56-1.52q-.69,.33-1.08,1.13ZM48.86,3.41c-.52-.33-.87-.54-1.25-.78-.14,.5-.19,.88,.24,1.14,.29-.1,.57-.2,1.01-.36Zm-1.79,122.75c.07,.66,0,1.19,.58,1.46,.43-.55,.35-.8-.58-1.46Zm-18.22-36.31c-.84-.1-.95,0-.89,1.07h.45c.15-.36,.3-.73,.45-1.07Zm30.09-1.69c-.6-.43-.62,.51-1.06,.53,0,0,0,.14,0,.26,.25,.1,.52,.21,.81,.32,.09-.42,.17-.76,.25-1.11Zm3.24,16.23q.03-.58,.46-1.31h-.68c-.18,.41-.5,.81-.13,1.29,.12,0,.24,.01,.35,.02Zm-47.91,.51c-.09,0-.18,0-.26,0-.07,.54-.14,1.08-.21,1.68,.23-.05,.41-.09,.6-.13-.05-.56,.12-1.08-.13-1.55Zm41.25-20.71c-.13,.26-.23,.44-.43,.82,.63-.15,1.1,.09,1.71-.33-.49-.19-.83-.31-1.28-.48ZM13.69,104.01c.21-.16,.43-.31,.64-.46-.23-.36-.5-.47-.91-.17,.02,.41,.04,.82,.06,1.31,.54-.18,.41-.41,.21-.67Zm14.51,18.65c-.08,0-.17,0-.25-.01-.11,.36-.23,.73-.36,1.14h.87c-.1-.41-.18-.77-.26-1.13Zm22.38,1.74c-.4-.02-.68-.1-.74-.03-.22,.31-.59,.62-.22,1.22,.31-.39,.58-.72,.96-1.19Zm-18.09-13.82c.61-.9,.66-1.18,.2-1.32-.19,.21-.38,.44-.56,.64,.15,.28,.25,.48,.36,.68Zm2.93-.72c-.46,.24-.8,.43-.86,1.01,.35-.02,.64-.04,.97-.06-.04-.34-.07-.6-.11-.95Zm32.08-29.53c-.18-.46-.38-.71-.74-.61-.21,.06-.38,.29-.77,.61h1.51Zm6.21,8.61c.06,0,.11,.01,.17,.02,.08-.5,.16-1,.23-1.45-.28-.02-.45-.02-.72-.04,.11,.51,.22,.99,.32,1.47ZM28.86,10.31c.02,.27,.04,.49,.06,.74-.17,.12-.35,.24-.55,.38,.51,.23,.8-.15,1.12-.29,.07-.49-.11-.73-.63-.83Zm12.7,19.7c.44-.03,.76-.05,1.05-.07-.36-.4-.67-.75-1.05-1.18v1.24Zm9.58,76.99c.58-.61,.61-1.1,.1-1.66-.24,.55-.1,1.07-.1,1.66Zm-13.67-31.97c-.46-.31-.68-.51-.92-.6-.14-.05-.41,.02-.5,.13-.08,.1,.01,.34,.03,.56,.42-.03,.75-.05,1.39-.09Zm-21.1,7.17c.39-.18,.64-.3,.98-.45-.27-.24-.43-.41-.61-.55-.07-.05-.2-.03-.36-.05v1.06Zm22.7-23.58s-.08,0-.12,0c-.1,.57-.21,1.13-.27,1.7-.01,.1,.21,.22,.39,.4v-2.09Zm14.47,24.07c.02,.24,.04,.52,.07,.89,.35-.17,.59-.29,.83-.41-.21-.29-.22-.86-.9-.49Zm-7.72,48.56c.03,.51,.05,.83,.08,1.24,.39-.36,.85-.57,.57-1.09-.05-.1-.33-.08-.65-.14Zm-7.83-56.23c1.07-.48,1.14-.65,.66-2,.07,.92-.08,1.55-.66,2Zm9.97,49.42c-.54-.43-.66-.41-1.3,.31,.48,.05,.96,.2,1.3-.31Zm-25.8,2.14c-.34-.65-.74-.68-1.43-.39,.5,.28,.77,.68,1.43,.39ZM31.84,17.51c.42-.59,.01-.84-.27-1.14-.23,.12-.4,.21-.64,.34,.29,.26,.56,.5,.91,.8Zm28.32,83.03c.37,1.11,.41,1.13,1.03,.52-.36-.18-.69-.35-1.03-.52Zm.33-27.82c.26,.15,.45,.25,.63,.36,.16-.18,.37-.42,.64-.72-.59-.16-1.03-.23-1.27,.37Zm-16.6-16.57c.06,.35,.08,.53,.12,.77,.42-.18,.77-.32,1.12-.47-.01-.08-.03-.16-.04-.23-.35-.02-.7-.04-1.2-.07Zm17.35,62.72c-.64-.15-.96,.1-1.31,.52,.62,.2,1.06,.24,1.31-.52ZM36.47,24.45q.8-.81,.32-1.34c-.51,.34-.28,.82-.32,1.34Zm2.84,54.11c.62,.35,.75-.02,.89-.35,.02-.05,0-.13,0-.23-.11-.07-.23-.16-.42-.28-.17,.31-.3,.56-.46,.86Zm9.4,40.35c-.76,.06-.76,.06-1.08,.39-.03,.03,0,.12,0,.23,.36-.03,.71-.05,1.04-.08,.01-.2,.02-.32,.04-.55Zm15.15-14.14c.24,.3,.45,.49,.7,.19,.1-.12,.17-.35,.12-.48-.05-.14-.26-.23-.43-.37-.15,.26-.27,.45-.4,.66Zm-27.28,7.91c.52,.13,.89,.22,1.26,.32,.03-.06,.05-.12,.08-.19-.3-.23-.59-.46-.91-.71-.14,.19-.23,.31-.43,.58Zm-27.55,15.9c-.22-.4-.35-.62-.51-.92-.13,.23-.18,.33-.25,.45-.08-.13-.16-.25-.26-.4-.09,.21-.18,.41-.27,.61,.37,.07,.7,.14,1.29,.25Zm47.37-7.31c-.48-.09-.74,.15-.95,.39-.07,.08,0,.29,.01,.38h.63c.08-.19,.18-.46,.31-.77Zm4.71-53.85l.11-.27c-.2-.14-.39-.31-.61-.41-.08-.03-.35,.12-.35,.18,0,.16,.06,.43,.17,.47,.2,.08,.44,.02,.67,.02Zm-13.88,2.1c.06,.49,.1,.76,.14,1.08,.51-.17,.69-.44,.55-.83-.04-.11-.32-.12-.7-.24ZM3.66,128.5c.74,.17,1.05,.95,1.98,.36-.7-.11-1.11-.56-1.98-.36Zm39.92,7.43c-.13,.46-.22,.76-.3,1.06,.23,.08,.4,.13,.66,.22-.13-.41,.12-.8-.36-1.28Zm29.27-74.87q1.02-.59,.88-1.35c-.28,.43-.51,.78-.88,1.35ZM34.58,22.51c.24,.19,.48,.38,.72,.57,.26-.3,.33-.56,0-.73-.2-.1-.47-.38-.73,.16Zm18.37,31.72c-.32,.3-.6,.56-.98,.92h1.02c.02-.2,.05-.35,.04-.5,0-.11-.04-.23-.08-.42Zm15.87,70.01q-.47,.72,.16,1.62c-.06-.63-.1-1.03-.16-1.62Zm5.95-84.42c-.24,.56-.13,1.09-.09,1.8q.39-1.44,.09-1.8Zm-7.78,21.79c.95-.06,1-.13,.67-.93-.23,.32-.44,.61-.67,.93Zm-4.48,57.71c-.33,.23-.51,.5-.2,.86,.06,.07,.36,.07,.42,0,.29-.36,.11-.63-.22-.85Zm5.27-48.04c.13-.28,.25-.56,.41-.91q-.74,.22-.41,.91Zm-7.3,40.07q-.23,.92,.52,1.18c-.16-.36-.28-.64-.52-1.18Zm-3.9-18.99v-1.14q-.45,.56,0,1.14Zm-26.5,17.07c-.27,.14-.54,.28-.88,.46q.68,.29,.88-.46Zm-16.1-19.86c.35,.34,.3,.88,.78,.44,.16-.14,.35-.26,.59-.44h-1.37Zm22.58-3.1c-.28,.67,.43,.69,.54,1.07,.3-.58-.01-.87-.54-1.07Zm18.31-4.64c.09-.4,.71-.8-.08-1.1-.59,.4-.07,.71,.08,1.1Zm-43.29,14.06c.54,.16,.61,.74,1.15,.48-.11-.51-.38-.68-1.15-.48Zm42.87-2.38c0-.09,0-.18,0-.27-.32-.17-.63-.2-1.06,.27h1.07Zm-11.62,5.07c-.1,.03-.19,.07-.29,.1,.03,.2-.01,.46,.1,.59,.07,.08,.36-.02,.56-.03,.05-.09,.1-.17,.14-.26-.17-.13-.34-.27-.51-.4Zm7.5,25.6c.24-.25,.42-.44,.66-.69q-.8-.09-.66,.69Zm-.09-36.21c-.23,.25-.41,.44-.65,.7q.81,.07,.65-.7Zm3.38-26.71q-.02,.91,.69,.68c-.2-.2-.38-.37-.69-.68Zm.39,79.54c-.02-.36-.04-.73-.06-1.19-.78,.53-.14,.84,.06,1.19Zm17.08-26.86c-.08-.06-.15-.12-.23-.18-.46,.12-.62,.41-.41,1.02,.26-.34,.45-.59,.64-.84Zm-10.92-53.19c-.53,.61-.5,.67,.35,.84-.13-.31-.23-.57-.35-.84ZM27.49,138.17c.04-.7-.13-.98-.48-.85v.62c.13,.06,.31,.14,.48,.23ZM76.58,54.91h.91c-.18-.27-.32-.49-.5-.78-.17,.33-.27,.53-.4,.78ZM29.52,137.39c-.21-.14-.38-.26-.7-.48,.04,.39,.06,.61,.1,.99,.28-.23,.42-.35,.6-.51Zm37.05-63.02q.32-.45-.08-.9s-.13,.05-.26,.1c.11,.26,.22,.51,.35,.8Zm-.72,40.08c-.33-.31-.52-.48-.73-.67-.1,.26-.18,.45-.27,.67h.99Zm-3.82-26.43s.12-.07,.17-.13c.05-.05,.1-.12,.14-.19-.45-.35-.77-.33-.84,.04,.17,.09,.34,.18,.53,.27ZM52.86,10.77q.48-.57,0-.95v.95Zm-5.75,2.88c.25-.17,.46-.31,.74-.5q-.74-.18-.74,.5Zm-11.61,59.3c-.3,.18-.51,.3-.77,.46q.65,.3,.77-.46Zm23.3,.75c.17,.29,.29,.5,.45,.77q.29-.67-.45-.77Zm-9.39-56.42c.43,.67,.91,.47,1.6,.38-.64-.15-1.07-.25-1.6-.38ZM26.32,116.91q-.48,.57,0,.95v-.95Zm24.32-44.1c-.14-.45-.42-.4-.67-.17-.09,.08-.01,.33-.01,.54,.27-.14,.46-.25,.68-.37Zm-31.35,27.28q.51,.48,.91,.08c-.35-.03-.63-.05-.91-.08Zm-1.05,20.36c-.24-.33-.43-.58-.74-1,.08,.56-.21,1.09,.74,1Zm25.1,4.06q-.67-.14-1.09,.39c.47-.17,.78-.28,1.09-.39Zm3.31-59.46c-.04,.08-.08,.15-.13,.23,.13,.15,.26,.3,.43,.49,.15-.23,.25-.38,.42-.63-.32-.04-.52-.07-.72-.1Zm6.89,31.83c-.33,.31-.3,.62-.17,1.01,.39-.27,.52-.54,.17-1.01ZM14.5,133.86c.57,.09,.87,.07,1.04-.35-.11-.09-.22-.18-.31-.27-.21,.18-.38,.33-.72,.62ZM43.8,52.16c-.24-.48,.1-.88-.44-1.03-.3,.38-.19,.65,.44,1.03Zm-13.6,44.93c-.04-.39-.06-.61-.09-.99-.28,.23-.42,.35-.6,.51,.21,.14,.38,.27,.7,.49Zm41.87,18.48q-.03,.92,.43,.96c-.12-.27-.23-.5-.43-.96Zm-32.7-48.46c.07,.45,.29,.39,.51,.14,.1-.11,.11-.29,.2-.54-.32,.18-.52,.29-.72,.4Zm7.52-9.05c-.13,.23-.22,.39-.31,.55,.19,.07,.38,.14,.7,.26-.17-.34-.26-.54-.39-.81Zm-17.58,58.27c.47,.15,.61-.11,.64-.49,0-.04-.17-.09-.27-.15-.12,.22-.24,.41-.37,.64Zm-.06-21.4c.28,.11,.47,.19,.75,.31-.02-.25-.03-.44-.06-.75-.28,.18-.46,.29-.7,.44Zm20.33,33.05c-.36,.2-.49,.47-.28,.85,.36-.2,.49-.47,.28-.85Zm-20.66-3.96c-.14,.16-.24,.28-.41,.46,.27,.12,.47,.21,.94,.42-.27-.44-.37-.62-.53-.88Zm29.23-44.29c-.16-.18-.26-.35-.4-.44-.04-.02-.21,.16-.32,.24,.12,.12,.23,.26,.37,.36,.04,.03,.17-.07,.35-.16Zm-9.03-9.99c.37,.58,.62,.69,1.13,.38-.4-.13-.65-.22-1.13-.38Zm-29.75,10.03v-.77c-.24,.12-.42,.22-.69,.36,.27,.16,.42,.25,.69,.41Zm13.48-5.57c-.12,.33-.21,.47-.19,.58,.02,.11,.16,.21,.24,.31,.07-.12,.19-.23,.2-.35,0-.11-.1-.23-.25-.54Zm34.29,66.75h-1.13c.44,.66,.78,0,1.13,0ZM49.29,31.56c-.15-.14-.25-.23-.34-.33-.08,.11-.22,.22-.22,.33,0,.11,.14,.22,.22,.33,.1-.09,.19-.18,.34-.33Zm-29.33,106.18c-.22-.65-.69-.38-1.03-.41,.3,.12,.6,.24,1.03,.41ZM69.76,56.56c.29,.12,.5,.21,.97,.4-.27-.43-.39-.61-.55-.85-.15,.16-.25,.27-.42,.45Zm-6.31,66.63c-.16-.12-.26-.2-.36-.28-.07,.12-.2,.24-.19,.35,0,.1,.15,.2,.24,.3,.09-.1,.17-.2,.32-.37ZM34.22,15.28s-.02-.1-.03-.15c-.19,0-.4-.04-.58,.02-.1,.03-.16,.22-.23,.35,.04,.04,.08,.08,.12,.12,.24-.11,.48-.22,.72-.33Zm11.74,125.9c-.22,.14-.51,.26-.26,.58,.04,.05,.28,0,.38-.08,.31-.23,.05-.36-.12-.5Zm-2.24-99.47c-.38,.23-.58,.35-.85,.51q.49,.19,.85-.51ZM10.99,103.94c.06,.06,.11,.12,.17,.17,.24-.23,.61-.38,.54-1-.3,.35-.51,.59-.71,.83Zm54.16,12.71c-.02,.31-.49,.46-.15,.79,.05,.05,.21,.07,.27,.03,.38-.3-.03-.51-.12-.81Zm-23.87-52.65c-.24-.22-.43-.4-.67-.62-.14,.67,.11,.78,.67,.62Zm20.75,54.09c.19-.02,.36-.05,.59-.07-.19-.27-.33-.48-.59-.86v.93Zm-1.44-1.14c-.2-.1-.33-.23-.46-.22-.11,0-.3,.15-.31,.25-.01,.1,.14,.29,.25,.31,.1,.02,.23-.14,.52-.33Zm-6.31-95.01s.02,.08,.05,.1c.15,.09,.31,.17,.47,.25,.04-.1,.07-.2,.11-.3-.18-.04-.35-.07-.53-.1-.03,0-.06,.04-.1,.06Zm-5.36,24.94l-.15-.05c-.09,.18-.19,.37-.28,.55,.1,.03,.2,.07,.3,.1l.13-.6Zm-18.11,41.37c.06-.04,.12-.05,.13-.07,.06-.16,.11-.32,.16-.48-.07-.02-.19-.07-.2-.06-.07,.15-.14,.31-.19,.47-.01,.04,.07,.1,.1,.14Zm8.94,24.85s-.08,0-.12,0v1.08s.08,0,.12,0v-1.08Zm26.45-38.38l-.15-.05c-.09,.18-.19,.37-.28,.55l.3,.1c.04-.2,.08-.4,.13-.6Zm-18.4,66.26s.02,.08,.05,.1c.15,.09,.31,.17,.47,.25,.04-.1,.07-.2,.11-.3-.18-.04-.35-.07-.53-.1-.03,0-.07,.04-.1,.06Zm.83-106.77c-.04-.06-.05-.12-.07-.13-.16-.06-.32-.11-.48-.16-.02,.07-.07,.19-.06,.2,.15,.07,.31,.14,.47,.19,.04,.01,.1-.07,.14-.1Zm-26.55,45.14c-.08-.03-.17-.06-.25-.08-.05,.19-.11,.38-.15,.57,0,0,.19,.07,.19,.06,.08-.18,.15-.36,.22-.54ZM56,20.41c-.02,.05-.04,.1-.06,.15,.18,.1,.36,.19,.54,.29l.11-.3c-.2-.05-.4-.09-.6-.14Zm23.85,16.58l-.15,.05c.04,.2,.07,.4,.11,.6,.1-.03,.2-.06,.31-.09-.09-.19-.17-.37-.26-.56ZM12.36,105.86c.13-.13,.23-.24,.37-.39-.14-.13-.24-.24-.4-.38-.13,.14-.23,.25-.37,.41,.14,.12,.25,.23,.4,.36Zm50.28-34.67c.05,.02,.1,.04,.15,.06,.1-.18,.19-.36,.29-.54-.1-.04-.2-.07-.3-.11-.05,.2-.09,.4-.14,.6Zm-2.19,70.5c.08,.03,.17,.06,.25,.09,.06-.19,.11-.38,.16-.58,0,0-.19-.07-.19-.06-.08,.18-.15,.36-.22,.54Zm-5.48-13.16c-.08-.03-.17-.06-.25-.09-.06,.19-.11,.38-.16,.58,0,0,.19,.07,.19,.06,.08-.18,.15-.36,.22-.54Zm-4.34-72.36c-.09,.3-.13,.43-.12,.44,.26,.1-.32,.47,.15,.46,.07,0,.19-.21,.2-.33,.01-.11-.09-.24-.22-.57Zm-12.46,84.05c.02,.05,.03,.1,.05,.15,.2-.04,.41-.07,.61-.11-.03-.1-.06-.21-.09-.31-.19,.09-.38,.18-.56,.26Zm22.58-48.94c.46,.08,.68-.07,.63-.6-.26,.25-.45,.43-.63,.6ZM8.91,130.38c.05,.07,.09,.13,.14,.2,.16-.12,.32-.24,.49-.36-.03-.05-.07-.1-.1-.15-.17,.1-.35,.21-.52,.31Zm2.42,4.3c-.12-.11-.19-.23-.26-.23-.07,0-.21,.1-.22,.17,0,.07,.09,.2,.17,.22,.07,.02,.17-.08,.31-.16Zm7.36-43.91c.07,.06,.14,.11,.2,.17l.29-.6s-.09-.05-.14-.07c-.12,.17-.24,.34-.36,.5Zm57.37-42.93s-.09-.03-.14-.04c-.08,.21-.16,.41-.23,.62,.08,.02,.15,.04,.23,.06,.05-.21,.1-.43,.15-.64Zm-2.36,43.79c-.07-.06-.14-.11-.2-.17-.1,.2-.19,.4-.29,.6,.05,.02,.09,.05,.14,.07,.12-.17,.24-.34,.36-.5Zm-43.89-23.92c-.12-.11-.19-.23-.26-.23-.08,0-.21,.1-.22,.17-.01,.07,.09,.2,.17,.22,.07,.02,.17-.08,.31-.16ZM3.07,132.26q-.39,.34,.04,.6c-.01-.21-.03-.39-.04-.6Zm23.33-11.27c-.04-.07-.08-.14-.12-.22-.17,.1-.35,.19-.52,.29,.02,.05,.05,.09,.07,.14,.19-.07,.38-.14,.58-.22Zm-4.12-42.71c.11-.12,.23-.19,.23-.26,0-.08-.1-.21-.17-.22-.07,0-.2,.09-.22,.17-.02,.07,.08,.17,.16,.31Zm-4.46,14.35v.86c.22-.25,.31-.36,.42-.49-.15-.13-.26-.23-.42-.37Zm34.34,42.26c.04-.07,.08-.15,.12-.22-.19-.08-.38-.17-.58-.25-.02,.05-.04,.1-.07,.15,.17,.1,.35,.21,.52,.31ZM13.15,92.85l-.17,.2c.19,.1,.38,.2,.57,.31,.03-.05,.05-.09,.08-.14l-.48-.37Zm5.14,44.97s0,.08,0,.11h.84v-.11h-.84Zm8.13-65.13q.39-.34-.03-.61c.01,.22,.02,.39,.03,.61Zm25.21-22.26c-.12-.11-.19-.23-.26-.23-.08,0-.21,.1-.22,.17-.01,.07,.09,.2,.17,.22,.07,.02,.17-.08,.31-.16Zm-12.41,49.47q0,.4,.51,.28c-.17-.09-.34-.19-.51-.28Zm-23.39,20.02c-.05-.03-.1-.07-.16-.1-.11,.17-.23,.34-.34,.51,.05,.03,.1,.07,.16,.1,.11-.17,.23-.34,.34-.51Zm41.54-31.41c-.11,.12-.23,.19-.23,.26,0,.08,.1,.21,.17,.22,.07,.01,.2-.09,.22-.17,.02-.07-.08-.17-.16-.31Zm-29.02,48.33c-.12-.11-.19-.23-.26-.23-.07,0-.21,.1-.22,.17,0,.07,.09,.2,.17,.22,.07,.02,.17-.08,.31-.16Zm44.41-72.82s.08,0,.11,0v-.84h-.11v.84Zm4.97-5.1c-.12-.11-.23-.22-.41-.38v.76c.18-.16,.29-.26,.41-.37Zm-44.76,56.09c0,.06,.01,.13,.02,.19,.24-.02,.49-.04,.73-.06,0-.04,0-.08,0-.13h-.74Zm29.6-17.94c-.06-.04-.11-.08-.17-.13-.08,.1-.2,.18-.23,.3-.03,.11,.03,.24,.07,.45,.15-.28,.23-.45,.32-.62Zm-16.92,10.12c.08,.04,.16,.08,.24,.11,.06-.21,.12-.42,.17-.63-.04-.01-.08-.03-.12-.04-.1,.19-.2,.37-.3,.56Zm1.34-39.45q-.39,.31,0,.58v-.58Zm-2.55,67.35c-.14-.08-.24-.17-.31-.16-.07,.02-.18,.15-.17,.22,0,.07,.14,.17,.21,.17,.07,0,.14-.12,.27-.23Zm-29.85-27.03q-.39,.31,0,.58v-.58Zm19.27,30.58q.54,.03,.61-.34c-.2,.11-.38,.21-.61,.34Zm31.16-58.61c-.03-.11-.05-.18-.06-.25-.09,.05-.2,.08-.26,.15-.03,.03,.03,.15,.05,.22,.09-.04,.18-.08,.27-.12Zm-45.21,16.41c0-.06,0-.13-.01-.19-.17,.03-.34,.06-.51,.09,0,.04,0,.07,.01,.11h.51Zm26.18-48.6c.1-.45,.02-.58-.48-.45,.19,.18,.3,.28,.48,.45Zm17.55,7.31v-.12h-.61v.12h.61Zm-43.25,30.79c.04-.16,.09-.29,.08-.29-.11-.05-.23-.09-.35-.13,.08,.12,.16,.24,.27,.42Zm13.83-4.67c.06,0,.13,0,.19-.01-.03-.17-.06-.34-.09-.51-.04,0-.07,0-.11,.01v.51Zm-.76-54.97s.08,.06,.12,.09c.1-.11,.2-.23,.29-.34l-.16-.12c-.08,.12-.17,.25-.25,.37Zm-.56,56.67c.45,.1,.58,.02,.45-.48-.18,.19-.28,.3-.45,.48Zm-2.87-56.5s-.07,0-.11,0v.61s.07,0,.11,0v-.61ZM14.5,126.7c-.04,.16-.09,.28-.07,.29,.11,.06,.22,.09,.34,.13-.08-.12-.15-.25-.27-.43ZM36,20.7c-.38-.06-.59-.05-.35,.38,.1-.11,.2-.22,.35-.38Zm12.23,101.44c.06,.08,.11,.17,.19,.22,.04,.03,.14-.03,.21-.05-.08-.11-.16-.22-.24-.32-.04,.04-.09,.08-.16,.15Zm-17.93-10.12h.12v-.61h-.12v.61Zm32.83-33.92c-.16-.04-.28-.09-.29-.07-.06,.11-.09,.22-.13,.34,.12-.08,.25-.15,.43-.27Zm-18.43,45.44s.07,0,.11,0v-.61s-.07,0-.11,0v.61Zm-35.12,13.84c-.03-.11-.05-.18-.06-.25-.09,.05-.2,.08-.26,.15-.03,.03,.03,.15,.06,.22,.09-.04,.18-.08,.27-.12Zm.75-8.74c-.08,.06-.17,.11-.22,.19-.03,.04,.03,.14,.05,.21,.11-.08,.22-.16,.32-.24-.04-.04-.08-.09-.15-.16Zm33.96-27.4v-.19c-.18,.03-.35,.06-.53,.09,0,.04,0,.07,.01,.11h.51Zm10.26-24.11c-.45-.1-.58-.02-.45,.48,.18-.19,.28-.3,.45-.48Zm3.47,43.41h-.12v.61h.12v-.61Zm-12.37-43.17c.05,.05,.11,.1,.16,.16,.09-.12,.18-.24,.27-.36-.04-.03-.07-.06-.11-.09-.11,.1-.21,.19-.32,.29Zm4.8-34.27h.19c-.03-.18-.05-.35-.08-.53-.04,0-.07,0-.11,0v.52Zm-7.48,58.53c-.16-.04-.29-.09-.29-.08-.05,.11-.09,.23-.13,.35,.12-.08,.24-.16,.42-.27ZM4.08,136.09c-.06-.08-.11-.17-.19-.22-.04-.03-.14,.03-.21,.05,.08,.11,.16,.22,.24,.32,.04-.04,.09-.08,.16-.15Zm8.86-18.38s-.08-.06-.12-.09c-.1,.11-.2,.23-.29,.34l.16,.12c.08-.12,.17-.25,.25-.37ZM55.2,49.32s.08,.06,.12,.09c.1-.11,.2-.23,.29-.34-.05-.04-.11-.08-.16-.12-.08,.12-.17,.25-.25,.37Zm7.55,40.93s-.06,.08-.09,.12c.11,.1,.23,.2,.34,.29l.12-.16c-.12-.08-.25-.17-.37-.25ZM50.59,5.19c-.05-.05-.11-.1-.16-.16-.09,.12-.18,.24-.27,.36,.04,.03,.07,.06,.11,.09,.11-.1,.21-.19,.32-.29Zm-8.66,119.91s-.07,0-.11,0v.61s.07,0,.11,0v-.61ZM62.14,35.26c.06,.08,.11,.17,.19,.22,.04,.03,.14-.03,.21-.05-.08-.11-.16-.22-.24-.32-.04,.04-.09,.08-.16,.15Zm-18.61,69.07c-.13,.46-.03,.56,.46,.44-.18-.18-.29-.28-.46-.44Zm25.16,8.29s0,.07,0,.11h.6s0-.07,0-.11h-.6Zm-25.03-23.01c-.03-.11-.05-.18-.06-.25-.09,.05-.2,.08-.26,.15-.03,.03,.03,.15,.06,.22,.09-.04,.18-.08,.27-.12Zm-7.34-.62c.05-.05,.1-.11,.16-.16-.12-.09-.24-.18-.36-.27-.03,.04-.06,.07-.09,.11,.1,.11,.19,.21,.29,.32Zm15.93-50.18s0-.07,0-.11h-.61s0,.07,0,.11h.61Zm-5.21,34.64c-.06-.08-.11-.17-.19-.22-.04-.03-.14,.03-.21,.05,.08,.11,.16,.22,.24,.32,.04-.04,.09-.08,.16-.15Zm-20.69,44.78c-.05-.05-.11-.1-.16-.16-.09,.12-.18,.24-.27,.36,.04,.03,.07,.06,.11,.09,.11-.1,.21-.19,.32-.29Zm-8.53,6.03s.07,0,.11,0v-.61s-.07,0-.11,0v.61Zm38.43-36.23c.05-.05,.1-.11,.16-.16-.12-.09-.24-.18-.36-.27-.03,.04-.06,.07-.09,.11,.1,.11,.19,.21,.29,.32Zm.1,51.03c-.06,0-.13,0-.19,.01,.03,.17,.06,.34,.09,.51,.04,0,.07,0,.11-.01v-.51Zm5.45-89.63s.06-.09,.09-.13c-.13-.08-.26-.16-.38-.24-.01,.07-.06,.19-.03,.21,.09,.07,.21,.11,.32,.17Zm5.23,76.03h.1v-.38h-.1v.38Zm-33.24-18.02v-.1h-.38v.1h.38Zm15.35,18.41c-.09-.03-.16-.08-.22-.08-.04,0-.08,.08-.12,.12,.07,.02,.13,.07,.2,.06,.05,0,.09-.07,.14-.11Zm-17.24-25.5c-.02-.07-.05-.13-.07-.2-.04,.04-.12,.07-.12,.11,0,.07,.04,.13,.06,.2,.04-.04,.09-.08,.13-.12Zm3.91-1.65v.1h.38v-.1h-.38Zm-18.12,29.36s-.08-.12-.12-.12c-.06,0-.13,.04-.2,.06,.04,.04,.07,.12,.12,.12,.07,0,.13-.04,.21-.06Zm49.97-32.27c-.02-.07-.05-.13-.07-.2-.04,.04-.12,.07-.12,.12,0,.07,.04,.13,.06,.2,.04-.04,.09-.08,.13-.12Zm-7.49-1.67h-.1v.38h.1v-.38Zm-48.34,.04s.08,.12,.12,.12c.06,0,.13-.04,.2-.06-.04-.04-.07-.12-.11-.12-.07,0-.13,.04-.21,.06Zm51.12,17.04s.08,.12,.12,.12c.06,0,.13-.04,.2-.06-.04-.04-.07-.12-.11-.12-.07,0-.13,.04-.21,.06Zm-44.4,.58h.1v-.38h-.1v.38Zm8.26-18.52s-.08-.12-.12-.12c-.06,0-.13,.04-.2,.06,.04,.04,.07,.12,.11,.12,.07,0,.13-.04,.21-.06Zm43.44-.34h-.1v.38h.1v-.38Zm4.1-1.8v-.1h-.38v.1h.38Zm-3.88-1.06s-.12,.08-.12,.12c0,.06,.04,.13,.06,.2,.04-.04,.12-.07,.12-.11,0-.07-.04-.13-.06-.21Zm6.4-.12h.1v-.38h-.1v.38Zm-41.39-2.33s-.08,.08-.12,.13c.07,.02,.13,.07,.2,.07,.04,0,.08-.08,.12-.12-.07-.02-.13-.05-.2-.07Zm26.87,26.31v-.1h-.38v.1h.38Zm-13.97-26.63c.03-.09,.08-.16,.08-.22,0-.04-.08-.08-.12-.12-.02,.07-.07,.13-.06,.2,0,.05,.07,.09,.11,.14Zm4.09-5.63s-.12,.08-.12,.12c0,.06,.04,.13,.06,.2,.04-.04,.12-.07,.12-.11,0-.07-.04-.13-.06-.21Zm17.76,10.32s-.12,.08-.12,.12c0,.06,.04,.13,.06,.2,.04-.04,.12-.07,.12-.11,0-.07-.04-.13-.06-.21Zm-14.26,41.52v.1h.38v-.1h-.38ZM21.3,80.81v-.1h-.38v.1h.38Zm-14.52,52.96s.08,.12,.12,.12c.06,0,.13-.04,.2-.06-.04-.04-.07-.12-.11-.12-.07,0-.13,.04-.21,.06Zm6.32-17.78s-.12,.08-.12,.12c0,.06,.04,.13,.06,.2,.04-.04,.12-.07,.12-.11,0-.07-.04-.13-.06-.21Zm55.48-36.62v-.1h-.38v.1h.38Zm-32.18-.02s-.08-.12-.12-.12c-.06,0-.13,.04-.2,.06,.04,.04,.07,.12,.11,.12,.07,0,.13-.04,.21-.06Zm-7.53,55.72h.1v-.38h-.1v.38Zm15.51-61.19s-.08-.08-.13-.12c-.02,.07-.07,.13-.07,.2,0,.04,.08,.08,.12,.12,.02-.07,.05-.13,.07-.2Zm-14.07-.11s.08,.12,.12,.12c.06,0,.13-.04,.2-.06-.04-.04-.07-.12-.12-.12-.07,0-.13,.04-.21,.06Zm-9.05,62.01c.03-.09,.08-.16,.08-.22,0-.04-.08-.08-.12-.12-.02,.07-.07,.13-.06,.2,0,.05,.07,.09,.11,.14Zm27.41-64.81v-.1h-.38v.1h.38Zm-.21,46.44c-.02-.07-.05-.13-.07-.2-.04,.04-.12,.07-.12,.11,0,.07,.04,.13,.06,.2,.04-.04,.09-.08,.13-.12Zm-17.91-46.99s.08,.12,.12,.12c.06,0,.13-.04,.2-.06-.04-.04-.07-.12-.11-.12-.07,0-.13,.04-.21,.06Zm-11.66,65.72h-.1v.38h.1v-.38ZM47.44,63.51s-.08-.12-.12-.12c-.06,0-.13,.04-.2,.06,.04,.04,.07,.12,.11,.12,.07,0,.13-.04,.21-.06Zm18.5-.94v-.1h-.38v.1h.38Zm-25.41-1.8c-.02-.07-.05-.13-.07-.2-.04,.04-.12,.07-.12,.11,0,.07,.04,.13,.06,.2,.04-.04,.09-.08,.13-.12Zm25.44-.24c-.02-.07-.05-.13-.07-.2-.04,.04-.12,.07-.12,.12,0,.07,.04,.13,.06,.2,.04-.04,.09-.08,.13-.12Zm11.47-2.53s-.08-.12-.12-.12c-.06,0-.13,.04-.2,.06,.04,.04,.07,.12,.11,.12,.07,0,.13-.04,.21-.06Zm-24.81-4.62s.08,.12,.12,.12c.06,0,.13-.04,.2-.06-.04-.04-.07-.12-.11-.12-.07,0-.13,.04-.21,.06Zm-3.51-9.06s-.08-.12-.12-.12c-.06,0-.13,.04-.2,.06,.04,.04,.07,.12,.11,.12,.07,0,.13-.04,.21-.06Zm-17.85,93.3s.08,.12,.12,.12c.06,0,.13-.04,.2-.06-.04-.04-.07-.12-.12-.12-.07,0-.13,.04-.21,.06ZM69.78,42.17v-.1h-.38v.1h.38Zm-18.97-.31c-.09-.03-.16-.08-.22-.08-.04,0-.08,.08-.12,.12,.07,.02,.13,.07,.2,.06,.05,0,.09-.07,.14-.11Zm9.16-7.58s-.08-.08-.13-.12c-.02,.07-.07,.13-.07,.2,0,.04,.08,.08,.12,.12,.02-.07,.05-.13,.07-.2Zm-8.96,106.06c.03-.09,.08-.16,.08-.22,0-.04-.08-.08-.12-.12-.02,.07-.07,.13-.06,.2,0,.05,.07,.09,.11,.14Zm11.21-107.61s.08,.12,.12,.12c.06,0,.13-.04,.2-.06-.04-.04-.07-.12-.11-.12-.07,0-.13,.04-.21,.06Zm-5.04,107.76s.08,.12,.12,.12c.06,0,.13-.04,.2-.06-.04-.04-.07-.12-.12-.12-.07,0-.13,.04-.21,.06ZM39.9,28.65s.08,.12,.12,.12c.06,0,.13-.04,.2-.06-.04-.04-.07-.12-.11-.12-.07,0-.13,.04-.21,.06Zm1.9,93.34v.1h.38v-.1h-.38Zm-14.86,19.32h.1v-.38h-.1v.38Zm27.24-18.74v-.1h-.38v.1h.38Zm-5.64-97.76s.08,.12,.12,.12c.06,0,.13-.04,.2-.06-.04-.04-.07-.12-.11-.12-.07,0-.13,.04-.21,.06Zm-21.45-4.37c-.02-.07-.05-.13-.07-.2-.04,.04-.12,.07-.12,.11,0,.07,.04,.13,.06,.2,.04-.04,.09-.08,.13-.12Zm5.95-.95h-.1v.38h.1v-.38Zm19.92-1.58s-.08-.12-.12-.12c-.06,0-.13,.04-.2,.06,.04,.04,.07,.12,.11,.12,.07,0,.13-.04,.21-.06Zm16.8,105.26h-.1v.38h.1v-.38ZM51.18,4.41s.08,.12,.12,.12c.06,0,.13-.04,.2-.06-.04-.04-.07-.12-.12-.12-.07,0-.13,.04-.21,.06Zm-19.1,138.2h-.1v.38h.1v-.38Zm12.05-18.81s-.08-.08-.13-.12c-.02,.07-.07,.13-.07,.2,0,.04,.08,.08,.12,.12,.02-.07,.05-.13,.07-.2Zm10.7-6.48s.06-.05,.09-.08c-.03-.03-.05-.08-.08-.08-.03,0-.06,.04-.09,.07l.08,.09Zm6.33-.56s-.05-.06-.08-.09c-.03,.03-.08,.05-.08,.08,0,.03,.04,.06,.07,.09,.03-.03,.06-.05,.09-.08Zm-23.27-1.21h-.17s.05,.08,.08,.08c.03,0,.06-.04,.1-.08Zm-3.46-3.21v.17s.08-.05,.08-.08c0-.03-.04-.06-.08-.1Zm9.36-2.16v.17s.08-.05,.08-.08c0-.03-.04-.06-.08-.1Zm-7.1-.39h-.17s.05,.08,.08,.08c.03,0,.06-.04,.1-.08Zm-9.46-.09v.17s.08-.05,.08-.08c0-.03-.04-.06-.08-.1Zm-18,0v.17s.08-.05,.08-.08c0-.03-.04-.06-.08-.1Zm47.04,14.88v.17s.08-.05,.08-.08c0-.03-.04-.06-.08-.1Zm1.92,0v.17s.08-.05,.08-.08c0-.03-.04-.06-.08-.1Zm-14.16-15.84v.17s.08-.05,.08-.08c0-.03-.04-.06-.08-.1Zm-14.08-1.1s-.05-.06-.08-.09c-.03,.03-.08,.05-.08,.08,0,.03,.04,.06,.07,.09,.03-.03,.06-.05,.09-.08Zm26.31-3.53s.06-.05,.09-.08c-.03-.03-.05-.08-.08-.08-.03,0-.06,.04-.09,.07l.08,.09Zm-7.44-1.37v.17s.08-.05,.08-.08c0-.03-.04-.06-.08-.1Zm20.96-1.58s-.05-.06-.08-.09c-.03,.03-.08,.05-.08,.08,0,.03,.04,.06,.07,.09,.03-.03,.06-.05,.09-.08Zm-.72,0s-.05-.06-.08-.09c-.03,.03-.08,.05-.08,.08,0,.03,.04,.06,.07,.09,.03-.03,.06-.05,.09-.08Zm-26.64-.24s-.05-.06-.08-.09c-.03,.03-.08,.05-.08,.08,0,.03,.04,.06,.07,.09,.03-.03,.06-.05,.09-.08Zm10.08-.96s-.05-.06-.08-.09c-.03,.03-.08,.05-.08,.08,0,.03,.04,.06,.07,.09,.03-.03,.06-.05,.09-.08Zm-13.52-1.06v.17s.08-.05,.08-.08c0-.03-.04-.06-.08-.1Zm-2.4-.24v.17s.08-.05,.08-.08c0-.03-.04-.06-.08-.1Zm13.68-1.68v.17s.08-.05,.08-.08c0-.03-.04-.06-.08-.1Zm-5.76,.17s.06-.05,.09-.08c-.03-.03-.05-.08-.08-.08-.03,0-.06,.04-.09,.07l.08,.09Zm19.05,31.12s-.05-.06-.08-.09c-.03,.03-.08,.05-.08,.08,0,.03,.04,.06,.07,.09,.03-.03,.06-.05,.09-.08Zm5.04-33.36s-.05-.06-.08-.09c-.03,.03-.08,.05-.08,.08,0,.03,.04,.06,.07,.09,.03-.03,.06-.05,.09-.08Zm-7.91-.49h-.17s.05,.08,.08,.08c.03,0,.06-.04,.1-.08Zm-7.54-1.6s.06-.05,.09-.08c-.03-.03-.05-.08-.08-.08-.03,0-.06,.04-.09,.07l.08,.09ZM50.6,2.75h-.17s.05,.08,.08,.08c.03,0,.06-.04,.1-.08ZM22.91,91.95v.17s.08-.05,.08-.08c0-.03-.04-.06-.08-.1ZM5.63,129.63v.17s.08-.05,.08-.08c0-.03-.04-.06-.08-.1Zm26.96,.34s-.05-.06-.08-.09c-.03,.03-.08,.05-.08,.08,0,.03,.04,.06,.07,.09,.03-.03,.06-.05,.09-.08Zm34.96-39.22v.17s.08-.05,.08-.08c0-.03-.04-.06-.08-.1Zm-49.2,0v.17s.08-.05,.08-.08c0-.03-.04-.06-.08-.1Zm37.2-5.35s.06-.05,.09-.08c-.03-.03-.05-.08-.08-.08-.03,0-.06,.04-.09,.07,.03,.03,.05,.06,.08,.09ZM15.47,131.31v.17s.08-.05,.08-.08c0-.03-.04-.06-.08-.1Zm49.54-46.71h-.17s.05,.08,.08,.08c.03,0,.06-.04,.1-.08Zm-.1-.57v.17s.08-.05,.08-.08c0-.03-.04-.06-.08-.1Zm-8.88-.79s.06-.05,.09-.08c-.03-.03-.05-.08-.08-.08-.03,0-.06,.04-.09,.07l.08,.09Zm-15.84-1.85v.17s.08-.05,.08-.08c0-.03-.04-.06-.08-.1Zm-16.24-.62s-.05-.06-.08-.09c-.03,.03-.08,.05-.08,.08,0,.03,.04,.06,.07,.09l.09-.08Zm36.48-.96s-.05-.06-.08-.09c-.03,.03-.08,.05-.08,.08,0,.03,.04,.06,.07,.09l.09-.08ZM4.19,134.43v.17s.08-.05,.08-.08c0-.03-.04-.06-.08-.1Zm60.58-57.75h-.17s.05,.08,.08,.08c.03,0,.06-.04,.1-.08Zm-36.58-1.29v.17s.08-.05,.08-.08c0-.03-.04-.06-.08-.1Zm9.36-.31s.06-.05,.09-.08c-.03-.03-.05-.08-.08-.08-.03,0-.06,.04-.09,.07l.08,.09Zm26.74-2.48h-.17s.05,.08,.08,.08c.03,0,.06-.04,.1-.08Zm-16.32,0h-.17s.05,.08,.08,.08c.03,0,.06-.04,.1-.08Zm-3.37-.23s-.05-.06-.08-.09c-.03,.03-.08,.05-.08,.08,0,.03,.04,.06,.07,.09,.03-.03,.06-.05,.09-.08Zm13.84-4.42v.17s.08-.05,.08-.08c0-.03-.04-.06-.08-.1Zm-10.08,0v.17s.08-.05,.08-.08c0-.03-.04-.06-.08-.1Zm6.24,68.4v.17s.08-.05,.08-.08c0-.03-.04-.06-.08-.1Zm9.94,.09h-.17s.05,.08,.08,.08c.03,0,.06-.04,.1-.08Zm-48.24,.24h-.17s.05,.08,.08,.08c.03,0,.06-.04,.1-.08ZM51.79,53.16s-.05-.06-.08-.09c-.03,.03-.08,.05-.08,.08,0,.03,.04,.06,.07,.09l.09-.08ZM12.44,137.15h-.17s.05,.08,.08,.08c.03,0,.06-.04,.1-.08ZM46.27,52.44s-.05-.06-.08-.09c-.03,.03-.08,.05-.08,.08,0,.03,.04,.06,.07,.09l.09-.08Zm5.91-4.49s.06-.05,.09-.08c-.03-.03-.05-.08-.08-.08-.03,0-.06,.04-.09,.07l.08,.09Zm13.2-4.25v.17s.08-.05,.08-.08c0-.03-.04-.06-.08-.1Zm-2.88,93.84v.17s.08-.05,.08-.08c0-.03-.04-.06-.08-.1Zm-5.76-94.56v.17s.08-.05,.08-.08c0-.03-.04-.06-.08-.1Zm-.38-.87h-.17s.05,.08,.08,.08c.03,0,.06-.04,.1-.08Zm11.99,96.01s-.05-.06-.08-.09c-.03,.03-.08,.05-.08,.08,0,.03,.04,.06,.07,.09,.03-.03,.06-.05,.09-.08Zm7.45-96.97h-.17s.05,.08,.08,.08c.03,0,.06-.04,.1-.08Zm-36.97,97.21s-.05-.06-.08-.09c-.03,.03-.08,.05-.08,.08,0,.03,.04,.06,.07,.09l.09-.08ZM73.4,40.91h-.17s.05,.08,.08,.08c.03,0,.06-.04,.1-.08Zm2.16-1.44h-.17s.05,.08,.08,.08c.03,0,.06-.04,.1-.08Zm-1.69-.23s-.05-.06-.08-.09c-.03,.03-.08,.05-.08,.08,0,.03,.04,.06,.07,.09l.09-.08Zm-3.2-5.38v.17s.08-.05,.08-.08c0-.03-.04-.06-.08-.1Zm-7.6-.86s-.05-.06-.08-.09c-.03,.03-.08,.05-.08,.08,0,.03,.04,.06,.07,.09l.09-.08Zm-16.08,107.28s-.05-.06-.08-.09c-.03,.03-.08,.05-.08,.08,0,.03,.04,.06,.07,.09,.03-.03,.06-.05,.09-.08Zm22.56,0s-.05-.06-.08-.09c-.03,.03-.08,.05-.08,.08,0,.03,.04,.06,.07,.09,.03-.03,.06-.05,.09-.08ZM52.67,31.95v.17s.08-.05,.08-.08c0-.03-.04-.06-.08-.1Zm-23.76-6.48v.17s.08-.05,.08-.08c0-.03-.04-.06-.08-.1Zm25.28-3.98s-.05-.06-.08-.09c-.03,.03-.08,.05-.08,.08,0,.03,.04,.06,.07,.09l.09-.08Zm-4.79-1.21h-.17s.05,.08,.08,.08c.03,0,.06-.04,.1-.08Zm-.97-5.51s-.05-.06-.08-.09c-.03,.03-.08,.05-.08,.08,0,.03,.04,.06,.07,.09l.09-.08Zm1.12-9.94v.17s.08-.05,.08-.08c0-.03-.04-.06-.08-.1Zm18.72,137.69s.06-.05,.09-.08c-.03-.03-.05-.08-.08-.08-.03,0-.06,.04-.09,.07l.08,.09ZM49.55,4.35v.17s.08-.05,.08-.08c0-.03-.04-.06-.08-.1Zm17.28,88.08v.17s.08-.05,.08-.08c0-.03-.04-.06-.08-.1Z"/>
      <path class="cls-1" d="M68.38,107.26c-.08,.12-.12,.28-.23,.36-.09,.07-.26,.04-.39,.04-.02,0-.07-.16-.04-.19,.06-.08,.15-.15,.24-.17,.15-.03,.3,0,.45,0l-.03-.03Z"/>
    </g>
  </g>
</svg>