<?xml version="1.0" encoding="UTF-8"?>
<svg id="_レイヤー_2" data-name="レイヤー 2" xmlns="http://www.w3.org/2000/svg" viewBox="0 0 162.08 123.72">
  <defs>
    <style>
      .cls-1 {
        fill: #ecc656;
      }
    </style>
  </defs>
  <g id="illustration">
    <g>
      <path class="cls-1" d="M149.07,16.85c.54,.09,1.09,.14,1.62,.26,1.63,.38,3.15-.18,4.69-.52,.36-.08,.65-.3,.73-.8,.15-.91,.79-1.56,1.41-2.2,.51-.52,1.11-.71,1.84-.48,.37,.11,.81,.07,1.14,.24,.71,.37,1.16,1.02,1.5,1.73,.02,.03,0,.09,.03,.11,.29,.37-.71,.44-.18,.9,.35,.3,.25,.71,.03,1.09-.2,.33-.38,.68-.57,1.02-.04,.07-.15,.14-.14,.18,.18,.87-.57,1.52-.57,2.35,0,.34-.08,.71-.24,1.02-.33,.66-.47,1.39-.74,2.07-.74,1.85-1.56,3.66-2.37,5.48-.32,.71-.34,.7-1.14,.99-.1,.04-.19,.11-.34,.19,.17,.25,.31,.47,.5,.75-1.05,1.66-2.1,3.36-3.21,5.01-.32,.48-.73,.99-1.53,.74,.04,1.51-.95,2.39-1.78,3.29-1.13,1.22-2.32,2.43-3.67,3.39-.78,.55-1.38,1.3-2.23,1.77-.89,.48-1.72,1.08-2.57,1.64-1.4,.91-2.55,2.07-3.62,3.36-1.32,1.59-2.02,3.43-2.74,5.29-.93,2.4-1.85,4.8-2.74,7.22-.47,1.28-.89,2.58-1.32,3.87-.1,.31-.02,.82-.62,.51,.04,.17,.08,.34,.18,.75-.17,.38-.16,1.11-.67,1.64-.07,.07-.09,.22-.1,.33-.13,1.54-.64,2.97-1.27,4.36-.18,.39-.36,.81-.38,1.22-.06,1.59-.76,3.03-.96,4.58-.07,.52-.72,.74-.48,1.4,.16,.43-.05,.95-.23,1.42-.17,.47-.14,1.02-.31,1.49-.24,.65-.03,1.43-.59,1.99-.03,.03,0,.13,0,.19,.03,.23,.16,.49,.1,.69-.28,.91-.38,1.84-.52,2.77-.07,.44-.4,.85-.62,1.28,.07,.29,.21,.59,.19,.89-.07,1.06-.19,2.12-.29,3.17-.05,.55-.15,1.09-.17,1.64-.03,.63,.03,1.26-.35,1.83-.13,.2-.16,.55-.09,.79,.42,1.53,.1,3.09,.17,4.63,.01,.28-.22,.58-.33,.84,.12,.26,.32,.5,.34,.75,.11,1.3,.12,2.61,.27,3.9,.11,.97,.43,1.92,.05,2.89,0,.02,.05,.06,.06,.1,.11,.43,.65,.6,.63,1.17-.01,.43,.17,1.04,.48,1.28,1.06,.79,1.84,2.02,3.3,2.2,.08,.01,.18-.02,.25-.06,.06-.04,.08-.13,.12-.2,.64,.37,1.29,.74,1.55,1.51,.48,1.38,.43,2.7-.47,3.91-.08,.11-.24,.25-.34,.24-.38-.04-.51,.24-.76,.42-.29,.21-.73,.3-1.1,.31-1.6,.03-3.2,.01-4.78,.01-.21-.26-.41-.49-.67-.81-.15,.2-.26,.34-.36,.48-.73-.23-1.42-.57-1.78-1.25-.99-1.91-1.84-3.88-2.22-6.02-.12-.68-.43-1.33-.58-2.01-.08-.35-.01-.74-.01-1.34-.66-.79-.65-2-.72-3.2,0-.1,0-.2-.04-.3-.03-.11-.06-.24-.13-.33-.46-.51,.13-1.15-.18-1.64-.37-.57-.29-1.11-.07-1.68,.05-.14,.08-.41,.02-.44-.75-.43-.35-1.13-.43-1.71-.11-.78-.19-1.56-.24-2.34-.05-.75,.09-1.5-.23-2.23-.09-.2-.07-.49,0-.71,.27-.93-.14-1.82-.05-2.75-1.08,.35-2.07,.67-3.12,1.01-.36-.36-.7-.69-1.03-1.03-1.01-1.03-2.11-1.94-3.45-2.49-.78-.32-1.4-.86-1.87-1.49-.29-.39-.58-.42-.89-.29-.67,.27-1.28,.21-1.96,.03-.56-.15-1.19-.08-1.78-.07-1.14,.02-2.31-.17-3.39,.36-.55-.34-.76,.4-1.26,.38-.46-.03-.99,.03-1.36,.26-.38,.24-.69,.59-1.13,.75-.51,.18-1.02,.36-1.64,.59-.07,.1-.21,.38-.43,.54-1.31,1-2.65,1.96-3.94,2.97-.56,.44-1.04,.98-1.61,1.52,.43,.46,.78,.83,1.15,1.23,.9-.79,1.75-1.61,2.66-2.33,.98-.78,2-1.51,3.05-2.18,.4-.26,1.04-.17,1.41-.45,.35-.27,.62-.67,1.08-.81,1-.31,2.01-.62,3.02-.91,.26-.08,.54-.1,.79-.19,.48-.16,.85-.01,1.19,.38,.66-.39,1.35-.66,2.09-.2,1.77,0,3.24,.87,4.7,1.7,.87,.5,1.78,1.03,2.26,2,.05,.1,.13,.24,.23,.27,1.08,.35,.87,1.4,1.17,2.15,.22,.55-.29,.82-.9,1.11,.39,.15,.59,.22,.87,.33,.08,1.01,.19,2.04-.5,2.99-.21,.3-.33,.73-.34,1.1-.02,.53-.42,.57-.73,.72-.12,1.79-1.08,2.92-2.55,3.06,.03,.32,.07,.65,.11,1-.91,.67-1.79,1.32-2.67,1.96-.54,.4-1.09,.77-1.79,.83-.14,.01-.36,.09-.41,.19-.18,.39-.5,.58-.86,.74-.31,.14-.62,.25-.96,.38,.68,.36,1.58-.3,2.11,.64,.41-.39,.84-.76,1.44-.31,.1,.08,.31,.03,.47,.02,1.78-.05,3.52,.23,5.23,.72,.15,.04,.3,.04,.46,.17-.36,.05-.72,.1-1.32,.19,.39,.24,.59,.36,.78,.48-.1,.1-.23,.25-.36,.39,.54,0,1.08,.14,1.48-.28l-.03,.03c.56-.57,.57-.59,1.24-.25,.84,.43,1.75,.74,2.36,1.53,.2,.26,.61,.43,.28,.86-.02,.02,0,.08,0,.12,.08,.56,.99,.83,.57,1.55-.29,.5-.4,1.02-.38,1.59,0,.14-.09,.3-.18,.42-1.07,1.33-2.44,2.15-4.18,2.07-.61-.03-1.16,.3-1.82,.09-.52-.17-1.18,.13-1.75,.06-1.65-.2-3.27,.31-4.92,.14-.56-.06-1.12,.02-1.53-.62-.41,.63-.96,.61-1.52,.61-1.96-.01-3.92,.04-5.88-.02-2.93-.08-5.87,.05-8.8,.02-3-.03-6,.04-9-.03-1.33-.03-2.65-.3-3.97-.46-.6-.07-.88-.56-1.28-.92-.35-.31-1.03-.26-1.36-.58-1.39-1.33-1.87-2.94-1.39-4.87,.22-.87,.37-1.76,.74-2.58,.37-.82,.81-1.6,1.2-2.35-1.08-1.04-2.25-1.98-3.11-3.23-.42-.61-1.17-.97-1.28-1.8-.63-.37-.91-1.03-1.33-1.58-.44-.57-.66-1.17-.12-1.92-.83-.02-1.33-.32-1.55-1.08-.18-.63-.52-1.21-.82-1.88-.73,.1-1.46,.18-2.18,.31-1,.19-1.99,.46-3.03,.4-.37-.02-.8,.14-1.02-.37-.03-.07-.39-.1-.53-.02-.36,.2-.67,.47-1.14,.81-3.13,.44-6.48,.4-9.81,.26-1.78-.08-3.6-.17-5.37-.64-.47-.12-.85-.6-1.5-.32-.4,.17-.99-.1-1.49-.2-2.03-.4-4-.99-5.97-1.64-1.18-.39-2.19-1.21-3.48-1.29-.18-.01-.36-.16-.53-.25-2.38-1.27-4.86-2.35-7.07-3.91-.09-.07-.27-.07-.31-.15-.38-.84-1.21-1.07-1.94-1.44-.33-.16-.48-.43-.16-.82-1.45-.18-2.38-1.13-3.28-2.12-.15-.16-.3-.34-.48-.45-.61-.37-1.27-.67-1.28-1.56,0-.12-.24-.27-.39-.36-1.69-1.05-2.69-2.75-3.96-4.2-.12-.13-.11-.37-.19-.54-.11-.24-.2-.53-.39-.68-1.01-.8-1.09-.94-1.11-2.27,0-.12-.27-.34-.28-.33-.65,.5-.49-.27-.57-.42-.68-1.4-1.77-2.64-1.78-4.32-.9-1.3-.91-2.87-1.3-4.32-.21-.79-.22-1.63-.32-2.45-.05-.39-.12-.77-.18-1.16-.02-.12-.08-.25-.04-.35,.49-1.17-.14-2.32-.04-3.49,.09-1.03,.16-2.03,.6-2.98,.08-.17,.18-.43,.11-.55-.56-.95,0-1.86,.07-2.78,.06-.73,.33-1.43,.48-2.01,.35-.07,.62-.12,1.07-.2-.4-.33-.62-.51-.85-.7,.13-1.11,.5-2.06,1.64-2.53-.72-.51-.73-.51-.47-1.31,.27-.81,.55-1.61,.84-2.45h1.5c-.34-.43-.64-.81-.98-1.26,.62-.95,.83-2.07,1.65-2.92,.41-.42,.64-1.08,.81-1.67,.13-.46,.15-.91,.63-1.17,.08-.04,.12-.19,.16-.3,.82-2.11,2.39-3.75,3.49-5.68,.79-1.39,1.73-2.7,2.24-4.25,.08-.26,.13-.51,.57-.36,.2,.07,.48-.24,.28-.58-.23-.39-.1-.72,.03-1.12,.46-1.45,.94-2.9,1.22-4.39,.23-1.23,.24-2.52,.27-3.78,.02-.62-.23-1.25-.19-1.86,.03-.45,.25-.84-.25-1.17-.13-.09-.16-.35-.19-.54-.16-.88-.48-1.69-.84-2.52-.45-1.03-1.07-1.93-1.63-2.88-.16-.27-.4-.48-.59-.74-.33-.45-.37-.74-.22-1.43-.12-.07-.26-.24-.38-.22-.74,.12-1.17-.34-1.63-.8-1.48-1.48-3.11-2.78-5.05-3.64-.21-.09-.41-.23-.6-.36-.03-.02-.04-.06-.13-.2,1.06-.27,2.07-.57,3.11-.77,1.84-.36,3.69-.67,5.54-.98,1.54-.26,3.08-.53,4.64-.7,1.45-.16,2.92-.2,4.38-.25,.64-.02,1.27,.22,1.93,0,.47-.15,.82,.13,1.14,.47,.27,.3,.49,.36,.87-.04,.3-.31,.92-.4,1.4-.43,1.04-.06,2.11-.17,3.11,.03,.9,.17,1.92-.12,2.71,.58,.07,.06,.24,.07,.32,.02,.6-.37,1.14-.13,1.68,.12,.17,.08,.37,.18,.55,.18,2.12-.02,4.07,.73,6.04,1.35,1.94,.6,3.77,1.46,5.56,2.43,.21,.11,.42,.22,.59,.38,.38,.36,.7,.77,1.32,.68,.13-.02,.3,.11,.41,.21,.91,.76,1.93,1.38,2.9,2.05,.32,.22,.66,.44,.93,.71,.3,.3,.72,.51,.76,1.03,.01,.16,.18,.42,.32,.45,.7,.15,.98,.82,1.53,1.16,.37,.23,.81,.55,.78,1.12,0,.07,.06,.17,.11,.2,.68,.33,1.15,.81,1.16,1.62,0,.06,.09,.14,.15,.17,1.13,.58,1.49,1.77,2.14,2.73,.2,.29,.35,.61,.53,.91,.04,.07,.12,.12,.15,.19,.19,.63,.23,1.38,.6,1.87,.38,.5,.67,1,.92,1.57,.26,.59,.35,1.06-.55,1.49,.47,.16,.69,.19,.86,.29,.39,.23,.67,.53,.64,1.06-.03,.46-.13,.97,.35,1.32,.08,.06,.11,.21,.11,.33,.09,1.7,.17,3.4,.25,5.1,0,.12,.03,.26-.02,.36-.63,1.06-.41,2.23-.47,3.38-.3,.02-.62,0-.68,.37-.04,.27-.11,.63,.02,.82,.32,.46,.12,.83-.04,1.22-.35,.82-.69,1.62-.96,2.48-.27,.85-.65,1.68-1.08,2.47-.88,1.61-1.74,3.23-2.94,4.63-1.15,1.34-2.1,2.85-3.59,3.9-.52,.37-.99,.96-1.22,1.56-.18,.45-.72,.19-.81,.69-.07,.39-.41,.74-.66,1.09-.25,.35-.57,.66-.77,1.04-.81,1.48-1.6,2.96-2.36,4.46-.78,1.55-1,3.27-1.42,4.93-.08,.3,0,.64-.03,.96-.05,.54,.14,1.11-.19,1.64-.08,.12,.06,.37,.07,.56,.04,.79,.11,1.58,.1,2.37,0,.2-.23,.4-.39,.67,.16,.13,.36,.29,.59,.48,.29,3.22,1.24,6.3,2.83,9.17,.48,.87,.88,1.82,1.67,2.5,.17,.14,.25,.39,.35,.6,.18,.38,.3,.74,.84,.85,.33,.07,.62,.48,.87,.79,1.14,1.38,2.67,2.28,4.09,3.31,.7,.51,1.59,.78,2.52,1.22,.13-.64,.21-1.16,.34-1.68,.3-1.17,.55-2.36,.96-3.49,.62-1.72,1.24-3.44,2.16-5.04,.53-.92,1.07-1.82,1.62-2.72,.09-.15,.24-.35,.37-.37,.4-.04,.25-.18,.21-.44-.04-.23,.14-.53,.3-.74,.53-.73,1.15-1.4,1.62-2.17,.29-.48,.61-.78,1.15-.88,.14-.03,.27-.15,.47-.26-.23-1.18,.8-1.77,1.41-2.52,.72-.89,1.66-1.59,2.49-2.39,.31-.3,.54-.67,.83-.98,1.51-1.64,3.29-2.95,5.04-4.31,.12-.09,.27-.17,.41-.2,.43-.11,.8-.25,1-.71,.06-.15,.32-.2,.48-.31,2.19-1.58,4.42-3.12,6.56-4.76,1.49-1.14,2.86-2.42,4.29-3.65,.15-.13,.28-.35,.45-.38,.85-.18,1.31-.9,1.72-1.47,.77-1.07,1.66-2.06,2.31-3.25,.81-1.49,1.38-3.04,1.84-4.66,.55-1.9,.46-3.84,.47-5.77,0-.24,0-.48,0-.73,.25-.22,.5-.44,.81-.72-.3-.25-.53-.44-.76-.63-.01-.03-.04-.07-.03-.1,.28-1.36-.14-2.73-.01-4.09,.07-.7,.18-1.4,.23-2.11,.05-.67,.02-1.32,.2-1.99,.23-.82,.17-1.72,.29-2.57,.14-1.01,.27-2.02,.54-3,.19-.68,.37-1.34,.45-2.06,.06-.5,.45-.96,.7-1.44,.07-.13,.18-.24,.26-.37,.07-.1,.12-.2,.23-.37-.36-.39-.61-.76-.32-1.42,.33-.75,.26-1.67,.94-2.3,.05-.04,.06-.14,.07-.22,.13-1.63,.82-3.07,1.57-4.49,.27-.51,.32-1.14,.61-1.63,.54-.9,.86-1.28,2.26-.73-.04,.27-.07,.55-.12,.91,.22,.02,.45,.09,.51,.03,.65-.73,1.27-.35,1.89,.03,1.3,.8,2.64,1.56,3.74,2.64,.27,.26,.64,.4,.68,.87,.01,.16,.23,.39,.39,.42,1.06,.25,1.55,1.19,2.28,1.84,.56,.51,1.06,1.09,1.58,1.62,.55-.23,.77-.6,.71-1.13-.08-.69,.13-1.32,.37-1.95,.33-.88,.61-1.77,.97-2.63,.32-.76,.77-1.46,1.12-2.22,.4-.88,.87-1.87,2.16-2.13,.69,.53,1.49,1.05,2.16,1.69,.53,.51,.93,1.16,1.33,1.79,.82,1.29,1.58,2.61,2.12,4.04,.03,.07,.07,.14,.08,.22,.08,.34,.04,.85,.24,.98,.34,.2,.83,.2,1.25,.19,.9-.02,1.81,.09,2.72-.19,.44-.13,1.01,.07,1.49,.22,.62,.19,1.18,.24,1.84,.1,.63-.13,1.33,.04,2,.14,.81,.12,1.6,.34,2.41,.45,1.41,.19,2.72,.66,4.03,1.17,1.52,.59,3.05,1.19,4.57,1.78,.06,.02,.08,.12,.12,.19h-.79c.2,.21,.3,.32,.44,.47,.12-.19,.22-.35,.32-.51Zm-58.81,64.08c.42-.13,.29-.38,.08-.75-.02,.33-.03,.56-.04,.78-.07,.11-.15,.21-.22,.32,.06,.02,.12,.04,.18,.07v-.41Zm-36.71,7.48c-.11-.07-.21-.15-.32-.22-.02,.06-.04,.12-.07,.18h.41c-.01,.22-.07,.47,.28,.47,.05,0,.15-.09,.15-.14,.01-.35-.24-.3-.46-.29Zm57.15-12.75c-.02,.29-.03,.57,.5,.38-.22-.14-.38-.25-.53-.35-.09-.15-.19-.3-.32-.52-.15,.39-.26,.69-.37,.99-.22-.05-.43-.11-.71-.17-.22,.27-.46,.57-.76,.93-.3-.08-.63-.18-.96-.27-.07-.59-.75-.95-.47-1.66-.27-.01-.42-.02-.62-.03-.18,.82-.48,1.57-1.24,1.88,.33,.31,.6,.58,.86,.82,.05-.33,.12-.76,.21-1.33,.41,.09,.85,.19,1.3,.29,.16,.47,.32,.95,.47,1.42,.15,.49,.27,.98,.41,1.48,.07,0,.14-.02,.21-.03-.04-.45-.08-.91-.14-1.62,.58,.38,.96,.62,1.31,.85,.15-.63,.29-1.22,.43-1.84-.08-.19-.21-.47-.33-.75,.51,.25,.42-.45,.76-.48ZM51.42,38.97c-.5-.07-.69,.26-.91,.64,.69,.2,.67-.37,.87-.68,.07-.11,.15-.21,.22-.32-.06-.02-.12-.04-.18-.07v.41Zm66.44-15.64q.48-.65,.23-1.32c-.06,.45-.13,.9-.19,1.35-.23,.12-.46,.23-.75,.38q.6,.03,.71-.41Zm7,96.04c-.32,.31-.64,.62-.39,1.17,.21-.02,.38-.03,.57-.05-.08-.43-.14-.79-.21-1.16,.4-.07,.8-.14,1.19-.21l.04-.12c-.38-.09-.77-.19-1.19-.29v.65ZM13.98,34.61c.17,.47,.35,.93,.56,1.5,.39-.93,.25-1.21-.59-1.46-.08-.58,.12-1.07,.59-1.51-.32-.16-.54-.27-.73-.37-.12,.11-.21,.16-.22,.22-.08,.42,.2,.86-.03,1.29-.01,.03,.28,.22,.43,.33Zm83.27,62.16c-.5-.07-.51,.35-.67,.69h1.49q.45-.93-.18-1.37l-.67,.72,.03-.03Zm1.44-39.36c.08,.17,.12,.39,.25,.5,.14,.12,.37,.12,.57,.18,.03-.18,.14-.38,.08-.52-.22-.53-.58-.35-.92-.12-.29-.29-.58-.58-.89-.9-.04,.29-.06,.52-.1,.77-.5,.14-.99,.3-1.16,.93,.27,.14,.54,.27,.83,.42,.14-.2,.34-.36,.35-.52,.04-.68,.48-.74,1-.73Zm26.4-18.48c.57,.63,.59,.64,1.48,.21-.51-.35-1.02-.15-1.51-.18,.23-.64,.68-1.12,1.29-1.67-1.02,.09-1.92,.12-2.78,.27-.4,.07-.51,.46-.26,.93,.3-.18,.58-.35,.96-.58,.3,.37,.56,.69,.83,1.02ZM43.22,87.17c.39-.15,.78-.4,1.19-.06q-.09,.73,.2,1.24h.88c.21-.31,.39-.56,.57-.81-.48-.28-1.09-.45-1.1-1.18,.13-.17,.25-.34,.38-.5-.29-.05-.52,0-.65,.13-.58,.62-.92,.62-1.35-.05-.12-.19-.14-.43-.22-.69-.44,.16-.86,.26-1.22,.48-.41,.24-.89-.44-1.27,.2,.8,.14,1.55,.28,2.35,.42,.09,.28,.19,.57,.29,.86-.1,.05-.21,.09-.3,.17-.06,.05-.08,.14-.12,.22,.06,.03,.13,.06,.19,.08,.06-.17,.13-.33,.19-.5ZM127.69,43.13c.36,.55,.2,.99-.15,1.4-.18,.21-.44,.4-.51,.64-.38,1.42-1.28,2.58-1.87,3.9-.15,.33-.45,.6-.77,1.01,.15,.89-.32,1.82-.95,2.54-.43,.5-1.02,.72-.55,1.5,.06,.11-.1,.36-.17,.54-.34,.95-.66,1.92-1.04,2.86-1.01,2.54-1.63,5.2-2.34,7.83-.32,1.16-.57,2.36-.72,3.55-.12,.91-.02,1.85-.69,2.61-.08,.09-.06,.32,0,.45,.11,.22,.2,.38,.05,.65-.1,.19-.03,.48-.03,.72,0,.25-.04,.5,0,.74,.31,1.45,.06,2.91,.15,4.32-.35,.16-.62,.28-.97,.44,.3,.48,.47,1.03,.84,1.28,.44,.3,.41,.74,.57,1.1,.19,.46,.17,1,.29,1.49,.15,.61,.43,1.19,.03,1.82-.07,.11,.02,.41,.12,.54,.32,.42,.76,.76,1.03,1.21,.27,.46,.27,1.1,.59,1.5,.57,.7,1.14,1.35,1.14,2.32,0,.2,.16,.5,.34,.59,.21,.11,.51,.05,.67,.06,.07-.88,.12-1.67,.19-2.5,.32-.07,.61-.13,1.01-.21-.12-.43-.23-.8-.33-1.17-.08-.34-.29-.73-.19-1.01,.31-.86,.36-1.76,.53-2.64,.29-1.53,.75-3.02,1.11-4.54,.61-2.58,1.23-5.15,2.16-7.64,.13-.36,.15-.76,.26-1.14,.14-.5,.1-1.1,.73-1.36,.1-.04,.23-.32,.18-.39-.35-.57,.33-.89,.3-1.4-.03-.49,.11-1.01,.26-1.49,.37-1.19,.69-2.41,1.2-3.54,.5-1.13,.6-2.45,1.54-3.38,.06-.06,.08-.24,.04-.32-.22-.42,.07-.74,.19-1.08,.24-.62,.45-1.28,.83-1.8,.39-.54,.28-1.17,.54-1.7,.37-.77,.76-1.53,1.14-2.3,1.12-2.28,2.95-3.95,4.82-5.59,.29-.25,.66-.55,1-.56,.8-.02,1.08-.99,1.89-.94,.06,0,.16-.17,.19-.28,.18-.55,.69-.6,1.13-.73,.48-.14,.98-.21,1.44-.3,.07-.43,0-.91,.2-1.1,.65-.61,1.08-1.49,2.04-1.76,.18-.05,.37-.29,.45-.48,.45-1.07,1.37-1.62,2.32-2.13,.1-.05,.21-.09,.33-.14,0-.21,.02-.41,0-.61-.01-.11-.1-.21-.18-.35,2.14-2.4,3.58-5.29,5.31-7.98,1.08-2.99,2.56-5.84,3.3-8.94-.28-.22-.56-.38-.75-.61-.31-.38-.7-.38-1.09-.31-.38,.07-.75,.22-1.09,.39-1.01,.51-2,1.07-3.02,1.57-.27,.13-.62,.09-.97,.13-.26,.76-1.06,1.03-1.69,1.48-.25,.18-.54,.32-.83,.44-.28,.12-.61,.15-.85,.32-.19,.14-.21,.5-.4,.64-1.01,.74-2.1,1.38-3.05,2.18-.94,.8-2.05,1.38-2.92,2.31-.34,.37-.78,.91-1.46,.91-.15,0-.34,.22-.44,.38-.7,1.19-1.77,1.93-2.96,2.53-.08,.3-.09,.65-.26,.88-.31,.41-.66,.85-1.1,1.09-.53,.3-.55,.97-.99,1.2-.5,.26-.74,.66-1.03,1.08-.28,.4-.55,.87-1.28,.66,.18,.87-.18,1.39-.71,1.86-.29,.25-.51,.6-.7,.94-.26,.45-.56,.84-1.05,1.05-.02,.79-.77,1.16-1.04,1.8-.24,.58-.67,.84-1.3,.96ZM19.07,2c-.5,.19-.86,.39-1.24,.46-1.04,.19-2.08,.33-3.13,.48-.46,.07-.93,.2-1.39,.2-.63,0-1.29,.38-1.87-.15-.37,.77-1.25,.48-1.82,.85,.43,.54,.73,1.1,1.29,1.45,.33,.21,.65,.45,.93,.72,1.22,1.19,2.23,2.53,3.06,4.03,.7,1.27,1.5,2.5,1.78,3.93,.19,1,.93,1.94,.44,3.04-.03,.07,.05,.27,.11,.29,.29,.09,.33,.3,.32,.55-.07,1.97,.23,3.96-.43,5.9-.2,.6-.17,1.28-.26,2.02,1.09-.85,1.75-2.03,3-2.51,.03-.01,.07-.06,.07-.09,.05-.71,.57-.75,1.1-.79,.44-.03,.73-.33,.58-.71-.23-.6,.14-.78,.52-.94,1.21-.53,2.1-.27,3.1,.9-.07,.17-.14,.35-.24,.58,.65,.23,.6,.8,.55,1.44,.49-.1,.86-.18,1.36-.28,.26,.29,.58,.64,.92,.99,.3,.32,.67,.59,.92,.94,.24,.34,.93,.42,.65,1.07,.3,.29,.62,.56,.9,.87,.31,.34,.56,.76,1.1,.93,.19-1.38,.5-2.68,.63-4.03,.16-1.82,.6-3.62,.91-5.43,.14-.82,.79-1.58,1.53-1.58,.89,0,1.86-.13,2.51,.76,.13,.18,.41,.25,.55,.42,.53,.65,1.55,.82,1.72,1.82,.02,.14,.17,.33,.45,.19,.12-.06,.39,0,.5,.11,.48,.44,1.06,.79,1.24,1.47,.84-.15,1.29,.42,1.59,.92,.32,.53,.75,.75,1.26,.94,.18,.07,.36,.15,.6,.25-.01-.84,.18-1.66-.13-2.48-.11-.3,.02-.69,.03-1.04,0-.34,.12-.74-.03-1-.31-.56-.32-1.13-.32-1.72,0-.87-.08-1.74-.2-2.61-.19-1.32,.59-2.46,1.94-2.37,.2,.01,.4,0,.6,0,.64-.01,1.01,.31,1.15,1.02,.5-.4,.96-.29,1.44-.03,.34,.19,.72,.31,1.07,.46,.48,.2,.94,.42,1.2,.91,.06,.11,.22,.26,.32,.24,1.15-.17,2.05,.54,3.04,.89,.53,.19,1.05,.4,1.57,.61-.65-1.21-1.33-2.33-2.17-3.28-.89-1.01-1.94-1.87-2.94-2.79-.58-.53-1.15-1.09-1.8-1.54-.61-.42-1.12-.94-1.86-1.24-1.25-.52-2.35-1.4-3.57-2.02-1.13-.58-2.34-1-3.55-1.42-1.05-.37-2.31-.29-3-1.3-1.23,.33-2.35,.1-3.32-.51-.51-.31-.92-.37-1.43-.2-.51,.17-.99,.26-1.43-.19-.11-.12-.43-.2-.54-.13-.77,.51-1.26,.03-1.68-.42-.22,.15-.4,.37-.57,.36-1.06-.05-2.14,.23-3.19-.19-.24-.09-.55-.03-.83,0-.46,.05-.92,.17-1.39,.2-1.1,.07-2.22-.13-3.31,.24-.41,.14-.74-.08-.93-.45Zm111.75,22.36c.23-.84,.49-1.73,.71-2.64,.04-.15-.08-.36-.16-.52-.07-.16-.28-.3-.27-.44,.03-.48-.31-.71-.59-.98-.27-.26-.57-.49-.84-.71-.45,.16-.91,.27-1.32,.48-.87,.45-1.75,.93-2.17,1.89-.18,.41-.4,.96-.27,1.32,.2,.54,.05,.97-.08,1.36,.46,.22,.91,.33,1.19,.6,.7,.68,2.12,.78,2.95,.12,.2-.17,.46-.26,.85-.47ZM25.67,40.25c-.79-.8-.81-1.83-.88-2.78-.07-.97-.1-1.96,.16-2.95,.14-.54-.14-1.2-.23-1.77h-1.02c-.07,.07-.1,.1-.12,.13-.34,.71-.26,1.64-1.13,2.08-.08,.04-.04,.46,.06,.63,.11,.18,.35,.28,.49,.38,.07,.95,.09,1.86,.22,2.76,.14,.92,.4,1.83,.98,2.59,1.04-.06,1.08-.09,1.46-1.06Zm-15.5,28.72c.69,.37,.85,.82,1.03,1.35,.47,1.4,.98,2.81,2.42,3.6,.29-.48,.58-.96,.86-1.42-1.76-1.75-2.11-3.69-1.31-5.94-.67-.43-1.37-.81-2.19-.72-.4,.73-.08,1.42-.12,2.1-.02,.42-.1,.74-.69,1.03Zm27.7,7.72c.16,1.28,.39,2.46,.94,3.55,.28,.56,.54,1.13,.83,1.68,.16,.3,.31,.64,.55,.86,.57,.51,1.19,.97,1.82,1.47,.16-.26,.3-.5,.45-.72,.44-.68,.38-.61-.22-1.18-.58-.56-1.03-1.26-1.52-1.92-.07-.09-.07-.31,0-.42,.23-.39,.13-.59-.23-.87-.26-.2-.51-.61-.28-1.06,.03-.06,0-.24-.03-.25-.78-.2-.41-.93-.57-1.34-.69-.33-1.21,.07-1.73,.18Zm9.73-37.78c1.4-.96,2.2-2.18,2.84-3.53,.21-.43,.25-.95,.78-1.22,.15-.08,.21-.51,.16-.75-.16-.72,.12-1.39,.12-2.09-.56-.07-1.12-.15-1.67-.22-.1,.51-.2,1.01-.31,1.5-.2,.95-.57,1.83-1,2.69-.15,.29-.17,.69-.59,.8-.66,.17-.63,.91-1.03,1.31-.08,.08-.02,.39,.06,.54,.18,.34,.42,.65,.63,.95Zm52.89,32.67c-.05-.39-.16-.71-.1-.98,.22-.98,.74-1.85,.94-2.84,0-.04,0-.09,.03-.11,.82-.74,.95-1.87,1.66-2.73-.5-.36-.92-.66-1.26-.9-.53,.6-1.01,1.15-1.52,1.71,.33,.53-.15,1.02-.44,1.36-.25,.29-.34,.54-.42,.88-.3,1.24-.65,2.47-.97,3.67,.83,.6,.95,.6,2.07-.05ZM28.81,87.74c.84,.86,1.53,1.66,2.32,2.36,.93,.82,1.96,1.5,3.13,2.01,.63,.27,1.12,.4,1.74,.25v-1.49c-.4-.12-.81-.17-1.12-.36-.31-.19-.47-.63-.79-.8-.36-.2-.89-.11-1.2-.34-.39-.29-.87-.57-.94-1.17-.02-.17-.19-.44-.31-.45-.68-.06-.97-.64-1.46-1-.43,.31-.86,.63-1.36,.99Zm49.52,8.13c.64-.27,1.1-.46,1.51-.64-.23-.74-.1-1.5-.12-2.24-.03-1.31,.47-2.46,1.19-3.5,.59-.86,.63-.83-.06-1.53-.17-.17-.34-.33-.5-.48-2.03,2.45-3.08,5.12-2.02,8.4Zm-6.47-17.67c-.48,1.21-.86,2.31-1.34,3.37-.27,.6-.25,1.32-.77,1.81-.09,.09-.14,.34-.08,.44,.44,.73,.04,1.57,.34,2.43,.58-.12,1.16-.23,1.68-.34-.33-1.11,.12-2.09,.27-3.07,.16-1.09,.68-2.06,1.14-3.05,.21-.47,.1-.96-.29-1.23-.22-.14-.5-.2-.93-.36Zm-36.24-15.67c-.68-1.06-.54-2.18-.53-3.28,0-1.14-.15-2.3,.49-3.29-.39-.67-.91-.83-1.59-.63-.1,.19-.27,.38-.32,.6-.12,.57-.13,1.17-.28,1.74-.27,1.01-.33,1.99-.01,3.02,.1,.33-.08,.76-.14,1.16,.26,.42,.54,.88,.82,1.33,.5-.21,.96-.4,1.56-.65Zm52.08,9.95c-2.44,1.83-4.05,4.02-4.62,6.95,.55,.07,.99,.13,1.54,.2,.19-.4,.43-.8,.56-1.23,.47-1.59,.81-2.03,2.26-3.18,.48-.38,.82-.93,1.23-1.42-.36-.49-.65-.88-.98-1.33ZM19.51,55.61c.41-.27,.81-.53,1.3-.85-.41-.67-.7-1.31-.62-2.05,.01-.1-.04-.27-.12-.32-.45-.29-.28-.8-.43-1.19-.04-.11,.12-.29,.19-.44-.51-.14-.32-.57-.34-.89-.03-.74,.03-1.49-.03-2.19-.61-.1-1.09-.18-1.61-.26-.18,2.88-.13,5.65,1.66,8.21Zm3.67,17.04c.73,.04,.86,.53,1.05,.97,.25,.57,.49,1.15,.75,1.71,.37,.78,.98,1.28,1.82,1.55,.23-.47,.43-.88,.56-1.15-.59-1.02-1.25-1.87-1.59-2.83-.36-1-.42-2.11-.62-3.17-.71-.08-1.38-.17-2,.3,.13,.18,.3,.34,.38,.55,.07,.18,.05,.39,.03,.59-.02,.21-.08,.42-.11,.57,.15,.13,.26,.22,.38,.33-.2,.19-.36,.33-.64,.6Zm82.18-25.06c-.24,.67-.35,1.27-.66,1.74-.89,1.37-1.54,2.82-1.85,4.43,.54,.09,1.03,.17,1.54,.26,.1-.15,.26-.28,.26-.41,0-.42,.09-.79,.45-1.05,.3-.22,.28-.54,.31-.86,.02-.22,.12-.45,.24-.64,.63-1.03,1.28-2.04,1.92-3.07-.37-.31-.69-.79-1.06-.84-.4-.05-.85,.3-1.14,.43Zm-69.9-9.38c-1.08,2.63-1.08,5.66-.04,7.64,.45-.18,.91-.35,1.2-.47,0-1.23,.11-2.31-.05-3.35-.18-1.13,.18-2.15,.31-3.27-.42-.16-.89-.34-1.42-.55Zm58.51,18.97c-.95,.84-2.01,1.52-2.7,2.47-.72,.97-1.3,2.12-1.49,3.45,.57,.07,1.09,.14,1.68,.21,.36-2.05,1.74-3.4,3.44-4.6-.3-.49-.57-.95-.93-1.53Zm25.38-10.26c.3-.43,.2-.69-.09-.91-.11-.09-.36-.19-.35-.23,.11-.46-.03-.71-.5-.84-.41-.11-.75-.29-1.23-.05-.27,.14-.75-.2-1.12-.15-.4,.05-.77,.32-1.17,.43-.15,.04-.35-.08-.54-.13-.17,.29-.34,.58-.53,.9-.27-.04-.53-.02-.72-.13-.26-.15-.5-.15-.6,.09-.09,.21-.11,.54-.02,.74,.16,.34,.43,.62,.67,.94,.12-.22,.34-.45,.3-.55-.31-.69,.05-.83,.61-.87,.2-.01,.45,.02,.57-.08,.62-.53,1.33-.29,2.01-.27,.34,0,.67,.09,1.01,.11,1.05,.05,1.11,.08,1.68,1.01ZM31.81,69.15c-.64,1.19-1.97,1.06-2.9,1.61-.11,.47-.22,.92-.32,1.35,.25,.2,.48,.34,.66,.54,.47,.5,.77,.53,1.22,.05,.24-.26,.44-.55,.66-.82-.18-.39-.9-.26-.79-.99,.26,.07,.49,.13,.66,.17,.43-.5,.83-.97,1.27-1.48-.18-.16-.29-.27-.47-.42Zm-27.26-4c-.88,.1-1.68,.18-2.53,.27v.71c.33,.2,.71,.3,.81,.53,.12,.25,0,.62-.03,1-.19,.11-.47,.28-.76,.45,.46,.48,.48,.57,.4,1.55,.23-.28,.44-.58,.56-.91,.13-.37,.18-.76,.26-1.08,.16,.18,.29,.47,.49,.53,.36,.11,.43,.03,1.19-.89-1.44-.22-1.59-.4-1.42-1.65q.49,.32,1.08,.28c-.01-.26-.03-.52-.04-.78Zm34.45,29.63c.26,.05,.56,.05,.77,.18,.2,.12,.31,.39,.45,.58,.4-.29,.74-.54,1.13-.82-.54-.34-1.24-.48-1.1-1.28,.36-.49,.83-.15,1.31-.16-.04-.67-.03-1.35,.6-1.8,.02-.02-.01-.11-.02-.17h-1.03c.06,.64-.21,1.02-.83,1.2-.33,.1-.75,.29-.66,.83,.02,.09-.13,.27-.25,.33-.5,.25-.52,.64-.37,1.13Zm73.95-6.95c1.49,.12,1.67,.24,2.25,1.63,.07,.17,.1,.35,.16,.59,.36-.89-.17-1.49-.48-2.15-.1-.21-.34-.39-.34-.59,0-1.06-.65-1.77-1.25-2.67-.29,.22-.52,.39-.81,.61,.9,.68,.65,1.33,.1,1.91,.15,.27,.26,.48,.36,.66Zm-2.13-54.6c.17,.31,.22,.53,.36,.66,.27,.26,.6,.69,.87,.67,.67-.06,.45,.62,.85,.8,.64,.28,.74,.56,.54,1.15-.12,.34-.19,.63,.12,.85,.3,.21,.64,.24,.99-.06-.99-.61-.15-1.2-.15-1.79-.08-.5-.17-1-.27-1.58-.19,.01-.47-.02-.72,.05-.29,.09-.56,.26-.77,.37-.59-.36-1.12-.68-1.83-1.11Zm-15.82,50.08c.29,.72,.58,1.42,1.4,1.65,.09-.13,.17-.24,.26-.36,.09,.12,.17,.23,.24,.32,.11-.36,.26-.69,.31-1.03,.05-.33,0-.67,0-1.05-.65,.05-1.25,.54-1.64-.21-.69-.06-1.38-.12-2.17-.18,.06,.26,.1,.48,.18,.68,.03,.06,.22,.14,.27,.1,.47-.33,.4,.07,.45,.34,.22-.08,.43-.15,.7-.25Zm-39.58,15.62c-.42-.59-.7-.98-.91-1.27,.39-.52,.85-.88,.94-1.31,.12-.56,.24-1.05,.6-1.5,.21-.26,.29-.63,.4-.96,.12-.37,.15-.77,.32-1.11,.16-.33-.02-.4-.16-.48-.43,.79-.78,1.63-1.31,2.34-.61,.82-.86,1.74-.98,2.69-.07,.5-.21,.82-.86,1.02,.68,.2,1.2,.36,1.96,.58Zm-15.84-11.02c0,.44,.09,.91-.02,1.32-.16,.63,.08,1.06,.49,1.57,.21-.39,.31-.86,.54-.94,.78-.26,1.08-.9,1.44-1.42-.27-.3-.48-.55-.71-.81-.53,.5-1.14,.38-1.74,.27ZM112.74,28.09c-.21-.47-.4-.88-.59-1.3,.24-.22,.44-.4,.59-.54,.53,.14,.97,.25,1.24,.32,.25-.22,.45-.38,.62-.53-.1-.03-.29-.08-.54-.15-.02-.33-.04-.67-.06-1.14-.29,.11-.63,.15-.64,.24-.13,.8-.62,1-1.35,1.01-.51,0-.94,.47-1.52,.33-.05-.01-.25,.3-.24,.46,0,.1,.33,.3,.39,.26,.58-.37,.93,.29,1.51,.16v1.79c.18-.15,.16-.31,.23-.44,.08-.17,.23-.32,.36-.48Zm-63.21,60.18c.05,.06,.09,.13,.14,.19,.86,.98,.71,1.5-.58,1.84-.36,.1-.56,.27-.57,.64-.02,.57-.1,1.19,.64,1.42,.23-.37,.71-.59,.59-1.17-.04-.18,.24-.44,.42-.63,.15-.16,.35-.27,.54-.41-.41-.75-.39-1.4,.22-1.93-.14-.38-.25-.7-.37-1.04-.63,.13-.78,.65-1.02,1.08Zm38.54-19.27c.28-.08,.57-.16,.85-.26,.18-.07,.34-.26,.51-.26,.95,.01,1.55-.61,2.23-1.1-.21-.41-.54-.38-.86-.36-.27,.02-.53,.11-.8,.14-.29,.02-.58,0-.73,0-.6,.29-1.1,.54-1.61,.79,0,.11-.02,.25,.02,.35,.09,.21,.23,.4,.4,.69Zm-61.22,21.15c-.35-.1-.65-.12-1,.12-.39,.28-.27,.65-.25,.96,.02,.28,.33,.55,.33,.82,0,.3-.23,.59-.35,.86,.44,.33,.84,.63,1.28,.96,.35-.46,.71-.93,1.16-1.52-.66-.09-1-.38-1.3-.82-.36-.54-.41-.53,.13-1.38Zm77.23-18.56c-.26,.04-.58,0-.76,.14-.22,.17-.33,.49-.49,.74,.13,.16,.26,.32,.4,.48-.15,.47-.34,.94-.44,1.43-.03,.16,.18,.37,.28,.55-.46,.11-.26,.5-.32,.78-.03,.13-.06,.27-.08,.4,.08,.03,.15,.05,.23,.08,.5-1.07,1-2.13,1.53-3.26-.09-.36-.21-.81-.34-1.33Zm-62.66-30.36c-.58,.5-1.09,.9-1.56,1.34-.14,.13-.16,.37-.26,.6,.55,0,1.03-.16,1.34,.33,.45,.73-.35,1.04-.68,1.72,.95-.3,1.94-.13,1.89-1.49-.22-.18-.52-.43-.86-.71,.03-.51,.07-1.04,.12-1.8Zm53.26,48.93c.54-.19,.98-.32,1.4-.51,.1-.04,.19-.28,.16-.39-.03-.13-.19-.3-.32-.32-.15-.02-.32,.1-.5,.17-.16-.77-.31-1.44-.46-2.17-.36,.03-.7,.06-.94,.08-.6,1.25,.67,1.92,.66,3.15Zm17.09-8.3c.48-.36,.75-.67,.44-1.32-.17-.36,.03-.9,.07-1.52-.16-.16-.44-.44-.69-.69-.26,.18-.44,.41-.65,.43-.91,.08-.84,.75-.95,1.41,.24-.09,.43-.12,.57-.22,.29-.2,.57-.31,.86-.05,.29,.26,.24,.53,.08,.85-.18,.37-.22,.77,.26,1.11Zm32.97-61.75c.01-.1,.02-.19,.04-.29-.39-.1-.79-.21-1.19-.31-.61-.16-1.34-.1-1.6-1.05-.21,.41-.34,.68-.49,.96-.09-.24-.17-.44-.26-.67-.6,.56-.59,.55-.2,1.07,.18,.25,.31,.54,.49,.86,.51-.57,1.09-.69,1.84-.47,.41,.12,.93,.13,1.37-.09ZM68.97,103.36c1.04-.33,.28-1.17,.64-1.65h-.62c-.22,1.06-.4,2.18-.71,3.26-.18,.64,.14,.71,.55,.84,.21-.3-.09-.75,.43-.92,.31-.1,.56-.27,.88-.06,.27,.18,.57,.33,.87,.5q0-.64-.32-1.06c-1.21,.36-1.29,.32-1.73-.92Zm-.87,4.56c.17,.47,.34,.91,.5,1.37,.58-.21,.56-.73,.83-1.04,.25-.29,.62-.47,1.08-.8-.44-.05-.71-.03-.95-.12-.4-.15-.97,.11-1.19-.56-.1-.3-.75-.14-.83,.23-.07,.33-.02,.68-.02,1.09,.23-.06,.37-.1,.57-.16Zm16.72-15.01c-.12-.56-.14-1.05-.34-1.43-.35-.68-.27-1.22,.31-1.72-.83-.5-1.35,.33-2.03,.36-.15,0-.29,.3-.5,.55,1.31,.29,2.38,.67,1.33,2.25h1.24Zm.96-32.96c.21,.4,.39,.24,.63,.05,.3-.24,.67-.37,.75,.23,.05,.34,.31,.37,.52,.31,.55-.17,1.11-.35,1.62-.61,.16-.08,.19-.43,.31-.74-.57-.07-1.01-.12-1.45-.17-.16,.5-.61,.4-.89,.3-.74-.24-1.14,.12-1.5,.63Zm-47.29,4c.18,.37-.11,.74,.33,1.1,.38,.31,.09,1.19-.39,1.49-.52,.33-.7,.83-.95,1.32,1.53-.2,1.89-1.61,2.8-2.5-.24-.11-.51-.23-.82-.36-.12-.45,.05-1.19-.97-1.03ZM22.42,31.48c.22-.33,.43-.66,.67-1.03-.4-.41-1.09-.17-1.5-.73-.34-.46-1.02-.67-1.58-1-.14,.1-.35,.23-.41,.28-.12,.57,.78,.08,.45,.75,.33,.19,.67,.38,1,.58,.1,.06,.23,.16,.24,.25,.03,.75,.68,.7,1.13,.9Zm29.8,6.67c.28,.11,.52,.17,.64-.22,.18-.58,.67-.92,1.19-.98,.53-.06,.83-.36,1.34-.66-.51-.3-.02-1.27-.98-1.15-.16,.51-.3,.94-.44,1.38-.67,.08-1.35-.11-1.82,.44,.02,.4,.05,.79,.07,1.19Zm41.87,38.51c-.22-1.01-1.39-1.06-1.73-1.77-.34,.19-.69,.38-1.06,.59,.21,.31,.16,.92,.64,.78,.51-.15,.76,.34,1.26,.16-.09,.46-.16,.77-.23,1.13h.82c.12-.34,.22-.63,.3-.88Zm15.85-2.97c-.3,.28-.45,.47-.64,.61-.38,.27-1.04,.25-1.31-.01-.38-.36-1.01-1.54-1.04-2.02,0-.11,.19-.22,.3-.34-.44-.24-.87-.56-1.13,.24,.72,.52,.86,1.33,.97,2.14,.07,.5,.33,.71,.79,.66,.69-.07,1.37-.19,2.07-.28v-.98Zm-25.73,30.08c.73,.57,.73,.57,1.17,.22,.12-.1,.21-.26,.34-.32,1.06-.47,.79-1.41,.96-2.27h-.83c-.04,.13-.1,.23-.11,.34-.06,.67-.17,1.28-.99,1.47-.19,.04-.32,.32-.54,.56Zm-54.6-21.44c-.14-.09-.18-.13-.21-.13-.42,.07-.83,.14-1.25,.21-.29,.05-.65,.24-.87,.13-.24-.12-.36-.5-.53-.77-.68,.42-.72,.56-.27,1.02,.19,.19,.42,.33,.64,.49,.04,.4,.07,.8,.12,1.29,.6-.49,.56-1.55,1.64-1.31-.08-.21-.13-.35-.18-.49,.27-.13,.56-.27,.91-.44Zm7.03-.48c.19-.42,.38-.83,.57-1.27-.3-.09-.58-.17-.84-.25-.17,.31-.32,.57-.45,.82h-.74c-.07-.32-.14-.61-.24-1.05-.4,.3-.7,.52-1,.74,.39,.44,.73,.82,1.08,1.23,.06-.22,.11-.4,.17-.63,.38,.02,.72,.04,1.23,.07-.22,.36-.35,.59-.49,.83,.31,.08,.66,.17,1.22,.32-.26-.42-.4-.64-.51-.82Zm62.11,18.27c.95-.71,1.53,.16,2.1,.76,.49-.23,.53-.58,.46-.95-.07-.36-.37-.62-.68-.47-.74,.37-1.34,.22-1.95-.25-.15-.11-.42-.06-.65-.08,.04-.11,.07-.15,.06-.18-.07-.31-.01-.73-.52-.7-.1,0-.26,.08-.28,.16-.13,.36,.1,.6,.35,.81,.34,.29,.7,.57,1.12,.9ZM27.31,57.6c.62,.39,.98,.42,1.23-.08-.24-.34-.52-.44-.85-.24-.19,.11-.45,.24-.5,.42-.26,.91-.46,1.84-.7,2.83,.32-.07,.61-.23,.79-.15,.39,.17,.55-.03,.57-.3,.03-.34-.05-.69-.13-1.03-.09-.41-.23-.8-.41-1.45Zm-5.38-10.78c-.41-.73-.77-1.39-1.14-2.06,.26-.04,.53-.09,1-.17-.51-.11-.8-.17-1.12-.23,.04-.33,.07-.58,.1-.83-.08-.01-.16-.02-.24-.04-.28,.81,.23,1.83-.62,2.45,.27,.19,.51,.29,.64,.47,.15,.2,.19,.47,.3,.75,.26-.1,.44-.17,.62-.23,.19-.06,.38-.1,.45-.12Zm72.45,53.67q1.03,.04,1.36,1.17c.72-.31,1.42-.61,2.29-.98-.89-.15-1.64-.27-2.38-.4-.11-.36-.21-.71-.38-1.26-.38,.61-.63,1.03-.9,1.47Zm24.48-8.48c.08-.06,.16-.12,.23-.19-.28-.66-.55-1.33-.82-1.96h-1.48c.76,.59,.91,1.29,1.05,2.01,.05,.25,.17,.52,.32,.72,.16,.22,.49,.05,.6-.28-.21-.07-.42-.14-.73-.25,.16-.21,.28-.36,.39-.52,.16,.17,.3,.31,.44,.46Zm-45.47-18.92c-.06,.03-.13,.06-.19,.1-.5,.4-.91,1.05-1.72,.65-.06-.03-.29,.14-.32,.25-.07,.22-.06,.46-.08,.66,.4,.31,.75,.58,1.16,.9,.11-.21,.26-.37,.27-.54,0-.5,.14-.8,.71-.91,.35-.07,.41-.66,.18-1.1ZM38.06,21.44c-.82,.18-1.51-.73-2.22,.09,.55,.53,1.05,1.02,1.47,1.42-.02,.39-.04,.7-.05,1.01-.03-.07-.07-.14-.1-.21,.26-.26,.52-.51,.78-.77,.07-.34-.4-.83,.12-1.54Zm72.42,16.8c-.2-.24-.4-.46-.6-.7-.22-.25-.43-.51-.67-.79-.39,.72-.75,1.39-1.13,2.08,.24,.12,.47,.24,.62,.32,.62-.32,1.16-.6,1.77-.91Zm6.04,26.1c.06,0,.11-.02,.17-.03-.05-.54,.06-1.16-.18-1.6-.39-.71-.49-1.29,.05-1.94,.12-.14,.07-.42,.11-.74-.51,.18-.9,.31-1.27,.44-.03,.26-.13,.49-.07,.66,.38,1.08,.79,2.14,1.2,3.21Zm-50.7,30.98c.22-.1,.42-.13,.48-.23,.1-.17,.2-.51,.13-.57-.29-.25-.66-.6-.96-.57-.7,.08-1.05-.39-1.47-.73-.47,.36-.72,.77-.86,1.39,.58-.09,1.06-.14,1.54-.23,.68-.13,.84,.43,1.14,.94ZM127.43,29.81c.66-.34,.97-1.12,1.73-1.35,.12-.04,.28-.48,.2-.59-.18-.27-.46-.55-.75-.66-.34-.12-.56,.17-.66,.51-.06,.22-.27,.51-.19,.63,.27,.42-.05,.48-.28,.66-.29,.22-.34,.5-.04,.8Zm-16.37-10.57c-.9,.11-1.47,.01-1.76-.72-.11-.28-.46-.29-.73-.12-.31,.2-.45,.56-.19,.8,.47,.44,.41,.93,.21,1.48,.78-.46,1.49-.87,2.46-1.44Zm-11.51,83.77c.25-.49,1.07-.69,.64-1.49-.4,.09-.8,.26-1.2,.26-.41,0-.82-.16-1.23-.26q.03,.83,1.29,1.42c.08-.11,.16-.22,.25-.34,.1,.15,.18,.28,.26,.41Zm-56.67-7.94q.53-.64,1.22-.79,.08-.8-.65-2.32c-.09,.37-.15,.62-.22,.87-.08,.25-.1,.59-.28,.73-.57,.46-.49,.93-.07,1.51Zm-24.48-7.66c.12-.36,.23-.69,.37-1.09-1.36-.18-1.23-1.25-1.25-2.2-.4-.06-.65,.09-.55,.41,.21,.63,.09,1.22-.12,1.79,.51,.36,.99,.7,1.55,1.09ZM58.73,37.21c.27,.66,.29,.79,.26,1.43-.25,.04-.51,.08-.75,.11-.19,.49-.36,.93-.52,1.35,.13,.1,.21,.2,.25,.19,.56-.2,1.02-.45,1.15-1.14,.11-.59,.4-1.14,.63-1.76-.08-.15-.19-.35-.3-.56-.25,.13-.49,.25-.72,.37Zm39.12,18.46c.03-.07,.09-.14,.09-.21,.11-1.09,.11-1.08,1.25-1.42,.15-.04,.26-.21,.39-.32-.35-.24-.64-.43-.95-.65-.35,.12-.71,.24-.96,.32-.75,.89-.29,1.58,.17,2.28Zm-69.16-4.26c.16-.48,.22-.84,.39-1.13,.31-.54,.31-.99-.19-1.44-.44,.57-.75,1.12-.32,1.83,.06,.11-.06,.33-.14,.73-.46-.8-.79-1.47-1.66-1.35-.17,.47,0,.78,.4,.86,.34,.07,.67,.04,.88,.43,.06,.11,.43,.05,.65,.07Zm23.04-6.46c-.49,0-.78-.06-1.03,.02-.19,.06-.48,.31-.46,.45,.09,.79-.33,1.23-1.03,1.55,.43,.14,.75,.25,1.21,.4,.07-.95,1.07-1.36,1.31-2.42Zm-7.89-7.26c.01,.99-.92,1.53-.77,2.38,.52,.02,.96,.07,1.4,.05,.14,0,.27-.21,.44-.35-.26-.08-.44-.13-.66-.2v-.93c.21-.17,.42-.35,.82-.68-.54-.11-.86-.18-1.23-.26Zm30.45,63.78c.36-.59,.55-1.09,.9-1.43,.71-.71,.46-1.47,.24-2.29-.23,.26-.5,.58-.47,.86,.08,.77-.53,1.03-.86,1.38,.06,.45,.11,.83,.2,1.48Zm34.71-46.91c-.06-.12-.1-.38-.25-.46-.2-.11-.52-.06-.45-.39,.04-.2,.22-.36,.34-.55-.8-.22-.71,.79-1.29,.83,.14,.56-.81,.83-.37,1.53,.64-.3,1.28-.61,2.01-.95ZM49.14,27.02s-.11-.37-.32-.56c-.14-.12-.5,.04-.68-.07-.35-.21-.65-.52-.97-.8-.05,.41-.02,.83,.2,1,.57,.46,.72,1.05,.72,1.45,.26-.25,.61-.6,1.05-1.03Zm59.5,43.06c.52,.2,.67-.1,.58-.51-.11-.57-.22-1.02,.58-1.16,.38-.07,.49-.46,.27-.92-.86,.11-1.31,.88-2.07,1.13q.47,.52,.64,1.45ZM27.86,35.16c.07,.33,.25,.64,.16,.81-.24,.46-.05,.66,.34,.81,.51,.2,.28-.33,.47-.47,.54-.41,.95-.92,1.12-1.57-.51-.35-.56,.29-.85,.35-.37,.08-.77,.06-1.24,.09ZM102.75,101.5c-.37,.15-.72,.18-.8,.34-.12,.25-.15,.62-.05,.88,.26,.67,.19,1.21-.38,1.68-.11,.09-.15,.25-.26,.44,.25,.13,.48,.34,.63,.29,.17-.05,.37-.34,.37-.53-.02-.69,.22-1.29,.43-1.92,.1-.31,.05-.67,.07-1.18ZM17.93,83.79c.83,.07,1-.9,1.71-1.06,.14-.03,.16-.51-.14-.54-.44-.05-.49-.26-.51-.63-.01-.2-.19-.38-.38-.75-.11,.47-.31,.83-.21,1.03,.23,.47,.08,.75-.24,1.04-.28,.25-.51,.52-.22,.91Zm75.81-8.88c.64,.05,1.21,.09,1.77,.13,.06-.25,.11-.5,.17-.75q-1.17-.11-1.47-1.23-.64,.4-.47,1.85Zm-3.76,10.4c.8,.55,.99-.28,1.46-.29,.09,0,.23-.12,.24-.19,.03-.3,.01-.6,.01-.93h-1.42c-.11,.51-.2,.98-.3,1.42Zm-13.96-11.02c-.49,.16-.85,.4-1.2,.77-.24,.26-.48,.79-1.05,.51-.02,0-.13,.19-.21,.29-.19-.16-.33-.27-.47-.39-.12,.24-.2,.41-.29,.61,.11,.09,.24,.29,.35,.28,.72-.08,1.44-.21,2.23-.33-.16-.7,.18-1.23,.63-1.74Zm-37.17-29.45c-1.12,.91-1.39,1.92-.84,3.45,.08-.22,.18-.35,.15-.42-.2-.47-.06-.67,.45-.77,.29-.06,.71-.1,.78-.54-.97-.42-1.3-.29-.53-1.71ZM4.56,53.75c.37,.66,.25,1.31-.23,2.01,.33-.03,.51-.04,.67-.05,.06-.35,.11-.61,.13-.73,.38-.23,.64-.39,.9-.54,.15-.09,.3-.2,.46-.26,.6-.21,.6-.2,.17-.76-.36,.22-.72,.44-1.07,.66-.31-.18-.41-.68-1.03-.33Zm7.58-10.34c.26-.82,.06-1.4-.09-2-.19-.75-.18-.75-1.25-.68,.74,.51,.53,1.15,.38,1.82,.27,.24,.55,.49,.96,.86Zm10.15,16.61c-.26,.97-.84,1.57-1.88,1.6,.06,.34,.1,.59,.13,.82,.53,.11,.25-1.11,.99-.5,.28-.62,.85,0,1.28-.29,.06-.57,.09-1.12-.52-1.63Zm50.44,39.66c-.89-.47-1.71-.91-2.53-1.35,.05,.73,.07,.88,.8,1.05,.56,.13,.8,.36,.87,.9,.02,.19,.2,.36,.29,.51,.77-.2,.63-.72,.57-1.11Zm20.66-27.09c-.25-.8-.38-.89-.98-.59-.27,.14-.53,.32-.75,.53-.27,.26-.26,.61,.04,.81,.18,.12,.54,.15,.73,.05,.36-.2,.65-.53,.97-.8Zm-6.42,41.36c-1.15-.7-.1-1.46-.06-2.33-.37,.12-.6,.25-.85,.26-.25,.02-.51-.08-.77-.12-.03,.06-.05,.13-.08,.19,.25,.22,.49,.44,.73,.65,.12,.56-.11,1.16,.17,1.75,.27-.13,.48-.23,.86-.41ZM5.57,67.64c.52,.11,.89,.21,1.27,.26,.42,.05,.84,.05,1.31,.08v-1.15c-.29,.13-.54,.25-.79,.36-.29-.13-.6-.28-.85-.39-.34,.3-.61,.55-.94,.84Zm67.76,26.31c.37-.87,.75-1.61,1.62-1.99-.38-.13-.72-.24-1.04-.19-.38,.06-.71,.02-1.09-.42,.19,.99,.34,1.73,.51,2.6ZM4.1,60.97c-.38,.36-.62,.71-.96,.87-.32,.15-.74,.11-1.26,.18,.37,.45,.65,.78,.87,1.05,.2-.13,.39-.36,.55-.33,.57,.07,.66-.38,.78-.7,.1-.27,.02-.61,.02-1.06Zm42.25,22.81c-.72-.08-1.4-.12-2-.42-.18,.43-.32,.78-.51,1.24,.39,.03,1,.25,1.22,.05,.39-.35,.78-.61,1.28-.86Zm-6.09-47.42c-1.28,.32-1.26,.31-1.85-1.01-.12-.26-.36-.47-.66-.84-.09,1.08,.7,1.65,.76,2.46,.58,.06,1.1,.11,1.67,.17,.06-.16,.13-.3,.15-.45,.01-.1-.05-.22-.08-.33Zm-7.71-.34q.77-.2,1.27-.55c-.71-.51-1.49-.12-2.02,1,.26,.46,.71,.36,1.07,.28,.27-.06,.7-.1,.75-.63-.39-.04-.73-.07-1.07-.1Zm7.87-2.34c-.46-.28-.79-.47-1.11-.67-.35-.23-.69-.47-1.04-.7-.09,1.03-.08,1.01,.8,1.45,.26,.13,.45,.38,.68,.57,.05,.04,.14,.02,.29,.04,.11-.2,.23-.42,.37-.68Zm62.14,42.81c.09,.39,.14,.56,.18,.74-.24,.08-.45,.15-.71,.24,0,.29,0,.56,0,.83,.02,.91,.12,.98,1.14,.85-.42-.49-.64-.95-.11-1.54,.4-.43,.11-.76-.51-1.12ZM57.66,19.08c-.2-.32-.36-.64-.58-.89-.09-.1-.36-.08-.52-.03-.08,.03-.12,.28-.09,.41,.03,.14,.17,.25,.26,.38,.39,.57,.64,1.15,.26,1.85-.19,.33,.14,.42,.47,.76,.08-.5,.27-.89,.15-1.06-.38-.53-.04-.97,.06-1.42Zm-18.56,42.78c-.73-.42-1.16,.12-1.56,.51-.32,.32-.54,.76-.71,1.18-.1,.26-.25,.68,.33,.85,.07-.58,.13-1.06,.75-1.35,.48-.23,.8-.78,1.2-1.19Zm16.49-24.91c.28,.35,.43,.61,.65,.79,.23,.2,.5,.36,.78,.47,.16,.06,.37-.01,.54-.02,.32-.91-.91-.9-.73-1.65-.43,.15-.75,.25-1.24,.42Zm59.04,43.24c.13-.25,.3-.46,.35-.7,.14-.7,.19-1.41,.72-1.96,.05-.05-.02-.22-.04-.34-.82,.37-1.17,.56-1.11,.88,.13,.7-.74,1.41,.08,2.11Zm-11.31,35.54c-.08,.02-.17,.04-.25,.06-.02,.19-.01,.39-.08,.56-.07,.15-.22,.27-.33,.41-.22,.25,.12,.67-.28,.87,.12,.18,.23,.36,.33,.52,.45-.41,.84-.76,1.27-1.15-.22-.41-.44-.84-.66-1.26Zm11.87-72.69c-.09-.36-.18-.74-.31-1.24-.27,.27-.55,.46-.69,.72-.29,.51-.58,1.04-.54,1.8,.56-.47,1.01-.85,1.54-1.28Zm-73.59,25.49c.19,.53,.7,.95,.23,1.55-.04,.05,.13,.38,.27,.45,.37,.17,.76,.21,1.07-.26-.39-.66-.8-1.34-1.21-2.04-.13,.11-.22,.18-.37,.3ZM59.7,21.01c-.97-.41-1.11,.81-1.91,.84,.16,.17,.21,.23,.27,.28q.67,.6,1.24-.09c.24-.29,.67-.5,.4-1.03Zm50.28,35.26q1.09-1.29,1.07-1.68c-.52,.46-1.37-.18-1.82,.64,.12,.24,.25,.52,.41,.78,.05,.09,.18,.14,.34,.26Zm-23.9,12.15c.24-.19,.31-.33,.27-.69-.06-.55-.89-.27-.78-.89,.01-.06-.39-.2-.68-.33-.17,.22-.34,.46-.5,.67,.56,.41,1.12,.83,1.68,1.24ZM9.86,57.54c.42,.41,.81,.78,1.17,1.14,.7-.4,.62-.93,.67-1.52-.65,.13-1.23-.15-1.85,.39ZM53.92,31.22c.24-1.48-.08-1.89-1.2-1.7,.17,.63,.33,1.25,.5,1.9,.12-.51,.48-.11,.7-.21ZM3.92,69.79c.47,.32,1.21,.53,1.49,.29,.28-.25,.41-.66,.64-1.06-.96-.21-1.62,.08-2.13,.77ZM44.13,32.71c.33,.58,.07,1.41,.76,1.94,.24-.23,.45-.43,.68-.65-.21-.24-.44-.5-.68-.77,.09-.39,.18-.75,.28-1.18-.34,.21-.6,.37-1.06,.65Zm-10.5,43.33c-.34-.18-.71-.37-1.09-.58-.12,.13-.22,.24-.32,.35q.48,1.1,.99,1.51,.42-.45,.43-1.28ZM59.26,27.21c-.23-.01-.35-.02-.47-.02-.37,0-.66,.16-.64,.53,.01,.22,.21,.47,.39,.65,.3,.31,.64,.57,1.09,.95-.13-.75-.25-1.39-.37-2.1ZM16.03,81.02q.16-1.66,1.59-1.87c-.58-.31-1.07-.58-1.69-.92,.14,.95-.7,1.76,.1,2.79ZM120.94,22.67c-.14,.67-.28,1.32-.43,2.06,.27,.02,.46,.05,.64,.04,.1,0,.2-.08,.34-.14,0-.32-.05-.65,.01-.95,.06-.26,.23-.5,.36-.75-.3-.08-.55-.15-.92-.26ZM58.07,97.86c-.08-.41-.06-.83-.24-1.14-.18-.32-.54-.54-.85-.83q-.12,1.62,.53,2.27c.19-.11,.39-.21,.55-.3ZM10.1,55.79c-.58-.48-1.1-.91-1.75-1.45,.22,.63,.36,1.14,.59,1.61,.13,.28,.09,.77,.6,.75,.5-.02,.4-.51,.57-.78,.03-.06,0-.15,0-.12Zm95.06,46.61c.37,.13,.75,.16,.91,.36,.15,.2,.08,.57,.5,.67,.19-1.14-.68-1.63-1.11-2.37-.9,.45,.01,.95-.3,1.33Zm-63-37.68c.51-.31,.96-.53,1.34-.83,.13-.11,.13-.42,.13-.63,0-.08-.23-.23-.24-.22-.47,.46-.62-.38-.97-.3-.09,.66-.17,1.26-.26,1.99Zm25.61,35.8c.86-.75,1.15-1.74,.85-2.44-.14-.32-.37-.32-.81,0,.44,.25,.62,.73,.26,1.01-.52,.41-.27,.81-.29,1.42Zm-25.43-11.52c.04,.84-.18,1.56,.25,2.29,.37-.54,.67-.98,1-1.45-.45-.3-.79-.53-1.26-.84Zm-32.83-9.2c-.27,.58-.54,1.15-.82,1.73,.64,.33,1.08,.06,1.34-.43,.3-.56-.02-.98-.52-1.3ZM123.32,18.86c-.75,.25-.56,1.1-1.05,1.63,.83-.53,1.3,.48,2.07,.39q-.91-1.03-1.02-2.02Zm-10.45,101.79c-.43-.3-.78-.54-1.14-.78-.25,.17-.52,.35-.79,.54,.35,.41,.64,.75,.97,1.13,.3-.28,.58-.54,.96-.89Zm-14.69-42.53c.46-.21,.5-.12,1.17-.43,.34-.16,.76,.36,.88-.14,.08-.29-.08-.65-.14-.97-.01-.06-.1-.11-.18-.2-.13,.03-.39,.05-.4,.1-.07,.72-.62,.91-1.16,1.15-.11,.05-.12,.33-.17,.5ZM11.76,39.24c.16,.15,.33,.41,.44,.38,.51-.1,1.01-.28,1.52-.44-.24-.46-.41-.8-.68-1.32,.01,1-.98,.66-1.28,1.38Zm23.44,37.42c.54-.27,1.18-.33,1.08-1.11-.06-.5-.35-.67-.81-.57-.37,.48-.5,.98-.27,1.68Zm-25.26-14c-.1,.05-.2,.1-.3,.15,.15,.41,.28,.84,.46,1.23,.28,.61,.3,.6,1.18,.45,.02-.99-1.12-1.04-1.34-1.84Zm70.11,34.39c-.19,.58-.13,1.11,.29,1.59,.29-.86,.29-.86,1.12-.9,.27-.01,.57,0,.8-.09,.23-.1,.5-.31,.15-.61q-.91,.54-2.37,0Zm6.34,19.44c.02,.28-.03,.57,.08,.73,.15,.2,.42,.36,.67,.42,.42,.11,.66-.13,.72-.57-.47-.31-.93-.61-1.45-.95q-.38,.24-.36,.76c.1-.12,.2-.23,.34-.4Zm.32-11.56c.12,.65,.22,1.17,.33,1.77,.28-.12,.6-.15,.67-.3,.13-.26,.14-.6,.15-.91,0-.13-.11-.35-.22-.39-.28-.1-.58-.11-.93-.17Zm5.84,4.49c-.54-.3-.82-.83-1.43-.44-.45,.29-.55,.51-.45,1.26,.6-.26,1.18-.52,1.88-.82ZM34.35,53.86c.19-.65,1.16-.77,.87-1.76-.48,.15-.91,.28-1.32,.4,0,.48-.18,.94,.45,1.36ZM109.6,31.14c.06,.07,.13,.14,.19,.22,.24,.02,.47,.06,.71,.06,.21,0,.57,.02,.62-.09,.25-.52,.79-.43,1.17-.65-.04-.07-.09-.19-.13-.19-.61,.02-1.22,.01-1.81,.12-.27,.05-.5,.35-.75,.53Zm-66.36,6.01c-.5-.32-.47-1.29-1.44-.99,.09,.56-.27,1.15,.35,1.53,.33-.16,.64-.32,1.09-.54Zm10.74-3.61c.39,.12,.67,.2,.98,.29,.1-.32,.24-.61,.26-.91,.02-.26-.12-.52-.15-.79-.03-.28,0-.56,0-.85-.15-.05-.31-.11-.53-.18-.09,.86,.68,1.84-.56,2.43Zm65.81,58.76c.23,.53,.46,.8,.47,1.09,.02,.54,.37,.56,.78,.7,.14-.4,.26-.74,.42-1.19-.52-.18-.98-.35-1.66-.59Zm-8.37-29.52c-.04,.07-.2,.36-.38,.64-.24,.38-.14,.68,.21,.9,.16,.1,.35,.15,.58,.25,.02-.24-.02-.52,.09-.69,.11-.17,.38-.23,.4-.24-.31-.3-.64-.61-.9-.86Zm-3.98,36.95c-.31-.32-.56-.58-.79-.82-.35,.37-.63,.66-.92,.97,.18,.16,.38,.34,.6,.55,.36-.23,.68-.43,1.11-.7ZM45.18,25.48c-.25,.18-.45,.37-.69,.48-.19,.09-.43,.08-.76,.13,.62,.33,1.41,.14,1.54,.99,0,.05,.35,.13,.4,.07,.11-.12,.23-.36,.18-.48-.16-.38-.4-.73-.67-1.19ZM126.73,13.61c-.23-.07-.44-.14-.65-.21q-.56-.18-.9,.52c.43,.41,.43,.41,1.35,.51,.06,0,.12-.08,.21-.14v-.69Zm-51.1,99.29c.04,.27,0,.47,.09,.56,.48,.49,.56,.5,.63,.92,.06,.4,.29,.48,.56,.36,.1-.05,.17-.46,.08-.6-.22-.33-.55-.59-.27-1.05,.03-.04,0-.11,0-.19h-1.08ZM10.3,46.07c0-.81,.1-1.4,.68-1.82-.65,.33-1.46-.04-2.11,.69,.89-.15,.82,.66,1.43,1.13Zm94.68-5.58c.77,.63,1.52,.32,2.43-.01q-1.94-.2-2.09-1.51c-.38,.49-.5,.97-.34,1.52Zm-55.73,52.73c.25,1.31,.47,1.59,1.2,1.5-.12-.51-.23-1.02-.35-1.5h-.85Zm-10.79,4.17c.05-.55,.12-1.1,.13-1.64,0-.13-.21-.31-.36-.36-.09-.03-.31,.1-.37,.22-.09,.16-.09,.37-.13,.56-.13,.56,.42,.81,.74,1.22Zm63.27-43.26q-.76-.11-1.82,.28c.51,.31,.98,.61,1.58,.98,.1-.52,.17-.89,.24-1.26ZM8.75,66.65c.08-.23,.14-.34,.16-.45,.02-.15,0-.31,0-.44q-1.99-.8-2.8-.21c1.22-.28,1.94,.23,2.64,1.1ZM123.07,18.08c1.03-1.19,1.04-1.34,.1-2.45,.18,.89-.54,1.61-.1,2.45Zm-78.77,13.96c-.59-.5-.58-.55-.1-.79-.3-.19-.59-.38-.88-.56-.23,.21-.53,.48-.84,.76,.37,.81,1.02,.44,1.82,.59Zm-2.71,2.75h1.65c-.03-.33-.05-.59-.08-.95-.33,.12-.57,.24-.82,.27-.24,.03-.48-.04-.74-.07v.75Zm54.46,43.53c-.24,.4-.53,.69-.47,.81,.2,.39,.52,.72,.79,1.08,.3,.24-.1,.74,.49,1.03,.09-1.04-.43-1.81-.82-2.92Zm-52.64-17.82c.05-.67,.1-1.24,.16-1.92-.24,.1-.53,.13-.69,.3-.47,.51-.09,1.06-.06,1.63h.59ZM10.02,83.08c.65,.56,.62,1.5,1.51,1.84-.12-.26-.23-.52-.31-.7,.12-.21,.21-.35,.29-.49-.64,.11-.41-1.34-1.49-.65Zm56.65,19.39c.7,.12,1.03-.04,1.04-.61,0-.36-.01-.72,.5-.92-1.5-.37-1.07,.87-1.54,1.52ZM113.02,24.25c-.57-.69-1.4-.23-2.03-.59-.12,.29-.21,.52-.38,.94,.92-.13,1.66-.24,2.42-.35Zm-24.09,90.73c-.41,.22-.67,.28-.81,.44-.14,.16-.27,.49-.19,.62,.12,.2,.41,.38,.64,.39,.16,.01,.45-.24,.48-.42,.06-.27-.05-.58-.11-1.03ZM18.59,90.88q.69,1,1.3,1c.07-.27,.14-.55,.2-.8-.37-.18-.68-.34-.97-.48-.18,.1-.35,.19-.53,.28ZM40.77,25.14c-.05-.03-.21-.06-.25-.14-.13-.3-.22-.62-.33-.95-.65,.34-.51,.92-.28,1.2,.32,.37-.29,.95,.28,1.13,.18-.39,.35-.75,.57-1.23Zm-27.34,11.77c-.56-.87-.73-.85-1.37,.21,.28,.19,.56,.39,.88,.61,.17-.28,.33-.55,.49-.81Zm88-10.63c-.06-.73-.13-1.45-.2-2.29-.27,.18-.44,.3-.67,.45,.91,.71,.21,1.47,.02,2.34,.39-.23,.62-.37,.85-.5Zm45.2-4.96c-.46-.25-.85-.16-1.16,.24-.09,.12-.18,.24-.34,.47,.17,.15,.32,.28,.5,.44,.44-.34,1.17-.32,1-1.14ZM20.76,26.39h1.3c.26-.92-.76-.51-.9-.99,0-.02-.11-.02-.14-.03-.18,.2-.33,.38-.47,.54,.07,.15,.13,.29,.21,.47Zm50.45,77.62c.98-.36,.1-.95,.34-1.37-.5-.15-.87-.17-1.13,.25,.26,.37,.52,.73,.79,1.13ZM16.63,28.63c.66-.39,.43-.89,.4-1.38h-.89c.02,.54-.22,1.08,.49,1.38Zm93.24-12.09c.16-.84,.26-1.4,.36-1.95-.39-.16-.58-.19-.77,.16-.36,.66,.06,1.07,.41,1.78ZM9.32,61.06c.45-.24,.88-.46,1.35-.71-.21-.32-.36-.56-.62-.97-.08,.76-1.23,.73-.73,1.68Zm28.58,29.72c-.23,.9-.23,1.1,.07,1.32,.37,.26,.67,.13,.9-.22-.22-.45-.4-.93-.97-1.09Zm-5.81,3.68q-.12,1.38,1.2,1.29c-.05-.76-.89-.78-1.2-1.29Zm86.83,15.55c-.1,.27-.16,.44-.22,.59,.67,.54,1.19-.31,1.87-.01-.06-.27-.09-.42-.13-.58h-1.52Zm-25.76-40.2q-1.01-.78-1.62-.19c.31,.28,.62,.55,.98,.87,.27-.28,.45-.48,.65-.68Zm-84.77,7.76c-.61,.45-.38,.92-.4,1.36,.48,.14,.85,.17,1.13-.28-.22-.33-.46-.68-.73-1.08Zm96.88,1.69c.1-.11,.31-.24,.29-.33-.11-.59-.67-.72-1.04-1.09q-.44,.89,.74,1.42ZM15.69,49.84c.08-.39-.02-1.55-.17-1.75-.09-.13-.29-.19-.47-.3q-.16,.96,.64,2.05Zm4.11-23.83c-.06-.08-.12-.16-.18-.24-.13,.03-.3,.02-.37,.1-.31,.35-.6,.71-.86,1.09-.25,.36-.14,.56,.52,.93,.14-.7-.01-1.52,.89-1.88ZM88.84,119.19c.09,.59,1.06,.99,.07,1.45,.14,.09,.27,.24,.41,.25,.13,0,.27-.13,.43-.22-.42-.63-.16-1.18,.16-1.84-.34,.11-.69,.23-1.07,.36Zm-44.62-37.45c.29-.57,.52-1.03,.74-1.47h-1.13c-.25,.58,0,.99,.39,1.47Zm65.5-.97c-.67,.09-1.25,.17-1.94,.26,.57,.34,1.04,.63,1.57,.94,.14-.46,.25-.81,.37-1.2Zm4.11,.97c.19,.5,.39,1.01,.6,1.56,.24-.54,1.1-.06,1.32-.86-.74-.01-1.41-.09-1.91-.7Zm-69.3-17.09c-.76-.15-.62,.61-1.24,.93,.71,.17,1.15,.27,1.59,.37-.77-.29,.02-.9-.35-1.31Zm40.43,45.54c-.81,.07-1.34,.11-1.84,.15-.1,.44,.06,.74,.4,.81,.64,.14,.82-.49,1.44-.96Zm35.36-4.63c.56,.24,.99,.01,1.48-.37-.14-.27-.26-.49-.51-.96-.01,.89-1.13,.4-.97,1.33Zm-23.7-55.55c-.49,.83-.47,.97,.29,1.81,.28-.63,.45-1.24-.29-1.81Zm9.36,30.24c.02,.26,.04,.47,.07,.8,.31-.2,.52-.34,.73-.48,.06,.1,.11,.2,.17,.3,.19-.27,.37-.54,.56-.82-.65-.66-1.03,.19-1.54,.2ZM57.1,29.49c.24-.89-.63-.46-.8-.84-.33,.18-.69,.34-.99,.56-.05,.04,.12,.37,.24,.71,.13-.37,.2-.57,.25-.72,.44,.1,.85,.19,1.29,.29Zm68.01-11.57c.25-.49,.41-.79,.55-1.09,.13-.28,.66-.46,.18-.92-.22,.02-.47,.05-.73,.08v1.93Zm-12.24,42.31c-.16,.22-.27,.42-.42,.56-.17,.15-.41,.23-.58,.38-.28,.23-.35,.51-.06,.8,1.24-.9,1.27-.94,1.06-1.73ZM55.67,30.21c-.22,.44-.31,.74,.09,.79,.36,.04,.42,.27,.56,.5,.11,.18,.23,.34,.44,.65,.34-1.2-.52-1.41-1.09-1.94ZM7.82,47.2c-.73,.12,.01,.72-.34,1.06,.47,.11,.89,.22,1.31,.32,.03-.06,.06-.12,.09-.18-.36-.4-.71-.81-1.07-1.2ZM122.23,120.94c.51,.11,1.02,.21,1.67,.34-.29-.42-.46-.67-.67-.97-.3,.02-.64,.03-.99,.05v.58Zm-8.23-56.62c.22,.49,.51,.7,.95,.44,.36-.2,.41-.65,.16-1.04-.36,.2-.73,.39-1.12,.6Zm-13.46-13.24c.06-.57-.46-.71-.74-.72-.36-.02-.83,.15-.88,.72h1.62Zm34.14-31.98h-1.45c.03,.32,.05,.57,.08,.89,.42-.43,1.17,0,1.37-.89Zm-15.44,1.6c.05,.09,.09,.18,.14,.27,.48-.31,.83,.6,1.21,.18-.33-.35-.65-.68-1.01-1.05-.06,.1-.2,.35-.33,.59ZM25.5,53.4l.12,.23c.48-.36,1,.61,1.46-.11-.25-.3-.49-.59-.71-.87-.33,.28-.6,.51-.87,.75Zm10.02-4.54s-.1,.04-.14,.06v1.7c.44,.17,.73,.07,.64-.36-.1-.48-.33-.93-.5-1.39Zm38.78,30.96c-.12,.73-.3,1.26,.35,1.62,.24-.13,.46-.25,.68-.38-.31-.37-.6-.72-1.04-1.24Zm12.71-18.68c-.19,.28-.4,.59-.61,.9q.68,.52,1.18-.03c-.2-.3-.39-.59-.58-.87Zm-56.97-.78c-.77-.16-.91,.62-1.46,.69,.25,.18,.49,.37,.7,.34,.47-.07,.64-.48,.76-1.02Zm71.07-20.98c.19-.63,.92-1.12,.5-1.91-.28,.34-.61,.59-.68,.89-.07,.31,.11,.68,.18,1.02Zm18.84,75.62c.12-.16,.18-.25,.25-.35-.53-.15-.38-.59-.42-.96-.02-.2-.1-.39-.19-.73-.3,.76-.36,1.47-.21,1.71,.17,.1,.33,.19,.56,.32ZM35.11,37.25c.59,.38,1.19,.72,1.83,.12-.54-.73-1.22-.12-1.83-.12Zm74.17-1.85v1.11c.35-.31,.93-.06,1.09-.61-.26-.28-.46-.66-1.09-.5Zm-33.46,76.59c.03-.68,.26-1.24-.44-1.54q-.5,.8,.44,1.54ZM23.52,47.48c-.28,.47-.49,.81-.74,1.23h1.35c-.22-.44-.38-.78-.6-1.23Zm74.26,33.37c.36,.47,.72,.77,1.31,.46-.57-.17,.07-.91-.53-1.03-.25,.18-.5,.37-.78,.57Zm5.85,19.36c-.31-.33-.49-.67-.75-.75-.32-.1-.56,.17-.58,.53,.28,.48,.67,.47,1.33,.22Zm-23.69,5.4c0-.09,.01-.19,.02-.28-.34-.12-.68-.25-1.06-.39-.14,.27-.27,.54-.4,.81,.6,.4,.95-.25,1.44-.14Zm-14.26-23.38c-.33,.28-.64,.54-.95,.81h1.47c.26-.64-.23-.67-.51-.81ZM20.16,59.49c-.18-.26-.38-.53-.6-.84-.12,.11-.24,.21-.32,.28,.22,.64,.42,1.2,.62,1.77,.09-.36,.18-.72,.3-1.21Zm17.26-7.32c-.37,.17-.46,.43-.18,.64,.42,.3,.45,.75,.59,1.17,.01,.03,.14,.03,.27,.06,.19-.8-.38-1.29-.69-1.87Zm-28.98-7.02c-.45,.51-.81,.92-1.23,1.39,.83,.21,1.06-.4,1.41-.78,.06-.06-.09-.32-.18-.62Zm104.34,19.89c-.14,.26-.25,.46-.36,.67,.23,.29,.46,.57,.68,.85,.08-.03,.15-.06,.23-.09-.1-.46,.24-1.01-.55-1.42Zm-33.37,1.19c.27-.89-.55-.54-.8-.82-.06,.2-.09,.4-.18,.56-.09,.15-.25,.26-.47,.47,.58-.08,.98-.14,1.45-.21Zm-29.75-17.24c-.38,.53-.06,.71,.28,.84,.45,.18,.92,.76,1.4,0q-1.09-.18-1.68-.85Zm-.3,47.8c-.41-.24-.65-.5-1.07-.5-.54,0-.52,.28-.41,.76,.47-.12,.92,.1,1.48-.26ZM142.81,22.14c.36,.12,.67,.18,.92,.33,.26,.15,.43-.01,.44-.15,.02-.18-.08-.49-.22-.56-.37-.18-.77-.2-1.15,.38Zm-102.91,7.77c.83,.17,1.43,.3,2.15,.44-.49-.41-.84-.7-1.23-1.03-.24,.15-.48,.3-.92,.59Zm5.48,25.47c.03,.34,.02,.7,.12,1.02,.04,.12,.36,.22,.55,.21,.14-.01,.26-.17,.17-.43-.14-.4-.24-.77-.84-.79Zm48.49,24.31c-.07,.33-.21,.58-.13,.7,.15,.24,.42,.4,.68,.62,.15-.29,.26-.48,.38-.73-.25-.16-.51-.33-.93-.59Zm1.99-11.52c.32,0,.69-.41,.64-.72-.03-.15-.16-.36-.29-.4-.26-.09-.63,.3-.62,.68,0,.16,.19,.31,.27,.44ZM51.23,23.38c.48-.44,.59-.81,.02-1.21-.26,.27-.51,.54-.78,.83,.27,.14,.47,.24,.76,.39Zm-7.94,3.08c-.36-.1-.63-.17-1.05-.28,.13,.51-.12,.9,.32,1.35,.24-.36,.44-.66,.72-1.08Zm29.47,74.19c-.25,.62-.82,.99-.11,1.37,.26-.16,.52-.32,.86-.52-.24-.27-.43-.49-.75-.84Zm-20.76-3.44c-.39,.1-.73,.19-1.2,.32,.36,.33,.58,.53,.79,.72,.43-.19,.61-.43,.41-1.04ZM20.83,63.81c.54,.29,.97,.53,1.42,.78,.11-.24,.19-.41,.27-.57-.47-.32-.97-.47-1.69-.2ZM51.38,25.77c-.28,.59-.46,.96-.73,1.53,.53-.19,.88-.32,1.29-.47-.17-.33-.31-.59-.55-1.06ZM26.44,63.27c.09,.62,.49,.72,.89,.6,.2-.06,.33-.37,.52-.6h-1.41Zm-4.85-23.42v-.81q-.87,.26-1.11,.81h1.11ZM97.94,106.17c.22-.88,.69-1.42,.38-2.19-.22,.03-.4,.06-.49,.07,.03,.66,.06,1.24,.11,2.12Zm-.92-30.97c-.61,.56-1.11,1.02-1.61,1.48-.02,.02-.02,.07-.01,.09,.02,.03,.06,.05,.14,.11,.23-.15,.46-.41,.74-.46,.69-.14,.63-.63,.74-1.21Zm18.94,7.78c.02,.28,.04,.53,.06,.82,.6,.02,1-.19,1.36-.62-.47-.06-.89-.12-1.42-.19ZM40.79,31.96q-.46-.92-1.13-.76,.18,.71,1.13,.76Zm69.18,.7c-.26-.38-.46-.68-.66-.96-.49,.24-.68,.49-.45,.96,.13,.01,.28,.04,.43,.04,.19,0,.39-.02,.68-.04Zm7.42-6.88c-1.09-1.12-1.1-1.13-2.09-.66,.84,.02,1.35,.46,2.09,.66ZM34.37,46.78l.02,.21c.32,.09,.65,.22,.98,.24,.13,0,.34-.24,.39-.41,.03-.08-.25-.37-.35-.35-.35,.05-.69,.2-1.03,.31Zm-9.32,39.36c.41-.09,.77-.18,1.15-.26-.08-.43-.29-.65-.66-.59-.42,.06-.6,.34-.49,.85ZM109.84,28.84c.26-.48,.55-.87,.24-1.36-.74,.08-.77,.2-.24,1.36ZM27.97,69.25v-1.65c-.39,.41-.67,.71-.95,1,.3,.2,.58,.4,.95,.65Zm81.74,17.09c.42-.48,.7-.81,.98-1.13-.41-.34-.4-.31-.57-.25-.67,.25-.3,.77-.41,1.38ZM29.35,54.75c-.05-.05-.09-.1-.14-.15-.14,.11-.27,.26-.43,.33-.11,.05-.27,.01-.65,.01,.35,.46,.57,.75,.84,1.11,.15-.51,.27-.9,.38-1.29Zm-20.52-1.23q.44-.69-.31-1.58c-.17,.61-.1,1.12,.31,1.58Zm76.62,60.57c-.36,.05-.63,.09-.89,.13q.15,.77,.89,.66v-.78ZM41.88,61.4c.18,.47,.47,.77,1.05,.77-.11-.23-.34-.5-.28-.62,.18-.34,.06-.5-.19-.68-.17,.16-.35,.32-.58,.53Zm21,33.24q-.32,.64-1.14,1.11c.38,.13,.72,.24,1.14,.38v-1.48Zm30.32,25.12q.73,.58,1.5,.4c-.29-1.01-1.02-.15-1.5-.4Zm3.27-14.19v-1.29c-.48,.16-.56,.6-.64,.94-.11,.48,.23,.49,.64,.34ZM23.85,50.93c-.18,.09-.34,.19-.51,.25-.32,.11-.31,.4-.2,.55,.09,.12,.44,.16,.59,.07,.34-.19,.45-.5,.12-.87Zm75.08,33.1c.38-.57,.13-1-.33-1.59-.28,.75,.12,1.15,.33,1.59ZM23.11,53.63c.06-.03,.12-.06,.18-.1-.11-.38-.21-.76-.35-1.26-.26,.25-.44,.42-.68,.64,.33,.28,.59,.5,.85,.71Zm23.62-12.7c.59-.15,.94-.24,1.47-.37-.47-.28-.75-.44-1.11-.65-.11,.32-.19,.56-.36,1.02Zm52.06,19.62c-.19,.58-.94,.91-.44,1.65,.26-.38,.51-.74,.73-1.07-.1-.21-.17-.34-.29-.59Zm-53.89-1.43c.02,.06,.04,.12,.07,.19,.23-.04,.52,0,.68-.12,.36-.28,.31-.66-.01-1.18-.12,.31-.16,.52-.27,.68-.12,.17-.31,.29-.46,.43Zm52.81,18.17c-1.05,.05-1.08,.09-1.13,1.05,.42-.39,.78-.72,1.13-1.05ZM49.2,20.37c.14,.53,.2,.83,.3,1.11,.03,.08,.17,.12,.3,.22,.15-.3,.28-.56,.43-.86-.32-.15-.58-.26-1.04-.46Zm45.59,35.5c.17,.32,.3,.58,.45,.87,.28-.15,.51-.26,.76-.39-.3-.33-.51-.76-1.21-.48Zm-42.78,39.06c-.26,.34-.51,.69-.82,1.1,.4-.03,.74,.23,.96-.27,.13-.3,.33-.54-.14-.83Zm-4.76-4.65c.48-.08,.35-.48,.29-.72-.11-.44-.5-.52-.97-.61,.27,.51,.47,.91,.69,1.33Zm51.56-10.28c.67,.05,1.2,.09,1.79,.14,.07-.15,.15-.33,.24-.51-.64,.33-1.37-.09-2.03,.37Zm35.95-58.55q.44-1.03,.26-1.3c-.25,.31-.51,.63-.77,.94,.09,.1,.13,.17,.2,.22,.06,.05,.14,.07,.31,.14ZM30.58,53.1q1.19,.25,1.25-.49c-.44,.17-.85,.33-1.25,.49Zm82.3,23.82c.48,.2,.96,.33,1.17-.37-.54-.35-.84,.05-1.17,.37ZM5.04,62.64c.29,.55,.49,.92,.7,1.31,.57-.42,.14-.75,.02-1.05-.05-.12-.36-.14-.72-.26Zm127.28-28.14c-.08-.41-.07-.68-.16-.73-.39-.19-.77-.2-1.04,.31,.35,.12,.67,.23,1.2,.41Zm-36.37,68.57c.41,.33,.69,.56,.99,.8v-1.15c-.36,.12-.62,.21-.99,.34Zm14.37-49.9c.19-.65-.3-.77-.59-1.1-.19,.17-.33,.29-.53,.48,.39,.21,.72,.4,1.12,.61Zm1.17-15.24c.34,.08,.65,.11,.61-.31-.04-.51-.35-.66-.86-.52,.09,.3,.17,.58,.25,.84Zm-21.32,33.65q.71-.47,.29-1.23c-.22,.41-.61,.71-.29,1.23Zm-23,9.41c-.06-.02-.12-.05-.18-.08-.17,.26-.34,.52-.51,.78,.27,.22,.48,.4,.69,.58v-1.29Zm28.6,38.03c-.25,.91-.09,1.07,.85,.86-.3-.31-.55-.56-.85-.86ZM27.18,81c.49-.14,.91-.27,1.4-.42-.28-.15-1.28-.29-1.4-.21v.62Zm-3.7,8.03h1.21c-.27-.32-.49-.59-.75-.89-.15,.29-.26,.52-.46,.89ZM100.98,50.87c-.21,.53-.24,.93,.21,1.22q.46-.6-.21-1.22Zm-2.58,36.15c.07,.03,.14,.07,.21,.1,.15-.55,.27-1.12,.66-1.56-.17-.07-.34-.15-.52-.23-.12,.58-.24,1.13-.35,1.69Zm4.38,22.35c-.62-.14-1.1-.25-1.85-.41,.38,.42,.57,.63,.73,.81,.4-.14,.69-.24,1.11-.39ZM10.88,61.27c.12,.98,.49,1.23,1.08,.86-.33-.26-.66-.52-1.08-.86ZM43.39,29.17c.38-.38,.71-.72,1.2-1.21q-1.32,.51-1.2,1.21Zm29.83,68.96c0-.41,.12-.82-.35-1.06q-.52,.69,.35,1.06Zm4.73,23.55c.42-.34,.36-.69,.25-1.06-.36,.29-.68,.56-.99,.8,.2,.07,.46,.16,.74,.25ZM116.84,56.96c.02-.32,.04-.6,.07-1.02-.31,.11-.63,.13-.67,.25-.13,.4,.09,.66,.59,.77Zm-61.48-17.2c.41,.19,.74,.65,1.34,.54-.23-.84-.83-.6-1.34-.54Zm33.35,74.33q.5-.78-.33-1.06c0,.21-.03,.41,.01,.59,.03,.14,.17,.26,.32,.47Zm32.77-1.63c-.61-.12-1.05-.14-1.19,.5,.61,.38,.83-.1,1.19-.5ZM20.8,73.48q.42-.98,0-1.4v1.4Zm101.92-28.32c-.43,.12-.97-.12-1.19,.45,.17,.12,.32,.22,.52,.36,.25-.3,.46-.56,.67-.81Zm-20.99,37.23c-.5,.08-.72,.33-.6,.74,.04,.12,.34,.15,.6,.26v-1Zm30.88-64.22c.13-.41,.22-.71,.31-1.01-.31,.22-.94,.01-.84,.61,.02,.14,.3,.23,.53,.39Zm-22.85,53.53l.19,.09c.18-.33,.35-.66,.58-1.08h-.77v1ZM30.71,42.89c.17-.53,0-.86-.63-.97v.69c.24,.11,.4,.18,.63,.28Zm84.93,41.97c-.2-.29-.47-.44-.77-.2-.09,.07-.08,.43,0,.5,.31,.24,.57,.08,.77-.21,.01-.02,0-.06,0-.09Zm2.98,9.37c-.29-.02-.55-.05-.8-.04-.07,0-.12,.16-.21,.28,.3,.15,.56,.28,.89,.45,.04-.25,.07-.43,.12-.69Zm-70.54-7.36c.65,.2,.98,.02,1.06-.58-.54-.2-.77,.2-1.06,.58Zm-27.87-16.67c.33,.42,.6,.75,.85,1.07q.09-.97-.85-1.07Zm20.67,.45c-.23-.84-.25-.93-.48-.95-.12-.01-.27,.12-.39,.21-.04,.03-.03,.12-.05,.23,.26,.14,.51,.28,.92,.51Zm59.54-33.87c.38,.21,.6,.32,.81,.43q.29-.45-.02-.85c-.2,.1-.39,.21-.79,.41Zm-47.45-1.87s-.1-.07-.15-.1c-.25,.25-.51,.5-.89,.88,.4,.06,.6,.09,.81,.12,.09-.36,.16-.63,.23-.91Zm-4.51,52.63q-.55-.41-1.13,.23c.47,.32,.77-.06,1.13-.23Zm7.6-43.16c-.24-.38-.4-.64-.63-.99q-.23,1,.63,.99ZM108.54,9.95q.46-.17,.93-.68c-.18-.12-.36-.23-.56-.37-.14,.4-.25,.72-.36,1.04Zm-33.25,109.39q.26,.97,.85,.74c-.2-.34-.39-.65-.85-.74ZM13.34,43.05c.27-.07,.55-.13,.82-.2,.01,0,0-.07,.01-.11q-.49-.5-.84,.31Zm45.77-7.52q-.78-.57-1.46,0h1.46Zm32.99,53.01q.33-.48,.17-1.09-.45,.28-.17,1.09ZM12.31,40.67c.61,.31,1.1,.55,1.73,.88-.41-.81-.95-1-1.73-.88Zm75.71,17.43c.11-.37,.22-.71,.35-1.12-.89,.35-.9,.39-.35,1.12Zm-61.9-6.96c-.42,.18-.83,.26-.51,.75,.08,.13,.29,.17,.51,.29v-1.05Zm-5.37-9.09c.32-.3,.92-.2,.78-.99-.37,.26-.99,.15-.78,.99ZM121.92,8.21c-.26,.24-.46,.41-.67,.61,.21,.2,.41,.38,.67,.63v-1.24Zm-29.45,103.74c-.26-.09-.5-.26-.64-.2-.32,.13-.44,.43-.25,.81,.27-.19,.54-.37,.9-.61ZM52.38,40.03c-.68-.3-.77,.11-.89,.52q.52-.02,.89-.52Zm-42.47-1.62c.42,.05,.81,.17,1.28-.21-.56-.29-.94-.35-1.28,.21Zm101.78,45.57c.2-.23,.4-.35,.4-.47,0-.13-.18-.26-.29-.39-.13,.1-.34,.19-.37,.31-.03,.12,.12,.28,.26,.55Zm14.03-64.02c.15-.56-.02-.82-.47-.93-.49,.62,.12,.67,.47,.93ZM10.13,54.6q.6,.48,1.32,0h-1.32Zm96.5,.86c-.45-.22-.8-.4-1.15-.58-.08,.2-.16,.37-.25,.58h1.4Zm-72.77,18.46c.01-.08,.02-.17,.03-.25-.21-.12-.42-.23-.68-.38-.1,.21-.19,.39-.34,.68,.42-.02,.7-.04,.98-.05ZM50.41,24.41c-.18,.35-.28,.55-.43,.84,.36-.03,.64-.05,1.11-.09-.28-.31-.42-.47-.68-.75Zm81.58,6.73c-.44-.63-.74-.14-1.08,.02,.36,.15,.71,.62,1.08-.02ZM22.82,66.65c0-.08,0-.17-.01-.25-.25-.02-.53-.1-.75-.03-.11,.04-.12,.37-.19,.63,.39-.14,.67-.24,.95-.34Zm59.56,18.93c.69,.55,.71,.55,1.19,0h-1.19Zm-37.46-26.8c-.02-.44-.03-.61-.04-.87-.52,.07-1.01-.18-1.58,.42,.69-.13,1.22-.42,1.62,.45Zm47,26.35c.39,.33,.58,.82,1.19,.53-.28-.33-.48-.74-1.19-.53ZM35.35,20.52q-.92,.07-.87,.96c.3-.33,.53-.59,.87-.96Zm-6.22,59.14c.07,.04,.14,.08,.21,.12,.17-.18,.33-.36,.53-.57-.28-.15-.48-.25-.74-.38v.84Zm88.64-20.79q-.58-.55-1.21-.07c.5,.03,.86,.05,1.21,.07ZM9.54,42.53c-.35,.61,.17,.69,.32,.95,.29,.5,.3-.07,.46-.1-.25-.27-.49-.53-.78-.85Zm91.3,43.63c-.02-.32-.04-.58-.06-.8-.39,.09-.73,.16-1.08,.24,.37,.18,.72,.35,1.14,.56Zm8.92-13.26c.34,.32,.52,.48,.73,.67q.18-.71-.73-.67Zm-10.14-24.22q-.41-.3-.85-.2c.11,.19,.21,.38,.36,.64,.21-.19,.35-.31,.49-.44ZM12.36,86.6c.17-.52,.3-.86-.17-1.12-.19,.38-.26,.68,.17,1.12ZM128.99,30.36c.58,.21,1.17,.26,1.74,0h-1.74Zm-28.27,80.88q-.39-.28-.75,.13c.09,.16,.19,.31,.18,.3,.18-.13,.38-.29,.57-.43ZM136.13,28.22c.15,.23,.26,.41,.37,.58,.19-.1,.36-.19,.62-.32-.22-.2-.42-.37-.63-.57-.14,.12-.25,.22-.35,.31Zm-84.78,1.25c-.37-.31-.73-.35-1.08,.01,.37,.61,.72,.16,1.08-.01Zm-5.89,33.91c.09-.31,.4-.69-.13-.94-.2,.37-.25,.67,.13,.94Zm-23.53-5.34q-.71-.71-1.12-.2c.35,.06,.7,.12,1.12,.2Zm95.53-17.65q-.46,.56-.13,.88c.33-.25,.45-.52,.13-.88Zm-8.65,32.26c.34,.32,.52,.48,.73,.67q.18-.71-.73-.67Zm-25.69,48.02c-.46-.12-.79-.23-1.12-.27-.08-.01-.21,.19-.26,.32-.02,.04,.17,.23,.24,.22,.34-.05,.66-.15,1.14-.26ZM126.22,34.26c.26-.39,.46-.7,.66-1.01-.67,.05-.74,.13-.66,1.01Zm-103.87,7.49c.21,.47,.34,.76,.54,1.19,.33-.68,.12-.94-.54-1.19Zm50.47,69.55q.9,.06,.73-.66c-.21,.19-.39,.35-.73,.66Zm48.08-3.41l.3-.1c-.03-.21,.01-.46-.1-.6-.07-.08-.36,.02-.68,.05,.23,.3,.36,.48,.49,.65Zm-4.11-65.12c.24-.17,.44-.32,.7-.5-.48-.33-.75-.19-1,.15,.07,.09,.15,.18,.3,.35Zm-6.63-21.01c-.28-.08-.56-.16-.93-.27,.06,.25,.05,.5,.15,.57,.33,.21,.59,.04,.78-.3Zm-21.26,88.8c.29,.2,.55,.39,.82,.58,.11-.11,.19-.2,.28-.29-.27-.48-.66-.43-1.1-.29Zm12.87-74.69c.08,.06,.16,.13,.24,.19,.44-.11,.62-.39,.42-.99-.25,.31-.45,.55-.65,.8Zm-59.56,38.1c.03-.07,.07-.14,.1-.21-.2-.14-.39-.32-.61-.41-.09-.04-.26,.1-.58,.24,.5,.18,.79,.28,1.08,.39ZM12.81,57.54q.9,.06,.73-.66c-.21,.19-.39,.36-.73,.66Zm104.7-5.72c.36,.06,.74,.21,1.13-.13-.47-.54-.79-.06-1.13,.13Zm-40.86,15.54c-.03-.1-.07-.19-.1-.29-.2,.03-.46-.01-.59,.1-.09,.07,.02,.36,.03,.56,.08,.05,.17,.09,.25,.14,.14-.17,.27-.34,.41-.5Zm23.45,37.35q0-.9-.54-.86c.17,.27,.35,.57,.54,.86Zm-62.34-15.15q.18-.86-.47-.85c.13,.23,.24,.43,.47,.85Zm78.3-12.74c.21-.18,.42-.35,.67-.56-.21-.13-.39-.3-.45-.26-.32,.18-.42,.46-.22,.83Zm-.27-41.45c-.02,.28-.03,.57-.05,.93,.46-.29,.6-.56,.05-.93Zm-65.95,5.2q.23-.5,0-.87c-.45,.29-.47,.57,0,.87Zm54.38,40.7c.57,.36,.87,.27,.82-.09-.27,.03-.55,.06-.82,.09Zm-54.72,15.27q.11,.74,.78,.45c-.27-.15-.48-.27-.78-.45Zm13.84-8.65q-.06,.74,.61,.88c-.19-.28-.32-.47-.61-.88Zm33.52,.43c.43-.26,.47-.54,.17-.98-.38,.34-.29,.65-.17,.98Zm-77.99-8.46c.34,.07,.59,.59,1.03,.24-.23-.46-.62-.39-1.03-.24Zm87.71,37.19c.28,.23,.53,.43,.87,.71-.1-.62-.19-1.02-.87-.71Zm-43.81-19.35c.45,.14,.72,.21,1.11,.33-.16-.35-.25-.54-.34-.73-.18,.1-.35,.18-.76,.39ZM9.27,41.77c.12-.2,.26-.39,.34-.59,.03-.08-.06-.2-.13-.39-.21,.16-.37,.29-.52,.41,.12,.22,.21,.39,.31,.57Zm58.58,51.15c-.24,.29-.45,.53-.72,.85,.61-.04,.97-.16,.72-.85ZM122.92,10.1c-.22,.21-.44,.42-.71,.68,.66,.23,.73-.2,.71-.68Zm-9.66,61.85c.22,.13,.4,.3,.46,.26,.31-.18,.42-.46,.17-.91-.21,.22-.39,.41-.63,.65Zm-64.01,13.96c.1,.1,.21,.21,.3,.31,.25-.16,.42-.26,.59-.37-.33-.5-.6-.36-.89,.06Zm25.81-13.87c.18-.2,.36-.39,.55-.6-.46-.21-.7-.06-.87,.3,.13,.12,.21,.2,.32,.29Zm9.88,29.25v-1c-.28,.18-.46,.29-.67,.43,.18,.15,.32,.27,.67,.57Zm-1.49-2.35c.14-.21,.26-.38,.48-.7-.39,.04-.61,.06-.98,.1,.23,.27,.34,.41,.5,.6ZM51.11,19.27c-.09,.41-.16,.57-.16,.73,0,.06,.15,.13,.23,.19,.07-.12,.19-.23,.2-.35,0-.11-.1-.23-.27-.57Zm-12.45,79.19c.39,.61,.66,.57,.94,.05-.29-.01-.54-.03-.94-.05Zm74.83-4.27q-.31,.32,.07,.89c-.03-.37-.05-.63-.07-.89Zm-38.75,18.27c.39,.12,.8,.31,1.33-.23-.6,.1-.97,.17-1.33,.23ZM56.05,19.54c-.16-.1-.27-.17-.38-.24-.06,.12-.18,.26-.17,.37,.01,.1,.17,.19,.26,.28,.08-.11,.16-.23,.29-.41Zm42.13,91.76l.13-.25c-.11-.03-.23-.1-.34-.08-.16,.03-.32,.12-.47,.19,.06,.08,.12,.23,.19,.23,.16,0,.33-.06,.49-.09Zm5.35-77.29c.2,.37,.47,.48,.85,.28-.2-.37-.47-.48-.85-.28Zm-17.96,49.55c-.13-.19-.2-.3-.28-.42-.09,.09-.25,.18-.26,.28-.01,.12,.1,.25,.16,.38,.11-.07,.22-.14,.38-.24ZM139.8,19.46c-.16,.29-.25,.45-.39,.7h.75c-.12-.24-.21-.41-.36-.7Zm-43.9,50.36c-.19-.26-.31-.42-.46-.63-.11,.26-.2,.45-.32,.74,.3-.04,.48-.07,.78-.11Zm3.7-29.37h-.91c.36,.51,.63,.51,.91,0Zm11.69,4.15q.78,.04,.71-.64c-.23,.21-.43,.39-.71,.64Zm1.24,8.22c-.26,.27-.43,.46-.64,.68,.54,.16,.79,.05,.64-.68ZM40.63,23.25c-.1,.16-.17,.27-.24,.38,.12,.06,.26,.18,.37,.17,.1-.01,.19-.17,.28-.26-.11-.08-.23-.16-.41-.29Zm-20.01,60.82c-.09,.41-.16,.57-.16,.73,0,.06,.15,.13,.23,.19,.07-.12,.19-.23,.2-.35,0-.11-.1-.23-.27-.57Zm70.09,15.86c.33-.18,.51-.28,.77-.42-.24-.15-.4-.25-.63-.4-.05,.28-.08,.46-.14,.82ZM9.62,40.49s.08,.04,.12,.06c.08-.11,.13-.23,.23-.31,.1-.08,.39,.27,.34-.13,0-.08-.4-.21-.45-.16-.13,.13-.17,.36-.24,.54Zm12.48,40.9c-.47-.2-.69,.07-.85,.45,.28-.15,.56-.3,.85-.45Zm31.04-35.71c-.35,.2-.58,.32-1.02,.57,.68,.16,.86-.03,1.02-.57Zm27.65,40.1c.03-.08,.06-.15,.08-.23-.16-.09-.3-.21-.47-.26-.1-.03-.24,.04-.36,.06,0,.06-.01,.12-.02,.18,.25,.08,.51,.17,.76,.25Zm37.41-38.08c-.13-.17-.2-.33-.26-.32-.17,.02-.33,.1-.5,.16,.05,.09,.1,.25,.16,.26,.17,0,.34-.05,.59-.09Zm-2.7-6.98c-.39,.55-.06,.68,.18,.83,.04,.02,.13-.04,.23-.08-.11-.21-.23-.41-.41-.75ZM47.6,24.15c-.71-.17-.84,.06-.68,.62,.22-.2,.4-.37,.68-.62Zm-31.37,50.74q.8-.03,.74-.59c-.18,.15-.37,.29-.74,.59Zm20.38-16.26c.56,.37,.74-.08,1.03-.18-.2-.06-.39-.07-.58-.05-.1,.01-.19,.09-.45,.23Zm2.56-.55c-.33,.27-.59,.4-.27,.63,.1,.07,.26,.06,.39,.08-.03-.19-.06-.38-.12-.71Zm19.97-28.49c-.36,.2-.59,.33-.99,.56,.64,.19,.82-.02,.99-.56Zm-13.93,45.5c.38,.22,.65,.08,.85-.27-.38-.22-.65-.09-.85,.27ZM115.12,37c.53,.43,.66,.08,.82-.15,.02-.04-.04-.13-.07-.24-.21,.11-.42,.22-.74,.39ZM30.04,58.28c.23,.13,.33,.52,.64,.21,.06-.06-.12-.36-.21-.61-.18,.16-.28,.26-.43,.4Zm-3.5,8.11c-.16-.13-.26-.21-.36-.29-.07,.12-.2,.24-.19,.35,0,.11,.15,.21,.24,.31,.09-.1,.18-.2,.32-.37Zm84.75-16.85c-.06,.27-.51,.45-.14,.77,.05,.05,.21,.05,.26,0,.39-.32-.07-.5-.13-.78Zm-21.46,39.95c.53,.03,.82,.05,1.1,.07-.29-.1-.46-.68-1.1-.07Zm-64.05-10.81c.38,.22,.65,.09,.85-.28-.38-.22-.65-.08-.85,.28Zm7.81-26.71c0-.12,0-.25,0-.37-.14-.05-.29-.15-.42-.13-.1,.02-.22,.2-.22,.31s.12,.29,.22,.31c.12,.03,.28-.08,.42-.13Zm1.67-19.28c.27,.33,.4,.59,.63,.27,.07-.1,.06-.26,.08-.39-.19,.03-.38,.06-.71,.12Zm45.33,74.01c.14,.17,.23,.27,.31,.37,.09-.1,.24-.2,.24-.3,0-.11-.12-.24-.19-.35-.1,.08-.21,.16-.36,.28ZM107.76,21.79c-.12-.19-.23-.36-.34-.55-.11,.2-.19,.37-.29,.56,.09,.09,.19,.2,.31,.33,.12-.12,.22-.23,.32-.34Zm28.02-7.07c.07,.08-.6,.25-.15,.56,.06,.04,.21,.03,.27-.02,.35-.32-.11-.48-.12-.54Zm-61.49,102.43c-.13-.19-.2-.3-.28-.42-.09,.09-.25,.18-.26,.28-.01,.12,.1,.25,.16,.38,.11-.07,.22-.14,.38-.24ZM21.25,32.19c-.13-.19-.2-.3-.28-.42-.09,.09-.25,.18-.26,.28-.01,.12,.1,.25,.16,.38,.11-.07,.22-.14,.38-.24Zm56.38,44.54c-.13-.17-.2-.33-.26-.32-.17,.02-.33,.1-.5,.16,.05,.09,.1,.25,.16,.26,.17,0,.34-.05,.59-.09Zm-12.2,19.78c-.07,.26-.1,.45-.16,.63-.05,.16-.13,.32-.27,.67,.66-.4,.63-.78,.43-1.3ZM10.81,77.85c-.25,.02-.46,.03-.82,.06,.22,.27,.34,.43,.49,.61,.12-.25,.21-.42,.33-.67Zm3.43-.31q.46-.46,0-.82v.82Zm101.68-11.22q-.46,.46,.04,.86c-.01-.31-.03-.56-.04-.86Zm-24.1,50.54c-.14-.17-.23-.27-.31-.37-.09,.1-.24,.2-.24,.3,0,.11,.12,.24,.19,.35,.1-.08,.21-.16,.36-.28ZM19.41,87.93c-.19,.43-.53,.55-.19,.78,.1,.07,.26,.06,.39,.08-.05-.2-.1-.41-.2-.86Zm64.42,28.38c.02,.05,.03,.1,.05,.15,.2-.05,.4-.09,.61-.14-.04-.1-.08-.2-.11-.3-.18,.1-.36,.19-.54,.29ZM24.6,50.48c-.02,.05-.03,.1-.05,.15,.18,.09,.37,.18,.55,.27,.03-.1,.07-.2,.1-.3-.2-.04-.4-.08-.6-.12Zm48.37,20.55c-.02-.05-.03-.1-.05-.15-.2,.04-.4,.08-.6,.12l.1,.3c.18-.09,.37-.18,.55-.27ZM109.01,26.14s.1,.04,.15,.05c.09-.18,.19-.36,.28-.54-.1-.04-.2-.07-.3-.11-.05,.2-.09,.4-.14,.6Zm-13.99,51.67c-.03-.08-.05-.17-.08-.25-.18,.08-.37,.15-.55,.23,0,0,.06,.19,.07,.19,.19-.05,.38-.11,.56-.17Zm12.19-56.81c-.2-.1-.33-.23-.46-.22-.11,0-.22,.16-.33,.25,.09,.11,.17,.29,.27,.31,.1,.02,.23-.14,.52-.33ZM37.21,50.64c-.02-.05-.03-.1-.05-.15-.2,.04-.4,.08-.6,.12l.1,.3c.18-.09,.37-.18,.55-.27Zm69.59-10.8h.95c-.33-.63-.57-.14-.95,0Zm-8.37,11.43s-.1-.04-.15-.05c-.09,.18-.19,.36-.28,.54,.1,.04,.2,.07,.3,.11,.05-.2,.09-.4,.14-.6Zm16.75-1.29c-.03-.08-.06-.17-.09-.25-.18,.07-.36,.14-.54,.22,0,0,.06,.19,.06,.19,.19-.04,.37-.1,.56-.16Zm3.99-24.45c.03-.08,.06-.16,.1-.25-.19-.06-.37-.12-.56-.17,0,0-.08,.18-.07,.18,.17,.08,.35,.16,.53,.23ZM24.47,67.39q-.4-.34-.65,0h.65Zm88.52,21.94c-.03,.08-.06,.17-.09,.25,.19,.06,.37,.12,.56,.16,0,0,.07-.18,.07-.19-.18-.08-.36-.16-.54-.23Zm-65.93,8.26c-.05-.02-.1-.03-.15-.05-.09,.18-.18,.37-.27,.55,.1,.03,.2,.07,.3,.1,.04-.2,.08-.4,.12-.6Zm-11.24-11.8c.4,.67,.6,.08,.86,0h-.86Zm10.33-32.85c.02,.05,.03,.1,.05,.15,.2-.04,.4-.08,.6-.12l-.1-.3c-.18,.09-.37,.18-.55,.27Zm37.79,53.19c-.02,.09-.05,.17-.07,.26,.19,.05,.37,.1,.56,.14,0,0,.07-.18,.06-.19-.18-.08-.36-.15-.55-.21ZM102.52,20.3c-.09,.02-.17,.05-.26,.07,.07,.18,.14,.37,.22,.55,0,0,.19-.06,.18-.07-.04-.19-.09-.37-.14-.55Zm-32.18,80.97h.93c-.35-.62-.58-.14-.93,0ZM105.38,25.12c.08,.03,.17,.06,.25,.09,.06-.19,.12-.37,.16-.56,0,0-.18-.07-.19-.07-.08,.18-.16,.36-.23,.54ZM50.71,90.62c.02,.05,.03,.1,.05,.15,.2-.05,.4-.09,.61-.14-.04-.1-.08-.2-.11-.3-.18,.1-.36,.19-.54,.29Zm-20.01-16.33s-.07,0-.11,0v1.02s.07,0,.11,0v-1.02ZM123.41,13.66c.05,.02,.1,.04,.15,.05,.09-.18,.19-.36,.28-.54-.1-.04-.2-.08-.3-.11-.04,.2-.09,.4-.13,.6Zm8.15,2.66c.05-.18,.11-.37,.14-.55,0,0-.14-.09-.19-.07-.35,.16-.15,.38,.04,.62Zm-27.05,80.2c.05-.02,.1-.03,.15-.05-.04-.2-.08-.4-.12-.6l-.3,.1c.09,.18,.18,.37,.27,.55Zm-79.03-.04c.09-.02,.18-.04,.26-.06-.07-.19-.14-.38-.22-.56,0,0-.19,.06-.18,.07,.04,.19,.09,.37,.14,.55Zm83.27,21.28c-.05-.02-.1-.04-.15-.05-.09,.18-.19,.36-.28,.54,.1,.04,.2,.08,.3,.11,.04-.2,.09-.4,.13-.6ZM17.78,63.99c.08,.04,.16,.07,.24,.11,.06-.19,.12-.38,.17-.57,0,0-.18-.08-.18-.07-.08,.17-.16,.35-.23,.53Zm89.33,27.59s.04,.1,.05,.15c.2-.05,.4-.09,.6-.14-.04-.1-.08-.2-.11-.3-.18,.1-.36,.19-.54,.29Zm-24.19,14.77c.05-.02,.1-.03,.15-.05-.05-.2-.09-.4-.14-.61-.1,.04-.2,.08-.3,.11,.1,.18,.19,.36,.29,.54Zm-28.43-59.7c.07-.34,.13-.66-.5-.79,.23,.37,.37,.58,.5,.79ZM2.69,59.5c-.09-.04-.18-.08-.27-.12-.08,.27-.16,.53-.24,.8,.05,.02,.11,.04,.16,.05,.12-.25,.23-.49,.35-.74Zm14.61,21.37s-.03-.1-.05-.15c-.2,.04-.4,.08-.6,.12,.03,.1,.07,.2,.1,.3,.18-.09,.37-.18,.55-.27Zm60.88,0c-.31-.12-.67-.33-.91,.25,.38-.1,.64-.17,.91-.25Zm-39.97-11.83c.12,.16,.22,.27,.35,.44,.13-.3,.21-.5,.38-.9-.35,.22-.53,.33-.73,.46Zm41.35,29.73c-.4,.12-.66,.2-.93,.27,.32,.1,.67,.31,.93-.27Zm33.64-36.13s.08,.06,.11,.05c.16-.05,.32-.12,.48-.19,0,0-.06-.19-.07-.18-.16,.04-.32,.08-.47,.15-.03,.01-.03,.11-.04,.17Zm-32.18,36.33s-.04,.1-.05,.15c.18,.09,.37,.18,.55,.27,.03-.1,.07-.2,.1-.3-.2-.04-.4-.08-.6-.12Zm-23.84-58.16c.09-.02,.17-.05,.26-.07-.07-.18-.13-.37-.21-.55,0,0-.19,.05-.19,.06,.04,.19,.09,.37,.14,.56Zm59.33-7.02c-.47-.16-.76-.14-1,.42,.38-.16,.65-.27,1-.42Zm-62.46,57.82c-.05-.02-.1-.04-.15-.05-.09,.18-.19,.36-.28,.54,.1,.04,.2,.08,.3,.11,.04-.2,.09-.4,.13-.6Zm51.62-6.87c.08-.03,.17-.06,.25-.09-.07-.18-.15-.36-.23-.54,0,0-.19,.06-.19,.07,.05,.19,.11,.38,.17,.56Zm-1.95-57.44c.09,.02,.17,.05,.26,.07,.05-.19,.1-.37,.14-.56,0,0-.18-.07-.19-.06-.08,.18-.15,.36-.21,.55ZM44.42,95.44c.08,.03,.17,.06,.25,.09,.06-.19,.12-.37,.16-.56,0,0-.18-.07-.19-.07-.08,.18-.16,.36-.23,.54ZM106.96,10.19c-.36,.21-.38,.42,0,.63,.37-.21,.38-.42,0-.63Zm14.36,93.52c.05-.02,.1-.03,.15-.05-.05-.2-.09-.4-.14-.61-.1,.04-.2,.08-.3,.11l.29,.54ZM60.3,34.14c-.3,0-.69-.1-.73,.52,.33-.23,.53-.37,.73-.52Zm37.2,87.27c.05,.02,.1,.04,.15,.05,.09-.18,.19-.36,.28-.54-.1-.04-.2-.08-.3-.11-.04,.2-.09,.4-.13,.6Zm14.85-78.29c.09,.02,.17,.05,.26,.07,.05-.19,.1-.37,.14-.56,0,0-.18-.07-.19-.06-.08,.18-.15,.36-.21,.55Zm-1.62,27.18c-.04-.25,.81-.56-.05-.79,.02,.28,.03,.53,.05,.79Zm-91.25,1.68c.09-.02,.17-.05,.26-.07-.07-.18-.14-.37-.22-.55,0,0-.19,.06-.18,.07,.04,.19,.09,.37,.14,.55Zm79.45,16.57c.08-.03,.17-.06,.25-.09-.07-.18-.14-.36-.22-.54,0,0-.19,.06-.19,.06,.04,.19,.1,.37,.16,.56ZM52.41,42.53v.75c.18-.16,.29-.26,.41-.38-.12-.11-.23-.21-.41-.38Zm53.26,78.78c-.1-.11-.17-.23-.24-.24-.08,0-.17,.1-.25,.16,.06,.08,.11,.22,.18,.24,.07,.02,.17-.08,.31-.16Zm-4.89-94.24s-.08-.01-.12-.02v.76s.08,0,.12,0v-.74Zm-13.83,93.77c-.11-.11-.17-.24-.24-.25-.08,0-.17,.1-.25,.16,.06,.08,.11,.21,.18,.24,.07,.02,.17-.08,.31-.15ZM39.68,61.31c-.11-.11-.17-.24-.24-.25-.08,0-.17,.1-.25,.16,.06,.08,.11,.21,.18,.24,.07,.02,.17-.08,.31-.15Zm14.97-22.86q.05-.51-.32-.64c.11,.23,.2,.42,.32,.64Zm-7.55,60.3q.34,.38,.6-.04c-.21,.01-.39,.03-.6,.04Zm60.55-34.23c.52-.02,.59-.22,.62-.73-.27,.31-.39,.46-.62,.73Zm8.1-35.12c-.11-.11-.17-.24-.24-.25-.08,0-.17,.1-.25,.16,.06,.08,.11,.21,.18,.24,.07,.02,.17-.08,.31-.15ZM35.73,64.72c-.08-.04-.16-.08-.24-.11-.06,.21-.11,.43-.17,.64,.04,.01,.07,.02,.11,.04,.1-.19,.2-.37,.3-.56Zm67.31,16.03c-.11-.11-.17-.24-.24-.25-.08,0-.17,.1-.25,.16,.06,.08,.11,.21,.18,.24,.07,.02,.17-.08,.31-.15Zm15.36,17.19c-.11,.1-.23,.17-.24,.24,0,.08,.1,.17,.16,.25,.08-.06,.22-.11,.24-.18,.02-.07-.08-.17-.16-.31ZM43.91,60.75c-.07,.14-.17,.24-.15,.31,.02,.07,.16,.18,.23,.17,.07-.01,.18-.15,.17-.23,0-.08-.13-.14-.24-.25Zm45.05,4.79s.01-.08,.02-.12h-.76s0,.08,0,.12h.74Zm-59.7,.82c-.6,.01-.39,.33-.33,.7,.13-.28,.22-.47,.33-.7ZM119.98,29.78q-.31-.38-.58,0h.58Zm-8.07,36.8c-.1-.11-.17-.23-.24-.24-.08,0-.17,.1-.25,.16,.06,.08,.11,.22,.18,.24,.07,.02,.17-.08,.31-.16Zm-5.12-28.09q-.38,.34,.04,.6c-.01-.21-.03-.39-.04-.6Zm3.84,6.89c-.07,.14-.17,.24-.15,.31,.02,.07,.16,.18,.23,.17,.07-.01,.18-.15,.17-.23,0-.07-.13-.14-.24-.25ZM45.92,30.52q.38-.34-.04-.6c.01,.21,.03,.39,.04,.6Zm56.77,75.71s-.07,0-.1,0v.8s.07,0,.1,0v-.8Zm26.29-70.2c.05-.03,.1-.06,.15-.09-.02-.1-.01-.22-.07-.3-.06-.1-.17-.17-.26-.25-.05,.04-.09,.08-.14,.12,.1,.17,.21,.34,.31,.51ZM23.85,86.46c.38-.06,.52-.05,.64-.1,.1-.05,.15-.17,.23-.25-.05-.05-.09-.09-.14-.14-.17,.12-.34,.23-.73,.5Zm21.35-7.95c-.11,.1-.23,.17-.24,.24,0,.08,.1,.17,.16,.25,.08-.06,.22-.11,.24-.18,.02-.07-.08-.17-.16-.31Zm6.73-31.58c.02,.06,.04,.12,.06,.18,.17-.05,.35-.1,.52-.15-.04-.06-.1-.18-.13-.17-.15,.03-.3,.09-.45,.14Zm-9.21,20c-.06-.06-.12-.11-.18-.17-.14,.13-.28,.26-.42,.39,.04,.05,.08,.1,.12,.15,.16-.12,.32-.24,.48-.36Zm-5.68,.78c-.11,.1-.23,.17-.24,.24,0,.08,.1,.17,.16,.25,.08-.06,.22-.11,.24-.18,.02-.07-.08-.17-.16-.31Zm9.51,28.06c-.02-.06-.04-.12-.06-.18-.17,.05-.35,.1-.52,.15,.04,.06,.1,.18,.13,.17,.15-.03,.3-.09,.45-.14ZM6.91,68.75c-.05,.03-.11,.06-.16,.1,.11,.18,.22,.35,.33,.53,.05-.03,.11-.06,.16-.1-.11-.18-.22-.35-.33-.53Zm24.37-19.68c-.1-.11-.17-.23-.24-.24-.08,0-.17,.1-.25,.16,.06,.08,.11,.22,.18,.24,.07,.02,.17-.08,.31-.16Zm-8.54,1.33c.04-.08,.08-.16,.11-.24-.21-.06-.43-.11-.64-.17-.01,.04-.02,.07-.04,.11,.19,.1,.37,.2,.56,.3Zm81.97-15.97q.34,.39,.61-.04c-.21,.01-.39,.02-.61,.04ZM30.56,50.67c-.11,.1-.23,.17-.24,.24,0,.08,.1,.17,.16,.25,.08-.06,.22-.11,.24-.18,.02-.07-.08-.17-.16-.31ZM6.57,78.67s.08,.01,.12,.02v-.76s-.08,0-.12,0v.74Zm52.73,16.16c-.3-.51-.47-.42-.64,0h.64Zm61.27-54.02h.65c-.27-.45-.46-.4-.65,0Zm-4.33-18.86c-.1-.11-.17-.23-.24-.24-.08,0-.17,.1-.25,.16,.06,.08,.11,.22,.18,.24,.07,.02,.17-.08,.31-.16ZM46.88,57.14c-.14-.07-.24-.17-.31-.15-.07,.02-.18,.16-.17,.23,.01,.07,.15,.18,.23,.17,.07,0,.14-.13,.25-.24Zm40.55,14.38h.68q-.36-.34-.68,0Zm-84.23,1.21q.38-.31,0-.58v.58ZM128.07,31.74c0-.08,0-.15,0-.23-.26,.02-.52,.03-.78,.05,0,.04,0,.09,0,.13,.26,.02,.52,.03,.77,.05Zm-26.79-9.39c.1,.11,.17,.23,.24,.24,.08,0,.17-.1,.25-.16-.06-.08-.11-.22-.18-.24-.07-.02-.17,.08-.31,.16ZM13.73,54.61c-.34-.19-.44-.29-.51-.27-.08,.02-.12,.15-.18,.23,.08,.06,.16,.16,.25,.17,.1,.01,.21-.06,.45-.14Zm56.6,21.54c.07-.04,.15-.08,.22-.12-.1-.18-.2-.35-.3-.53-.05,.02-.09,.04-.14,.07,.07,.19,.15,.39,.22,.58Zm2.24,36.21q.39-.34-.04-.61c.01,.21,.02,.39,.04,.61Zm17.78-37.13q.31,.38,.58,0h-.58Zm25.16-21.75q.51,.05,.64-.32c-.22,.11-.41,.2-.64,.32ZM30.36,33.25s0,.07,0,.1h.8s0-.07,0-.1h-.8Zm103.77-7.74c.19-.34,.29-.44,.27-.51-.02-.08-.15-.12-.23-.18-.06,.08-.16,.16-.17,.25-.01,.1,.06,.21,.14,.45ZM28.65,74.99q.31,.38,.58,0h-.58ZM121.71,33.49l.22,.14c.08-.19,.16-.39,.25-.58-.05-.02-.1-.04-.15-.07-.11,.17-.21,.34-.32,.51Zm-12.82,19.32s.01-.08,.02-.12h-.76s0,.08,0,.12h.74Zm-19.69,37.5s-.06,.09-.08,.13c.13,.07,.25,.14,.38,.22,.01-.07,.06-.19,.04-.2-.1-.07-.22-.1-.34-.15Zm41.15-57.02c.15,.06,.27,.11,.28,.1,.06-.1,.11-.22,.15-.32-.13,.07-.25,.13-.44,.22Zm-31.82,79.8s.09-.09,.14-.14c-.1-.11-.21-.21-.31-.32-.05,.05-.1,.1-.15,.15,.11,.1,.22,.2,.32,.3ZM20.19,75.34s-.07-.08-.11-.11c-.11,.1-.21,.2-.32,.3,.04,.04,.07,.08,.11,.11,.11-.1,.21-.2,.32-.31ZM38.39,25.13c-.06,0-.13,0-.19,.01,.03,.17,.06,.34,.09,.51,.03,0,.07,0,.1-.01v-.51Zm79.11,28.23s-.04,.09-.06,.14c.13,.07,.25,.13,.38,.2,.01-.07,.05-.19,.03-.21-.1-.06-.23-.09-.34-.14Zm-24.76,36.17h.12v-.6h-.12v.6Zm-15.44-17.31s-.07-.08-.11-.11c-.11,.1-.21,.2-.32,.3,.04,.04,.07,.08,.11,.11,.11-.1,.21-.2,.32-.31ZM48.29,15.55l.14,.07c.07-.12,.14-.24,.21-.37-.07-.01-.19-.06-.2-.04-.07,.1-.1,.22-.15,.34ZM29.94,52.58c0-.06,0-.12-.01-.19-.17,.03-.34,.05-.51,.08,0,.04,0,.07,0,.11h.51Zm79.24,19.07s-.07,0-.11,0v.6s.07,0,.11,0v-.6Zm-99.38-.05s-.09,.09-.14,.14c.1,.11,.21,.21,.31,.32,.05-.05,.1-.1,.15-.15-.11-.1-.21-.21-.32-.31Zm2.23-15.26s-.09-.04-.14-.06c-.07,.13-.13,.25-.2,.38,.07,.01,.19,.05,.21,.03,.06-.1,.09-.23,.14-.34Zm7.59,.81c0-.06,0-.13-.01-.19-.17,.03-.34,.06-.51,.09,0,.03,0,.07,.01,.1h.51Zm-12.62,19.89s-.09-.09-.14-.14c-.11,.1-.21,.21-.32,.31,.05,.05,.1,.1,.15,.15,.1-.11,.2-.22,.3-.32Zm68.18,.41s.07,.08,.11,.11c.11-.1,.21-.2,.32-.3-.04-.04-.07-.08-.11-.11-.11,.1-.21,.2-.32,.31Zm-48.97,5.8c-.15-.05-.27-.11-.28-.1-.06,.11-.09,.22-.14,.34,.12-.07,.24-.14,.42-.24Zm95.05-31.2c-.15-.06-.27-.11-.28-.1-.06,.1-.11,.22-.15,.33,.13-.07,.25-.13,.44-.22Zm-6.86-37.8s-.05,.09-.07,.14c.12,.07,.24,.14,.37,.21,.01-.07,.06-.19,.04-.2-.1-.07-.22-.1-.34-.15Zm-13.86,103.49s-.07,0-.11,0v.6s.07,0,.11,0v-.6ZM26.38,57.24h-.12v.6h.12v-.6Zm74.16-15.6s-.07,0-.11,0v.6s.07,0,.11,0v-.6ZM18.46,30.13s-.07,0-.11,0v.6s.07,0,.11,0v-.6Zm52.64,76.82s.07,.08,.11,.11c.11-.1,.21-.2,.32-.3-.04-.04-.07-.08-.11-.11-.11,.1-.21,.2-.32,.31ZM45.63,39.58s-.07-.08-.11-.11c-.11,.1-.21,.2-.32,.3,.04,.04,.07,.08,.11,.11,.11-.1,.21-.2,.32-.31Zm-10.05,27.2c-.08,.06-.17,.11-.23,.19-.03,.04,.03,.13,.05,.2,.11-.08,.21-.15,.32-.23-.04-.05-.08-.09-.14-.17Zm11.25,19.31c-.03-.1-.05-.17-.06-.24-.11,.08-.21,.15-.32,.23,.04,.05,.09,.14,.12,.13,.1-.02,.18-.07,.27-.11ZM116.74,26.89h.12v-.6s-.08,0-.12,0v.6Zm-.55,11.74s-.09-.09-.14-.14c-.11,.1-.21,.21-.32,.31,.05,.05,.1,.1,.15,.15,.1-.11,.21-.21,.31-.32ZM25.38,78.98c0-.06,0-.12-.01-.19-.17,.03-.34,.05-.51,.08,0,.04,0,.07,0,.11h.51Zm51.88,.47s0-.07,0-.11h-.6s0,.07,0,.11h.6Zm53.18-50.27c-.08,.09-.15,.17-.23,.25,.07,.05,.14,.09,.21,.14,.05-.09,.12-.17,.15-.26,0-.02-.08-.08-.14-.13Zm-89.34,9.38s.07,.08,.11,.11c.11-.1,.21-.2,.32-.3-.04-.04-.07-.08-.11-.11-.11,.1-.21,.2-.32,.31Zm50.64,64.36c-.15-.06-.27-.11-.28-.1-.06,.1-.11,.22-.15,.33,.13-.07,.25-.13,.44-.22ZM39.94,60.61s0,.07,0,.11h.6s0-.07,0-.11h-.6Zm79.13-24.32c.06,.08,.11,.17,.19,.23,.04,.03,.13-.03,.2-.05-.08-.11-.15-.21-.23-.32-.05,.04-.09,.08-.17,.14Zm-65.28,9.06s-.09-.09-.14-.14c-.11,.1-.21,.21-.32,.31,.05,.05,.1,.1,.15,.15,.1-.11,.21-.21,.31-.32Zm-31.61-1.3s0,.07,0,.11h.6s0-.07,0-.11h-.6Zm101.2-.15s-.07-.08-.11-.11c-.11,.1-.21,.2-.32,.3,.04,.04,.07,.08,.11,.11,.11-.1,.21-.2,.32-.31ZM19.83,61.04s-.04,.09-.06,.14c.13,.07,.25,.13,.38,.2,.01-.07,.05-.19,.03-.21-.1-.06-.23-.09-.34-.14Zm62.18,23.73c-.06,.15-.11,.27-.1,.28,.1,.06,.21,.11,.32,.16-.07-.13-.13-.25-.22-.44ZM31.78,43.33s0,.07,0,.11h.6s0-.07,0-.11h-.6Zm17.06-14.24s.08-.07,.11-.11c-.1-.11-.2-.21-.3-.32-.04,.04-.08,.07-.11,.11,.1,.11,.2,.21,.31,.32Zm-12.37,32.04c-.06,0-.13,0-.19,.01,.03,.17,.06,.34,.09,.51,.03,0,.07,0,.1-.01v-.51Zm-24.54,20.96c0-.06,0-.12-.01-.19-.17,.03-.34,.05-.51,.08,0,.04,0,.07,0,.11h.51Zm70.18,18.64c.15,.05,.27,.11,.28,.1,.06-.11,.09-.22,.14-.34-.12,.07-.24,.14-.42,.24ZM23.14,62.16s.07,0,.11,0v-.6s-.07,0-.11,0v.6Zm90.72-.56c.05,.04,.1,.11,.14,.11,.07,0,.13-.04,.2-.06-.04-.04-.08-.12-.12-.12-.06,0-.13,.04-.22,.07Zm-13.56-23.72c-.05-.04-.1-.11-.14-.11-.07,0-.13,.04-.2,.06,.04,.04,.08,.12,.12,.12,.06,0,.13-.04,.22-.07Zm17.56,23.66c-.02-.07-.05-.13-.07-.2-.04,.04-.12,.08-.12,.12,0,.06,.04,.13,.07,.2,.04-.04,.08-.08,.13-.12Zm-101.81,.49s-.06,0-.09,0v.37h.09v-.37Zm13.7,.11s0-.06,0-.09h-.37v.09h.37Zm11.23,36.85c-.04,.05-.11,.1-.11,.14,0,.07,.04,.13,.06,.2,.04-.04,.12-.08,.12-.12,0-.06-.04-.13-.07-.22Zm46.12-34.48c-.05-.04-.1-.11-.14-.11-.07,0-.13,.04-.2,.06,.04,.04,.08,.12,.12,.12,.06,0,.13-.04,.22-.07Zm-74.04-3.4c.05,.04,.1,.11,.14,.11,.07,0,.13-.04,.2-.06-.04-.04-.08-.12-.12-.12-.06,0-.13,.04-.22,.07Zm81.44,37.27c.03-.08,.07-.14,.07-.21,0-.04-.07-.08-.11-.12-.03,.07-.07,.13-.07,.19,0,.04,.07,.09,.11,.13ZM56.82,35.88c-.04,.05-.11,.1-.11,.14,0,.07,.04,.13,.06,.2,.04-.04,.12-.08,.12-.12,0-.06-.04-.13-.07-.22Zm-31.64,24.8c-.05-.04-.1-.11-.14-.11-.07,0-.13,.04-.2,.06,.04,.04,.08,.12,.12,.12,.06,0,.13-.04,.22-.07Zm9.11-41.6s-.06,0-.09,0v.37h.09v-.37Zm111.86-.37v-.09h-.37v.09h.37Zm-15.38,16.69s-.06,0-.09,0v.37h.09v-.37Zm-24.48,30.76c-.08-.03-.14-.07-.21-.07-.04,0-.08,.07-.12,.11,.07,.03,.13,.07,.19,.07,.04,0,.09-.07,.13-.11Zm-9.55-5.88s-.08-.09-.12-.13c-.02,.07-.07,.13-.06,.2,0,.04,.07,.08,.11,.12,.03-.07,.05-.13,.07-.18Zm-58.11-.08c-.05-.04-.1-.11-.14-.11-.07,0-.13,.04-.2,.06,.04,.04,.08,.12,.12,.12,.06,0,.13-.04,.22-.07Zm80.53,44.21h.09v-.37h-.09v.37Zm9.74-86.13s-.08-.09-.12-.13c-.02,.07-.07,.13-.06,.2,0,.04,.07,.08,.11,.12,.03-.07,.05-.13,.07-.18Zm5.76-.96s-.08-.09-.12-.13c-.02,.07-.07,.13-.06,.2,0,.04,.07,.08,.11,.12,.03-.06,.05-.13,.07-.18Zm-36.27,42.4c-.05-.04-.1-.11-.14-.11-.07,0-.13,.04-.2,.06,.04,.04,.08,.12,.12,.12,.06,0,.13-.04,.22-.07Zm-72.76,6.88c-.04,.05-.11,.1-.11,.14,0,.07,.04,.13,.06,.2,.04-.04,.12-.08,.12-.12,0-.06-.04-.13-.07-.22Zm-4.05-7.44s-.06,0-.09,0v.37h.09v-.37Zm16.8-.92c-.08-.03-.14-.07-.21-.07-.04,0-.08,.07-.12,.11,.06,.02,.13,.07,.19,.07,.04,0,.09-.07,.13-.11Zm52.85,48.18c-.02-.07-.05-.13-.07-.2-.04,.04-.12,.08-.12,.12,0,.06,.04,.13,.07,.2,.04-.04,.08-.08,.13-.12Zm-39.12-9.6c-.02-.07-.05-.13-.07-.2-.04,.04-.12,.08-.12,.12,0,.06,.04,.13,.07,.2,.04-.04,.08-.08,.13-.12Zm-10-29.25s0,.06,0,.09h.37v-.09h-.37ZM110.49,21.26v.09h.37v-.09h-.37Zm-35.36,85.39s-.09,.08-.13,.12c.07,.02,.13,.07,.2,.06,.04,0,.08-.07,.12-.11-.06-.03-.13-.05-.18-.07ZM110.66,17.39c-.02-.07-.05-.13-.07-.2-.04,.04-.12,.08-.12,.12,0,.06,.04,.13,.07,.2,.04-.04,.08-.08,.13-.12Zm-27.36,51.12c-.02-.07-.05-.13-.07-.2-.04,.04-.12,.08-.12,.12,0,.06,.04,.13,.07,.2,.04-.04,.08-.08,.13-.12Zm2.59,39.61h-.09v.37h.09v-.37Zm-12.33-38.03s.06,0,.09,0v-.37h-.09v.37Zm42.57,.59s-.06,0-.09,0v.37h.09v-.37Zm-13.07,38.45c.05,.04,.1,.11,.14,.11,.07,0,.13-.04,.2-.06-.04-.04-.08-.12-.12-.12-.06,0-.13,.04-.22,.07ZM121.05,16.22v.09h.37v-.09h-.37Zm-35.02,77.87h.09v-.37h-.09v.37Zm6.58-37.29c-.08-.03-.14-.07-.21-.07-.04,0-.08,.07-.12,.11,.07,.03,.13,.07,.19,.07,.04,0,.09-.07,.13-.11Zm-67.91-.44c-.05-.04-.1-.11-.14-.11-.07,0-.13,.04-.2,.06,.04,.04,.08,.12,.12,.12,.06,0,.13-.04,.22-.07Zm83.48,15.15c.03-.08,.07-.14,.07-.21,0-.04-.07-.08-.11-.12-.03,.06-.07,.13-.07,.19,0,.04,.07,.09,.11,.13ZM34.78,23c-.05-.04-.1-.11-.14-.11-.07,0-.13,.04-.2,.06,.04,.04,.08,.12,.12,.12,.06,0,.13-.04,.22-.07Zm82.07,31.12s-.06,0-.09,0v.37h.09v-.37Zm-75.6,18.48s-.06,0-.09,0v.37h.09v-.37ZM116.17,15.45s-.09,.08-.13,.12c.07,.02,.13,.07,.2,.06,.04,0,.08-.07,.12-.11-.06-.03-.13-.05-.18-.07ZM34.91,33.61s.06,0,.09,0v-.37h-.09v.37Zm-6.01,57.52c.05,.04,.1,.11,.14,.11,.07,0,.13-.04,.2-.06-.04-.04-.08-.12-.12-.12-.06,0-.13,.04-.22,.07Zm47.53,21.44h.09v-.37h-.09v.37ZM30.11,74.65s.06,0,.09,0v-.37h-.09v.37ZM111.13,32.73s-.09,.08-.13,.12c.07,.02,.13,.07,.2,.06,.04,0,.08-.07,.12-.11-.06-.03-.13-.05-.18-.07Zm1.36,55.95c-.04,.05-.11,.1-.11,.14,0,.07,.04,.13,.06,.2,.04-.04,.12-.08,.12-.12,0-.06-.04-.13-.07-.22Zm-34.04-.64c-.05-.04-.1-.11-.14-.11-.07,0-.13,.04-.2,.06,.04,.04,.08,.12,.12,.12,.06,0,.13-.04,.22-.07Zm-25.69-.08h-.09v.37h.09v-.37Zm42,26.44c-.08-.03-.14-.07-.21-.07-.04,0-.08,.07-.12,.11,.06,.02,.13,.07,.19,.07,.04,0,.09-.07,.13-.11ZM111.71,15.13s.06,0,.09,0v-.37h-.09v.37Zm-9.46,15.87s-.08-.09-.12-.13c-.02,.07-.07,.13-.06,.2,0,.04,.07,.08,.11,.12,.03-.07,.05-.13,.07-.18Zm-57.04,46.9s0,.06,0,.09h.37v-.09h-.37Zm.37-27.51s0-.06,0-.09h-.37v.09h.37Zm-7.65-24.13c-.02-.07-.05-.13-.07-.2-.04,.04-.12,.08-.12,.12,0,.06,.04,.13,.07,.2,.04-.04,.08-.08,.13-.12ZM104.74,116.33c.05,.04,.1,.11,.14,.11,.07,0,.13-.04,.2-.06-.04-.04-.08-.12-.12-.12-.06,0-.13,.04-.22,.07ZM32.34,50.63c.03-.08,.07-.14,.07-.21,0-.04-.07-.08-.11-.12-.02,.07-.07,.13-.07,.19,0,.04,.07,.09,.11,.13Zm43.11,36.86s0,.06,0,.09h.37v-.09h-.37Zm-22.91,.07c-.05-.04-.1-.11-.14-.11-.07,0-.13,.04-.2,.06,.04,.04,.08,.12,.12,.12,.06,0,.13-.04,.22-.07Zm-12.93-39.04s-.08-.09-.12-.13c-.02,.07-.07,.13-.06,.2,0,.04,.07,.08,.11,.12,.03-.07,.05-.13,.07-.18Zm77.62,39.09h.09v-.37h-.09v.37ZM18.46,41.48c-.05-.04-.1-.11-.14-.11-.07,0-.13,.04-.2,.06,.04,.04,.08,.12,.12,.12,.06,0,.13-.04,.22-.07Zm14.12-10.77c.03-.08,.07-.14,.07-.21,0-.04-.07-.08-.11-.12-.02,.07-.07,.13-.07,.19,0,.04,.07,.09,.11,.13Zm93.76-.79c.05,.04,.1,.11,.14,.11,.07,0,.13-.04,.2-.06-.04-.04-.08-.12-.12-.12-.06,0-.13,.04-.22,.07Zm-28.8,48.72c.05,.04,.1,.11,.14,.11,.07,0,.13-.04,.2-.06-.04-.04-.08-.12-.12-.12-.06,0-.13,.04-.22,.07Zm28.91,40.51h-.09v.37h.09v-.37ZM44.97,85.34s0,.06,0,.09h.37v-.09h-.37Zm-5.17-43.46s-.06,0-.09,0v.37h.09v-.37Zm-14.4,38.68c-.08-.03-.14-.07-.21-.07-.04,0-.08,.07-.12,.11,.06,.02,.13,.07,.19,.07,.04,0,.09-.07,.13-.11ZM120.01,26.25s-.09,.08-.13,.12c.07,.02,.13,.07,.2,.06,.04,0,.08-.07,.12-.11-.06-.03-.13-.05-.18-.07Zm-62.19,17.63c-.05-.04-.1-.11-.14-.11-.07,0-.13,.04-.2,.06,.04,.04,.08,.12,.12,.12,.06,0,.13-.04,.22-.07Zm46.28,76.48c-.04,.05-.11,.1-.11,.14,0,.07,.04,.13,.06,.2,.04-.04,.12-.08,.12-.12,0-.06-.04-.13-.07-.22ZM38.86,43.64c-.05-.04-.1-.11-.14-.11-.07,0-.13,.04-.2,.06,.04,.04,.08,.12,.12,.12,.06,0,.13-.04,.22-.07Zm77.32-14.98c-.02-.07-.05-.13-.07-.2-.04,.04-.12,.08-.12,.12,0,.06,.04,.13,.07,.2,.04-.04,.08-.08,.13-.12Zm-14.16,14.64c-.02-.07-.05-.13-.07-.2-.04,.04-.12,.08-.12,.12,0,.06,.04,.13,.07,.2,.04-.04,.08-.08,.13-.12ZM34.78,83.96c-.05-.04-.1-.11-.14-.11-.07,0-.13,.04-.2,.06,.04,.04,.08,.12,.12,.12,.06,0,.13-.04,.22-.07Zm.13-6.19s.06,0,.09,0v-.37h-.09v.37Z"/>
      <path class="cls-1" d="M110.94,115.49c-.15-.01-.29-.02-.59-.05,.2-.2,.31-.31,.51-.51,.02,.3,.04,.45,.05,.59l.03-.03Z"/>
      <path class="cls-1" d="M138.28,32.42c.36,.09,.58,.13,.78,.21,1.5,.55,2.97,1.14,4.6,1.31,.66,.07,1.32,.24,1.99,.19,.86-.06,1.77-.03,2.56-.32,.81-.29,1.34,.09,1.98,.3-.49,2.02-2.83,3.48-4.87,3.39-.98-.04-2.01,.12-2.93-.27-.97-.4-2-.72-2.82-1.44-.62-.55-.87-1.31-1.2-2.01-.16-.36-.06-.83-.09-1.36Z"/>
      <path class="cls-1" d="M97.22,96.8h.41c-.02,.06-.04,.12-.07,.18-.11-.07-.21-.14-.32-.22l-.03,.03Z"/>
    </g>
  </g>
</svg>