<?xml version="1.0" encoding="UTF-8"?>
<svg id="_レイヤー_2" data-name="レイヤー 2" xmlns="http://www.w3.org/2000/svg" viewBox="0 0 115.94 102.52">
  <defs>
    <style>
      .cls-1 {
        fill: #f5a85d;
      }
    </style>
  </defs>
  <g id="illustration">
    <g>
      <path class="cls-1" d="M68.66,42.02c.16,0,.35,.06,.47,0,1.41-.7,2.95-1.02,4.45-1.45,2.21-.63,4.39-1.34,6.68-1.67,1-.14,1.97-.46,2.97-.66,.65-.13,1.32-.21,1.98-.28,.94-.1,1.92-.03,2.82-.28,1.44-.4,2.93,.08,4.34-.44,.17-.06,.52-.07,.58,.02,.46,.74,.87,.38,1.33,.02,.13-.1,.38-.04,.58-.05,.88-.05,1.8-.05,2.64,.08,.92,.14,1.82,.02,2.71,.17,1.88,.31,3.76,.66,5.69,1-.1,.31-.17,.52-.29,.88,.36-.02,.68,.04,.93-.07,.57-.27,1.1-.15,1.58,.13,.94,.56,1.96,1.05,2.75,1.78,1.08,.99,2.13,2.06,2.9,3.34,.81,1.34,1.49,2.74,1.71,4.33,.13,.93,.36,1.86,.44,2.79,.05,.58-.1,1.17-.15,1.76-.03,.32,.02,.65-.08,.94-.23,.67-.02,1.44-.65,2.03-.27,.25-.26,.88-.24,1.34,.02,.63-.03,1.18-.49,1.68-.18,.2-.34,.62-.25,.84,.17,.41,.04,.8-.07,1.1-.42,1.17-.64,2.4-1.27,3.5-.36,.63-.48,1.39-.71,2.09-.79,2.35-2.04,4.49-3.12,6.71-.55,1.12-1.15,2.22-1.94,3.21-.6,.76-.98,1.69-1.55,2.49-.75,1.05-1.57,2.05-2.38,3.07-.22,.27-.55,.47-.53,.89,0,.1-.1,.21-.17,.3-1.39,1.48-2.78,2.96-4.19,4.41-.17,.17-.55,.14-.73,.31-.17,.17-.21,.49-.31,.74-.01,.03-.05,.06-.08,.09-.77,.7-1.53,1.43-2.32,2.11-.98,.85-1.99,1.67-3.01,2.49-.2,.16-.47,.24-.72,.34-.14,.06-.38,.08-.41,.16-.26,.86-1.09,1.14-1.71,1.57-1.38,.96-2.82,1.83-4.29,2.65-1.43,.8-2.97,1.42-4.38,2.25-1.13,.67-2.31,1.11-3.58,1.39-.34,.08-.69,.11-1.07,.17-.1-.27-.18-.48-.26-.7q-.35,.89-1.24,.9c-.28,0-.56,0-.84,0-.76-.03-1.46-.2-1.88-1.02-.8,.75-1.59,.48-2.39,.06-1.15-.6-2.38-1.05-3.32-1.99-.74-.73-.74-.72-.85-1.84-.25,.07-.49,.13-.86,.24-.78-1.01-1.61-2.06-2.41-3.13-.17-.23-.25-.48-.1-.86,.26-.66,.11-.86-.61-1.16-.68-.29-1.17-.66-1.26-1.48-.03-.29-.39-.53-.55-.82-.23-.41-.58-.85-.57-1.27,.02-.56-.43-.78-.6-1.18-.22-.51-.03-.73,.4-1.12-.76,.05-1.04-.34-1.23-.85-.26-.72-.53-1.45-.79-2.18,.28-.1,.5-.17,.84-.29-.46-.62-.87-1.19-1.28-1.76-.16-.21-.42-.41-.45-.64-.26-1.58-1.02-3.04-1.04-4.69,0-.52-.34-1.03-.45-1.56-.26-1.18-.5-2.37-.71-3.56-.13-.7-.35-1.35-.74-1.96-.27-.41-.41-.91-.62-1.39-.13,0-.36,.06-.54-.01-.93-.4-1.83-.86-2.76-1.23-.25-.1-.62-.04-.9,.06-1.58,.57-3.14,1.18-4.72,1.74-.47,.17-1.01,.15-1.5,.28-.37,.1-.69,.4-1.05,.44-1.46,.16-2.79,.82-4.24,1.01-.73,.1-1.45,.31-2.17,.45-.84,.16-1.69,.3-2.54,.45-.08,.01-.16,.03-.24,.03-1.63-.06-3.21,.32-4.81,.46-1.47,.13-2.96,.03-4.44,.03-.52,0-1.05-.05-1.56,.01-.42,.05-.53-.24-.74-.48-1.05,.5-2.09,.2-3.1-.12-.49-.15-.87-.29-1.41-.18-.49,.1-1.06-.16-1.64-.27-.36-.5-.71-1.06-1.56-.69-.23,.1-.59-.1-.89-.18-1.31-.35-2.4-1.12-3.5-1.88-.47-.32-1.07-.54-1.25-1.2-.03-.1-.15-.2-.25-.24-1.2-.49-1.86-1.56-2.48-2.57-.96-1.54-2.11-3.01-2.51-4.84-.21-.96-.8-1.86-.5-2.9-.8-2.65-.24-5.38-.4-8.06-.07-1.07,.07-2.12,.41-3.14,.06-.18,.13-.44,.05-.58-.38-.67,.05-1.1,.45-1.59-.32-.38-.54-.75-.34-1.34,.24-.73,.23-1.55,.41-2.3,.14-.58,.21-1.26,1.11-1.47-.8-.59-.6-1.18-.44-1.88,.65-2.78,1.46-5.51,2.53-8.14,.58-1.43,1.02-2.98,2.12-4.18,.22-.23,.17-.69,.32-1,.72-1.44,1.52-2.83,2.41-4.17,.27-.41,.55-.6,1.01-.68-.16-.12-.27-.21-.38-.3,.34-.78,.98,.79,1.29-.28-.14-.16-.34-.39-.55-.62,.02-.06,.03-.13,.06-.19,.14-.23,.28-.48,.45-.69,1.03-1.27,2.06-2.54,3.1-3.79,.11-.14,.32-.27,.49-.28,.59-.03,.81-.24,.7-.88-.04-.23,.26-.56,.48-.77,.98-.93,1.98-1.83,2.97-2.74,.06-.05,.13-.09,.19-.14l1.08-.77c1.02-1.39,2.51-2.22,3.85-3.24,1.8-1.36,3.89-2.14,6.06-2.68,.25-.06,.54,0,.81,0,.13,0,.29,.02,.4-.03,1.03-.46,2.07-.38,3.13-.11,.48,.12,1.05-.07,1.42,.45,.06,.09,.35,.12,.44,.06,.75-.55,1.53-.14,2.16,.1,1.38,.52,2.7,1.25,4,1.96,.65,.35,1.21,.86,1.8,1.31,.15,.12,.37,.31,.36,.46-.05,.75,.49,.79,.99,1.06,.64,.35,1.17,.95,1.67,1.51,.8,.89,1.6,1.8,2.29,2.77,.9,1.27,1.69,2.63,2.56,3.92,.28,.41,.2,.73-.06,1.13,1.28,.83,2.01,2.01,2.49,3.44,.42,1.25,1.08,2.43,1.58,3.66,.19,.46,.12,1.07,.39,1.45,.38,.54,.48,1.15,.7,1.73,.24,.66,.32,1.4,.67,1.99,.31,.53-.01,.72-.27,1.04,.61,.5,.86,1.15,1.02,1.92,.35,1.76,.81,3.49,1.25,5.32,.28-.63,.57-1.22,.82-1.83,.56-1.37,1.09-2.75,1.92-4,.29-.44,.34-1.03,.6-1.5,1.07-1.96,2.18-3.89,3.26-5.84,.3-.55,.79-.51,1.28-.5,.15,0,.3,.05,.49,.08,.13-.64-.49-.71-.74-1.05,.17-.29,.35-.58,.52-.87,.19-.34,.29-.75,.81-.76,.09,0,.21-.19,.27-.31,.15-.26,.27-.53,.4-.81-.05-.05-.09-.14-.15-.17-.36-.14-.92-.16-1.04-.4-.26-.5-.32-1.12-.39-1.7-.06-.47-.04-.96,0-1.44,.08-1.37,.73-2.5,1.69-3.4,.52-.49,1.16-.91,1.89-1.13,.42-.12,.79-.36,1.24-.11,.11,.06,.29,.05,.42,.01,1.14-.37,2.22-.12,3.16,.5,1.1,.72,2.07,1.58,2.54,2.92,.15,.42-.32,.82,.13,1.18,.4,.32,.2,.83,.19,1.25,0,.42-.09,.87-.24,1.26-.34,.89-.8,1.72-1.42,2.45-.14,.17-.37,.28-.58,.37-.64,.27-1.37,.4-1.92,.8-.86,.63-1.72,.47-2.59,.24-.43-.11-.69-.02-.9,.32-.56,.89-1.13,1.78-1.69,2.68-.02,.03,0,.09-.03,.12-.62,.68-1.13,1.41-1.45,2.31-.3,.84-.9,1.56-1.25,2.39-.46,1.08-1.32,1.67-2.54,2.23,.36,.06,.51,.12,.65,.1,.22-.02,.43-.09,.77-.17-1.75,3.43-3.24,6.81-4.06,10.47,.29,.3,.59,.62,.9,.94-.48,.31-.75,.66-.32,1.29,.44-.69,1.01-1.23,1.59-1.77,.61-.58,1.25-1.14,1.77-1.79,.65-.8,1.39-1.48,2.12-2.19,.72-.71,1.36-1.5,2.16-2.16,.74-.61,1.3-1.44,1.99-2.11,.53-.52,1.15-.96,1.73-1.43,.15-.12,.39-.18,.47-.33,.58-1.15,1.8-1.65,2.59-2.58,.22-.26,.6-.26,.8-.43,.78-.67,1.48-1.43,2.19-2.13-.34-1.5-.33-2.89,.19-4.34,.56-1.54,2.6-3.19,4.3-3.16,.16,0,.36,.05,.47-.02,.8-.48,1.54-.04,2.26,.17,1.7,.49,3.21,2.18,3.57,3.9,.12,.57,.2,1.16,.24,1.74,.04,.55,.04,1.11-.55,1.44-.08,.04-.16,.26-.13,.29,.31,.3,.17,.59-.03,.85-.38,.49-.71,1.05-1.17,1.45-.99,.88-2.23,1.26-3.51,1.44-.96,.13-1.84-.3-2.74-.57-.22-.07-.42-.2-.64-.32-1.02,.85-2.04,1.71-3.08,2.56-1,.82-1.78,1.96-3.24,2.31,.13,.59-.26,.97-.67,1.36-1.5,1.42-3.01,2.84-4.47,4.3-.66,.66-1.22,1.43-1.83,2.15-.06,.02-.12,.04-.19,.07,.03,.03,.06,.06,.09,.09,.02-.06,.04-.12,.06-.19Zm-10.05,37.92c.02,.06,.04,.12,.07,.19,.03-.03,.06-.06,.09-.09-.06-.02-.12-.04-.19-.06-.02-.06-.04-.12-.06-.18-.03,.03-.06,.06-.09,.09,.06,.02,.12,.04,.18,.06Zm8.88-.96c.02,.06,.04,.12,.07,.19,.03-.03,.06-.06,.09-.09-.06-.02-.12-.04-.19-.06-.02-.06-.04-.12-.06-.18-.03,.03-.06,.06-.09,.09,.06,.02,.12,.04,.18,.06ZM22.61,18.06c-.23,.08-.47,.15-.96,.32q.81,.09,.93-.35c.06-.02,.12-.04,.19-.07-.03-.03-.06-.06-.09-.09-.02,.06-.04,.12-.06,.19ZM93.39,50.9c.17-.07,.34-.13,.51-.2-.01-.06-.03-.12-.04-.18-.21-.02-.41-.04-.66-.06,.09,.2,.16,.34,.22,.48-.34-.06-.56,.06-.68,.39,.12,.11,.2,.18,.32,.29,.12-.25,.23-.48,.34-.71Zm-48.48,7.44c.24-.07,.48-.15,.86-.26-.23-.22-.33-.33-.56-.55-.11,.37-.19,.61-.26,.85-.06,.02-.12,.04-.19,.07,.03,.03,.06,.06,.09,.09,.02-.06,.04-.12,.06-.19Zm-20.61-1.92c.02,.14,.05,.28,.07,.42,.05-.03,.1-.05,.15-.08-.09-.1-.17-.2-.26-.31q-.05-.67-.77-.62c.32,.23,.56,.41,.8,.59Zm-2.43-41.76q.62-.54,.03-.96v1c-.06,.02-.12,.04-.19,.07,.03,.03,.06,.06,.09,.09,.02-.06,.04-.12,.06-.19Zm-1.65,39.64c-.42-.33-.78-.25-1.1,.16,.41,.22,.83,.55,1.06-.19,.14-.02,.28-.05,.42-.07-.02-.05-.05-.11-.07-.16-.11,.09-.21,.18-.32,.26Zm27.57,9.08c.33,.4,.73-.12,1.04,.05,.47,.48,.48,1.18,1,1.62-.3-.84-.09-1.62,.16-2.37-.84-.54-1.15-.53-1.62,.05-.18,.23-.36,.45-.55,.68-.06,.02-.12,.04-.19,.07,.03,.03,.06,.06,.09,.09,.02-.06,.04-.12,.06-.19Zm-2.37-31.68c.11,.07,.21,.15,.32,.22l.07-.18h-.41s0-.08,.01-.12c.16-.71,0-1.24-.46-1.31-.3-.05-.66-.04-.91,.1-.18,.1-.2,.46-.31,.7-.06,.13-.13,.25-.22,.36-.31,.39-.63,.77-.94,1.16-.02,.03,.04,.13,.08,.24h1.02c.03-.16,.06-.27,.08-.38,.09-.95,.27-1.12,1.16-.99,.18,.03,.36,.14,.54,.21Zm-11.52-8.64c.07,.18,.26,.4,.2,.52-.27,.6,.12,.92,.44,1.35,.14-.54,.27-1.02,.4-1.52,.28-.25,.91,.14,1-.51-.72-.19-1.4-.02-2.08,.19v-.35q-1.19-.31-1.04-1.3c.33-.04,.67-.08,.99-.11,.14-.42,.03-.74-.31-.83-.21-.06-.51,.08-.72,.21-.33,.2-.65,.43-.93,.69-.4,.36,.18,.72,.05,1.08-.22,.65,.47,.67,.58,.94,.52-.14,.96-.25,1.4-.37Zm9.82,20.4c.24,.13,.47,.26,.78,.43-.47,.56-.29,1.1,0,1.65,.07,.13,.18,.3,.15,.43-.1,.51-.23,1.02-.36,1.54,.62-.07,.69-.1,.62-.33-.21-.81,0-1.45,.7-1.89-.6-.87-.6-.91,0-1.6-.34-.27-.68-.55-1.04-.84-.21,.06-.48,.1-.71,.22-.09,.05-.08,.27-.11,.42-.29,.1-.7-.52-.91,.16,.31,.01,.67,.29,.88-.19Zm5.52-25.65c.08-.61-.46-.57-.77-.82-.37-.31-.67-.57-1.08-.29-.37,.25-1-.13-1.18,.57,.55,.17,1.1,.33,1.65,.5,.25-.16,.49-.32,.84-.55-.06,.33-.09,.53-.15,.88,.33-.15,.53-.24,.73-.33,.03,.79,.07,1.58,.11,2.41,.51,.09,1.02,.15,1.51,.26,.25,.06,.5,.18,.73,.32,.19,.11,.35,.28,.6,.49,.41-1.08-.55-1.63-.62-2.68-.3,1.26-.58,1.55-1.17,1.36-.14-.05-.34-.18-.35-.28-.02-.41,.02-.82,.04-1.32-.22-.17-.37-.62-.88-.51ZM17.82,51.9c-.17-.2-.3-.47-.51-.6-.18-.11-.45-.06-.66-.08-.05-.16-.1-.3-.14-.44-.07,.02-.14,.05-.2,.07,.12,.32,.24,.64,.35,.95-.17,.08-.46,.22-.83,.4,.2,.17,.3,.32,.38,.31,.36-.04,.7-.15,.46,.46-.15,.38-.08,.69,.38,.96,.44,.25,.38,.6,0,.97-.14,.13-.29,.24-.43,.36,.5-.03,.92-.2,1.25-.47,.17-.14,.33-.64,.27-.69-.89-.68-.23-1.32-.02-1.89-.13-.14-.22-.25-.32-.35,.41-.12,.82-.23,1.37-.39-.7-.29-1.17-.09-1.34,.42Zm.69,8.12c.46,.12,.97-.35,1.39,.15q.09,1.04,.5,1.78c.18-.65,.26-1.29,.54-1.82,.27-.51,.76-.91,1.16-1.37-.44,.03-.88,.06-1.4,.09-.09-.66-.2-1.23-.25-1.8-.07-.82-.34-1.04-1.37-1-.09,.36-.18,.73-.28,1.17-.7-.1-1.38-.19-2.16-.3,.06,.88-.37,1.37-1.06,1.71-.28,.13-.54,.32-.76,.53-.09,.08-.07,.28-.11,.43-.75-.17-1.08,.52-1.71,.75,.29,1.12-.83,1.74-.84,2.82,.39-.06,.83,.18,1.2-.22-.03-.36-.07-.73-.1-1.08,.74-.2,1.36-.8,2.2-.15-.16,.44-.33,.91-.5,1.37,.06,.04,.12,.08,.18,.12,.56-.53,1.13-1.05,1.68-1.57-.26-.33-.46-.6-.66-.85-.4,.14-.77,.27-1.13,.39-.53-.29-.65-.79-.67-1.23,.14-.18,.23-.29,.32-.4,.99,.15,1.8-.04,2.24-1.08,.14-.33,.44-.4,.81-.29s.75,.15,1.1,.22c.48-1.18,.56-1.21,1.13-.49-.53,.68-.5,1.71-1.4,2.14-.94,.84-.96,1.04-.12,2.13,.09-.22,.25-.43,.24-.64-.01-.51-.1-1.01-.16-1.52Zm34.08-25.88c.76-.05,.46-.53,.42-1.09-.53,.31-.96,.56-1.38,.81-.65-.38-1.2-.31-1.63,.44,.77,.05,1.42,.27,1.68,1.15-.21,.05-.36,.07-.5,.12-.52,.2-.97,.69-.84,1.12,.29,.96-.39,1.15-.93,1.51-.14,.1-.36,.2-.38,.33-.09,.56-.53,.74-.91,.98,.36,.28,.73,.57,1.09,.85,.44-.26,.87-.51,1.48-.86-.04,.56-.07,.92-.1,1.29h.98c-.44-.3-.74-.62-.67-1.18,0-.05-.16-.18-.25-.19-.53-.05-.53-.48-.65-.83,.37-.59,.89-.42,1.39-.28,.58,.16,1.15,.33,1.62-.15-.24-.61-.43-1.19-.69-1.75-.38-.84-.26-1.6,.31-2.3l-.03,.03Zm-39.04,7.56c.36-.16,.74-.36,1.13-.49,1.08-.36,1.08-.35,1.67-1.26,.13-.2,.29-.37,.38-.58,.54-1.28,.96-2.51-.02-3.86-1.18-1.62-2.6-2.36-4.62-2-.52,.09-.82,.32-1.16,.63-.26,.24-.51,.54-.82,.67-.91,.38-.92,.35-.96,1.24,0,.2-.05,.39-.05,.59-.01,1.3,.1,2.55,1.15,3.51,.37,.34,.69,.74,1,1.07,.74,.16,1.46,.31,2.28,.48Zm85.11,11.03c.21,.13,.46,.35,.52,.31,.57-.4,.91-.01,1.36,.25,1.61,.95,4.17,.27,5.07-1.35,.34-.6,.55-1.3,.71-1.98,.08-.36,.06-.88-.14-1.14-.43-.55-.78-1.12-1.04-1.76-.04-.09-.15-.17-.25-.2-1.02-.41-1.99-.91-3.17-.75-1.39,.19-2.4,1.05-2.96,2.15-.64,1.27-.48,2.69,.51,3.87,.03,.04,.01,.12,.02,.14-.21,.16-.39,.29-.63,.47Zm-3.97,15.55c.58,.27,1.07,.51,1.56,.72,1.12,.48,2.25,.68,3.4,.04,.44-.24,.91-.43,1.34-.68,.15-.09,.26-.29,.32-.46,.16-.48,.29-.97,.42-1.46,.11-.41,.28-.84,.25-1.25-.02-.33-.27-.65-.47-.95-.62-.97-1.16-2.05-2.49-2.24-1.48-.2-2.83-.04-3.88,1.2-.62,.73-.84,1.61-.97,2.47-.08,.52,.23,1.14,.48,1.66,.17,.36,.26,.65,.04,.95Zm-23.8,9.39c.3-.23,.53-.54,.83-.63,.86-.25,1.39-.89,1.95-1.48,.37-.39,.54-.86,.64-1.42,.3-1.7-.48-2.85-1.77-3.76-.31-.22-.68-.44-1.04-.47-.7-.04-1.4,.03-2.04-.63,.04,.76-.43,1-.81,1.2-.53,.28-.84,.68-1.11,1.17-.52,.93-.55,1.86-.43,2.93,.13,1.19,.7,1.72,1.67,2.06,.66,.23,1.33,.42,2.02,.63,.02,.11,.06,.26,.09,.41ZM31.41,37.98c.28-.85,1.18-1.61,1.08-2.76,.64-.38,.22-.97,.07-1.26-.66-1.25-1.69-2.13-3.11-2.48-.3-.07-.6-.14-.9-.21-.36,.22-.7,.52-1.09,.65-.72,.25-1.16,.74-1.54,1.37-1,1.68-.28,4.23,1.45,4.9,.51,.2,1,.44,1.51,.62,.2,.07,.46,.05,.66-.02,.6-.23,1.19-.51,1.87-.81Zm-2.24-28.52c-.28,.29-.53,.65-.86,.89-1.05,.77-1.54,1.8-1.38,3.07,.14,1.09,.22,2.26,1.55,2.7,.03,.01,.05,.06,.09,.08,1.2,.74,2.42,.7,3.62,.02,.26-.15,.43-.52,.79-.18,.11-.12,.32-.33,.31-.35-.25-.32-.02-.49,.16-.72,.67-.88,.56-1.91,.33-2.84-.37-1.49-1.78-2.43-3.35-2.5-.38-.02-.76-.1-1.26-.17Zm57.47,76.07c-.7-.62-1.47-1.17-2.04-1.88-.24-.3-.51-.23-.59-.21-.67,.19-1.4-.02-2.03,.39-.12,.08-.33,0-.5-.01-.54-.03-.8,.12-.78,.62,.02,.62-.24,1.14-.35,1.72-.06,.33-.1,.7,0,1.01,.28,.96,.76,1.78,1.78,2.17,.37,.14,.68,.44,1.02,.68,.2-.21,.33-.43,.72-.48,.84-.12,1.59-.55,2.03-1.28,.42-.7,.84-1.45,.42-2.33-.02-.05,.16-.19,.33-.38Zm4.52-32.59c-.15-.05-.39-.07-.57-.19-.23-.15-.4-.38-.61-.56-1.47-1.25-4.02-1.27-4.78,1.22-.36,1.2,.06,2.52,1.08,3.21,1.08,.72,2.39,.67,3.37-.16,.48-.41,.95-.85,1.1-1.51,.15-.64,.27-1.29,.42-2Zm-59.51,5.34c-.25-.36-.51-.75-.79-1.13-.59-.82-2.23-1.58-3.42-.71-.56,.41-1.19,.9-1.44,1.5-.42,.99-.34,2.04,.58,2.87,.24,.22,.35,.58,.49,.84,.78,.08,1.54,.16,2.29,.22,.17,.01,.4-.02,.51-.13,.62-.61,1.22-1.25,1.68-1.73,.04-.64,.07-1.12,.1-1.73Zm-9.64-12.78c-.16,.3-.28,.54-.41,.76-.79,1.36-.56,2.85,.71,3.74,1.75,1.23,3.81,.19,4.32-1.5,.28-.92-.11-1.83-.57-2.7-.36-.67-.97-.53-1.48-.75-.57-.25-1.06-.14-1.58,.1-.31,.14-.65,.23-1,.34Zm-.9-24.62c-.37,0-.88,.14-1.22-.03-.56-.28-.69,.49-1.15,.33-.11-.04-.36,.11-.45,.24-.61,.9-1.35,1.77-.79,3.01,.12,.26-.16,.68-.08,.98,.13,.52,.66-.15,.97,.27,.41,.56,1.1,.5,1.74,.53,1.03,.05,1.63-.6,2.13-1.3,.48-.66,.64-1.46,.25-2.28-.32-.67-.71-1.27-1.39-1.75Zm21.4,3.47c-.03-1.23-1.5-2.74-2.66-2.72-1.35,.02-2.98,1.56-2.82,2.8,.08,.63,.28,1.39,.7,1.81,.56,.56,1.41,.93,2.23,.88,1.33-.09,2.55-1.43,2.56-2.77ZM7.73,55.22c.53,1.4,.66,1.61,1.24,2.12,.85,.74,2.16,.7,3.03,0,.87-.7,1.12-1.6,.99-2.65-.13-1.02-1.74-2.3-2.69-2.05-.86,.23-1.74,.54-2.09,1.54-.12,.33-.3,.64-.49,1.05Zm74.96,15.26c.47-.21,.95-.38,1.39-.62,.82-.44,1.07-1.3,1.11-2.09,.06-1.15-1.28-2.33-2.43-2.47-1.12-.13-2.25,1.03-2.51,1.84-.27,.83,.05,2.49,1.22,2.9,.7,.25,1.08,.7,1.21,1.41,0,.04,.13,.05,.2,.08,.53-.48-.13-.73-.21-1.05Zm-9.75,17.45c-.07-.37-.11-.68-.19-.97-.36-1.34-1.85-2.12-3.08-1.62-1.01,.41-1.33,1.27-1.45,2.24-.04,.33-.04,.89,.15,1,.53,.31,.86,.89,1.54,1.03,.39,.08,.68,.14,1.1,.01,.7-.2,1.14-.6,1.5-1.17,.12-.18,.28-.34,.43-.52ZM39.52,44.44c.2-.39,.36-.66,.47-.95,.51-1.27-.43-2.67-1.79-2.64-.84,.02-1.35,.65-1.79,1.24-.29,.38-.1,.88,.08,1.35,.16,.42,.75,.79,.33,1.36,.14,.08,.31,.25,.43,.22,.76-.17,1.5-.37,2.28-.58Zm52.39,33.4c-.73,.71-1.19,1.51-.81,2.52,.21,.56,1.25,1.14,1.75,1.02,1.03-.25,1.54-.98,1.7-1.8-.33-1.64-1.33-1.98-2.64-1.74Zm-17.47-20.53c.02-.74-1.05-1.84-1.8-1.84-.66,0-1.81,1.16-1.8,1.81,.02,.76,1.07,1.76,1.88,1.78,.84,.03,1.69-.84,1.72-1.76Zm-7.34,4.7c-.54,.32-.48,.94-.43,1.35,.07,.59-.14,.69-.6,.75-.89,.12-1.5-.34-2.07-.94-.78-.82-.8-.83-.29-1.83,.03-.05,.13-.06,.23-.09,.08,.12,.16,.24,.25,.38,.22-.06,.16-.51,.58-.34,.24,.1,.57-.04,.87-.06,.37-.03,.57-.22,.62-.59,.05-.33,.12-.66,.23-1.21-.24,.3-.4,.42-.45,.58-.32,1.04-.61,1.17-1.64,.69-.09-.04-.2-.08-.29-.06-.46,.06-.92,.13-1.36,.2v1.29c-.16,.11-.34,.24-.5,.36,.08,.59,.35,.95,.86,1.16,.2,.08,.34,.3,.51,.45,.11,.09,.24,.26,.34,.24,.64-.09,1.05,.27,1.43,.71,.62-.37,1.22-.73,1.81-1.08,.66-.44-.36-1.28,.4-1.68-.18-.09-.35-.18-.52-.26Zm-31.19-26.66c-.35,.83,0,1.64-.03,2.45-.43-.02-.82-.04-1.2-.06-.17,1.04-.75,2.01,.3,2.81,.1-.09,.18-.17,.26-.25-.55-.88-.55-.9-.04-1.55,.85-.16,1.08,1.08,2.08,.8-.82-.29-.86-.84-.7-1.48,.55-.31,1.11-.64,.83-1.44-.63-.27-1.46-.27-1.5-1.28Zm3.78,15.97q.53-.44,.67-1.21c.09-.5,.32-.68,.82-.63,.44,.04,.65,.29,.61,.71-.03,.37-.1,.74-.18,1.22,1.04-.12,2.03-.23,3.16-.36-.15-.31-.21-.61-.39-.74-.21-.16-.5-.18-.81-.2-.67-.04-.87,.7-1.51,.69,0-.16,0-.31,.02-.46,.18-1.04-.19-1.71-1.11-2.01-.45-.14-.92,.11-.82,.53,.13,.56-.05,.91-.36,1.35-.2,.28-.55,.7-.1,1.12Zm67.9,19.79c-.4,0-.75-.04-1.08,0-.72,.11-1.04,.02-1.34-.51-.19-.34-.33-.7-.51-1.08,.26-.09,.47-.16,.72-.25-.23-.09-.42-.16-.68-.26,.7-.17,1.3-.31,1.91-.46-.02-.21-.03-.36-.05-.56h-1.05c-.07,.23-.13,.41-.2,.62-.35,.03-.69,.06-.84,.08-.69,.62-.53,1.17-.24,1.73,.27,.52,.55,1.03,.82,1.56,.85,.1,1.67,.08,2.43-.32,.08-.05,.07-.28,.12-.56Zm1.61-28.11c-.89,.18-1.59,.75-2.47,.27-.34-.19-.78,.01-.84,.68,.63,.27,1.28,.54,1.94,.82q-.61,1.03,.13,3.03c.16-.03,.32-.05,.52-.08-.16-.32-.33-.55-.41-.81-.2-.7-.52-1.44,.44-1.88,.09-.04,.18-.17,.21-.28,.16-.54,.3-1.1,.47-1.75Zm-42.43,6.95c.66,.39,1.07,.84,.89,1.64-.62,.05-1.21,.1-1.85,.16,.16,.89,.89,1.05,1.54,1.34,.23-.27,.39-.55,.62-.72,.85-.62,.37-1.5,.39-2.24,0-.42-.77-.21-1.15-.4-.03-.02-.08,0-.12,0-.69-.18-1.35-.31-1.74,.54-.06,.12-.35,.13-.53,.2-.05,.02-.09,.08-.15,.14,.3,.08,.58,.16,.97,.26,.02-.73,.69-.61,1.13-.91Zm34.45,29.8h-2.09c.54,.52,.78,1.15,.38,1.61-.55,.64-.26,1.01,.08,1.5q1.8-.92,1.73-2.79c0-.07-.04-.14-.09-.32ZM37.63,16.32c.19,.21,.28,.34,.4,.44,.66,.54,.65,.54,.26,1.4-.06,.14-.07,.3-.08,.46-.01,.43,0,.85,0,1.23,.53-.08,.95-.14,1.45-.21-.07-.26-.09-.49-.19-.67-.14-.25-.61-.2-.55-.67,.04-.36,.07-.66,.34-.97,.39-.46,.56-1.03,.23-1.77-.29,.12-.54,.23-.8,.34-.31,.13-.62,.25-1.05,.43Zm-18.75,30.77c-.49,.12-.76-.19-1.08-.47-.16-.14-.41-.41-.73-.14-.27,.23,0,.41,0,.61,.01,.47,0,.88,.71,.85,.24,0,.58,.4,.49,.84-.09,.46-.14,.92-.24,1.38-.05,.25-.29,.6,.1,.65,.32,.04,.37-.26,.18-.57-.05-.08,.1-.27,.16-.42,.24-.61,.49-1.23,.72-1.82-.09-.26-.18-.52-.31-.92Zm35.19,16.18c-.42-.09-.78-.17-1.29-.28,.29,.61,.54,1.15,.8,1.69-.55,.58-1.15,.49-1.69,.26-.38-.16-.5,.02-.67,.25,.04,.07,.08,.13,.11,.2,.34,1.01,.55,1.11,1.51,.65,.41-.2,.81-.42,1.31-.68-.4-.7-.48-1.38-.07-2.09Zm37.08,7.99c.51,.09,.88,.15,1.24,.21,.2,.48-.25,1.24,.45,1.46,.43,.13,1,.72,1.44,0-.23-.75-.29-1.59-1.23-1.87-.13-.04-.2-.3-.29-.45-.51,.21-.98,.4-1.61,.66ZM45.18,29.82c.53,.09,.99,.16,1.44,.24,.22,.04,.45,.17,.64,.12,.28-.07,.18-.32,.16-.55,0-.09,.29-.26,.46-.28,.19-.03,.4,.07,.72,.13-.6-.94-1.53-.46-2.15-.71-.1-.27-.17-.46-.26-.72-.41,.29-.72,.52-1.01,.73v1.04Zm-8.56-8.35c.27-.48,.5-.87,.71-1.27,.03-.05-.03-.17-.08-.24-.37-.52-.47-1.05-.17-1.65,.1-.19,.11-.43,.16-.64-.29,.44-.91,.07-1.21,.61,.02,.76,.42,1.73-.65,2.47,.49,.28,.84,.49,1.24,.72Zm26.09,48.8c0,.67-.15,1.32,.04,1.85,.26,.74,.22,1.27-.37,1.79-.36,.32-.1,.54,.21,.72,.22-.38,.78-.38,.86-1.01,.07-.55-.12-.94-.29-1.39-.12-.32-.2-.65-.31-1.05,1.16,0,.8-1.23,1.65-1.56-.35-.19-.56-.3-.81-.44-.15,.26-.24,.48-.39,.65-.15,.17-.36,.28-.58,.44ZM12.71,60.44c-.47-.15-.88-.52-1.42-.2-.23,.14-.61,.1-.77-.31-.04-.09-.38-.06-.56-.08v2.78c.49,.11,.76-.04,.86-.46,.07-.29,.19-.61,.13-.88-.08-.34,.23-.53,.3-.48,.65,.42,.88-.59,1.46-.36Zm46.88,7.14c-.39,.81-.28,1.64,.44,2.42-.03-.8-.01-1.48,.58-1.98,.19,.09,.38,.19,.58,.28,.04,.45,.08,.87,.12,1.43,.27-.19,.44-.32,.57-.4-.15-.47-.29-.88-.4-1.29-.11-.41-.18-.82-.29-1.34-.24,.41-.41,.7-.61,1.05-.3-.05-.6-.1-.99-.16Zm-26.43-28.7c-.47,.44-1.01,.54-1.02,1.22,0,.31-.5,.61-.75,.9,.12,.1,.34,.21,.47,.39,.12,.17,.15,.42,.22,.62q1.07-.22,1.07-1.17c0-.6,0-1.19,0-1.96Zm17.49,4.65c.49,.4,.93,.08,1.09-.16,.29-.41,.63-.38,1.01-.37,.57,0,.46,.58,.74,.94v-1.31c-.42-.18-.77-.32-1.23-.52,.19-.5,.36-.94,.57-1.5-.18,.08-.3,.15-.43,.2-.17,.06-.34,.09-.48,.13,.08,.44,.16,.81,.22,1.17-.83,.24-1.08,.9-1.5,1.41Zm-9.39-28.23c-.52,.54-.55,1.04-.32,1.45,.23,.41-.03,.57-.21,.81-.03,.04,0,.12,0,.2h.94c.18-.32,.35-.62,.52-.92,.66-.12,1.29-.23,2.04-.37-.89-.64-1.78,.09-2.6-.28-.08-.19-.2-.47-.37-.89Zm35.17,27.96c-.23,.81,.23,1.38,.62,1.98-.13,.08-.25,.16-.43,.28,.22,.17,.42,.32,.62,.48-.11,.07-.23,.15-.35,.24,.24,.34,.51,.5,.92,.18-.06-.14-.11-.28-.18-.45,.25-.43,1.01-.71,.5-1.52-.85,.1-1.25-.55-1.7-1.19Zm.78,30.9c-.25,.08-.52,.08-.66,.22-.26,.25-.47,.57-.66,.89-.03,.05,.13,.32,.22,.33,.34,.03,.4,.23,.53,.51,.1,.22,.5,.28,.74,.46,.09,.07,.16,.31,.11,.4-.22,.36,.1,.52,.22,.78,.43-.73,.52-1.22,.08-1.49-.86-.52-.76-1.23-.57-2.09Zm22.37-34.12c-.8,.16-1.55,.3-2.3,.45q0,.84,1.34,1.16c.41-.42,.8-.82,1.18-1.21-.1-.18-.19-.35-.22-.4Zm-4.72,37.88c.19,1.63,.59,1.83,2.42,1.37-.37-1.21-1.52-.88-2.42-1.37Zm-1.75-25.05c.82,.46,.8,.43,1.48,.12,.36-.16,.73-.41,1.19-.28,.15,.04,.31,.02,.5,.04-.05-.17-.06-.25-.09-.32-.04-.07-.1-.17-.15-.17-.57-.04-1.13-.51-1.71,0-.08,.07-.3,.05-.42,0-.58-.26-.67,.12-.79,.62Zm11.64,22.71c.54-.05,.54-.05,.67-.28,.22-.41,.42-.82,.92-1,.22-.08,.36-.38,.51-.54-.24-.64-.8-.46-1.26-.75-.29,.88-.55,1.69-.84,2.57Zm-59.15-20.3c-.22-.44-.41-.82-.63-1.26-.33,.04-.66,.07-1.01,.11,0,.42,.03,.74,0,1.06-.03,.3-.13,.58-.24,1.03,.68-.34,1.25-.62,1.89-.94Zm57.43,18.33c.29-.23,.78-.05,.82-.54-.35-.06-.73-.04-1-.2-.55-.34-.59-.42-.77-.25-.29,.28-.71,.49-.75,1.04,.39,.04,.74,.07,1.09,.1-.15,.51,.24,.62,.52,.56,.42-.09,.05-.43,.1-.71ZM40.2,36.31c-.09,.73-.16,1.37-.24,2.07,.29-.15,.55-.29,.82-.41,.32-.14,.65-.25,1.02-.4-.04-.19-.01-.47-.12-.54-.45-.27-.77-.83-1.48-.73Zm-14.75,4.81c.61-.65,.61-.66,.28-1.11-.3-.41-.59-.82-.91-1.26-.57,.8-.83-.69-1.45-.21,.3,.36,.41,.9,1.04,.93,.11,0,.31,.23,.3,.33-.1,.61,.39,.87,.74,1.32Zm24.36-6.83c-.28-.14-.42-.2-.54-.28-.14-.1-.27-.23-.41-.35-.33,.56-.63,.86-1.3,1.33,.61,.22,1.17,.42,1.81,.66,.16-.49,.29-.88,.45-1.35Zm-22.39,35.11c.26-.35,.42-.72,.71-.94,.61-.48,.63-.63,.01-1.09-.14-.11-.27-.23-.42-.36-.27,.47-.6,.84-.7,1.26-.08,.35-.26,.89,.4,1.14Zm17.49-9.82c0,.32-.04,.56,0,.78,.13,.52,.41,1.01,.04,1.56-.04,.07,.26,.37,.49,.66,.21-.57,.37-.94,.21-1.43-.18-.54,0-1.05,.65-1.22-.37-.53-.82-.35-1.4-.35Zm-11.77-31.02h.83c.19-.84,.03-1.71,.54-2.46,.09-.13,0-.4-.02-.66-1.1,.77-1.29,1.43-.9,2.77-.12,.09-.24,.19-.45,.35Zm54.4,38.08c.44,.11,.95,.29,.98,.23,.21-.43,.68-.03,.88-.33,.13-.19,.28-.37,.37-.58,.04-.08-.03-.22-.05-.32-.35-.12-.67-.23-1.02-.34-.37,.42-.72,.81-1.17,1.33Zm14.88-8.53c-.33-.27-.45-.44-.57-.45-.63-.02-.79-.37-.8-.93,0-.16-.21-.31-.37-.53-.19,1-.52,1.86-.23,2.84,.24-.97,.99-.94,1.97-.93ZM14.79,17.76c.36,.22,.63,.39,.92,.57,.5-.67,1.19-.29,1.85-.37-.19-.26-.28-.56-.46-.61-.48-.14-.99-.26-1.48-.23-.25,.01-.48,.36-.84,.64Zm57.01,46.99c-.07-.07-.15-.14-.22-.21-.4,.33-1.01,.59-1.16,1.02-.26,.72,.09,1.46,.45,2.15,.11-.5,.02-1.01,.16-1.46,.16-.53,.51-1,.78-1.49Zm-7.58-5.97c.07-.87-.59-1.29-1.42-1.82,.27,.77,.5,1.4,.71,2.01,.47,.12,.91,.25,1.37,.32,.14,.02,.3-.1,.45-.16l-.03-.2c-.33-.05-.66-.1-1.08-.16Zm36.28-17.3c.76-.06,1.29-.12,1.82-.15,.4-.02,.64-.18,.66-.61q-.97-.14-1.52-.63c-.3,.44-.59,.86-.96,1.39Zm-1.65,38.24c0-.46,.08-.8-.01-.86-.7-.47-.6-1.18-.64-1.86,0-.14-.15-.27-.33-.56-.13,.8-.23,1.39-.33,2.03,.37,.35,.75,.72,1.31,1.25Zm15.17-25.05c.22-.36,.38-.6,.57-.91-.17-.1-.31-.15-.42-.24-.45-.39-.47-.59-.19-1.28,.19-.45,.05-.68-.59-.98-.28,1.18,.15,2.21,.63,3.41ZM49.62,15.52c-.31-.45-.55-.8-.78-1.15-.42-.65-.57-.67-1.3-.1,.34,.24,.72,.38,.79,.91,.07,.54,.58,.52,1.29,.34Zm12.03,50.91c1,.19,1.76,.05,2.47-.5-.61-.68-1.35-.25-2.02-.38-.15,.29-.27,.52-.45,.88ZM2.4,51.57c-.68,.99-.37,1.94-.42,2.84,.28-.21,.54-.41,.96-.72-.14-.54-.32-1.28-.54-2.12ZM27.48,19.77c-.41-.53-.48-1.24-1.32-1.27-.62-.02-.94,.28-1.19,.81,.58-.03,1.1-.05,1.59-.08,.15,.44,.17,.94,.92,.53Zm-8.15,46.12c.71-.79,1.23-1.37,1.78-1.99-.21-.1-.44-.21-.65-.3-.53,.6-1.01,1.15-1.55,1.76,.17,.21,.3,.38,.42,.52ZM48.24,31.52c.3-.2,.51-.42,.76-.49,.29-.09,.61-.07,.93-.09v-.63c-.64,.51-1.08-.08-1.57-.19q-.65,.71-.11,1.41ZM31.9,8.19c-.49-.62,.34-1.24-.43-1.7-.37,.5-1.08,.7-1.08,1.45,.37,.41,.8,.23,1.51,.25Zm26.38,62.09c-.11-.34-.19-.59-.26-.82-.66-.2-1.07,.1-1.31,.6-.15,.32,.06,.61,.44,.78,.35-.18,.73-.37,1.12-.56Zm16.46,10.69c.54-.2,1.04-.25,1.35-.53,.36-.32,.36-.86,.17-1.44-.33,.82-1.04,.27-1.52,.62v1.35ZM45.44,20.07c.56,.82,1.21,.08,1.8,.11,.34,.02,.54-.22,.52-.66-.85-.06-1.67-.21-2.32,.54Zm-24.8,22.22c.4,.33,.73,.6,1.06,.86,.02,.02,.06,.02,.11,.03,.25-.16,.5-.32,.76-.48-.61-1.11-.76-1.14-1.93-.41Zm21.67-23.93c0,.18-.07,.34-.01,.41,.39,.52,1.24,.43,1.51,1.12,0,0,.07,0,.09,0,.32-.15,.65-.29,1.1-.5-.5-.21-.91-.04-1.17-.52-.14-.26-.61-.49-1.06-.26-.07,.04-.25-.13-.46-.25Zm4.37-6.76c-.22,.65,.19,.9,.54,1.11,.32,.19,.58-.07,.81-.29,.19-.19,.42-.34,.64-.51-.17-.23-.36-.49-.57-.79-.2,.24-.37,.45-.54,.66-.32,.39-.34,.38-.88-.17Zm13.04,37.8c-.26,.18-.44,.3-.65,.44,.57,.42,.2,1.01,.32,1.61,.36-.12,.64-.22,.92-.29,.29-.08,.6-.14,.94-.22-.03-.14-.07-.31-.13-.57-.44,.25-.83,.46-1.26,.18-.04-.35-.08-.69-.13-1.15Zm-38.66,15.94c.7,.53,1.26,.96,1.85,1.41,.11-.09,.23-.19,.36-.3-.22-.17-.42-.32-.56-.43,.05-.32,.09-.56,.12-.8-.64-.39-1.08,.19-1.77,.12Zm-1.15-48.62c.05-.6,.1-1.21,.15-1.75-.15-.19-.27-.35-.46-.61-.17,.61-.86,.74-.79,1.38,.36,.3,1.01,.31,1.1,.97Zm-4.19,31.83c.15-.16,.35-.29,.33-.39-.04-.33-.1-.68-.25-.97-.09-.17-.36-.33-.55-.32-.19,0-.45,.19-.52,.37-.06,.17,.02,.47,.15,.62,.2,.25,.5,.42,.83,.69Zm42.55-1.52c-.59,.2-.98,.28-1.31,.47-.11,.06-.15,.41-.09,.59,.15,.47,.36,.92,.56,1.39,.36,.03,.62-.13,.68-.55q-.92-.65,.16-1.9Zm10.51,48.89c-.71-.28-.59-.82-.57-1.3,.02-.43-.24-.67-.52-.85-.15-.09-.41,0-.63,.01,.06,.19,.05,.49,.18,.56,.5,.29,.66,.73,.72,1.25,.03,.22,.06,.44,.1,.77,.24-.15,.4-.24,.72-.44ZM35.79,28.59c.06,.31,.04,.56,.15,.72,.12,.18,.39,.25,.53,.42,.12,.15,.14,.37,.25,.68,.31-.57,.54-.99,.8-1.48-.58-.11-1.1-.21-1.74-.34Zm67.65,49.26h-.8c-.28,.48-.51,.89-.76,1.32q1.54-.14,1.56-1.32Zm-41.51-19.41c-.49,.16-.86,.28-1.22,.42-.08,.03-.13,.17-.22,.3,.22,.25,.43,.48,.6,.66,.5-.23,.88-.41,1.25-.59,.05-.02,.06-.13,.11-.24-.17-.19-.36-.38-.51-.55Zm-21.07-2.76c.24,0,.47,.06,.53-.01,.24-.31,.52-.64,.62-1,.06-.24-.18-.55-.29-.85-.32,.23-.59,.44-.86,.64v1.23Zm34.97-8.7c-.34,.57-1.09,.48-1.14,1.16-.03,.37-.13,.81,.39,1.03,.05-.3,.11-.59,.15-.8,.34-.19,.61-.34,.93-.52-.1-.25-.19-.49-.34-.88Zm-14.67,10.02c.75-.19,1.23-.31,1.77-.45-.04-.19-.04-.5-.12-.53-.36-.11-.25-.27-.14-.5,.05-.12-.04-.3-.07-.5-.47,.66-.88,1.22-1.43,1.98Zm13.97,33.52c-.73,0-1.37-.12-1.7,.62-.05,.11-.04,.26,0,.38,.02,.05,.19,.1,.27,.07,.47-.14,.94-.31,1.42-.47v-.6Zm14.9-16.14c-.56,.79-.57,1.56-.12,2.31,.34-.69,1.08-1.4,.12-2.31Zm-44.98-20.5c.43-.48,.79-.89,1.15-1.31q-.77-.59-1.43,.11c.08,.37,.16,.7,.27,1.19Zm-11.38,10.96c-.27,.41-.54,.82-.84,1.26,.27,.19,.45,.31,.67,.47,.33-.48,.61-.89,.9-1.32-.26-.14-.46-.25-.74-.41Zm-.99-20.83c-.06-.1-.09-.22-.17-.27-.46-.31-1.06-.25-1.52-.69-.25-.24-.84-.1-.93,.61,.42-.16,.82-.35,1.06,.21,.06,.13,.38,.19,.59,.21,.31,.02,.63-.03,.98-.06Zm32.05,9.05c-.08,.01-.15,.03-.23,.04-.2,.6-.4,1.2-.66,1.98,.58-.3,.99-.51,1.4-.73-.18-.45-.34-.87-.51-1.29Zm26.66-3.07c.55-.34,1-.61,1.45-.89-.43-.17-.85-.34-1.3-.53-.18,.19-.36,.39-.56,.6,.14,.27,.26,.51,.42,.81Zm-62.49-2.7c.42-.26,.54-.71,1.04-.81,.36-.07,.49-.48,.16-.84-1.26,.28-1.27,.31-1.2,1.64Zm6,16.54c1.1,.46,1.62-.4,2.46-.57-.18-.33-.31-.57-.58-1.07-.15,1.25-1.13,1.09-1.88,1.64Zm3.55-50.8c-.76-.43-1.42-.8-2.19-1.24,.15,.47,.26,.82,.39,1.22,.61-.24,1.16,.56,1.8,.02Zm-20.8,54.24c.54-.2,.75-.46,.55-.94-.19-.47-.38-.94-.58-1.43-.1,.11-.25,.21-.24,.29,.07,.65,.17,1.3,.27,2.09Zm39.49-2.86c-.58-.75-1.25-1.02-1.61-.64v.97c.39-1.06,1.11,.23,1.61-.32Zm-3.33-14.48c-.03-.62-.02-1.1-.1-1.55-.03-.13-.36-.31-.52-.29-.2,.03-.35,.2-.2,.52,.14,.3,.1,.67,.14,.99,.21,.1,.39,.18,.68,.32ZM43.19,13.31c-.51-.14-.76,.04-.92,.44,.26,.47,.52,.93,.77,1.39,.05-.02,.1-.04,.15-.05v-1.78Zm44.51,54.99c-.23,.71,.51,.86,.6,1.42,.45-.45,.65-.8,.3-1.28-.28-.4-.58-.23-.91-.14ZM41.03,13.05h-1.37c.02,.33,.03,.61,.06,1.03,.53-.22,.94-.37,1.33-.57,.05-.03,0-.27-.02-.47Zm55.06,36.43c-.53,.34-.96,.62-1.38,.89,1.14,.53,1.21,.5,1.73-.59-.11-.09-.23-.19-.35-.29ZM50.73,27.49c-.46,.09-.84,.17-1.31,.26,.3,.52-.33,1.04,.18,1.57,.37-.6,.72-1.17,1.13-1.83Zm7.5,45.56c-.25,.48-.46,.92-.72,1.41,.58-.11,1.25,.25,1.58-.55-.19-.12-.37-.2-.51-.33-.13-.13-.22-.32-.36-.53Zm-19.77-9.74c.92-.21,1.21-.52,1.17-1.23-.02-.41-.29-.39-.55-.32-.21,.52-.41,1.02-.62,1.55ZM69.65,14.86c.95,.18,.82-.64,1.35-.98-.47-.14-.78-.23-1.07-.31-.45,.37-.25,.81-.28,1.29Zm-13.01,36.95c.34-.24,.54-.38,.75-.53,.22-.15,.44-.3,.66-.46-.02-.04-.05-.08-.07-.12-.64,.1-1.27,.19-2.03,.31,.26,.31,.49,.57,.69,.8Zm-10.23-10.6c.06,.02,.12,.03,.18,.05,.25-.38,.51-.76,.79-1.18-.18-.17-.3-.33-.47-.41-.12-.06-.29-.01-.5-.01v1.55Zm17.67,53.31c.66,.41,1.26,.79,1.87,1.18,.08-.16,.17-.33,.29-.56-.59-.19-1.16-.45-1.5-.98-.23,.13-.4,.22-.65,.37Zm-20.83-48.16c.46-.26,.63-.57,.31-.98-.29-.38-.7-.3-1.2,.19,.28,.25,.56,.49,.89,.79Zm49.38,10.97c.08-.57-.1-.86-.52-.88-.62-.03-.63,.51-.88,1.07,.55-.07,.96-.13,1.41-.19ZM22.49,41.39c.88-.16,1.52-.28,2.23-.41q-1.15-.78-2.23,.41Zm82.12,34.64c-.43-.46-.82-.89-1.32-1.43-.11,.84,.1,1.36,.63,1.78,.25-.12,.45-.22,.7-.35Zm-12-14.83c-.48,.14-.88,.25-1.35,.38,.45,.35,.83,.64,1.35,1.04v-1.42ZM30.39,6.35c-.3-.47-.52-.83-.87-1.39-.14,.73-.23,1.25-.34,1.82,.42-.14,.74-.25,1.21-.42Zm22.78,48.36h.78v-1.14q-.84,.2-.78,1.14Zm-13.21-23.64v1.09h.75q.13-1.03-.75-1.09Zm50.64,58.37q-.92-.09-1.27,.72c.28,.1,.55,.19,.87,.3,.12-.3,.24-.61,.4-1.02Zm-29.48-18.54c-.34,.24-.71,.46-.99,.75-.09,.09,.04,.4,.06,.61,.18-.04,.4-.03,.52-.14,.24-.21,.43-.49,.65-.75-.06-.12-.15-.29-.25-.47ZM42.58,11.7c.56,.44,.93,.73,1.43,1.12,.03-.44,.17-.81,.04-.99-.32-.47-.81-.27-1.47-.13Zm13.08,20.47q.77-.38,.61-1.17c-.25,.03-.51,.06-.87,.09,.1,.4,.17,.73,.25,1.08Zm-9.84-18.55c-.15-.27-.3-.53-.48-.84-.33,.2-.6,.36-.88,.53,.14,.25,.25,.45,.36,.65,.35-.12,.67-.22,1-.33Zm36.14,61.57c-.27,.82-.21,.97,.52,1.38,.12-.24,.24-.47,.37-.72-.3-.22-.57-.42-.89-.66Zm-48.74-19.19c-.06,.54-.12,1.06-.17,1.58,.16,.07,.33,.14,.53,.23,.05-.63,.1-1.22,.15-1.85-.17,.01-.32,.02-.51,.03Zm47.38,17.61c-.83,.72-.83,.72-.22,1.71,.48-.47,.28-1.02,.22-1.71ZM3.44,54.15v.76q1.12-.46,1.01-1.1c-.32,.11-.64,.21-1.01,.34Zm80.96-11.66c-.22,.65-.11,1.11,.49,1.52,.1-.45,.17-.81,.25-1.17-.23-.11-.46-.22-.74-.34ZM15.7,19.02c-.4,.46-.32,.9-.22,1.36,.52-.19,.86-.47,.82-1.02-.17-.09-.34-.19-.59-.33Zm31.32,31.86v-1.1c-.53-.14-.79,.05-.93,.59,.31,.17,.6,.33,.93,.52Zm28.4,32.49c-.54-.01-.56-.87-1.15-.43,.12,.09,.24,.18,.43,.33-.29,.25-.57,.48-.84,.71,.67,.32,1.05-.17,1.56-.6ZM5.57,37.4c.72,.23,.81-.41,1.16-.64,.05-.03-.06-.31-.12-.57-.41,.26-.71,.45-1.05,.66,.19,.13,.3,.2,.42,.28-.14,.09-.23,.15-.41,.27Zm4.46-16.33c-.25,.15-.41,.25-.6,.37,.24,.42,.14,1.04,.98,1.05-.13-.47-.24-.9-.38-1.42ZM89.91,63.96c.45-.26,.98,.2,1.38-.4-.39-.15-.69-.31-1.02-.38-.45-.09-.51,.19-.36,.78Zm-48.67-11.06c-.3-.28-.46-.43-.61-.57-.36,.33-.65,.6-1.03,.94,.67,.39,1.01-.2,1.63-.37Zm23.21,23.67h.69c.06-.25,.13-.44,.16-.64,.07-.52-.18-.61-.62-.46-.08,.36-.15,.69-.23,1.1Zm-20.56-14.53c-.67-.28-.83,.45-1.55,.49,.57,.2,.91,.31,1.25,.43,.12-.37,.21-.63,.3-.92Zm3.53-35.19c-.37,.14-.69,.26-1.07,.4,.27,.25,.49,.45,.69,.64,.44-.2,.62-.45,.38-1.04Zm-38.98,6.37q-1.18-.08-1.75-.5c.33,.98,.84,1.16,1.75,.5Zm39.27,9.78c.25-.42,.47-.79,.71-1.18-.09-.08-.21-.17-.37-.3-.22,.28-.43,.53-.68,.84,.07,.13,.19,.35,.35,.64Zm-5.49-10.2c-.64,.55-.79,.83-.59,1.16,.07,.11,.37,.09,.59,.13v-1.29Zm17.23,10.71c.55-.27,.9-.44,1.33-.65-.33-.2-.6-.38-1.01-.63-.1,.42-.18,.73-.32,1.28ZM8.24,27.48c-.19-.35-.37-.69-.56-1.05-.67,.48,.05,.94-.27,1.47,.38-.19,.58-.29,.83-.42ZM46.24,11.68c.13-.31,.27-.66,.43-1.04-.36,.1-.46-.66-1.01-.43,.21,.53,.4,1.02,.58,1.47Zm23.62,53.27c.05-.63-.29-.91-.97-1.14,.14,.5,.24,.84,.32,1.14h.64Zm-45.74-11.57c.53,.07,.89,.11,1.4,.18-.1-.39-.17-.65-.26-1-.4,.29-.7,.5-1.14,.82Zm13.27-22.25c-.16,.63-.29,1.15-.47,1.87,.89-.95,.91-1.03,.47-1.87Zm38.1,55.11c.04-.37,.07-.64,.1-.9-.2-.1-.37-.2-.55-.29-.23,.26-.37,.57-.11,.88,.12,.14,.35,.19,.56,.3Zm18.74,2.81q-.97-.28-1.25,.42c.48,.2,.78-.13,1.25-.42ZM19.65,41.35c-.5-.03-.98-.15-1.12,.53q.77,.16,1.12-.53Zm35.9,26.07c-.3-.26-.62-.54-.95-.82,.04-.07,.08-.14,.11-.22,.1,.43,.21,.85,.32,1.3,.27-.14,.47-.25,.51-.27Zm21.34,4.49c.35,.22,.66,.42,.99,.63,.29-.49,.12-.77-.31-.99-.22,.12-.44,.24-.68,.36Zm19.76,9.68c-.48-.18-.84-.31-1.31-.48,.03,.32,.04,.52,.06,.73,.44,.02,.81,.13,1.25-.25Zm-49.61-20.66c.07,.47,.12,.74,.16,1.03,.39-.26,.69-.45,.97-.63-.28-.1-.61-.21-1.13-.39Zm-12.28-1.63c-.3-.32-.5-.53-.81-.85v1.46c.3-.23,.47-.36,.81-.61Zm45.89,18.33c-.14-.45-.22-.71-.31-1-.27,.2-.53,.39-.95,.69,.46,.11,.78,.19,1.26,.31Zm-23.79-5.53c-.64-.24-1.07-.4-1.6-.6q.41,.8,1.6,.6Zm.09,3.01c-.35-.33-.6-.25-.85,0-.22,.23-.12,.42,.08,.59,.05,.04,.12,.05,.22,.1,.18-.23,.36-.46,.55-.69Zm39.55-35.29c-.12-.7-.32-.84-.67-.54-.13,.11-.25,.26-.36,.4-.02,.03,0,.1,0,.14h1.04Zm-20.52,47.32c-.09,.3-.17,.59-.27,.91h.83c-.19-.31,.15-.8-.56-.91Zm8.41-45.14c-.32-.27-.52-.45-.87-.75,.05,.55,.08,.89,.13,1.43,.32-.3,.48-.44,.74-.68Zm-5.42,4.52c-.34,.08-.51,.13-.7,.17,.13,.39,.23,.7,.36,1.09,.14-.18,.29-.29,.32-.42,.05-.22,.01-.45,.01-.84ZM13.94,52.52h1.4c-.43-.22-.82-.43-1.28-.68-.04,.23-.07,.41-.12,.68Zm76.13,19.6c0,.09-.01,.18-.02,.27,.36,.1,.72,.2,1.07,.29,.01,0,.05-.06,.1-.13,0-.11-.02-.26-.03-.43h-1.12ZM14.61,22.79c-.63,.34-1.01,.55-1.48,.8,.32,.17,.52,.27,.71,.37,.21-.32,.41-.63,.77-1.18Zm76.58,42.66q.88,.29,.94-.6c-.35,.22-.64,.41-.94,.6ZM40.77,20c.19,.17,.31,.29,.43,.39,.55-.41,.32-.88,.31-1.39-.26,.35-.46,.63-.74,1Zm46.17,57q.49,.43,1.12-.05c-.4-.65-.75-.15-1.12,.05Zm-25.95-.42c0-.31,.04-.47-.01-.62-.04-.12-.16-.28-.27-.3-.12-.02-.34,.06-.39,.15-.06,.11-.03,.34,.06,.43,.13,.13,.34,.19,.61,.32ZM38.47,6.46c.51,.12,.8-.02,.88-.36,.03-.13-.19-.33-.35-.59-.21,.38-.36,.64-.53,.95Zm56.08,77.61c.04-.48-.09-.65-.44-.62-.31,.03-.62,.03-.93,.05l-.04,.13c.44,.14,.87,.27,1.41,.44Zm-17.53-34.14c.02-.2,.03-.38,.05-.63-.24-.02-.42-.06-.61-.06-.17,0-.33,.04-.5,.06,0,.06-.02,.11-.03,.17,.34,.14,.69,.29,1.09,.45Zm-46.49-3.45c.45,.47,.46,.47,1.26,.05-.46-.22-.84-.24-1.26-.05Zm16.89-11.68q-.92-.57-1.47,0h1.47Zm2.7,17.07c.21,.06,.47,.14,.8,.23-.14-.53-.25-.92-.35-1.3-.15,.36-.28,.68-.45,1.07Zm-7.1,8.83c.04-.36,.61-.66,.23-.95-.13-.1-.45,.06-.72,.1,.2,.34,.34,.59,.49,.85Zm11.86-13.57c-.27,.38-.09,.65,.23,.88q.43-.53-.23-.88Zm-6.63-9.92c-.38,.25-.64,.43-.95,.64,.66,.33,.83,.23,.95-.64Zm7.62,12.71c.04-.07,.08-.14,.12-.21-.18-.17-.36-.33-.57-.53-.15,.28-.25,.48-.38,.74h.84Zm3.31-8.55c-.41,.32-.48,.61-.12,.94,.49-.28,.66-.55,.12-.94Zm10.7,21.24h1.11c-.36-.24-.65-.42-1.01-.66-.03,.23-.06,.43-.1,.66ZM22.49,30.24c.29-.59-.13-.69-.43-.81-.09-.04-.26,.15-.48,.28,.35,.21,.61,.36,.91,.54Zm59.41,24.18c-.04-.54-.06-.8-.08-1.12-.27,.06-.46,.1-.79,.17,.3,.32,.49,.54,.87,.95Zm-39.97,1.44c-.18,.57-.23,.97,.24,1.23,.11-.2,.2-.37,.31-.58-.15-.18-.32-.39-.55-.66Zm-4.03,.18c-.12,.36-.23,.68-.32,.91-.06-.03,.11,.05,.28,.14,.35-.23,.47-.51,.04-1.05ZM3.19,47.59c.31-.07,.5-.11,.84-.19-.33-.32-.54-.52-.84-.82v1.01Zm19.81,9.75c-.13-.47-.27-.86-.9-.5,.18,.46,.43,.65,.9,.5Zm4.29-33.3c-.23,.24-.4,.42-.58,.61,.26,.12,.43,.2,.6,.28q.3-.4-.02-.9Zm7.24-6.98c.2-.66-.21-.86-.57-1.16q.02,.63,.57,1.16Zm1.99,43.59q.55-.58,.07-1.21c-.03,.5-.05,.86-.07,1.21ZM46.12,15.37c-.4,.31-.69,.54-1.05,.82q.7,.14,1.05-.82Zm29.34,30.91c.47-.13,.86-.27,.5-.9-.46,.18-.65,.43-.5,.9Zm-14.46,16.86c-.39,.3-.74,.46-.67,.96q.52-.24,.67-.96Zm-13.45-40.95c-.48-.41-.93,.09-1.36,.03,.44,.12,.87,.5,1.36-.03Zm31.12,48.36c0-.42,.08-.7-.02-.79-.11-.1-.38-.02-.78-.02,.31,.31,.48,.49,.8,.81Zm-37.76-24.62q-.01,.7,.37,1.05c.05-.39,.17-.77-.37-1.05ZM19.45,28.16c.54-.11,.75-.35,.97-.72-.54-.09-.83,.04-.97,.72Zm.39,22.37c.1-.05,.21-.1,.31-.14-.03-.2,0-.46-.11-.59-.08-.08-.36,.03-.55,.05-.04,.08-.08,.16-.12,.24,.16,.15,.32,.29,.47,.44Zm-7.91-29.45c.25,.24,.43,.42,.69,.66q.09-.79-.69-.66Zm75.72,62.1c.17,.24,.32,.44,.48,.68,.38-.46,.19-.73-.13-.98-.09,.07-.18,.15-.35,.3ZM71.77,13.59q.71,.42,.92-.37c-.32,.13-.57,.23-.92,.37Zm4.94,79.87q-.07,.72,.69,.4c-.27-.16-.48-.28-.69-.4ZM20.19,33.71c-.1-.1-.21-.21-.3-.31-.24,.15-.41,.26-.59,.37,.33,.5,.6,.35,.89-.06Zm13.81-2.23c.14-.21,.26-.38,.48-.7-.39,.04-.61,.06-.98,.1,.23,.27,.34,.41,.5,.6Zm41.4-14.36c.07-.07,.15-.14,.22-.21-.04-.34-.21-.53-.87-.53,.32,.36,.48,.55,.65,.74ZM26.69,54.04c.56-.31,.51-.7,.37-1.21-.16,.3-.28,.49-.37,.7-.04,.1,0,.23,0,.51Zm73.87-11.2h-1.14c.41,.17,.77,.32,1.14,.47v-.47Zm-21.84,12.82c0-.11,0-.21-.01-.32-.29-.1-.58-.21-.87,.32h.88Zm29.24,11.92c.5,.18,.78,.58,1.21,.28-.23-.46-.62-.41-1.21-.28Zm-14.59-25.7q.4,.47,.95,0h-.95Zm-59.88,27.92c-.41-.63-.64-.09-.89-.12,0,0-.03,.1-.06,.21,.3-.03,.56-.05,.95-.09Zm52.38,2.11c.13-.16,.21-.26,.29-.36-.12-.07-.24-.2-.35-.19-.11,0-.21,.15-.31,.24,.1,.09,.2,.18,.37,.32Zm.97-47.94c.27,.11,.57,.31,.64,.25,.34-.3-.04-.43-.25-.65-.11,.11-.22,.22-.39,.4Zm-27.3,24.29q-.35-.74-.71-.34c.22,.11,.43,.21,.71,.34Zm35.25,7.44c-.08-.31,.56-.59-.2-.9,.12,.31-.48,.59,.2,.9Zm-57.56,10.17c-.2-.36-.33-.59-.56-.99-.19,.64,.02,.82,.56,.99Zm62.97-10.17c-.13-.19-.2-.3-.28-.42-.09,.09-.25,.18-.26,.28-.01,.12,.1,.25,.16,.38,.11-.07,.22-.14,.38-.24Zm-17.99-13.81c-.16-.13-.26-.21-.36-.29-.07,.12-.2,.24-.19,.35,0,.11,.15,.21,.24,.31,.09-.1,.18-.2,.32-.37ZM13.02,23.17c-.22-.12-.39-.21-.55-.3-.07,.19-.14,.38-.25,.7,.35-.17,.54-.27,.8-.4Zm88.88,19.65c-.21,.38-.09,.65,.28,.85,.22-.38,.09-.65-.28-.85ZM36.38,61.63c-.41-.63-.64-.09-.89-.12,0,0-.03,.1-.06,.21,.3-.03,.56-.05,.95-.09Zm-22.21-11.38c.3-.2,.66-.48,.36-1.04-.14,.42-.25,.73-.36,1.04Zm-6.84-6.28c.06-.07,.12-.13,.18-.2-.12-.17-.24-.33-.39-.53-.14,.15-.23,.26-.36,.41,.22,.12,.39,.22,.57,.32Zm73.98,52.89c-.07-.04-.14-.07-.21-.11-.23,.26-.23,.6-.08,.99l.29-.88ZM18.55,44.85c-.18,.16-.34,.26-.43,.41-.02,.04,.16,.21,.25,.32,.12-.13,.26-.24,.35-.39,.03-.04-.09-.17-.18-.34Zm-9.57-1.33v.88c.55-.34,.5-.61,0-.88Zm34.04-7.31c.18-.39,.28-.6,.41-.89q-.6,.3-.41,.89Zm51,39.45q-.63,.47-.22,.86c.07-.27,.14-.54,.22-.86ZM25.57,25.52c.15-.31,.23-.5,.37-.79-.32,.05-.5,.08-.78,.13,.15,.24,.24,.39,.41,.66Zm50.09,70.94c-.1-.07-.19-.14-.29-.22-.12,.22-.25,.45-.37,.67l.19,.12c.16-.19,.32-.39,.47-.58Zm6.74-22.97c.41,.18,.64,.28,1.04,.45-.27-.48-.36-.85-1.04-.45ZM49.2,26.01c.37,.32,.55,.07,.68-.15,.03-.05-.15-.22-.27-.4-.16,.21-.28,.38-.41,.55Zm31.53,46.97c-.33-.35-.47-.69-1.07-.68,.34,.35,.47,.69,1.07,.68Zm3.61-32.85c-.27-.33-.4-.59-.63-.27-.07,.1-.06,.26-.08,.39,.19-.03,.38-.06,.71-.12Zm-63.91,11.55c.58-.42,.57-.69,.05-.97-.01,.29-.03,.55-.05,.97ZM41.59,12.43c-.1,.16-.17,.27-.24,.38,.12,.06,.26,.18,.37,.17,.1-.01,.19-.17,.28-.26-.11-.08-.23-.16-.41-.29Zm40.06,14.58c.43,.07,.72,0,.64-.6-.26,.25-.45,.42-.64,.6Zm-18.48,28.63s.1,.04,.15,.05l.28-.55c-.1-.04-.2-.07-.3-.11-.04,.2-.09,.4-.13,.61ZM29.96,23.83c-.05,.02-.1,.03-.15,.05,.05,.2,.09,.4,.14,.61,.1-.04,.2-.08,.3-.11-.1-.18-.19-.36-.29-.54Zm39.8,74.78c-.29-.19-.41-.35-.51-.33-.1,.02-.18,.2-.27,.31,.11,.09,.21,.24,.33,.25,.12,0,.26-.12,.45-.23Zm2.57-86.09c.02,.09,.05,.17,.07,.26,.19-.07,.37-.14,.55-.23,0,0-.06-.19-.06-.19-.19,.04-.37,.1-.56,.16Zm-1.51,34.16s-.1-.04-.15-.05c-.09,.18-.19,.36-.28,.54,.1,.04,.2,.07,.3,.11,.05-.2,.09-.4,.14-.6ZM9.79,29.4c-.27-.07-.54-.14-1.06-.28,.4,.54,.72,.44,1.06,.28Zm93.52,26.36c.26,0,.53,.8,.8,0h-.8Zm-26.95-13.35c-.43-.22-.7-.13-1,.42,.42-.18,.69-.29,1-.42Zm14.04,5.38c.13-.3,.24-.56,.44-1.02-.54,.32-.67,.58-.44,1.02Zm-29.68,17.65q-.32-.28-.64,0,.32,.28,.64,0Zm-8.52-33.53c-.57,.13-.81,.27-.73,.93,.27-.35,.43-.55,.73-.93Zm-2.25-.11l-.15-.05c-.09,.18-.19,.37-.28,.55,.1,.04,.2,.07,.3,.11,.04-.2,.09-.4,.13-.61Zm51.7,40.26c.03-.08,.06-.17,.09-.25-.19-.06-.37-.12-.56-.16,0,0-.07,.18-.07,.19,.18,.08,.36,.16,.54,.23ZM39.49,10.59q.43,.37,1.06,.27c-.52-.13-.79-.2-1.06-.27Zm12.24,35.06s-.04,.1-.06,.15c.18,.09,.36,.19,.54,.28,.04-.1,.08-.2,.12-.3-.2-.04-.4-.09-.6-.13Zm-29.99,17.79c.26,.15,.52,.66,.82,0h-.82Zm45.85,14.74h-.92c.34,.45,.57,.44,.92,0Zm13.66-50.77s-.04,.1-.06,.15c.18,.09,.36,.19,.54,.28,.04-.1,.08-.2,.12-.3-.2-.04-.4-.09-.6-.13ZM34.37,60.9c-.08-.03-.17-.06-.25-.08-.05,.19-.11,.38-.15,.57,0,0,.18,.07,.19,.06,.08-.18,.15-.36,.21-.55Zm58.95-14.54c-.02-.09-.04-.18-.06-.26-.19,.07-.38,.14-.56,.22,0,0,.06,.19,.07,.18,.19-.04,.37-.09,.55-.14Zm-51.4,14.68c-.37-.02-.54-.07-.67-.02-.14,.06-.25,.21-.37,.32,.03,.05,.07,.1,.1,.14,.25-.12,.49-.23,.94-.44Zm30.23,21.33q-.07,.49,.31,.66c-.11-.24-.2-.43-.31-.66ZM7.91,22.82c-.06,.07-.11,.14-.17,.2,.2,.09,.4,.19,.6,.28,.02-.05,.05-.09,.07-.14-.17-.12-.33-.23-.5-.35Zm9.23-8.18c.05-.03,.1-.06,.15-.09-.02-.1-.01-.22-.07-.3-.06-.1-.17-.17-.26-.25-.05,.04-.09,.08-.14,.12,.1,.17,.21,.34,.31,.51Zm26.53,42.22c-.02-.06-.04-.12-.06-.18-.17,.05-.35,.1-.52,.15,.04,.06,.1,.18,.13,.17,.15-.03,.3-.09,.45-.14Zm-4.45-25.9c.05-.03,.1-.06,.15-.09-.02-.1-.01-.22-.07-.3-.06-.1-.17-.17-.26-.25-.05,.04-.09,.08-.14,.12,.1,.17,.21,.34,.31,.51Zm56.86,15.68c-.1-.11-.17-.23-.24-.24-.08,0-.17,.1-.25,.16,.06,.08,.11,.22,.18,.24,.07,.02,.17-.08,.31-.16ZM44,9.83c-.14-.07-.24-.17-.31-.15-.07,.02-.18,.16-.17,.23,.01,.07,.15,.18,.23,.17,.07,0,.14-.13,.25-.24Zm24.14,88.19s-.08,0-.11,0v.83s.08,0,.11,0v-.83Zm27.7-21.47c-.11,.1-.23,.17-.24,.24,0,.08,.1,.17,.16,.25,.08-.06,.22-.11,.24-.18,.02-.07-.08-.17-.16-.31ZM17.36,32.39c-.14-.07-.24-.17-.31-.15-.07,.02-.18,.16-.17,.23,.01,.07,.15,.18,.23,.17,.07,0,.14-.13,.25-.24Zm86.31,27.52s-.08-.01-.12-.02v.76s.08,0,.12,0v-.74Zm-38.17,27.29c-.06,.02-.12,.04-.18,.06,.05,.17,.1,.35,.15,.52,.06-.04,.18-.1,.17-.13-.03-.15-.09-.3-.14-.45ZM14.85,45.72s-.07,0-.1,0v.8s.07,0,.1,0v-.8ZM34.41,7.71c.38-.06,.52-.05,.64-.1,.1-.05,.15-.17,.23-.25-.05-.05-.09-.09-.14-.14-.17,.12-.34,.23-.73,.5ZM6.93,49.73c.19-.34,.29-.44,.27-.51-.02-.08-.15-.12-.23-.19-.06,.08-.16,.16-.17,.25-.01,.1,.06,.21,.14,.45Zm11.59-16.26c-.34-.19-.44-.29-.51-.27-.08,.02-.12,.15-.18,.23,.08,.06,.16,.16,.25,.17,.1,.01,.21-.06,.45-.14Zm21.88,28.61s.08,.01,.12,.02v-.76s-.08,0-.12,0v.74Zm11.43-10.96h.7q-.28-.34-.7,0Zm-21.04,17.28v.7q.34-.28,0-.7Zm44.64-13.43q.38-.34-.04-.6c.01,.21,.03,.39,.04,.6Zm-32.45-17.34c.03,.09,.06,.17,.1,.26,.19-.09,.38-.18,.57-.27-.01-.04-.02-.07-.03-.11-.21,.04-.42,.09-.63,.13Zm-18.06-15.16l-.24-.12c-.06,.21-.13,.41-.19,.62l.11,.04c.1-.18,.21-.36,.31-.54Zm-8.16,22.08l-.24-.12c-.06,.21-.13,.41-.19,.62,.04,.01,.08,.03,.12,.04,.1-.18,.21-.36,.31-.54Zm32.09,6.14c.06-.15,.11-.27,.1-.28-.1-.06-.21-.11-.32-.15,.07,.13,.13,.25,.22,.44Zm-6.69,12.18c0-.06,0-.12-.01-.19-.17,.03-.34,.05-.51,.08,0,.04,0,.07,0,.11h.51ZM20.31,31.25s-.05,.09-.07,.14c.12,.07,.24,.14,.37,.21,.01-.07,.06-.19,.04-.2-.1-.07-.22-.1-.34-.15Zm10.55,23.04s-.04,.1-.06,.14l.38,.2c.01-.07,.05-.19,.03-.21-.1-.06-.23-.09-.34-.14Zm31.64,.41h.12v-.6h-.12v.6ZM22.89,32.33c.06,0,.13,0,.19-.01-.03-.17-.06-.34-.09-.51-.03,0-.07,0-.1,.01v.51Zm22.21,.65h-.12v.6h.12v-.6Zm13.68,38.16s-.07,0-.11,0v.6s.07,0,.11,0v-.6ZM26.33,8.66c-.06,.15-.11,.27-.1,.28,.1,.06,.21,.11,.32,.16-.07-.13-.13-.25-.22-.44Zm-.48,22.53c0-.06,0-.13-.01-.19-.17,.03-.34,.06-.51,.09,0,.03,0,.07,.01,.1h.51Zm36.84,22.39c-.06-.08-.11-.17-.19-.23-.04-.03-.13,.03-.2,.05,.08,.11,.15,.21,.23,.32,.05-.04,.09-.08,.17-.14Zm-6.95-.27c-.08,.06-.17,.11-.23,.19-.03,.04,.03,.13,.05,.2,.11-.08,.21-.15,.32-.23-.04-.05-.08-.09-.14-.17ZM23.02,29.86s-.07,0-.11,0v.6s.07,0,.11,0v-.6Zm20.99,8.23c.06,0,.13,0,.19-.01-.03-.17-.06-.34-.09-.51-.03,0-.07,0-.1,.01v.51Zm16.2,.04c-.04-.06-.1-.15-.11-.15-.09,.04-.18,.09-.27,.14,.04,.08,.09,.16,.13,.23,.08-.08,.16-.15,.25-.23Zm-21.11,.61h-.12v.6h.12v-.6Zm23.84,29.36s.1,.04,.14,.06l.2-.38c-.07-.01-.19-.05-.21-.03-.06,.1-.09,.23-.14,.34Zm1.74,6.99c.06-.04,.15-.1,.15-.11-.04-.09-.09-.18-.14-.27-.08,.04-.16,.09-.23,.13,.08,.08,.15,.16,.23,.25Zm-52.89-7.97c.15,.06,.27,.11,.28,.1,.06-.1,.11-.21,.15-.32-.13,.07-.25,.13-.44,.22ZM38.7,10.83c-.08,.06-.17,.11-.23,.19-.03,.04,.03,.13,.05,.2,.11-.08,.21-.15,.32-.23-.04-.05-.08-.09-.14-.17Zm-15.2,46.63s-.07,0-.11,0v.6s.07,0,.11,0v-.6Zm12.25,8.92c-.06,0-.12,0-.19,.01l.08,.51s.07,0,.11,0v-.51Zm19.68-1.2c-.06,0-.13,0-.19,.01,.03,.17,.06,.34,.09,.51,.03,0,.07,0,.1-.01v-.51Zm-19.94-7.01s-.07,0-.11,0v.6s.07,0,.11,0v-.6Zm-1.63-15.31l-.14-.07c-.07,.12-.14,.24-.21,.37,.07,.01,.19,.06,.2,.04,.07-.1,.1-.22,.15-.34Zm49.99,49.26s.07,0,.11,0v-.6s-.07,0-.11,0v.6ZM47.09,52.44s.09,.09,.14,.14c.11-.1,.21-.21,.32-.31-.05-.05-.1-.1-.15-.15-.1,.11-.21,.21-.31,.32Zm33.61-8.35c-.15-.06-.27-.11-.28-.1-.06,.1-.11,.22-.15,.32,.13-.07,.25-.13,.44-.22Zm-1.46,8.01c.06,.08,.11,.17,.19,.23,.04,.03,.13-.03,.2-.05-.08-.11-.15-.21-.23-.32-.05,.04-.09,.08-.17,.14Zm-8.28,39.15s-.05,.09-.07,.14c.12,.07,.24,.14,.37,.21,.01-.07,.06-.19,.04-.2-.1-.07-.22-.1-.34-.15Zm33.42-32.59s-.07,0-.11,0v.6s.07,0,.11,0v-.6Zm-16.97,5.34s.09,.05,.14,.07c.07-.12,.14-.24,.21-.37-.07-.01-.19-.06-.2-.04-.07,.1-.1,.22-.15,.34Zm-26.15-19.33c-.08,.06-.17,.11-.23,.19-.03,.04,.03,.13,.05,.2,.11-.08,.21-.15,.32-.23-.04-.05-.08-.09-.14-.17Zm-28.65,6.9c-.04-.06-.1-.15-.11-.15-.09,.04-.18,.09-.27,.14,.04,.08,.09,.16,.13,.23,.08-.08,.16-.15,.25-.23Zm-7.93-30.88l-.14,.14,.31,.32c.05-.05,.1-.1,.15-.15-.11-.1-.22-.2-.32-.3Zm9.98-.42s0,.07,0,.11h.6s0-.07,0-.11h-.6Zm41.52,69.12s0,.07,0,.11h.6s0-.07,0-.11h-.6ZM46.11,13.7c.06,.08,.11,.18,.19,.23,.04,.03,.13-.03,.2-.05-.08-.11-.15-.21-.23-.32-.05,.04-.09,.08-.17,.14Zm50.06,58.77c0-.06,0-.12-.01-.19-.17,.03-.34,.05-.51,.08,0,.04,0,.07,0,.11h.51Zm-25.11-22.64l-.14-.07c-.07,.12-.14,.24-.21,.37,.07,.01,.19,.06,.2,.04,.07-.1,.1-.22,.15-.34ZM11.43,17.57s-.04,.1-.06,.14l.38,.2c.01-.07,.05-.19,.03-.21-.1-.06-.23-.09-.34-.14Zm10.82-1.95c-.06,.15-.11,.27-.1,.28,.1,.06,.21,.11,.32,.16-.07-.13-.13-.25-.22-.44ZM59.31,61.94c.06,.08,.11,.17,.19,.23,.04,.03,.13-.03,.2-.05-.08-.11-.15-.21-.23-.32-.05,.04-.09,.08-.17,.14Zm11.3-46.28c-.06-.08-.11-.18-.19-.23-.04-.03-.13,.03-.2,.05,.08,.11,.15,.21,.23,.32,.05-.04,.09-.08,.17-.14Zm13.41,33.37s-.09,.08-.13,.12c.07,.02,.13,.07,.2,.06,.04,0,.08-.07,.12-.11-.07-.03-.13-.05-.18-.07Zm-40.8-.72s-.09,.08-.13,.12c.07,.02,.13,.07,.2,.06,.04,0,.08-.07,.12-.11-.07-.03-.13-.05-.18-.07Zm35.76,39.12s-.09,.08-.13,.12c.07,.02,.13,.07,.2,.06,.04,0,.08-.07,.12-.11-.07-.03-.13-.05-.18-.07Zm-27.52-39.52c.05,.04,.1,.11,.14,.11,.07,0,.13-.04,.2-.06-.04-.04-.08-.12-.12-.12-.06,0-.13,.04-.22,.07Zm39.28,37.12s-.09,.08-.13,.12c.07,.02,.13,.07,.2,.06,.04,0,.08-.07,.12-.11-.07-.03-.13-.05-.18-.07Zm-12.51,3.71c-.05-.04-.1-.11-.14-.11-.07,0-.13,.04-.2,.06,.04,.04,.08,.12,.12,.12,.06,0,.13-.04,.22-.07Zm-1.45-27.92h-.09v.37h.09v-.37Zm15.13,23.6c-.05-.04-.1-.11-.14-.11-.07,0-.13,.04-.2,.06,.04,.04,.08,.12,.12,.12,.06,0,.13-.04,.22-.07Zm5.79-37.79s-.09,.08-.13,.12c.07,.02,.13,.07,.2,.06,.04,0,.08-.07,.12-.11-.07-.03-.13-.05-.18-.07Zm-29.79,37.58v-.09h-.37v.09h.37Zm22.83-34.51s-.08-.09-.12-.13c-.02,.07-.07,.13-.06,.2,0,.04,.07,.08,.11,.12,.03-.07,.05-.13,.07-.18Zm-36-3.36s-.08-.09-.12-.13c-.02,.07-.07,.13-.06,.2,0,.04,.07,.08,.11,.12,.03-.06,.05-.13,.07-.18Zm21.33,16c-.05-.04-.1-.11-.14-.11-.07,0-.13,.04-.2,.06,.04,.04,.08,.12,.12,.12,.06,0,.13-.04,.22-.07ZM45.38,19.28c-.02-.07-.05-.13-.07-.2-.04,.04-.12,.08-.12,.12,0,.06,.04,.13,.07,.2,.04-.04,.08-.08,.13-.12Zm-10.88,.37c.03-.08,.07-.14,.07-.21,0-.04-.07-.08-.11-.12-.03,.07-.07,.13-.07,.19,0,.04,.07,.09,.11,.13Zm-17.12,30.41c.05,.04,.1,.11,.14,.11,.07,0,.13-.04,.2-.06-.04-.04-.08-.12-.12-.12-.06,0-.13,.04-.22,.07Zm45.36-4.56c.05,.04,.1,.11,.14,.11,.07,0,.13-.04,.2-.06-.04-.04-.08-.12-.12-.12-.06,0-.13,.04-.22,.07ZM42.45,12.57h-.09v.37h.09v-.37Zm8.89,32.48c-.05-.04-.1-.11-.14-.11-.07,0-.13,.04-.2,.06,.04,.04,.08,.12,.12,.12,.06,0,.13-.04,.22-.07ZM14.86,55.14c-.05-.04-.1-.11-.14-.11-.07,0-.13,.04-.2,.06,.04,.04,.08,.12,.12,.12,.06,0,.13-.04,.22-.07ZM43.54,21.02c.05,.04,.1,.11,.14,.11,.07,0,.13-.04,.2-.06-.04-.04-.08-.12-.12-.12-.06,0-.13,.04-.22,.07Zm11.36,30.79c.03-.08,.07-.14,.07-.21,0-.04-.07-.08-.11-.12-.03,.07-.07,.13-.07,.19,0,.04,.07,.09,.11,.13ZM24.9,21.81c.03-.08,.07-.14,.07-.21,0-.04-.07-.08-.11-.12-.03,.07-.07,.13-.07,.19,0,.04,.07,.09,.11,.13Zm15.16,37.41c-.05-.04-.1-.11-.14-.11-.07,0-.13,.04-.2,.06,.04,.04,.08,.12,.12,.12,.06,0,.13-.04,.22-.07Zm17.16,20.12c.05,.04,.1,.11,.14,.11,.07,0,.13-.04,.2-.06-.04-.04-.08-.12-.12-.12-.06,0-.13,.04-.22,.07Zm.84-34.76c-.05-.04-.1-.11-.14-.11-.07,0-.13,.04-.2,.06,.04,.04,.08,.12,.12,.12,.06,0,.13-.04,.22-.07Zm-7.81-22.63v.09h.37v-.09h-.37Zm40.82,69.71h.09v-.37h-.09v.37Zm-26.53,1.39c-.05-.04-.1-.11-.14-.11-.07,0-.13,.04-.2,.06,.04,.04,.08,.12,.12,.12,.06,0,.13-.04,.22-.07Zm16.8-50.4c-.05-.04-.1-.11-.14-.11-.07,0-.13,.04-.2,.06,.04,.04,.08,.12,.12,.12,.06,0,.13-.04,.22-.07ZM14.39,24.93v-.09h-.37v.09h.37Zm94.27,39.97c-.04,.05-.11,.1-.11,.14,0,.07,.04,.13,.06,.2,.04-.04,.12-.08,.12-.12,0-.06-.04-.13-.07-.22ZM35.39,26.87h.09v-.37h-.09v.37Zm72.31,14.75c-.04,.05-.11,.1-.11,.14,0,.07,.04,.13,.06,.2,.04-.04,.12-.08,.12-.12,0-.06-.04-.13-.07-.22ZM26.73,52.43v.09h.37v-.09h-.37Zm58.48-24.75c-.02-.07-.05-.13-.07-.2-.04,.04-.12,.08-.12,.12,0,.06,.04,.13,.07,.2,.04-.04,.08-.08,.13-.12Zm-26.55,48.39h.09v-.37h-.09v.37Zm-9.77-46.58c.03-.08,.07-.14,.07-.21,0-.04-.07-.08-.11-.12-.03,.07-.07,.13-.07,.19,0,.04,.07,.09,.11,.13Zm44.09,45.86h.09v-.37h-.09v.37ZM70.66,11.9c.05,.04,.1,.11,.14,.11,.07,0,.13-.04,.2-.06-.04-.04-.08-.12-.12-.12-.06,0-.13,.04-.22,.07Zm27,27.4c-.05-.04-.1-.11-.14-.11-.07,0-.13,.04-.2,.06,.04,.04,.08,.12,.12,.12,.06,0,.13-.04,.22-.07ZM10.19,29.75h.09v-.37h-.09v.37Zm59.52,65.28h.09v-.37h-.09v.37Zm-27.45-27.99c-.02-.07-.05-.13-.07-.2-.04,.04-.12,.08-.12,.12,0,.06,.04,.13,.07,.2,.04-.04,.08-.08,.13-.12Zm-21.75,.39h.09v-.37h-.09v.37Zm16.15-14.77c-.04,.05-.11,.1-.11,.14,0,.07,.04,.13,.06,.2,.04-.04,.12-.08,.12-.12,0-.06-.04-.13-.07-.22Zm36.96,14.4c-.04,.05-.11,.1-.11,.14,0,.07,.04,.13,.06,.2,.04-.04,.12-.08,.12-.12,0-.06-.04-.13-.07-.22Zm14.91,.24h-.09v.37h.09v-.37Zm-76.27,.4s-.08-.09-.12-.13c-.02,.07-.07,.13-.06,.2,0,.04,.07,.08,.11,.12,.03-.07,.05-.13,.07-.18Zm38.26-28.59h.09v-.37h-.09v.37Zm46.32,13.92h.09v-.37h-.09v.37Zm-21.29,.22c.03-.08,.07-.14,.07-.21,0-.04-.07-.08-.11-.12-.03,.07-.07,.13-.07,.19,0,.04,.07,.09,.11,.13Zm19.96,21.33c-.05-.04-.1-.11-.14-.11-.07,0-.13,.04-.2,.06,.04,.04,.08,.12,.12,.12,.06,0,.13-.04,.22-.07ZM6.81,53.15v.09h.37v-.09h-.37Zm59.78,43.31h.09v-.37h-.09v.37Zm11.66-21.81s-.08-.09-.12-.13c-.02,.07-.07,.13-.06,.2,0,.04,.07,.08,.11,.12,.03-.06,.05-.13,.07-.18Zm20.37-4.85v-.09h-.37v.09h.37Zm-43.46,.13h-.09v.37h.09v-.37Zm3.65,.71c-.02-.07-.05-.13-.07-.2-.04,.04-.12,.08-.12,.12,0,.06,.04,.13,.07,.2,.04-.04,.08-.08,.13-.12Zm-2.96,2.9c-.04,.05-.11,.1-.11,.14,0,.07,.04,.13,.06,.2,.04-.04,.12-.08,.12-.12,0-.06-.04-.13-.07-.22Zm15.17,23.39v-.09h-.37v.09h.37ZM7.69,31.45s-.08-.09-.12-.13c-.02,.07-.07,.13-.06,.2,0,.04,.07,.08,.11,.12,.03-.07,.05-.13,.07-.18Zm94.99,39.48c-.08-.03-.14-.07-.21-.07-.04,0-.08,.07-.12,.11,.07,.03,.13,.07,.19,.07,.04,0,.09-.07,.13-.11Zm-24.72,26.36h-.09v.37h.09v-.37ZM4.3,33.54c-.05-.04-.1-.11-.14-.11-.07,0-.13,.04-.2,.06,.04,.04,.08,.12,.12,.12,.06,0,.13-.04,.22-.07Zm16.67-1.51v.09h.37v-.09h-.37Zm14.96,23.51c-.04,.05-.11,.1-.11,.14,0,.07,.04,.13,.06,.2,.04-.04,.12-.08,.12-.12,0-.06-.04-.13-.07-.22Zm-3.19-46.67h.09v-.37h-.09v.37Zm-4.69-2.66v-.09h-.37v.09h.37ZM9.52,31.28s-.08,.05-.08,.08c0,.03,.04,.06,.07,.09,.03-.03,.08-.05,.08-.08,0-.03-.04-.06-.07-.08Zm44.23,2.97s-.05-.06-.08-.09c-.03,.03-.08,.05-.08,.08,0,.03,.04,.06,.07,.08l.08-.08ZM6.72,31.12s-.05-.06-.08-.09c-.03,.03-.08,.05-.08,.08,0,.03,.04,.06,.07,.08l.08-.08Zm-.48,0s-.05-.08-.08-.08c-.03,0-.06,.04-.08,.07,.03,.03,.05,.08,.08,.08,.03,0,.06-.04,.08-.07Zm83.92,39.27s-.08,.05-.08,.08c0,.03,.04,.06,.07,.09,.03-.03,.08-.05,.08-.08,0-.03-.04-.06-.07-.08ZM15.36,30.88s-.05-.06-.08-.09c-.03,.03-.08,.05-.08,.08,0,.03,.04,.06,.07,.08l.08-.08Zm36.96-.96s-.05-.08-.08-.08c-.03,0-.06,.04-.08,.07,.03,.03,.05,.08,.08,.08,.03,0,.06-.04,.08-.07Zm-13.28,4.47s-.08,.05-.08,.08c0,.03,.04,.06,.07,.09,.03-.03,.08-.05,.08-.08,0-.03-.04-.06-.07-.08Zm-4.96,2.73s-.05-.08-.08-.08c-.03,0-.06,.04-.08,.07,.03,.03,.05,.08,.08,.08,.03,0,.06-.04,.08-.07Zm19.92,.96s-.05-.06-.08-.09c-.03,.03-.08,.05-.08,.08,0,.03,.04,.06,.07,.08l.08-.08Zm-2.95,.63s-.08,.05-.08,.08c0,.03,.04,.06,.07,.09,.03-.03,.08-.05,.08-.08,0-.03-.04-.06-.07-.08Zm26.4,36s-.08,.05-.08,.08c0,.03,.04,.06,.07,.09,.03-.03,.08-.05,.08-.08,0-.03-.04-.06-.07-.08Zm-20.16-36s-.08,.05-.08,.08c0,.03,.04,.06,.07,.09,.03-.03,.08-.05,.08-.08,0-.03-.04-.06-.07-.08Zm-27.84,27.84s-.08,.05-.08,.08c0,.03,.04,.06,.07,.09,.03-.03,.08-.05,.08-.08,0-.03-.04-.06-.07-.08Zm66.55,8.49s-.05-.06-.08-.09c-.03,.03-.08,.05-.08,.08,0,.03,.04,.06,.07,.08,.03-.03,.06-.05,.08-.08ZM54.4,39.92s-.08,.05-.08,.08c0,.03,.04,.06,.07,.09,.03-.03,.08-.05,.08-.08,0-.03-.04-.06-.07-.08ZM7.2,28.72s-.05-.06-.08-.09c-.03,.03-.08,.05-.08,.08,0,.03,.04,.06,.07,.08l.08-.08Zm-.48,12s-.05-.08-.08-.08c-.03,0-.06,.04-.08,.07,.03,.03,.05,.08,.08,.08,.03,0,.06-.04,.08-.07Zm84.96,.48s-.05-.08-.08-.08c-.03,0-.06,.04-.08,.07,.03,.03,.05,.08,.08,.08,.03,0,.06-.04,.08-.07Zm-36.09-13.61s.06-.05,.09-.08c-.03-.03-.05-.08-.08-.08-.03,0-.06,.04-.08,.07l.08,.08Zm-18.16-.79s-.05-.06-.08-.09c-.03,.03-.08,.05-.08,.08,0,.03,.04,.06,.07,.08l.08-.08Zm-20.47-.81s-.08,.05-.08,.08c0,.03,.04,.06,.07,.09,.03-.03,.08-.05,.08-.08,0-.03-.04-.06-.07-.08Zm66.48-1.2s-.08,.05-.08,.08c0,.03,.04,.06,.07,.09,.03-.03,.08-.05,.08-.08,0-.03-.04-.06-.07-.08Zm7.03,52.17s-.05-.06-.08-.09c-.03,.03-.08,.05-.08,.08,0,.03,.04,.06,.07,.08,.03-.03,.06-.05,.08-.08Zm9.12-34.56s-.05-.06-.08-.09c-.03,.03-.08,.05-.08,.08,0,.03,.04,.06,.07,.08,.03-.03,.06-.05,.08-.08ZM27.75,22.8s.06-.05,.09-.08c-.03-.03-.05-.08-.08-.08-.03,0-.06,.04-.08,.07l.08,.08Zm59.05-.4s-.08,.05-.08,.08c0,.03,.04,.06,.07,.09,.03-.03,.08-.05,.08-.08,0-.03-.04-.06-.07-.08Zm-15.77,55.77s-.05-.06-.08-.09c-.03,.03-.08,.05-.08,.08,0,.03,.04,.06,.07,.08l.08-.08Zm-2.48-55.85s.06-.05,.09-.08c-.03-.03-.05-.08-.08-.08-.03,0-.06,.04-.08,.07l.08,.08Zm-34.24-.07s-.05-.06-.08-.09c-.03,.03-.08,.05-.08,.08,0,.03,.04,.06,.07,.08l.08-.08Zm40.32,42s-.05-.06-.08-.09c-.03,.03-.08,.05-.08,.08,0,.03,.04,.06,.07,.08l.08-.08Zm-27.84-.24s-.05-.06-.08-.09c-.03,.03-.08,.05-.08,.08,0,.03,.04,.06,.07,.08l.08-.08Zm58.56-19.44s-.05-.06-.08-.09c-.03,.03-.08,.05-.08,.08,0,.03,.04,.06,.07,.08,.03-.03,.06-.05,.08-.08Zm-36.07,35.43s-.08,.05-.08,.08c0,.03,.04,.06,.07,.09,.03-.03,.08-.05,.08-.08,0-.03-.04-.06-.07-.08Zm13.04-35.19s-.05-.08-.08-.08c-.03,0-.06,.04-.08,.07,.03,.03,.05,.08,.08,.08,.03,0,.06-.04,.08-.07Zm6.15,.55s.06-.05,.09-.08c-.03-.03-.05-.08-.08-.08-.03,0-.06,.04-.08,.07l.08,.08Zm14.25,.41s-.05-.08-.08-.08c-.03,0-.06,.04-.08,.07,.03,.03,.05,.08,.08,.08,.03,0,.06-.04,.08-.07Zm-16.89,16.63s.06-.05,.09-.08c-.03-.03-.05-.08-.08-.08-.03,0-.06,.04-.08,.07l.08,.08Zm4.64-16.15s-.05-.06-.08-.09c-.03,.03-.08,.05-.08,.08,0,.03,.04,.06,.07,.08,.03-.03,.06-.05,.08-.08Zm-22.8,37.44s-.05-.08-.08-.08c-.03,0-.06,.04-.08,.07,.03,.03,.05,.08,.08,.08,.03,0,.06-.04,.08-.07ZM16.48,46.64s-.08,.05-.08,.08c0,.03,.04,.06,.07,.09,.03-.03,.08-.05,.08-.08,0-.03-.04-.06-.07-.08Zm48.56,15.45s-.05-.08-.08-.08c-.03,0-.06,.04-.08,.07,.03,.03,.05,.08,.08,.08,.03,0,.06-.04,.08-.07Zm.64,22.71s-.08,.05-.08,.08c0,.03,.04,.06,.07,.09,.03-.03,.08-.05,.08-.08,0-.03-.04-.06-.07-.08ZM51.04,16.88s-.08,.05-.08,.08c0,.03,.04,.06,.07,.08,.03-.03,.08-.05,.08-.08,0-.03-.04-.06-.07-.08Zm-15.61,30.4s.06-.05,.09-.08c-.03-.03-.05-.08-.08-.08-.03,0-.06,.04-.08,.07l.08,.08Zm19.69,14.48s-.08,.05-.08,.08c0,.03,.04,.06,.07,.09,.03-.03,.08-.05,.08-.08,0-.03-.04-.06-.07-.08Zm22.15,24.33s-.05-.06-.08-.09c-.03,.03-.08,.05-.08,.08,0,.03,.04,.06,.07,.08l.08-.08Zm-11.04,.24s-.05-.06-.08-.09c-.03,.03-.08,.05-.08,.08,0,.03,.04,.06,.07,.08l.08-.08Zm-4.15-38.25s-.08,.05-.08,.08c0,.03,.04,.06,.07,.09,.03-.03,.08-.05,.08-.08,0-.03-.04-.06-.07-.08Zm9.68,1.53s-.05-.08-.08-.08c-.03,0-.06,.04-.08,.07,.03,.03,.05,.08,.08,.08,.03,0,.06-.04,.08-.07Zm9.12,0s-.05-.08-.08-.08c-.03,0-.06,.04-.08,.07,.03,.03,.05,.08,.08,.08,.03,0,.06-.04,.08-.07Zm-29.76,.48s-.05-.08-.08-.08c-.03,0-.06,.04-.08,.07,.03,.03,.05,.08,.08,.08,.03,0,.06-.04,.08-.07Zm-21.45,.31s.06-.05,.09-.08c-.03-.03-.05-.08-.08-.08-.03,0-.06,.04-.08,.07l.08,.08ZM71.92,13.04s-.08,.05-.08,.08c0,.03,.04,.06,.07,.09,.03-.03,.08-.05,.08-.08,0-.03-.04-.06-.07-.08ZM8.32,59.84s-.08,.05-.08,.08c0,.03,.04,.06,.07,.09,.03-.03,.08-.05,.08-.08,0-.03-.04-.06-.07-.08Zm53.52-7.92s-.08,.05-.08,.08c0,.03,.04,.06,.07,.09,.03-.03,.08-.05,.08-.08,0-.03-.04-.06-.07-.08ZM4.47,58.8s.06-.05,.09-.08c-.03-.03-.05-.08-.08-.08-.03,0-.06,.04-.08,.07l.08,.08Zm68.64,33.36s.06-.05,.09-.08c-.03-.03-.05-.08-.08-.08-.03,0-.06,.04-.08,.07l.08,.08Zm7.76-.07s-.05-.06-.08-.09c-.03,.03-.08,.05-.08,.08,0,.03,.04,.06,.07,.08l.08-.08Zm-12.72,.72s-.05-.06-.08-.09c-.03,.03-.08,.05-.08,.08,0,.03,.04,.06,.07,.08l.08-.08ZM23.76,58.48s-.05-.06-.08-.09c-.03,.03-.08,.05-.08,.08,0,.03,.04,.06,.07,.08l.08-.08Zm11.69-.81s-.08,.05-.08,.08c0,.03,.04,.06,.07,.09,.03-.03,.08-.05,.08-.08,0-.03-.04-.06-.07-.08Zm1.04-46.23s-.05-.08-.08-.08c-.03,0-.06,.04-.08,.07,.03,.03,.05,.08,.08,.08,.03,0,.06-.04,.08-.07Zm16.8,41.04s-.05-.08-.08-.08c-.03,0-.06,.04-.08,.07,.03,.03,.05,.08,.08,.08,.03,0,.06-.04,.08-.07Zm8.88,0s-.05-.06-.08-.09c-.03,.03-.08,.05-.08,.08,0,.03,.04,.06,.07,.08l.08-.08Zm-41.36,1.03s.06-.05,.09-.08c-.03-.03-.05-.08-.08-.08-.03,0-.06,.04-.08,.07l.08,.08ZM27.04,9.44s-.08,.05-.08,.08c0,.03,.04,.06,.07,.09,.03-.03,.08-.05,.08-.08,0-.03-.04-.06-.07-.08Zm48.48,44.16s-.08,.05-.08,.08c0,.03,.04,.06,.07,.09,.03-.03,.08-.05,.08-.08,0-.03-.04-.06-.07-.08Zm-14.8,2.25s-.05-.08-.08-.08c-.03,0-.06,.04-.08,.07,.03,.03,.05,.08,.08,.08,.03,0,.06-.04,.08-.07Zm-37.28-2.01s-.08,.05-.08,.08c0,.03,.04,.06,.07,.09,.03-.03,.08-.05,.08-.08,0-.03-.04-.06-.07-.08Zm37.2,1.44s-.08,.05-.08,.08c0,.03,.04,.06,.07,.09,.03-.03,.08-.05,.08-.08,0-.03-.04-.06-.07-.08Zm-29.05,.16s.06-.05,.09-.08c-.03-.03-.05-.08-.08-.08-.03,0-.06,.04-.08,.07l.08,.08Zm37.53,43.85s-.05-.08-.08-.08c-.03,0-.06,.04-.08,.07,.03,.03,.05,.08,.08,.08,.03,0,.06-.04,.08-.07Zm1.12,1.35s-.08,.05-.08,.08c0,.03,.04,.06,.07,.09,.03-.03,.08-.05,.08-.08,0-.03-.04-.06-.07-.08ZM31.2,5.2s-.05-.06-.08-.09c-.03,.03-.08,.05-.08,.08,0,.03,.04,.06,.07,.08l.08-.08Z"/>
      <path class="cls-1" d="M50.71,36.86h1.06c-.42,.52-.74,.36-1.05,.29v-.29Z"/>
      <path class="cls-1" d="M51.34,37.65h-.37v-.09h.37v.09Z"/>
      <path class="cls-1" d="M52.62,34.1c-.06-.02-.12-.04-.19-.06,.03-.03,.06-.06,.09-.09,.02,.06,.04,.12,.06,.19l.03-.03Z"/>
      <path class="cls-1" d="M46.78,29.7c-.09,.03-.15,.08-.22,.07-.04,0-.08-.08-.12-.12,.07-.02,.13-.06,.2-.06,.05,0,.09,.07,.14,.11Z"/>
      <path class="cls-1" d="M25.12,39.92s.07,.06,.07,.08c0,.03-.05,.05-.08,.07-.02-.03-.07-.06-.07-.08,0-.03,.05-.05,.08-.07Z"/>
      <path class="cls-1" d="M75.88,79.75c-.34,.19,.2,.67-.34,.67-.12,0-.33-.18-.36-.3-.07-.4,.22-.4,.69-.37Z"/>
    </g>
  </g>
</svg>