<?xml version="1.0" encoding="UTF-8"?>
<svg id="_レイヤー_2" data-name="レイヤー 2" xmlns="http://www.w3.org/2000/svg" viewBox="0 0 155.83 123.9">
  <defs>
    <style>
      .cls-1 {
        fill: #84a2b2;
      }
    </style>
  </defs>
  <g id="illustration">
    <g>
      <path class="cls-1" d="M101.58,109.89c-.15-.42,.07-1.07-.61-1.14-.59-.05-.68,.42-.7,.98-.46-.07-.84-.1-1.21-.19-1.14-.26-2.29-.45-3.42-.74-1.05-.26-2.14-.48-3.16-.82-1.59-.52-3.15-1.16-4.69-1.82-.49-.21-.89-.64-1.33-.97-.29,.04-.6,.08-.88,.12-.42,.45-.86,.93-1.37,1.47,.34,.32,.53,.6,.32,1.21-.67,1.9-1.6,3.67-2.53,5.42-.64,1.2-1.56,2.25-2.36,3.36-.07,.1-.14,.21-.24,.26-.37,.19-.96,.27-1.09,.56-.19,.43-.39,.75-.77,.99-.11,.07-.17,.22-.26,.34-.2,.28-.34,.69-.61,.83-1.1,.56-1.93,1.5-3.08,2.01-1.22,.54-2.41,1.18-3.71,1.44-1.3,.26-2.57,.68-3.93,.67-3.72-.04-7.44,0-11.16-.02-.62,0-1.29-.31-1.85-.15-.61,.17-1.18,.11-1.76,.14-.35,.02-.7-.08-1.05-.13-.15-.02-.32-.12-.45-.08-1.45,.46-2.93,.16-4.39,.19-.64,.01-1.27-.18-1.94,0-.28,.07-.64-.17-1.02-.29-.3,.09-.68,.23-1.08,.31-.8,.15-1.6-.12-2.42-.02-.83,.1-1.68,.03-2.52,.03-.8,0-1.6,0-2.4,0-.84,0-1.68,0-2.52,0-.25,0-.54,.1-.7-.27-.15-.32-.51-.31-.66-.02-.15,.28-.34,.33-.57,.29-1.25-.21-2.49,.15-3.73,0-.4-.05-.8-.2-1.29-.33-.43,.25-.99,.54-1.66,.22-.05-.03-.13-.02-.2,0-1.88,.39-3.57-.15-5.19-1.04-.35-.19-.82-.27-.68-.88,.02-.08-.33-.28-.53-.35-.55-.19-.86-.52-.83-1.13,.02-.34-.1-.59-.33-.91-.46-.64-.53-1.46-.28-2.26,.23-.74,.37-1.52,.66-2.24,.21-.52,.42-1.15,1.2-1.15,.14,0,.36-.06,.41-.16,.64-1.17,1.9-1.16,2.93-1.46,.93-.27,1.97-.37,2.93-.26,1.63,.19,3.3,.14,4.89,.64,.23,.07,.51-.02,.84-.04-.44-.53-.82-.99-1.22-1.47-.1,.02-.32,.08-.54,.13-.26-.38-.5-.73-.8-1.16-.54-.02-1.12-.11-1.58-.66-.63-.76-.66-.82,.29-1.47-.21-.21-.4-.4-.57-.57-.52,.18-.96,.33-1.4,.47-1.9-1.96-3.45-4.16-4.7-6.57-.33-.64-.32-.65-.06-1.51-.61,.05-.81-.36-.94-.83-.4-1.39-.82-2.76-1.01-4.21-.19-1.38-.33-2.73,0-4.1,.08-.3,.01-.66-.07-.97-.18-.63-.19-1.21,.04-1.85,.23-.66,.03-1.39,.27-2.1,.27-.82,.54-1.63,.93-2.39,.19-.37,.25-.82,.95-.78,.4,.02,.39-.58,.06-1.08,.34-.3,.71-.6,1.06-.93,.29-.28,.55-.51,1.01-.54,.4-.02,.82-.18,.87-.77,.02-.21,.35-.55,.55-.57,.89-.08,1.57-.88,2.51-.69,.06,.01,.17,.01,.17,0,.23-.76,.86-.54,1.39-.59,.5-.05,1.06-.33,1.5-.2,.93,.28,2.02-.18,2.85,.61,.15,.15,.54,.08,.81,.06,1.27-.05,2.51,.04,3.74,.46,.35,.12,.68,.11,.83,.52,.2,.53,.68,.6,1.08,.38,.44-.24,.74-.04,1.11,.08,1.84,.64,3.54,1.59,5.23,2.53,1.3,.73,2.54,1.58,3.6,2.63,1.15,1.15,2.35,2.29,3.3,3.59,.75,1.02,1.67,1.98,2.02,3.27,.12,.44,.48,.8,.66,1.23,.09,.2,.01,.47,.01,.71,.72-.01,.8-.04,1.95-.73-1.07-2.18-2.34-4.22-3.81-6.18-.79-1.05-1.73-1.92-2.67-2.8-1.47-1.38-3.06-2.6-4.86-3.59-1.9-1.04-3.85-1.9-5.87-2.64-.88-.32-1.76-.73-2.67-.83-.47-.05-.72-.55-1.3-.37-.44,.13-.99-.11-1.49-.19-.5-.08-1-.18-1.51-.23-.66-.07-1.19-.57-1.28-1.32-.04-.35,.02-.72-.02-1.08-.08-.62-.14-1.25-.32-1.85-.25-.83-.9-1.3-1.79-1.26-1.02,.04-2.04,.18-3.05,.29-.39,.04-.77,.16-1.16,.17-1.04,.02-2.08-.02-3.12,.02-.68,.02-1.28-.05-1.62-.65-.27,.09-.53,.28-.72,.22-.73-.23-1.46-.4-1.98-1.12-.3-.41-.86-.63-.95-1.25-.02-.14-.28-.25-.44-.34-.46-.27-.66-.71-.66-1.19,.01-1.14,.02-2.31,.7-3.31,.21-.31,.5-.61,.82-.78,1.09-.59,2.18-.8,3.49-.55,1.3,.24,2.6,.71,3.96,.56,.12-.01,.24-.01,.36,.01,.53,.13,1.05,.27,1.57,.4,.79-.61,1.89-.55,2.67-1.14,.81-.62,1.45-1.46,1.73-2.43,.31-1.06,.5-2.13,.34-3.31-.21-1.54-.59-3-1.27-4.37-.54-1.09-1.22-2.11-2.12-2.96-.75-.71-1.47-1.48-2.21-2.2-.52-.5-.96-1.03-1.26-1.7-.31-.68-1.04-.97-1.61-1.38-.61-.44-1.27-.79-1.45-1.61-.04-.16-.23-.32-.39-.42-.74-.48-1.32-1.1-1.81-1.84-.39-.59-.9-1.1-1.35-1.64-.93-1.13-1.76-2.33-2.4-3.64-.07-.14-.11-.32-.22-.4-1.24-.89-1.62-2.35-2.34-3.57-.26-.43,0-.65,.36-.83-.12-.4-.17-.86-.78-.82-.37,.02-.54-.21-.64-.57-.34-1.15-.73-2.29-1.11-3.47-1.77,.05-3.25-.69-3.84-2.36-.64-1.83-.32-3.29,1.03-4.11,1.74-1.06,3.62-1.32,5.23,.52,1.27-1.68,3.03-2.55,4.78-3.33,1.76-.78,3.59-1.42,5.51-1.82,3.16-.66,6.33-.34,9.5-.43,.38,0,.76,.15,1.15,.23,.83,.15,1.4-.24,1.74-.94,1.06-2.16,2.64-3.9,4.28-5.61,.14-.14,.26-.35,.43-.41,.87-.33,1.38-1.1,2.07-1.63,1.19-.92,2.51-1.58,3.98-2.28,.26,1.42,.52,2.75,.76,4.08,.1,.54,.21,1.08,.23,1.63,.05,.96,.02,.96-.76,1.65,.25,.09,.45,.17,.75,.28v2.98c1.62-.92,3.07-1.91,4.65-2.59,1.71-.74,3.35-1.79,5.32-1.77,1.32-.62,2.72-.67,4.14-.65,.15,0,.31,.03,.62,.06-.53,.64-.54,1.52-1.55,1.76,.37,.07,.62,.12,.94,.17,.24,.79-.2,1.52-.29,2.28-.02,.16-.35,.28-.58,.46,.28,.6,.27,1.22-.03,1.87-.24,.52-.3,1.12-.47,1.68-.22,.71-.45,1.41-.74,2.09-.15,.35-.45,.64-.73,1.02,.44,.83-.69,1.36-.84,2.19,1.27,1.53,2.55,3.09,3.85,4.62,.22,.26,.33,.42,.21,.79-.08,.22,.19,.56,.32,.9,.32,.02,.67,.05,.99,.07,1.41,1.9,2.8,3.74,4.15,5.62,.38,.53,.65,1.15,.97,1.73,.06,.1,.07,.26,.15,.31,1.27,.79,1.67,2.22,2.48,3.35,.73,1.01,1.36,2.08,1.9,3.21,.43,.89,1.08,1.68,1.58,2.54,.87,1.53,1.74,3.07,2.52,4.64,.25,.5,.25,1.14,.36,1.73,.06-.07,.14-.16,.19-.22,.2,.22,.45,.42,.61,.67,.36,.6,.75,1.21,.98,1.86,.2,.59,.48,1.14,.76,1.7,.56,1.12,1.11,2.25,1.61,3.4,.56,1.29,1.06,2.6,1.57,3.91,.15,.37,.29,.73,.25,1.18-.03,.38,.25,.79,.41,1.17,.25,.57,.57,1.12,.76,1.7,.6,1.77,1.15,3.55,1.72,5.33,.06,.18,.2,.43,.13,.56-.53,1.02,.11,1.85,.56,2.59,.3,.5,.49,1.02,.63,1.54,.24,.86,.29,1.78,.56,2.63,.18,.55,.3,.93-.26,1.31-.14,.1-.13,.43-.22,.77,.32,.2,.71,.44,1.1,.68q.07,1.66-.38,2.36c.19,.05,.37,.11,.61,.18,.25,1.29,.57,2.58,.74,3.89,.18,1.28,.22,2.58,.32,3.91,.21,0,.39,.06,.51,0,2.15-1.18,4.05-2.61,5.35-4.77,1-1.67,1.69-3.43,2.12-5.3,.2-.84,.29-1.7,.34-2.56,.06-.92,0-1.84,.01-2.76,.01-1.82-.3-3.59-.64-5.37-.12-.64-.61-1.32-.18-2.07,.07-.12-.1-.46-.24-.61-.39-.39-.45-.91-.6-1.38-.31-.92-.49-1.9-.9-2.77-.35-.74-.36-1.34,.12-1.96-.17-.52-.64-.37-1.08-.45-.61-1.41-1.24-2.84-1.85-4.27-.25-.59-.19-.83,.28-1.26,.16-.15,.36-.26,.73-.51-.39-.06-.6-.16-.78-.11-.82,.19-.8,.2-1.11-.62-.36-.92-.71-1.83-.95-2.8-.2-.82-.63-1.57-.84-2.4-.55-2.15-1.17-4.28-1.75-6.42-.07-.26-.02-.56-.03-.83-.02-.51,.04-.98-.35-1.45-.27-.32-.28-.88-.34-1.34-.11-.86-.18-1.72-.26-2.58-.09-.94-.2-1.88-.23-2.83-.01-.46,.08-.94,.23-1.38,.22-.64,.18-1.23-.23-1.73-.27-.33-.32-.68-.23-1,.27-.94,.18-1.9,.25-2.85,.11-1.44,.46-2.85,.7-4.28,.79-.55,.26-1.51,.7-2.2,.39-.62,.63-1.34,.95-2.02,.42-.9,.83-1.78,1.53-2.55,.41-.45,.57-1.16,1.04-1.67,.77-.84,1.43-1.78,2.2-2.62,.63-.69,1.21-1.43,1.97-2.01,.65-.5,1.11-1.24,1.93-1.55,.34-.13,.31-.83,.9-.61-.07-.57,.47-.69,.78-.92,.87-.65,1.68-1.43,2.8-1.65,.53-.11,1.08-.17,1.7-.26,.03-.31,.06-.66,.09-1.11,.73-.31,1.48-.63,2.22-.95,.18-.08,.38-.12,.53-.23,.84-.59,1.76-.84,2.75-.73,.51-.69,.94-.87,2.7-1.16,.02,.14,.04,.29,.09,.61,.94-1.3,2.31-1.06,3.5-1.36,.6-.15,1.26-.32,1.86-.22,.94,.16,1.85-.09,2.77-.04,.92,.05,1.84-.02,2.76,.02,1.38,.05,2.77,.12,4.14,.25,.89,.09,1.78,.26,2.65,.49,.35,.09,.61,.36,1.06,.26,.34-.07,.76,.13,1.12,.27,.39,.15,.76,.38,1.14,.57,.1,.05,.23,.09,.34,.07,.72-.12,1.29,.26,1.87,.56,.15,.37,.3,.72,.46,1.11,.14-.34,.26-.61,.41-.97,1.33,.64,2.59,1.25,3.85,1.85,.53,.25,1.03,.48,1.34,1.07,.17,.33,.67,.6,1.06,.67,1.08,.2,1.94,.75,2.51,1.61,.27,.41,.72,.23,.96,.59,.19,.29,.53,.47,.79,.71,.59,.54,1.19,1.05,1.73,1.63,.19,.2,.2,.57,.24,.7,.55,.45,1.06,.76,1.42,1.2,.62,.75,1.16,1.58,1.69,2.4,.16,.24,.15,.59,.22,.89,.07,.28,.15,.56,.25,.96,.19-.27,.27-.4,.36-.53,.17,.33,.33,.65,.5,.99-.12,.11-.25,.22-.46,.41,1.42,.61,1.68,2.01,2.2,3.21,.34,.78,.59,1.62,.79,2.45,.24,.98,.52,1.93,.87,2.87,.14,.36-.22,.75,.17,1.16,.25,.27,.29,.81,.28,1.23,0,.36-.2,.71-.35,1.18,.24,.19,.92,.35,.49,1.01,.36,1.9,.29,3.83,.11,5.71-.21,2.16-.26,4.38-1.07,6.47-.19,.5-.22,1.07-.31,1.61-.12,.72-.42,1.34-.78,1.64-.09,.67-.06,1.14-.23,1.52-.67,1.45-1.26,2.98-2.17,4.28-1.21,1.75-2.39,3.56-4.08,4.91-1.06,.85-2.08,1.76-3.42,2.24-.81,.29-1.49,.96-2.29,1.3-1.47,.63-2.93,1.32-4.58,1.35-.08,0-.17-.02-.24,.01-1.39,.66-2.89,.7-4.39,.71-.23,0-.46,.11-.69,.13-.47,.04-.97,.17-1.41,.07-1.1-.25-2.23-.5-3.24-.96-.92-.42-1.89-.67-2.81-1.07-.45-.2-.72-.46-.68-.87-.32,0-.63,.1-.82-.02-.63-.39-1.25-.81-1.82-1.29-.56-.48-1.14-.97-1.55-1.57-.54-.79-1.33-1.4-1.75-2.26-.41-.84-.7-1.73-1.04-2.61-.07-.18-.18-.37-.18-.55-.01-1.15-.2-2.26-.47-3.37,.39-1.66,.02-3.5,1.17-4.97,.56-.72,1.14-1.36,2.05-1.78,1.59-.73,3.12-.5,4.72-.26,.47,.07,.41,.39,.57,.75,.38-.02,.79-.05,1.41-.09,1.75,.88,3.04,2.36,3.48,4.59,.17-1.1,.43-2.2,.48-3.31,.04-.85-.2-1.71-.29-2.57-.05-.44-.04-.89-.06-1.46-.84-.38-1.37-1.29-2.05-2.06-.48-.54-1.16-.95-1.81-1.3-1.21-.65-2.47-1.17-3.88-1.24-.7-.04-1.4-.17-2.11-.23-1.56-.13-3.05,.1-4.51,.7-.89,.36-1.84,.58-2.92,.9,.25,.19,.39,.3,.49,.37-.64,.97-1.29,1.93-1.97,2.95-.17-.15-.42-.35-.68-.57-.3,.67,.15,1.1,.36,1.61-.54,1.82-1.06,3.64-1.24,5.58-.1,1.07-.15,2.13-.18,3.19-.04,1.39,.27,2.73,.53,4.08,.11,.55,.3,1.06,.23,1.66-.04,.32,.24,.74,.48,1.02,.27,.32,.49,.61,.44,1.05-.03,.26,.09,.39,.32,.55,.33,.22,.57,.59,.89,.94-.22,.26-.45,.53-.73,.87,.4,.11,.78,.3,1.14,.28,.56-.04,.89,.24,1.23,.59,1.42,1.49,3.02,2.78,4.68,3.99,.42,.31,1.07,.34,1.26,.98,.02,.06,.25,.04,.37,.08,.62,.2,1.26,.39,1.54,1.1,.7-.06,1.3,.17,1.94,.43,.93,.37,1.95,.53,2.94,.77,.04,0,.08,.01,.12,0,.65-.15,1.07,.72,1.78,.39,.6-.28,1.23-.12,1.94-.13,0,.44,.1,.83-.02,1.13-.28,.66-.16,1.33-.21,1.99-.14,1.96-.12,3.93-.69,5.84-.13,.44-.25,.91-.08,1.46,.15,.47-.1,1.07-.19,1.61-.15,.85-.32,1.69-.48,2.53-.16,.8-.31,1.61-.48,2.41-.06,.3-.23,.61-.22,.9,.02,.53-.31,.79-.66,1.06-.34,.26-.68,.52-.96,.93,.34-.06,.68-.12,1.1-.2,0,.26,.06,.44,0,.55-.35,.53-.54,1.1-.66,1.73-.11,.61-.33,1.2-.53,1.79-.22,.63-.46,1.25-.71,1.86-.35,.83-.71,1.65-1.07,2.47-.02,.04-.06,.06-.07,.1-.09,.65-.92,.78-.97,1.53-.03,.54-.45,1.03-.76,1.51-.32,.49-.6,1.01-.92,1.5-.34,.52-.65,1.08-1.08,1.53-1.41,1.46-2.75,3-4.41,4.18-.29,.21-.74,.2-1.14,.31-.34,.59-.86,1.04-1.53,1.35-1.45,.68-2.96,1.2-4.5,1.64-.19,.05-.44,.1-.58,.01-.3-.18-.49-.12-.7,.13-.07,.08-.21,.12-.32,.13-1.77,.22-3.54,.35-5.37,.2Zm-73.77,6.51c.06-.02,.12-.04,.18-.06-.03-.03-.06-.06-.09-.09-.02,.06-.04,.12-.06,.18-.06,.02-.12,.04-.19,.07,.03,.03,.06,.06,.09,.09,.02-.06,.04-.12,.06-.19Zm6.99-32.36c-.06,.02-.12,.04-.18,.06,.03,.03,.06,.06,.09,.09,.02-.06,.04-.12,.06-.18,.06-.02,.12-.04,.19-.07-.03-.03-.06-.06-.09-.09-.02,.06-.04,.12-.06,.19Zm62.88-15.12c-.06,.02-.12,.04-.18,.06,.03,.03,.06,.06,.09,.09,.02-.06,.04-.12,.06-.18,.06-.02,.12-.04,.19-.07-.03-.03-.06-.06-.09-.09-.02,.06-.04,.12-.06,.19Zm6.69-45.88c.06-.02,.12-.04,.18-.06-.03-.03-.06-.06-.09-.09-.02,.06-.04,.12-.06,.18-.06,.02-.12,.04-.19,.07,.03,.03,.06,.06,.09,.09,.02-.06,.04-.12,.06-.19Zm-54.96,.03l-.32-.22c-.02,.06-.04,.12-.07,.18h.41c.1,.07,.2,.15,.31,.22,.02-.06,.05-.11,.07-.17-.14,0-.27-.01-.41-.02Zm-6.72,35.97c.1-.05,.21-.09,.29-.17,.06-.05,.08-.14,.12-.22-.06-.03-.13-.06-.19-.09-.06,.17-.12,.34-.19,.51-.08,.08-.16,.16-.25,.24-.44-.23-.88-.45-1.36-.7v1.11c.57,.12,1.01,.03,1.33-.44,.08-.08,.17-.16,.25-.24Zm-11.26-23.97c-.25-.09-.54-.38-.65,.14,.25,.09,.51,.24,.62-.17,.23-.01,.46-.02,.68-.03-.23-.09-.52-.39-.65,.07Zm-7.19,82.32c-.31,.26-.68,.51-.03,.95v-.99c.07-.11,.15-.21,.22-.32-.06-.02-.12-.04-.18-.07v.41Zm29.48-16.6h.9c.02-.06,.04-.11,.06-.17-.28-.15-.56-.31-.92-.51v.71c-.1,.05-.21,.09-.3,.17-.06,.05-.08,.14-.12,.22,.06,.03,.13,.06,.19,.08,.06-.17,.13-.33,.19-.5ZM29.04,40.6q-.36-.13-.85,.45,.58,.27,.81-.48c.07-.11,.15-.21,.22-.32-.06-.02-.12-.04-.18-.07v.41Zm78.21,24.24c-.02-.06-.04-.12-.07-.19-.03,.03-.06,.06-.09,.09,.06,.02,.12,.04,.19,.06,.16,.4,.32,.79,.58,1.42q.1-1.17-.62-1.39Zm.72-29.76c-.04-.26,.2-.63-.28-.72q-.16,.54,.32,.69v1.19c.43-.22,.78-.4,1.28-.65-.55-.21-.93-.36-1.31-.51Zm-5.01,42.93c.12,.14,.23,.29,.48,.6-.03-.41-.04-.59-.06-.78-.19,.09-.32,.15-.46,.22-.1-.4-.21-.8-.31-1.19h-.79c.61,.59,.45,1.4,.75,2.04,.13-.29,.25-.59,.38-.89Zm-47.99,7.71c-.53,.09-1.09,.1-1.45,.63,.12,.34,.25,.69,.42,1.16,.3-.2,.61-.29,.69-.49,.17-.42,.21-.89,.3-1.34,.24-.11,.57-.15,.69-.33,.26-.38,.59-.64,1.2-.81-.39-.23-.61-.35-.75-.43-.41,.21-.75,.38-1.11,.57v1.05Zm-31.92-1.2l-.03-.03c.29,.74,1.14,.45,1.57,.95-.3-.72-.85-1.33-.37-2.15-.29-.33,.3-.95-.53-1.18-.31,.21-.72,.48-1.08,.73,.08,.29,.15,.46,.18,.65,.02,.15,.02,.32,0,.47-.02,.17-.08,.33-.13,.51,.17,.02,.28,.04,.4,.06Zm12.78-62.05c-.54,.42-.83,.34-1.18,.16-.29-.15-.67-.26-.98-.2-1.02,.2-1.7,.78-2.04,1.82-.14,.43-.07,.75,.06,1.08,.2,.5,.48,.97,.73,1.45,.02,.03,.07,.04,.1,.06,1.21,.6,2.8,.1,3.46-1.09,.4-.72,.4-.7,1.28-.64,.11,0,.23-.18,.43-.34-.56-.05-.99-.08-1.4-.11-.15-.7-.89-1.17-.45-2.2Zm95.75-6.7c2.9,.26,5.23,1.35,6.78,3.86,.49-.25,.99-.51,1.39-.71-.2-.52-.4-.98-.56-1.46-.23-.68-.67-1.23-1.35-1.34-.64-.1-1.17-.39-1.53-.79-.38-.42-.77-.52-1.27-.62-1.13-.23-2.25-.55-3.47-.85v1.9Zm-31.15,74.74c.44,.35,.88,.26,1.34,.09,.91-.33,1.66-.97,2.62-1.24,.62-.17,1.29-.53,1.56-1.27,.08-.23,.42-.54,.57-.6-.2-.27-.4-.53-.58-.76,.21-.69,.42-1.39,.68-2.24-.52,0-.9-.02-1.29,0-.51,.03-.93,.36-.93,.88,0,1.01-.64,1.65-1.21,2.34-.2,.24-.45,.5-.73,.58-.26,.07-.58-.1-.85-.16-.26,.36-.55,.67-.72,1.02-.2,.4-.3,.85-.47,1.35Zm-4.72-60.67c-.06,.12-.11,.18-.13,.25-.3,1.08-.28,2.26-1.18,3.13-.27,.26-.09,.61,.33,.89,.48,.32,.71,1.2,.32,1.73-.32,.44-.03,.77,.17,.85,.7,.26,.82,1.06,1.4,1.36,.26-.43,.53-.87,.8-1.31-.33-.71-.35-1.51-.52-2.26-.3-1.3,0-2.5,.34-3.67,.2-.72,.13-1.2-.39-1.72-.48,.49-1.32-.13-1.79,.62,.23,.05,.38,.08,.65,.13Zm11.48,2.42c.19-1.38,.15-2.62,1.42-3.28,.11-.06,.13-.28,.23-.4,.42-.48,.78-1.17,1.32-1.37,.61-.23,.73-.63,.95-1.07-.2-.39-.4-.77-.62-1.2-1.69,.79-2.98,2.02-3.87,3.57-.57,1-1.36,2.01-1.23,3.37,.61,.13,1.17,.24,1.81,.38Zm-4.54,27.23c.34-.46,.66-.88,.97-1.3-.48-.45-.97-.85-1.37-1.31-.43-.49-.78-1.04-1.16-1.55,.14-.17,.25-.29,.35-.41,.02-.02,.01-.06,.03-.19-.08-.07-.21-.17-.34-.26-.33-.23-.7-.62-.77-.83-.19-.59-.38-1.17-.6-1.85-.57,.2-1.19-.22-1.53,.38,.06,.52,.1,.99,.18,1.44,.03,.21,.1,.43,.2,.63,.4,.75,.81,1.48,1.22,2.22,.2,.37,.34,.81,.63,1.09,.67,.67,1.42,1.26,2.18,1.93Zm-39.67-16.65c-.58,.07-1.02,.12-1.71,.2,1.13,.42,2.23,.3,2.72,1.36,1.07,.44,1.26,1.52,1.74,2.5,.55-.13,1.1-.26,1.62-.38-.17-.65-.69-1.12-.43-1.81,.02-.05-.17-.2-.27-.29-.13-.11-.3-.19-.42-.32-.6-.68-1.18-1.38-1.77-2.07-.49-.57-.96-1.15-1.48-1.69-.14-.15-.4-.2-.64-.32-.32,.5-.6,.95-.93,1.49,.51,.43,1,.85,1.56,1.32Zm49.22,27.87c-.14-.51-.27-1.02-.4-1.51-.59,.2-1.08,.37-1.43,.48,.05,1.25,.12,2.41,0,3.54-.09,.79-.51,1.54-.81,2.39,.05,.13,.13,.39,.22,.65,.32,.1,.64,.21,.99,.32,.3-.74,.75-1.27,1.64-1.34-.38-.69,.4-1.4-.31-1.96,.29-.68,.17-1.55,1.11-2.06-.44-.22-.74-.37-1.01-.51Zm-44.07,16.53c.09,1.18-.06,2.32,.09,3.43,.57,.09,1.05,.17,1.48,.24,.53-.93,.54-1.85,.27-2.82-.19-.67-.28-1.38-.36-2.07-.12-1.07-.67-1.96-.96-2.96-.56,.35-1.02,.64-1.49,.93,.24,.74,.46,1.43,.68,2.09-.14,.38-.85,.31-.56,.98,.24,.05,.54,.11,.86,.18Zm30.4,13.21c1.17-.04,2.28-.06,3.38-.12,.47-.02,.93-.13,1.4-.17,1.02-.08,1.8-.72,2.72-1.12-.13-.24-.25-.48-.39-.7-.14-.22-.31-.43-.46-.64-2.55,1.3-5.08,1.23-7.13,.35v1.69c.15,.22,.36,.52,.49,.7ZM61.71,53.6c.74,.87,1.46,1.61,2.04,2.45,.58,.85,1.02,1.8,1.56,2.77,.26,0,.62,.02,.97,0,.31-.02,.55-.07,.56-.52,0-.23,.4-.44,.63-.67-.2-.25-.39-.41-.49-.62-.4-.8-.84-1.54-1.78-1.82-.11-.03-.15-.26-.25-.37-.66-.77-1.33-1.53-2.04-2.35-.46,.44-.83,.79-1.19,1.14Zm57.27,33.08c.26-.42,.5-.81,.75-1.22-.35-.6-.26-1.23-.1-1.86-.3-.06-.57-.11-.83-.18-.72-.19-.9-.05-.98,.69-.06,.62-.07,1.27-.27,1.85-.42,1.25-.9,2.5-2.16,3.31,.26,.48,.53,.97,.81,1.49,.85-.76,1.69-1.35,2.13-2.3,.27-.59,.63-.99,1.47-.83-.34-.39-.57-.65-.83-.94Zm11.57-61.54c-.33-.03-.61,.03-.74-.08-1.76-1.49-3.8-2.26-6.07-2.54-.4-.05-.62,.04-.83,.23,.12,.54,.22,1.02,.32,1.49,1.65,0,3.03,.63,4.41,1.3,.52,.25,.76,.62,.85,1.07,.9,.21,1.37-.44,1.95-.8,.12-.07,.07-.43,.11-.67Zm-65.55,47.65c-.53-2.56-1.88-4.75-3.21-6.99-.47,.3-.91,.58-1.38,.88,.2,.34,.36,.6,.51,.87,.41,.76,.81,1.52,1.21,2.27,.13,.24,.19,.48,.03,.73,.53,.2,.19,.81,.47,1.07,.39,.35,.52,.77,.49,1.28,.68-.02,1.31,.6,1.88-.12Zm15.69,23.19c-.2-.57-.45-1.06-.53-1.58-.15-.95-.2-1.91-.29-2.87-1.37,.08-1.38-.07-1.85,1.35,.89,1.85,.34,3.69,.07,5.59,.54,.05,.75,.81,1.54,.58,.21-.97,.44-1.98,.66-3,.14-.03,.29-.06,.4-.08Zm-5.49-19.82c.65-.17,1.26,.11,1.84-.22-.51-2.61-1.64-4.88-3.25-7.08-.26,.63-1.14,.31-1.32,1,1.13,1.64,2.74,4.69,2.73,6.29Zm-16.9-29.67c-.02-.29,.03-.55-.06-.75-.33-.71-.64-1.44-1.08-2.08-.89-1.29-1.85-2.52-2.8-3.77-.33-.43-.68-.37-1.23,.11,.35,.14,.7,.28,1.1,.44-.33,.35-.63,.66-.92,.97,1.58,1.56,2.59,3.45,3.55,5.45,.46-.12,.94-.25,1.45-.38ZM105.91,12.99c-.96,.68-.86,1.09,.5,2.33,1.66-1.46,3.49-2.49,5.87-2.35,0-.69,.14-1.3-.11-1.89-2.21,.33-4.34,.73-5.99,2.34-.11-.17-.19-.3-.27-.42ZM25.72,17.66c.67,1.36,1.4,1.84,2.35,1.57,.82-.23,1.52-1.08,1.43-1.78-.11-.82-.93-1.68-1.79-1.81-.83-.13-1.47,.54-1.98,2.03Zm65.35,11.35c.12-.34,.23-.66,.34-.98-.65-.96-1.79-.41-2.6-.95-.47,.67-1.18,.88-2.13,1.25,1.03-.07,1.35,.32,1.37,1.07-.76,.23-.77,.89-.94,1.51,.59,.14,.8-.06,.96-.52,.29-.8,.5-.8,1.06-.16,.11,.13,.29,.19,.53,.34,.15-.63-.02-1.07-.48-1.24-.68-.25-.35-.59-.23-1.18,.57,.98,1.3,1.02,2.12,.86Zm-37.04,40.42c.29-.07,.51-.05,.57-.14,.24-.39,.43-.81,.66-1.21,.03-.05,.13-.07,.22-.11,.06,.08,.12,.18,.19,.26,.07,.08,.16,.14,.33,.27,.09-.36,.17-.64,.24-.93,.02,.01,.05,.02,.08,.04,.05,.26,.1,.52,.14,.76,.98,.17,1,.17,1.11,1.05,.05,.36,.16,.69,.53,.66,.27-.02,.62-.22,.76-.45,.14-.22,.16-.64,.03-.86-.17-.32-.5-.73-.79-.76-.84-.06-.7-.72-.86-1.31-.07,.23-.1,.34-.14,.45-.04,.11-.09,.21-.13,.32-.64-.49-.64-.48-1.32,.06-.07,.06-.26-.04-.37,0-.17,.06-.48,.21-.47,.25,.14,.52-.23,.41-.5,.44-.11,.01-.21,.09-.28,.12v1.11Zm44.78,34.67c-.49-.45-1.5-.14-1.76-1.16-.08,.3-.14,.48-.18,.64-.27-.04-.52-.08-.78-.11-.1,.35-.19,.63-.26,.87,.14,.41,1.07-.08,.71,.78,.18,0,.38,.06,.48-.01,.35-.24,.65-.03,.78,.19,.12,.19,.07,.55-.03,.78-.1,.25-.35,.43-.71,.85,.53-.13,.97-.13,1.01-.26,.27-.83,1.03-1.54,.72-2.57Zm-47.89-35.3c.39,.48,.12,.95-.22,1.24-.53,.45-.39,.86-.13,1.33,.05,.09,.19,.12,.3,.19,.24-.14,.48-.27,.73-.42-.04-.34-.08-.67-.13-1.05h1.2c.25-.57,.1-1.09-.28-1.32-.41-.25-1-.53-1.47,.04Zm51.72-36.75c.06-.34,.12-.69,.19-1.11-.4,.3-.72,.55-1.13,.85-.49-.42-.95-.81-1.48-1.27-.35,0-.92-.18-1.11,.49,.46,.95,1.83,.6,2.11,1.75,.3-.17,.49-.28,.69-.38,.24-.12,.48-.22,.74-.33Zm-81.77-2.38c.31,.14,.67,.2,.77,.39,.39,.73,1.03,.41,1.57,.42,.36,0,.52-.29,.53-.66,0-.36-.11-.7-.46-.72-.81-.05-1.67-.21-2.41,.58Zm91.58,57.47c-.25-.52,0-.85,.25-1.18,.09-.11,.29-.2,.29-.3,0-.7,.13-1.41-.1-2.18-.36,.2-.85,.45-.72,.7,.3,.57-.16,.73-.35,1.05-.08,.14-.1,.34-.09,.5,.02,.39,.06,.78,.1,1.17,0,.07,.08,.13,.13,.2,.11,0,.23,.01,.49,.03Zm-41.36,8.92c-.39,.58-1.29,.17-1.77,.94h1.65c.03,.67,.06,1.25,.08,1.86,.25-.12,.42-.21,.63-.31-.56-.74,.12-1,.58-1.31-.15-.71-.66-.93-1.18-1.18Zm22.34-42.25c.13-.64,.27-1.23,.37-1.82,.02-.13-.07-.34-.17-.41-.34-.23-.67-.55-1.2-.36v1.65c.31,.29,.63,.59,1.01,.95Zm-17.3,29.12c-.08,1.04,0,1.23,.5,1.32,.95,.17,1.17,0,1.52-1.05-.58-.79-1.35-.08-2.01-.28ZM51.31,18.06c-.38-.29-.56-.42-.7-.53-.48,.27-.87,.63-1.3,.68-.41,.05-.86-.21-1.3-.33-.47,.36,.03,.62,.14,.87,.12,.28,.46,.3,.73,.13,.49-.3,1-.42,1.57-.41,.22,0,.45-.21,.86-.42Zm58.96,65.73c-.16,.03-.23,.04-.23,.05-.11,.97-.57,1.74-1.25,2.42-.07,.06,0,.25,0,.38,.47-.17,.85-.38,1.25-.44,.37-.06,.5-.4,.49-.57-.02-.62-.16-1.23-.25-1.84Zm-4.72-47.06c.25,.21,.58,.36,.68,.61,.17,.41,.48,.42,.76,.35,.35-.09,.67-.31,.96-.46-.13-.38-.22-.64-.32-.94-.27,.2-.52,.39-.77,.59q-.33-.36-1.3-.14ZM37.63,83.11c.52-.11,1.08-.23,1.76-.38-1.46-.89-2.16-1.11-2.74-.85,.19,.17,.38,.29,.52,.46,.16,.2,.26,.43,.46,.77Zm113.79-41.93c.58-.25,1.06,.05,1.59-.46-.46-.15-.77-.25-1.08-.35,.07-.27,.15-.56,.24-.89-.36-.08-.75-.05-.94-.23-.58-.56-.85-.12-1.23,.27q1.81,.2,1.42,1.66ZM42.79,31.5c.07-.47,.12-.79,.16-1.09-.41-.14-.82-.16-1.03-.38-.22-.23-.25-.65-.4-1.11-.46,1.28-.2,1.81,1.26,2.58Zm-18.98-.94c-.19,.72,.1,1.06,.55,1.32,.3-.32,.52-.79,.82-.85,.9-.16,.52-.76,.54-1.28-.47,.67-.92,1.34-1.9,.81Zm30,65.56c.47,.41,.62,1.15,1.43,.94,.48-.62-.07-1.16-.17-1.91-.49,.37-.87,.67-1.25,.97Zm-5.84,6.94c-.57-.04-1.16-.35-1.6,.27-.13,.18-.12,.44-.22,.65-.17,.35,.05,.48,.3,.61,.28-.73,1.42-.55,1.52-1.53Zm56.76-61.02c-.08,.38-.16,.77-.25,1.16,.43,.4,.87,.27,1.32,.15q-.15-1.27-1.07-1.31ZM20.79,85.34c.45,.12,.7,.19,.95,.26,.1-.33,.21-.65,.31-.98-.25-.09-.46-.17-.66-.24-.04-.44-.08-.84-.11-1.24-.06,0-.11,0-.17,0-.1,.72-.21,1.43-.32,2.2Zm.37-67.01v1.11c.51-.02,.99,.2,1.29-.28-.12-.4-.23-.76-.37-1.19-.31,.12-.62,.24-.92,.35Zm50.09,94.58c-.97,.03-1.38,.81-1.97,1.31-.29,.24-.22,.58-.09,.95q1.38-1.54,2.35-1.79c-.11-.18-.2-.33-.29-.47Zm7.33-37.23c-.14,.63-.25,1.08-.33,1.54-.02,.1,.11,.22,.17,.33,.1,.04,.19,.08,.29,.13-.21-1.08,.55-1.32,1.13-1.65-.2-.26-.37-.48-.54-.72-.32,.16-.56,.29-.73,.37Zm-20.64,18.34c.47-.26,.97-.53,1.44-.78-.38-.09-.54-.23-.98-.55-.22-.17-.56-.18-.85-.25-.04,0-.09,.07-.14,.11,.12,.08,.21,.14,.34,.22-.12,.08-.22,.16-.25,.18,.15,.38,.3,.73,.44,1.08ZM125.13,31.49c.98-.11,.94-.88,1.44-1.44-.71,.12-1.22,.21-1.85,.32,.14,.39,.27,.73,.41,1.12Zm17.03-7.38c.38,.18,.75,.36,1.13,.52,.32,.14,.65,.23,.97-.11-.35-.35-.62-.78-1-.94-.49-.21-.89,.11-1.1,.53Zm-45.09,32.37c-.96-.78-1.71-.48-2.42,.06,.74,.68,1.5,.27,2.42-.06Zm-22.6,27.07c-.66-.48-1.17-1.04-2.02-.57,.07,.85,.99,.56,1.32,1,.22-.13,.41-.25,.7-.43Zm28.16,9.88h-1.49c.27,.31,.49,.63,.78,.86,.26,.21,.6,.33,1.08,.58-.15-.6-.26-1.02-.37-1.44Zm-69.35-10.18c-.54,1.05,.49,1.56,.54,2.41,.24-.36,.47-.72,.85-1.29-.84,0-1.24-.35-1.39-1.12Zm38.59-17.88c.12-.44,.19-.7,.26-.96-.67-.14-1.31-.17-1.94,.51,.61,.16,1.11,.3,1.68,.45Zm47.3,6.36c-.46,.42-.87,.78-1.25,1.12,.5,.19,.98,.38,1.54,.59-.09-.52-.17-1-.29-1.71ZM25.99,32.12c.27-.14,.51-.28,.76-.37,.27-.09,.55-.13,1.09-.24-.61-.33-.99-.53-1.34-.72-.47,.33-.73,.69-.51,1.33Zm47.78,70.61c.07-.21,.14-.41,.21-.62,.15,.14,.29,.27,.62,.58-.05-.61-.08-.98-.11-1.35-1.13,.03-1.2,.14-.72,1.39ZM49.67,20.55c.08,.36,.16,.55,.55,.44,.49-.14,.99-.17,1.49,.09,.2,.1,.5,.02,.75,.02,0-.04,.01-.07,.02-.11-.63-.24-1.27-.48-1.94-.74-.23,.08-.52,.18-.87,.31Zm49.2,64.87c-.31-.54-.84-.42-1.17-.3-.42,.16-.34,.64-.17,1.02,.53-.05,1.08-.02,1.34-.73ZM36.17,12.18c.73,.19,.98-.21,1.26-.61-.15-.35-.3-.68-.53-1.22-.29,.71-.49,1.21-.73,1.83Zm43.03,69.79c.07-.03,.24-.12,.41-.22-1.13-1.03-1.38-1.13-2.33-.91,.66,.39,1.26,.74,1.92,1.13Zm-45.39,17.96c.64,.33,1.13,.86,1.79,.59-.05-.52-.08-.98-.14-1.44,0-.07-.15-.12-.32-.24,.05,.36,.08,.64,.11,.87-.5,.08-.94,.14-1.44,.22Zm22.94-13.92c-.19,.1-.39,.21-.64,.34,.05,.35,.1,.7,.16,1.04,.12,.67,.12,.67,.77,.33-.61-.46,.05-1.09-.28-1.71Zm-18.87,21.89c.92,.11,1.18,0,1.81-.8-.72-.07-1.44-.19-1.81,.8Zm2.94-56.06c-1.03-.47-1.03-.47-.8-1.65,.01-.07-.11-.16-.21-.29-.53,.55-.19,1.2-.39,1.71,.39,.26,.71,.46,1.05,.69,.11-.15,.23-.29,.35-.45Zm-8.41-35.38l-.1,.31c.91-.17,.94,1.18,2.05,.89-.35-.41-.65-.76-.95-1.11-.05-.06-.12-.15-.18-.15-.27,0-.54,.04-.81,.06ZM111.78,92.48c.3,.17,.49,.33,.7,.38,.16,.03,.43-.04,.49-.15,.06-.12-.02-.37-.12-.51-.21-.31-.48-.58-.72-.87-.11,.37-.22,.73-.36,1.15ZM34.58,60.9c.16-.58,1.06-.69,.88-1.5-.27-.07-.57-.15-.88-.23v1.73ZM124.55,16.68c.01,.29,.03,.54,.04,.82h.83c.12-.33,.23-.67,.38-1.09-.5,.11-.86,.18-1.26,.27ZM55.81,95.53c.42-.26,.82-.51,1.06-.67-.14-.27-.29-.56-.45-.86-.39,.49-.67,.84-.97,1.22,.12,.11,.24,.22,.35,.32Zm20.99-5.74c.44-.3,.79-.54,1.15-.79-.12-.23-.22-.42-.31-.62-.38,.21-.74,.41-1.14,.63,.1,.26,.19,.47,.31,.78ZM132.32,10.44c.04,.5,.07,1,.12,1.56,.31-.01,.72,.13,.95-.41-.54-.21-.29-1.13-1.07-1.15Zm-6.11,69.45c-.58-1.06-.6-1.06-2-.69,.52,.16,.87,.27,1.22,.38,.07,.2,.14,.4,.23,.67,.21-.14,.34-.22,.55-.36ZM30.88,33.59c-.02-.08-.03-.16-.05-.25-.54,.27-.99-.45-1.61-.03,.12,.33,.24,.65,.35,.94,.46-.23,.89-.45,1.32-.67ZM124.04,16.41c.06-.51,.24-.94,.12-1.24-.18-.43-.64-.32-1.18-.14,.35,.46,.65,.85,1.06,1.37Zm-.3,73.72c-.61-.51-1.14-.79-1.82-1.14,.03,.44,.06,.73,.07,.98,.59,.05,1.07,.1,1.75,.16Zm-27.16-30.81c-.44,.13-.88,.25-1.46,.42,.44,.31,.73,.51,1.04,.72,.28-.34,.76-.56,.42-1.14Zm-26.04,23.27c.56-.03,1.06-.05,1.56-.09,.03,0,.06-.12,.12-.26-.3-.07-.58-.15-.93-.23,0-.14,0-.3-.03-.44-.02-.1-.06-.2-.08-.27-.19,.39-.36,.75-.64,1.31Zm-24.98,19.17c-.41,.27-.57,.53-.36,.92h1.02c.25-.69-.33-.68-.66-.92Zm8.24-66.31c-.16-.32-.28-.55-.39-.78-.29,.09-.56,.17-.9,.28,.15,.3,.28,.56,.45,.92,.29-.14,.55-.27,.85-.41Zm4.84,25.3c-.22,.25-.42,.48-.62,.69,.33,.6,.74,.59,1.18,.39,.23-.62-.49-.63-.57-1.08Zm-27.93-17.32c-.21-.17-.32-.26-.43-.34,.13-.17,.25-.32,.38-.49q-.93-.08-1.28,.83h1.32Zm20.75-18.91c.32-.04,.57-.08,.9-.12-.1-.3-.21-.5-.24-.72-.03-.19,.04-.39,.07-.63-.23,.03-.37,.05-.54,.07-.06,.46-.12,.87-.19,1.4Zm-18.87-8.69c.32-.22,.64-.44,1.03-.71-.16-.17-.31-.32-.45-.47-1.02,.54-1.1,.71-.58,1.18Zm-6.97,87.33c.12,.76,.23,1.26,.82,1.54,.17-.19,.32-.36,.51-.57-.44-.32-.8-.58-1.33-.97ZM123.25,30.44c-.68,.38-.15,1.12-.59,1.49-.02,.02,.18,.3,.32,.53,.57-.64,.36-1.28,.28-2.02Zm18.96-12.51q.34-.73,.09-1.37c-.32,.2-.63,.39-.97,.61,.32,.28,.58,.5,.89,.77Zm-29.98,61.65c.41-.41,.9-.61,1.03-1.21-.96-.02-1.19,.23-1.03,1.21Zm-32.55-5.82c-.28-.26-.55-.5-.89-.81-.06,.45-.56,.69-.14,1.05,.33,.28,.62,.24,1.03-.24Zm20.9-8.51c-.36,.27-.69,.5-1.06,.78,.16,.18,.28,.31,.37,.41,.4-.22,.75-.41,1.18-.65-.17-.18-.31-.34-.49-.54ZM32.4,20.04q-1.22-.21-1.39,.3c.4,.11,.8,.23,1.27,.36,.05-.24,.08-.42,.13-.66Zm23.04-5.21c-.12-.13-.23-.25-.34-.37-.52,.34-.85,.73-.49,1.4,.58-.1,.61-.63,.83-1.03Zm-18.8,87.65c-.31,.41-.27,.99,.05,1.31,.29,.29,.48,.07,.7-.22-.24-.34-.48-.71-.74-1.09ZM56.56,36.79c-.09,.59-.43,1.17,.24,1.62,.18-.18,.36-.37,.53-.53-.29-.41-.53-.75-.77-1.09Zm-10.4,54.25c-.43,.25-.4,.64-.27,1,.34-.02,.61-.03,.85-.04,.18-.55-.09-.82-.58-.96Zm47.72-41.46q-.78-.09-1.67,.33c.15,.09,.28,.25,.41,.24,.35-.02,.7-.1,1.04-.18,.08-.02,.11-.18,.22-.38Zm27.4-20.92c.34-.14,.58-.24,.82-.34-.14-.37-.25-.67-.38-1q-.49,.49-.44,1.34ZM43.28,57.97c.54,.25,.89,.45,1.27,.58,.15,.05,.35-.04,.57-.07q-.46-.66-1.84-.51Zm83.09,18.53c.1-1.28-.14-1.53-1.19-1.08,.3,.14,.61,.18,.73,.35,.16,.23,.06,.63,.46,.73ZM32.13,53.47c.36-.49,.95-.67,.63-1.35-.37,.21-.71,.39-1.04,.59-.02,.01-.02,.07-.07,.32,.07,.07,.23,.21,.49,.44Zm7.75,6.59c-.24-.32-.36-.62-.57-.73-.33-.16-.42,.19-.55,.42-.08,.15-.21,.27-.44,.54,.59-.09,.99-.15,1.56-.23Zm107.55-28.33c-.39-.24-.69-.43-.97-.61v1.5c.41-.38,.68-.62,.97-.89ZM55.56,91.01c.31,.16,.52,.28,.73,.39q.5-.74,.42-1.3c-.33,.26-.67,.53-1.15,.91Zm87.86-47.33c-.63-.19-.84-.89-1.56-.62q.66,.9,1.56,.62Zm-108.55,21.88c-.75,.48-.8,.91-.11,1.64-.02-.36-.15-.81-.04-.87,.38-.24,.34-.46,.15-.76Zm56.79,27.75q-1.04-.25-1.06,.81c.42-.21,.91-.26,1.06-.81Zm-2.49-51.25c.31-.16,.52-.27,.85-.44-.65-.04-.8-.76-1.58-.79,.29,.48,.49,.82,.73,1.23ZM46.22,113.76c.46,.07,.86-.16,1.23-.55-.25-.22-.49-.43-.74-.65-.17,.42-.32,.78-.49,1.2ZM119.89,45.8c.18,.21,.25,.36,.38,.44,.25,.14,.53,.24,.67-.14,.06-.16,.14-.38,.08-.49-.19-.33-.45-.2-.69-.01-.09,.07-.2,.1-.43,.21ZM25.36,118.72c-.06-.03-.11-.06-.17-.09-.14,.48-.29,.96-.39,1.44-.02,.1,.14,.23,.22,.35,.11-.09,.32-.17,.33-.26,.03-.48,.02-.96,.02-1.44ZM126.24,5.95c.65,.16,.86-.22,1.14-.54-.24-.13-.47-.25-.74-.39-.14,.16-.31,.28-.39,.45-.06,.12-.01,.29-.01,.48Zm-24.31,4.26c-.35,.5-.59,.86-.91,1.32,.55,0,.97-.08,1.16-.48,.08-.16-.13-.46-.25-.84Zm2.39,1.36c.21-.53,.77-.86,.35-1.53-.28,.31-.49,.55-.74,.83,.09,.17,.22,.39,.39,.7ZM25.84,82.64c-.23,1.26-.08,1.43,.82,1.17-.24-.34-.47-.67-.82-1.17ZM123.2,17.1c-.6,.5-.13,.91-.07,1.41,.3-.19,.5-.32,.72-.46-.23-.34-.43-.62-.65-.95Zm-30.18,30.64c.55-.19,.92-.31,1.51-.51-.68-.17-1.11-.27-1.67-.41,.06,.33,.1,.6,.15,.92Zm2.64,6.77c.1-.22,.31-.48,.24-.6-.25-.49-.67-.44-1.1-.25-.01,.59,.53,.55,.86,.86Zm-7.64-16.34c.28,.26,.53,.51,.83,.79,.17-.23,.31-.41,.44-.58-.35-.24-.62-.43-.92-.63-.12,.15-.22,.27-.35,.42Zm54.69,13.97c-.23,.2-.43,.37-.64,.54,.32,.29,.08,.89,.77,1.05-.28-.56,.26-1.07-.13-1.59Zm10.12-16.5c-.17-.76-.42-.77-1.46,0h1.46Zm-67.04,61.52c1.27,.08,1.4-.02,1.08-.92-.36,.31-.71,.6-1.08,.92Zm-30.96-61.94c0,.41-.08,.67,.02,.8,.26,.36,.6,.36,.9,.02,.04-.05,.05-.12,.08-.23-.26-.15-.52-.31-1-.59Zm18.3,26.57c-.58-.01-.81,.16-.64,.46,.16,.29,.4,.54,.64,.86v-1.32Zm-1.66-8.29c.37-.5,.28-1.02,.19-1.64-.64,.55-.37,1.11-.19,1.64Zm27.91-8.25c.35,.55,.83,.36,1.37,.3q-.72-.75-1.37-.3ZM120.18,2.56c.48,.12,.82,.21,1.21,.3-.36-.44-.66-.8-1.03-1.25-.07,.35-.11,.6-.18,.95ZM50.95,27.17c-.04,.05-.08,.11-.11,.16,.16,.17,.29,.43,.48,.49,.34,.1,.72,.1,.91-.35-.43-.1-.86-.2-1.28-.3ZM112.41,6.65c.42-.17,.9,.77,1.28-.08-.43-.44-.86-.44-1.28,.08Zm-6.41,.85c-.35-.19-.58-.35-.82-.42-.05-.01-.3,.38-.27,.41,.17,.17,.38,.33,.61,.41,.08,.03,.24-.19,.49-.4Zm30.16,42.59c.28,.14,.51,.27,.84,.1,.3-.16,.32-.4,.21-.56-.08-.11-.42-.13-.59-.05-.18,.08-.29,.31-.46,.51Zm-.48-39.8c-.23,.32-.42,.57-.72,.99,.52-.03,.8-.05,1.12-.07-.03-.24-.03-.4-.08-.54-.04-.1-.14-.18-.32-.38Zm-60.23,48.73c.83,.89,1.01,.92,1.59,.38-.46-.11-.9-.22-1.59-.38Zm-40.73,52.96c-.38-.18-.72-.34-1.09-.52v.81c.42,.06,.79,.18,1.09-.29Zm-1.92-1.64c-.1-.47,.57-.83,.16-1.37q-.66,.48-.16,1.37ZM149.13,42.2h1.27c-.61,.03-.89-.53-1.34-.75-.07-.03-.16-.02-.33-.04,.16,.32,.28,.55,.4,.79Zm-95.03,23.85c-.23-.21-.39-.46-.55-.46-.17,0-.33,.25-.5,.39,.14,.16,.27,.44,.43,.46,.16,.02,.35-.21,.62-.4Zm41.05,39.34c-.19,.44-.22,.82,.23,1.13q.54-.67-.23-1.13Zm-62.51-36.8c.02,.21,.04,.45,.06,.65,.26-.22,.47-.42,.71-.59,.26-.19,.32-.41,.31-.81-.42,.3-.73,.51-1.07,.75Zm48.76,3.18c.68-.09,.73-.61,.88-1.01,.03-.08-.2-.25-.36-.45-.19,.53-.34,.95-.52,1.46Zm42.75,4.57c.06-.06,.12-.12,.18-.19-.21-.32-.42-.64-.7-1.07-.13,.34-.23,.58-.33,.84,.32,.16,.59,.28,.85,.41ZM48.38,33.06c.67,.07,1.26,.05,1.39,.9,.21-.61,.21-1.01-.28-1.28-.31,.11-.64,.22-1.11,.39Zm45.49-10.47c.35-.31,.91-.26,.86-.92h-.86v.92Zm-48.57,.14c-.24-.39-.52-.48-.84-.3-.31,.17-.41,.45-.22,.81,.34-.16,.68-.32,1.06-.51Zm24.55,97.66c.28,.14,.52,.25,.79,.39,.15-.22,.28-.4,.42-.61-.47-.21-.84-.25-1.21,.22ZM150.27,27.37c0,.4-.21,.74,.19,.97,.4-.21,.64-.46,.38-.85-.07-.1-.33-.07-.57-.12ZM28.61,118.31c-.37-.25-.65-.44-.96-.64-.19,.61,.2,.84,.57,1.14,.14-.18,.24-.3,.39-.49ZM98.51,59.09c-.35,.44-.32,.81,.16,1.22,.15-.26,.27-.47,.39-.7-.21-.2-.38-.36-.55-.53Zm-31.44,56.41c.22,.11,.32,.16,.42,.21,.15,.07,.31,.29,.47,.03,.06-.09,.02-.25,0-.37-.02-.15-.04-.3-.09-.45-.01-.04-.09-.06-.16-.11-.18,.2-.36,.39-.64,.69Zm-40.56-25.78c.33-.22,.49-.46,.14-.74-.45-.36-.57,.04-.79,.37,.25,.14,.45,.26,.65,.37Zm20.37-15.71c-.17-.22-.29-.36-.41-.51-.14,.16-.23,.32-.37,.41-.16,.11-.35,.15-.63,.26,.63,.47,.92,0,1.4-.16Zm-8.02-42.88c.64,.27,.75,.21,1.09-.57-.54-.22-.75,.23-1.09,.57Zm70.7,2.06c-.34,.19-.67,.37-1.1,.61,.57,.07,1,.12,1.5,.19-.16-.31-.28-.55-.4-.79Zm-11.58,47.46c-.02,.32-.04,.6-.07,1.02,.31-.11,.63-.13,.67-.25,.13-.4-.09-.66-.59-.77Zm-42.6-28.6c.34-.39,.52-.6,.9-1.03-.63,.15-.97,.24-1.43,.35,.23,.29,.34,.43,.54,.68Zm-.55,7.93c.34-.26,.5-.53,.23-.83-.07-.08-.43-.06-.5,.03-.23,.32-.05,.58,.27,.8Zm85.55-14.49c-.89-.33-1.09-.19-1.11,.52,.16-.13,.31-.29,.49-.37,.19-.09,.41-.1,.62-.15ZM64.99,117.43c.07,.07,.15,.14,.22,.22,.27-.16,.54-.33,.85-.51-.19-.21-.3-.32-.46-.49-.21,.28-.41,.53-.6,.79Zm-6.16-4.27c-.2,.62,.3,.6,.54,.8q.36-.72-.54-.8ZM135.63,36.57c.38,.08,.8,.37,1.22-.14-.48-.23-.86-.23-1.22,.14ZM31.02,45.8v.81c.35-.06,.61-.11,1.15-.21-.52-.28-.79-.42-1.15-.61Zm-2.61,44.68q.21-.29,.06-1.59c-.73,.24,.23,.96-.35,1.23,.09,.12,.19,.24,.29,.37Zm-2.82-25.12c-.34,.36-.85,.38-.51,.89,.08,.13,.29,.17,.51,.29v-1.18Zm23.32,53.67l-.62,1.14c.66-.12,.81-.54,.62-1.14ZM120.49,14.38c.18-.4,.42-.82-.12-1.22-.2,.48-.23,.86,.12,1.22ZM47.87,90.69c.31-.23,.52-.5,.2-.85-.06-.07-.36-.07-.42,0-.3,.35-.12,.63,.21,.85ZM129.82,8.5c-.22,.33-.35,.52-.58,.85,.46-.02,.75-.03,1.19-.05-.23-.3-.36-.48-.61-.8ZM28.36,86.58c-.1,.31-.27,.55-.21,.69,.06,.15,.33,.24,.53,.28,.08,.01,.21-.18,.32-.29-.18-.19-.34-.36-.65-.68Zm85.54,13.24c.47-.45-.02-.77-.03-1.29-.28,.22-.42,.34-.56,.45,.2,.29,.39,.55,.59,.84ZM39.04,34.69c-.15-.08-.32-.13-.41-.24-.57-.65-.47,.11-.67,.26,.41,.63,.73,.12,1.08-.02Zm21.44,86.43c.25-.34,.37-.51,.52-.71-.26-.22-.46-.4-.67-.57-.05,.03-.1,.07-.16,.1,.09,.34,.18,.67,.31,1.18Zm49.74-39.23c.55,.3,.96,.46,1.1,.89,.07-.03,.13-.07,.26-.13-.06-.13-.11-.26-.17-.39-.07-.14-.15-.26-.21-.37h-.98Zm-36.5-5.24c.25-.13,.37-.19,.5-.26,.11-.06,.23-.11,.35-.16-.23-.36-.51-.5-.8-.27-.1,.08-.04,.38-.06,.69Zm-27.02,40.49c.58,.47,.6,.46,1.29-.33-.5,.13-.85,.22-1.29,.33ZM126.7,32.75l-.29-.11c-.17,.21-.64,.28-.27,.76,.06,.07,.16,.11,.36,.23,.08-.35,.14-.61,.2-.88Zm-14.37,65.8c-.83,.32-.83,.74-.6,1.42,.21-.5,.36-.86,.6-1.42ZM145.09,21.74c-.24-.17-.39-.35-.51-.33-.13,.02-.33,.21-.33,.33,0,.12,.2,.32,.33,.33,.12,.01,.27-.16,.51-.33Zm-92.74-4.51c.02,.3-.04,.59,.07,.69,.22,.2,.49,.12,.69-.12,.04-.05,.04-.11,.06-.18-.24-.11-.47-.22-.82-.39Zm42.39,21.27c-.55-.23-.83,.15-1.29,.45q.67,.07,1.29-.45Zm18.55-16.08c.31,0,.63-.08,.86,.02,.36,.15,.38-.05,.47-.34-.26,0-.49,.02-.72,0-.2-.02-.4-.08-.62-.12v.45Zm30.18,32.19c-.1-.53,.57-.75,.07-1.25-.19,.23-.38,.47-.61,.75,.16,.15,.28,.26,.54,.5Zm-42.03,14.47c.23-.37,.37-.59,.53-.84-.24-.14-.39-.22-.62-.35-.04,.27-.09,.45-.09,.63,0,.13,.07,.26,.17,.57Zm-41.73-20.99c.43,.28,.74,.48,1.1,.71q-.06-.72-1.1-.71Zm-30.84,37.38q-.28-.76-.87-.42c.32,.16,.6,.29,.87,.42ZM62.84,47.99c.28-.1,.43-.15,.57-.21,.15-.07,.29-.15,.49-.25-.38-.29-.69-.31-.96-.1-.09,.07-.06,.28-.1,.56Zm83.33-21.48c-.33-.19-.6-.35-.88-.52-.23,.43-.06,.67,.25,.84,.21-.11,.38-.2,.63-.33ZM41.06,96.84c.24,.36,.52,.51,.8,.27,.1-.09,.03-.38,.05-.68-.34,.17-.58,.28-.85,.41Zm42.06,3.73c.44,.41,.71,.66,1.04,.97q-.06-.8-1.04-.97ZM37.31,30.22c.41-.32,.48-.61,.12-.94-.49,.28-.66,.55-.12,.94ZM120.96,95.91c-.14-.71-.61-.41-1.06-.5,.26,.48,.49,.73,1.06,.5Zm-64.35,5.79c-.4-.28-.67-.15-.91,.22q.52,.35,.91-.22ZM104.41,16.67c-.02,.06-.03,.12-.05,.18,.22,.14,.43,.27,.69,.44,.14-.24,.22-.39,.36-.62h-1ZM45.37,107.03c-.07-.31-.11-.5-.19-.84-.32,.33-.52,.54-.82,.84h1.01ZM15.77,20.41c-.28,.18-.49,.31-.69,.44,.01,.07,.03,.14,.04,.21,.3,.02,.6,.03,1.04,.05-.17-.3-.25-.46-.39-.71ZM96.75,94.44c.5-.16,1.03-.02,1.52-.28-.51,.04-1.05-.23-1.52,.28Zm-34.45,13.73c-.47,.3-1.03,.3-1.12,1.07,.29-.22,.45-.37,.64-.47,.19-.1,.59,.06,.47-.6Zm-41.55,12.38q-.79,.2-.69,.93c.23-.31,.41-.56,.69-.93Zm14.9-2.33c.05,.11,.1,.22,.15,.32,.2-.03,.46,0,.6-.11,.08-.07-.03-.36-.07-.69-.32,.22-.49,.35-.67,.48Zm.24-100c.09-.2,.19-.4,.3-.63-.18-.11-.34-.21-.53-.33-.24,.44-.17,.73,.23,.96Zm21.65,36.71c-.03-.41,.03-.68-.08-.8-.08-.1-.37-.02-.82-.02,.38,.35,.56,.51,.9,.82Zm-14.54,66.37c.28,.53,.67,.44,1.11,.33-.28-.53-.68-.44-1.11-.33Zm-15.92-19.55c-.06,.08-.13,.16-.19,.24,.11,.44,.39,.62,.99,.42-.31-.25-.55-.45-.8-.65ZM47.87,21.09c.37-.26,.49-.54,.06-1-.12,.39-.66,.62-.06,1ZM118.17,96.03c.12-.26,.22-.46,.33-.69-.18-.11-.34-.21-.57-.35-.04,.24-.12,.41-.08,.53,.05,.17,.2,.32,.33,.51ZM22.75,32.32c-.34-.45-.65-.47-1.08,0h1.08Zm33.19,24.39c.31,.09,.69,.4,.94-.13-.37-.2-.67-.25-.94,.13ZM115.51,22.59c.06,.21,.09,.38,.15,.54,.06,.15,.15,.29,.29,.54q.15-.74-.44-1.08ZM46.54,120.06c-.35,.12-.62,.21-.91,.32q.74,.49,.91-.32Zm-7.31-52.69c.18-.23,.4-.48,.57-.75,.03-.05-.12-.23-.21-.34-.01-.01-.12,.05-.19,.08,.36,.44-.67,.47-.18,1.01Zm73,23.1c-.35-.49-.56-.79-.8-1.13-.21,.62,0,.94,.8,1.13Zm6.7-23.25c-.46-.12-.72-.2-1.14-.31,.22,.38,.34,.59,.49,.84,.2-.16,.32-.26,.65-.53Zm-77.77,22.65c.78,.33,.79,.33,.81-.11,0-.08-.12-.16-.29-.36-.2,.18-.36,.33-.52,.48Zm20.46-45.98c-.35,.24-.61,.41-.86,.58,.46,.12,.99,.36,.86-.58Zm40.04,60.51c-.32,.27-.56,.5-.24,.87,.18-.17,.35-.33,.59-.54-.13-.12-.24-.23-.35-.33Zm50.92-66.05c-.21,.34-.32,.6,.11,.79,.16-.12,.31-.22,.5-.36-.29-.21-.44-.31-.61-.43Zm-10.27-13.03q-.47,.44-.1,.92c.04-.37,.07-.65,.1-.92Zm8.55,15.69v-.88c-.43,.29-.5,.56,0,.88Zm-47.04,27.57c.25-.37,.34-.72-.06-1.06-.27,.37-.33,.72,.06,1.06ZM24.4,91.24c.43-.25,.34-.57,.22-.93-.42,.25-.49,.53-.22,.93ZM53.57,16.36c-.02,.28-.03,.57-.05,.94q.43-.48,.05-.94Zm21.74,86.21c-.18,.38-.28,.59-.4,.84q.68-.06,.4-.84ZM29.36,31.17c-.53-.2-.87-.77-1.25,0h1.25Zm28.49-2.88c-.08-.07-.15-.13-.23-.2-.28,.13-.65,.21-.34,.83,.23-.25,.4-.44,.57-.63Zm-17.19,59.63q-.03,.51,.31,1.03c.09-.42,.15-.8-.31-1.03Zm-4.48-51.69c.05,.07,.11,.15,.16,.22,.19-.14,.42-.26,.57-.43,.07-.08-.01-.28-.04-.53-.28,.3-.49,.52-.7,.74Zm-10.21,5.84c-.06,.1-.13,.2-.19,.3,.16,.17,.33,.35,.49,.52,.07-.06,.14-.12,.21-.18v-.71c-.21,.03-.36,.06-.5,.08Zm26.91,4.55c.21,.29,.35,.52,.36,.51,.23-.13,.45-.29,.77-.51h-1.13Zm-20.18-28.01c-.49-.04-.72-.66-1.19-.2,.27,.44,.65,.35,1.19,.2Zm62.17,24.38c.63-.04,.94-.06,1.34-.08-.44-.66-.77-.25-1.34,.08Zm22.14,32.61c.06,0,.13,.01,.19,.02,.09-.31,.19-.61,.3-.99-.27,.04-.42,.06-.49,.07v.91Zm18.68-40.95c-.29-.21-.5-.36-.74-.54q-.02,.67,.74,.54ZM40.17,61.27q-.07,.72,.69,.4c-.27-.16-.48-.28-.69-.4Zm16.25,52.79c.47,.53,.88,.22,1.3,0h-1.3Zm62.02-17.98c.19,.28,.31,.45,.47,.69,.15-.24,.25-.42,.41-.69h-.89Zm-17.61-32.68c-.07,.08-.18,.19-.29,.31,.5,.39,.81,.37,.88,0-.17-.09-.34-.18-.59-.31Zm-32.43,.95q.52-.59,.05-1.01c-.02,.35-.03,.64-.05,1.01Zm30.11-2.13c-.36,.27-.51,.54-.11,1,.28-.36,.28-.65,.11-1Zm-65.65,.32c0-.08,0-.15,0-.23-.24,0-.48-.02-.72,.01-.06,0-.1,.16-.21,.36,.38-.06,.66-.1,.94-.14Zm5.8,50.39c.12,.19,.23,.36,.34,.55,.11-.2,.19-.37,.29-.56-.09-.09-.19-.2-.31-.33-.12,.12-.22,.23-.32,.34Zm.23-99.38c.19-.13,.3-.2,.42-.28-.09-.09-.18-.25-.28-.26-.12-.01-.25,.1-.38,.16,.07,.11,.14,.22,.24,.38Zm77.48,52.1c.04-.07,.07-.14,.11-.22-.1-.04-.22-.13-.31-.11-.16,.03-.32,.12-.47,.19,.06,.08,.12,.23,.19,.23,.16,0,.33-.06,.49-.09Zm-8.36-5.78c.19-.13,.3-.2,.42-.28-.09-.09-.18-.25-.28-.26-.12-.01-.25,.1-.38,.16,.07,.11,.14,.22,.24,.38ZM43.64,110.39c-.29,.23-.54,.37-.23,.59,.1,.07,.26,.06,.39,.08-.05-.2-.1-.41-.16-.68ZM55.33,12.07c-.46,.19-.43,.53-.28,.91,.09-.3,.19-.61,.28-.91ZM15.22,28.35c-.12,.14-.2,.22-.28,.3,.15,.13,.3,.25,.45,.38,.05-.09,.18-.21,.15-.26-.07-.15-.2-.27-.33-.42ZM109.27,105.45h-.77c.13,.24,.22,.42,.36,.68,.15-.26,.25-.42,.4-.68ZM44.27,16.08c.13-.15,.21-.24,.29-.32-.17-.12-.33-.24-.5-.36-.05,.1-.15,.23-.12,.28,.07,.14,.21,.26,.34,.4Zm100.5,28.7c-.26-.05-.43-.1-.59-.09-.06,0-.11,.16-.17,.25,.16,.06,.33,.14,.49,.16,.05,0,.13-.15,.27-.32Zm-47.46,44.52c.13-.21,.25-.39,.45-.7-.36,.02-.55,.03-.77,.05,.13,.25,.21,.43,.33,.66Zm-61.2-21.13c.13-.23,.52-.33,.21-.64-.06-.06-.36,.12-.61,.21,.16,.18,.26,.28,.4,.43Zm4.67-52.09c-.61,.39-.57,.66-.05,.94,.01-.29,.03-.54,.05-.94Zm97.85,21.29c.27,.11,.57,.31,.64,.25,.34-.3-.04-.43-.25-.65-.11,.11-.22,.22-.39,.4Zm-121.06-.99c-.26-.05-.43-.1-.59-.09-.06,0-.11,.16-.17,.25,.16,.06,.33,.14,.49,.16,.05,0,.13-.15,.27-.32Zm126.09,9.81c.13-.16,.21-.26,.29-.36-.12-.07-.24-.2-.35-.19-.11,0-.21,.15-.31,.24,.1,.09,.2,.18,.37,.32Zm-55.7-9.86c.14,.17,.23,.27,.31,.37,.09-.1,.24-.2,.24-.3,0-.11-.12-.24-.19-.35-.1,.08-.21,.16-.36,.28Zm32.05,10.46c-.23-.29-.37-.54-.59-.23-.07,.1-.06,.26-.08,.39,.2-.05,.41-.1,.68-.16Zm27.37-.05c-.43-.45-.43-.46-1.35-.21,.4,.03,.59,.02,.77,.05,.16,.03,.31,.08,.58,.16ZM15.98,30.1c.19,.18,.3,.28,.46,.42,.11-.26,.54-.37,.2-.67-.07-.06-.36,.13-.66,.25Zm-2.39-12.22c-.27,.08-.54,.15-.89,.25,.54,.52,.71,.1,.89-.25ZM59.01,58.91c.07,.06,.13,.12,.2,.18,.17-.12,.33-.24,.53-.39-.15-.14-.26-.23-.41-.36-.12,.22-.22,.39-.32,.57Zm62.79-12.02c.14,.17,.23,.27,.31,.37,.09-.1,.24-.2,.24-.3,0-.11-.12-.24-.19-.35-.1,.08-.21,.16-.36,.28ZM24.77,35.37v1.13c.62-.45,.04-.78,0-1.13Zm34.63,12.12c.09-.08,.2-.19,.3-.28-.18-.45-.46-.28-.73-.13-.05,.03-.07,.09-.11,.14,.17,.09,.34,.18,.53,.28Zm-6.53,25.54c-.17,.38-.08,.66,.31,.86,.17-.38,.09-.66-.31-.86Zm-22.56-15.12c.64,.28,.88,.17,1.1-.36-.38,.13-.64,.21-1.1,.36Zm6.7,15.9c-.13-.17-.2-.33-.26-.32-.17,.02-.33,.1-.5,.16,.05,.09,.1,.25,.16,.26,.17,0,.34-.05,.59-.09Zm32.9-16.74c-.11,.27-.31,.57-.25,.64,.3,.34,.43-.04,.65-.25-.11-.11-.22-.22-.4-.39Zm-19.57,17.7c-.14-.21-.29-.41-.48-.69-.33,.58,.04,.66,.48,.69Zm73.6-17.94c-.17,.13-.33,.2-.32,.26,.02,.17,.1,.33,.16,.5,.09-.05,.25-.1,.26-.16,0-.17-.05-.34-.09-.59Zm-55.09,63.07c-.14-.12-.22-.2-.3-.28-.13,.15-.25,.3-.38,.45,.09,.05,.21,.18,.26,.15,.15-.07,.27-.2,.42-.33ZM42.46,55.4c.13-.3,.23-.43,.22-.54-.01-.12-.14-.22-.22-.33-.08,.11-.21,.21-.22,.33-.01,.11,.09,.24,.22,.54ZM129.92,19.62c-.14-.17-.23-.27-.31-.37-.09,.1-.24,.2-.24,.3,0,.11,.12,.24,.19,.35,.1-.08,.21-.16,.36-.28Zm-36.04,77.52c.37,.06,.74,.13,1.11,.19-.31-.47-.71-.34-1.11-.19Zm30.3-20.53c-.06,.27-.51,.45-.14,.77,.05,.05,.21,.05,.26,0,.39-.32-.07-.5-.13-.78Zm-60.98,.2c-.13,.21-.25,.39-.45,.7,.36-.02,.55-.03,.77-.05-.13-.25-.21-.43-.33-.66ZM112.61,7.75c-.15-.18-.25-.34-.39-.44-.04-.03-.21,.15-.32,.23,.12,.13,.23,.27,.37,.37,.04,.03,.18-.08,.35-.16Zm3.86,18.16c-.13-.19-.2-.3-.28-.42-.09,.09-.25,.18-.26,.28-.01,.12,.1,.25,.16,.38,.11-.07,.22-.14,.38-.24Zm-33.04,70.88q-.31,.32,.07,.89c-.03-.37-.05-.63-.07-.89Zm47.37-64.51c.19-.13,.3-.2,.42-.28-.09-.09-.18-.25-.28-.26-.12-.01-.25,.1-.38,.16,.07,.11,.14,.22,.24,.38ZM24.45,26.26q-.67-.01-.56,.61c.19-.21,.36-.39,.56-.61Zm.64,71.3q-.08-.75-.61-1.02c.21,.36,.38,.63,.61,1.02ZM122.91,4.03h.88c-.35-.54-.61-.49-.88,0ZM21.85,81.54c-.18,.16-.34,.26-.43,.41-.02,.04,.16,.21,.25,.32,.12-.13,.26-.24,.35-.39,.03-.04-.09-.17-.18-.34Zm86.8-14.69c-.14-.21-.29-.41-.48-.69-.33,.58,.04,.66,.48,.69Zm-76.92-5.67c.05-.02,.1-.03,.15-.05-.04-.2-.08-.41-.12-.61-.1,.04-.2,.07-.3,.11,.09,.18,.18,.37,.28,.55Zm2.14-10.28c.03,.08,.05,.17,.08,.25,.18-.08,.37-.15,.55-.23,0,0-.06-.19-.07-.19-.19,.05-.38,.11-.56,.17Zm30.13,67.09s-.01-.08-.02-.12c-.26,.02-.52,.02-.77,.06-.04,0-.05,.17-.09,.32,.34-.1,.61-.18,.89-.26Zm-16.62-12.15c.26-.01,.51-.03,.79-.04-.25-.62-.53-.21-.79,.04Zm-1.71-52.78c.03-.08,.06-.17,.1-.25-.19-.06-.38-.11-.57-.16,0,0-.07,.18-.07,.18,.18,.08,.36,.15,.54,.22Zm4.67-.34c-.02-.05-.03-.1-.05-.15-.2,.05-.4,.09-.61,.14,.04,.1,.07,.2,.11,.3,.18-.1,.36-.19,.54-.29Zm.2-36.64c-.02-.09-.05-.17-.07-.26-.18,.07-.37,.14-.55,.22,0,0,.06,.19,.07,.18,.19-.04,.37-.09,.55-.14Zm-.53,87.16h-1.04c.25,.61,.54,.21,1.04,0ZM121.1,53.05c-.04,.09-.08,.18-.12,.27,.27,.08,.53,.16,.8,.24l.05-.16c-.25-.12-.49-.23-.74-.35Zm-10.9-35.26c.03,.08,.06,.17,.09,.25,.18-.07,.36-.15,.54-.23,0,0-.06-.19-.07-.19-.19,.05-.38,.11-.56,.17ZM61.2,101.93c.05,.02,.1,.04,.15,.05,.09-.18,.19-.36,.28-.54-.1-.04-.2-.08-.3-.12-.04,.2-.09,.4-.13,.6Zm41.09-52.71c.02,.09,.04,.17,.06,.26,.19-.07,.38-.14,.56-.21,0,0-.05-.19-.06-.19-.19,.04-.37,.09-.56,.14Zm-46.05,50.42c.03-.08,.06-.17,.09-.25-.19-.06-.37-.12-.56-.16,0,0-.07,.18-.07,.19,.18,.08,.36,.16,.54,.23Zm-11.44-2.18c-.18-.05-.37-.11-.55-.14,0,0-.09,.14-.07,.19,.16,.35,.38,.15,.62-.04Zm-4.08-75.7s.06-.08,.05-.11c-.05-.16-.12-.32-.19-.48,0,0-.19,.06-.18,.07,.04,.16,.08,.32,.14,.47,.01,.03,.11,.03,.17,.04Zm5.16,74.13c.2,.43,.41,.35,.62,.03-.2-.43-.41-.36-.62-.03ZM11.79,21.98c.09,.05,.18,.1,.27,.14,.11-.22,.23-.44,.34-.66-.06-.04-.13-.07-.19-.11l-.42,.62ZM83.04,94.72c-.09-.02-.17-.05-.26-.07-.05,.19-.1,.37-.14,.56,0,0,.18,.07,.19,.06,.08-.18,.15-.36,.21-.55ZM41.04,22.25c.05,.02,.1,.04,.15,.05,.09-.18,.19-.36,.28-.54-.1-.04-.2-.08-.3-.12-.04,.2-.09,.4-.13,.6Zm-14.1,68.78s0,.07,0,.11h1.02s0-.07,0-.11h-1.02Zm-.96-5.37c.05-.02,.1-.03,.15-.05-.04-.2-.08-.41-.12-.61-.1,.04-.2,.07-.3,.11,.09,.18,.18,.37,.28,.55ZM149.11,26.43s-.04,.1-.05,.15c.18,.09,.37,.19,.55,.28,.04-.1,.07-.2,.11-.3-.2-.04-.4-.09-.61-.13Zm-77.98,57.99s.08,.06,.11,.05c.16-.05,.32-.12,.48-.19,0,0-.06-.19-.07-.18-.16,.04-.32,.08-.47,.15-.03,.01-.03,.11-.04,.17Zm3.34-28.96s-.04,.1-.05,.15c.18,.09,.36,.19,.54,.28,.04-.1,.07-.2,.11-.3-.2-.05-.4-.09-.6-.14Zm39.98-27.53s-.1-.04-.15-.05c-.09,.18-.19,.36-.28,.54,.1,.04,.2,.07,.3,.11,.05-.2,.09-.4,.14-.6Zm11.76,0s-.1-.04-.15-.05c-.09,.18-.19,.36-.28,.54,.1,.04,.2,.07,.3,.11,.05-.2,.09-.4,.14-.6Zm-60.26,55.28c-.02-.05-.03-.1-.05-.15-.2,.05-.4,.09-.61,.14,.04,.1,.07,.2,.11,.3l.54-.29Zm-30.38-.54s-.06,.08-.05,.11c.05,.16,.12,.32,.19,.48,0,0,.19-.06,.18-.07-.04-.16-.08-.32-.14-.47-.01-.03-.11-.03-.17-.04Zm85.02-1.85c-.29-.2-.42-.35-.52-.33-.1,.02-.26,.21-.25,.31,.01,.1,.19,.24,.31,.25,.13,0,.26-.12,.46-.22Zm-6.59-49.17q-.71,.34-.34,.66c.09-.17,.17-.34,.34-.66Zm-56.08,45.17s-.04,.1-.06,.15c.18,.1,.36,.2,.54,.29,.04-.1,.08-.2,.12-.3-.2-.05-.4-.09-.6-.14Zm64.45-.64c.08,.03,.17,.06,.25,.09,.06-.19,.12-.37,.16-.56,0,0-.18-.07-.19-.07-.08,.18-.16,.36-.23,.54Zm-54.61-.8s-.04,.1-.06,.15c.18,.1,.36,.2,.54,.29,.04-.1,.08-.2,.12-.3-.2-.05-.4-.09-.6-.14Zm3.34-2.18v.93c.62-.35,.14-.58,0-.93Zm79.21-30.45c-.02,.05-.03,.1-.05,.15,.18,.09,.37,.18,.55,.27,.03-.1,.07-.2,.1-.3l-.6-.12Zm-99.71,1.11s-.03-.1-.05-.15c-.2,.04-.4,.08-.6,.12,.03,.1,.07,.2,.1,.3,.18-.09,.37-.18,.55-.27Zm53.51,.23c-.02-.05-.03-.1-.05-.15-.2,.05-.4,.09-.61,.14,.04,.1,.08,.2,.11,.3,.18-.1,.36-.19,.54-.29Zm-6.94,1.61c.08,.03,.17,.06,.25,.09,.05-.19,.11-.37,.15-.56,0,0-.18-.07-.18-.07-.08,.18-.15,.36-.22,.54ZM124.58,6.93c-.14-.07-.24-.17-.31-.15-.07,.02-.18,.16-.17,.23,.01,.07,.15,.18,.23,.17,.07,0,.14-.13,.25-.24Zm9.68,25.19q0-.39-.5-.29c.17,.1,.33,.19,.5,.29Zm-34.32,46.12c.11-.12,.21-.23,.38-.41h-.75c.16,.18,.26,.29,.37,.41Zm-27.36-1.86s-.01,.08-.02,.12h.76s0-.08,0-.12h-.74Zm-35.67,43.43h-.64c.18,.38,.35,.54,.64,0Zm31.74-39.01q.53,.03,.6-.34c-.2,.11-.38,.21-.6,.34Zm20.42-35.7q.38-.34-.04-.6c.01,.21,.03,.39,.04,.6Zm35.47,14.15c.04,.07,.08,.15,.12,.22,.18-.1,.35-.2,.53-.3l-.07-.14c-.19,.07-.39,.15-.58,.22Zm-75.07-14.15c.51-.3,.42-.47,0-.64v.64Zm13.62,74.51s-.1-.03-.15-.04c-.07,.21-.13,.41-.2,.62,.07,.02,.15,.04,.22,.05,.04-.21,.08-.42,.13-.63ZM53.3,30.94c-.11,.1-.23,.17-.24,.24,0,.08,.1,.17,.16,.25,.08-.06,.22-.11,.24-.18,.02-.07-.08-.17-.16-.31ZM114.62,11.51q.03-.53-.34-.6c.11,.2,.21,.38,.34,.6ZM31.86,50.14c-.07,.14-.17,.24-.15,.31,.02,.07,.16,.18,.23,.17,.07-.01,.18-.15,.17-.23,0-.07-.13-.14-.24-.25Zm120.32-17.05c-.14-.07-.24-.17-.31-.15-.07,.02-.18,.16-.17,.23,.01,.07,.15,.18,.23,.17,.07,0,.14-.13,.25-.24Zm-110.96,.25c-.07,.14-.17,.24-.15,.31,.02,.07,.16,.18,.23,.17,.07-.01,.18-.15,.17-.23,0-.07-.13-.14-.24-.25ZM128.98,11.59s-.01,.08-.02,.12h.76s0-.08,0-.12h-.74ZM38.55,84.37l-.17-.13c-.08,.1-.19,.18-.22,.29-.03,.1,.03,.23,.07,.45,.15-.29,.24-.45,.32-.62Zm-6.2,32.09h-.64c.18,.38,.35,.54,.64,0Zm42.69-30.81v-.65c-.46,.27-.4,.46,0,.65Zm-44.45-.42c-.11,.12-.21,.23-.38,.41h.75c-.16-.18-.26-.29-.37-.41Zm34.96,29.07c-.1-.11-.17-.23-.24-.24-.08,0-.17,.1-.25,.16,.06,.08,.11,.22,.18,.24,.07,.02,.17-.08,.31-.16Zm-29.28-28.79c-.11-.11-.17-.24-.24-.25-.08,0-.17,.1-.25,.16,.06,.08,.11,.21,.18,.24,.07,.02,.17-.08,.31-.15Zm36.7,.82s.1,.02,.15,.04c.07-.21,.13-.41,.2-.62-.07-.02-.15-.04-.22-.05l-.13,.63ZM116.1,13.42c.1,.11,.17,.23,.24,.24,.08,0,.17-.1,.25-.16-.06-.08-.11-.22-.18-.24-.07-.02-.17,.08-.31,.16ZM49.92,62.77c.12,.11,.23,.21,.41,.38v-.75c-.18,.16-.29,.26-.41,.37Zm27.15-.08c-.1-.11-.17-.23-.24-.24-.08,0-.17,.1-.25,.16,.06,.08,.11,.22,.18,.24,.07,.02,.17-.08,.31-.16Zm-27.43,48.96c.6-.14,.51-.4,.42-.77-.14,.26-.24,.43-.42,.77Zm-3.86-1.18h-.63c.25,.48,.44,.4,.63,0Zm-12.06-66.56q.05-.51-.32-.64c.11,.23,.2,.42,.32,.64Zm-6.23,42.74c.09-.03,.17-.06,.26-.1-.09-.19-.18-.38-.27-.57-.04,.01-.07,.02-.11,.03,.04,.21,.09,.42,.13,.63Zm45.03-22.38c.6-.01,.39-.33,.33-.7-.13,.28-.22,.47-.33,.7Zm16.46-21.11c.1,.11,.17,.23,.24,.24,.08,0,.17-.1,.25-.16-.06-.08-.11-.22-.18-.24-.07-.02-.17,.08-.31,.16Zm3.36-18c.1,.11,.17,.23,.24,.24,.08,0,.17-.1,.25-.16-.06-.08-.11-.22-.18-.24-.07-.02-.17,.08-.31,.16Zm-64.72-1.12c-.1-.11-.17-.23-.24-.24-.08,0-.17,.1-.25,.16,.06,.08,.11,.22,.18,.24,.07,.02,.17-.08,.31-.16Zm-3.39-.45c-.02-.08-.04-.16-.07-.23-.21,.09-.41,.17-.62,.26,.02,.05,.03,.09,.05,.14,.21-.05,.42-.11,.63-.16Zm59.07,66.7c-.11-.11-.17-.24-.24-.25-.08,0-.17,.1-.25,.16,.06,.08,.11,.21,.18,.24,.07,.02,.17-.08,.31-.15ZM51.77,14.83c-.02-.06-.04-.12-.06-.18-.17,.05-.35,.1-.52,.15,.04,.06,.1,.18,.13,.17,.15-.03,.3-.09,.45-.14Zm-29.33,.48c.04-.08,.08-.16,.11-.24-.21-.06-.43-.11-.64-.17-.01,.04-.02,.07-.04,.11,.19,.1,.37,.2,.56,.3Zm-1.12,50.6c-.02-.52,.19-.94-.4-.74,.1,.19,.2,.36,.4,.74ZM46.6,22.88c.02,.06,.04,.12,.06,.18,.17-.05,.35-.1,.52-.15-.04-.06-.1-.18-.13-.17-.15,.03-.3,.09-.45,.14Zm50.92-.52s-.03,.1-.04,.15c.21,.07,.41,.13,.62,.2,.02-.07,.04-.15,.05-.22l-.63-.13ZM23.73,93.3c.02,.08,.05,.16,.07,.23,.21-.09,.41-.17,.62-.26-.01-.05-.03-.09-.04-.14-.21,.05-.43,.11-.64,.16Zm96.38-.16c0,.08,0,.15,0,.23,.26-.02,.52-.03,.78-.05,0-.04,0-.09,0-.13-.26-.02-.52-.03-.77-.05ZM46.35,22.31c.51-.3,.42-.47,0-.64v.64Zm48,71.26c-.11,.1-.23,.17-.24,.24,0,.08,.1,.17,.16,.25,.08-.06,.22-.11,.24-.18,.02-.07-.08-.17-.16-.31ZM25.94,40.63c-.11-.11-.17-.24-.24-.25-.08,0-.17,.1-.25,.16,.06,.08,.11,.21,.18,.24,.07,.02,.17-.08,.31-.15Zm46.78,25.31c-.06-.02-.11-.05-.17-.07-.09,.18-.17,.36-.26,.55,.07,.03,.13,.06,.2,.09,.08-.19,.15-.37,.23-.56Zm1.7,37.24c-.11,.1-.23,.17-.24,.24,0,.08,.1,.17,.16,.25,.08-.06,.22-.11,.24-.18,.02-.07-.08-.17-.16-.31Zm10.34-9.03v.65c.46-.27,.4-.46,0-.65ZM102.05,15.9v.63c.48-.25,.4-.44,0-.63Zm-67.54,.63c.1,.11,.17,.23,.24,.24,.08,0,.17-.1,.25-.16-.06-.08-.11-.22-.18-.24-.07-.02-.17,.08-.31,.16Zm12.8,19.76c-.1-.11-.17-.23-.24-.24-.08,0-.17,.1-.25,.16,.06,.08,.11,.22,.18,.24,.07,.02,.17-.08,.31-.16Zm97.43,.23c.06-.07,.11-.14,.17-.2-.19-.1-.38-.2-.57-.3-.03,.05-.05,.09-.08,.14,.16,.12,.32,.24,.47,.36ZM53.9,21.55s0-.07,0-.1h-.8s0,.07,0,.1h.8Zm67.56-3.48c-.11-.11-.17-.24-.24-.25-.08,0-.17,.1-.25,.16,.06,.08,.11,.21,.18,.24,.07,.02,.17-.08,.31-.15Zm-7.26,77.76c.07,.06,.14,.11,.2,.17,.09-.2,.19-.4,.28-.6-.05-.02-.09-.05-.14-.07-.12,.17-.23,.33-.35,.5Zm-11.94-75.84c-.11-.11-.17-.24-.24-.25-.08,0-.17,.1-.25,.16,.06,.08,.11,.21,.18,.24,.07,.02,.17-.08,.31-.15Zm-10,29.41q0-.39-.5-.29c.17,.1,.33,.19,.5,.29Zm-19.79,50.77c-.34-.19-.44-.29-.51-.27-.08,.02-.12,.15-.18,.23,.08,.06,.16,.16,.25,.17,.1,.01,.21-.06,.45-.14Zm12.82-.29s-.04,.1-.06,.14c.13,.07,.25,.13,.38,.2,.01-.07,.05-.19,.03-.21-.1-.06-.23-.09-.34-.14Zm-45.16-1.39s0,.07,0,.11h.6s0-.07,0-.11h-.6Zm5.64-78.73h-.12v.6h.12v-.6Zm51.78-.54c.05-.15,.11-.27,.1-.28-.11-.06-.22-.09-.34-.14,.07,.12,.14,.24,.24,.42Zm19.82,1.57c-.15-.06-.27-.11-.28-.1-.06,.1-.11,.22-.15,.32,.13-.07,.25-.13,.44-.22Zm-16.03,74.81s0,.07,0,.11h.6s0-.07,0-.11h-.6Zm-66.31-26.54s-.09-.09-.14-.14c-.11,.1-.21,.21-.32,.31,.05,.05,.1,.1,.15,.15,.1-.11,.21-.21,.31-.32Zm93.53-20.31s-.09,.09-.14,.14c.1,.11,.21,.21,.31,.32,.05-.05,.1-.1,.15-.15-.11-.1-.21-.21-.32-.31ZM45.74,17.79s-.08,.07-.11,.11c.1,.11,.2,.21,.3,.32,.04-.04,.08-.07,.11-.11-.1-.11-.2-.21-.31-.32Zm1.42,22.29s.04-.09,.06-.14c-.13-.07-.25-.13-.38-.2-.01,.07-.05,.19-.03,.21,.1,.06,.23,.09,.34,.14Zm44.49,12.89s-.07-.08-.11-.11c-.11,.1-.21,.2-.32,.3,.04,.04,.07,.08,.11,.11,.11-.1,.21-.2,.32-.31Zm-57.36,51.56c.15,.06,.27,.11,.28,.1,.06-.1,.11-.21,.15-.32-.13,.07-.25,.13-.44,.22ZM92.15,35.66l.14,.07c.07-.12,.14-.24,.21-.37-.07-.01-.19-.06-.2-.04-.07,.1-.1,.22-.15,.34Zm-55.69,5.03c.15,.05,.27,.11,.28,.1,.06-.11,.09-.22,.14-.34-.12,.07-.24,.14-.42,.24Zm44.41,31.93l.14,.07c.07-.12,.14-.24,.21-.37-.07-.01-.19-.06-.2-.04-.07,.1-.1,.22-.15,.34Zm-41.62,32.29s-.08,.07-.11,.11c.1,.11,.2,.21,.3,.32,.04-.04,.08-.07,.11-.11-.1-.11-.2-.21-.31-.32Zm39.43,.82c.15,.06,.27,.11,.28,.1,.06-.1,.11-.22,.15-.33-.13,.07-.25,.13-.44,.22Zm13.32-83.86s-.04,.1-.06,.14c.13,.07,.25,.13,.38,.2,.01-.07,.05-.19,.03-.21-.1-.06-.23-.09-.34-.14Zm26.07-6.5c-.08,.06-.18,.11-.23,.19-.03,.04,.03,.13,.05,.2,.11-.08,.21-.15,.32-.23-.04-.05-.08-.09-.14-.17ZM50.56,73.29c-.09-.08-.17-.15-.25-.23-.05,.07-.09,.14-.14,.21,.09,.05,.17,.12,.26,.15,.02,0,.08-.08,.13-.14Zm47.89-30.15c.06-.04,.15-.1,.15-.11-.04-.09-.09-.18-.14-.27-.08,.04-.16,.09-.23,.13,.08,.08,.15,.16,.23,.25Zm7.72,21.48c0,.06,0,.13,.01,.19,.17-.03,.34-.06,.51-.09,0-.03,0-.07-.01-.1h-.51ZM33.33,107.4c-.03-.1-.05-.17-.06-.24-.11,.08-.21,.15-.32,.23,.04,.05,.09,.14,.12,.13,.1-.02,.18-.07,.27-.11Zm16.8,.97s-.09-.04-.14-.06c-.07,.13-.13,.25-.2,.38,.07,.01,.19,.05,.21,.03,.06-.1,.09-.23,.14-.34Zm25.89-20.4c-.06,0-.12,0-.19,.01,.03,.17,.05,.34,.08,.51,.04,0,.07,0,.11,0v-.51Zm48.3-.26s.07,.08,.11,.11c.11-.1,.21-.2,.32-.3-.04-.04-.07-.08-.11-.11-.11,.1-.21,.2-.32,.31Zm-90.3-23.5c-.06,0-.12,0-.19,.01,.03,.17,.05,.34,.08,.51,.04,0,.07,0,.11,0v-.51ZM105.76,25.63s0-.07,0-.11h-.6s0,.07,0,.11h.6Zm5.71-11.22c-.05,.15-.11,.27-.1,.28,.11,.06,.22,.09,.34,.14-.07-.12-.14-.24-.24-.42ZM41.49,111.77s-.07-.08-.11-.11c-.11,.1-.21,.2-.32,.3,.04,.04,.07,.08,.11,.11,.11-.1,.21-.2,.32-.31Zm18.3-25.94c.06,0,.12,0,.19-.01-.03-.17-.05-.34-.08-.51-.04,0-.07,0-.11,0v.51Zm20.48-12.14c-.05,.15-.11,.27-.1,.28,.11,.06,.22,.09,.34,.14-.07-.12-.14-.24-.24-.42Zm-22.44,38.18c-.06-.08-.11-.18-.19-.23-.04-.03-.13,.03-.2,.05,.08,.11,.15,.21,.23,.32,.05-.04,.09-.08,.17-.14Zm-17.99-.03c-.08,.06-.17,.11-.23,.19-.03,.04,.03,.13,.05,.2,.11-.08,.21-.15,.32-.23-.04-.05-.08-.09-.14-.17Zm1.12,3.55s0-.07,0-.11h-.6s0,.07,0,.11h.6Zm-2.71-40.24s-.04,.1-.06,.14c.13,.07,.25,.13,.38,.2,.01-.07,.05-.19,.03-.21-.1-.06-.23-.09-.34-.14Zm5.34,41.2c-.04-.06-.1-.15-.11-.15-.09,.04-.18,.09-.27,.14,.04,.08,.09,.16,.13,.23,.08-.08,.16-.15,.25-.23Zm49.92-60.96c-.04-.06-.1-.15-.11-.15-.09,.04-.18,.09-.27,.14,.04,.08,.09,.16,.13,.23,.08-.08,.16-.15,.25-.23Zm-47.34,61.28s-.04,.1-.06,.14c.13,.07,.25,.13,.38,.2,.01-.07,.05-.19,.03-.21-.1-.06-.23-.09-.34-.14Zm95.55-60.78c0-.06,0-.12-.01-.19-.17,.03-.34,.05-.51,.08,0,.04,0,.07,0,.11h.51ZM124.31,11.18l.14,.07c.07-.12,.14-.24,.21-.37-.07-.01-.19-.06-.2-.04-.07,.1-.1,.22-.15,.34Zm5.04,46.28s.07,.08,.11,.11c.11-.1,.21-.2,.32-.3-.04-.04-.07-.08-.11-.11-.11,.1-.21,.2-.32,.31ZM45.52,29.24v-.12h-.6v.12h.6Zm6.54,31.1s.09,.09,.14,.14c.11-.1,.21-.21,.32-.31-.05-.05-.1-.1-.15-.15-.1,.11-.21,.21-.31,.32Zm41.46-31.1v-.12h-.6v.12h.6Zm-23.96,89.45s-.09-.04-.14-.06c-.07,.13-.13,.25-.2,.38,.07,.01,.19,.05,.21,.03,.06-.1,.09-.23,.14-.34ZM57.99,31.39c-.04-.06-.1-.15-.11-.15-.09,.04-.18,.09-.27,.14,.04,.08,.09,.16,.13,.23,.08-.08,.16-.15,.25-.23ZM113.25,8.76s-.1-.04-.14-.06c-.07,.13-.13,.25-.2,.38,.07,.01,.19,.05,.21,.03,.06-.1,.09-.23,.14-.34Zm-41.73,70.83s.09,.04,.14,.06c.07-.13,.13-.25,.2-.38-.07-.01-.19-.05-.21-.03-.06,.1-.09,.23-.14,.34Zm-15.22,40.2s-.08,.07-.11,.11c.1,.11,.2,.21,.3,.32,.04-.04,.08-.07,.11-.11-.1-.11-.2-.21-.31-.32Zm50.38-42.99s.04-.1,.06-.14c-.13-.07-.25-.13-.38-.2-.01,.07-.05,.19-.03,.21,.1,.06,.23,.09,.34,.14Zm-80.55,2.76c-.03-.1-.05-.17-.06-.24-.11,.08-.21,.15-.32,.23,.04,.05,.09,.14,.12,.13,.1-.02,.18-.07,.27-.11Zm36.03-22.1s.07,.08,.11,.11c.11-.1,.21-.2,.32-.3-.04-.04-.07-.08-.11-.11-.11,.1-.21,.2-.32,.31Zm53.53,19.11c-.08,.06-.18,.11-.23,.19-.03,.04,.03,.13,.05,.2,.11-.08,.21-.15,.32-.23-.04-.05-.08-.09-.14-.17Zm26.61-31.21c.06,.08,.11,.17,.19,.23,.04,.03,.13-.03,.2-.05-.08-.11-.15-.21-.23-.32-.05,.04-.09,.08-.17,.14Zm-81.16,13.32c-.06,0-.12,0-.19,.01l.08,.51s.07,0,.11,0v-.51Zm8.99,18.24c.05,.04,.1,.11,.14,.11,.07,0,.13-.04,.2-.06-.04-.04-.08-.12-.12-.12-.06,0-.13,.04-.22,.07Zm-28.92,44.68c-.05-.04-.1-.11-.14-.11-.07,0-.13,.04-.2,.06,.04,.04,.08,.12,.12,.12,.06,0,.13-.04,.22-.07Zm76.93-44.11s.06,0,.09,0v-.37h-.09v.37Zm7.3,.15c-.08-.03-.14-.07-.21-.07-.04,0-.08,.07-.12,.12,.07,.03,.13,.07,.19,.07,.04,0,.09-.07,.13-.11ZM55.16,121.43s-.08-.09-.12-.13c-.02,.07-.07,.13-.06,.2,0,.04,.07,.08,.11,.12,.03-.06,.05-.13,.07-.18ZM35.32,32.76c.05,.04,.1,.11,.14,.11,.07,0,.13-.04,.2-.06-.04-.04-.08-.12-.12-.12-.06,0-.13,.04-.22,.07Zm30.36,45.4c-.05-.04-.1-.11-.14-.11-.07,0-.13,.04-.2,.06,.04,.04,.08,.12,.12,.12,.06,0,.13-.04,.22-.07Zm56.88,0c-.05-.04-.1-.11-.14-.11-.07,0-.13,.04-.2,.06,.04,.04,.08,.12,.12,.12,.06,0,.13-.04,.22-.07ZM40.38,8.36s.06,0,.09,0v-.37h-.09v.37Zm54.81,36.35s-.06,0-.09,0v.37h.09v-.37Zm18.69,31.68c-.04,.05-.11,.1-.11,.14,0,.07,.04,.13,.06,.2,.04-.04,.12-.08,.12-.12,0-.06-.04-.13-.07-.22Zm-22.77-29.72c-.08-.03-.14-.07-.21-.07-.04,0-.08,.07-.12,.12,.07,.03,.13,.07,.19,.07,.04,0,.09-.07,.13-.11ZM45.03,119.35h-.09v.37h.09v-.37Zm-17.95-39.2s-.08-.09-.12-.13c-.02,.07-.07,.13-.06,.2,0,.04,.07,.08,.11,.12,.03-.06,.05-.13,.07-.18Zm34.77,.4c-.05-.04-.1-.11-.14-.11-.07,0-.13,.04-.2,.06,.04,.04,.08,.12,.12,.12,.06,0,.13-.04,.22-.07Zm57-4.36c.05,.04,.1,.11,.14,.11,.07,0,.13-.04,.2-.06-.04-.04-.08-.12-.12-.12-.06,0-.13,.04-.22,.07Zm.25-32.08s.06,0,.09,0v-.37h-.09v.37ZM50.07,118.43c-.08-.03-.14-.07-.21-.07-.04,0-.08,.07-.12,.11,.06,.03,.13,.07,.19,.07,.04,0,.09-.07,.13-.11ZM110.76,31.52c-.04,.05-.11,.1-.11,.14,0,.07,.04,.13,.06,.2,.04-.04,.12-.08,.12-.12,0-.06-.04-.13-.07-.22Zm28.36-20.56c-.05-.04-.1-.11-.14-.11-.07,0-.13,.04-.2,.06,.04,.04,.08,.12,.12,.12,.06,0,.13-.04,.22-.07ZM21.4,31.32c.05,.04,.1,.11,.14,.11,.07,0,.13-.04,.2-.06-.04-.04-.08-.12-.12-.12-.06,0-.13,.04-.22,.07Zm5.92,86.51s-.08-.09-.12-.13c-.02,.07-.07,.13-.06,.2,0,.04,.07,.08,.11,.12,.03-.07,.05-.13,.07-.18ZM66.06,50.12s.06,0,.09,0v-.37h-.09v.37Zm9.47,32.11c-.05-.04-.1-.11-.14-.11-.07,0-.13,.04-.2,.06,.04,.04,.08,.12,.12,.12,.06,0,.13-.04,.22-.07Zm-1.44-31.2c-.05-.04-.1-.11-.14-.11-.07,0-.13,.04-.2,.06,.04,.04,.08,.12,.12,.12,.06,0,.13-.04,.22-.07Zm-42.73-4.16s-.06,0-.09,0v.37h.09v-.37ZM103.26,12.44s.06,0,.09,0v-.37h-.09v.37ZM47.58,62.12s.06,0,.09,0v-.37h-.09v.37ZM121.09,30.19c.03-.08,.07-.14,.07-.21,0-.04-.07-.08-.11-.12-.03,.07-.07,.13-.07,.19,0,.04,.07,.09,.11,.13ZM50.6,12.95s-.08-.09-.12-.13c-.02,.07-.07,.13-.06,.2,0,.04,.07,.08,.11,.12,.03-.07,.05-.13,.07-.18Zm52.18,16.77s.06,0,.09,0v-.37h-.09v.37ZM55.59,112.63h-.09v.37h.09v-.37ZM120.28,48.6c.05,.04,.1,.11,.14,.11,.07,0,.13-.04,.2-.06-.04-.04-.08-.12-.12-.12-.06,0-.13,.04-.22,.07ZM53.2,12.88c-.05-.04-.1-.11-.14-.11-.07,0-.13,.04-.2,.06,.04,.04,.08,.12,.12,.12,.06,0,.13-.04,.22-.07Zm77.31,.08s-.08-.09-.12-.13c-.02,.07-.07,.13-.06,.2,0,.04,.07,.08,.11,.12,.03-.07,.05-.13,.07-.18Zm21.68,30.34v.09h.37v-.09h-.37ZM46.97,62.82s0-.06,0-.09h-.37v.09h.37Zm3.58-48.79c-.08-.03-.14-.07-.21-.07-.04,0-.08,.07-.12,.11,.06,.02,.13,.07,.19,.07,.04,0,.09-.07,.13-.11Zm-1.23,96.2c-.04,.05-.11,.1-.11,.14,0,.07,.04,.13,.06,.2,.04-.04,.12-.08,.12-.12,0-.06-.04-.13-.07-.22ZM117.08,14.22c-.02-.07-.05-.13-.07-.2-.04,.04-.12,.08-.12,.12,0,.06,.04,.13,.07,.2,.04-.04,.08-.08,.13-.12ZM63.64,107.16c.05,.04,.1,.11,.14,.11,.07,0,.13-.04,.2-.06-.04-.04-.08-.12-.12-.12-.06,0-.13,.04-.22,.07Zm48.8-41.21c.03-.08,.07-.14,.07-.21,0-.04-.07-.08-.11-.12-.02,.07-.07,.13-.07,.19,0,.04,.07,.09,.11,.13Zm-46.77,38.09c-.08-.03-.14-.07-.21-.07-.04,0-.08,.07-.12,.11,.06,.02,.13,.07,.19,.07,.04,0,.09-.07,.13-.11Zm48.84-.26v.09h.37v-.09h-.37Zm-13.2-37.65c.05,.04,.1,.11,.14,.11,.07,0,.13-.04,.2-.06-.04-.04-.08-.12-.12-.12-.06,0-.13,.04-.22,.07ZM26.92,39.93s0,.06,0,.09h.37v-.09h-.37Zm15.6,26.91c.05,.04,.1,.11,.14,.11,.07,0,.13-.04,.2-.06-.04-.04-.08-.12-.12-.12-.06,0-.13,.04-.22,.07Zm31.79,17.52c-.08-.03-.14-.07-.21-.07-.04,0-.08,.07-.12,.11,.06,.03,.13,.07,.19,.07,.04,0,.09-.07,.13-.11Zm-6.19-17.16s-.08-.09-.12-.13c-.02,.07-.07,.13-.06,.2,0,.04,.07,.08,.11,.12,.03-.06,.05-.13,.07-.18Zm66.43-13.84s-.06,0-.09,0v.37h.09v-.37ZM20.36,84.95s-.08-.09-.12-.13c-.02,.07-.07,.13-.06,.2,0,.04,.07,.08,.11,.12,.03-.07,.05-.13,.07-.18ZM149.69,34.02v-.09h-.37v.09h.37Zm-5.73,21.17s-.08-.09-.12-.13c-.02,.07-.07,.13-.06,.2,0,.04,.07,.08,.11,.12,.03-.06,.05-.13,.07-.18Zm-44.43-16.4c-.05-.04-.1-.11-.14-.11-.07,0-.13,.04-.2,.06,.04,.04,.08,.12,.12,.12,.06,0,.13-.04,.22-.07Zm-33.08-.34c-.02-.07-.05-.13-.07-.2-.04,.04-.12,.08-.12,.12,0,.06,.04,.13,.07,.2,.04-.04,.08-.08,.13-.12Zm55.92,36.72c-.02-.07-.05-.13-.07-.2-.04,.04-.12,.08-.12,.12,0,.06,.04,.13,.07,.2,.04-.04,.08-.08,.13-.12Zm-6.64-1.14c.05,.04,.1,.11,.14,.11,.07,0,.13-.04,.2-.06-.04-.04-.08-.12-.12-.12-.06,0-.13,.04-.22,.07Zm-58.68-.2c-.05-.04-.1-.11-.14-.11-.07,0-.13,.04-.2,.06,.04,.04,.08,.12,.12,.12,.06,0,.13-.04,.22-.07Zm42.72-13.41v-.09h-.37v.09h.37Zm16.67,39.05c.05,.04,.1,.11,.14,.11,.07,0,.13-.04,.2-.06-.04-.04-.08-.12-.12-.12-.06,0-.13,.04-.22,.07Zm-1.44-25.95v.09h.37v-.09h-.37ZM33.01,19.39c.03-.08,.07-.14,.07-.21,0-.04-.07-.08-.11-.12-.02,.06-.07,.13-.07,.19,0,.04,.07,.09,.11,.13Zm-17.98,.12h-.09v.37h.09v-.37ZM120.64,86.32c-.05-.04-.1-.11-.14-.11-.07,0-.13,.04-.2,.06,.04,.04,.08,.12,.12,.12,.06,0,.13-.04,.22-.07Zm-48.04,.16c-.04,.05-.11,.1-.11,.14,0,.07,.04,.13,.06,.2,.04-.04,.12-.08,.12-.12,0-.06-.04-.13-.07-.22Zm-18.68,12.08c-.05-.04-.1-.11-.14-.11-.07,0-.13,.04-.2,.06,.04,.04,.08,.12,.12,.12,.06,0,.13-.04,.22-.07ZM93.48,19.52c-.04,.05-.11,.1-.11,.14,0,.07,.04,.13,.06,.2,.04-.04,.12-.08,.12-.12,0-.06-.04-.13-.07-.22ZM48.52,97.05s0,.06,0,.09h.37v-.09h-.37Zm-30.72,.03c.05,.04,.1,.11,.14,.11,.07,0,.13-.04,.2-.06-.04-.04-.08-.12-.12-.12-.06,0-.13,.04-.22,.07ZM24.88,24.64c-.05-.04-.1-.11-.14-.11-.07,0-.13,.04-.2,.06,.04,.04,.08,.12,.12,.12,.06,0,.13-.04,.22-.07ZM113.21,96.18v-.09h-.37v.09h.37Zm-6.53-27.47c-.04,.05-.11,.1-.11,.14,0,.07,.04,.13,.06,.2,.04-.04,.12-.08,.12-.12,0-.06-.04-.13-.07-.22Zm-61.17,4.56s-.06,0-.09,0v.37h.09v-.37Zm-.91,15.83c-.02-.07-.05-.13-.07-.2-.04,.04-.12,.08-.12,.12,0,.06,.04,.13,.07,.2,.04-.04,.08-.08,.13-.12Zm-7.73,5.82c-.08-.03-.14-.07-.21-.07-.04,0-.08,.07-.12,.11,.06,.02,.13,.07,.19,.07,.04,0,.09-.07,.13-.11ZM30.41,21.78s0-.06,0-.09h-.37v.09h.37Zm43.55,71.93c.05,.04,.1,.11,.14,.11,.07,0,.13-.04,.2-.06-.04-.04-.08-.12-.12-.12-.06,0-.13,.04-.22,.07Zm-23.04-58.32c.05,.04,.1,.11,.14,.11,.07,0,.13-.04,.2-.06-.04-.04-.08-.12-.12-.12-.06,0-.13,.04-.22,.07Zm49.8,58.12c-.05-.04-.1-.11-.14-.11-.07,0-.13,.04-.2,.06,.04,.04,.08,.12,.12,.12,.06,0,.13-.04,.22-.07Zm-3.85-1.96c-.08-.03-.14-.07-.21-.07-.04,0-.08,.07-.12,.12,.06,.02,.13,.07,.19,.07,.04,0,.09-.07,.13-.11Zm37.01-36.54c-.02-.07-.05-.13-.07-.2-.04,.04-.12,.08-.12,.12,0,.06,.04,.13,.07,.2,.04-.04,.08-.08,.13-.12ZM26.58,91.1s-.05-.08-.08-.08c-.03,0-.06,.04-.08,.07,.03,.03,.05,.08,.08,.08s.06-.04,.08-.07Zm85.6-.33s-.08,.05-.08,.08c0,.03,.04,.06,.07,.09,.03-.03,.08-.05,.08-.08,0-.03-.04-.06-.07-.08ZM45.23,35.1s-.08,.05-.08,.08c0,.03,.04,.06,.07,.09,.03-.03,.08-.05,.08-.08,0-.03-.04-.06-.07-.08Zm58.56,37.68s-.08,.05-.08,.08c0,.03,.04,.06,.07,.09,.03-.03,.08-.05,.08-.08,0-.03-.04-.06-.07-.08Zm-65.44,19.05s-.05-.08-.08-.08c-.03,0-.06,.04-.08,.07,.03,.03,.05,.08,.08,.08,.03,0,.06-.04,.08-.07ZM103.86,35.18s-.05-.08-.08-.08c-.03,0-.06,.04-.08,.07,.03,.03,.05,.08,.08,.08s.06-.04,.08-.07ZM38.34,72.62s-.05-.06-.08-.09c-.03,.03-.08,.05-.08,.08,0,.03,.04,.06,.07,.08,.03-.03,.06-.05,.08-.08ZM29.7,21.98s-.05-.08-.08-.08c-.03,0-.06,.04-.08,.07,.03,.03,.05,.08,.08,.08,.03,0,.06-.04,.08-.07ZM116.1,93.26s-.05-.06-.08-.09c-.03,.03-.08,.05-.08,.08,0,.03,.04,.06,.07,.08,.03-.03,.06-.05,.08-.08ZM37.55,35.1s-.08,.05-.08,.08c0,.03,.04,.06,.07,.09,.03-.03,.08-.05,.08-.08s-.04-.06-.07-.08Zm5.99-11.84s.06-.05,.09-.08c-.03-.03-.05-.08-.08-.08-.03,0-.06,.04-.08,.07,.03,.03,.05,.06,.08,.08Zm1.53,50.09s-.05-.08-.08-.08c-.03,0-.06,.04-.08,.07,.03,.03,.05,.08,.08,.08s.06-.04,.08-.07Zm73.68-1.92s-.05-.06-.08-.09c-.03,.03-.08,.05-.08,.08s.04,.06,.07,.08c.03-.03,.06-.05,.08-.08Zm-63.68-16.49s.06-.05,.09-.08c-.03-.03-.05-.08-.08-.08-.03,0-.06,.04-.08,.07,.03,.03,.05,.06,.08,.08Zm66.72,16.32s.06-.05,.09-.08c-.03-.03-.05-.08-.08-.08-.03,0-.06,.04-.08,.07,.03,.03,.05,.06,.08,.08ZM24.59,23.58s-.08,.05-.08,.08c0,.03,.04,.06,.07,.09,.03-.03,.08-.05,.08-.08,0-.03-.04-.06-.07-.08Zm45.43,46.41s-.05-.06-.08-.09c-.03,.03-.08,.05-.08,.08,0,.03,.04,.06,.07,.08,.03-.03,.06-.05,.08-.08Zm17.52,24.72s-.05-.06-.08-.09c-.03,.03-.08,.05-.08,.08,0,.03,.04,.06,.07,.08,.03-.03,.06-.05,.08-.08Zm-12.08-5.45s.06-.05,.09-.08c-.03-.03-.05-.08-.08-.08-.03,0-.06,.04-.08,.07,.03,.03,.05,.06,.08,.08Zm-19.67-.4s-.08,.05-.08,.08c0,.03,.04,.06,.07,.09,.03-.03,.08-.05,.08-.08,0-.03-.04-.06-.07-.08Zm-11.52,6.48s-.08,.05-.08,.08c0,.03,.04,.06,.07,.09,.03-.03,.08-.05,.08-.08,0-.03-.04-.06-.07-.08Zm97.76-46.71s-.05-.08-.08-.08c-.03,0-.06,.04-.08,.07,.03,.03,.05,.08,.08,.08,.03,0,.06-.04,.08-.07Zm-46.56-27.36s-.05-.08-.08-.08c-.03,0-.06,.04-.08,.07,.03,.03,.05,.08,.08,.08,.03,0,.06-.04,.08-.07Zm-42.48,15.12s-.05-.06-.08-.09c-.03,.03-.08,.05-.08,.08s.04,.06,.07,.08c.03-.03,.06-.05,.08-.08Zm-.07,59.19s-.08,.05-.08,.08c0,.03,.04,.06,.07,.09,.03-.03,.08-.05,.08-.08,0-.03-.04-.06-.07-.08ZM105.94,23.98s.06-.05,.09-.08c-.03-.03-.05-.08-.08-.08s-.06,.04-.08,.07c.03,.03,.05,.06,.08,.08Zm-3.51,71.69s-.05-.08-.08-.08c-.03,0-.06,.04-.08,.07,.03,.03,.05,.08,.08,.08,.03,0,.06-.04,.08-.07Zm44.79-41.45s.06-.05,.09-.08c-.03-.03-.05-.08-.08-.08s-.06,.04-.08,.07c.03,.03,.05,.06,.08,.08ZM24.82,24.22s.06-.05,.09-.08c-.03-.03-.05-.08-.08-.08-.03,0-.06,.04-.08,.07,.03,.03,.05,.06,.08,.08Zm122.4-3.12s.06-.05,.09-.08c-.03-.03-.05-.08-.08-.08-.03,0-.06,.04-.08,.07,.03,.03,.05,.06,.08,.08Zm-27.36,75.12s.06-.05,.09-.08c-.03-.03-.05-.08-.08-.08-.03,0-.06,.04-.08,.07,.03,.03,.05,.06,.08,.08Zm-35.03-7.84s-.08,.05-.08,.08c0,.03,.04,.06,.07,.09,.03-.03,.08-.05,.08-.08,0-.03-.04-.06-.07-.08ZM13.79,20.7s-.08,.05-.08,.08c0,.03,.04,.06,.07,.09,.03-.03,.08-.05,.08-.08,0-.03-.04-.06-.07-.08Zm79.52,16.17s-.05-.08-.08-.08c-.03,0-.06,.04-.08,.07,.03,.03,.05,.08,.08,.08,.03,0,.06-.04,.08-.07Zm-39.36,1.2s-.05-.08-.08-.08c-.03,0-.06,.04-.08,.07,.03,.03,.05,.08,.08,.08,.03,0,.06-.04,.08-.07Zm-2.49,35.35s.06-.05,.09-.08c-.03-.03-.05-.08-.08-.08-.03,0-.06,.04-.08,.07,.03,.03,.05,.06,.08,.08ZM140.58,24.86s-.05-.06-.08-.09c-.03,.03-.08,.05-.08,.08s.04,.06,.07,.08c.03-.03,.06-.05,.08-.08Zm-98.16-5.04s-.05-.08-.08-.08c-.03,0-.06,.04-.08,.07,.03,.03,.05,.08,.08,.08,.03,0,.06-.04,.08-.07Zm30.72,29.28s-.05-.08-.08-.08c-.03,0-.06,.04-.08,.07,.03,.03,.05,.08,.08,.08,.03,0,.06-.04,.08-.07Zm-5.52,48.24s-.05-.06-.08-.09c-.03,.03-.08,.05-.08,.08,0,.03,.04,.06,.07,.08,.03-.03,.06-.05,.08-.08Zm27.84,0s-.05-.08-.08-.08c-.03,0-.06,.04-.08,.07,.03,.03,.05,.08,.08,.08,.03,0,.06-.04,.08-.07ZM51.23,57.66s-.08,.05-.08,.08c0,.03,.04,.06,.07,.08,.03-.03,.08-.05,.08-.08,0-.03-.04-.06-.07-.08Zm62.72,40.65s-.05-.08-.08-.08c-.03,0-.06,.04-.08,.07,.03,.03,.05,.08,.08,.08,.03,0,.06-.04,.08-.07Zm-37.92-30.24s-.05-.06-.08-.09c-.03,.03-.08,.05-.08,.08,0,.03,.04,.06,.07,.08,.03-.03,.06-.05,.08-.08Zm35.45-33.21s-.08,.05-.08,.08c0,.03,.04,.06,.07,.09,.03-.03,.08-.05,.08-.08s-.04-.06-.07-.08Zm-39.29,51.45s-.05-.06-.08-.09c-.03,.03-.08,.05-.08,.08,0,.03,.04,.06,.07,.08,.03-.03,.06-.05,.08-.08ZM114.9,19.34s-.05-.08-.08-.08c-.03,0-.06,.04-.08,.07,.03,.03,.05,.08,.08,.08s.06-.04,.08-.07Zm-27.84,15.6s-.05-.08-.08-.08c-.03,0-.06,.04-.08,.07,.03,.03,.05,.08,.08,.08,.03,0,.06-.04,.08-.07Zm-2.4,64.08s-.05-.06-.08-.09c-.03,.03-.08,.05-.08,.08,0,.03,.04,.06,.07,.08,.03-.03,.06-.05,.08-.08Zm16.8-60.96s-.05-.06-.08-.09c-.03,.03-.08,.05-.08,.08,0,.03,.04,.06,.07,.08,.03-.03,.06-.05,.08-.08Zm-28.8,61.2s-.05-.06-.08-.09c-.03,.03-.08,.05-.08,.08s.04,.06,.07,.08c.03-.03,.06-.05,.08-.08Zm-30.07,.15s-.08,.05-.08,.08c0,.03,.04,.06,.07,.09,.03-.03,.08-.05,.08-.08,0-.03-.04-.06-.07-.08Zm73.2-25.92s-.08,.05-.08,.08c0,.03,.04,.06,.07,.09,.03-.03,.08-.05,.08-.08s-.04-.06-.07-.08Zm-71.45,26.49s-.05-.06-.08-.09c-.03,.03-.08,.05-.08,.08,0,.03,.04,.06,.07,.08,.03-.03,.06-.05,.08-.08Zm5.52-32.16s-.05-.06-.08-.09c-.03,.03-.08,.05-.08,.08,0,.03,.04,.06,.07,.08,.03-.03,.06-.05,.08-.08Zm-.07-41.37s-.08,.05-.08,.08c0,.03,.04,.06,.07,.09,.03-.03,.08-.05,.08-.08,0-.03-.04-.06-.07-.08Zm-4,73.77s-.05-.08-.08-.08c-.03,0-.06,.04-.08,.07,.03,.03,.05,.08,.08,.08,.03,0,.06-.04,.08-.07ZM150.35,18.78s-.08,.05-.08,.08c0,.03,.04,.06,.07,.09,.03-.03,.08-.05,.08-.08,0-.03-.04-.06-.07-.08ZM44.34,100.46s-.05-.08-.08-.08c-.03,0-.06,.04-.08,.07,.03,.03,.05,.08,.08,.08,.03,0,.06-.04,.08-.07Zm6.48-25.2s-.05-.08-.08-.08c-.03,0-.06,.04-.08,.07,.03,.03,.05,.08,.08,.08,.03,0,.06-.04,.08-.07Zm78.72-36.48s-.05-.06-.08-.09c-.03,.03-.08,.05-.08,.08,0,.03,.04,.06,.07,.08,.03-.03,.06-.05,.08-.08Zm9.84-12s-.05-.08-.08-.08c-.03,0-.06,.04-.08,.07,.03,.03,.05,.08,.08,.08,.03,0,.06-.04,.08-.07Zm-65.04,40.32s-.05-.06-.08-.09c-.03,.03-.08,.05-.08,.08,0,.03,.04,.06,.07,.08,.03-.03,.06-.05,.08-.08Zm-31.44,17.52s-.05-.08-.08-.08c-.03,0-.06,.04-.08,.07,.03,.03,.05,.08,.08,.08,.03,0,.06-.04,.08-.07ZM31.62,17.9s-.05-.06-.08-.09c-.03,.03-.08,.05-.08,.08,0,.03,.04,.06,.07,.08,.03-.03,.06-.05,.08-.08Zm56.08,15.91s.06-.05,.09-.08c-.03-.03-.05-.08-.08-.08-.03,0-.06,.04-.08,.07,.03,.03,.05,.06,.08,.08ZM34.43,102.54s-.08,.05-.08,.08c0,.03,.04,.06,.07,.09,.03-.03,.08-.05,.08-.08,0-.03-.04-.06-.07-.08ZM15.06,17.18s-.05-.06-.08-.09c-.03,.03-.08,.05-.08,.08,0,.03,.04,.06,.07,.08,.03-.03,.06-.05,.08-.08ZM97.07,102.54s-.08,.05-.08,.08c0,.03,.04,.06,.07,.09,.03-.03,.08-.05,.08-.08,0-.03-.04-.06-.07-.08Zm11.59-85.83s-.05-.06-.08-.09c-.03,.03-.08,.05-.08,.08,0,.03,.04,.06,.07,.08,.03-.03,.06-.05,.08-.08Zm-8.88,86.16s-.05-.06-.08-.09c-.03,.03-.08,.05-.08,.08,0,.03,.04,.06,.07,.08,.03-.03,.06-.05,.08-.08ZM117.47,15.9s-.08,.05-.08,.08c0,.03,.04,.06,.07,.09,.03-.03,.08-.05,.08-.08s-.04-.06-.07-.08ZM17.94,84.38s-.05-.06-.08-.09c-.03,.03-.08,.05-.08,.08,0,.03,.04,.06,.07,.08,.03-.03,.06-.05,.08-.08Zm31.37-18.33s-.08,.05-.08,.08c0,.03,.04,.06,.07,.09,.03-.03,.08-.05,.08-.08,0-.03-.04-.06-.07-.08Zm-19.84,37.77s-.05-.08-.08-.08c-.03,0-.06,.04-.08,.07,.03,.03,.05,.08,.08,.08s.06-.04,.08-.07ZM137.87,27.42s-.08,.05-.08,.08c0,.03,.04,.06,.07,.09,.03-.03,.08-.05,.08-.08,0-.03-.04-.06-.07-.08Zm-16.56,56.4s-.08,.05-.08,.08c0,.03,.04,.06,.07,.09,.03-.03,.08-.05,.08-.08,0-.03-.04-.06-.07-.08Zm16.32-34.32s-.08,.05-.08,.08c0,.03,.04,.06,.07,.09,.03-.03,.08-.05,.08-.08,0-.03-.04-.06-.07-.08ZM54.11,104.7s-.08,.05-.08,.08c0,.03,.04,.06,.07,.09,.03-.03,.08-.05,.08-.08,0-.03-.04-.06-.07-.08ZM25.07,41.82s-.08,.05-.08,.08c0,.03,.04,.06,.07,.09,.03-.03,.08-.05,.08-.08,0-.03-.04-.06-.07-.08Zm9.43-26.07s-.05-.06-.08-.09c-.03,.03-.08,.05-.08,.08,0,.03,.04,.06,.07,.08,.03-.03,.06-.05,.08-.08Zm95.2,36.79s.06-.05,.09-.08c-.03-.03-.05-.08-.08-.08-.03,0-.06,.04-.08,.07,.03,.03,.05,.06,.08,.08Zm14.49-10.63s-.05-.08-.08-.08c-.03,0-.06,.04-.08,.07,.03,.03,.05,.08,.08,.08,.03,0,.06-.04,.08-.07Zm-23.36,.39s-.08,.05-.08,.08c0,.03,.04,.06,.07,.09,.03-.03,.08-.05,.08-.08s-.04-.06-.07-.08Zm14.71,.57s-.05-.06-.08-.09c-.03,.03-.08,.05-.08,.08s.04,.06,.07,.08c.03-.03,.06-.05,.08-.08Zm-54,63.84s-.05-.06-.08-.09c-.03,.03-.08,.05-.08,.08,0,.03,.04,.06,.07,.08,.03-.03,.06-.05,.08-.08ZM41.94,57.98s-.05-.08-.08-.08c-.03,0-.06,.04-.08,.07,.03,.03,.05,.08,.08,.08,.03,0,.06-.04,.08-.07Zm1.44-43.2s-.05-.08-.08-.08c-.03,0-.06,.04-.08,.07,.03,.03,.05,.08,.08,.08,.03,0,.06-.04,.08-.07Zm-5.6,32.31s-.08,.05-.08,.08c0,.03,.04,.06,.07,.09,.03-.03,.08-.05,.08-.08s-.04-.06-.07-.08Zm30.08,17.37s-.05-.08-.08-.08c-.03,0-.06,.04-.08,.07,.03,.03,.05,.08,.08,.08s.06-.04,.08-.07Zm-32.73-.65s.06-.05,.09-.08c-.03-.03-.05-.08-.08-.08-.03,0-.06,.04-.08,.07,.03,.03,.05,.06,.08,.08Zm17.28,45.12s.06-.05,.09-.08c-.03-.03-.05-.08-.08-.08s-.06,.04-.08,.07c.03,.03,.05,.06,.08,.08Zm55.69-25.12s-.08,.05-.08,.08c0,.03,.04,.06,.07,.09,.03-.03,.08-.05,.08-.08s-.04-.06-.07-.08Zm-53.68,.09s-.05-.08-.08-.08c-.03,0-.06,.04-.08,.07,.03,.03,.05,.08,.08,.08,.03,0,.06-.04,.08-.07Zm14.64-40.56s-.05-.06-.08-.09c-.03,.03-.08,.05-.08,.08,0,.03,.04,.06,.07,.08,.03-.03,.06-.05,.08-.08Zm-35.52,12.72s-.05-.06-.08-.09c-.03,.03-.08,.05-.08,.08,0,.03,.04,.06,.07,.08,.03-.03,.06-.05,.08-.08Zm30,54.96s-.05-.06-.08-.09c-.03,.03-.08,.05-.08,.08,0,.03,.04,.06,.07,.08,.03-.03,.06-.05,.08-.08Zm30.48-67.68s-.05-.06-.08-.09c-.03,.03-.08,.05-.08,.08s.04,.06,.07,.08c.03-.03,.06-.05,.08-.08Zm40.24-15.29s.06-.05,.09-.08c-.03-.03-.05-.08-.08-.08-.03,0-.06,.04-.08,.07,.03,.03,.05,.06,.08,.08ZM33.23,61.98s-.08,.05-.08,.08c0,.03,.04,.06,.07,.09,.03-.03,.08-.05,.08-.08,0-.03-.04-.06-.07-.08Zm-5.92-18.39s-.05-.08-.08-.08c-.03,0-.06,.04-.08,.07,.03,.03,.05,.08,.08,.08s.06-.04,.08-.07Zm13.2,68.64s-.05-.06-.08-.09c-.03,.03-.08,.05-.08,.08,0,.03,.04,.06,.07,.08,.03-.03,.06-.05,.08-.08Zm-11.51,.47h-.17s.05,.08,.08,.08c.03,0,.06-.04,.09-.08ZM131.15,28.86s-.08,.05-.08,.08c0,.03,.04,.06,.07,.09,.03-.03,.08-.05,.08-.08,0-.03-.04-.06-.07-.08Zm-58.8,47.04s-.08,.05-.08,.08c0,.03,.04,.06,.07,.09,.03-.03,.08-.05,.08-.08,0-.03-.04-.06-.07-.08Zm7.91,.16s.06-.05,.09-.08c-.03-.03-.05-.08-.08-.08-.03,0-.06,.04-.08,.07,.03,.03,.05,.06,.08,.08Zm-21.35,36.56s-.08,.05-.08,.08c0,.03,.04,.06,.07,.09,.03-.03,.08-.05,.08-.08s-.04-.06-.07-.08ZM120.59,29.82s-.08,.05-.08,.08c0,.03,.04,.06,.07,.09,.03-.03,.08-.05,.08-.08,0-.03-.04-.06-.07-.08Zm-19.85-17.19s-.05-.06-.08-.09c-.03,.03-.08,.05-.08,.08s.04,.06,.07,.08c.03-.03,.06-.05,.08-.08Zm14.16-.24s-.05-.08-.08-.08c-.03,0-.06,.04-.08,.07,.03,.03,.05,.08,.08,.08,.03,0,.06-.04,.08-.07ZM55.79,82.62s-.08,.05-.08,.08c0,.03,.04,.06,.07,.09,.03-.03,.08-.05,.08-.08,0-.03-.04-.06-.07-.08Zm16.56,31.44s-.08,.05-.08,.08c0,.03,.04,.06,.07,.09,.03-.03,.08-.05,.08-.08,0-.03-.04-.06-.07-.08ZM44.98,48.46s.06-.05,.09-.08c-.03-.03-.05-.08-.08-.08-.03,0-.06,.04-.08,.07,.03,.03,.05,.06,.08,.08Zm96.08-4.87s-.05-.06-.08-.09c-.03,.03-.08,.05-.08,.08,0,.03,.04,.06,.07,.08,.03-.03,.06-.05,.08-.08ZM37.62,116.06s-.05-.06-.08-.09c-.03,.03-.08,.05-.08,.08,0,.03,.04,.06,.07,.08,.03-.03,.06-.05,.08-.08Zm72.72-33.6s-.05-.08-.08-.08c-.03,0-.06,.04-.08,.07,.03,.03,.05,.08,.08,.08,.03,0,.06-.04,.08-.07ZM28.67,60.78s-.08,.05-.08,.08c0,.03,.04,.06,.07,.09,.03-.03,.08-.05,.08-.08,0-.03-.04-.06-.07-.08Zm71.83-.15s-.05-.06-.08-.09c-.03,.03-.08,.05-.08,.08,0,.03,.04,.06,.07,.08,.03-.03,.06-.05,.08-.08Zm-20.95,21.51s-.08,.05-.08,.08c0,.03,.04,.06,.07,.09,.03-.03,.08-.05,.08-.08,0-.03-.04-.06-.07-.08ZM43.31,30.06s-.08,.05-.08,.08c0,.03,.04,.06,.07,.09,.03-.03,.08-.05,.08-.08s-.04-.06-.07-.08ZM136.43,11.34s-.08,.05-.08,.08c0,.03,.04,.06,.07,.09,.03-.03,.08-.05,.08-.08,0-.03-.04-.06-.07-.08ZM21.47,117.42s-.08,.05-.08,.08c0,.03,.04,.06,.07,.09,.03-.03,.08-.05,.08-.08,0-.03-.04-.06-.07-.08ZM103.14,30.62s-.05-.06-.08-.09c-.03,.03-.08,.05-.08,.08s.04,.06,.07,.08c.03-.03,.06-.05,.08-.08Zm-57.84,45.6s-.05-.08-.08-.08c-.03,0-.06,.04-.08,.07,.03,.03,.05,.08,.08,.08s.06-.04,.08-.07Zm26.64,0s-.05-.08-.08-.08c-.03,0-.06,.04-.08,.07,.03,.03,.05,.08,.08,.08s.06-.04,.08-.07ZM113.15,.78s-.08,.05-.08,.08c0,.03,.04,.06,.07,.09,.03-.03,.08-.05,.08-.08,0-.03-.04-.06-.07-.08ZM50.51,60.06s-.08,.05-.08,.08c0,.03,.04,.06,.07,.09,.03-.03,.08-.05,.08-.08s-.04-.06-.07-.08Zm11.85,58.16h-.17s.05,.08,.08,.08c.03,0,.06-.04,.09-.08ZM44.1,31.82s-.05-.06-.08-.09c-.03,.03-.08,.05-.08,.08s.04,.06,.07,.08c.03-.03,.06-.05,.08-.08Zm50.81,27.99s-.08,.05-.08,.08c0,.03,.04,.06,.07,.09,.03-.03,.08-.05,.08-.08,0-.03-.04-.06-.07-.08Zm9.43-11.67s-.05-.06-.08-.09c-.03,.03-.08,.05-.08,.08,0,.03,.04,.06,.07,.08,.03-.03,.06-.05,.08-.08Zm-31.92,70.56s-.05-.08-.08-.08c-.03,0-.06,.04-.08,.07,.03,.03,.05,.08,.08,.08,.03,0,.06-.04,.08-.07ZM43.62,9.74s-.05-.06-.08-.09c-.03,.03-.08,.05-.08,.08,0,.03,.04,.06,.07,.08,.03-.03,.06-.05,.08-.08ZM110.27,79.5s-.08,.05-.08,.08c0,.03,.04,.06,.07,.09,.03-.03,.08-.05,.08-.08,0-.03-.04-.06-.07-.08Zm-60.17-3.03s-.05-.06-.08-.09c-.03,.03-.08,.05-.08,.08,0,.03,.04,.06,.07,.08,.03-.03,.06-.05,.08-.08Zm10.73-44.73s-.08,.05-.08,.08c0,.03,.04,.06,.07,.09,.03-.03,.08-.05,.08-.08,0-.03-.04-.06-.07-.08Zm5.6,44.97s-.05-.08-.08-.08c-.03,0-.06,.04-.08,.07,.03,.03,.05,.08,.08,.08,.03,0,.06-.04,.08-.07ZM40.98,7.82s-.05-.08-.08-.08c-.03,0-.06,.04-.08,.07,.03,.03,.05,.08,.08,.08,.03,0,.06-.04,.08-.07Zm6.96,38.88s-.05-.06-.08-.09c-.03,.03-.08,.05-.08,.08,0,.03,.04,.06,.07,.08,.03-.03,.06-.05,.08-.08ZM41.46,6.14s-.05-.06-.08-.09c-.03,.03-.08,.05-.08,.08,0,.03,.04,.06,.07,.08,.03-.03,.06-.05,.08-.08ZM124.26,3.5s-.05-.08-.08-.08c-.03,0-.06,.04-.08,.07,.03,.03,.05,.08,.08,.08s.06-.04,.08-.07ZM52.74,48.14s-.05-.06-.08-.09c-.03,.03-.08,.05-.08,.08,0,.03,.04,.06,.07,.08,.03-.03,.06-.05,.08-.08Zm89.52-16.08s-.05-.06-.08-.09c-.03,.03-.08,.05-.08,.08,0,.03,.04,.06,.07,.08,.03-.03,.06-.05,.08-.08Zm-97.68-5.52s-.05-.06-.08-.09c-.03,.03-.08,.05-.08,.08s.04,.06,.07,.08c.03-.03,.06-.05,.08-.08Z"/>
      <path class="cls-1" d="M2.15,55.32c.08-.05,.33-.18,.53-.36,.17-.15,.34-.33,.41-.54,.34-1.03,.82-1.53,1.86-1.86,.18-.06,.39-.15,.49-.3,.66-1.01,1.73-1.28,2.79-1.51,.92-.2,1.87-.24,2.81-.33,.19-.02,.47-.05,.58,.06,.63,.66,1.42,.39,2.15,.4,.77,.01,1.38,.22,1.76,.98,.79-.11,1.5,0,1.84,.87,.59,.09,.97,.48,1.29,.93-.12,.15-.25,.31-.44,.56,.96-.09,1.33,.4,1.48,1.2,.09,.49,.34,.96,.43,1.45,.08,.47,.14,.98-.44,1.28,.25,.4,.47,.76,.69,1.13-.12,.32-.24,.64-.36,.99-.19-.03-.36-.02-.49-.09-1.45-.67-2.98-.75-4.52-.63-1.77,.13-3.03,1.37-3.45,2.95-.42,1.61-.43,3.23,.14,4.88,.43,1.23,1.35,1.91,2.2,2.71,.48,.44,1.12,.67,1.51,1.26,.16,.24,.73,.48,.91,.37,.6-.36,1.04,.27,1.6,.03,.24,.91-.22,1.42-.74,1.93-.53,.53-1.21,.51-1.88,.5-.03,.27,.03,.6-.1,.72-.31,.29-.68,.56-1.07,.69-.85,.29-1.71,.53-2.59,.71-.33,.07-.8,.26-1.03-.29-.02-.06-.28-.09-.39-.05-.71,.26-1.4,.16-2.07-.11-1.43-.56-2.84-1.21-3.94-2.29-1.16-1.13-1.98-2.52-2.65-3.99-.08-.18-.11-.38-.21-.54-.36-.63-.39-1.26,.04-2.03-.25-.2-.52-.37-.75-.6-.13-.13-.26-.32-.27-.5-.1-1.22-.29-2.45-.23-3.66,.08-1.68,.46-3.33,1.09-4.89,.15-.39,.19-.97,.86-.99,.05,0,.09-.5,.19-1.04Zm2.06,8.61c-.25,.65-.18,1.37-.55,1.99-.04,.07,.12,.26,.22,.49,.66-.93,.33-1.72,.32-2.48Zm3.01,8.87c.34,.51,.62,.44,.88,0h-.88Zm4.7-13.49v-.75c-.18,.16-.29,.26-.41,.38,.12,.11,.23,.21,.41,.38Zm-2.13,.42q-.34-.38-.6,.04c.21-.01,.39-.03,.6-.04Zm4.11-4.64c.15,.05,.27,.11,.28,.1,.06-.11,.09-.22,.14-.34-.12,.07-.24,.14-.42,.24Zm-4.06-1.67c-.15-.06-.27-.11-.28-.1-.06,.1-.11,.22-.15,.32,.13-.07,.25-.13,.44-.22Zm.65,19.21c-.05-.04-.1-.11-.14-.11-.07,0-.13,.04-.2,.06,.04,.04,.08,.12,.12,.12,.06,0,.13-.04,.22-.07Zm6.5-17.05s-.05-.06-.08-.09c-.03,.03-.08,.05-.08,.08,0,.03,.04,.06,.07,.08,.03-.03,.06-.05,.08-.08Zm-9.84,3.12s-.05-.08-.08-.08c-.03,0-.06,.04-.08,.07,.03,.03,.05,.08,.08,.08,.03,0,.06-.04,.08-.07Z"/>
      <path class="cls-1" d="M52.23,69.23s-.09,.11-.13,.11c-.06,0-.13-.04-.19-.07,.04-.04,.08-.11,.12-.11,.06,0,.13,.04,.2,.07Z"/>
      <path class="cls-1" d="M23.04,84.52c.02-.06,.04-.12,.06-.19,.03,.03,.06,.06,.09,.09-.06,.02-.12,.04-.19,.06l.03,.03Z"/>
      <path class="cls-1" d="M54.76,96.33h.37v.09h-.37s0-.06,0-.09Z"/>
    </g>
  </g>
</svg>