<?xml version="1.0" encoding="UTF-8"?>
<svg id="_レイヤー_2" data-name="レイヤー 2" xmlns="http://www.w3.org/2000/svg" viewBox="0 0 734.18 322.82">
  <defs>
    <style>
      .cls-1, .cls-2 {
        fill: #d8dbd6;
      }

      .cls-2 {
        stroke: #fff;
        stroke-width: 7.57px;
      }

      .cls-3 {
        stroke: #f8b217;
        stroke-linecap: round;
        stroke-linejoin: round;
        stroke-width: 5.05px;
      }

      .cls-3, .cls-4 {
        fill: none;
      }

      .cls-5 {
        fill: #ef7f24;
      }

      .cls-6, .cls-7 {
        stroke: #f7d200;
        stroke-width: .76px;
      }

      .cls-6, .cls-8 {
        fill: #2b2c8b;
      }

      .cls-7 {
        fill: #00833c;
      }

      .cls-9 {
        fill: #f8b217;
      }

      .cls-10 {
        fill: #acaca9;
      }

      .cls-11 {
        fill: #f39800;
      }
    </style>
  </defs>
  <g id="_レイヤー_1-2" data-name="レイヤー 1">
    <g>
      <g>
        <polygon class="cls-4" points="151.63 124.52 263.67 124.52 263.67 31.18 151.63 31.16 151.63 124.52"/>
        <polygon class="cls-4" points="52.98 155.55 52.96 210.56 120.97 210.56 120.96 31.16 79.04 31.16 52.98 155.55"/>
        <polygon class="cls-4" points="294.33 124.51 406.38 124.51 406.38 31.18 294.34 31.18 294.33 124.51"/>
        <polygon class="cls-4" points="437.06 124.51 549.09 124.53 549.09 31.2 437.06 31.2 437.06 124.51"/>
        <polygon class="cls-4" points="406.38 31.18 294.34 31.18 294.33 124.51 406.38 124.51 406.38 31.18"/>
        <polygon class="cls-4" points="263.67 31.18 151.63 31.16 151.63 124.52 263.67 124.52 263.67 31.18"/>
        <polygon class="cls-4" points="691.8 31.2 579.76 31.2 579.76 124.52 691.8 124.53 691.8 31.2"/>
        <polygon class="cls-4" points="549.09 31.2 437.06 31.2 437.06 124.51 549.09 124.53 549.09 31.2"/>
        <polygon points="52.98 155.55 53.11 154.79 52.96 154.8 52.98 155.55"/>
        <path class="cls-11" d="M66.75,0c-7.87,0-14.79,2.43-15.39,5.39-.6,2.97-1.08,5.4-1.09,5.4,0,0-1.28,6.32-2.83,14.03l-22.82,113.23c-1.55,7.71-2.83,20.46-2.83,28.33v85.65c0,7.87,6.44,14.31,14.31,14.31h60.66c7.87,0,20.75,0,28.61,0h82.86c7.87,0,20.75,0,28.61,0h238.92c7.87,0,20.75,0,28.61,0h82.86c7.87,0,20.75,0,28.61,0h92.3c7.87,0,14.31-6.43,14.31-14.3V14.32c0-7.87-6.44-14.31-14.31-14.31H66.75Zm54.22,196.24c0,7.87-6.44,14.31-14.31,14.31h-39.24c-7.87,0-14.32-6.43-14.34-14.3l-.07-26.4c-.02-7.87-.04-14.48-.04-14.68,0-.21,.03-.38,.07-.38s1.4-6.31,3.01-14.01l20.05-95.63c1.61-7.7,9.37-14,17.24-14h13.31c7.87,0,14.31,6.44,14.31,14.31V196.25Zm142.71-86.04c0,7.87-6.44,14.31-14.31,14.31h-83.43c-7.87,0-14.31-6.44-14.31-14.31V45.47c0-7.87,6.44-14.31,14.31-14.3l83.42,.02c7.87,0,14.31,6.44,14.31,14.31V110.21Zm142.71,0c0,7.87-6.44,14.31-14.31,14.31h-83.43c-7.87,0-14.31-6.44-14.31-14.31V45.49c0-7.87,6.45-14.31,14.31-14.31h83.42c7.87,0,14.31,6.44,14.31,14.31V110.2Zm142.71,.02c0,7.87-6.44,14.31-14.31,14.31h-83.42c-7.87-.01-14.31-6.45-14.31-14.32V45.51c0-7.87,6.44-14.31,14.31-14.31h83.42c7.87,0,14.31,6.44,14.31,14.31V110.22Zm142.71,0c0,7.87-6.44,14.31-14.31,14.31h-83.43c-7.87-.01-14.31-6.45-14.31-14.32V45.51c0-7.87,6.44-14.31,14.31-14.31h83.43c7.87,0,14.31,6.44,14.31,14.31V110.23Z"/>
        <path class="cls-9" d="M533.42,266.34c0-37.42,30.35-67.74,67.77-67.74,37.41,0,67.75,30.34,67.74,67.75h-135.51Z"/>
        <path d="M657.65,266.35c0,31.19-25.28,56.46-56.47,56.47-31.19,0-56.48-25.29-56.47-56.48,0-31.17,25.29-56.45,56.47-56.46,31.18,0,56.46,25.29,56.47,56.46Z"/>
        <path class="cls-2" d="M624.9,266.34c0,13.1-10.63,23.72-23.72,23.72s-23.72-10.62-23.71-23.72c0-13.1,10.6-23.72,23.71-23.72,13.09,0,23.71,10.61,23.72,23.71Z"/>
        <path class="cls-9" d="M114.49,266.34c0-37.42,30.33-67.75,67.75-67.74,37.42,0,67.75,30.32,67.76,67.74H114.49Z"/>
        <path d="M238.7,266.35c0,31.18-25.27,56.47-56.45,56.47s-56.46-25.29-56.46-56.47c0-31.19,25.27-56.46,56.46-56.46,31.19,0,56.46,25.29,56.45,56.46Z"/>
        <path class="cls-2" d="M205.95,266.35c0,13.1-10.61,23.72-23.71,23.72-13.09,0-23.71-10.63-23.71-23.72,0-13.1,10.61-23.71,23.71-23.72,13.1,0,23.71,10.63,23.71,23.72Z"/>
      </g>
      <line class="cls-3" x1="153.94" y1="145.66" x2="697.79" y2="145.66"/>
      <line class="cls-3" x1="265.34" y1="244.71" x2="515.71" y2="244.71"/>
      <polygon class="cls-1" points="687.69 203.29 730.59 203.28 730.59 214.85 687.68 214.85 687.69 203.29"/>
      <rect class="cls-10" x="687.68" y="214.85" width="42.91" height="15.15"/>
      <polygon class="cls-1" points="687.67 229.99 730.58 230 730.6 241.55 687.67 241.55 687.67 229.99"/>
      <rect class="cls-1" x="0" y="203.28" width="42.9" height="11.56"/>
      <rect class="cls-10" x="0" y="214.85" width="42.9" height="15.14"/>
      <polygon class="cls-1" points="0 229.99 42.9 229.98 42.9 241.56 0 241.55 0 229.99"/>
      <path class="cls-1" d="M5.09,172.34c0,10.04,7.19,18.4,16.71,20.21v-40.44c-9.52,1.81-16.72,10.16-16.71,20.22Z"/>
      <path class="cls-5" d="M5.09,172.34c0,6.94,3.45,13.07,8.71,16.8v-33.63c-5.26,3.74-8.72,9.87-8.71,16.83Z"/>
      <path class="cls-1" d="M734.18,169.45c0,7.03-5.03,12.88-11.7,14.16v-28.32c6.66,1.28,11.7,7.13,11.7,14.15Z"/>
      <path class="cls-5" d="M734.18,169.45c0,4.87-2.41,9.16-6.11,11.79v-23.55c3.69,2.62,6.11,6.9,6.11,11.77Z"/>
      <g>
        <g>
          <path class="cls-7" d="M313.95,197.52c-1.62,5.78-5.08,9.86-7.75,9.13-2.66-.75-3.51-6.05-1.89-11.83,1.62-5.77,7.75-9.13,7.75-9.13,0,0,3.51,6.04,1.89,11.83Z"/>
          <path class="cls-7" d="M301.48,224.41c-5.86,1.33-11.11,.24-11.71-2.49-.61-2.68,3.65-5.95,9.5-7.28,5.87-1.34,11.71,2.47,11.71,2.47,0,0-3.65,5.97-9.5,7.29Z"/>
          <path class="cls-7" d="M321.88,205.19c-3.81,4.62-8.64,6.98-10.77,5.22-2.13-1.75-.78-6.94,3.03-11.59,3.8-4.65,10.77-5.22,10.77-5.22,0,0,.78,6.94-3.03,11.58Z"/>
          <path class="cls-7" d="M321.18,180.17c.58,5.98-1.18,11.04-3.93,11.31-2.75,.26-5.46-4.36-6.04-10.35-.59-5.97,3.93-11.31,3.93-11.31,0,0,5.46,4.36,6.04,10.34Z"/>
          <path class="cls-7" d="M328.12,188.55c-3.03,2.52-6.42,3.44-7.58,2.03-1.16-1.39,.35-4.55,3.37-7.07,3.02-2.52,7.57-2.03,7.57-2.03,0,0-.35,4.56-3.37,7.06Z"/>
          <path class="cls-7" d="M329.96,174.72c-.27,4-1.98,7.15-3.83,7.04-1.84-.12-3.12-3.47-2.86-7.5,.27-4.01,3.83-7.04,3.83-7.04,0,0,3.13,3.47,2.86,7.5Z"/>
          <path class="cls-7" d="M318.93,163.85c1.76,2.3,2.26,4.86,1.13,5.74-1.15,.88-3.51-.25-5.26-2.55-1.76-2.29-1.11-5.74-1.11-5.74,0,0,3.49,.27,5.25,2.55Z"/>
          <path class="cls-7" d="M295.73,224.58c-4.38,4.11-9.47,5.81-11.36,3.8-1.89-2.02,.13-6.98,4.5-11.09,4.39-4.11,11.36-3.79,11.36-3.79,0,0-.12,6.98-4.51,11.09Z"/>
          <path class="cls-7" d="M310.03,212.18c-2.81,2.07-5.84,2.77-6.76,1.52-.92-1.24,.61-3.94,3.43-6.01,2.81-2.08,6.75-1.52,6.75-1.52,0,0-.61,3.92-3.42,6.01Z"/>
          <path class="cls-7" d="M252.42,197.52c1.62,5.78,5.09,9.86,7.75,9.13,2.66-.76,3.51-6.05,1.89-11.82-1.61-5.79-7.75-9.14-7.75-9.14,0,0-3.51,6.05-1.89,11.84Z"/>
          <path class="cls-7" d="M264.88,224.41c5.86,1.32,11.1,.23,11.71-2.49,.62-2.69-3.64-5.95-9.49-7.28-5.86-1.34-11.72,2.47-11.72,2.47,0,0,3.64,5.97,9.5,7.29Z"/>
          <path class="cls-7" d="M244.49,205.19c3.8,4.63,8.62,6.97,10.76,5.22,2.14-1.75,.78-6.94-3.03-11.59-3.81-4.64-10.77-5.22-10.77-5.22,0,0-.78,6.94,3.04,11.58Z"/>
          <path class="cls-7" d="M245.18,180.17c-.58,5.98,1.17,11.05,3.94,11.31,2.75,.26,5.45-4.37,6.03-10.34,.58-5.98-3.94-11.31-3.94-11.31,0,0-5.45,4.36-6.03,10.34Z"/>
          <path class="cls-7" d="M238.25,188.55c3.02,2.53,6.41,3.44,7.57,2.05,1.16-1.4-.36-4.56-3.38-7.07-3.01-2.52-7.57-2.04-7.57-2.04,0,0,.36,4.57,3.38,7.07Z"/>
          <path class="cls-7" d="M236.41,174.72c.27,4,1.98,7.15,3.83,7.03,1.85-.12,3.13-3.47,2.87-7.48-.27-4.02-3.84-7.04-3.84-7.04,0,0-3.12,3.47-2.85,7.5Z"/>
          <path class="cls-7" d="M247.43,163.85c-1.76,2.29-2.26,4.87-1.11,5.74,1.14,.88,3.5-.25,5.25-2.55,1.77-2.28,1.12-5.75,1.12-5.75,0,0-3.49,.27-5.26,2.56Z"/>
          <path class="cls-7" d="M270.63,224.58c4.38,4.11,9.47,5.81,11.36,3.78,1.89-2.02-.13-6.98-4.51-11.09-4.38-4.11-11.36-3.78-11.36-3.78,0,0,.12,6.98,4.51,11.09Z"/>
          <path class="cls-7" d="M256.34,212.17c2.81,2.08,5.83,2.77,6.76,1.53,.92-1.24-.63-3.92-3.44-6.01-2.81-2.08-6.75-1.53-6.75-1.53,0,0,.62,3.93,3.42,6.02Z"/>
        </g>
        <path class="cls-6" d="M297.48,187.17l1.9-3.45h1.58s.86,13.73,.86,13.73h-1.52c-1.17-3.94-2.54-6.79-4.12-8.55-2.01-2.25-4.32-3.36-6.92-3.37-2.01,0-3.79,.56-5.38,1.69-1.58,1.12-2.79,2.83-3.64,5.08-.83,2.26-1.27,5.43-1.26,9.53,0,3.96,.43,7.07,1.27,9.32,.83,2.24,2.01,3.88,3.49,4.95,1.49,1.06,3.22,1.58,5.23,1.58,2.71,0,4.81-.76,6.29-2.25,1.47-1.53,2.22-3.46,2.21-5.86v-3.22c0-.5-.19-.9-.59-1.17-.4-.29-1.05-.43-1.94-.43h-2.91s0-1.61,0-1.61h14.46v1.62h-1.96c-.87,0-1.5,.15-1.87,.46-.37,.31-.56,.75-.56,1.31v13.1l-1.54,.02c-.56-2.04-1.15-4-1.75-5.86-1.16,1.91-2.56,3.32-4.16,4.29-1.6,.95-3.43,1.43-5.46,1.43-2.9,0-5.59-.75-8.06-2.25-2.48-1.48-4.44-3.59-5.87-6.29-1.43-2.69-2.15-5.76-2.15-9.19,0-3.41,.72-6.49,2.16-9.2,1.44-2.71,3.42-4.86,5.93-6.46,2.5-1.6,5.04-2.38,7.6-2.39,1.46,0,2.85,.25,4.18,.74,1.33,.49,2.82,1.41,4.5,2.71Z"/>
        <path class="cls-6" d="M260.07,170.26h15.98s0,1.75,0,1.75h-3.81c-.61,0-1.06,.17-1.34,.49-.29,.32-.43,.82-.43,1.5v27.14c0,.65,.17,1.11,.54,1.39,.37,.27,1.1,.4,2.19,.41h4.84c2.57,0,4.67-.86,6.31-2.58,1.63-1.71,2.83-4.68,3.57-8.92h1.62s-.81,13.26-.81,13.26h-28.66v-1.76s2.81,0,2.81,0c.96,0,1.64-.19,2.03-.55,.39-.36,.58-.95,.58-1.75v-26.87c0-.57-.16-1-.49-1.3-.33-.29-.81-.44-1.45-.44h-3.49v-1.76Z"/>
        <g>
          <path class="cls-8" d="M338.88,203.63h6.88s0,.78,0,.78h-1.17c-.53,0-.85,.05-.99,.18-.13,.12-.21,.4-.21,.83v11.3c0,.44,.07,.73,.19,.85,.16,.14,.45,.23,.87,.23h1.31s0,.76,0,.76h-6.88s0-.76,0-.76h1.3c.46,0,.75-.07,.89-.21,.14-.14,.2-.44,.2-.88v-11.29c0-.43-.06-.71-.18-.81-.18-.15-.53-.21-1.04-.22h-1.16s0-.77,0-.77Z"/>
          <path class="cls-8" d="M347.22,209.09l3.14-.17c.13,.59,.22,1.28,.28,2.06,.42-.68,.92-1.2,1.5-1.54,.58-.33,1.24-.51,1.96-.51,.63,0,1.16,.12,1.58,.37,.43,.24,.76,.63,1.01,1.15,.27,.54,.39,1.13,.39,1.8v4.59c0,.34,.08,.59,.23,.75,.15,.14,.41,.21,.76,.21h.65v.76s-4.93,0-4.93,0v-.76s.47,0,.47,0c.44,0,.74-.07,.92-.21,.18-.15,.26-.37,.26-.64v-4.05c0-.87-.14-1.53-.4-1.95-.38-.61-.96-.91-1.73-.9-.76,0-1.4,.29-1.9,.91-.51,.61-.77,1.42-.78,2.39v3.49c0,.34,.08,.59,.24,.73,.15,.15,.41,.22,.76,.23h.65v.76h-4.95v-.77s.65,0,.65,0c.32,0,.58-.06,.75-.2,.16-.14,.26-.32,.25-.51v-6.1c0-.4-.11-.71-.32-.92-.22-.21-.53-.31-.93-.31h-.49s0-.68,0-.68Z"/>
          <path class="cls-8" d="M362.39,205.25h.67s0,3.83,0,3.83h3.05v.92h-3.06s0,6.11,0,6.11c0,.53,.13,.93,.38,1.22,.24,.28,.56,.41,.94,.41,.45,0,.83-.21,1.16-.64,.32-.42,.5-1.12,.55-2.11h.67c-.04,1.26-.33,2.2-.85,2.81-.53,.62-1.22,.92-2.07,.92-.78,0-1.39-.22-1.83-.64-.43-.44-.66-1.01-.66-1.69v-6.39h-1.65s0-.7,0-.7c.76-.11,1.34-.44,1.75-.94,.59-.72,.91-1.78,.95-3.11Z"/>
          <path class="cls-8" d="M376.8,213.9h-6.79c.04,1.44,.31,2.46,.81,3.07,.57,.65,1.31,.99,2.21,1,1.31,0,2.37-.75,3.17-2.27l.66,.29c-.98,1.93-2.4,2.88-4.26,2.89-1.27,0-2.33-.47-3.2-1.38-.86-.92-1.3-2.1-1.3-3.52,0-1.53,.43-2.77,1.28-3.71,.85-.96,1.9-1.42,3.15-1.43,.91,0,1.71,.23,2.37,.7,.67,.49,1.16,1.15,1.5,2.03,.23,.63,.36,1.41,.38,2.35Zm-6.78-.71l4.11-.02c.25,0,.44-.08,.57-.24,.14-.15,.2-.44,.2-.83,0-.74-.23-1.37-.69-1.89-.46-.52-1.01-.78-1.64-.78-.7,0-1.3,.31-1.78,.93-.5,.62-.76,1.57-.77,2.83Z"/>
          <path class="cls-8" d="M378.13,209.12l3.42-.18v3.83c.36-1.26,.8-2.21,1.31-2.87,.51-.64,1.14-.96,1.9-.97,.5,0,.92,.15,1.22,.46,.31,.32,.46,.74,.46,1.28,0,.42-.11,.74-.31,.98-.2,.23-.46,.36-.76,.36-.31-.02-.54-.1-.73-.31-.18-.21-.28-.47-.28-.82,0-.23,.05-.45,.16-.64,.09-.18,.14-.29,.14-.32,0-.1-.06-.15-.19-.15-.28,0-.59,.17-.94,.48-.48,.46-.86,1.07-1.11,1.86-.41,1.22-.62,2.2-.6,2.94v2.03c0,.22,.07,.41,.24,.52,.17,.14,.44,.19,.83,.19h1.2s0,.75,0,.75h-5.9s0-.75,0-.75h.94c.31,0,.55-.05,.71-.2,.17-.12,.26-.26,.25-.44v-6.01c0-.46-.1-.8-.3-1-.19-.22-.47-.33-.83-.32h-.83v-.72Z"/>
          <path class="cls-8" d="M387.47,209.09l3.14-.17c.13,.59,.22,1.29,.29,2.08,.42-.69,.91-1.21,1.5-1.54,.57-.34,1.23-.51,1.96-.51,.62,0,1.14,.12,1.57,.37,.43,.23,.76,.62,1.02,1.15,.26,.54,.37,1.12,.38,1.79v4.59c0,.34,.07,.58,.22,.73,.15,.14,.4,.23,.78,.22h.64s0,.77,0,.77h-4.93s0-.77,0-.77h.47c.43,0,.73-.06,.91-.21,.19-.14,.26-.36,.25-.63v-4.05c0-.88-.12-1.53-.39-1.94-.38-.62-.97-.92-1.72-.91-.77,0-1.4,.29-1.92,.91-.52,.61-.76,1.42-.76,2.38v3.5c0,.34,.08,.59,.23,.73,.16,.14,.42,.23,.77,.22h.64v.76s-4.95,0-4.95,0v-.75s.65,0,.65,0c.32,0,.57-.06,.74-.2,.17-.14,.26-.32,.25-.51l.02-6.1c-.01-.4-.12-.72-.34-.92-.21-.21-.53-.31-.94-.31h-.49s0-.69,0-.69Z"/>
          <path class="cls-8" d="M410.12,217.51l.35,.58c-.49,.51-1.03,.77-1.65,.78-.45,0-.84-.13-1.15-.39-.31-.25-.59-.68-.83-1.33-.64,.69-1.2,1.13-1.68,1.37-.48,.22-1.07,.35-1.74,.35-.96,0-1.7-.21-2.21-.65-.49-.4-.75-.94-.75-1.59,0-.98,.58-1.8,1.73-2.46,1.14-.64,2.68-1.08,4.59-1.29v-1.43c0-.52-.2-.95-.62-1.31-.41-.36-.93-.54-1.56-.54-.58,0-1.08,.11-1.51,.37-.3,.18-.45,.36-.46,.51,0,.11,.09,.26,.25,.49,.2,.27,.29,.51,.29,.72,0,.29-.1,.54-.29,.73-.2,.19-.45,.29-.76,.29s-.62-.11-.84-.35c-.22-.21-.34-.52-.33-.87,0-.67,.38-1.28,1.12-1.83,.75-.55,1.75-.83,2.96-.82,1.12,0,1.98,.23,2.57,.71,.59,.5,.88,1.1,.89,1.79v5.17c0,.47,.07,.8,.21,1.01,.16,.24,.34,.34,.58,.33,.26,0,.53-.1,.83-.33Zm-3.35-3.98c-1.7,.23-2.9,.62-3.62,1.15-.53,.4-.79,.98-.79,1.72,0,.52,.13,.93,.41,1.21,.27,.29,.63,.44,1.07,.44,.8,0,1.49-.3,2.06-.9,.58-.6,.88-1.36,.87-2.27v-1.35Z"/>
          <path class="cls-8" d="M414.15,205.26h.66s.01,3.83,.01,3.83h3.06v.91h-3.07v6.11c0,.54,.13,.93,.38,1.23,.24,.28,.56,.42,.94,.42,.45,0,.84-.21,1.17-.64,.32-.43,.5-1.13,.55-2.11h.66c-.03,1.26-.32,2.2-.85,2.81-.53,.62-1.22,.92-2.07,.92-.79,0-1.39-.22-1.84-.64-.44-.44-.67-1-.66-1.69v-6.4h-1.65v-.69c.76-.12,1.34-.42,1.74-.93,.58-.73,.91-1.78,.95-3.11Z"/>
          <path class="cls-8" d="M419.51,209.09l3.78-.09v8.12c0,.23,.05,.39,.16,.48,.16,.14,.35,.21,.59,.21h1.08v.77h-5.39s0-.77,0-.77h.99c.29,0,.52-.07,.64-.23,.14-.15,.21-.36,.21-.62v-5.95c0-.37-.11-.66-.33-.86-.21-.17-.52-.28-.95-.28h-.78s0-.78,0-.78Zm2.63-5.63c.31,0,.56,.1,.81,.34,.23,.23,.33,.51,.35,.81,0,.3-.12,.57-.35,.79-.22,.21-.49,.34-.8,.34s-.58-.12-.81-.34c-.23-.23-.34-.49-.34-.8,0-.3,.11-.56,.34-.8,.23-.24,.5-.35,.8-.34Z"/>
          <path class="cls-8" d="M430.67,208.81c1.28,0,2.34,.46,3.21,1.38,.85,.92,1.3,2.13,1.29,3.64,0,1.04-.18,1.92-.57,2.65-.39,.73-.95,1.31-1.66,1.73-.72,.44-1.5,.65-2.33,.65-1.22,0-2.26-.47-3.11-1.42-.86-.92-1.28-2.11-1.28-3.61,0-1.48,.43-2.69,1.28-3.62,.86-.94,1.92-1.39,3.17-1.4Zm0,.72c-.76,0-1.39,.34-1.88,1.03-.48,.68-.72,1.76-.72,3.24,0,1.5,.25,2.59,.72,3.29,.49,.7,1.11,1.04,1.88,1.05,.79,0,1.43-.35,1.93-1.04,.49-.7,.74-1.84,.74-3.41,0-1.46-.25-2.52-.74-3.18-.48-.65-1.12-.97-1.93-.98Z"/>
          <path class="cls-8" d="M436.56,209.09l3.15-.16c.12,.58,.22,1.28,.27,2.07,.43-.69,.93-1.2,1.51-1.54,.58-.34,1.24-.51,1.96-.51,.63,0,1.15,.12,1.57,.36,.42,.24,.77,.65,1.02,1.16,.25,.54,.38,1.13,.39,1.78v4.59c0,.34,.07,.59,.22,.73,.15,.14,.41,.23,.77,.22h.65v.76l-4.93,.02v-.77h.47c.45,0,.74-.07,.92-.22,.18-.14,.26-.35,.26-.63v-4.05c0-.88-.13-1.53-.4-1.95-.38-.61-.95-.9-1.73-.91-.75,0-1.38,.31-1.9,.92-.51,.62-.76,1.42-.77,2.38v3.5c0,.35,.08,.59,.23,.73,.16,.15,.41,.23,.77,.23h.64v.76s-4.95,0-4.95,0v-.76h.64c.32,0,.58-.07,.74-.21,.18-.13,.27-.31,.27-.51v-6.1c0-.4-.11-.71-.33-.92-.21-.21-.53-.31-.94-.3h-.48s0-.68,0-.68Z"/>
          <path class="cls-8" d="M459.21,217.51l.36,.58c-.5,.51-1.04,.77-1.65,.77-.45,0-.84-.13-1.16-.38-.32-.25-.6-.67-.84-1.32-.64,.68-1.2,1.13-1.68,1.37-.49,.22-1.06,.34-1.75,.34-.96,0-1.69-.22-2.19-.64-.5-.4-.76-.95-.76-1.6,0-.97,.58-1.8,1.73-2.46,1.15-.64,2.69-1.07,4.6-1.28v-1.44c0-.52-.21-.95-.62-1.31-.4-.35-.92-.54-1.56-.54-.58,0-1.08,.12-1.51,.36-.29,.18-.45,.37-.45,.53,0,.11,.07,.26,.24,.48,.19,.27,.3,.5,.3,.71,0,.3-.1,.53-.3,.73-.19,.19-.44,.29-.75,.29-.34,0-.61-.12-.85-.35-.21-.22-.33-.52-.33-.88,0-.66,.37-1.27,1.13-1.83,.75-.54,1.74-.81,2.95-.81,1.12,0,1.98,.24,2.58,.72,.59,.49,.88,1.09,.88,1.8v5.17c0,.46,.08,.8,.23,1.01,.14,.23,.33,.33,.56,.33,.26,0,.54-.1,.83-.33Zm-3.34-3.98c-1.7,.23-2.92,.62-3.63,1.15-.52,.4-.79,.97-.79,1.71,0,.53,.13,.95,.42,1.23,.28,.29,.63,.44,1.08,.44,.79,0,1.47-.31,2.06-.91,.57-.6,.87-1.36,.87-2.27v-1.35Z"/>
          <path class="cls-8" d="M464.33,203.45v13.71c0,.18,.06,.34,.18,.44,.17,.13,.37,.21,.61,.21h1.02s0,.75,0,.75h-5.39s0-.75,0-.75h.95c.31,0,.54-.07,.69-.23,.15-.15,.23-.36,.22-.62v-11.51c0-.33-.09-.57-.27-.73-.26-.21-.57-.31-.93-.32h-.86s0-.78,0-.78l3.78-.18Z"/>
          <path class="cls-8" d="M481.89,204.75l.9-1.28h.75l.05,5.45h-.7c-.41-1.68-1.03-2.91-1.85-3.67-.82-.77-1.75-1.17-2.82-1.17-.88,0-1.6,.28-2.16,.8-.56,.53-.84,1.18-.84,1.94,0,.48,.11,.9,.31,1.26,.22,.36,.54,.66,.97,.87,.42,.24,1.23,.47,2.41,.74,1.66,.37,2.83,.74,3.48,1.1,.68,.38,1.18,.84,1.5,1.4,.35,.58,.51,1.23,.51,1.98,0,1.35-.45,2.47-1.35,3.35-.92,.87-2.09,1.33-3.53,1.33-1.55,0-2.9-.5-4.04-1.49l-1.14,1.39h-.69v-5.82s.69,0,.69,0c.28,1.61,.91,2.88,1.9,3.81,.99,.92,2.09,1.38,3.33,1.38,1,0,1.82-.29,2.44-.89,.63-.58,.96-1.29,.95-2.14,0-.49-.12-.91-.34-1.26-.24-.35-.61-.66-1.12-.91-.51-.25-1.52-.55-3.01-.9-1.65-.4-2.77-.83-3.37-1.32-.84-.67-1.25-1.65-1.25-2.9,0-1.31,.42-2.39,1.25-3.23,.83-.84,1.92-1.26,3.22-1.25,.63,0,1.22,.11,1.79,.33,.57,.22,1.14,.58,1.76,1.1Z"/>
          <path class="cls-8" d="M493.28,215.77l.65,.19c-.53,1.92-1.69,2.9-3.47,2.9-1.31,0-2.4-.43-3.24-1.31-.83-.87-1.26-2.03-1.25-3.48,0-1.67,.46-2.96,1.38-3.87,.92-.92,1.99-1.38,3.23-1.38,.93,0,1.7,.26,2.3,.75,.61,.52,.91,1.08,.91,1.71,0,.37-.11,.7-.34,.93-.23,.24-.49,.37-.8,.37s-.56-.11-.77-.31c-.21-.2-.31-.46-.31-.76,0-.28,.12-.57,.35-.84,.11-.12,.17-.23,.16-.31,0-.19-.13-.37-.39-.55-.27-.19-.62-.28-1.08-.28-.82,0-1.45,.29-1.88,.89-.61,.87-.9,2-.9,3.43,0,1.35,.27,2.36,.81,3.06,.54,.7,1.23,1.04,2.06,1.04,1.17,0,2.03-.73,2.58-2.19Z"/>
          <path class="cls-8" d="M494.98,203.63l3.6-.18v7.29c.5-.63,1.03-1.12,1.61-1.44,.56-.31,1.18-.48,1.82-.48s1.16,.14,1.65,.43c.38,.22,.7,.62,.97,1.2,.27,.58,.39,1.25,.39,2.03v4.5c0,.29,.07,.48,.23,.63,.15,.13,.38,.2,.69,.2h.82v.75s-5.13,0-5.13,0l.02-.76h.57c.43,0,.73-.07,.9-.21,.16-.15,.25-.35,.25-.62v-4.5c0-.78-.19-1.39-.57-1.84-.38-.44-.86-.66-1.47-.66-.47,0-.89,.13-1.28,.37-.41,.26-.75,.63-1.03,1.14-.28,.51-.42,1.04-.41,1.61v3.76c0,.35,.07,.58,.21,.74,.14,.14,.37,.21,.69,.21h.82s0,.76,0,.76h-5.03v-.76s.56,0,.56,0c.39,0,.67-.06,.83-.22,.17-.16,.25-.38,.24-.71v-11.25c0-.41-.1-.72-.31-.91-.21-.2-.52-.29-.93-.29h-.67s0-.79,0-.79Z"/>
          <path class="cls-8" d="M512.34,208.81c1.27,0,2.35,.46,3.2,1.39,.87,.92,1.3,2.13,1.31,3.62,0,1.04-.2,1.92-.58,2.66-.39,.74-.95,1.31-1.66,1.74-.73,.42-1.5,.64-2.32,.64-1.24,0-2.28-.46-3.14-1.4-.85-.92-1.27-2.13-1.27-3.62s.42-2.69,1.29-3.62c.86-.93,1.91-1.4,3.17-1.4Zm0,.72c-.76,0-1.39,.35-1.87,1.03-.48,.68-.73,1.76-.73,3.24,0,1.5,.24,2.6,.74,3.29,.47,.7,1.09,1.04,1.86,1.04s1.43-.34,1.93-1.04c.48-.69,.73-1.83,.74-3.4-.01-1.46-.25-2.52-.74-3.17-.48-.65-1.14-.98-1.93-.98Z"/>
          <path class="cls-8" d="M522.69,208.81c1.28,0,2.35,.48,3.21,1.39,.87,.91,1.31,2.11,1.31,3.62,0,1.04-.19,1.93-.59,2.65-.38,.74-.93,1.32-1.64,1.74-.73,.42-1.51,.64-2.33,.65-1.22,0-2.27-.48-3.11-1.41-.87-.92-1.29-2.12-1.29-3.62s.42-2.69,1.29-3.61c.86-.93,1.91-1.4,3.16-1.41Zm0,.71c-.75,0-1.38,.35-1.86,1.04-.48,.68-.73,1.75-.73,3.24,0,1.5,.24,2.59,.72,3.29,.49,.71,1.11,1.05,1.87,1.04,.79,0,1.43-.34,1.93-1.04,.5-.69,.73-1.83,.74-3.4,0-1.47-.25-2.52-.73-3.17-.49-.65-1.12-.98-1.94-.99Z"/>
          <path class="cls-8" d="M532.19,203.46v13.71c0,.18,.05,.34,.16,.44,.18,.13,.39,.21,.63,.2h1.01v.77s-5.4,0-5.4,0v-.75s.94,0,.94,0c.32,0,.56-.07,.71-.22,.15-.15,.23-.36,.23-.62v-11.51c0-.35-.09-.58-.27-.73-.25-.21-.56-.32-.92-.32h-.86v-.78l3.78-.17Z"/>
        </g>
        <g>
          <path class="cls-8" d="M338.88,177.95h6.91v.77h-1.66c-.25,0-.44,.08-.57,.2-.13,.13-.18,.36-.18,.65v11.77c0,.28,.08,.49,.23,.6,.16,.12,.48,.18,.96,.18h2.11c1.11,0,2.03-.37,2.74-1.12,.72-.75,1.23-2.02,1.57-3.87h.72l-.34,5.75h-12.48v-.77h1.23c.42,0,.72-.08,.88-.23,.16-.16,.25-.42,.25-.76v-11.64c0-.26-.08-.43-.22-.55-.13-.14-.35-.2-.63-.19h-1.52v-.78Z"/>
          <path class="cls-8" d="M352.55,183.43l3.78-.1v8.12c0,.22,.05,.39,.16,.48,.16,.14,.35,.2,.59,.19h1.07s0,.78,0,.78h-5.38v-.78s.99,0,.99,0c.29,0,.51-.06,.65-.22,.14-.15,.2-.34,.2-.63v-5.95c0-.38-.1-.65-.32-.86-.21-.18-.53-.27-.95-.27h-.78s0-.77,0-.77Zm2.63-5.66c.3,0,.57,.12,.8,.35,.23,.23,.34,.49,.34,.81,0,.3-.11,.57-.33,.79-.22,.22-.5,.34-.81,.34-.31,0-.58-.11-.8-.34-.23-.23-.34-.5-.34-.8,0-.31,.11-.58,.35-.81,.23-.23,.49-.34,.79-.34Z"/>
          <path class="cls-8" d="M361.77,179.57h.67s0,3.85,0,3.85h3.06v.88h-3.06v6.12c0,.53,.13,.94,.37,1.23,.25,.28,.57,.42,.94,.42,.46,0,.84-.21,1.17-.64,.31-.43,.5-1.12,.56-2.11h.66c-.04,1.25-.32,2.19-.85,2.8-.54,.62-1.23,.92-2.07,.92-.78,0-1.39-.23-1.83-.65-.45-.43-.67-1-.66-1.7v-6.4h-1.64v-.67c.76-.13,1.33-.44,1.73-.93,.59-.76,.91-1.8,.96-3.13Z"/>
          <path class="cls-8" d="M369.83,179.57h.67v3.85s3.06,0,3.06,0v.89h-3.06v6.13c0,.53,.13,.93,.37,1.21,.24,.29,.56,.42,.94,.42,.45,0,.84-.2,1.17-.64,.32-.43,.5-1.12,.55-2.11h.67c-.04,1.26-.33,2.21-.85,2.81-.53,.62-1.22,.92-2.07,.92-.78,0-1.4-.22-1.84-.64-.44-.43-.66-1-.66-1.7v-6.4s-1.64,0-1.64,0v-.68c.76-.13,1.34-.44,1.74-.92,.59-.75,.91-1.79,.96-3.14Z"/>
          <path class="cls-8" d="M378.97,177.77v13.71c0,.19,.06,.34,.16,.43,.17,.14,.37,.21,.62,.2h1.01v.78h-5.39v-.78s.96,0,.96,0c.31,0,.55-.06,.69-.21,.15-.15,.22-.37,.22-.64v-11.5c0-.33-.08-.57-.27-.73-.25-.21-.55-.33-.92-.32h-.86v-.78l3.78-.17Z"/>
          <path class="cls-8" d="M390.75,188.21h-6.79c.05,1.45,.32,2.47,.82,3.06,.58,.68,1.32,1.01,2.21,1.01,1.32,0,2.38-.75,3.18-2.27l.65,.29c-.98,1.91-2.4,2.88-4.26,2.87-1.27,0-2.32-.44-3.19-1.37-.86-.92-1.29-2.1-1.3-3.52,0-1.52,.43-2.78,1.28-3.72,.85-.94,1.9-1.42,3.15-1.42,.92,0,1.71,.24,2.37,.71,.67,.47,1.17,1.14,1.51,2.03,.23,.62,.36,1.4,.37,2.33Zm-6.78-.71h4.12c.24,0,.42-.08,.56-.25,.13-.15,.2-.44,.2-.83,0-.74-.22-1.37-.69-1.9-.47-.51-1.01-.76-1.65-.76-.7,0-1.29,.32-1.78,.93-.49,.62-.75,1.56-.77,2.81Z"/>
          <path class="cls-8" d="M408.92,179.13l.83-1.49h.67s.38,5.96,.38,5.96h-.66c-.51-1.71-1.1-2.96-1.79-3.73-.88-.97-1.88-1.46-3-1.45-.87,0-1.65,.25-2.33,.74-.69,.47-1.22,1.22-1.59,2.2-.35,.98-.54,2.37-.53,4.14,0,1.72,.18,3.09,.54,4.07,.37,.98,.88,1.69,1.53,2.16,.64,.46,1.4,.68,2.27,.68,1.18,0,2.09-.33,2.74-.99,.63-.66,.95-1.49,.95-2.52v-1.42c0-.22-.08-.38-.26-.51-.16-.11-.45-.19-.83-.19h-1.26v-.71s6.26,0,6.26,0v.71s-.85,0-.85,0c-.37,0-.64,.07-.81,.2-.16,.14-.24,.33-.24,.58v5.7h-.68c-.24-.89-.5-1.74-.76-2.56-.51,.84-1.11,1.44-1.8,1.86-.7,.41-1.49,.62-2.37,.62-1.25,0-2.42-.32-3.5-.98-1.07-.63-1.91-1.54-2.54-2.71-.62-1.19-.93-2.52-.93-3.99s.32-2.82,.94-4c.63-1.17,1.48-2.11,2.57-2.81,1.09-.69,2.19-1.04,3.29-1.04,.64,0,1.24,.12,1.8,.32,.59,.21,1.23,.6,1.96,1.17Z"/>
          <path class="cls-8" d="M424.09,191.84l.36,.57c-.5,.51-1.05,.77-1.64,.77-.45,0-.85-.13-1.16-.38-.32-.25-.6-.69-.84-1.33-.62,.67-1.2,1.13-1.68,1.35-.48,.24-1.06,.36-1.73,.35-.96,0-1.71-.21-2.21-.63-.51-.42-.76-.96-.75-1.6,0-.98,.57-1.81,1.73-2.45,1.14-.65,2.69-1.09,4.59-1.3v-1.44c0-.51-.21-.94-.61-1.31-.41-.36-.93-.55-1.56-.54-.58,0-1.09,.12-1.52,.36-.29,.18-.44,.37-.44,.53-.01,.1,.08,.25,.25,.46,.19,.28,.29,.51,.29,.72,0,.3-.1,.56-.29,.74-.2,.2-.45,.29-.76,.29-.34,0-.62-.11-.84-.34-.24-.23-.34-.54-.35-.89,0-.67,.38-1.28,1.13-1.83,.75-.54,1.73-.83,2.96-.84,1.12,0,1.97,.26,2.57,.75,.59,.49,.88,1.08,.89,1.78v5.17c0,.45,.06,.8,.21,1.02,.15,.21,.35,.32,.58,.32,.26,0,.54-.12,.82-.32Zm-3.33-3.98c-1.7,.23-2.91,.61-3.62,1.16-.53,.38-.8,.96-.8,1.7,0,.52,.13,.92,.41,1.21,.27,.29,.63,.45,1.08,.44,.79,0,1.48-.31,2.05-.89,.58-.6,.87-1.36,.87-2.27v-1.35Z"/>
          <path class="cls-8" d="M425.46,183.45l3.43-.18v3.83c.35-1.26,.79-2.21,1.3-2.87,.51-.65,1.13-.96,1.88-.96,.51,0,.92,.15,1.23,.47,.3,.31,.45,.73,.45,1.25,0,.43-.11,.75-.31,1-.2,.24-.47,.35-.77,.35-.31,0-.54-.1-.73-.29-.19-.2-.28-.49-.28-.83,0-.22,.05-.44,.16-.63,.1-.19,.14-.29,.15-.33,0-.09-.06-.14-.19-.15-.27,0-.59,.16-.94,.49-.48,.45-.86,1.07-1.11,1.85-.4,1.23-.6,2.21-.6,2.94v2.02c0,.23,.07,.41,.25,.53,.14,.13,.43,.18,.82,.18h1.21v.77s-5.91,0-5.91,0v-.78h.95c.31,0,.55-.05,.72-.18,.16-.11,.24-.26,.24-.44v-6.01c0-.45-.1-.79-.29-1-.19-.21-.47-.32-.84-.32h-.83s0-.72,0-.72Z"/>
          <path class="cls-8" d="M440.18,177.94l3.7-.17v12.95c0,.51,.09,.87,.28,1.09,.19,.21,.48,.33,.86,.32h.66s0,.77,0,.77h-3.23l-.24-1.9c-.37,.68-.83,1.21-1.35,1.54-.51,.34-1.09,.52-1.72,.53-1.1-.01-2.01-.46-2.76-1.37-.76-.9-1.14-2.1-1.14-3.59,0-1.6,.49-2.88,1.46-3.84,.76-.75,1.64-1.13,2.63-1.13,.61,0,1.15,.15,1.65,.46,.47,.32,.9,.76,1.25,1.39v-5.36c0-.26-.11-.49-.33-.66-.22-.17-.56-.26-1.02-.26h-.68s0-.77,0-.77Zm-.59,6.04c-.74,0-1.31,.3-1.75,.92-.43,.58-.62,1.6-.63,3.03,0,1.54,.21,2.63,.65,3.27,.43,.63,1.01,.95,1.71,.94,.73,0,1.36-.34,1.89-1.05,.52-.71,.77-1.73,.77-3.08,.01-1.31-.27-2.31-.84-3.05-.48-.66-1.09-.98-1.8-.97Z"/>
          <path class="cls-8" d="M455.56,188.21h-6.79c.04,1.44,.31,2.48,.81,3.06,.58,.68,1.32,1.01,2.22,1,1.32,.01,2.38-.75,3.18-2.25l.66,.29c-.99,1.91-2.41,2.87-4.27,2.88-1.27,0-2.33-.45-3.21-1.38-.86-.92-1.29-2.09-1.29-3.52,0-1.54,.43-2.79,1.28-3.71,.85-.95,1.89-1.43,3.14-1.43,.92,0,1.71,.24,2.37,.71,.66,.47,1.17,1.14,1.5,2.02,.23,.62,.37,1.4,.38,2.34Zm-6.78-.72h4.11c.24,0,.43-.07,.58-.24,.12-.15,.2-.45,.19-.84,0-.73-.22-1.35-.69-1.88-.46-.51-1.01-.77-1.63-.77-.7,0-1.31,.31-1.79,.94-.48,.62-.74,1.56-.76,2.79Z"/>
          <path class="cls-8" d="M457.06,183.42l3.13-.17c.13,.59,.23,1.27,.29,2.07,.42-.67,.92-1.19,1.5-1.52,.59-.36,1.23-.52,1.97-.52,.62,0,1.14,.12,1.57,.35,.42,.25,.77,.64,1.02,1.17,.26,.54,.39,1.13,.38,1.78v4.6c0,.34,.08,.59,.24,.72,.14,.16,.4,.22,.76,.22h.65v.78s-4.92,0-4.92,0v-.77s.46,0,.46,0c.45,0,.74-.06,.92-.2,.17-.14,.26-.35,.26-.65v-4.03c0-.89-.13-1.53-.4-1.96-.38-.6-.95-.9-1.73-.91-.76,0-1.41,.32-1.9,.92-.52,.62-.78,1.41-.77,2.38l-.02,3.51c.02,.35,.09,.59,.24,.74,.16,.14,.41,.21,.77,.21h.64v.78s-4.96,0-4.96,0v-.77s.66,0,.66,0c.32,0,.56-.06,.73-.2,.17-.13,.25-.3,.26-.52v-6.09c0-.39-.11-.7-.33-.91-.21-.21-.53-.31-.93-.3h-.48v-.68Z"/>
        </g>
      </g>
    </g>
  </g>
</svg>