<?xml version="1.0" encoding="UTF-8"?>
<svg id="_レイヤー_2" data-name="レイヤー 2" xmlns="http://www.w3.org/2000/svg" viewBox="0 0 100 122.33">
  <defs>
    <style>
      .cls-1 {
        fill: #36773c;
      }

      .cls-2 {
        fill: #4f4f4f;
      }

      .cls-3 {
        fill: #e23939;
      }
    </style>
  </defs>
  <g id="_レイヤー_1-2" data-name="レイヤー 1">
    <g>
      <path class="cls-1" d="M50,0L0,114.57l1.77,.54c15.65,4.79,31.87,7.22,48.23,7.22,.25,0,.5,0,.75,0,16.1-.07,32.08-2.5,47.48-7.22l1.77-.54L50,0Z"/>
      <path class="cls-3" d="M50,0L7.59,97.17l1.75,.55c13.18,4.16,26.85,6.27,40.66,6.27,.25,0,.5,0,.75,0,13.55-.07,26.98-2.18,39.91-6.27l1.75-.55L50,0Z"/>
      <path class="cls-2" d="M49.46,39.4c-.28-.57-.59-1.13-.92-1.66l-1.01-1.62-.68,.9-.47,.62c-.38,.51-.74,1.05-1.05,1.62-.56,1.02-.97,1.76-.84,2.71,.17,1.17,1.07,2.37,2.35,2.63,.16,.03,.32,.05,.49,.05,1.54,0,2.66-1.36,2.85-2.68h0c.12-.85-.22-1.53-.72-2.57Z"/>
      <path class="cls-2" d="M61.84,52.72c-.34-.54-.7-1.07-1.09-1.56l-1.17-1.51-.59,.97-.4,.67c-.33,.55-.63,1.12-.88,1.71-.46,1.07-.79,1.85-.56,2.78,.28,1.15,1.3,2.26,2.6,2.38,.16,.02,.33,.02,.49,0,1.54-.15,2.51-1.62,2.57-2.95h0c.03-.86-.37-1.5-.98-2.48Z"/>
      <path class="cls-2" d="M44.31,62.07c-.11-.63-.25-1.25-.42-1.86l-.52-1.84-.9,.68-.62,.47c-.51,.38-1,.81-1.45,1.26-.83,.82-1.42,1.42-1.56,2.37-.17,1.17,.36,2.58,1.53,3.18,.14,.07,.3,.14,.46,.19,1.48,.43,2.93-.57,3.48-1.78h0c.35-.78,.22-1.53,.02-2.67Z"/>
      <path class="cls-2" d="M56.53,69.19c-.41-.49-.85-.96-1.3-1.39l-1.37-1.33-.44,1.04-.31,.72c-.25,.59-.46,1.2-.63,1.82-.3,1.13-.52,1.94-.16,2.83,.44,1.1,1.61,2.05,2.91,1.98,.16,0,.33-.03,.49-.07,1.5-.37,2.26-1.96,2.12-3.28h0c-.09-.85-.58-1.44-1.32-2.32Z"/>
      <path class="cls-2" d="M50.42,85.55c-.38-.51-.79-1-1.22-1.46l-1.29-1.41-.5,1.01-.35,.7c-.28,.57-.53,1.17-.73,1.78-.37,1.11-.63,1.91-.32,2.82,.38,1.12,1.49,2.14,2.8,2.14,.16,0,.33-.01,.49-.04,1.52-.29,2.36-1.83,2.3-3.15h0c-.04-.86-.49-1.47-1.19-2.39Z"/>
      <path class="cls-2" d="M30.97,81.05c-.42-.48-.87-.94-1.33-1.36l-1.4-1.3-.42,1.05-.29,.73c-.24,.59-.43,1.21-.58,1.83-.28,1.13-.48,1.95-.1,2.83,.47,1.09,1.66,2.01,2.96,1.91,.16-.01,.32-.04,.49-.08,1.49-.41,2.21-2.01,2.04-3.33h0c-.11-.85-.61-1.42-1.37-2.29Z"/>
      <path class="cls-2" d="M70.98,82.19c-.32-.64-.67-1.27-1.04-1.88l-1.14-1.83-.77,1.02-.53,.7c-.43,.57-.83,1.19-1.18,1.82-.64,1.15-1.1,1.98-.95,3.05,.19,1.32,1.2,2.68,2.65,2.96,.18,.04,.36,.06,.56,.06,1.74,0,3-1.53,3.21-3.02h0c.14-.96-.24-1.73-.82-2.89Z"/>
    </g>
  </g>
</svg>